<?xml version="1.0" standalone="no"?>
<!DOCTYPE svg PUBLIC "-//W3C//DTD SVG 20010904//EN"
 "http://www.w3.org/TR/2001/REC-SVG-20010904/DTD/svg10.dtd">
<svg version="1.0" xmlns="http://www.w3.org/2000/svg"
 width="1280.000000pt" height="1202.000000pt" viewBox="0 0 1280.000000 1202.000000"
 preserveAspectRatio="xMidYMid meet">
<metadata>
Created by potrace 1.15, written by Peter Selinger 2001-2017
</metadata>
<g transform="translate(0.000000,1202.000000) scale(0.100000,-0.100000)"
fill="#ff5722" stroke="none">
<path d="M3408 11663 c-588 -196 -1068 -359 -1068 -364 0 -4 482 -810 1070
-1791 l1070 -1783 0 2148 c0 1181 -1 2147 -2 2147 -2 -1 -483 -161 -1070 -357z"/>
<path d="M1490 10525 c-529 -530 -672 -678 -660 -685 219 -134 3366 -2017
3368 -2015 4 4 -2017 3370 -2026 3373 -4 1 -311 -302 -682 -673z"/>
<path d="M388 8708 c-179 -541 -325 -984 -324 -986 2 -1 886 -1 1966 0 l1963
3 -1633 980 c-898 539 -1635 981 -1639 983 -3 1 -153 -440 -333 -980z"/>
<path d="M11466 8442 l-1119 -747 152 -3 151 -3 -7 -27 c-3 -15 -21 -79 -39
-142 -17 -63 -30 -116 -29 -118 2 -2 503 330 1114 737 l1111 741 -102 155
c-57 85 -105 154 -108 154 -3 0 -508 -336 -1124 -747z"/>
<path d="M4 7523 c189 -656 331 -1080 521 -1558 510 -1278 1037 -2004 1553
-2136 73 -19 151 -19 3144 -19 3454 0 3131 -8 3314 80 464 224 934 924 1393
2072 127 319 221 580 347 973 61 187 174 574 174 593 0 9 -1191 12 -5226 12
-4972 0 -5225 -1 -5220 -17z"/>
<path d="M4037 3016 l-637 -645 57 -11 c92 -18 187 -48 283 -89 l89 -39 631
634 c347 349 633 634 634 634 2 0 296 -293 654 -652 l650 -652 89 46 c90 48
254 108 293 108 12 0 20 4 18 9 -1 5 -292 300 -646 655 l-643 646 -417 0 -417
0 -638 -644z"/>
<path d="M3037 2215 c-356 -67 -649 -286 -806 -601 -204 -408 -140 -890 166
-1241 149 -171 383 -303 628 -355 81 -17 323 -16 410 1 370 73 688 333 825
674 56 140 72 219 77 387 4 133 2 170 -17 260 -87 425 -406 754 -831 861 -112
28 -341 35 -452 14z m422 -145 c98 -24 219 -79 322 -145 445 -288 563 -916
257 -1368 -53 -78 -157 -187 -231 -243 -254 -191 -631 -232 -950 -103 -136 55
-217 109 -327 219 -141 141 -217 270 -267 451 -28 99 -25 338 5 444 118 418
418 705 797 765 92 14 297 4 394 -20z"/>
<path d="M3105 1950 c-328 -39 -614 -319 -701 -688 -25 -102 -22 -269 5 -365
96 -347 410 -592 787 -614 226 -14 437 58 591 201 184 170 273 376 273 630 0
321 -141 572 -406 724 -176 100 -350 136 -549 112z"/>
<path d="M6882 2215 c-367 -66 -660 -289 -818 -620 -91 -193 -127 -389 -105
-586 54 -501 405 -884 906 -991 78 -16 333 -16 410 0 474 102 821 460 895 924
20 122 8 350 -24 466 -100 360 -382 657 -729 767 -169 54 -375 69 -535 40z
m417 -145 c174 -43 370 -158 492 -288 323 -345 345 -905 49 -1277 -198 -248
-442 -367 -755 -367 -399 -1 -736 209 -920 572 -94 186 -109 449 -38 675 118
374 422 649 778 705 94 14 297 4 394 -20z"/>
<path d="M6945 1950 c-521 -63 -881 -723 -648 -1185 147 -290 415 -464 745
-482 224 -13 431 58 585 201 270 250 350 628 208 979 -102 249 -377 450 -665
486 -92 12 -133 12 -225 1z"/>
</g>
</svg>
