<?xml version="1.0" encoding="iso-8859-1"?>
<!-- Uploaded to: SVG Repo, www.svgrepo.com, Generator: SVG Repo Mixer Tools -->
<svg version="1.1" id="Layer_1" xmlns="http://www.w3.org/2000/svg" xmlns:xlink="http://www.w3.org/1999/xlink" 
	 viewBox="0 0 512 512" xml:space="preserve">
<path style="fill:#F1CE30;" d="M170.149,359.286L16.902,84.081l56.697-31.63c19.691-10.985,44.558-3.913,55.522,15.789
	l95.371,171.374l233.204-49.524c22.036-4.679,43.694,9.389,48.378,31.423l5.025,23.643c4.685,22.04-9.386,43.706-31.428,48.387
	L170.149,359.286z"/>
<path style="fill:#D9BA2C;" d="M508.568,233.243l-311.143,67.792L62.461,58.665L16.902,84.081l153.247,275.204l309.523-65.742
	c22.042-4.681,36.113-26.347,31.428-48.386L508.568,233.243z"/>
<path style="fill:#542C19;" d="M161.719,377.848L2.082,91.702c-4.414-7.913-1.578-17.906,6.334-22.32l0,0
	c7.913-4.414,17.904-1.578,22.319,6.334l147.844,265.007l271.675-57.704c8.863-1.882,17.574,3.777,19.456,12.64l0,0
	c1.882,8.863-3.777,17.574-12.64,19.456L161.719,377.848z"/>
<g>
	<path style="fill:#69351D;" d="M165.454,441.985l-30.854-11.164l94.94-262.406l211.239-44.9
		c8.862-1.883,17.574,3.773,19.457,12.635l0,0c1.884,8.862-3.773,17.575-12.635,19.458l-193.408,41.11L165.454,441.985z"/>
	
		<rect x="273.41" y="273.315" transform="matrix(-0.2446 -0.9696 0.9696 -0.2446 234.5285 762.1517)" style="fill:#69351D;" width="281.471" height="32.811"/>
</g>
<path style="fill:#542C19;" d="M278.209,464.725c-80.965,0-157.732-13.144-214.048-36.362c-8.739-3.603-12.664-13.792-8.559-22.305
	l0,0c3.761-7.8,12.955-11.374,20.956-8.063c52.324,21.653,124.69,33.92,201.651,33.92s149.326-12.266,201.651-33.92
	c8.002-3.311,17.195,0.263,20.956,8.063l0,0c4.105,8.514,0.179,18.704-8.559,22.305C435.94,451.581,359.174,464.725,278.209,464.725
	z"/>
</svg>