<?xml version="1.0" encoding="iso-8859-1"?>
<!-- Uploaded to: SVG Repo, www.svgrepo.com, Generator: SVG Repo Mixer Tools -->
<svg height="800px" width="800px" version="1.1" id="Layer_1" xmlns="http://www.w3.org/2000/svg" xmlns:xlink="http://www.w3.org/1999/xlink" 
	 viewBox="0 0 512 512" xml:space="preserve">
<polygon style="fill:#7BFFCD;" points="317.363,8.17 348.051,51.744 298.115,83.521 295.576,8.17 "/>
<polygon style="fill:#CAFFEB;" points="295.576,8.17 319.902,61.734 256,84.425 163.949,51.744 194.637,8.17 "/>
<polygon style="fill:#FFFFFF;" points="286.687,51.743 293.975,162.106 218.025,162.106 225.313,51.743 "/>
<polygon style="fill:#6CDFB4;" points="348.051,51.744 304.574,162.107 276.436,162.107 315.37,51.744 "/>
<g>
	<polygon style="fill:#7BFFCD;" points="315.37,51.744 287.33,162.107 272.188,162.107 286.687,51.744 	"/>
	<polygon style="fill:#7BFFCD;" points="225.313,51.743 239.812,162.106 207.426,162.106 163.949,51.743 	"/>
</g>
<path style="fill:#FFD764;" d="M334.969,174.114l14.279-36.144c3.316-8.393-0.801-17.885-9.193-21.201
	c-8.393-3.316-17.885,0.801-21.201,9.193l-14.277,36.141c-15.42-4.465-31.716-6.867-48.574-6.867s-33.155,2.402-48.574,6.867
	l-14.277-36.141c-3.316-8.393-12.808-12.509-21.201-9.193s-12.509,12.808-9.193,21.201l14.279,36.144
	c-56.575,28.803-95.33,87.583-95.33,155.419c0,96.261,78.036,174.297,174.297,174.297S430.3,425.794,430.3,329.533
	C430.297,261.697,391.542,202.917,334.969,174.114z M256,460.256c-72.081,0-130.723-58.642-130.723-130.723
	S183.919,198.81,256,198.81s130.723,58.642,130.723,130.723S328.081,460.256,256,460.256z"/>
<path d="M410.773,232.851c-16.298-26.036-38.852-47.522-65.531-62.504l11.604-29.375c2.405-6.089,2.296-12.751-0.308-18.758
	c-2.605-6.006-7.391-10.639-13.481-13.045c-2.685-1.06-5.445-1.612-8.177-1.702l20.772-52.73c1.009-2.558,0.661-5.451-0.922-7.698
	L324.046,3.465C322.517,1.293,320.025,0,317.367,0H194.633c-2.658,0-5.15,1.293-6.68,3.466l-30.684,43.574
	c-1.583,2.247-1.929,5.141-0.922,7.698l20.773,52.73c-2.731,0.09-5.493,0.642-8.176,1.702c-12.57,4.966-18.755,19.233-13.79,31.802
	l11.605,29.375c-26.679,14.983-49.235,36.468-65.532,62.504c-18.118,28.943-27.695,62.374-27.695,96.682
	C73.533,430.146,155.387,512,256,512c100.612,0,182.467-81.854,182.467-182.467C438.467,295.227,428.891,261.794,410.773,232.851z
	 M173.166,52.847l25.707-36.507h114.255l25.708,36.507l-39.192,99.482c-5.765-1.416-11.602-2.533-17.484-3.379l11.692-89.035h14.228
	c4.513,0,8.17-3.658,8.17-8.17s-3.657-8.17-8.17-8.17H203.92c-4.512,0-8.17,3.658-8.17,8.17s3.658,8.17,8.17,8.17h14.229
	l11.691,89.035c-5.881,0.846-11.718,1.964-17.484,3.38L173.166,52.847z M246.111,147.344l-11.481-87.43h42.741l-11.482,87.431
	c-3.289-0.176-6.585-0.279-9.889-0.279C252.696,147.065,249.4,147.168,246.111,147.344z M256,495.66
	c-91.603,0-166.127-74.524-166.127-166.127c0-62.841,34.818-119.603,90.867-148.137c3.754-1.911,5.44-6.364,3.892-10.282
	l-14.278-36.144c-1.656-4.19,0.407-8.946,4.596-10.601c0.983-0.388,1.996-0.572,2.992-0.572c3.256,0,6.341,1.961,7.608,5.169
	c0.096,0.242,0.202,0.477,0.317,0.705l13.958,35.429c1.545,3.924,5.819,6.026,9.874,4.853c14.995-4.343,30.573-6.545,46.301-6.545
	c15.728,0,31.307,2.202,46.301,6.545c4.055,1.174,8.329-0.93,9.874-4.853l13.957-35.425c0.115-0.229,0.222-0.465,0.319-0.708
	c1.656-4.19,6.411-6.252,10.601-4.597c2.029,0.802,3.625,2.346,4.494,4.349c0.868,2.002,0.904,4.222,0.102,6.253l-14.278,36.144
	c-1.548,3.918,0.137,8.372,3.892,10.282c56.047,28.536,90.865,85.299,90.865,148.137C422.127,421.136,347.603,495.66,256,495.66z"/>
<path d="M256.001,190.64c-76.586,0-138.893,62.307-138.893,138.893s62.307,138.893,138.893,138.893
	c76.585,0,138.893-62.307,138.893-138.893S332.586,190.64,256.001,190.64z M256.001,452.085
	c-67.576,0-122.553-54.977-122.553-122.553S188.425,206.98,256.001,206.98s122.553,54.977,122.553,122.553
	S323.576,452.085,256.001,452.085z"/>
</svg>