<svg xmlns="http://www.w3.org/2000/svg" shape-rendering="geometricPrecision" text-rendering="geometricPrecision" image-rendering="optimizeQuality" fill-rule="evenodd" clip-rule="evenodd" viewBox="0 0 486 511.634"><path fill="#171717" fill-rule="nonzero" d="M307.832 171.504l.018-.05-79.963-138.065-6.5.815c11.977 79.738 33.221 141.964 70.454 184.017l15.991-46.717zm-34.461 286.018l171.204-49.995-39.642-68.448-88.82 29.938a16.689 16.689 0 01-3.704.78l-86.134 8.321 47.096 79.404zm180.302-34.286l-171.017 49.939 14.908 25.136a8.831 8.831 0 01-3.11 12.094 8.83 8.83 0 01-12.094-3.11L205.69 378.03a16.846 16.846 0 01-1.102-.527l-169.01 21.314a8.813 8.813 0 01-2.211-17.485l50.201-6.331 19.041-83.849c-31.764-45.588-49.695-108.354-55.847-180.657l-10.94-18.861L1.23 33.312a8.83 8.83 0 013.11-12.094 8.83 8.83 0 0112.094 3.11l9.816 16.551 192.014-24.106-2.04-3.524a8.826 8.826 0 0115.273-8.845l156.577 270.35c23.6 5.892 50.311 8.779 80.524 8.527 7.239-.36 14.127 4.092 16.54 11.303 2.906 8.684-1.777 18.081-10.462 20.988l-52.679 17.755 61.963 106.986a8.825 8.825 0 01-15.273 8.846l-15.014-25.923zm-351.484-50.584l90.055-11.356-1.097-1.892c-29.55-9.926-54.272-27.152-74.528-50.299l-14.43 63.547zm261.002-105.645l-43.611-75.299-13.879 40.548c16.235 14.69 35.252 26.323 57.49 34.751zm-186.729 67.081l-47.083-81.168-7.796 34.329c.191.252.38.508.572.758 14.968 19.589 32.998 35.225 54.307 46.081zM116.38 230.51l-47.165-81.309c7.211 45.422 19.956 85.52 38.88 117.789l8.285-36.48z"/><path fill="#C52D3E" d="M212.309 362.812l98.541-9.52 158.563-53.445c-171.741 1.7-239.15-93.615-264.582-264.004L34.895 56.964l177.414 305.848z"/></svg>