<?xml version="1.0" encoding="iso-8859-1"?>
<!-- Uploaded to: SVG Repo, www.svgrepo.com, Generator: SVG Repo Mixer Tools -->
<svg height="800px" width="800px" version="1.1" id="Layer_1" xmlns="http://www.w3.org/2000/svg" xmlns:xlink="http://www.w3.org/1999/xlink" 
	 viewBox="0 0 512 512" xml:space="preserve">
<g>
	<g>
		<path style="fill:#D2D5D7;" d="M328.752,341.155c15.837-23.111,31.982-48.34,48.402-75.705l-83.5-50.105l-47.951,79.916
			L328.752,341.155z"/>
		<polygon style="fill:#D2D5D7;" points="189.741,264.333 230.303,191.073 153.071,148.312 112.482,221.634 		"/>
	</g>
	<g>
		<path style="fill:#A46F3E;" d="M324.73,233.993c0,0,42.002-13.647,73.269-51.677c0,0,36.961-51.032,51.791-100.414
			c0,0,2.136-17.646,28.248-18.909c0,0,17.302-19.5-30.323-48.075L422.858,0L293.657,215.349L324.73,233.993z"/>
		<path style="fill:#A46F3E;" d="M283.268,58.951c9.446-17.064-0.185-40.466-21.513-52.268c-21.327-11.811-46.274-7.548-55.72,9.507
			c-5.57,10.081-4.361,22.325,1.845,33.13l-54.81,98.993l46.336,25.653l54.81-98.993C266.663,74.496,277.689,69.023,283.268,58.951"
			/>
	</g>
	<g>
		<path style="fill:#D2D5D7;" d="M360.369,179.989c1.774,7.097-2.542,14.283-9.631,16.057c-7.097,1.774-14.283-2.542-16.057-9.631
			c-1.774-7.097,2.534-14.283,9.631-16.057S358.595,172.892,360.369,179.989"/>
		<path style="fill:#D2D5D7;" d="M437.442,51.528c1.774,7.097-2.542,14.283-9.631,16.057c-7.097,1.774-14.283-2.542-16.057-9.631
			c-1.774-7.097,2.534-14.283,9.631-16.057C428.482,40.122,435.667,44.43,437.442,51.528"/>
		<path style="fill:#D2D5D7;" d="M185.622,125.971c2.366-4.264,7.733-5.809,11.997-3.452c4.264,2.366,5.809,7.742,3.452,12.006
			c-2.366,4.264-7.733,5.809-11.997,3.443C184.801,135.611,183.256,130.235,185.622,125.971"/>
		<path style="fill:#D2D5D7;" d="M215.552,71.91c2.366-4.264,7.733-5.809,11.997-3.452c4.264,2.366,5.809,7.742,3.452,12.006
			c-2.366,4.264-7.733,5.809-11.997,3.443C214.731,81.55,213.195,76.174,215.552,71.91"/>
	</g>
	<path style="fill:#A5A4A4;" d="M143.375,247.543c-1.448,0-2.913-0.353-4.264-1.103c-4.264-2.366-5.817-7.733-3.452-11.997
		l10.823-19.553c2.366-4.273,7.742-5.8,11.997-3.452c4.264,2.366,5.817,7.733,3.452,12.006l-10.823,19.544
		C149.493,245.901,146.483,247.543,143.375,247.543"/>
	<path style="fill:#546A79;" d="M348.69,512H48.552c-9.754,0-17.655-7.901-17.655-17.655V206.477
		c0-13.444,14.424-21.954,26.191-15.448l300.138,165.862c5.623,3.107,9.119,9.031,9.119,15.457v121.997
		C366.345,504.099,358.445,512,348.69,512"/>
	<g>
		<path style="fill:#7892A0;" d="M75.035,450.207c4.873,0,8.828-3.946,8.828-8.828c0-4.882-3.955-8.828-8.828-8.828H30.897v17.655
			H75.035z"/>
		<path style="fill:#7892A0;" d="M101.518,485.517c4.873,0,8.828-3.946,8.828-8.828c0-4.882-3.955-8.828-8.828-8.828H30.897v17.655
			H101.518z"/>
	</g>
	<path style="fill:#A5A4A4;" d="M309.456,330.492c14.018-20.701,29.528-44.606,48.755-75.14c0.203-0.327,0.23-0.697,0.388-1.033
		l-14.83-8.907c-0.15,0.203-0.371,0.318-0.503,0.53c-19.315,30.685-34.842,54.616-48.87,75.317
		c-0.159,0.229-0.177,0.503-0.309,0.742L309.456,330.492z"/>
</g>
</svg>