<svg xmlns="http://www.w3.org/2000/svg" width="193.738" height="223.038" viewBox="0 0 51.26 59.012"><defs><clipPath id="a" clipPathUnits="userSpaceOnUse"><path d="M377.94 418.511c2.384-7.402 8.673-6.992 10.033-6.812.168.023.262.042.262.042l28.77-24.681a2 2 0 0 1-.011-.199l-.002-.035c-.072-1.607.585-3.263 1.249-4.502l.003-.009c.183-.342.369-.656.539-.927.427-.68 1.476-1.811 1.476-1.811.199.157.422.389.659.681q.036.04.073.087c.02.026.043.05.061.079 2.104 2.678 5.27 9.448 5.27 9.448-2.538 2.115-21.445 12.984-21.445 12.984l-1.268 1.975s-5.344 3.48-9.515 6.149c-2.113 1.353-3.927 2.499-4.589 2.877-1.208.688-2.308 1.009-3.656 1.187-.86.113-1.819.169-2.973.223-2.962.141-4.512 4.231-4.512 4.231z"/></clipPath><clipPath id="c" clipPathUnits="userSpaceOnUse"><path d="M0 500h500V0H0Z"/></clipPath><clipPath id="d" clipPathUnits="userSpaceOnUse"><path d="M402.152 353.47c-2.084-2.666-8.691-5.911-8.691-5.911v-.812c-1.041-1.044-7.88-4.057-14.949-5.561-5.946-1.272-17.711-5.49-22.127-8.109-.838-.494-1.408-.931-1.631-1.281-1.392-2.201 2.783-1.275 5.33-.694 2.549.579 8.577-1.856 8.577-1.856.812 3.826 5.795 5.911 9.039 5.911s14.72-.578 19.239 4.869c4.52 5.445 10.543 7.414 20.513 10.08 9.965 2.665 13.328 10.084 13.328 10.084-2.713-.589-5.408-.341-7.788.248-4.649 1.143-8.09 3.576-8.09 3.576-4.173-2.087-10.662-7.88-12.75-10.544"/></clipPath><clipPath id="f" clipPathUnits="userSpaceOnUse"><path d="M0 500h500V0H0Z"/></clipPath><clipPath id="g" clipPathUnits="userSpaceOnUse"><path d="M478.717 421.353c-.539-.369-1.19-.963-1.937-1.909-2.324-2.944-4.338-4.802-7.746-5.422 0 0 .619-4.185-1.24-6.507-1.859-2.325-17.508-9.607-17.664-19.833 0 0-10.38-2.943-15.957-11.775 0 0-3.564 2.478-8.832 0 0 0-3.697-7.196 2.55-10.834 1.531-.89 3.663-1.568 6.591-1.872 0 0 16.424 11.776 23.086 22.157 0 0 2.634 7.127 7.746 12.085 5.115 4.958 16.888 21.072 15.185 24.481 0 0-.08.026-.233.026-.281 0-.81-.089-1.549-.597"/></clipPath><clipPath id="i" clipPathUnits="userSpaceOnUse"><path d="M404.632 391.038h14.233v-25.671h-14.233z"/></clipPath><linearGradient id="b" x1="0" x2="1" y1="0" y2="0" gradientTransform="matrix(48.38281 0 0 -48.38281 716.137 393.227)" gradientUnits="userSpaceOnUse" spreadMethod="pad"><stop offset="0" style="stop-opacity:1;stop-color:#c2886c"/><stop offset=".478" style="stop-opacity:1;stop-color:#deb18a"/><stop offset="1" style="stop-opacity:1;stop-color:#deb18a"/></linearGradient><linearGradient id="e" x1="0" x2="1" y1="0" y2="0" gradientTransform="scale(76.30235 -76.30235)rotate(-23.724 -5.57 -23.947)" gradientUnits="userSpaceOnUse" spreadMethod="pad"><stop offset="0" style="stop-opacity:1;stop-color:#deb18a"/><stop offset=".522" style="stop-opacity:1;stop-color:#deb18a"/><stop offset="1" style="stop-opacity:1;stop-color:#c2886c"/></linearGradient><linearGradient id="h" x1="0" x2="1" y1="0" y2="0" gradientTransform="scale(-56.41128 56.41128)rotate(-37.248 3.274 24.821)" gradientUnits="userSpaceOnUse" spreadMethod="pad"><stop offset="0" style="stop-opacity:1;stop-color:#deb18a"/><stop offset=".522" style="stop-opacity:1;stop-color:#deb18a"/><stop offset="1" style="stop-opacity:1;stop-color:#c2886c"/></linearGradient></defs><path d="m0 0-2.617-1.735s-4.404-.345-8.629.742c-.317.079-.624.171-.937.262-1.395.442-3.384 1.759-4.363 2.421-.849.569-1.836 1.837-2.883 3.485q-.04.067-.083.134a43 43 0 0 0-1.028 1.74 73 73 0 0 0-1.447 2.7 99 99 0 0 0-1.418 2.861c-2.697 5.644-4.915 11.292-4.915 11.292s0 .436.344 1.226c.204.459.524 1.029 1.035 1.704.347.46.785.969 1.326 1.511a23 23 0 0 0 2.251 1.961l6.612-6.195s-.165-1.552.335-3.324c.125-.459.289-.933.524-1.396q.236-.498.56-.96a6.27 6.27 0 0 1 2.926-2.237c.895 1.079 3.48 4.441 4.238 6.273-.408-1.061-2.131-5.415-3.651-7.916a7.7 7.7 0 0 1 1.383-2.099 6.8 6.8 0 0 1 1.427-1.148s-.004-.014-.022-.042c-.23-.446-2.32-4.656 1.644-8.088.234-.201.495-.403.784-.596C-5.11 1.565-2.893.689 0 0" style="fill:#652d90;fill-opacity:1;fill-rule:nonzero;stroke:none" transform="matrix(.35278 0 0 -.35278 33.428 46.211)"/><path d="M0 0q.052.124.092.239S.06.153 0 0" style="fill:#652d90;fill-opacity:1;fill-rule:nonzero;stroke:none" transform="matrix(.35278 0 0 -.35278 30.546 38.286)"/><path d="m0 0-1.081.696 14.644 22.712 1.081-.697z" style="fill:#231f20;fill-opacity:1;fill-rule:nonzero;stroke:none" transform="matrix(.35278 0 0 -.35278 37.428 22.164)"/><path d="m0 0-1.08.697L.518 3.132l1.08-.696Z" style="fill:#faaf40;fill-opacity:1;fill-rule:nonzero;stroke:none" transform="matrix(.35278 0 0 -.35278 42.468 14.342)"/><path d="M0 0s-4.505-1.897-4.328-3.498c0 0-1.362 1.719 2.076 3.675" style="fill:#ce9d77;fill-opacity:1;fill-rule:nonzero;stroke:none" transform="matrix(.35278 0 0 -.35278 18.214 29.018)"/><g clip-path="url(#a)" transform="matrix(.35278 0 0 -.35278 -119.308 174.163)"><path d="M377.94 418.511c2.384-7.402 8.673-6.992 10.033-6.812.168.023.262.042.262.042l28.77-24.681a2 2 0 0 1-.011-.199l-.002-.035c-.072-1.607.585-3.263 1.249-4.502l.003-.009c.183-.342.369-.656.539-.927.427-.68 1.476-1.811 1.476-1.811.199.157.422.389.659.681q.036.04.073.087c.02.026.043.05.061.079 2.104 2.678 5.27 9.448 5.27 9.448-2.538 2.115-21.445 12.984-21.445 12.984l-1.268 1.975s-5.344 3.48-9.515 6.149c-2.113 1.353-3.927 2.499-4.589 2.877-1.208.688-2.308 1.009-3.656 1.187-.86.113-1.819.169-2.973.223-2.962.141-4.512 4.231-4.512 4.231z" style="fill:url(#b);stroke:none"/></g><g clip-path="url(#c)" transform="matrix(.35278 0 0 -.35278 -119.308 174.163)"><path d="m0 0-7.362 5.108C-7.9 4.914-.223 6.834.934 10.767l.369-5.602L3.69 3.21l-.37-.926S.649 1.298 0 0" style="fill:#ce9d77;fill-opacity:1;fill-rule:nonzero;stroke:none" transform="translate(425.595 391.21)"/></g><g clip-path="url(#d)" transform="matrix(.35278 0 0 -.35278 -119.308 174.163)"><path d="M402.152 353.47c-2.084-2.666-8.691-5.911-8.691-5.911v-.812c-1.041-1.044-7.88-4.057-14.949-5.561-5.946-1.272-17.711-5.49-22.127-8.109-.838-.494-1.408-.931-1.631-1.281-1.392-2.201 2.783-1.275 5.33-.694 2.549.579 8.577-1.856 8.577-1.856.812 3.826 5.795 5.911 9.039 5.911s14.72-.578 19.239 4.869c4.52 5.445 10.543 7.414 20.513 10.08 9.965 2.665 13.328 10.084 13.328 10.084-2.713-.589-5.408-.341-7.788.248-4.649 1.143-8.09 3.576-8.09 3.576-4.173-2.087-10.662-7.88-12.75-10.544" style="fill:url(#e);stroke:none"/></g><g clip-path="url(#f)" transform="matrix(.35278 0 0 -.35278 -119.308 174.163)"><path d="m0 0-.202-3.055c-.033-.506-.158-.9-.347-1.2-.946-1.515-3.443-.744-3.443-.744l-1.98-2.115c1.845-1.443.236-3.488-1.374-3.353-1.612.134-2.217 2.749-2.217 2.749l-2.071 1.195-.779.45c-.335.938-.67 8.117-.67 8.117.804.571 1.61-.101 2.449-.503.837-.402 1.038.636 1.038.636l.37-.234.071.109.197.295c.143 0 .313-.095.489-.232.409-.314.82-.842.82-.842-.066 1.14.571 1.476.571 1.476L-4.764.737s.671.503 1.241.569l.047.002C-2.81 1.308 0 0 0 0" style="fill:#deb18a;fill-opacity:1;fill-rule:nonzero;stroke:none" transform="translate(440.099 402.57)"/><path d="M0 0c-.946-1.514-3.443-.744-3.443-.744l-1.98-2.115c1.845-1.443.236-3.487-1.374-3.352-1.612.133-2.217 2.749-2.217 2.749l-2.071 1.194-.38 5.077 3.895-1.23s1.776-2.05 2.322-2.05c0 0 1.846 1.367 2.46 1.367C-2.34.896-.798.314 0 0" style="fill:#ce9d77;fill-opacity:1;fill-rule:nonzero;stroke:none" transform="translate(439.55 398.315)"/><path d="m0 0 1.947.75S2.323-1.401.718-2.768z" style="fill:#ce9d77;fill-opacity:1;fill-rule:nonzero;stroke:none" transform="translate(434.985 402.457)"/><path d="m0 0-1.435 1.367-.137-2.05S-1.025-.068 0 0" style="fill:#ce9d77;fill-opacity:1;fill-rule:nonzero;stroke:none" transform="translate(434.44 403.413)"/><path d="M0 0s.729-3.189 3.326-2.733S5.147.546 4.51 1.047l1.458 1.64s1.319-1.138 1.275-3.962c0 0 .363 2.14-.365 3.871 0 0 .82-.182 1.96.228 0 0 .546-1.731.182-2.779 0 0 .728 1.686.364 3.279 0 0 .911.776.819 3.963 0 0 .092.729.456.32.364-.411 3.735-11.296-4.373-12.982-8.107-1.686-7.743 3.917-7.743 3.917S-.455-.228-.409.501z" style="fill:#231f20;fill-opacity:1;fill-rule:nonzero;stroke:none" transform="translate(430.18 394.451)"/><path d="M0 0s1.399-.731 4.595-.266c0 0 1.399-3.329-1.797-3.862S-1.397-1.532 0 0" style="fill:#231f20;fill-opacity:1;fill-rule:nonzero;stroke:none" transform="translate(431.287 388.843)"/></g><g clip-path="url(#g)" transform="matrix(.35278 0 0 -.35278 -119.308 174.163)"><path d="M478.717 421.353c-.539-.369-1.19-.963-1.937-1.909-2.324-2.944-4.338-4.802-7.746-5.422 0 0 .619-4.185-1.24-6.507-1.859-2.325-17.508-9.607-17.664-19.833 0 0-10.38-2.943-15.957-11.775 0 0-3.564 2.478-8.832 0 0 0-3.697-7.196 2.55-10.834 1.531-.89 3.663-1.568 6.591-1.872 0 0 16.424 11.776 23.086 22.157 0 0 2.634 7.127 7.746 12.085 5.115 4.958 16.888 21.072 15.185 24.481 0 0-.08.026-.233.026-.281 0-.81-.089-1.549-.597" style="fill:url(#h);stroke:none"/></g><path d="m0 0 .09-.284C-.027-.146 0 0 0 0" style="fill:#5c2582;fill-opacity:1;fill-rule:nonzero;stroke:none" transform="matrix(.35278 0 0 -.35278 30.797 45.268)"/><path d="M0 0c-5.112-4.958-7.746-12.084-7.746-12.084-6.662-10.382-23.086-22.157-23.086-22.157-2.929.303-5.061.982-6.592 1.872 1.454.369 3.785 1.245 7.522 3.086C-19.522-24.169-9.916-11.62-9.916-11.62S-4.183 1.859 3.254 6.508c5.752 3.595 7.797 11.549 10.148 17.402 1.141.784 1.783.57 1.783.57C16.888 21.072 5.114 4.958 0 0" style="fill:#b98768;fill-opacity:1;fill-rule:nonzero;stroke:none" transform="matrix(.35278 0 0 -.35278 44.844 33.954)"/><path d="M0 0s-3.362-7.419-13.328-10.083c-9.969-2.666-15.992-4.636-20.513-10.081-4.518-5.447-15.994-4.868-19.238-4.868s-8.227-2.086-9.039-5.912c0 0-6.028 2.435-8.577 1.856-2.547-.58-6.722-1.507-5.33.694.223.35.793.788 1.63 1.282.489-.836 1.263-1.325 2.488-.916 3.719 1.239 8.469-.412 8.469-.412 4.133 6.405 10.951 4.957 10.951 4.957s14.047.62 18.384 6.198c4.34 5.578 16.734 8.884 22.519 10.948 3.521 1.258 3.98 4.354 3.797 6.585C-5.407-.341-2.712-.589 0 0" style="fill:#b98768;fill-opacity:1;fill-rule:nonzero;stroke:none" transform="matrix(.35278 0 0 -.35278 32.66 47.096)"/><path d="m0 0-.55-1.926S-.681-.797-.687-.063l.198.295C-.347.232-.176.137 0 0" style="fill:#ce9d77;fill-opacity:1;fill-rule:nonzero;stroke:none" transform="matrix(.35278 0 0 -.35278 32.961 31.399)"/><path d="M0 0h.542s.414-2.297-.733-3.159c0 0 .637.957.191 3.159" style="fill:#231f20;fill-opacity:1;fill-rule:nonzero;stroke:none" transform="matrix(.35278 0 0 -.35278 34.78 31.94)"/><path d="M0 0c.593-1.026 1.226-2.813 1.696-5.223-.335-.784-.456-1.356-.593-1.883-.869-3.274-4.746-4.873-4.746-4.873l-1.259-3.279a6 6 0 0 0-.515-.073c-1.373.81-2.099-.166-2.099-.166l.065-1.956c-2.235-3.509-6.012-5.072-8.472-5.806-.28-.084-1.14-.264-1.14-.264z" style="fill:#ce9d77;fill-opacity:1;fill-rule:nonzero;stroke:none" transform="matrix(.35278 0 0 -.35278 33.777 25.955)"/><path d="M0 0c-1.157-2.214-1.975-7.322-1.975-7.322-1.035-.534-2.132-1.55-3.214-2.818-1.726-2.027-3.4-4.701-4.651-7.089l-1.448 4.729 2.23 3.105.009.087c.062.515.443 3.197 1.966 3.721 1.688.577 3.663 2.84 3.663 2.84.578-.289.673-1.445.673-1.445.099 1.11 1.012 2.458 1.012 2.458C-1.059-.046 0 0 0 0" style="fill:#ce9d77;fill-opacity:1;fill-rule:nonzero;stroke:none" transform="matrix(.35278 0 0 -.35278 38.347 20.81)"/><path d="M0 0q-.03-.041-.062-.078-.036-.046-.073-.088a4.6 4.6 0 0 0-.659-.681S-1.843.285-2.271.965c-.168.271-.355.584-.538.928l-.003.007c-.664 1.465-1.275 3.217-1.25 4.503l.003.034q.001.1.011.2l-28.77 24.68s-.093-.019-.262-.042l.378.799L.136 5.977l-2.621-.123C-2.571 3.831-.922 1.246 0 0" style="fill:#ce9d77;fill-opacity:1;fill-rule:nonzero;stroke:none" transform="matrix(.35278 0 0 -.35278 29.23 39.958)"/><path d="m0 0-6.572 5.637c-.584 1.676-1.551 2.705-2.414 3.326 1.348-.178 2.448-.499 3.656-1.187.662-.378 2.476-1.524 4.589-2.877C-1.077 3.655-.617 1.74 0 0" style="fill:#652d90;fill-opacity:1;fill-rule:nonzero;stroke:none" transform="matrix(.35278 0 0 -.35278 19.98 30.906)"/><path d="M0 0s-.355-2.05-.468-3.974c-2.261-2.657-4.431-6.421-5.685-9.205-.078 1.578-.406 3.666-1.437 5.423l3.254 4.527.009.086C-3.156-2.672-1.512-1.751 0 0" style="fill:#652d90;fill-opacity:1;fill-rule:nonzero;stroke:none" transform="matrix(.35278 0 0 -.35278 36.681 22.985)"/><path d="M0 0q-.075.457-.161.912l.018.044S-.081.565 0 0" style="fill:#be1e2d;fill-opacity:1;fill-rule:nonzero;stroke:none" transform="matrix(.35278 0 0 -.35278 38.627 9.402)"/><path d="M0 0c-1.751.58-3.579.974-5.444 1.094A17.5 17.5 0 0 1-11.028.58a18.6 18.6 0 0 1-5.166-2.244c-1.599-.995-3.052-2.203-4.369-3.528-2.632-2.666-4.713-5.787-6.474-9.034-1.753-3.257-3.192-6.663-4.397-10.139a90 90 0 0 1-2.947-10.637l-.14-.686c-.042-.239-.086-.434-.129-.731l-.211-1.323a205 205 0 0 0-.459-2.66 213 213 0 0 0-1.029-5.31l-.148-.728h-.003v-.003c-.385-1.966-1.128-5.64-1.605-7.215l-.004-.015q-.306-1.296-.632-2.587c-1.756-6.989-3.855-13.886-6.39-20.592-1.272-3.35-2.674-6.643-4.248-9.835-1.573-3.192-3.322-6.288-5.317-9.176a61 61 0 0 0-3.17-4.165 48 48 0 0 0-3.499-3.81c-1.23-1.197-2.543-2.309-3.982-3.246a18 18 0 0 0-4.63-2.196 16 16 0 0 0-5.115-.669 34 34 0 0 0-5.275.532c-1.73.322-3.42.803-5.022 1.469-1.6.676-3.103 1.546-4.419 2.625s-2.448 2.358-3.289 3.808a14.2 14.2 0 0 0-1.707 4.692c-.589 3.306-.05 6.771 1.158 9.949 1.209 3.196 3.093 6.129 5.328 8.749 2.253 2.615 4.883 4.905 7.734 6.881a49 49 0 0 0 4.441 2.728 55 55 0 0 0 4.716 2.259q.606.256 1.215.492l1.233.469c.862.318 1.716.65 2.573.985q2.56 1.005 5.088 2.076c6.739 2.863 13.333 5.986 19.832 9.281.728.371 2.076 1.054 2.8 1.425l1.085 4.54a666 666 0 0 0-5.506-2.694c-6.513-3.135-13.064-6.184-19.726-8.905a201 201 0 0 0-5.018-1.973c-.839-.316-1.678-.63-2.522-.93l-.651-.238-.663-.255q-.656-.256-1.308-.526a50 50 0 0 1-5.091-2.458 47 47 0 0 1-4.79-3.034c-3.071-2.213-5.875-4.831-8.236-7.822-2.367-2.983-4.286-6.362-5.471-10.027a24.5 24.5 0 0 1-1.128-5.673 19.9 19.9 0 0 1 .405-5.808 16.6 16.6 0 0 1 2.249-5.395 17 17 0 0 1 3.939-4.254c1.529-1.175 3.23-2.085 4.994-2.774 1.764-.697 3.591-1.172 5.433-1.49 1.84-.325 3.696-.477 5.549-.533a23.7 23.7 0 0 1 5.673.481c3.757.771 7.311 2.531 10.332 4.883 3.033 2.354 5.491 5.308 7.565 8.423 2.088 3.111 3.872 6.38 5.468 9.714 1.593 3.34 2.991 6.749 4.255 10.202 2.532 6.9 4.491 13.965 6.148 21.08q.707 3.051 1.329 6.12c.125.595.242 1.192.36 1.791q.274 1.408.533 2.82.131.73.26 1.466.101.579.198 1.158l.012.072q.225 1.353.435 2.705c.139.905.275 1.807.399 2.715l.184 1.369c.015.155.058.403.093.613l.117.655a86 86 0 0 0 2.603 10.399c1.078 3.408 2.359 6.758 3.954 9.944 1.593 3.177 3.501 6.207 5.887 8.804 1.191 1.294 2.507 2.469 3.954 3.449 1.447.975 3.028 1.753 4.701 2.252 1.674.499 3.428.729 5.191.688 1.762-.037 3.53-.335 5.244-.824 3.438-.982 6.684-2.655 9.704-4.636l.178.258C6.693-3.046 3.508-1.165 0 0" style="fill:#ec1c24;fill-opacity:1;fill-rule:nonzero;stroke:none" transform="matrix(.35278 0 0 -.35278 35.49 1.4)"/><path d="M0 0c-.013-.996-.279-1.907-.585-2.78-.648-1.742-1.534-3.347-2.538-4.877l-.262.167c.884 1.565 1.656 3.216 2.164 4.918.244.848.415 1.725.378 2.552-.021.411-.105.803-.282 1.12a1.6 1.6 0 0 1-.765.697c-.673.297-1.547.273-2.382.144-.847-.129-1.696-.368-2.533-.647-1.668-.566-3.3-1.316-4.92-2.097-3.239-1.577-6.409-3.328-9.586-5.063a907 907 0 0 1-9.485-5.321 2337 2337 0 0 0-18.995-10.667c-3.399-1.868-7.741-4.644-10.964-6.488l.954 4.331c2.396 1.349 5.922 3.615 8.517 4.957 6.451 3.309 12.859 6.708 19.307 10.052a922 922 0 0 0 9.709 4.958c3.254 1.629 6.536 3.209 9.895 4.66 1.685.713 3.386 1.413 5.189 1.918.899.248 1.817.453 2.772.546a7.7 7.7 0 0 0 1.465.015c.496-.05 1.01-.158 1.497-.409A2.55 2.55 0 0 0-.307 1.514C-.071 1.016 0 .493 0 0" style="fill:#ec1c24;fill-opacity:1;fill-rule:nonzero;stroke:none" transform="matrix(.35278 0 0 -.35278 45.221 8.762)"/><path d="M0 0q-.096-.579-.198-1.158c-.087-.49-.17-.98-.26-1.467q-.26-1.411-.533-2.819-.175-.899-.36-1.791l.331 1.778.804 4.289z" style="fill:#ec1c24;fill-opacity:1;fill-rule:nonzero;stroke:none" transform="matrix(.35278 0 0 -.35278 23.356 16.795)"/><g clip-path="url(#i)" transform="matrix(.35278 0 0 -.35278 -119.308 174.163)"><path d="m0 0 8.465-12.507-4.831 2.505c-.837 1.325-1.707 2.907-2.563 4.574-.479.935-.954 1.899-1.416 2.864C-3.041 3.077-5.263 8.723-5.263 8.723s0 .441.347 1.228a9 9 0 0 0 1.036 1.706c.347.459.783.965 1.325 1.507 2.461-1.772 7.104-5.588 7.104-5.588L-.63 9.219s7.326-7.325 6.82-7.325c-.504 0-8.084 5.305-8.084 5.305l.504-4.041L8.971-6.696Z" style="fill:#fff;fill-opacity:1;fill-rule:nonzero;stroke:none" transform="translate(409.894 377.874)"/></g><path d="m0 0-2.617-1.736s-4.404-.344-8.629.743c.819.444 3.014 1.725 4.642 3.569C-5.109 1.567-2.894.691 0 0" style="fill:#5d2785;fill-opacity:1;fill-rule:nonzero;stroke:none" transform="matrix(.35278 0 0 -.35278 33.428 46.211)"/><path d="m0 0 .267 2.617 3.347-1.506-.588 3.264 3.771-1.928-.253 3.935 2.93-1.84-.399 2.599a7 7 0 0 0-.762.969l.325-2.229-3.183 1.76.165-3.352-3.848 1.592.501-3.264-3.012 1.925-.289-2.802Z" style="fill:#faaf40;fill-opacity:1;fill-rule:nonzero;stroke:none" transform="matrix(.35278 0 0 -.35278 26.545 44.338)"/></svg>