<svg xmlns="http://www.w3.org/2000/svg" width="216.715" height="140.496" viewBox="0 0 57.339 37.173"><defs><clipPath id="a" clipPathUnits="userSpaceOnUse"><path d="M35.056 125.455h25.855v-22.726H35.056Z"/></clipPath><clipPath id="b" clipPathUnits="userSpaceOnUse"><path d="M106.996 93.577c4.268-3.953 10.172-5.043 10.172-5.043.041.076.084.148.12.222 1.091 2.02 1.588 3.716 2.333 5.271 2.725 5.679 1.028 8.47.726 9.403-.407 1.272.865 1.272.865 1.272-.639 1.998-1.816 3.044-1.816 3.044q-.905.327-1.723.517c-.883.207-1.691.302-2.436.302-9.308-.002-8.241-14.988-8.241-14.988"/></clipPath><clipPath id="d" clipPathUnits="userSpaceOnUse"><path d="M0 500h500V0H0Z"/></clipPath><clipPath id="e" clipPathUnits="userSpaceOnUse"><path d="M119.864 105.61s-2.725.061-2.486-1.879c.245-1.936 1.454-3.45 1.454-3.45l-1.635-.91s.789-.436.726-.823c-.057-.387-3.2.279-3.839-1.415 0 0 3.237.604 3.72-.544 0 0-.665-1.091-1.452-1.091 0 0 1.357-3.821.936-6.742 1.091 2.02 1.588 3.716 2.333 5.271 2.725 5.679 1.028 8.47.726 9.403-.407 1.272.865 1.272.865 1.272-.639 1.998-1.816 3.044-1.816 3.044q-.905.327-1.723.517c.785-.611 1.926-1.639 2.191-2.653"/></clipPath><clipPath id="g" clipPathUnits="userSpaceOnUse"><path d="M110.84 105.005s.121-1.515 2.301-3.331c0 0 3.816 2.725 3.513 3.573-.166.467-1.495.935-2.887.935-1.13 0-2.302-.309-2.927-1.177"/></clipPath><clipPath id="i" clipPathUnits="userSpaceOnUse"><path d="M0 500h500V0H0Z"/></clipPath><clipPath id="j" clipPathUnits="userSpaceOnUse"><path d="M57.477 121.756c-.566-2.857 2.482-5.57 2.482-5.57s-.455-3.098-1.184-4.555c-.731-1.462.711-3.368.711-3.368-2.572-8.561-3.629-33.536-3.629-33.536 5.922-2.913 28.067-9.669 28.067-9.669.454-2.652 4.556-11.93 7.561-14.572 3.009-2.642 5.467-7.289 5.467-7.289s5.923 4.647 10.025 3.644c4.102-1.002 3.736-4.284 3.736-4.284s2.187 2.097 4.736 2.461c2.555.365 3.373-1.392 3.373-1.392 1.732 1.886 5.34 1.853 5.34 1.853l9.447 22.89c23.616 2.906 41.601-8.081 41.601-8.081s.181-1.911.181-2.467 5.087-3.985 5.087-3.985c.185.308.243.65.214 1.002v.004c-.145 1.737-2.394 3.783-2.394 3.783.981.501 1.93.734 2.831.773 4.104.19 7.161-3.564 7.161-3.564l3.633 4.454c-1.635 3.546-7.266 5.72-7.266 5.72l-.092-.03-5.904-1.803q-.294.388-.588.756c-11.812 14.938-24.118 11.976-24.118 11.976-5.268 4.542-13.987 3.09-13.987 3.09-6.116 8.926-12.535 5.364-13.64 4.656a5 5 0 0 1-.167-.116h-7.449c-.308 0-.552.113-.745.291-.82.771-.686 2.797-.686 2.797-4.156 0-11.096 4.869-11.096 4.869a12.6 12.6 0 0 0-.243-2.071c-.905-4.741-4.044-8.023-4.763-8.724-.095-.092-.15-.141-.15-.141-10.412 6.47-17.287-1.366-17.287-1.366-9.566 6.652-16.218 2.645-16.218 2.645-.524 4.644-2.152 12.367-3.445 18.126-.966 4.297-1.751 7.499-1.751 7.499.458 2.757-.731 9.544-.731 9.544L57.59 122.2a3 3 0 0 1-.113-.444"/></clipPath><clipPath id="l" clipPathUnits="userSpaceOnUse"><path d="M105.942 90.423c1.38-2.315 4.247-5.814 9.864-8.55 0 0 1.147.531 2.161 2.955-.82.771-.686 2.797-.686 2.797-4.156 0-11.096 4.869-11.096 4.869a12.6 12.6 0 0 0-.243-2.071"/></clipPath><clipPath id="n" clipPathUnits="userSpaceOnUse"><path d="M59.959 116.186s-.455-3.098-1.184-4.555c-.731-1.462.711-3.368.711-3.368-2.572-8.561-3.629-33.536-3.629-33.536 5.922-2.913 28.067-9.669 28.067-9.669.454-2.652 4.556-11.93 7.561-14.572 3.009-2.642 5.467-7.289 5.467-7.289s5.923 4.647 10.025 3.644c4.102-1.002 3.736-4.284 3.736-4.284s2.187 2.097 4.736 2.461c2.555.365 3.373-1.392 3.373-1.392 1.732 1.886 5.34 1.853 5.34 1.853l9.447 22.89c23.616 2.906 41.601-8.081 41.601-8.081s.181-1.911.181-2.467 5.087-3.985 5.087-3.985c.185.308.243.65.214 1.002v.004c-1.373 1.737-4.203 2.979-4.203 2.979v3.891c-6.532 9.051-24.288 10.999-24.288 10.999-10.424-1.602-15.805 1.032-15.805 1.032-.222 2.114 1.173 4.225 1.253 4.348-3.688-2.053-3.546-6.296-6.639-10.191s-4.925-5.384-16.138-6.874c-11.212-1.489-20.404-.804-22.351 4.032-1.949 4.838-6.759 8.913-6.759 8.913l1.719-2.522c-17.644-.574-28.983 6.072-28.983 6.072l1.947 30.742c-1.606 2.332-.032 7.908-.032 7.908s-2.02 2.46-2.936 5.585c-.566-2.857 2.482-5.57 2.482-5.57"/></clipPath><clipPath id="p" clipPathUnits="userSpaceOnUse"><path d="M0 500h500V0H0Z"/></clipPath><clipPath id="q" clipPathUnits="userSpaceOnUse"><path d="M184.565 65.978c-.144-.273-.196-.614-.072-1.036 0 0-1.492-.236-.955-1.613 0 0-1.676.059-.956-1.377 0 0-2.162-.541-1.453-2.554 4.104.19 7.161-3.564 7.161-3.564l3.633 4.454c-1.635 3.546-7.266 5.72-7.266 5.72z"/></clipPath><clipPath id="s" clipPathUnits="userSpaceOnUse"><path d="M64.08 100.963h39.191V77.27H64.079Z"/></clipPath><clipPath id="t" clipPathUnits="userSpaceOnUse"><path d="M125.613 85.95h52.46V64.932h-52.46z"/></clipPath><linearGradient id="c" x1="0" x2="1" y1="0" y2="0" gradientTransform="matrix(14.2544 0 0 -14.2544 139.18 -269.484)" gradientUnits="userSpaceOnUse" spreadMethod="pad"><stop offset="0" style="stop-opacity:1;stop-color:#deb18a"/><stop offset=".522" style="stop-opacity:1;stop-color:#deb18a"/><stop offset="1" style="stop-opacity:1;stop-color:#c2886c"/></linearGradient><linearGradient id="f" x1="0" x2="1" y1="0" y2="0" gradientTransform="matrix(7.12842 0 0 -7.12842 125.652 -269.524)" gradientUnits="userSpaceOnUse" spreadMethod="pad"><stop offset="0" style="stop-opacity:1;stop-color:#deb18a"/><stop offset=".522" style="stop-opacity:1;stop-color:#deb18a"/><stop offset="1" style="stop-opacity:1;stop-color:#c2886c"/></linearGradient><linearGradient id="h" x1="0" x2="1" y1="0" y2="0" gradientTransform="matrix(5.83057 0 0 -5.83057 120.194 -264.106)" gradientUnits="userSpaceOnUse" spreadMethod="pad"><stop offset="0" style="stop-opacity:1;stop-color:#deb18a"/><stop offset=".522" style="stop-opacity:1;stop-color:#deb18a"/><stop offset="1" style="stop-opacity:1;stop-color:#c2886c"/></linearGradient><linearGradient id="k" x1="0" x2="1" y1="0" y2="0" gradientTransform="matrix(136.06592 0 0 -136.06592 88.079 -285.655)" gradientUnits="userSpaceOnUse" spreadMethod="pad"><stop offset="0" style="stop-opacity:1;stop-color:#deb18a"/><stop offset=".522" style="stop-opacity:1;stop-color:#deb18a"/><stop offset="1" style="stop-opacity:1;stop-color:#c2886c"/></linearGradient><linearGradient id="m" x1="0" x2="1" y1="0" y2="0" gradientTransform="scale(11.95874 -11.95874)rotate(-34.401 44.235 -6.588)" gradientUnits="userSpaceOnUse" spreadMethod="pad"><stop offset="0" style="stop-opacity:1;stop-color:#deb18a"/><stop offset=".522" style="stop-opacity:1;stop-color:#deb18a"/><stop offset="1" style="stop-opacity:1;stop-color:#c2886c"/></linearGradient><linearGradient id="o" x1="0" x2="1" y1="0" y2="0" gradientTransform="scale(141.18377 -141.18377)rotate(-86.774 2.104 .974)" gradientUnits="userSpaceOnUse" spreadMethod="pad"><stop offset="0" style="stop-opacity:1;stop-color:#deb18a"/><stop offset=".522" style="stop-opacity:1;stop-color:#deb18a"/><stop offset="1" style="stop-opacity:1;stop-color:#c2886c"/></linearGradient><linearGradient id="r" x1="0" x2="1" y1="0" y2="0" gradientTransform="scale(18.43796 -18.43796)rotate(-86.774 15.233 2.573)" gradientUnits="userSpaceOnUse" spreadMethod="pad"><stop offset="0" style="stop-opacity:1;stop-color:#deb18a"/><stop offset=".522" style="stop-opacity:1;stop-color:#deb18a"/><stop offset="1" style="stop-opacity:1;stop-color:#c2886c"/></linearGradient></defs><path d="M0 0c0-.886-.087-1.751-.262-2.587a13.06 13.06 0 0 0-11.016-10.354c-.581-.08-1.178-.12-1.78-.12-7.213 0-13.058 5.849-13.058 13.061a13.02 13.02 0 0 0 4.273 9.665 13.04 13.04 0 0 0 8.785 3.394C-5.846 13.059 0 7.212 0 0" style="fill:#2b388f;fill-opacity:1;fill-rule:nonzero;stroke:none" transform="matrix(.35278 0 0 -.35278 10.213 5.707)"/><path d="M0 0c-1.352-2.18-2.961-4.04-4.165-5.301a13 13 0 0 0-1.779-.119c-7.213 0-13.058 5.849-13.058 13.061q0 .165.003.331c.931.719 2.09 1.573 3.39 2.441 5.508 3.684 13.508 7.594 16.896 2.172C3.884 8.434 2.322 3.746 0 0" style="fill:#faaf40;fill-opacity:1;fill-rule:nonzero;stroke:none" transform="matrix(.35278 0 0 -.35278 7.704 8.402)"/><g clip-path="url(#a)" transform="matrix(.35278 0 0 -.35278 -11.367 46.555)"><path d="M0 0c-1.079-5.403-5.501-9.603-11.017-10.354-.58-.081-1.177-.12-1.779-.12-7.213 0-13.058 5.849-13.058 13.061 0 .109 0 .222.003.331a13.03 13.03 0 0 0 4.269 9.334c-.475-1.897-.926-4.378-.879-6.893.066-3.524 1.105-7.11 4.404-9.224 3.629-2.328 7.622-2.518 11.205-1.189C-4.255-4.091-1.871-2.328 0 0" style="fill:#e6e7e8;fill-opacity:1;fill-rule:nonzero;stroke:none" transform="translate(60.91 113.203)"/></g><g clip-path="url(#b)" transform="matrix(.35278 0 0 -.35278 -11.367 46.555)"><path d="M106.996 93.577c4.268-3.953 10.172-5.043 10.172-5.043.041.076.084.148.12.222 1.091 2.02 1.588 3.716 2.333 5.271 2.725 5.679 1.028 8.47.726 9.403-.407 1.272.865 1.272.865 1.272-.639 1.998-1.816 3.044-1.816 3.044q-.905.327-1.723.517c-.883.207-1.691.302-2.436.302-9.308-.002-8.241-14.988-8.241-14.988" style="fill:url(#c);stroke:none"/></g><g clip-path="url(#d)" transform="matrix(.35278 0 0 -.35278 -11.367 46.555)"><path d="M0 0s-1.166 2.483-4.557 2.726c-3.39.241-11.021-.546-10.234-15.745 0 0-4.723-.061-5.389 5.631 0 0 .934-2.137 3.27-.763 2.337 1.373 3.876 10.029-.12 10.634 0 0 2.967 4.359 9.325 3.694C-1.346 5.511 0 0 0 0" style="fill:#be1e2d;fill-opacity:1;fill-rule:nonzero;stroke:none" transform="translate(121.21 106.7)"/></g><g clip-path="url(#e)" transform="matrix(.35278 0 0 -.35278 -11.367 46.555)"><path d="M119.864 105.61s-2.725.061-2.486-1.879c.245-1.936 1.454-3.45 1.454-3.45l-1.635-.91s.789-.436.726-.823c-.057-.387-3.2.279-3.839-1.415 0 0 3.237.604 3.72-.544 0 0-.665-1.091-1.452-1.091 0 0 1.357-3.821.936-6.742 1.091 2.02 1.588 3.716 2.333 5.271 2.725 5.679 1.028 8.47.726 9.403-.407 1.272.865 1.272.865 1.272-.639 1.998-1.816 3.044-1.816 3.044q-.905.327-1.723.517c.785-.611 1.926-1.639 2.191-2.653" style="fill:url(#f);stroke:none"/></g><g clip-path="url(#g)" transform="matrix(.35278 0 0 -.35278 -11.367 46.555)"><path d="M110.84 105.005s.121-1.515 2.301-3.331c0 0 3.816 2.725 3.513 3.573-.166.467-1.495.935-2.887.935-1.13 0-2.302-.309-2.927-1.177" style="fill:url(#h);stroke:none"/></g><g clip-path="url(#i)" transform="matrix(.35278 0 0 -.35278 -11.367 46.555)"><path d="M0 0c-.533-2.564-2.289-4.367-3.92-4.026-.745.152-1.334.727-1.704 1.545-.443.98-.573 2.314-.283 3.709.516 2.485 2.18 4.251 3.764 4.051q.08-.006.156-.022C-.356 4.916.535 2.565 0 0" style="fill:#e6e7e8;fill-opacity:1;fill-rule:nonzero;stroke:none" transform="translate(106.028 103.165)"/><path d="M0 0s-5.813-3.149-8.236-1.816c-2.421 1.332-2.058 4.48 0 6.782 2.06 2.302 1.6 4.117-1.682 4.238s-5.462-3.841-10.065-5.675-6.539 1.195-4.844 3.133-1.333 8.113-9.931 1.331c-8.599-6.782-9.057-.661-9.447.363-.981 2.581-6.796 14.945-11.399 14.703s-5.228-3.925-3.255-5.74c2.644-2.434 13.08-9.446 11.748-13.201s-5.693-.242-6.541 1.938c-.847 2.179-5.073 5.449-6.473 1.937C-61.523 4.481-53.167 3.027-53.53 0s-6.116-1.816-6.753 1.09c0 0 3.604-9.083 10.87-5.086C-42.146 0-40.087.289-32.579-3.814c7.509-4.103 8.496 1.452 12.726 1.089S-9.81-8.356 0 0" style="fill:#26a9e0;fill-opacity:1;fill-rule:nonzero;stroke:none" transform="translate(133.609 34.76)"/><path d="M0 0c-.65-.719-2.505-.103-4.141 1.378-1.637 1.479-2.437 3.263-1.786 3.981.65.72 2.504.105 4.141-1.376S.651.721 0 0" style="fill:#26a9e0;fill-opacity:1;fill-rule:nonzero;stroke:none" transform="translate(59.258 64.477)"/><path d="M0 0c-.363-.402-1.398-.057-2.313.769s-1.361 1.822-.998 2.222c.363.404 1.399.06 2.314-.766C-.083 1.397.364.401 0 0" style="fill:#26a9e0;fill-opacity:1;fill-rule:nonzero;stroke:none" transform="translate(72.65 58.792)"/><path d="M0 0c-.273-.3-1.051-.042-1.738.579-.686.62-1.022 1.368-.749 1.67.273.303 1.051.044 1.738-.576C-.062 1.052.273.302 0 0" style="fill:#26a9e0;fill-opacity:1;fill-rule:nonzero;stroke:none" transform="translate(78.237 62.683)"/><path d="M0 0c.34-.565-.427-1.65-1.713-2.424-1.286-.773-2.603-.942-2.943-.378-.341.566.426 1.652 1.712 2.425S-.34.565 0 0" style="fill:#26a9e0;fill-opacity:1;fill-rule:nonzero;stroke:none" transform="translate(117.201 43.56)"/></g><g clip-path="url(#j)" transform="matrix(.35278 0 0 -.35278 -11.367 46.555)"><path d="M57.477 121.756c-.566-2.857 2.482-5.57 2.482-5.57s-.455-3.098-1.184-4.555c-.731-1.462.711-3.368.711-3.368-2.572-8.561-3.629-33.536-3.629-33.536 5.922-2.913 28.067-9.669 28.067-9.669.454-2.652 4.556-11.93 7.561-14.572 3.009-2.642 5.467-7.289 5.467-7.289s5.923 4.647 10.025 3.644c4.102-1.002 3.736-4.284 3.736-4.284s2.187 2.097 4.736 2.461c2.555.365 3.373-1.392 3.373-1.392 1.732 1.886 5.34 1.853 5.34 1.853l9.447 22.89c23.616 2.906 41.601-8.081 41.601-8.081s.181-1.911.181-2.467 5.087-3.985 5.087-3.985c.185.308.243.65.214 1.002v.004c-.145 1.737-2.394 3.783-2.394 3.783.981.501 1.93.734 2.831.773 4.104.19 7.161-3.564 7.161-3.564l3.633 4.454c-1.635 3.546-7.266 5.72-7.266 5.72l-.092-.03-5.904-1.803q-.294.388-.588.756c-11.812 14.938-24.118 11.976-24.118 11.976-5.268 4.542-13.987 3.09-13.987 3.09-6.116 8.926-12.535 5.364-13.64 4.656a5 5 0 0 1-.167-.116h-7.449c-.308 0-.552.113-.745.291-.82.771-.686 2.797-.686 2.797-4.156 0-11.096 4.869-11.096 4.869a12.6 12.6 0 0 0-.243-2.071c-.905-4.741-4.044-8.023-4.763-8.724-.095-.092-.15-.141-.15-.141-10.412 6.47-17.287-1.366-17.287-1.366-9.566 6.652-16.218 2.645-16.218 2.645-.524 4.644-2.152 12.367-3.445 18.126-.966 4.297-1.751 7.499-1.751 7.499.458 2.757-.731 9.544-.731 9.544L57.59 122.2a3 3 0 0 1-.113-.444" style="fill:url(#k);stroke:none"/></g><g clip-path="url(#l)" transform="matrix(.35278 0 0 -.35278 -11.367 46.555)"><path d="M105.942 90.423c1.38-2.315 4.247-5.814 9.864-8.55 0 0 1.147.531 2.161 2.955-.82.771-.686 2.797-.686 2.797-4.156 0-11.096 4.869-11.096 4.869a12.6 12.6 0 0 0-.243-2.071" style="fill:url(#m);stroke:none"/></g><g clip-path="url(#n)" transform="matrix(.35278 0 0 -.35278 -11.367 46.555)"><path d="M59.959 116.186s-.455-3.098-1.184-4.555c-.731-1.462.711-3.368.711-3.368-2.572-8.561-3.629-33.536-3.629-33.536 5.922-2.913 28.067-9.669 28.067-9.669.454-2.652 4.556-11.93 7.561-14.572 3.009-2.642 5.467-7.289 5.467-7.289s5.923 4.647 10.025 3.644c4.102-1.002 3.736-4.284 3.736-4.284s2.187 2.097 4.736 2.461c2.555.365 3.373-1.392 3.373-1.392 1.732 1.886 5.34 1.853 5.34 1.853l9.447 22.89c23.616 2.906 41.601-8.081 41.601-8.081s.181-1.911.181-2.467 5.087-3.985 5.087-3.985c.185.308.243.65.214 1.002v.004c-1.373 1.737-4.203 2.979-4.203 2.979v3.891c-6.532 9.051-24.288 10.999-24.288 10.999-10.424-1.602-15.805 1.032-15.805 1.032-.222 2.114 1.173 4.225 1.253 4.348-3.688-2.053-3.546-6.296-6.639-10.191s-4.925-5.384-16.138-6.874c-11.212-1.489-20.404-.804-22.351 4.032-1.949 4.838-6.759 8.913-6.759 8.913l1.719-2.522c-17.644-.574-28.983 6.072-28.983 6.072l1.947 30.742c-1.606 2.332-.032 7.908-.032 7.908s-2.02 2.46-2.936 5.585c-.566-2.857 2.482-5.57 2.482-5.57" style="fill:url(#o);stroke:none"/></g><g clip-path="url(#p)" transform="matrix(.35278 0 0 -.35278 -11.367 46.555)"><path d="M0 0s-3.543 2.601-6.1-.83c0 0 3.009 2.321 5.807 0z" style="fill:#231f20;fill-opacity:1;fill-rule:nonzero;stroke:none" transform="translate(116.94 105.835)"/><path d="m0 0-.63-1.072s2.064.693 3.564-.118c0 0-.75 1.3-2.934 1.19" style="fill:#231f20;fill-opacity:1;fill-rule:nonzero;stroke:none" transform="translate(118.278 105.892)"/></g><g clip-path="url(#q)" transform="matrix(.35278 0 0 -.35278 -11.367 46.555)"><path d="M184.565 65.978c-.144-.273-.196-.614-.072-1.036 0 0-1.492-.236-.955-1.613 0 0-1.676.059-.956-1.377 0 0-2.162-.541-1.453-2.554 4.104.19 7.161-3.564 7.161-3.564l3.633 4.454c-1.635 3.546-7.266 5.72-7.266 5.72z" style="fill:url(#r);stroke:none"/></g><g clip-path="url(#s)" style="opacity:.30000299" transform="matrix(.35278 0 0 -.35278 -11.367 46.555)"><path d="M0 0c-9.083 4.361-18.894-2.18-18.894-2.18C-30.702 5.814-36.333 0-36.333 0l-2.859 21.514c1.293-5.759 2.921-13.483 3.444-18.126 0 0 6.652 4.007 16.219-2.646 0 0 6.874 7.837 17.287 1.366 0 0 .054.049.149.142C-.604.844 0 0 0 0" style="fill:#fff;fill-opacity:1;fill-rule:nonzero;stroke:none" transform="translate(103.272 79.45)"/></g><g clip-path="url(#t)" style="opacity:.30000299" transform="matrix(.35278 0 0 -.35278 -11.367 46.555)"><path d="M0 0c-10.816 9.954-25.004 9.893-25.004 9.893-4.28 5.309-14.856 4.87-14.856 4.87-6.329 7.476-12.597 2.685-12.597 2.685-.033.745.233 1.507.712 2.274 1.105.708 7.524 4.269 13.64-4.658 0 0 8.719 1.454 13.987-3.088 0 0 12.306 2.962 24.118-11.976" style="fill:#fff;fill-opacity:1;fill-rule:nonzero;stroke:none" transform="translate(178.073 64.932)"/></g><path d="M0 0c-.533-2.564-2.289-4.367-3.92-4.026-.745.152-1.334.727-1.704 1.545C-2.063-4.585-.871-.251-.665 1.603c.132 1.187-.77 2.695-1.478 3.676q.08-.006.156-.022C-.356 4.916.535 2.565 0 0" style="fill:#d0d2d3;fill-opacity:1;fill-rule:nonzero;stroke:none" transform="matrix(.35278 0 0 -.35278 26.037 10.16)"/><path d="M0 0c.582.626 1.349 1.12 2.259 1.297.455.08.947.052 1.408-.105a2.6 2.6 0 0 0 .651-.321C4.514.74 4.691.6 4.861.455c1.334-1.169 2.37-2.533 3.38-3.92.488-.704.961-1.417 1.409-2.146.436-.736.873-1.471 1.256-2.238.779-1.52 1.471-3.104 1.871-4.773-.821 1.499-1.704 2.93-2.608 4.35-.463.702-.909 1.414-1.387 2.106a67 67 0 0 1-1.43 2.072 50 50 0 0 1-1.483 2.028A23 23 0 0 1 4.285-.165q-.21.22-.429.403a2.3 2.3 0 0 1-1.544.529C1.53.758.726.438 0 0" style="fill:#b1d5f1;fill-opacity:1;fill-rule:nonzero;stroke:none" transform="matrix(.35278 0 0 -.35278 15.322 26.923)"/><path d="M0 0c.458.644 1.029 1.173 1.644 1.646A9.2 9.2 0 0 0 3.67 2.817c.731.298 1.532.511 2.371.476a3 3 0 0 0 1.221-.302c.376-.197.696-.488.871-.845-.696.388-1.379.408-2.05.291s-1.335-.359-1.999-.626c-.663-.274-1.325-.582-1.998-.895C1.411.603.732.284 0 0" style="fill:#b1d5f1;fill-opacity:1;fill-rule:nonzero;stroke:none" transform="matrix(.35278 0 0 -.35278 23.774 31.682)"/><path d="M0 0c.165-.261-.471-.884-1.419-1.393-.949-.508-1.85-.71-2.015-.451-.164.261.473.885 1.422 1.393C-1.065.059-.162.26 0 0" style="fill:#b1d5f1;fill-opacity:1;fill-rule:nonzero;stroke:none" transform="matrix(.35278 0 0 -.35278 29.739 31.224)"/><path d="M0 0a.656.656 0 1 0-1.311.001A.656.656 0 0 0 0 0" style="fill:#808184;fill-opacity:1;fill-rule:nonzero;stroke:none" transform="matrix(.35278 0 0 -.35278 36.53 1.231)"/></svg>