<svg xmlns="http://www.w3.org/2000/svg" shape-rendering="geometricPrecision" text-rendering="geometricPrecision" image-rendering="optimizeQuality" fill-rule="evenodd" clip-rule="evenodd" viewBox="0 0 512 253.416"><path fill="#808E9A" d="M264.55 132.271h28.435V33.91c-5.443-2.705-9.209-8.329-9.209-14.792v-2.612c0-9.08 7.427-16.506 16.506-16.506 9.08 0 16.506 7.446 16.506 16.506v2.612c0 6.447-3.766 12.091-9.212 14.796v98.357h28.971c3.181 0 5.778 2.601 5.778 5.778v43.095c0 23.117-18.921 42.038-42.039 42.038h-.004c-23.117 0-42.038-18.917-42.038-42.038v-42.567c0-3.471 2.834-6.306 6.306-6.306zM300.282 9.93c4.02 0 7.302 3.302 7.302 7.301v1.158c0 3.999-3.282 7.301-7.302 7.301-4.019 0-7.301-3.282-7.301-7.301v-1.158c0-4.019 3.282-7.301 7.301-7.301zM347.662 8.103h7.326V39.57c0 .838.697 1.544 1.548 1.544h8.455a1.55 1.55 0 001.547-1.544V8.103h11.144V39.57a1.56 1.56 0 001.552 1.544h8.451a1.55 1.55 0 001.548-1.544V8.103h11.144V39.57c0 .834.697 1.544 1.552 1.544h8.277c.855 0 1.552-.694 1.552-1.544V8.103h11.148V39.57c0 .838.693 1.544 1.548 1.544h8.446c.855 0 1.552-.694 1.552-1.544V8.103h11.144V39.57c0 .838.697 1.544 1.548 1.544h8.455a1.55 1.55 0 001.547-1.544V8.103h6.572c2.335 0 4.246 1.915 4.246 4.237v49.32c0 6.059-4.972 11.026-11.027 11.026h-36.971v148.823h-27.084V72.686h-38.434c-6.055 0-11.031-4.959-11.031-11.026V12.34c0-2.33 1.911-4.237 4.245-4.237z"/><path fill="#B3BCC1" d="M349.705 10.963h3.241v30.651a1.56 1.56 0 001.547 1.544h12.54a1.55 1.55 0 001.547-1.544V10.963h7.06v30.651c0 .835.698 1.544 1.552 1.544h12.535a1.55 1.55 0 001.547-1.544V10.963h7.06v30.651c0 .83.696 1.544 1.552 1.544h12.363c.854 0 1.551-.695 1.551-1.544V10.963h7.063v30.651c0 .835.693 1.544 1.549 1.544h12.531c.854 0 1.552-.695 1.552-1.544V10.963h7.058v30.651a1.56 1.56 0 001.548 1.544h12.54c.85 0 1.548-.695 1.548-1.544V10.963h2.486c2.334 0 4.246.29 4.246 2.603V58.56c0 6.049-2.929 11.025-8.985 11.025h-39.952V221.51h-21.12V69.585h-41.416c-6.051 0-8.988-4.957-8.988-11.025V13.566c0-2.33 1.91-2.603 4.245-2.603z"/><path fill="#609137" fill-rule="nonzero" d="M131.339 224.029c-22.558-.957-44.039-.276-66.86-.276a4.088 4.088 0 01-4.005-3.287l-3.752-18.767-.033-.256c-5.141-37.785-5.793-70-1.994-96.689 3.866-27.172 12.346-48.711 25.39-64.663a4.102 4.102 0 014.916-1.085 4.069 4.069 0 011.914 5.425C74.414 70.478 72.096 97.568 75.056 124.88c1.916 17.704 6.056 35.543 11.091 53.276l-.114-3.511a412.257 412.257 0 014.907-46.547 401.562 401.562 0 019.643-43.569 4.086 4.086 0 014.301-3.166 4.084 4.084 0 013.75 4.39c-1.879 22.89-2.304 45.319-1.354 67.428.84 19.581 2.759 38.984 5.696 58.298 3.266-7.518 2.893-12.329 2.304-19.923-.19-2.459-.405-5.197-.547-8.777-.332-8.281-.213-16.639.309-24.964.538-8.611 1.519-17.267 2.876-25.841a4.074 4.074 0 017.388-1.654c8.511 11.875 12.74 25.873 13.993 41.318 1.227 15.151-.419 31.735-3.664 49.078a4.076 4.076 0 01-4.296 3.313zm101.121 0c-22.304-.948-43.551-.273-66.113-.273a4.088 4.088 0 01-4.005-3.287l-3.71-18.558-.033-.256c-5.086-37.369-5.73-69.23-1.973-95.627 3.824-26.877 12.215-48.184 25.118-63.965a4.101 4.101 0 014.916-1.085 4.07 4.07 0 011.915 5.425c-12.358 25.748-14.65 52.528-11.724 79.53 1.884 17.382 5.932 34.897 10.864 52.309l-.101-3.095a408.242 408.242 0 014.855-46.034 397.047 397.047 0 019.536-43.087 4.086 4.086 0 014.3-3.165 4.085 4.085 0 013.751 4.39c-1.858 22.634-2.278 44.809-1.339 66.671.818 19.058 2.668 37.942 5.495 56.74 2.139-6.166 2.026-10.692 1.861-17.257-.074-2.98-.159-6.352-.077-10.45l.058-2.96c.304-15.552.618-31.429 3.093-47.05a4.073 4.073 0 017.387-1.654c8.422 11.75 12.607 25.6 13.845 40.882 1.215 14.988-.414 31.387-3.624 48.543a4.075 4.075 0 01-4.295 3.313z"/><path fill="#8EBF70" d="M131.629 219.965l-17.997-.764c8.67-15.317 5.829-20.171 5.171-36.581-.664-16.525.519-33.483 3.138-50.009 16.15 22.458 16.053 53.35 9.688 87.354zm101.121 0l-17.797-.756c7.316-14.516 4.775-19.451 5.113-36.174.33-16.35.514-33.11 3.103-49.452 15.972 22.209 15.876 52.756 9.581 86.382zm-66.403-.295H211.512c-7.205-43.409-9.26-87.247-5.526-132.739-7.787 27.708-12.765 57.054-14.301 88.407l1.226 33.841c-17.487-54.534-33.48-111.463-8.006-164.531-24.816 30.349-32.355 82.36-22.268 156.465l3.71 18.557zm-101.868-.003h45.673c-7.285-43.898-9.365-88.228-5.588-134.234-7.875 28.02-12.91 57.698-14.462 89.403l1.239 34.222C73.658 153.91 57.486 96.34 83.246 42.676c-25.094 30.691-32.719 83.287-22.519 158.225l3.752 18.766z"/><path fill="#B3BCC1" d="M267.47 136.351h28.419V30.859c-4.463-2.219-9.141-6.83-9.141-12.128v-2.143c0-7.446 6.09-13.535 13.535-13.535s13.535 6.105 13.535 13.535v2.143c0 5.284-4.68 9.914-9.147 12.131v105.489h28.894c2.92 0 5.303 2.424 5.303 5.304v35.48c0 21.169-17.413 42.668-38.582 42.668h-.003c-21.161 0-38.601-21.443-38.601-42.668V142.14c0-3.187 2.602-5.789 5.788-5.789zM300.2 9.897c4.076 0 7.383 3.536 7.383 7.895 0 4.361-3.307 7.896-7.383 7.896-4.075 0-7.383-3.535-7.383-7.896 0-4.359 3.308-7.895 7.383-7.895z"/><path fill="#442F21" d="M40.427 218.003C16.422 221.883 3.1 238.13 0 253.416h512c-10.243-18.205-28.893-36.214-62.887-35.413H40.427z"/></svg>