<?xml version="1.0" encoding="iso-8859-1"?>
<!-- Uploaded to: SVG Repo, www.svgrepo.com, Generator: SVG Repo Mixer Tools -->
<svg height="800px" width="800px" version="1.1" id="Layer_1" xmlns="http://www.w3.org/2000/svg" xmlns:xlink="http://www.w3.org/1999/xlink" 
	 viewBox="0 0 512 512" xml:space="preserve">
<path style="fill:#77604B;" d="M396.663,266.755c-8.435,0-15.674-6.364-16.577-14.94c-0.978-9.168,5.674-17.386,14.837-18.359
	c25.501-2.696,44.729-24.109,44.729-49.804c0-49.604-64.962-68.981-92.12-27.261c-5.032,7.739-15.37,9.913-23.098,4.892
	c-7.728-5.028-9.913-15.37-4.881-23.098c45.229-69.557,153.49-37.227,153.49,45.467c0,42.821-32.076,78.511-74.597,83.011
	C397.847,266.729,397.25,266.755,396.663,266.755z"/>
<g>
	<path style="fill:#816952;" d="M115.337,266.755c-0.587,0-1.184-0.027-1.783-0.092c-42.522-4.5-74.597-40.19-74.597-83.011
		c0-82.757,108.343-114.899,153.489-45.468c5.032,7.728,2.848,18.07-4.881,23.098c-7.718,5.011-18.065,2.848-23.098-4.892
		c-27.142-41.696-92.119-22.408-92.119,27.262c0,25.696,19.228,47.108,44.729,49.804c9.163,0.973,15.815,9.19,14.837,18.359
		C131.011,260.391,123.772,266.755,115.337,266.755z"/>
	<path style="fill:#816952;" d="M368.64,27.826c-0.223,0.223-14.136,16.25-22.705,38.957c-3.674,10.017-6.457,21.482-6.457,33.391
		H172.522c0-12.021-2.671-23.374-6.457-33.391c-8.459-22.817-22.482-38.734-22.705-38.957C133.788,17.141,141.357,0,155.826,0
		h200.348C370.643,0,378.212,17.141,368.64,27.826z"/>
</g>
<path style="fill:#77604B;" d="M368.64,27.826c-0.223,0.223-14.136,16.25-22.705,38.957c-3.674,10.017-6.457,21.482-6.457,33.391
	H256V0h100.174C370.643,0,378.212,17.141,368.64,27.826z"/>
<path style="fill:#816952;" d="M387.228,411.826c-6.122,10.908-12.689,21.927-19.256,33.391
	c-6.568,11.353-13.135,23.151-19.367,35.729C337.809,502.65,321.113,512,302.191,512h-92.383c-33.501,0-44.41-26.936-50.087-38.289
	c-4.787-9.684-10.129-19.144-15.471-28.494c-6.456-11.242-13.133-22.261-19.478-33.391H387.228z"/>
<path style="fill:#77604B;" d="M387.228,411.826c-6.122,10.908-12.689,21.927-19.256,33.391
	c-6.568,11.353-13.135,23.151-19.367,35.729C337.809,502.65,321.113,512,302.191,512H256V411.826H387.228z"/>
<path style="fill:#A78966;" d="M413.496,355.951c-4.23,12.466-9.684,24.598-15.805,36.619c-3.339,6.456-6.79,12.8-10.461,19.256
	c-6.122,10.908-12.689,21.927-19.256,33.391H144.25c-6.456-11.242-13.133-22.261-19.478-33.391
	c-3.673-6.344-7.122-12.689-10.462-19.144c-6.122-11.91-11.576-24.042-15.805-36.842l76.8-116.87
	c3.005-4.675,8.237-7.457,13.913-7.457c5.565,0,10.797,2.783,13.913,7.346l52.87,79.36l52.87-79.36
	c3.117-4.563,8.348-7.346,13.913-7.346c5.677,0,10.908,2.783,13.913,7.457L413.496,355.951z"/>
<path style="fill:#957856;" d="M413.496,355.951c-4.23,12.466-9.684,24.598-15.805,36.619c-3.339,6.456-6.79,12.8-10.461,19.256
	c-6.122,10.908-12.689,21.927-19.256,33.391H256V318.219l52.87-79.36c3.117-4.563,8.348-7.346,13.913-7.346
	c5.677,0,10.908,2.783,13.913,7.457L413.496,355.951z"/>
<path style="fill:#FFA733;" d="M422.957,300.522c0,20.035-3.563,38.177-9.461,55.43c-4.23,12.466-9.684,24.598-15.805,36.619
	l-75.019-114.087l-52.758,79.137c-3.117,4.563-8.57,6.901-13.913,6.901s-10.797-2.337-13.913-6.901l-52.758-79.137L114.31,392.682
	c-6.122-11.91-11.576-24.042-15.805-36.842c-5.787-17.141-9.461-35.395-9.461-55.318c0-70.456,52.536-126.108,54.761-128.445
	c0,0,1.559-1.892,4.008-5.12c4.674-6.456,12.576-18.365,18.253-33.391h179.87c5.565,14.915,13.468,26.824,18.253,33.391
	c2.226,3.005,3.897,4.897,4.341,5.454C373.203,177.308,422.957,231.958,422.957,300.522z"/>
<g>
	<path style="fill:#CC7400;" d="M422.957,300.522c0,20.035-3.563,38.177-9.461,55.43c-4.23,12.466-9.684,24.598-15.805,36.619
		l-75.019-114.087l-52.758,79.137c-3.117,4.563-8.57,6.901-13.913,6.901V133.565h89.935c5.565,14.915,13.468,26.824,18.253,33.391
		c2.226,3.005,3.897,4.897,4.341,5.454C373.203,177.308,422.957,231.958,422.957,300.522z"/>
	<path style="fill:#CC7400;" d="M322.62,367.636c-9.217,0-16.869-7.635-16.869-16.858s7.651-16.865,16.869-16.865
		c9.218,0,16.858,7.641,16.858,16.864C339.478,359.999,331.837,367.636,322.62,367.636z M322.62,350.777h0.109H322.62z"/>
</g>
<path style="fill:#FFA733;" d="M189.055,367.636c-9.217,0-16.869-7.635-16.869-16.858s7.651-16.865,16.869-16.865
	c9.218,0,16.858,7.641,16.858,16.864C205.913,359.999,198.272,367.636,189.055,367.636z M205.576,350.777h0.109H205.576z
	 M189.055,350.777h0.109H189.055z"/>
<path style="fill:#A78966;" d="M364.188,166.957H147.812c4.674-6.456,12.576-18.365,18.253-33.391
	c3.674-10.017,6.457-21.482,6.457-33.391c0-12.021-2.671-23.374-6.457-33.391h179.87c-3.674,10.017-6.457,21.482-6.457,33.391
	c0,12.021,2.671,23.374,6.457,33.391C351.5,148.48,359.402,160.39,364.188,166.957z"/>
<path style="fill:#957856;" d="M364.188,166.957H256V66.783h89.935c-3.674,10.017-6.457,21.482-6.457,33.391
	c0,12.021,2.671,23.374,6.457,33.391C351.5,148.48,359.402,160.39,364.188,166.957z"/>
<path style="fill:#946346;" d="M256,267.13L256,267.13c-9.22,0-16.696-7.475-16.696-16.696l0,0c0-9.22,7.475-16.696,16.696-16.696
	l0,0c9.22,0,16.696,7.475,16.696,16.696l0,0C272.696,259.655,265.22,267.13,256,267.13z"/>
<path style="fill:#895B41;" d="M272.696,250.435c0-9.22-7.475-16.696-16.696-16.696v33.391
	C265.22,267.13,272.696,259.655,272.696,250.435z"/>
</svg>