<svg xmlns="http://www.w3.org/2000/svg" shape-rendering="geometricPrecision" text-rendering="geometricPrecision" image-rendering="optimizeQuality" fill-rule="evenodd" clip-rule="evenodd" viewBox="0 0 255 512.875"><path fill="#CB8E66" d="M157.309 381.242v101.825c0 16.395-13.413 29.808-29.808 29.808h-.002c-16.395 0-29.808-13.413-29.808-29.808V381.242h59.618z"/><path fill="#E29E71" d="M105.135 502.719c-4.627-5.256-7.444-12.14-7.444-19.652V381.242h50.954v95.026c0 16.395-13.414 29.808-29.808 29.808h-.003a29.535 29.535 0 01-13.699-3.357z"/><path fill="#EF649D" d="M62.886 0h129.228C226.702 0 255 28.304 255 62.886v255.469c0 34.583-28.304 62.887-62.886 62.887H62.886C28.304 381.242 0 352.943 0 318.355V62.886C0 28.298 28.298 0 62.886 0z"/><path fill="#D75A8D" d="M62.886 0h129.228C226.702 0 255 28.299 255 62.886v38.529a5.978 5.978 0 01-3.651-1.238l-.451-.25c-1.395-.727-2.993-.829-4.566-.295-1.985.674-4.004 2.281-5.782 4.85a22.346 22.346 0 00-1.422 2.354l.019.01c-.761 1.462-1.414 2.905-2.06 4.341-2.801 6.203-5.568 12.329-12.437 15.683-13.059 6.376-22.103-5.718-27.999-17.795-1.838-3.767-3.41-7.66-4.611-10.639l-1.048-2.588c-1.923-4.546-3.972-8.884-6.311-12.058-1.698-2.305-3.452-3.864-5.254-4.055l-.048-.005c-.923-.055-2.047.676-3.457 2.387-2.443 2.964-4.967 7.98-7.659 15.444l.02.007c-2.692 7.539-6.319 13.319-10.436 17.4-4.896 4.853-10.508 7.347-16.195 7.613-26.93 1.257-27.85-25.688-28.518-45.335-.116-3.457-.227-6.643-.507-9.283-.717-6.735-1.968-13.316-4.095-18.06-1.485-3.311-3.279-5.518-5.417-5.556-.715-.013-1.371.424-1.983 1.219l-.187.23c-1.169 1.649-2.14 4.225-2.981 7.501-.935 3.639-1.689 8.756-2.494 14.226-.948 6.439-1.969 13.365-3.688 20.058-1.023 3.988-2.282 7.778-3.897 11.145-1.761 3.67-3.956 6.873-6.73 9.36-2.006 1.799-4.288 3.18-6.886 4.043-2.569.856-5.367 1.176-8.414.869-6.309-.639-12.122-4.425-15.961-11.184-3.01-5.299-4.799-12.52-4.502-21.493.128-3.876.297-7.557.467-11.297 1.186-26.023 2.525-55.418-10.649-56.94a5.981 5.981 0 01-4.595-3.109A62.368 62.368 0 0162.886 0z"/><path fill="#D75A8D" d="M173.607 82.271h7.948c7.428 0 13.507 6.08 13.507 13.507v189.686c0 7.428-6.08 13.508-13.507 13.508h-7.948c-7.427 0-13.508-6.078-13.508-13.508V95.778c0-7.429 6.078-13.507 13.508-13.507zm-100.163 0h7.948c7.428 0 13.508 6.08 13.508 13.507v189.686c0 7.428-6.081 13.508-13.508 13.508h-7.948c-7.427 0-13.508-6.078-13.508-13.508V95.778c0-7.429 6.08-13.507 13.508-13.507z"/><path fill="#F5B1C6" d="M62.886 0h129.228C226.702 0 255 28.299 255 62.886v32.527c-6.596-4.567-15.725-1.79-21.174 8.667-3.393 6.513-5.389 14.267-11.802 17.398-13.103 6.398-22.058-19.756-25.524-27.951-4.176-9.868-8.986-18.954-16.44-19.746-5.993-.635-11.55 5.48-17.426 21.771-4.965 13.902-13.141 20.673-21.24 21.052-25.338 1.182-21.133-33.499-22.813-49.274-1.549-14.539-5.561-28.782-15.372-28.961-5.606-.103-8.879 5.059-11.035 13.452-2.266 8.817-3.189 22.632-6.182 34.283-1.862 7.26-4.528 13.68-8.823 17.528-2.829 2.537-6.331 3.858-10.727 3.412-8.3-.842-15.62-9.95-15.071-26.535C52.386 49.847 57.126 8.584 35.89 6.13A62.288 62.288 0 0162.886 0z"/></svg>