<?xml version="1.0" encoding="iso-8859-1"?>
<!-- Uploaded to: SVG Repo, www.svgrepo.com, Generator: SVG Repo Mixer Tools -->
<svg height="800px" width="800px" version="1.1" id="Layer_1" xmlns="http://www.w3.org/2000/svg" xmlns:xlink="http://www.w3.org/1999/xlink" 
	 viewBox="0 0 504.014 504.014" xml:space="preserve">
<g transform="translate(1 1)">
	<path style="fill:#ECF4F7;" d="M370.52,79.913c0,0,0,17.067-8.533,25.6l-0.853,6.827c-26.453-3.413-62.293-6.827-110.08-6.827
		s-83.627,3.413-110.08,6.827l-0.853-6.827c-8.533-8.533-8.533-25.6-8.533-25.6c0-42.667,43.52-76.8,119.467-76.8
		S370.52,37.247,370.52,79.913L370.52,79.913z"/>
	<path style="fill:#80D6FA;" d="M251.053,446.847v51.2H140.12V480.98h-51.2v17.067H3.587l8.533-25.6
		c7.68-23.893,25.6-59.733,110.933-59.733l34.133-25.6L251.053,446.847z M489.987,472.447l8.533,25.6H251.053v-51.2l93.867-59.733
		l34.133,25.6C464.387,412.713,482.307,448.554,489.987,472.447z M413.187,122.58l-34.133,51.2h-256l-34.133-51.2
		c0,0,17.067-5.973,52.053-10.24c26.453-3.413,62.293-6.827,110.08-6.827s83.627,3.413,110.08,6.827
		C396.12,116.607,413.187,122.58,413.187,122.58z"/>
	<polygon style="fill:#AAB1BA;" points="88.92,498.047 140.12,498.047 140.12,480.98 88.92,480.98 	"/>
	<path style="fill:#ECF4F7;" d="M202.413,318.847c4.267-17.92,16.213-42.667,48.64-42.667c33.28,0,45.227,24.747,48.64,42.667l0,0
		c0,0,27.307,8.533,44.373-8.533c0,34.133-17.067,85.333-93.867,85.333s-93.867-51.2-93.013-85.333
		C175.107,327.38,201.56,318.847,202.413,318.847L202.413,318.847z"/>
	<path style="fill:#FFD0A1;" d="M379.053,173.78v51.2c0,9.387-7.68,17.067-17.067,17.067c0,0,0,42.667-17.067,68.267l0,0
		c-17.067,17.067-44.373,8.533-44.373,8.533l0,0c-4.267-17.92-16.213-42.667-48.64-42.667s-45.227,24.747-48.64,42.667l0,0
		c0,0-27.307,8.533-44.373-8.533l0,0c-17.067-25.6-17.92-68.267-17.92-68.267c-9.387,0-17.067-7.68-17.067-17.067v-51.2H379.053z"/>
</g>
<path style="fill:#51565F;" d="M499.52,503.313c-1.707,0-3.413-0.853-4.267-2.56l-8.533-25.6
	c-9.387-28.16-29.013-57.173-106.667-57.173c-0.853,0-1.707,0-2.56-0.853l-34.133-25.6c-1.707-1.707-2.56-4.267-0.853-5.973
	c1.707-1.707,4.267-2.56,5.973-0.853l33.28,24.747c81.92,0,104.107,33.28,113.493,62.293l8.533,25.6
	c0.853,2.56-0.853,4.267-2.56,5.12C500.373,503.313,500.373,503.313,499.52,503.313z M4.587,503.313c-0.853,0-0.853,0-1.707,0
	c-2.56-0.853-3.413-3.413-2.56-5.12l8.533-25.6C18.24,443.58,40.427,410.3,122.347,410.3l33.28-24.747
	c1.707-1.707,4.267-0.853,5.973,0.853c1.707,1.707,0.853,4.267-0.853,5.973l-34.133,25.6c-0.853,0.853-1.707,0.853-2.56,0.853
	c-77.653,0-97.28,29.013-106.667,57.173l-8.533,25.6C8,502.46,6.293,503.313,4.587,503.313z M252.053,503.313
	c-2.56,0-4.267-1.707-4.267-4.267v-48.64l-57.173-33.28c-1.707-0.853-2.56-2.56-2.56-3.413s0-1.707,0.853-1.707
	c0.853-1.707,3.413-2.56,5.973-1.707l58.027,33.28l58.027-33.28c1.707-0.853,4.267-0.853,5.973,1.707
	c0,0.853,0.853,1.707,0.853,1.707c0,1.707-0.853,2.56-2.56,3.413l-57.173,33.28v48.64
	C256.32,501.607,254.613,503.313,252.053,503.313z M141.12,503.313c-2.56,0-4.267-1.707-4.267-4.267v-12.8H94.187v12.8
	c0,2.56-1.707,4.267-4.267,4.267s-4.267-1.707-4.267-4.267V481.98c0-2.56,1.707-4.267,4.267-4.267h51.2
	c2.56,0,4.267,1.707,4.267,4.267v17.067C145.387,501.607,143.68,503.313,141.12,503.313z M252.053,400.913
	c-32.427,0-57.173-8.533-74.24-25.6c-19.627-20.48-23.04-46.933-23.893-61.44c0-0.853,0-0.853-0.853-1.707
	c-13.653-22.187-16.213-53.76-17.067-64.853c-9.387-1.707-17.067-10.24-17.067-21.333v-17.067c0-2.56,1.707-4.267,4.267-4.267
	c2.56,0,4.267,1.707,4.267,4.267v17.067c0,6.827,5.973,12.8,12.8,12.8c2.56,0,4.267,1.707,4.267,4.267
	c0,0,0.853,41.813,17.067,65.707v0.853c12.8,11.093,30.72,7.68,36.693,6.827c5.12-18.773,17.92-43.52,52.053-43.52
	s46.933,24.747,52.053,43.52c5.973,1.707,24.747,4.267,37.547-6.827l0,0C356.16,285.713,356.16,243.9,356.16,243.9
	c0-2.56,1.707-4.267,4.267-4.267c6.827,0,12.8-5.973,12.8-12.8v-17.067c0-2.56,1.707-4.267,4.267-4.267s4.267,1.707,4.267,4.267
	v25.6c0,2.56-1.707,4.267-4.267,4.267l0,0c-3.413,4.267-7.68,6.827-12.8,8.533c-0.853,11.093-3.413,43.52-17.067,65.707l0,0
	c0,15.36-3.413,41.813-23.893,62.293C309.227,392.38,284.48,400.913,252.053,400.913z M163.307,320.7
	c0.853,13.653,5.973,33.28,20.48,48.64c15.36,15.36,38.4,23.04,68.267,23.04s52.907-7.68,68.267-23.04
	c15.36-15.36,19.627-34.987,21.333-48.64c-11.947,6.827-26.453,5.973-34.987,5.12c0.853,6.827,0.853,11.093,0.853,11.947
	c0,2.56-1.707,4.267-4.267,4.267l0,0c-2.56,0-4.267-1.707-4.267-4.267s-0.853-55.467-46.933-55.467s-46.933,52.907-46.933,55.467
	s-1.707,4.267-4.267,4.267l0,0c-2.56,0-4.267-1.707-4.267-4.267c0,0,0-5.12,0.853-11.947
	C189.76,326.673,175.253,327.527,163.307,320.7z M260.587,315.58H243.52c-2.56,0-4.267-1.707-4.267-4.267
	c0-2.56,1.707-4.267,4.267-4.267h17.067c2.56,0,4.267,1.707,4.267,4.267C264.853,313.873,263.147,315.58,260.587,315.58z
	 M294.72,238.78c-2.56,0-4.267-1.707-4.267-4.267v-4.267h-12.8c-2.56,0-4.267-1.707-4.267-4.267c0-2.56,1.707-4.267,4.267-4.267
	h34.133c2.56,0,4.267,1.707,4.267,4.267c0,2.56-1.707,4.267-4.267,4.267h-12.8v4.267C298.987,237.073,297.28,238.78,294.72,238.78z
	 M209.387,238.78c-2.56,0-4.267-1.707-4.267-4.267v-4.267h-12.8c-2.56,0-4.267-1.707-4.267-4.267c0-2.56,1.707-4.267,4.267-4.267
	h34.133c2.56,0,4.267,1.707,4.267,4.267c0,2.56-1.707,4.267-4.267,4.267h-12.8v4.267C213.653,237.073,211.947,238.78,209.387,238.78
	z M380.053,179.047h-256c-1.707,0-2.56-0.853-3.413-1.707l-34.133-51.2c-0.853-0.853-0.853-2.56-0.853-3.413
	c0.853-0.853,1.707-2.56,2.56-2.56c0.853,0,17.067-5.973,49.493-10.24c-9.387-9.387-9.387-27.307-9.387-28.16
	c0-48.64,49.493-81.067,123.733-81.067s123.733,32.427,123.733,81.067c0,0.853,0,18.773-9.387,28.16
	c32.427,4.267,48.64,9.387,49.493,10.24c0.853,0,2.56,1.707,2.56,2.56c0,0.853,0,2.56-0.853,3.413l-34.133,51.2
	C382.613,178.193,381.76,179.047,380.053,179.047z M126.613,170.513h251.733l29.867-44.373c-16.213-4.267-66.56-15.36-155.307-15.36
	S113.813,121.873,97.6,126.14L126.613,170.513z M252.053,102.247c45.227,0,81.067,2.56,107.52,5.973
	c-0.853-1.707-0.853-3.413,0.853-5.12c6.827-6.827,7.68-22.187,7.68-22.187c0-43.52-46.08-72.533-115.2-72.533
	s-115.2,29.013-115.2,72.533c0,0,0,15.36,7.68,22.187c1.707,1.707,1.707,3.413,0.853,5.12
	C170.987,104.807,206.827,102.247,252.053,102.247z M252.053,76.647c-18.773,0-28.16-9.387-29.013-9.387
	c-1.707-1.707-1.707-4.267,0-5.973c1.707-1.707,4.267-1.707,5.973,0l0,0c0,0,5.973,5.973,17.92,6.827V38.247
	c0-2.56,1.707-4.267,4.267-4.267s4.267,1.707,4.267,4.267v29.867c11.947-0.853,17.92-6.827,17.92-6.827
	c1.707-1.707,4.267-1.707,5.973,0c1.707,1.707,1.707,4.267,0,5.973C280.213,67.26,270.827,76.647,252.053,76.647z"/>
</svg>