<?xml version="1.0" encoding="iso-8859-1"?>
<!-- Uploaded to: SVG Repo, www.svgrepo.com, Generator: SVG Repo Mixer Tools -->
<svg version="1.1" id="Layer_1" xmlns="http://www.w3.org/2000/svg" xmlns:xlink="http://www.w3.org/1999/xlink" 
	 viewBox="0 0 512 512" xml:space="preserve">
<path style="fill:#C8624A;" d="M329.089,359.429c40.071-30.971,66.738-87.034,66.738-150.573
	c0-57.089-21.582-107.826-55.027-140.005l-169.652-0.031c-33.464,32.178-55.059,82.928-55.059,140.037
	c0,64.204,27.014,119.803,67.783,150.573h145.217V359.429z"/>
<g>
	<path style="fill:#FEBBA0;" d="M213.85,319.116v20.351c0,6.799-4.088,12.932-10.365,15.548l-67.237,28.015
		c-14.205,5.919-23.457,22.006-23.457,37.395v81.087h286.334v-81.087c0-15.388-9.253-31.477-23.457-37.395l-67.237-28.015
		c-6.277-2.615-10.365-8.749-10.365-15.548v-20.351H213.85z"/>
	<path style="fill:#FEBBA0;" d="M349.984,168.728v94.715c-1.126,14.734-8.479,27.851-19.359,35.036l-56.402,32.341
		c-11.359,7.502-25.171,7.502-36.531,0l-56.571-32.341c-10.879-7.185-18.063-20.302-19.191-35.036v-94.715h83.578l42.95-34.823
		l-8.126,34.823H349.984v94.715"/>
</g>
<path style="fill:#FF5957;" d="M406.356,350.068c-11.087-11.087-11.087-29.064,0.002-40.154l46.742-46.743
	c11.09-11.089,29.067-11.088,40.154-0.001l0,0c11.089,11.089,11.089,29.065,0,40.154l-46.743,46.743
	C435.42,361.156,417.445,361.157,406.356,350.068L406.356,350.068z"/>
<path style="fill:#35BD69;" d="M429.729,286.543l-23.372,23.373c-11.088,11.09-11.088,29.067-0.002,40.154
	c11.089,11.089,29.064,11.088,40.155-0.001l23.37-23.373L429.729,286.543z"/>
<path style="fill:#FFFFFF;" d="M375.668,383.031l-67.237-28.015c-1.989-0.828-3.757-2.013-5.246-3.458l-47.13,47.13l-47.229-47.229
	c-1.51,1.489-3.308,2.71-5.341,3.557l-67.237,28.015c-14.205,5.919-23.457,22.006-23.457,37.395v81.087h286.334v-81.087
	C399.126,405.037,389.871,388.949,375.668,383.031z"/>
<rect x="39.94" y="127.259" style="fill:#4683FF;" width="27.16" height="28.458"/>
<rect id="SVGCleanerId_0" x="20.301" y="155.728" style="fill:#FFFFFF;" width="65.954" height="141.331"/>
<g>
	<rect id="SVGCleanerId_0_1_" x="20.301" y="155.728" style="fill:#FFFFFF;" width="65.954" height="141.331"/>
</g>
<rect x="20.302" y="155.728" style="fill:#4683FF;" width="65.954" height="78.94"/>
<path style="fill:#FFFFFF;" d="M172.514,124.102H339.42l9.518-90.106c-27.818-14.988-59.637-23.506-93.454-23.506
	c-33.437,0-64.913,8.344-92.507,23.022L172.514,124.102z"/>
<path d="M500.642,255.783c-15.143-15.142-39.784-15.142-54.929,0.002l-46.742,46.743c-15.143,15.145-15.144,39.785-0.002,54.929l0,0
	c7.571,7.571,17.517,11.356,27.464,11.356c9.947,0,19.894-3.786,27.467-11.357l46.743-46.743
	C515.786,295.568,515.786,270.927,500.642,255.783z M439.125,342.679c-7,6.998-18.386,6.999-25.382,0.001l0,0
	c-6.997-6.996-6.996-18.381,0.002-25.379l15.984-15.984l25.379,25.379L439.125,342.679z M485.866,295.937l-15.984,15.984
	l-25.379-25.379l15.983-15.983c6.998-6.997,18.383-6.999,25.38-0.001C492.864,277.554,492.864,288.94,485.866,295.937z"/>
<path d="M255.958,409.211c-2.683,0-5.365-1.027-7.407-3.08c-4.069-4.09-4.051-10.705,0.04-14.775l0.097-0.097
	c4.09-4.068,10.704-4.052,14.775,0.04c4.069,4.09,4.051,10.705-0.04,14.775l-0.097,0.097
	C261.288,408.199,258.622,409.211,255.958,409.211z"/>
<path d="M255.958,409.211c-2.673,0-5.348-1.02-7.387-3.06l-0.097-0.097c-4.08-4.08-4.08-10.695,0-14.776
	c4.08-4.08,10.695-4.08,14.776,0l0.097,0.097c4.08,4.08,4.08,10.695,0,14.776C261.306,408.192,258.633,409.211,255.958,409.211z"/>
<path d="M282.204,55.65h-15.798V39.851c0-5.77-4.677-10.447-10.447-10.447s-10.447,4.677-10.447,10.447V55.65h-15.798
	c-5.77,0-10.447,4.677-10.447,10.447c0,5.77,4.677,10.447,10.447,10.447h15.798v15.799c0,5.77,4.677,10.447,10.447,10.447
	s10.447-4.677,10.447-10.447V76.544h15.798c5.77,0,10.447-4.677,10.447-10.447S287.974,55.65,282.204,55.65z"/>
<path d="M255.958,460.865c-2.673,0-5.348-1.02-7.387-3.06l-0.097-0.097c-4.08-4.08-4.08-10.695,0-14.776
	c4.08-4.08,10.695-4.08,14.776,0l0.097,0.097c4.08,4.08,4.08,10.695,0,14.776C261.306,459.845,258.633,460.865,255.958,460.865z"/>
<path d="M10.584,511.959h-0.137C4.677,511.959,0,507.282,0,501.512s4.677-10.447,10.447-10.447h0.137
	c5.77,0,10.447,4.677,10.447,10.447S16.354,511.959,10.584,511.959z"/>
<path d="M501.469,511.959h-0.137c-5.77,0-10.447-4.677-10.447-10.447s4.677-10.447,10.447-10.447h0.137
	c5.77,0,10.447,4.677,10.447,10.447S507.239,511.959,501.469,511.959z"/>
<path d="M467.533,491.065h-57.96v-70.639c0-20.364-12.29-39.707-29.887-47.039l-34.148-14.228
	c16.891-15.584,31.098-35.565,41.465-58.5c12.607-27.889,19.27-59.634,19.27-91.804c0-53.611-18.367-104.172-50.546-139.595
	l3.635-34.053c0.45-4.217-1.692-8.286-5.422-10.301C323.897,8.677,289.877,0.078,255.558,0.041c-0.076,0-0.149,0-0.226,0
	c-33.829,0-67.442,8.345-97.214,24.137c-3.762,1.995-5.937,6.075-5.495,10.311l3.616,34.711
	c-32.21,35.428-50.597,86.009-50.597,139.653c0,60.162,22.695,115.16,61.287,150.074l-34.699,14.459
	c-17.596,7.333-29.885,26.675-29.885,47.038v70.639H44.383c-5.77,0-10.447,4.677-10.447,10.447c0,5.77,4.677,10.447,10.447,10.447
	h423.15c5.77,0,10.447-4.677,10.447-10.447C477.981,495.741,473.303,491.065,467.533,491.065z M385.38,208.856
	c0,57.266-23.507,111.222-61.432,141.308l-11.498-4.791c-2.39-0.996-3.935-3.313-3.935-5.904V323.2l27.308-15.658
	c0.19-0.109,0.377-0.225,0.561-0.346c13.641-9.009,22.61-25.013,24.008-42.831c0.025-0.29,0.04-0.585,0.041-0.882
	c0-0.001,0-0.003,0-0.004c0-0.002,0-0.005,0-0.007c0-0.003,0-0.006,0-0.009c0-0.001,0-0.004,0-0.005c0-0.005,0-0.009,0-0.015
	v-94.715c0-5.77-4.677-10.447-10.447-10.447h-56.482l5.134-22.002c0.131-0.56,0.355-1.682,0.355-1.682h40.356
	c0.004,0,0.008,0,0.011,0c5.34,0,9.822-3.982,10.388-9.294l2.831-26.526C373.619,128.926,385.38,167.817,385.38,208.856z
	 M272.151,175.222c1.982,2.498,4.996,3.953,8.183,3.953h59.202v83.846c-0.949,11.048-6.442,21.172-14.417,26.573l-56.091,32.162
	c-0.191,0.11-0.377,0.225-0.561,0.346c-7.83,5.172-17.183,5.173-25.016,0c-0.187-0.124-0.377-0.241-0.573-0.352l-56.254-32.16
	c-7.984-5.405-13.283-15.291-14.244-26.567v-83.847h73.131c2.396,0,4.719-0.823,6.58-2.332l19.269-15.623l-1.197,5.134
	C269.437,169.459,270.17,172.724,272.151,175.222z M255.332,20.937c0.067,0,0.136,0,0.203,0c28.539,0.031,56.84,6.639,82.292,19.164
	l-7.861,73.636l-148.1-0.164l-7.717-74.094C199.332,27.328,227.244,20.937,255.332,20.937z M126.536,208.856
	c0-41.03,11.754-79.91,32.786-110.054l2.738,26.292c0.554,5.318,5.033,9.467,10.379,9.474h98.617l-29.248,23.714h-79.876
	c-5.77,0-10.447,4.677-10.447,10.447v94.715c0,0.265,0.01,0.532,0.03,0.796c1.372,17.942,10.287,34.001,23.85,42.958
	c0.187,0.123,0.378,0.24,0.573,0.352l27.465,15.701v16.218c0,2.59-1.545,4.907-3.935,5.904l-10.838,4.516
	C149.719,319.618,126.536,267.079,126.536,208.856z M388.678,491.065h-265.44v-70.639c0-11.775,7.32-23.706,17.028-27.751
	l66.937-27.89l17.372,17.372c2.04,2.04,4.714,3.06,7.387,3.06s5.348-1.021,7.387-3.06c4.08-4.08,4.08-10.695,0-14.775
	l-17.234-17.234c1.405-3.311,2.182-6.923,2.182-10.679v-4.274l7.937,4.537c7.334,4.763,15.529,7.144,23.724,7.144
	c8.198,0,16.395-2.383,23.729-7.148l7.932-4.548v4.288c0,3.755,0.777,7.367,2.181,10.678l-17.234,17.235
	c-4.08,4.08-4.08,10.695,0,14.775c2.04,2.04,4.714,3.06,7.387,3.06c2.673,0,5.348-1.021,7.387-3.06l17.371-17.371l66.938,27.89
	c9.708,4.045,17.028,15.975,17.028,27.751L388.678,491.065L388.678,491.065z"/>
<path d="M294.058,235.477c-6.44,0-11.678-5.238-11.678-11.677c0-6.44,5.238-11.678,11.678-11.678s11.678,5.238,11.678,11.678
	C305.736,230.239,300.498,235.477,294.058,235.477z"/>
<path d="M217.858,235.477c-6.44,0-11.678-5.238-11.678-11.677c0-6.44,5.238-11.678,11.678-11.678s11.678,5.238,11.678,11.678
	C229.535,230.239,224.297,235.477,217.858,235.477z"/>
<path d="M256.002,292.449c-11.39,0-20.656-9.267-20.656-20.656c0-5.77,4.677-10.447,10.447-10.447h20.418
	c5.77,0,10.447,4.677,10.447,10.447C276.657,283.183,267.392,292.449,256.002,292.449z"/>
<path d="M96.706,286.64l-0.001-130.916c0-5.77-4.677-10.447-10.447-10.447h-8.706v-18.015c0-5.77-4.677-10.447-10.447-10.447h-3.377
	V86.755c0-5.77-4.677-10.447-10.447-10.447s-10.447,4.677-10.447,10.447v30.058h-2.889c-5.77,0-10.447,4.677-10.447,10.447v18.015
	h-9.197c-5.77,0-10.447,4.677-10.447,10.447l0,130.915C4.362,286.947,0,291.485,0,297.055c0,5.769,4.677,10.447,10.447,10.447
	l32.387,0.003v16.327l-13.738-0.001l0,0c-5.769,0-10.447,4.677-10.447,10.447s4.677,10.447,10.447,10.447l48.37,0.003l0,0
	c5.769,0,10.447-4.677,10.447-10.447c0-5.77-4.677-10.447-10.447-10.447l-13.737-0.001v-16.328h32.387l0,0
	c5.769,0,10.447-4.677,10.447-10.447C106.562,291.487,102.199,286.948,96.706,286.64z M30.748,245.112h12.085v41.497H30.748V245.112
	z M75.811,166.171v58.047l-45.063-0.001V166.17h45.063V166.171z M63.728,286.61v-41.497h12.083v41.497H63.728z M50.392,137.709
	h2.454c0.145,0.006,0.287,0.022,0.435,0.022c0.147,0,0.289-0.016,0.435-0.022h2.942v7.568h-6.265V137.709z"/>
</svg>