<?xml version="1.0" encoding="iso-8859-1"?>
<!-- Uploaded to: SVG Repo, www.svgrepo.com, Generator: SVG Repo Mixer Tools -->
<svg height="800px" width="800px" version="1.1" id="Layer_1" xmlns="http://www.w3.org/2000/svg" xmlns:xlink="http://www.w3.org/1999/xlink" 
	 viewBox="0 0 511.98 511.98" xml:space="preserve">
<g>
	<path style="fill:#602B2B;" d="M351.44,288.068c-29.5-0.125-61.701,0-95.45,0c-33.741,0-65.951-0.125-95.45,0L0,298.74v10.671
		c0,23.562,52.857,85.325,255.99,85.325s255.99-61.764,255.99-85.325v-9.655L351.44,288.068z"/>
	<path style="fill:#602B2B;" d="M511.98,298.74c0,23.561-52.857,85.324-255.99,85.324S0,322.3,0,298.74
		c0-23.562,114.613-21.327,255.99-21.327C397.36,277.413,511.98,275.178,511.98,298.74z"/>
</g>
<path style="fill:#6D3B3B;" d="M511.98,298.74c0,23.561-52.857,85.324-255.99,85.324S0,322.3,0,298.74
	c0-23.562,114.613-21.327,255.99-21.327C397.36,277.413,511.98,275.178,511.98,298.74z"/>
<path style="fill:#7F4545;" d="M437.328,298.74c0,0-67.654,31.998-181.275,31.998c-113.613,0-181.642-31.998-181.642-31.998
	s51.975-180.814,67.826-180.814s103.465,31.491,113.628,31.491c10.156,0,103.371-37.655,113.996-31.491
	C380.501,124.097,437.328,298.74,437.328,298.74z"/>
<path style="fill:#EC5564;" d="M256.052,309.411c-94.676,0-157.682-22.218-176.063-29.623c-3.484,11.655-5.578,18.952-5.578,18.952
	s68.029,31.998,181.642,31.998c113.621,0,181.275-31.998,181.275-31.998s-2.344-7.188-6.172-18.718
	C412.11,287.678,349.706,309.411,256.052,309.411z"/>
<g style="opacity:0.1;">
	<path style="fill:#FFFFFF;" d="M142.237,139.261c15.851,0,103.465,31.491,113.628,31.491c10.156,0,103.371-37.654,113.996-31.491
		c8.483,4.914,46.296,116.863,61.295,162.104c4.062-1.625,6.172-2.625,6.172-2.625s-56.827-174.643-67.467-180.814
		c-10.625-6.164-103.84,31.491-113.996,31.491c-10.164,0-97.777-31.491-113.628-31.491S74.411,298.74,74.411,298.74
		s1.898,0.891,5.578,2.375C93.832,254.733,129.565,139.261,142.237,139.261z"/>
</g>
</svg>