<?xml version="1.0" encoding="iso-8859-1"?>
<!-- Uploaded to: SVG Repo, www.svgrepo.com, Generator: SVG Repo Mixer Tools -->
<svg height="800px" width="800px" version="1.1" id="Layer_1" xmlns="http://www.w3.org/2000/svg" xmlns:xlink="http://www.w3.org/1999/xlink" 
	 viewBox="0 0 512.001 512.001" xml:space="preserve">
<g>
	<path style="fill:#16786C;" d="M346.337,190.335c-4.329,0-7.837,3.509-7.837,7.837v27.003c0,4.328,3.508,7.837,7.837,7.837
		c4.329,0,7.837-3.509,7.837-7.837v-27.003C354.173,193.844,350.666,190.335,346.337,190.335z"/>
	<path style="fill:#16786C;" d="M165.665,59.724c-4.329,0-7.837,3.509-7.837,7.837v27.002c0,4.328,3.508,7.837,7.837,7.837
		c4.329,0,7.837-3.509,7.837-7.837V67.561C173.502,63.233,169.994,59.724,165.665,59.724z"/>
</g>
<g>
	<path style="fill:#E3DAB3;" d="M212.478,230.923h-93.625c-21.523,14.862-35.634,39.675-35.634,67.791
		c0,45.49,36.912,82.366,82.446,82.366s82.446-36.877,82.446-82.366C248.111,270.598,234,245.785,212.478,230.923z"/>
	<path style="fill:#E3DAB3;" d="M392.717,361.537h-92.759c-21.769,14.826-36.067,39.792-36.067,68.098
		c0,45.49,36.912,82.366,82.446,82.366s82.446-36.877,82.446-82.366C428.782,401.329,414.486,376.363,392.717,361.537z"/>
</g>
<path style="opacity:0.1;enable-background:new    ;" d="M116.952,298.714c0-28.119,14.117-52.931,35.643-67.791h-33.742
	c-21.523,14.862-35.634,39.675-35.634,67.791c0,45.49,36.912,82.366,82.446,82.366c5.78,0,11.422-0.6,16.867-1.731
	C145.09,371.572,116.952,338.428,116.952,298.714z"/>
<path style="opacity:0.1;enable-background:new    ;" d="M297.624,429.634c0-28.31,14.306-53.274,36.081-68.098h-33.748
	c-21.769,14.826-36.067,39.792-36.067,68.098c0,45.49,36.912,82.366,82.446,82.366c5.78,0,11.423-0.6,16.867-1.731
	C325.762,502.491,297.624,469.348,297.624,429.634z"/>
<g>
	<path style="fill:#EFBA50;" d="M174.137,128.522h-16.945L96.6,233.371c-0.982,1.699-0.982,3.792,0,5.491
		c0.982,1.699,2.796,2.746,4.761,2.746h128.61c1.964,0,3.777-1.046,4.761-2.746c0.981-1.699,0.981-3.793,0-5.491L174.137,128.522z"
		/>
	<path style="fill:#EFBA50;" d="M415.402,364.29l-60.77-105.155h-16.59l-60.77,105.155c-0.982,1.699-0.982,3.793,0,5.492
		c0.982,1.699,2.796,2.746,4.761,2.746h128.61c1.964,0,3.777-1.047,4.761-2.746C416.385,368.083,416.385,365.989,415.402,364.29z"/>
</g>
<g>
	<path style="fill:#FFFFFF;" d="M352.313,491.088c-8.329,0-16.319-1.808-23.758-5.373c-4.187-2.006-6.508-6.572-5.667-11.141
		c0.843-4.569,4.64-8.004,9.265-8.383c12.864-1.052,25.01-6.679,34.202-15.844c9.186-9.158,14.836-21.264,15.911-34.09
		c0.387-4.621,3.815-8.41,8.37-9.253c0.626-0.115,1.253-0.171,1.87-0.171c3.888,0,7.515,2.215,9.25,5.819
		c3.576,7.426,5.389,15.404,5.389,23.71C407.144,466.54,382.548,491.088,352.313,491.088z"/>
	<path style="fill:#FFFFFF;" d="M175.881,363.241c-8.328,0-16.319-1.808-23.758-5.373c-4.186-2.006-6.508-6.572-5.665-11.141
		c0.842-4.569,4.64-8.004,9.264-8.383c12.864-1.051,25.011-6.679,34.202-15.843c9.186-9.158,14.837-21.264,15.912-34.09
		c0.386-4.621,3.814-8.41,8.369-9.253c0.626-0.115,1.253-0.171,1.87-0.171c3.889,0,7.514,2.216,9.25,5.819
		c3.576,7.426,5.389,15.404,5.389,23.71C230.713,338.693,206.117,363.241,175.881,363.241z"/>
</g>
<path style="opacity:0.1;enable-background:new    ;" d="M311.154,369.782c-0.981-1.699-0.981-3.793,0-5.492l52.125-90.192
	l-12.181-21.079c-0.982-1.699-2.797-2.746-4.761-2.746c-1.963,0-3.777,1.047-4.761,2.746L277.271,364.29
	c-0.982,1.699-0.982,3.793,0,5.492c0.982,1.699,2.796,2.746,4.761,2.746h33.883C313.95,372.528,312.137,371.481,311.154,369.782z"/>
<path style="opacity:0.1;enable-background:new    ;" d="M130.069,238.862c-0.981-1.699-0.981-3.793,0-5.491l52.331-90.552
	l-11.973-20.72c-0.982-1.699-2.797-2.746-4.761-2.746c-1.963,0-3.778,1.047-4.761,2.746L96.6,233.37
	c-0.982,1.699-0.982,3.792,0,5.491c0.982,1.699,2.796,2.746,4.761,2.746h33.468C132.864,241.608,131.05,240.561,130.069,238.862z"/>
<g>
	<ellipse style="fill:#37C4B3;" cx="346.332" cy="246.784" rx="23.635" ry="23.612"/>
	<ellipse style="fill:#37C4B3;" cx="165.67" cy="115.858" rx="23.635" ry="23.612"/>
</g>
<path style="opacity:0.1;enable-background:new    ;" d="M345.052,246.782c0-9.002,5.043-16.826,12.459-20.809
	c-3.327-1.788-7.131-2.803-11.174-2.803c-13.052,0-23.635,10.572-23.635,23.613c0,13.039,10.583,23.612,23.635,23.612
	c4.043,0,7.848-1.016,11.174-2.803C350.095,263.606,345.052,255.784,345.052,246.782z"/>
<path style="opacity:0.1;enable-background:new    ;" d="M164.379,115.862c0-9.002,5.044-16.826,12.46-20.809
	c-3.328-1.788-7.131-2.803-11.174-2.803c-13.053,0-23.635,10.571-23.635,23.613c0,13.039,10.582,23.611,23.635,23.611
	c4.043,0,7.847-1.016,11.174-2.803C169.424,132.686,164.379,124.863,164.379,115.862z"/>
<g>
	<ellipse style="fill:#53E7D3;" cx="346.332" cy="165.512" rx="34.628" ry="34.597"/>
	<ellipse style="fill:#53E7D3;" cx="165.67" cy="34.597" rx="34.628" ry="34.597"/>
</g>
<path style="opacity:0.1;enable-background:new    ;" d="M153.601,34.594c0-15.158,9.762-28.03,23.345-32.706
	C173.409,0.671,169.616,0,165.665,0c-19.125,0-34.628,15.487-34.628,34.594c0,19.105,15.503,34.593,34.628,34.593
	c3.951,0,7.744-0.671,11.281-1.888C163.364,62.624,153.601,49.752,153.601,34.594z"/>
<g>
	<polygon style="fill:#BF953E;" points="204.18,180.507 127.15,180.507 118.093,196.181 213.238,196.181 	"/>
	<path style="fill:#BF953E;" d="M171.925,206.315h-59.69l-9.058,15.673h68.748c4.329,0,7.837-3.509,7.837-7.837
		C179.762,209.824,176.254,206.315,171.925,206.315z"/>
	<path style="fill:#BF953E;" d="M202.106,206.315c-4.329,0-7.837,3.509-7.837,7.837c0,4.328,3.508,7.837,7.837,7.837h26.047
		l-9.058-15.673H202.106z"/>
	<polygon style="fill:#BF953E;" points="189.266,154.699 142.065,154.699 133.007,170.373 198.324,170.373 	"/>
	<polygon style="fill:#BF953E;" points="384.853,311.427 307.822,311.427 298.765,327.1 393.909,327.1 	"/>
	<path style="fill:#BF953E;" d="M367.024,337.235h-74.117l-9.058,15.673h83.175c4.328,0,7.837-3.509,7.837-7.837
		S371.353,337.235,367.024,337.235z"/>
	<polygon style="fill:#BF953E;" points="369.937,285.619 322.737,285.619 313.678,301.292 378.995,301.292 	"/>
</g>
<path style="opacity:0.1;enable-background:new    ;" d="M334.272,165.514c0-15.158,9.762-28.03,23.345-32.706
	c-3.537-1.218-7.329-1.888-11.281-1.888c-19.125,0-34.628,15.489-34.628,34.594c0,19.105,15.503,34.592,34.628,34.592
	c3.952,0,7.744-0.671,11.281-1.888C344.035,193.544,334.272,180.672,334.272,165.514z"/>
</svg>