<svg xmlns="http://www.w3.org/2000/svg" shape-rendering="geometricPrecision" text-rendering="geometricPrecision" image-rendering="optimizeQuality" fill-rule="evenodd" clip-rule="evenodd" viewBox="0 0 512 306.798"><path fill="#9D501D" fill-rule="nonzero" d="M174.359 267.089c-27.105 1.523-67.771 1.431-103.767-6.49-26.282-5.784-50.226-15.791-65.145-32.444-2.099-2.343-3.479-4.757-4.321-7.084l-.115-.351c-.965-2.828-1.166-5.523-.909-7.843.33-2.977 1.967-5.777 4.175-8.046 2.154-2.214 5.007-4.069 7.604-5.028.197-.073.407-.141.623-.203a20.784 20.784 0 012.221-.65l117.754-27.828a5.941 5.941 0 013.269-.106c34.044 8.633 71.234 13.308 111.786 13.744 40.668.436 84.826-3.388 132.699-11.755a6.038 6.038 0 012.876.21l116.973 38.355c8.083 2.3 11.724 6.484 11.912 12.132.153 4.61-2.581 9.475-7.373 14.513a6.17 6.17 0 01-.432.44 224.476 224.476 0 01-15.625 13.126c-5.402 4.144-11.094 8.139-17.05 11.992a265.11 265.11 0 01-75.778 33.622c-27.495 7.348-55.872 10.265-84.271 9.185-53.814-2.045-91.003-18.757-137.106-39.491z"/><path fill="#BE7241" d="M162.136 261.642c-47.317 1.48-121.437-3.073-152.247-37.461-3.381-3.774-4.177-7.68-3.849-10.649.177-1.582 1.202-3.212 2.598-4.624 64.177 15.306 114.731 35.639 153.498 52.734z"/><path fill="#9D501D" fill-rule="nonzero" d="M389.297 142.28l-1.45 36.663a5.967 5.967 0 01-4.609 5.577l.003.011c-37.408 8.81-88.407 12.587-135.455 12.033-49.176-.578-94.306-5.946-115.546-15.295a5.974 5.974 0 01-3.561-5.162c-1.31-18.134-2.477-33.254-2.485-51.171 0-59.996 34.239-98.407 78.067-115.224 33.747-12.95 73.242-12.949 106.993.001 43.835 16.821 78.085 55.235 78.085 115.223v16.638c0 .239-.015.474-.042.706z"/><path fill="#F2B888" d="M383.186 145.792l-1.075 27.19a6.058 6.058 0 00-1.878.023c-47.873 8.367-92.031 12.191-132.699 11.755-40.552-.436-77.742-5.111-111.786-13.744a6.006 6.006 0 00-1.458-.18l-1.935-26.811c36.68 9.321 76.333 14.326 119.055 14.586 41.106.249 85.004-3.898 131.776-12.819zM132.178 136.9v-11.964c0-158.639 251.176-158.594 251.176 0v13.871c-46.927 9.038-90.87 13.239-131.917 12.989-42.087-.255-83.03-5.689-119.259-14.896z"/><path fill="#F2B888" d="M381.262 178.897c-96.346 16.837-178.064 15.388-246.964-2.083L16.721 204.902c152.807 36.309 195.472 91.934 294.954 95.717 54.338 2.066 108.622-10.822 156.59-41.85 11.583-7.492 22.257-15.63 31.879-24.509 7.601-7.918 8.736-14.071-1.909-17.008l-116.973-38.355z"/><path fill="#C12C18" fill-rule="nonzero" d="M376.399 152.43a89.436 89.436 0 0111.405-11.796c5.366-4.627 10.817-8.284 16.06-11.528l.089-.053a56.256 56.256 0 015.568-2.895c1.849-.824 3.629-1.474 5.336-1.947 15.063-4.181 21.918 3.956 25.057 15.264 2.182 7.865 2.282 17.206 2.356 24.151l.027 2.234c.086 5.769-.044 11.541-.411 16.717-.355 5.023-.925 9.596-1.725 13.229l-.047.196a28.628 28.628 0 01-.948 3.28c-1.95 5.457-5.366 9.371-9.787 11.642-4.341 2.23-9.51 2.778-15.065 1.554l-.411-.11a32.003 32.003 0 01-3.491-1.021c-7.101-2.539-13.354-7.465-19.046-11.948-1.584-1.245-3.149-2.478-3.584-2.808a523.876 523.876 0 01-7.162-5.519 391.465 391.465 0 01-3.785-3.024 20.335 20.335 0 01-2.062 2.21l23.603 33.837a2.279 2.279 0 01-3.735 2.609l-23.544-33.753a19.887 19.887 0 01-5.133 2.053l-.001 32.964a2.278 2.278 0 01-4.556 0l.001-32.392-.2.003a19.882 19.882 0 01-11.933-3.98l-13.35 28.539a2.283 2.283 0 01-4.128-1.948l13.991-29.907-.2-.245c-4.557 3.275-12.084 8.389-19.082 12.953-7.753 5.057-15.018 9.53-17.33 10.356-1.112.398-2.28.738-3.49 1.021l-.412.11c-5.556 1.223-10.723.676-15.063-1.554-4.422-2.271-7.837-6.184-9.788-11.64a28.581 28.581 0 01-.947-3.282l-.048-.196c-.8-3.634-1.37-8.208-1.726-13.231-.365-5.174-.497-10.948-.41-16.715l.026-2.234c.074-6.945.175-16.286 2.357-24.151 3.138-11.308 9.994-19.445 25.056-15.264 7.062 1.958 16.137 7.212 24.472 13.401 6.339 4.707 12.341 10.02 16.768 14.883 3.685-4.322 9.159-7.079 15.237-7.079 6.058 0 11.509 2.728 15.191 7.014z"/><path fill="#EC2021" d="M379.07 156.411c8.549-11.037 18.175-17.85 27.187-23.429 3.558-2.09 6.829-3.549 9.815-4.377 22.331-6.198 21.456 23.101 21.67 37.309.162 10.765-.479 21.788-2.047 28.909-2.625 11.923-12.239 16.334-23.746 12.219-7.884-2.82-15.063-9.254-21.416-14.078a477.05 477.05 0 01-11.25-8.801 19.864 19.864 0 001.957-8.616v-10.1c0-3.245-.783-6.316-2.17-9.036zM343.355 156.403c-9.428-10.735-28.013-24.517-39.838-27.798-22.331-6.198-21.456 23.101-21.67 37.309-.163 10.765.479 21.788 2.047 28.909 2.625 11.923 12.238 16.334 23.746 12.219 3.861-1.38 26.469-16.339 35.511-22.86a19.811 19.811 0 01-1.975-8.635v-10.1c0-3.247.788-6.322 2.179-9.044z"/><path fill="#FF584F" d="M361.208 149.989c8.503 0 15.459 6.956 15.459 15.458v10.1c0 8.502-6.956 15.458-15.459 15.458s-15.459-6.956-15.459-15.458v-10.1c0-8.502 6.956-15.458 15.459-15.458z"/></svg>