<svg xmlns="http://www.w3.org/2000/svg" shape-rendering="geometricPrecision" text-rendering="geometricPrecision" image-rendering="optimizeQuality" fill-rule="evenodd" clip-rule="evenodd" viewBox="0 0 338 511.508"><path fill="#AD161C" fill-rule="nonzero" d="M82.862 0h33.477l1.182 5.897c3.756 18.724 13.481 31.849 25.585 39.256a49.08 49.08 0 0025.052 7.241c8.668.102 17.404-2.122 25.269-6.712 12.444-7.262 22.684-20.515 27.08-39.957L221.801 0h41.116c-.902 14.515-1.826 29.029-2.707 43.546-1.126 18.453-1.211 19.849 2.899 37.934 7.993 35.167 1.565 54.642-4.904 74.239-3.971 12.029-7.961 24.113-7.961 40.197v14.398c22.225 41.858 39.745 84.827 53.747 128.622 14.16 44.289 24.711 89.392 32.887 135.027l1.122 6.261-6.017 1.983c-26.621 8.769-53.846 15.451-80.221 20.239-66.553 12.082-98.972 12.082-165.524 0-26.375-4.788-53.6-11.47-80.221-20.239L0 480.224l1.122-6.261c8.176-45.635 18.727-90.738 32.887-135.027 14.002-43.795 31.522-86.764 53.747-128.622v-14.398c0-16.084-3.99-28.168-7.961-40.197-6.469-19.597-12.897-39.072-4.904-74.239 4.109-18.084 4.025-19.481 2.9-37.925-.885-14.519-1.807-29.037-2.71-43.555h7.781z"/><path fill="#ED1E26" d="M110.366 7.328H82.862l2.156 34.618c1.248 20.509 1.429 21.645-3 41.137-12.631 55.569 13.065 70.045 13.065 112.833v8.761c24.62.581 49.218.86 73.798.854l74.036-.883v-8.732c0-42.788 25.696-57.264 13.065-112.833-4.429-19.492-4.249-20.628-3-41.137l2.154-34.618h-27.502c-16.019 70.853-103.468 68.791-117.268 0zm-19.053 211.91C48.771 301.075 24.097 387.119 8.307 475.251a562.765 562.765 0 0026.819 8.093c7.712-40.823 16.099-81.548 27.322-121.998 11.244-40.528 25.335-80.751 44.441-120.465a4.105 4.105 0 017.406 3.542c-18.863 39.208-32.795 78.99-43.926 119.112-11.145 40.171-19.493 80.725-27.177 121.403-.034.181-.08.356-.135.527 40.419 10.515 80.515 16.381 115.358 18.305V252.241a4.122 4.122 0 018.243 0v251.625c0 .097-.004.194-.01.29 36.835 1.422 93.643-9.604 129.386-18.976a4.014 4.014 0 01-.053-.242c-7.688-40.702-16.481-81.253-28.058-121.371-11.573-40.104-25.954-79.89-44.84-119.144a4.106 4.106 0 017.406-3.542c19.086 39.671 33.623 79.888 45.323 120.433 11.659 40.402 20.483 81.026 28.177 121.722a562.406 562.406 0 0025.704-7.785c-15.788-88.126-40.459-174.162-82.997-255.995-25.139.568-52.754.865-77.815.873l-77.568-.891z"/></svg>