<svg xmlns="http://www.w3.org/2000/svg" shape-rendering="geometricPrecision" text-rendering="geometricPrecision" image-rendering="optimizeQuality" fill-rule="evenodd" clip-rule="evenodd" viewBox="0 0 481 511.739"><path fill-rule="nonzero" d="M238.083.052c72.046-1.179 127.133 17.941 166.404 46.105 51.055 36.611 75.62 88.795 76.499 132.674.967 48.223-47.124 80.467-114.022 97.125-11.294 2.814-23.174 5.2-35.458 7.165 6.66 20.808 11.038 40.786 13.155 61.137 2.198 21.116 1.942 42.359-.726 65.073-5.164 43.933-26.184 73.237-53.014 88.934-14.958 8.747-31.644 13.166-48.378 13.458a103.14 103.14 0 01-48.331-11.102c-28.022-14.187-50.547-41.495-56.903-80.49-3.935-24.139-4.974-46.93-2.859-69.874 2.058-22.332 7.045-44.474 15.198-67.796C68.935 268.72 4.607 235.214.292 180.612c-.137-1.735-.233-4.056-.277-6.968-.61-37.332 17.3-78.383 54.066-111.185C89.41 30.941 142.413 6.771 213.174 1.174c7.493-.592 15.795-.972 24.909-1.122z"/><path fill="#F26650" d="M238.367 18.223c17.574-.287 34.041.711 49.446 2.782-13.308 11.048-11.506 30.351 5.073 44.776 8.16 7.098 20.035 13.468 33.687 17.416 12.467 3.597 26.654 5.342 39.292 2.638 12.379-2.653 21.313-9.311 24.275-19.547l.36-1.368c.445-1.955.638-3.917.6-5.874 25.041 17.307 43.271 38.542 55.092 60.517a47.909 47.909 0 00-4.382-2.65c-9.9-5.254-19.842-5.753-27.89-.373l-1.024.704c-8.052 6.094-10.896 16.674-8.988 28.841 1.425 9.083 5.603 19.619 12.191 29.457a88.97 88.97 0 002.94 4.165c6.446 8.517 13.915 15.066 21.007 18.831 5.851 3.108 11.721 4.553 17.207 4.1-7.232 14.05-21.191 26.008-39.905 35.805 7.358-17.727.527-37.609-18.978-47.548-22.034-11.229-52.499-5.686-69.512 12.116-18.786 19.658-14.766 47.708 9.101 60.532-50.503 9.194-109.388 10.66-162.748 4.197 21.444-13.44 24.456-40.068 6.391-58.961-17.013-17.801-47.478-23.342-69.512-12.116-21.861 11.136-27.8 34.745-15.697 53.836-27.799-9.595-50.317-22.46-63.893-38.667 4.385-.54 8.933-2.065 13.486-4.483 8.204-4.357 16.881-11.973 24.397-21.904a105.959 105.959 0 003.452-4.884c7.71-11.511 12.591-23.811 14.251-34.37 2.141-13.646-.949-25.434-9.776-32.094l-1.094-.773c-8.772-5.875-19.74-5.246-30.752.6-7.263 3.855-13.887 9.587-19.559 16.001 12.718-30.692 39.382-60.599 80.213-81.738-2.898 5.763-3.868 11.818-2.498 17.801l.344 1.37c2.963 10.239 11.894 16.899 24.278 19.547 9.236 1.975 20.974 1.722 33.323-1.089 1.9-.431 3.896-.948 5.97-1.548 13.649-3.948 25.529-10.319 33.684-17.417 10.57-9.196 15.87-20.355 13.367-31.277l-.344-1.37c-1.691-5.838-5.318-10.51-10.422-13.941 10.717-1.148 21.894-1.849 33.547-2.04zm9.823 72.131c16.723 0 32.073 4.863 43.364 12.726 12.659 8.817 20.491 21.408 20.491 35.688 0 14.277-7.832 26.874-20.491 35.691-11.291 7.86-26.639 12.726-43.364 12.726-16.723 0-32.076-4.866-43.362-12.726-12.659-8.817-20.491-21.414-20.491-35.691 0-14.28 7.832-26.871 20.491-35.688 11.288-7.86 26.636-12.726 43.362-12.726z"/><path fill="#FFF4E6" d="M167.552 286.448c32.575 2.86 107.892 2.707 145.894 0 13.406 40.973 17.439 77.856 12.39 120.817-13.76 117.083-154.307 109.725-170.57 9.944-7.392-45.361-3.951-85.219 12.286-130.761zm286.973-139.016c-10.975-16.39-25.961-25.067-33.472-19.381-7.508 5.686-4.698 23.578 6.278 39.967 10.975 16.39 25.958 25.067 33.469 19.381 7.509-5.685 4.701-23.58-6.275-39.967zM373.236 255.58c20.899-3.682 35.782-19.25 33.243-34.776-2.542-15.523-21.543-25.126-42.442-21.447-20.899 3.682-35.781 19.249-33.24 34.773 2.539 15.526 21.54 25.129 42.439 21.45zM248.19 103.669c27.838 0 50.405 15.715 50.405 35.099 0 19.386-22.567 35.101-50.405 35.101-27.836 0-50.403-15.715-50.403-35.101 0-19.384 22.567-35.099 50.403-35.099zm82.145-33.451c23.365 6.761 44.396 3.064 46.974-8.264 2.577-11.324-14.273-25.987-37.638-32.748-23.366-6.764-44.399-3.064-46.976 8.263-2.578 11.325 14.271 25.988 37.64 32.749zM155.436 30.274c23.366-6.761 44.396-3.061 46.974 8.263 2.578 11.328-14.272 25.99-37.637 32.751-23.366 6.761-44.399 3.062-46.977-8.263-2.578-11.325 14.272-25.987 37.64-32.751zM62.603 173.037c-13.222 19.74-31.272 30.193-40.319 23.344-9.046-6.846-5.662-28.402 7.56-48.145 13.22-19.74 31.273-30.193 40.319-23.345 9.047 6.847 5.66 28.402-7.56 48.146zm83.82 32.089c20.899 3.681 35.782 19.249 33.242 34.775-2.541 15.524-21.542 25.126-42.441 21.447-20.899-3.682-35.781-19.249-33.239-34.773 2.538-15.526 21.539-25.128 42.438-21.449z"/></svg>