<svg xmlns="http://www.w3.org/2000/svg" shape-rendering="geometricPrecision" text-rendering="geometricPrecision" image-rendering="optimizeQuality" fill-rule="evenodd" clip-rule="evenodd" viewBox="0 0 350 512.076"><path fill="#353535" d="M15.48 206.496c-.032-7.339.056-14.788.716-20.521 4.563-39.792 38.767-73.788 61.577-105.845H54.446C23.757 121.958-3.211 153.291.311 209.072v255.116c0 19.272 4.396 31.062 13.134 38.051 8.936 7.155 22.436 9.294 40.413 9.294h241.87c16.688 1.765 29.806-.779 38.949-7.577 10.892-8.102 16.18-22.254 15.21-42.368 0-87.36-.04-174.768-.04-262.129.636-49.992-27.024-81.715-54.676-119.329h-23.335c22.818 31.731 57.761 66.61 61.998 106.14.175 1.725.326 11.902.422 21.379.779 76.849-1.058 154.224-1.757 231.145-.247 27.023 5.533 54.588-29.362 55.908l-261.841-.501c-15.568 0-24.83-6.837-27.064-22.389-1.185-8.173-.501-27.357-.429-35.912.675-76.452 2.067-152.952 1.677-229.404z"/><path fill="#E24230" d="M40.445 80.144c-7.768 0-14.828-3.18-19.964-8.316-5.136-5.136-8.308-12.188-8.308-19.964V28.275c0-12.88 8.714-23.82 20.544-27.191C36.835-.101 39.872.003 43.88.003h268.758c15.536 0 28.272 12.736 28.272 28.272v23.589c0 7.776-3.18 14.828-8.316 19.964-5.136 5.136-12.196 8.316-19.956 8.316H40.445z"/><path fill="#A53023" fill-rule="nonzero" d="M114.18 37.776c0-3.513 4.025-6.365 8.983-6.365 4.959 0 8.984 2.852 8.984 6.365v42.368H114.18V37.776zm71.342 42.368V37.776c0-3.513-4.026-6.365-8.984-6.365-4.953 0-8.979 2.852-8.979 6.365v42.368h17.963zm53.379 0V37.776c0-3.513-4.025-6.365-8.983-6.365s-8.983 2.852-8.983 6.365v42.368h17.966zm53.376 0V37.776c0-3.513-4.026-6.365-8.979-6.365-4.963 0-8.984 2.852-8.984 6.365v42.368h17.963zM60.805 37.776c0-3.513 4.025-6.365 8.979-6.365 4.958 0 8.983 2.852 8.983 6.365v42.368H60.805V37.776z"/><path fill="#F0EEED" d="M15.467 206.496c-.038-7.351.056-14.788.716-20.521 4.558-39.749 38.773-73.715 61.581-105.742h194.212c22.816 31.703 57.561 66.55 61.795 106.037.175 1.725.324 11.891.421 21.379.788 76.85-1.049 154.218-1.757 231.145-.248 27.028 5.534 54.587-29.361 55.907l-261.791-.5c-15.567 0-24.829-6.838-27.064-22.388-1.184-8.173-.505-27.349-.429-35.913.682-76.452 2.08-152.945 1.677-229.404z"/><path fill="#F8D11D" d="M334.389 227.717c.333 70.239-1.258 140.841-1.906 211.077-.249 27.029 5.534 54.587-29.361 55.907l-261.888-.5c-15.568 0-24.83-6.838-27.064-22.388-1.185-8.173-.506-27.345-.429-35.913.606-67.774 1.783-135.579 1.752-203.366 86.676 31.557 242.952-80.187 318.896-4.817z"/><path fill-rule="nonzero" stroke="#F8D11D" stroke-width=".288" stroke-miterlimit="22.926" d="M265.729 291.848c2.023-5.657 4.255-10.85 6.76-15.401 2.605-4.734 5.528-8.78 8.845-11.95 4.106-3.913 8.694-6.475 13.866-7.385 5.129-.902 10.647-.147 16.623 2.558.202.091.396.193.582.304a8.717 8.717 0 013.968 4.587 8.628 8.628 0 01-.224 6.605l.011.004a8.679 8.679 0 01-4.862 4.551 8.657 8.657 0 01-6.638-.208c-2.483-1.126-4.6-1.476-6.401-1.167-1.738.299-3.38 1.257-4.944 2.75-1.941 1.854-3.786 4.464-5.55 7.672-1.884 3.427-3.641 7.487-5.3 12.013l-.089.226c8.226 3.814 12.26 11.303 15.858 17.986l.048.087c2.13 3.945 4.088 7.572 6.566 9.475l.109.079c.382.281.76.515 1.13.698.298.148.583.268.85.355a5.65 5.65 0 012.881 9.357c-1.809 1.945-3.7 3.452-5.669 4.493-.885.467-1.782.839-2.691 1.114.04.236.066.476.077.721.836 17.873-3.558 35.852-11.533 52.697-8.637 18.245-21.494 35.196-36.428 49.231-7.228 6.798-14.996 12.94-23.05 18.235-14.835 9.754-32.05 17.588-49.778 19.867-15.245 1.963-30.313-.346-43.064-9.335-4.889-3.448-9.356-7.837-13.286-13.249-1.555-2.144-3.311-4.187-2.667-7.061a5.646 5.646 0 016.746-4.267c29.536 6.633 49.508.248 63.3-12.347 14.111-12.889 22.198-32.443 27.475-51.436 3.024-10.944 5.124-21.805 6.904-31.051l.081-.439c1.145-5.911 2.157-11.147 3.211-15.428.93-3.781 1.94-6.854 3.155-9.03a5.637 5.637 0 01-.033-10.715 16.958 16.958 0 004.442-2.264c1.374-.971 2.645-2.172 3.813-3.581 2.139-2.585 3.593-4.65 4.862-6.466.105-.181.219-.357.346-.528 5.003-7.193 7.923-11.293 19.373-10.644a5.717 5.717 0 01.325-1.713z"/><path fill="#BAD531" fill-rule="nonzero" d="M271.058 293.75c3.872-10.822 8.431-19.68 14.168-25.162 6.606-6.297 14.498-8.191 24.274-3.764a3.043 3.043 0 011.507 4.024 3.044 3.044 0 01-4.024 1.512c-7.122-3.23-12.824-1.88-17.56 2.645-4.785 4.569-8.761 12.269-12.265 21.83-1.443-.035-4.525-.751-6.1-1.085zm-32.602 35.34c-.413.771-.918 1.291-1.33 2.18-1.836 3.882-3.402 11.97-5.34 22.03-1.811 9.399-3.941 20.49-7.097 31.911-11.027 39.694-34.118 82.008-97.453 67.785 8.118 12.442 19.037 19.475 31.415 22.149 13.79 2.974 29.486.56 45.22-5.82 15.93-6.459 31.836-16.976 45.833-30.139 27.631-25.967 47.851-62.142 46.192-97.571-4.908-.598-9.948-3.852-15.121-10.066-2.243 3.912-5.094 6.994-8.608 9.237-4.795 3.052-10.719 4.446-17.879 4.044a3.061 3.061 0 01-2.871-3.21c.044-.937.535-1.757 1.227-2.277l-.005-.02c2.557-1.904 4.24-4.132 4.947-6.738.515-1.953.53-4.181-.03-6.709-6.1 2.375-12.544 3.622-19.1 3.214zm-14.071 85.931a3.047 3.047 0 013.573-2.4c1.644.328 2.724 1.928 2.39 3.573-1.374 6.988-8.22 17.152-16.426 25.829-7.892 8.314-17.202 15.454-24.392 17.28a3.049 3.049 0 01-3.7-2.194c-.417-1.619.574-3.283 2.198-3.705 6.027-1.531 14.282-7.975 21.477-15.572 7.538-7.951 13.732-16.971 14.88-22.811zm33.726-95.962c.118-.074.246-.128.388-.167 1.58-.579 3.337.251 3.916 1.826 1.831 5.065 2.14 9.526 1.085 13.452a17.07 17.07 0 01-1.772 4.196c2.724-.496 5.099-1.408 7.18-2.753 3.696-2.366 6.483-6.066 8.466-11.028a3.018 3.018 0 011.07-1.369 3.068 3.068 0 014.255.731c5.492 7.799 10.336 11.485 14.61 11.636 2.822.094 5.61-1.418 8.373-4.387-1.448-.397-2.783-1.065-4.064-2.007-3.577-2.641-5.86-6.891-8.358-11.519-3.798-7.052-8.151-15.14-18.016-17.049-17.471-3.406-19.729-.147-24.661 6.944-1.453 2.081-3.097 4.452-5.404 7.239-2.959 3.568-6.542 6.159-10.841 7.592 7.931 1.752 16.509-.053 23.773-3.337z"/><path fill-rule="nonzero" d="M64.938 315.714c11.311 1.72 8.737 12.621 15.558 16.043a5.636 5.636 0 01.898 9.522c.247 1.14.43 2.426.567 3.845 1.835 18.904-.097 41.818 12.685 57.43 6.286 7.679 16.404 12.558 32.735 11.31a5.654 5.654 0 014.369 9.683c-3.154 3.505-6.632 6.158-10.344 8.04-13.547 6.873-28.614 3.045-41.28-4.393-9.547-5.606-18.017-13.434-24.887-22.08-7.467-9.389-13.489-20.31-16.964-31.642-3.108-10.137-4.19-20.618-2.484-30.672l-.561-.438c-1.093-.873-2.085-1.963-2.98-3.257a5.644 5.644 0 013.408-8.713c.475-.106.592-.087 1.046-.269 3.772-2.018 5.732-9.724 13.369-13.189-.44-1.846-.929-3.522-1.477-4.986-.646-1.727-1.36-3.141-2.155-4.157-.46-.587-.933-.984-1.416-1.141-.48-.157-1.12-.149-1.94.046l-.367.12c-6.312 1.813-11.632-4.965-8.507-10.665a7.403 7.403 0 014.422-3.53h.021c16.484-4.751 23.471 9.737 26.284 23.093z"/><path fill="#BAD531" fill-rule="nonzero" d="M59.564 317.568c-1.298-6.441-3.148-11.827-5.942-15.401-3.218-4.106-7.526-5.828-13.421-4.129a1.739 1.739 0 00.968 3.339c4.295-1.241 7.41-.007 9.716 2.943 2.33 2.979 3.945 7.662 5.139 13.359.819.1 2.622-.052 3.54-.111zm15.531 22.678c.045.123.099.241.166.364 1.053 1.778 1.299 7.045 1.613 13.881.25 5.465.541 11.915 1.385 18.636 2.968 23.362 12.544 49.202 49.543 46.374-5.617 6.37-12.373 9.448-19.595 9.941-8.047.547-16.726-2.112-25.101-7.018-8.48-4.966-16.611-12.226-23.444-20.825-13.491-16.966-21.949-39.095-18.092-59 2.826.065 5.945-1.36 9.383-4.449.947 2.398 2.306 4.376 4.109 5.935 2.461 2.121 5.697 3.398 9.781 3.76a1.75 1.75 0 001.888-1.579 1.746 1.746 0 00-.506-1.39l.004-.01c-1.29-1.288-2.058-2.687-2.243-4.219-.131-1.148.045-2.41.569-3.793 3.549 2.014 7.067 3.105 10.54 3.392zm.395-3.466c-3.47-.273-7.033-1.49-10.687-3.828a.848.848 0 00-.205-.126 1.751 1.751 0 00-2.366.71c-1.453 2.714-1.996 5.212-1.722 7.52.108.875.326 1.715.656 2.52-1.5-.505-2.768-1.217-3.835-2.149-1.895-1.643-3.167-3.966-3.88-6.936a1.738 1.738 0 00-.492-.863 1.755 1.755 0 00-2.468.063c-3.749 3.959-6.793 5.645-9.223 5.379-1.604-.18-3.057-1.265-4.375-3.172a7.013 7.013 0 002.464-.8c2.241-1.199 3.883-3.416 5.677-5.828 2.73-3.676 5.859-7.893 11.596-8.16 10.165-.487 11.173 1.542 13.379 5.96.65 1.297 1.385 2.773 2.46 4.54 1.38 2.263 3.193 4.024 5.507 5.188-.816.06-1.655.057-2.486-.018z"/><path fill="#FBB315" d="M106.447 231.504c7.209-1.49 14.532-3.195 21.926-5.013a14.027 14.027 0 014.964 10.717c0 7.759-6.289 14.049-14.049 14.049-7.758 0-14.047-6.29-14.047-14.049 0-2.032.428-3.964 1.206-5.704zm96.765 15.923c10.382 0 18.803 8.421 18.803 18.812 0 10.382-8.421 18.803-18.803 18.803-10.39 0-18.812-8.421-18.812-18.803 0-10.391 8.422-18.812 18.812-18.812zm-33.266 90.155c9.292 0 16.829 7.538 16.829 16.828 0 9.292-7.537 16.83-16.829 16.83-9.299 0-16.835-7.538-16.835-16.83 0-9.29 7.536-16.828 16.835-16.828zm-44.696-34.149c6.425 0 11.637 5.205 11.637 11.629 0 6.426-5.212 11.638-11.637 11.638-6.425 0-11.629-5.212-11.629-11.638 0-6.424 5.204-11.629 11.629-11.629z"/></svg>