<svg xmlns="http://www.w3.org/2000/svg" shape-rendering="geometricPrecision" text-rendering="geometricPrecision" image-rendering="optimizeQuality" fill-rule="evenodd" clip-rule="evenodd" viewBox="0 0 512 272.217"><path fill="#223358" fill-rule="nonzero" d="M65.635 92.685h56.247c33.348-17.31 71.012-31.653 109.488-39.945V38.31a9.011 9.011 0 012.655-6.375l.022-.022a9.011 9.011 0 016.375-2.655h21.828V22.37H70.814a6.78 6.78 0 010-13.56h192.499a14.278 14.278 0 013.101-4.646A14.153 14.153 0 01276.439 0c3.889 0 7.438 1.599 10.015 4.173l.009-.009a14.262 14.262 0 013.101 4.646h192.5a6.78 6.78 0 010 13.56H290.627v6.888h21.829a9.033 9.033 0 016.396 2.655 9.033 9.033 0 012.655 6.397v7.564c1.99.163 3.976.347 5.955.557 56.478 6.008 108.067 31.493 143.06 86.772 5.358 8.463 13.248 28.215 17.04 46.391 2.987 14.33 3.498 28.341-1.302 37.194-2.979 5.498-7.617 9.699-13.88 12.501-5.372 2.404-11.942 3.688-19.677 3.773h-.076v.038h-24.555l10.323 25.363c12.836.523 24.467.275 34.629-2.093 10.522-2.453 19.593-7.275 27.018-16.116a6.768 6.768 0 0110.38 8.685c-9.541 11.363-21.052 17.525-34.325 20.619-12.494 2.913-26.407 3.017-41.691 2.26l-234.544.002v-.014c-12.404.537-22.386-.881-31.836-4.528-9.405-3.632-17.986-9.363-27.707-17.492a6.767 6.767 0 018.685-10.38c8.645 7.229 16.086 12.252 23.894 15.267 6.578 2.539 13.638 3.732 22.188 3.722l11.055-30.637-85.397-71.892H61.573l-16.368 50.148c-1.096 4.291-4.989 7.465-9.623 7.465H9.907v-.026a9.902 9.902 0 01-1.591-.129c-5.399-.878-9.064-5.968-8.186-11.367l9.588-58.953a37.573 37.573 0 01-7.722-22.873c0-8.395 2.744-16.15 7.379-22.419L.13 40.865c-.878-5.399 2.787-10.489 8.186-11.367a9.902 9.902 0 011.591-.129v-.026h25.675c4.634 0 8.527 3.175 9.623 7.466l17.398 53.302a37.945 37.945 0 013.032 2.574zM413.449 233.1H218.568l-9.079 25.161h214.202L413.449 233.1z"/><path fill="#E5E5E5" d="M276.439 4.678c5.231 0 9.51 4.28 9.51 9.511v15.069h-19.021V14.189c0-5.231 4.28-9.511 9.511-9.511z"/><path fill="#E8484C" d="M315.832 45.477V38.31a3.388 3.388 0 00-3.376-3.377h-72.034a3.389 3.389 0 00-3.377 3.377v13.255c26.336-5.254 52.97-7.611 78.787-6.088z"/><path fill="#fff" d="M73.044 102.38h51.167c57.775-30.385 129.046-51.761 194.301-47.026a9.908 9.908 0 00-.174 1.86v110.593c0 5.485 4.447 9.932 9.931 9.932h146.17v-.016a9.79 9.79 0 002.708-.379c3.32 13.835 4.568 27.491.592 34.824-3.896 7.186-12.308 11.096-25.112 11.237H215.953l-91.742-77.233H67.045c6.46-6.772 10.428-15.944 10.428-26.041 0-6.416-1.602-12.46-4.429-17.751z"/><path fill="#ACE1ED" d="M328.269 57.214c65.438 8.579 121.697 47.984 146.17 110.593h-146.17V57.214z"/><path fill="#7DC6D8" d="M456.403 133.526c7.029 10.188 13.073 21.59 18.034 34.28H328.269v-34.28h128.134z"/><path fill="#E5E5E5" d="M480.284 201.176c1.567 20.061-19.635 23.118-38.696 22.309H215.953l-91.742-77.233H66.967a37.653 37.653 0 009.525-17.539l48.74-.458 95.505 72.921h259.547z"/><path fill="#E8484C" d="M18.035 89.253L9.907 39.275h25.675L50.13 83.843a37.777 37.777 0 00-10.396-1.451 37.57 37.57 0 00-21.699 6.861zM18.409 151.269l-8.502 52.278h25.675l15.476-47.407a37.727 37.727 0 01-11.324 1.729 37.566 37.566 0 01-21.325-6.6z"/><path fill="#fff" d="M39.734 92.324c15.357 0 27.807 12.449 27.807 27.807 0 15.357-12.45 27.806-27.807 27.806s-27.807-12.449-27.807-27.806c0-15.358 12.45-27.807 27.807-27.807zm0 18.323c5.237 0 9.484 4.246 9.484 9.484 0 5.237-4.247 9.483-9.484 9.483a9.483 9.483 0 01-9.483-9.483c0-5.238 4.246-9.484 9.483-9.484z"/></svg>