<?xml version="1.0" encoding="iso-8859-1"?>
<!-- Uploaded to: SVG Repo, www.svgrepo.com, Generator: SVG Repo Mixer Tools -->
<svg height="800px" width="800px" version="1.1" id="Layer_1" xmlns="http://www.w3.org/2000/svg" xmlns:xlink="http://www.w3.org/1999/xlink" 
	 viewBox="0 0 496 496" xml:space="preserve">
<path style="fill:#F7DD6D;" d="M19.2,262.638c0,2.4-1.6,4-4,4l0,0c-2.4,0-4-1.6-4-4v-13.6c0-2.4,1.6-4,4-4l0,0c2.4,0,4,1.6,4,4
	V262.638z"/>
<path style="fill:#E2C447;" d="M15.2,245.038L15.2,245.038c2.4,0,4,1.6,4,4v13.6c0,2.4-1.6,4-4,4l0,0"/>
<g>
	<path style="fill:#FFFFFF;" d="M143.2,199.438c-2.4,0-4.8-0.8-7.2-0.8c-28,0-96,17.6-96,36.8s61.6,3.2,84.8,3.2
		c2.4,0,16,28,18.4,28V199.438z"/>
	<path style="fill:#FFFFFF;" d="M79.2,219.438c0,13.6-24,24-29.6,24s-9.6-11.2-9.6-24c0-13.6-0.8-37.6,4.8-37.6
		C49.6,181.838,79.2,206.638,79.2,219.438z"/>
	<path style="fill:#FFFFFF;" d="M493.6,269.838c5.6-54.4-160.8-61.6-291.2-61.6c-129.6,0-188,17.6-194.4,61.6H493.6z"/>
</g>
<path style="fill:#EBF4F7;" d="M493.6,269.838c-7.2-44-160.8-61.6-291.2-61.6c-129.6,0-188,17.6-194.4,61.6H493.6z"/>
<g>
	<path style="fill:#D1E3E8;" d="M494.4,279.438c0,4-3.2,8-8,8H12c-4,0-8-3.2-8-8v-4.8c0-4,3.2-8,8-8h475.2c4,0,8,1.6,8,5.6v7.2
		H494.4z"/>
	<path style="fill:#D1E3E8;" d="M494.4,285.838c0,4-3.2,6.4-6.4,6.4H10.4c-4,0-6.4-3.2-6.4-6.4l0,0c0-4,3.2-6.4,6.4-6.4h476.8
		C491.2,278.638,494.4,281.838,494.4,285.838L494.4,285.838z"/>
</g>
<path style="fill:#8E8E8E;" d="M496,292.238c0,2.4-2.4,4.8-4.8,4.8H4.8c-2.4-0.8-4.8-2.4-4.8-4.8l0,0c0-2.4,2.4-4.8,4.8-4.8H492
	C493.6,287.438,496,289.838,496,292.238L496,292.238z"/>
<path d="M56,284.238c0-20,16.8-36.8,36.8-36.8s36.8,16.8,36.8,36.8"/>
<path style="fill:#8E8E8E;" d="M130.4,284.238H128c0-19.2-16-35.2-35.2-35.2s-35.2,16-35.2,35.2h-3.2c0-20.8,16.8-38.4,38.4-38.4
	C113.6,245.838,130.4,263.438,130.4,284.238z"/>
<path style="fill:#203547;" d="M125.6,285.838c0,18.4-15.2,32.8-32.8,32.8c-18.4,0-32.8-15.2-32.8-32.8c0-18.4,15.2-32.8,32.8-32.8
	C110.4,252.238,125.6,267.438,125.6,285.838z"/>
<path style="fill:#122130;" d="M116,261.838c12.8,12.8,12.8,33.6,0,47.2c-12.8,12.8-33.6,12.8-47.2,0"/>
<circle style="fill:#CE3F00;" cx="92.8" cy="285.838" r="20.8"/>
<path style="fill:#B73B04;" d="M107.2,270.638c8,8,8,21.6,0,29.6s-21.6,8-29.6,0"/>
<circle style="fill:#CED8DD;" cx="92.8" cy="285.838" r="18.4"/>
<path style="fill:#B2BBC1;" d="M105.6,273.038c7.2,7.2,7.2,18.4,0,25.6s-18.4,7.2-25.6,0"/>
<path style="opacity:0.2;fill:#888F91;enable-background:new    ;" d="M100.8,285.838c0,4.8-4,9.6-8.8,9.6s-8.8-4.8-8.8-9.6
	c0-4.8,4-8.8,8.8-8.8C96.8,277.038,100.8,281.038,100.8,285.838z"/>
<path style="fill:#E7EFF2;" d="M100.8,285.838c0,4.8-4,8.8-8.8,8.8s-8.8-4-8.8-8.8s4-8.8,8.8-8.8
	C96.8,277.038,100.8,281.038,100.8,285.838z"/>
<path style="fill:#DAE6EA;" d="M92.8,277.038c4.8,0,8.8,4,8.8,8.8s-4,8.8-8.8,8.8"/>
<path style="fill:#666E70;" d="M92.8,267.438c-0.8,0-1.6,0-2.4,0c0,2.4,1.6,4.8,2.4,4.8s2.4-1.6,2.4-4.8
	C94.4,267.438,93.6,267.438,92.8,267.438z"/>
<path style="fill:#535A5B;" d="M92.8,272.238c0.8,0,2.4-1.6,2.4-4.8c-0.8,0-1.6,0-2.4,0"/>
<path style="fill:#666E70;" d="M90.4,303.438c1.6,0,3.2,0,4.8,0c0-2.4-1.6-4.8-2.4-4.8C91.2,299.438,90.4,301.038,90.4,303.438z"/>
<path style="fill:#535A5B;" d="M95.2,303.438c0-2.4-1.6-4.8-2.4-4.8"/>
<path style="fill:#666E70;" d="M77.6,274.638c2.4,1.6,4,2.4,4.8,1.6s0-3.2-1.6-4.8C80,272.238,79.2,273.038,77.6,274.638z"/>
<path style="fill:#535A5B;" d="M83.2,276.238c0.8-0.8,0-3.2-1.6-4.8"/>
<path style="fill:#666E70;" d="M107.2,296.238c-2.4-1.6-4-2.4-4.8-1.6s0,2.4,1.6,4.8c0.8-0.8,1.6-0.8,1.6-1.6
	C105.6,297.838,106.4,297.038,107.2,296.238z"/>
<path style="fill:#535A5B;" d="M105.6,298.638c0.8-0.8,0.8-1.6,1.6-1.6c-2.4-1.6-4-2.4-4.8-1.6"/>
<path style="fill:#666E70;" d="M74.4,288.238c2.4,0,4.8-1.6,4.8-2.4s-1.6-2.4-4.8-2.4c0,0.8,0,1.6,0,2.4S74.4,287.438,74.4,288.238z
	"/>
<path style="fill:#535A5B;" d="M79.2,285.838c0-0.8-1.6-2.4-4.8-2.4c0,0.8,0,1.6,0,2.4"/>
<path style="fill:#666E70;" d="M105.6,285.838c0,0.8,1.6,2.4,4.8,2.4c0-1.6,0-3.2,0-4.8C108,283.438,105.6,284.238,105.6,285.838z"
	/>
<path style="fill:#535A5B;" d="M110.4,283.438c-2.4,0-4.8,1.6-4.8,2.4"/>
<path style="fill:#666E70;" d="M77.6,297.038c0.8,1.6,2.4,2.4,3.2,3.2c1.6-2.4,2.4-4,1.6-4.8C82.4,294.638,80,295.438,77.6,297.038z
	"/>
<path style="fill:#535A5B;" d="M81.6,300.238c1.6-2.4,2.4-4,1.6-4.8"/>
<path style="fill:#666E70;" d="M103.2,271.438c-1.6,2.4-2.4,4-1.6,4.8s3.2,0,4.8-1.6C105.6,273.038,104.8,272.238,103.2,271.438z"/>
<path style="fill:#535A5B;" d="M103.2,271.438c-1.6,2.4-2.4,4-1.6,4.8"/>
<path d="M362.4,284.238c0-20,16.8-36.8,36.8-36.8s36.8,16.8,36.8,36.8"/>
<path style="fill:#8E8E8E;" d="M437.6,284.238h-3.2c0-19.2-16-35.2-35.2-35.2s-35.2,16-35.2,35.2h-3.2c0-20.8,16.8-38.4,38.4-38.4
	C420,245.838,437.6,263.438,437.6,284.238z"/>
<path style="fill:#203547;" d="M432,285.838c0,18.4-15.2,32.8-32.8,32.8c-18.4,0-32.8-15.2-32.8-32.8c0-18.4,15.2-32.8,32.8-32.8
	C417.6,252.238,432,267.438,432,285.838z"/>
<path style="fill:#122130;" d="M422.4,261.838c12.8,12.8,12.8,33.6,0,47.2c-12.8,12.8-33.6,12.8-47.2,0"/>
<circle style="fill:#CE3F00;" cx="399.2" cy="285.838" r="20.8"/>
<path style="fill:#B73B04;" d="M413.6,270.638c8,8,8,21.6,0,29.6s-21.6,8-29.6,0"/>
<circle style="fill:#CED8DD;" cx="399.2" cy="285.838" r="18.4"/>
<path style="fill:#B2BBC1;" d="M412,273.038c7.2,7.2,7.2,18.4,0,25.6s-18.4,7.2-25.6,0"/>
<path style="opacity:0.2;fill:#888F91;enable-background:new    ;" d="M408,285.838c0,4.8-4,9.6-8.8,9.6s-8.8-4.8-8.8-9.6
	c0-4.8,4-8.8,8.8-8.8C404,277.038,408,281.038,408,285.838z"/>
<path style="fill:#E7EFF2;" d="M408,285.838c0,4.8-4,8.8-8.8,8.8s-8.8-4-8.8-8.8s4-8.8,8.8-8.8C404,277.038,408,281.038,408,285.838
	z"/>
<path style="fill:#DAE6EA;" d="M399.2,277.038c4.8,0,8.8,4,8.8,8.8s-4,8.8-8.8,8.8"/>
<path style="fill:#666E70;" d="M399.2,267.438c-0.8,0-1.6,0-2.4,0c0,2.4,1.6,4.8,2.4,4.8s2.4-1.6,2.4-4.8
	C400.8,267.438,400,267.438,399.2,267.438z"/>
<path style="fill:#535A5B;" d="M399.2,272.238c0.8,0,2.4-1.6,2.4-4.8c-0.8,0-1.6,0-2.4,0"/>
<path style="fill:#666E70;" d="M396.8,303.438c1.6,0,3.2,0,4.8,0c0-2.4-1.6-4.8-2.4-4.8C398.4,299.438,396.8,301.038,396.8,303.438z
	"/>
<path style="fill:#535A5B;" d="M401.6,303.438c0-2.4-1.6-4.8-2.4-4.8"/>
<path style="fill:#666E70;" d="M384.8,274.638c2.4,1.6,4,2.4,4.8,1.6s0-3.2-1.6-4.8C387.2,272.238,385.6,273.038,384.8,274.638z"/>
<path style="fill:#535A5B;" d="M389.6,276.238c0.8-0.8,0-3.2-1.6-4.8"/>
<path style="fill:#666E70;" d="M413.6,296.238c-2.4-1.6-4-2.4-4.8-1.6s0,2.4,1.6,4.8c0.8-0.8,1.6-0.8,1.6-1.6
	C412.8,297.838,412.8,297.038,413.6,296.238z"/>
<path style="fill:#535A5B;" d="M412,298.638c0.8-0.8,0.8-1.6,1.6-1.6c-2.4-1.6-4-2.4-4.8-1.6"/>
<path style="fill:#666E70;" d="M380.8,288.238c2.4,0,4.8-1.6,4.8-2.4s-1.6-2.4-4.8-2.4c0,0.8,0,1.6,0,2.4
	S380.8,287.438,380.8,288.238z"/>
<path style="fill:#535A5B;" d="M385.6,285.838c0-0.8-1.6-2.4-4.8-2.4c0,0.8,0,1.6,0,2.4"/>
<path style="fill:#666E70;" d="M412.8,285.838c0,0.8,1.6,2.4,4.8,2.4c0-1.6,0-3.2,0-4.8C414.4,283.438,412.8,284.238,412.8,285.838z
	"/>
<path style="fill:#535A5B;" d="M416.8,283.438c-2.4,0-4.8,1.6-4.8,2.4"/>
<path style="fill:#666E70;" d="M384.8,297.038c0.8,1.6,2.4,2.4,3.2,3.2c1.6-2.4,2.4-4,1.6-4.8
	C388.8,294.638,386.4,295.438,384.8,297.038z"/>
<path style="fill:#535A5B;" d="M388,300.238c1.6-2.4,2.4-4,1.6-4.8"/>
<path style="fill:#666E70;" d="M410.4,271.438c-1.6,2.4-2.4,4-1.6,4.8s3.2,0,4.8-1.6C412.8,273.038,411.2,272.238,410.4,271.438z"/>
<path style="fill:#535A5B;" d="M410.4,271.438c-1.6,2.4-2.4,4-1.6,4.8"/>
<path style="fill:#B73B04;" d="M151.2,223.438h171.2c4,0,8-3.2,8-8v-4.8c-41.6-4-85.6-2.4-128-2.4c-28.8,0-36.8,0.8-58.4,2.4v4.8
	C144,219.438,147.2,223.438,151.2,223.438z"/>
<polygon style="fill:#FFFFFF;" points="55.2,245.038 15.2,245.038 15.2,258.638 "/>
<path style="fill:#2F5877;" d="M232,223.438c0,0,45.6-15.2,49.6-29.6c4-14.4,2.4-22.4,17.6-11.2s39.2,29.6,39.2,29.6
	s6.4,11.2-19.2,11.2S232,223.438,232,223.438z"/>
<path style="fill:#203547;" d="M232,223.438c0,0,47.2-10.4,51.2-24.8c4-14.4,3.2-20.8,15.2-6.4c16,20,39.2,20.8,39.2,20.8
	s6.4,11.2-19.2,11.2S232,223.438,232,223.438z"/>
<path style="fill:#ADC3C9;" d="M492,269.038c-0.8,4-5.6,6.4-9.6,4.8s-24-10.4-22.4-14.4s23.2-0.8,27.2,0
	C490.4,260.238,492.8,265.038,492,269.038z"/>
<circle style="fill:#B73B04;" cx="192" cy="257.038" r="22.4"/>
<path style="fill:#A52F00;" d="M208,241.038c8.8,8.8,8.8,23.2,0,32s-23.2,8.8-32,0"/>
<path style="fill:#FFFFFF;" d="M450.4,236.238c0,0-24-13.6-92,4c0,0,49.6-15.2,68.8-14.4C446.4,227.438,450.4,236.238,450.4,236.238
	z"/>
<path style="fill:#F7DD6D;" d="M196.8,253.038c-1.6-0.8-4-1.6-5.6-1.6l0,0v-3.2h8c0.8,0,1.6-0.8,1.6-1.6v-2.4c0-0.8-0.8-1.6-1.6-1.6
	H188c-0.8,0-1.6,0.8-1.6,1.6l-2.4,12c0,0.8,0,0.8,0.8,1.6c0,0,0.8,0.8,1.6,0.8s1.6,0,3.2,0c3.2,0,5.6,1.6,5.6,4s-2.4,4-4,4
	s-4-0.8-4-0.8s-0.8,0-1.6,0c-1.6-2.4-1.6-1.6-1.6-1.6l-0.8,2.4c0,0.8,0,1.6,0.8,1.6c1.6,0.8,4,1.6,6.4,1.6c5.6,0,10.4-4,10.4-9.6
	C200.8,257.838,199.2,254.638,196.8,253.038z"/>
<path style="fill:#F4C36E;" d="M200.8,261.038c0-3.2-1.6-5.6-4-7.2H196l-4.8,4.8c2.4,0.8,3.2,1.6,3.2,3.2c0,2.4-2.4,4-4,4
	s-4-0.8-4-0.8h-0.8l-1.6,1.6l-0.8,1.6c0,0.8,0,1.6,0.8,1.6c1.6,0.8,4,1.6,6.4,1.6C196,270.638,200.8,266.638,200.8,261.038z"/>
</svg>