<?xml version="1.0" encoding="iso-8859-1"?>
<!-- Uploaded to: SVG Repo, www.svgrepo.com, Generator: SVG Repo Mixer Tools -->
<svg height="800px" width="800px" version="1.1" id="Layer_1" xmlns="http://www.w3.org/2000/svg" xmlns:xlink="http://www.w3.org/1999/xlink" 
	 viewBox="0 0 504 504" xml:space="preserve">
<g>
	<path style="fill:#8E0C19;" d="M480,253.2c0,8.8-7.2,16-16,16h-44c-8.8,0-16-7.2-16-16v-10.4c0-8.8,7.2-16,16-16h44
		c8.8,0,16,7.2,16,16V253.2z"/>
	<path style="fill:#8E0C19;" d="M500,326c0,6.4-5.6,12-12,12H18.4c-6.4,0-12-5.6-12-12v-80c0-6.4,5.6-12,12-12H480
		c6.4,0,12,5.6,12,12L500,326z"/>
</g>
<path style="fill:#770818;" d="M6.4,326c0,6.4,5.6,12,12,12H488c6.4,0,12-5.6,12-12l-4-35.2H6.4V326z"/>
<path style="fill:#490815;" d="M504,342c0,4.8-4,8-8,8H8c-4.8,0-8-4-8-8v-4.8c0-4.8,4-8,8-8h488c4.8,0,8,4,8,8V342z"/>
<path d="M50.4,335.6c0-28,22.4-50.4,50.4-50.4s50.4,22.4,50.4,50.4"/>
<path style="fill:#490815;" d="M153.6,335.6h-4c0-26.4-21.6-48.8-48.8-48.8c-26.4,0-48.8,21.6-48.8,48.8h-4
	c0-28.8,23.2-52.8,52.8-52.8S153.6,306.8,153.6,335.6z"/>
<circle style="fill:#203547;" cx="100.8" cy="338" r="45.6"/>
<path style="fill:#122130;" d="M132.8,305.2c17.6,17.6,17.6,46.4,0,64.8c-17.6,17.6-46.4,17.6-64.8,0"/>
<circle style="fill:#6E7577;" cx="100.8" cy="338" r="28.8"/>
<path style="fill:#4C5456;" d="M120.8,317.2c11.2,11.2,11.2,29.6,0,40.8c-11.2,11.2-29.6,11.2-40.8,0"/>
<circle style="fill:#CED8DD;" cx="100.8" cy="338" r="24.8"/>
<path style="fill:#B2BBC1;" d="M118.4,319.6c9.6,9.6,9.6,25.6,0,35.2s-25.6,9.6-35.2,0"/>
<path style="opacity:0.2;fill:#888F91;enable-background:new    ;" d="M112.8,338c0,6.4-5.6,13.6-12,13.6s-12-7.2-12-13.6
	s5.6-12,12-12C107.2,326,112.8,331.6,112.8,338z"/>
<circle style="fill:#E7EFF2;" cx="100.8" cy="338" r="12"/>
<path style="fill:#DAE6EA;" d="M100.8,326c6.4,0,12,5.6,12,12s-5.6,12-12,12"/>
<path style="fill:#666E70;" d="M100.8,312.4c-0.8,0-2.4,0-3.2,0c0.8,4,1.6,6.4,3.2,6.4s3.2-2.4,3.2-6.4
	C103.2,312.4,102.4,312.4,100.8,312.4z"/>
<path style="fill:#535A5B;" d="M100.8,318.8c1.6,0,3.2-2.4,3.2-6.4c-0.8,0-2.4,0-3.2,0"/>
<path style="fill:#666E70;" d="M97.6,362.8c2.4,0,4.8,0,6.4,0c-0.8-3.2-1.6-6.4-3.2-6.4C99.2,356.4,97.6,358.8,97.6,362.8z"/>
<path style="fill:#535A5B;" d="M104,362.8c-0.8-3.2-1.6-6.4-3.2-6.4"/>
<path style="fill:#666E70;" d="M80.8,322.8c3.2,2.4,5.6,3.2,6.4,2.4c0.8-0.8,0-4-1.6-6.4C84,318.8,82.4,320.4,80.8,322.8z"/>
<path style="fill:#535A5B;" d="M88,324.4c0.8-0.8,0-4-1.6-6.4"/>
<path style="fill:#666E70;" d="M120.8,353.2c-3.2-2.4-5.6-3.2-6.4-1.6c-0.8,0.8,0,4,1.6,6.4c0.8-0.8,1.6-1.6,2.4-2.4
	C119.2,354.8,120,354,120.8,353.2z"/>
<path style="fill:#535A5B;" d="M118.4,355.6c0.8-0.8,1.6-1.6,2.4-2.4c-3.2-2.4-5.6-3.2-6.4-1.6"/>
<path style="fill:#666E70;" d="M76,341.2c3.2-0.8,6.4-1.6,6.4-3.2s-2.4-3.2-6.4-3.2c0,0.8,0,2.4,0,3.2S76,339.6,76,341.2z"/>
<path style="fill:#535A5B;" d="M82.4,338c0-1.6-2.4-3.2-6.4-3.2c0,0.8,0,2.4,0,3.2"/>
<path style="fill:#666E70;" d="M119.2,338c0,1.6,2.4,3.2,6.4,3.2c0-2.4,0-4.8,0-6.4C122.4,334.8,119.2,336.4,119.2,338z"/>
<path style="fill:#535A5B;" d="M125.6,334c-3.2,0.8-6.4,1.6-6.4,3.2"/>
<path style="fill:#666E70;" d="M80.8,353.2c1.6,1.6,3.2,3.2,4.8,4.8c2.4-3.2,3.2-5.6,1.6-6.4C86.4,350,84,350.8,80.8,353.2z"/>
<path style="fill:#535A5B;" d="M85.6,358c2.4-3.2,3.2-5.6,1.6-6.4"/>
<path style="fill:#666E70;" d="M116,318c-2.4,3.2-3.2,5.6-2.4,6.4c0.8,0.8,4,0,6.4-1.6C119.2,320.4,117.6,318.8,116,318z"/>
<path style="fill:#535A5B;" d="M116,318c-2.4,3.2-3.2,5.6-2.4,6.4"/>
<path d="M349.6,335.6c0-28,22.4-50.4,50.4-50.4s50.4,22.4,50.4,50.4"/>
<path style="fill:#490815;" d="M452.8,335.6h-4c0-26.4-21.6-48.8-48.8-48.8c-26.4,0-48.8,21.6-48.8,48.8H348
	c0-28.8,23.2-52.8,52.8-52.8S452.8,306.8,452.8,335.6z"/>
<circle style="fill:#203547;" cx="400" cy="338" r="45.6"/>
<path style="fill:#122130;" d="M432.8,305.2c17.6,17.6,17.6,46.4,0,64.8c-17.6,17.6-46.4,17.6-64.8,0"/>
<circle style="fill:#6E7577;" cx="400" cy="338" r="28.8"/>
<path style="fill:#4C5456;" d="M420.8,317.2c11.2,11.2,11.2,29.6,0,40.8c-11.2,11.2-29.6,11.2-40.8,0"/>
<circle style="fill:#CED8DD;" cx="400" cy="338" r="24.8"/>
<path style="fill:#B2BBC1;" d="M418.4,319.6c9.6,9.6,9.6,25.6,0,35.2s-25.6,9.6-35.2,0"/>
<path style="opacity:0.2;fill:#888F91;enable-background:new    ;" d="M412,338c0,6.4-5.6,13.6-12,13.6s-12-7.2-12-13.6
	s5.6-12,12-12S412,331.6,412,338z"/>
<circle style="fill:#E7EFF2;" cx="400" cy="338" r="12"/>
<path style="fill:#DAE6EA;" d="M400,326c6.4,0,12,5.6,12,12s-5.6,12-12,12"/>
<path style="fill:#666E70;" d="M400,312.4c-0.8,0-2.4,0-3.2,0c0.8,4,1.6,6.4,3.2,6.4s3.2-2.4,3.2-6.4
	C402.4,312.4,401.6,312.4,400,312.4z"/>
<path style="fill:#535A5B;" d="M400,318.8c1.6,0,3.2-2.4,3.2-6.4c-0.8,0-2.4,0-3.2,0"/>
<path style="fill:#666E70;" d="M396.8,362.8c2.4,0,4.8,0,6.4,0c-0.8-3.2-1.6-6.4-3.2-6.4C399.2,356.4,397.6,358.8,396.8,362.8z"/>
<path style="fill:#535A5B;" d="M404,362.8c-0.8-3.2-1.6-6.4-3.2-6.4"/>
<path style="fill:#666E70;" d="M380.8,322.8c3.2,2.4,5.6,3.2,6.4,2.4c0.8-0.8,0-4-2.4-6.4C383.2,318.8,381.6,320.4,380.8,322.8z"/>
<path style="fill:#535A5B;" d="M387.2,324.4c0.8-0.8,0-4-2.4-6.4"/>
<path style="fill:#666E70;" d="M420,353.2c-3.2-2.4-5.6-3.2-6.4-1.6c-0.8,0.8,0,4,1.6,6.4c0.8-0.8,1.6-1.6,2.4-2.4
	C419.2,354.8,419.2,354,420,353.2z"/>
<path style="fill:#535A5B;" d="M418.4,355.6c0.8-0.8,1.6-1.6,2.4-2.4c-3.2-2.4-5.6-3.2-6.4-1.6"/>
<path style="fill:#666E70;" d="M375.2,341.2c4-0.8,6.4-1.6,6.4-3.2s-2.4-3.2-6.4-3.2c0,0.8,0,2.4,0,3.2S375.2,339.6,375.2,341.2z"/>
<path style="fill:#535A5B;" d="M381.6,338c0-1.6-2.4-3.2-6.4-3.2c0,0.8,0,2.4,0,3.2"/>
<path style="fill:#666E70;" d="M419.2,338c0,1.6,2.4,3.2,6.4,3.2c0-2.4,0-4.8,0-6.4C421.6,334.8,419.2,336.4,419.2,338z"/>
<path style="fill:#535A5B;" d="M424.8,334c-3.2,0.8-6.4,1.6-6.4,3.2"/>
<path style="fill:#666E70;" d="M380.8,353.2c1.6,1.6,3.2,3.2,4.8,4.8c2.4-3.2,3.2-5.6,2.4-6.4C386.4,350,383.2,350.8,380.8,353.2z"
	/>
<path style="fill:#535A5B;" d="M385.6,358c2.4-3.2,3.2-5.6,2.4-6.4"/>
<path style="fill:#666E70;" d="M415.2,318c-2.4,3.2-3.2,5.6-2.4,6.4c0.8,0.8,4,0,6.4-1.6C419.2,320.4,417.6,318.8,415.2,318z"/>
<path style="fill:#535A5B;" d="M415.2,318c-2.4,3.2-3.2,5.6-2.4,6.4"/>
<path style="fill:#8E0C19;" d="M449.6,247.6c0,8.8-7.2,16-16,16H32c-8.8,0-16-7.2-16-16V136.4c0-8.8,7.2-16,16-16h352.8
	c8.8,0,16,7.2,16,16L449.6,247.6z"/>
<path style="fill:#DB0940;" d="M19.2,309.2c0,4.8-4,4-8,4l0,0c-4.8,0-8-4-8-8v-36.8c0-4.8,4-8,8-8l0,0c4.8,0,8,4,8,8V309.2z"/>
<path style="fill:#BC043D;" d="M11.2,260.4L11.2,260.4c4.8,0,8,4,8,8v40.8c0,4.8-4,4-8,4l0,0"/>
<g>
	<path style="fill:#51859B;" d="M440.8,226l-37.6-85.6H285.6c-4.8,0-8.8,4-8.8,8.8v68c0,4.8,4,8.8,8.8,8.8h152.8
		C438.4,226.8,440,226,440.8,226z"/>
	<path style="fill:#51859B;" d="M254.4,140.4H220h-83.2h-33.6c-4.8,0-8.8,4-8.8,8.8v68c0,4,2.4,7.2,5.6,8l0,0c0.8,0,1.6,0.8,2.4,0.8
		h0.8h151.2h0.8c0.8,0,1.6,0,2.4-0.8l0,0c3.2-1.6,5.6-4.8,5.6-8v-68C263.2,144.4,259.2,140.4,254.4,140.4z"/>
	<path style="fill:#51859B;" d="M15.2,226.8H72h0.8c0.8,0,1.6,0,2.4-0.8l0,0c3.2-1.6,5.6-4.8,5.6-8v-68c0-4.8-4-8.8-8.8-8.8H37.6
		H15.2V226.8z"/>
</g>
<g>
	<path style="fill:#81B6C9;" d="M329.6,140.4L276,194v23.2c0,4,3.2,7.2,6.4,8.8l85.6-85.6H329.6L329.6,140.4z"/>
	<polygon style="fill:#81B6C9;" points="316,140.4 292,140.4 276,156.4 276,180.4 	"/>
	<path style="fill:#81B6C9;" d="M402.4,226.8h36c0.8,0,1.6,0,2.4-0.8l-11.2-26.4L402.4,226.8z"/>
	<polygon style="fill:#81B6C9;" points="407.2,150 403.2,140.4 397.6,140.4 311.2,226.8 330.4,226.8 	"/>
</g>
<path style="fill:#8E0C19;" d="M406.4,232.4c0.8,2.4-0.8,4.8-3.2,5.6l0,0c-2.4,0.8-4.8-0.8-5.6-3.2l-28-107.2
	c-0.8-2.4,0.8-4.8,3.2-5.6l0,0c2.4-0.8,4.8,0.8,5.6,3.2L406.4,232.4z"/>
<g>
	<path style="fill:#BC2B48;" d="M300.8,246.8c0,3.2-2.4,5.6-5.6,5.6h-12.8c-3.2,0-5.6-2.4-5.6-5.6l0,0c0-3.2,2.4-5.6,5.6-5.6h12.8
		C298.4,241.2,300.8,243.6,300.8,246.8L300.8,246.8z"/>
	<path style="fill:#BC2B48;" d="M188,246.8c0,3.2-2.4,5.6-5.6,5.6h-12.8c-3.2,0-5.6-2.4-5.6-5.6l0,0c0-3.2,2.4-5.6,5.6-5.6h12.8
		C185.6,241.2,188,243.6,188,246.8L188,246.8z"/>
	<path style="fill:#BC2B48;" d="M55.2,242.8c0,0.8-0.8,1.6-1.6,1.6H42.4c-0.8,0-1.6-0.8-1.6-1.6l0,0c0-0.8,0.8-1.6,1.6-1.6h11.2
		C54.4,241.2,55.2,242,55.2,242.8L55.2,242.8z"/>
	<path style="fill:#BC2B48;" d="M55.2,251.6c0,0.8-0.8,1.6-1.6,1.6H42.4c-0.8,0-1.6-0.8-1.6-1.6l0,0c0-0.8,0.8-1.6,1.6-1.6h11.2
		C54.4,250,55.2,250.8,55.2,251.6L55.2,251.6z"/>
	<path style="fill:#BC2B48;" d="M55.2,260.4c0,0.8-0.8,1.6-1.6,1.6H42.4c-0.8,0-1.6-0.8-1.6-1.6l0,0c0-0.8,0.8-1.6,1.6-1.6h11.2
		C54.4,258.8,55.2,259.6,55.2,260.4L55.2,260.4z"/>
</g>
<path style="fill:#FFA300;" d="M496.8,301.2c0,4-3.2,7.2-6.4,7.2l0,0c-4,0-7.2-3.2-7.2-7.2v-33.6c0-4,3.2-6.4,7.2-6.4l0,0
	c4,0,6.4,3.2,6.4,6.4V301.2z"/>
<path style="fill:#FF7300;" d="M489.6,307.6L489.6,307.6c-4,0-7.2-3.2-7.2-7.2v-32.8c0-4,3.2-6.4,7.2-6.4l0,0"/>
<g>
	<polygon style="fill:#81B6C9;" points="39.2,226.8 80.8,185.2 80.8,162 16.8,226.8 	"/>
	<polygon style="fill:#81B6C9;" points="58.4,140.4 37.6,140.4 15.2,140.4 15.2,183.6 	"/>
	<path style="fill:#81B6C9;" d="M72.8,226.8c0.8,0,1.6,0,2.4-0.8l0,0c3.2-1.6,5.6-4.8,5.6-8v-19.2l-28,28H72H72.8z"/>
	<polygon style="fill:#81B6C9;" points="125.6,140.4 102.4,140.4 102.4,140.4 93.6,149.2 93.6,149.2 93.6,172.4 	"/>
	<path style="fill:#81B6C9;" d="M139.2,140.4L93.6,186v32c0,1.6,0.8,3.2,1.6,4l81.6-81.6H139.2L139.2,140.4z"/>
	<path style="fill:#81B6C9;" d="M205.6,226.8h48.8h0.8c0.8,0,1.6,0,2.4-0.8l0,0c3.2-1.6,5.6-4.8,5.6-8v-48.8L205.6,226.8z"/>
	<polygon style="fill:#81B6C9;" points="222.4,140.4 220,140.4 204,140.4 118.4,226.8 136.8,226.8 	"/>
</g>
</svg>