<svg xmlns="http://www.w3.org/2000/svg" shape-rendering="geometricPrecision" text-rendering="geometricPrecision" image-rendering="optimizeQuality" fill-rule="evenodd" clip-rule="evenodd" viewBox="0 0 512 328.508"><path fill="#EEDBCA" d="M115.549 39.32c-6.616-9.124-15.611-14.768-25.415-14.768-9.804 0-18.799 5.644-25.415 14.768-6.966 9.609-11.276 22.973-11.276 37.815 0 14.841 4.31 28.205 11.276 37.813 6.616 9.125 15.611 14.768 25.415 14.768 9.804 0 18.799-5.643 25.415-14.768 6.966-9.608 11.276-22.972 11.276-37.813 0-14.842-4.31-28.206-11.276-37.815z"/><path fill-rule="nonzero" d="M90.134 14.11c13.342 0 25.305 7.296 33.858 19.092 8.202 11.312 13.275 26.85 13.275 43.933 0 17.081-5.073 32.62-13.275 43.932-8.553 11.795-20.516 19.092-33.858 19.092-13.343 0-25.305-7.297-33.858-19.092-8.202-11.312-13.275-26.851-13.275-43.932 0-17.083 5.073-32.621 13.275-43.933C64.829 21.406 76.791 14.11 90.134 14.11zm25.415 25.21c-6.616-9.124-15.611-14.768-25.415-14.768-9.804 0-18.799 5.644-25.415 14.768-6.966 9.609-11.276 22.973-11.276 37.815 0 14.841 4.31 28.205 11.276 37.813 6.616 9.125 15.611 14.768 25.415 14.768 9.804 0 18.799-5.643 25.415-14.768 6.966-9.608 11.276-22.972 11.276-37.813 0-14.842-4.31-28.206-11.276-37.815z"/><path fill-rule="nonzero" d="M131.828 63.667a5.164 5.164 0 01-.284 10.324c-5.922-.165-10.86.969-14.267 3.33-2.849 1.975-4.642 4.975-4.98 8.949a5.18 5.18 0 01-10.324-.85c.62-7.274 4.016-12.845 9.435-16.601 5.228-3.624 12.291-5.379 20.42-5.152zM48.564 73.991a5.164 5.164 0 01-.284-10.324c8.129-.227 15.192 1.528 20.42 5.152 5.418 3.756 8.815 9.327 9.435 16.601a5.18 5.18 0 01-10.324.85c-.338-3.974-2.131-6.974-4.98-8.949-3.407-2.361-8.345-3.495-14.267-3.33z"/><path fill="#C38E59" d="M50.889 42.007a54.104 54.104 0 013.811-6.73 51.034 51.034 0 012.185-3.035c-4.647-1.78-9.108-4.226-13.405-7.157-3.227-2.202-6.364-4.68-9.417-7.353.797 5.215 2.356 9.597 4.466 13.196 3.12 5.325 7.491 8.969 12.36 11.079z"/><path fill-rule="nonzero" d="M50.889 42.007a54.104 54.104 0 013.811-6.73 51.034 51.034 0 012.185-3.035c-4.647-1.78-9.108-4.226-13.405-7.157-3.227-2.202-6.364-4.68-9.417-7.353.797 5.215 2.356 9.597 4.466 13.196 3.12 5.325 7.491 8.969 12.36 11.079zm12.434-1.022c-1.843 2.766-3.388 5.787-4.637 9.061a5.176 5.176 0 01-6.17 3.402c-9.019-2.255-17.377-7.882-22.894-17.298-4.574-7.805-7.138-18.17-6.362-31.285a5.164 5.164 0 011.579-3.421 5.167 5.167 0 017.307.142c5.469 5.666 11.182 10.876 17.164 14.957 5.75 3.922 11.736 6.788 17.97 7.967l-.002.011a5.157 5.157 0 012.532 8.875 41.249 41.249 0 00-6.487 7.589z"/><path fill="#875A4B" d="M43.803 66.621c.84-5.367 1.493-9.469 2.839-13.934a83.773 83.773 0 00-4.865-1.392c-3.244-.822-6.265-1.367-9.06-1.689-.584-.068-.289-.042-.495-.062-3.517-.355-9.546-.501-14.779.494-3.728.709-6.878 1.842-7.08 3.592l-.024.176c-.021.356.008.691.083 1.005.619 2.571 3.884 5.007 8.254 7.037 5.199 2.415 11.653 3.998 17.558 4.594 2.758.278 5.345.344 7.569.179z"/><path fill-rule="nonzero" d="M53.96 68.484l-.547 3.481h-.004a5.162 5.162 0 01-3.903 4.211c-3.874.931-8.941 1.089-14.285.549-6.984-.705-14.654-2.594-20.877-5.484C7.294 67.966 1.841 63.263.382 57.199a13.588 13.588 0 01-.335-4.322l.033-.422c.868-7.512 7.626-11.089 15.46-12.579 6.329-1.203 13.52-1.037 17.694-.616.605.061.442.038.657.063 3.235.373 6.703.997 10.396 1.932 3.368.853 6.954 1.976 10.754 3.416l-.003.008.084.032a5.162 5.162 0 012.895 6.7c-2.284 5.746-2.995 10.292-4.057 17.073zm-10.157-1.863c.84-5.367 1.493-9.469 2.839-13.934a83.773 83.773 0 00-4.865-1.392c-3.244-.822-6.265-1.367-9.06-1.689-.584-.068-.289-.042-.495-.062-3.517-.355-9.546-.501-14.779.494-3.728.709-6.878 1.842-7.08 3.592l-.024.176c-.021.356.008.691.083 1.005.619 2.571 3.884 5.007 8.254 7.037 5.199 2.415 11.653 3.998 17.558 4.594 2.758.278 5.345.344 7.569.179z"/><path fill="#C38E59" d="M125.305 35.277a54.104 54.104 0 013.811 6.73c4.869-2.11 9.241-5.754 12.361-11.079 2.109-3.599 3.668-7.981 4.466-13.196-3.054 2.673-6.191 5.151-9.418 7.353-4.297 2.931-8.759 5.377-13.405 7.157a51.034 51.034 0 012.185 3.035z"/><path fill-rule="nonzero" d="M121.319 50.046c-1.249-3.274-2.794-6.295-4.637-9.061a41.287 41.287 0 00-6.487-7.589 5.157 5.157 0 012.532-8.875l-.002-.011c6.234-1.179 12.22-4.045 17.97-7.967 5.982-4.081 11.695-9.291 17.164-14.957a5.167 5.167 0 018.883 3.279c.779 13.115-1.785 23.48-6.359 31.285-5.517 9.416-13.875 15.043-22.894 17.298a5.176 5.176 0 01-6.17-3.402zm3.986-14.769a54.104 54.104 0 013.811 6.73c4.869-2.11 9.241-5.754 12.361-11.079 2.109-3.599 3.668-7.981 4.466-13.196-3.054 2.673-6.191 5.151-9.418 7.353-4.297 2.931-8.759 5.377-13.405 7.157a51.034 51.034 0 012.185 3.035z"/><path fill="#EDDACA" d="M133.141 100.882c-6.178 18.041-19.293 35.279-38.6 51.449a65.275 65.275 0 013.971 3.631c9.302 9.257 14.271 19.968 19.331 30.874 2.072 4.466 4.16 8.967 6.555 13.332 5.253 9.574 13.869 18.488 23.839 23.11 7.97 3.695 16.825 4.578 25.411.625a5.173 5.173 0 016.842 2.49c6.108 12.927 10.201 25.544 11.257 37.692.842 9.684-.232 19.049-3.718 28.013h25.145v.02l1.698.002c2.498.005 2.39 5.052 2.667 2.529.024-.222-.771-1.382-1.707-3.395-2.072-4.452-4.766-10.246-4.936-16.455-.262-9.636 2.982-19.426 6.081-28.778 1.932-5.832 3.805-11.48 4.546-16.366l.011.002a5.168 5.168 0 016.629-4.172c23.663 7.289 48.274 9.028 73.849 5.111 25.734-3.942 52.448-13.609 80.158-29.109a5.167 5.167 0 015.525.324c14.239 10.224 26.507 21.977 32.98 37.348 5.88 13.963 6.888 30.596.141 51.266h29.094c1.149 0 1.314.642 1.536.363.118-.149-.374-.516-.827-2.207-.394-1.471-.973-2.931-1.552-4.393-1.039-2.621-2.08-5.248-2.495-8.1-1.088-7.471 2.151-14.029 5.591-20.994 2.59-5.244 5.32-10.77 5.628-16.349.494-8.958-2.442-13.967-5.308-18.858-2.878-4.911-5.703-9.73-6.311-17.382-.284-3.565 0-7.255.886-11.076.852-3.674 2.26-7.45 4.254-11.33 3.291-7.593 6.105-15.515 8.468-23.746 2.374-8.27 4.267-16.749 5.705-25.423l.012-.094c1.968-13.646 1.829-25.939-.195-36.729-2.048-10.918-6.029-20.307-11.705-28.005-17.496-23.73-49.746-22.962-78.69-22.273-5.291.127-10.486.25-14.366.25H167.116v-.018l-.141-.002c-7.597-.222-14.903-.047-21.933.621-4.813.457-9.517 1.152-14.119 2.119 7.696 18.462 8.214 36.572 2.218 54.083z"/><path fill-rule="nonzero" d="M83.158 148.271c20.462-16.08 34.153-33.091 40.186-50.708 5.722-16.708 4.521-34.145-4.379-52.029a5.177 5.177 0 013.493-7.359c6.916-1.84 14.115-3.067 21.613-3.779 7.416-.704 15.091-.892 23.045-.665v-.016h193.425c5.336 0 9.69-.104 14.123-.209 31.49-.75 66.578-1.587 87.273 26.484 6.584 8.929 11.185 19.731 13.526 32.214 2.232 11.901 2.406 25.323.277 40.089a5.893 5.893 0 01-.058.332c-1.521 9.167-3.494 18.029-5.943 26.562a205.32 205.32 0 01-9.034 25.225l-.144.303c-1.624 3.15-2.758 6.155-3.423 9.021-.639 2.759-.846 5.411-.643 7.96.426 5.343 2.639 9.12 4.894 12.968 3.651 6.23 7.39 12.61 6.725 24.647-.424 7.692-3.635 14.191-6.68 20.357-2.704 5.476-5.25 10.631-4.62 14.963.252 1.726 1.05 3.741 1.847 5.752.736 1.856 1.471 3.712 1.957 5.526 1.39 5.19.999 8.706-1.076 11.316-2.177 2.74-5.346 3.565-9.632 3.565h-36.46a5.183 5.183 0 01-4.699-7.369c8.234-21.042 7.908-37.199 2.411-50.254-5.202-12.353-15.124-22.273-26.87-31.05-27.803 15.194-54.712 24.735-80.742 28.721-25.14 3.851-49.46 2.523-72.97-3.892-1.009 3.997-2.373 8.111-3.765 12.313-2.837 8.561-5.807 17.523-5.595 25.297.109 3.993 2.311 8.727 4.004 12.366 1.606 3.452 2.886 6.204 2.598 8.82-.738 6.726-2.588 6.722-12.95 6.702l-1.698-.003v.021h-33.313a5.183 5.183 0 01-4.315-8.053c5.106-9.18 6.78-19.049 5.877-29.434-.828-9.526-3.808-19.509-8.304-29.812-10.075 3.128-20.126 1.721-29.214-2.493-12.038-5.581-22.356-16.188-28.575-27.523-2.549-4.645-4.723-9.331-6.879-13.98-4.669-10.062-9.253-19.943-17.226-27.877a56.245 56.245 0 00-3.696-3.371 60.002 60.002 0 00-4.266-3.219 5.166 5.166 0 01-.105-8.429zm49.983-47.389c-6.178 18.041-19.293 35.279-38.6 51.449a65.275 65.275 0 013.971 3.631c9.302 9.257 14.271 19.968 19.331 30.874 2.072 4.466 4.16 8.967 6.555 13.332 5.253 9.574 13.869 18.488 23.839 23.11 7.97 3.695 16.825 4.578 25.411.625a5.173 5.173 0 016.842 2.49c6.108 12.927 10.201 25.544 11.257 37.692.842 9.684-.232 19.049-3.718 28.013h25.145v.02l1.698.002c2.498.005 2.39 5.052 2.667 2.529.024-.222-.771-1.382-1.707-3.395-2.072-4.452-4.766-10.246-4.936-16.455-.262-9.636 2.982-19.426 6.081-28.778 1.932-5.832 3.805-11.48 4.546-16.366l.011.002a5.168 5.168 0 016.629-4.172c23.663 7.289 48.274 9.028 73.849 5.111 25.734-3.942 52.448-13.609 80.158-29.109a5.167 5.167 0 015.525.324c14.239 10.224 26.507 21.977 32.98 37.348 5.88 13.963 6.888 30.596.141 51.266h29.094c1.149 0 1.314.642 1.536.363.118-.149-.374-.516-.827-2.207-.394-1.471-.973-2.931-1.552-4.393-1.039-2.621-2.08-5.248-2.495-8.1-1.088-7.471 2.151-14.029 5.591-20.994 2.59-5.244 5.32-10.77 5.628-16.349.494-8.958-2.442-13.967-5.308-18.858-2.878-4.911-5.703-9.73-6.311-17.382-.284-3.565 0-7.255.886-11.076.852-3.674 2.26-7.45 4.254-11.33 3.291-7.593 6.105-15.515 8.468-23.746 2.374-8.27 4.267-16.749 5.705-25.423l.012-.094c1.968-13.646 1.829-25.939-.195-36.729-2.048-10.918-6.029-20.307-11.705-28.005-17.496-23.73-49.746-22.962-78.69-22.273-5.291.127-10.486.25-14.366.25H167.116v-.018l-.141-.002c-7.597-.222-14.903-.047-21.933.621-4.813.457-9.517 1.152-14.119 2.119 7.696 18.462 8.214 36.572 2.218 54.083z"/><path fill="#896D61" d="M439.64 300.999h-24.108c-.93 0-2.23 1.79-3.514 4.156-1.966 3.623-3.325 8.101-3.924 11.409h32.753l-1.207-15.565z"/><path fill-rule="nonzero" d="M439.64 300.999h-24.108c-.93 0-2.23 1.79-3.514 4.156-1.966 3.623-3.325 8.101-3.924 11.409h32.753l-1.207-15.565zm-24.108-10.364h27.02c2.006 0 3.753.801 5.046 2.095l-.01.01a7.535 7.535 0 012.162 4.728l1.694 21.878c.016.22.026.39.026.499 0 1.957-.824 3.7-2.122 4.978a7.359 7.359 0 01-4.557 2.079h-.021a8.89 8.89 0 01-.523.026h-39.643c-1.99 0-3.796-.81-5.102-2.116l.01-.01-.01-.01a7.18 7.18 0 01-2.117-5.082c0-4.09 2.016-13.028 5.524-19.494 2.96-5.455 7.137-9.581 12.623-9.581z"/><path fill="#A97867" d="M404.618 300.999h-21.7c-6.292 0-8.277 9.613-8.777 15.565h31.683l-1.206-15.565z"/><path fill-rule="nonzero" d="M404.618 300.999h-21.7c-6.292 0-8.277 9.613-8.777 15.565h31.683l-1.206-15.565zm-21.7-10.364h24.611c1.992 0 3.733.802 5.027 2.095l.02.02a7.503 7.503 0 012.151 4.718l1.695 21.878c.016.22.025.39.025.499 0 1.957-.823 3.7-2.121 4.978a7.356 7.356 0 01-4.558 2.079h-.021a8.85 8.85 0 01-.523.026H370.85a7.2 7.2 0 01-5.102-2.116l.01-.01-.01-.01a7.183 7.183 0 01-2.116-5.082c0-7.193 2.824-29.075 19.286-29.075z"/><path fill="#8B6F63" d="M207.326 302.499h-21.713c-2.556 0-4.35 1.453-5.598 3.434-1.966 3.122-2.831 7.364-3.156 10.631h31.638l-1.171-14.065z"/><path fill-rule="nonzero" d="M207.326 302.499h-21.713c-2.556 0-4.35 1.453-5.598 3.434-1.966 3.122-2.831 7.364-3.156 10.631h31.638l-1.171-14.065zm-21.713-10.364h24.612c2.006 0 3.75.8 5.042 2.093l-.01.01.01.01a7.52 7.52 0 012.156 4.68l1.694 20.357c.018.21.027.398.027.568h-.021a6.93 6.93 0 01-2.099 4.968 7.37 7.37 0 01-4.222 2.05l-.267.03a7.425 7.425 0 01-.616.027h-38.374a7.2 7.2 0 01-5.102-2.116 7.201 7.201 0 01-2.116-5.102c0-4.15.925-12.903 4.944-19.283 3.013-4.783 7.557-8.292 14.342-8.292z"/><path fill="#815747" d="M172.212 302.499h-20.796c-2.555 0-4.35 1.453-5.598 3.434-1.966 3.122-2.831 7.364-3.156 10.631h26.901l2.649-14.065z"/><path fill-rule="nonzero" d="M172.212 302.499h-20.796c-2.555 0-4.35 1.453-5.598 3.434-1.966 3.122-2.831 7.364-3.156 10.631h26.901l2.649-14.065zm-20.796-10.364h24.612c.408 0 .858.048 1.339.138a7.531 7.531 0 013.86 2.025c1.246 1.239 2.044 2.9 2.044 4.791 0 .358-.041.762-.127 1.215l-3.833 20.357c-.295 1.574-1.024 3.078-2.15 4.204l-.01-.01-.011.01c-1.273 1.272-2.934 2.063-4.945 2.063h-32.847c-1.99 0-3.796-.81-5.101-2.116a7.194 7.194 0 01-2.117-5.102c0-4.15.926-12.903 4.944-19.283 3.012-4.783 7.557-8.292 14.342-8.292z"/><path fill="#E9B0AF" d="M371.398 242.637c10.878.7 22.418-2.582 33.766-10.219-2.613-3.548-5.54-6.881-8.617-9.942a95.368 95.368 0 00-12.224-10.262 300.584 300.584 0 01-22.864 11.139 338.783 338.783 0 01-18.237 7.326c8.474 7.222 18.098 11.31 28.176 11.958z"/><path fill-rule="nonzero" d="M415.415 237.776c-14.69 11.268-30.059 16.124-44.664 15.185-15.154-.974-29.315-8.157-40.902-20.868a5.172 5.172 0 012.501-8.482c8.363-2.897 16.681-6.106 24.98-9.73 8.349-3.647 16.606-7.691 24.781-12.235a5.164 5.164 0 015.337.191l.006-.009c5.373 3.512 11.055 8.024 16.38 13.321 4.694 4.668 9.111 9.964 12.795 15.745a5.16 5.16 0 01-1.221 6.874l.007.008zm-44.017 4.861c10.878.7 22.418-2.582 33.766-10.219-2.613-3.548-5.54-6.881-8.617-9.942a95.368 95.368 0 00-12.224-10.262 300.584 300.584 0 01-22.864 11.139 338.783 338.783 0 01-18.237 7.326c8.474 7.222 18.098 11.31 28.176 11.958z"/><path fill="#E9B0AF" d="M359.746 251.651a47.77 47.77 0 01-3.931-1.191c-.536 2.95-.241 5.202.546 6.582l.067.123c1.116-.748 2.287-2.506 3.318-5.514z"/><path fill-rule="nonzero" d="M359.746 251.651a47.77 47.77 0 01-3.931-1.191c-.536 2.95-.241 5.202.546 6.582l.067.123c1.116-.748 2.287-2.506 3.318-5.514zm.93-10.459c1.955.595 4.026 1.034 6.188 1.342l-.001.008.305.052a5.167 5.167 0 014.028 6.093c-2.013 9.882-6.013 15.491-10.074 17.695-2.682 1.457-5.425 1.661-7.951.791-2.361-.812-4.377-2.543-5.797-5.03-2.495-4.37-3.144-11.68.273-20.279a5.17 5.17 0 017.288-3.007 34.08 34.08 0 005.741 2.335z"/><path fill="#EAB0AF" d="M381.1 252.858c-.709.098-1.419.18-2.132.243.532 3.625 1.356 5.949 2.289 7.202 1.067-1.561 1.76-4.216 1.688-7.733-.61.107-1.225.203-1.845.288z"/><path fill-rule="nonzero" d="M373.606 242.882c2.049.12 4.089.013 6.118-.266 2.032-.28 4.131-.756 6.271-1.365a5.179 5.179 0 016.494 3.968c1.925 9.584.018 17.405-3.184 21.597-1.747 2.285-3.96 3.735-6.403 4.194-2.714.51-5.424-.188-7.839-2.274-3.446-2.976-6.35-9.525-6.922-20.43a5.168 5.168 0 015.465-5.424zm7.494 9.976c-.709.098-1.419.18-2.132.243.532 3.625 1.356 5.949 2.289 7.202 1.067-1.561 1.76-4.216 1.688-7.733-.61.107-1.225.203-1.845.288z"/><path fill="#EAB0AF" d="M396.716 248.983a39.72 39.72 0 01-3.613 1.133c.764 3.961 1.857 6.377 3.007 7.537l.009-.016c.978-1.743 1.355-4.703.597-8.654z"/><path fill-rule="nonzero" d="M386.322 241.117l.038-.008c4.284-.974 7.431-1.689 10.863-3.84a5.157 5.157 0 017.551 2.538l.019-.007c3.788 9.956 3.004 18.175.354 22.897-1.528 2.722-3.718 4.548-6.251 5.303-2.782.829-5.711.353-8.419-1.626-3.77-2.753-7.209-9.065-8.298-19.66a5.17 5.17 0 014.143-5.597zm10.394 7.866a39.72 39.72 0 01-3.613 1.133c.764 3.961 1.857 6.377 3.007 7.537l.009-.016c.978-1.743 1.355-4.703.597-8.654zM422.184 46.528a5.164 5.164 0 01.283-10.324c20.73.598 38.309 7.325 51.42 19.204 13.012 11.788 21.513 28.541 24.213 49.299 1.883 14.484 1.31 29.581.744 44.456-.256 6.75-.511 13.454-.511 20.607a5.183 5.183 0 11-10.364 0c0-6.452.275-13.686.551-20.971.55-14.461 1.108-29.138-.663-42.756-2.373-18.249-9.707-32.851-20.893-42.984-11.276-10.215-26.582-16.006-44.78-16.531z"/><path fill="#926354" d="M483.392 198.18c-1.533 5.713-1.692 11.421.015 17.042.427-.796.834-1.67 1.226-2.605a5.172 5.172 0 013.724-3.076 5.169 5.169 0 016.113 4.007c1.614 7.651 1.76 14.965.347 21.921a47.33 47.33 0 01-.638 2.727c5.065-6.021 7.224-13.521 7.469-21.483.382-12.467-3.757-26.057-8.995-37.322-4.306 6.257-7.589 12.559-9.261 18.789z"/><path fill-rule="nonzero" d="M477.251 226.788c-5.955-10.315-6.664-20.826-3.858-31.28 2.667-9.935 8.539-19.698 16.036-29.104a5.171 5.171 0 018.712.98c7.47 13.566 14.361 32.346 13.83 49.613-.42 13.696-5.366 26.433-17.962 35.169a32.573 32.573 0 01-5.421 3.07 28.382 28.382 0 01-5.962 1.889 5.177 5.177 0 01-4.956-8.41c3.614-4.789 5.933-9.885 7.026-15.27.353-1.735.58-3.509.687-5.321-.53.311-1.081.588-1.655.829a5.162 5.162 0 01-6.471-2.169l-.006.004zm6.141-28.608c-1.533 5.713-1.692 11.421.015 17.042.427-.796.834-1.67 1.226-2.605a5.172 5.172 0 013.724-3.076 5.169 5.169 0 016.113 4.007c1.614 7.651 1.76 14.965.347 21.921a47.33 47.33 0 01-.638 2.727c5.065-6.021 7.224-13.521 7.469-21.483.382-12.467-3.757-26.057-8.995-37.322-4.306 6.257-7.589 12.559-9.261 18.789zM389.145 203.146a5.17 5.17 0 01-8.056 6.477c-4.794-5.941-9.34-13.065-12.962-21.887-3.604-8.776-6.276-19.173-7.337-31.666a5.18 5.18 0 0110.323-.85c.969 11.404 3.358 20.773 6.567 28.589 3.191 7.77 7.214 14.069 11.465 19.337zM231.692 231.543a5.162 5.162 0 01-10.161-1.822c1.401-7.7 2.35-15.513 2.636-23.202.255-6.86-.027-13.648-1.001-20.195a5.176 5.176 0 0110.242-1.498c1.059 7.109 1.363 14.526 1.083 22.058-.305 8.189-1.313 16.49-2.799 24.659zM181.053 227.892a5.163 5.163 0 01-9.676 3.603c-2.912-7.843-5.362-15.849-7.078-23.797-1.575-7.292-2.562-14.649-2.765-21.934a5.164 5.164 0 0110.323-.284c.182 6.516 1.097 13.246 2.563 20.032 1.638 7.584 3.93 15.103 6.633 22.38z"/><path fill="#A97867" d="M350.793 44.704H215.728c1.621 1.035 3.072 2.123 4.332 3.256 8.138 7.321 6.634 13.258 4.812 20.443-.738 2.911-1.553 6.126-1.221 9.551.26 2.677 1.263 4.959 2.778 6.819 1.904 2.34 4.64 4.08 7.779 5.168 3.33 1.154 7.085 1.575 10.815 1.213 4.501-.437 8.9-2.026 12.367-4.848 4.226-3.441 8.141-5.638 11.729-6.942 3.831-1.393 7.29-1.785 10.368-1.573 9.495.653 15.343 7 21.437 13.614 7.039 7.64 14.515 15.754 29.276 9.842 5.596-2.241 11.177-6.529 15.26-13.668 3.516-6.149 5.936-14.391 6.373-25.231a89.553 89.553 0 00-.24-10.9 92.905 92.905 0 00-.8-6.744z"/><path fill-rule="nonzero" d="M350.793 44.704H215.728c1.621 1.035 3.072 2.123 4.332 3.256 8.138 7.321 6.634 13.258 4.812 20.443-.738 2.911-1.553 6.126-1.221 9.551.26 2.677 1.263 4.959 2.778 6.819 1.904 2.34 4.64 4.08 7.779 5.168 3.33 1.154 7.085 1.575 10.815 1.213 4.501-.437 8.9-2.026 12.367-4.848 4.226-3.441 8.141-5.638 11.729-6.942 3.831-1.393 7.29-1.785 10.368-1.573 9.495.653 15.343 7 21.437 13.614 7.039 7.64 14.515 15.754 29.276 9.842 5.596-2.241 11.177-6.529 15.26-13.668 3.516-6.149 5.936-14.391 6.373-25.231a89.553 89.553 0 00-.24-10.9 92.905 92.905 0 00-.8-6.744zM181.386 34.34h173.722v.016a5.168 5.168 0 015.06 4.134 102.806 102.806 0 011.748 12.149c.325 3.969.406 8.008.24 12.114-.511 12.686-3.44 22.503-7.709 29.967-5.376 9.402-12.855 15.099-20.401 18.121-21.386 8.565-31.35-2.249-40.733-12.432-4.666-5.065-9.144-9.925-14.515-10.295-1.784-.122-3.83.119-6.157.965-2.571.935-5.471 2.587-8.733 5.242-5.111 4.162-11.475 6.491-17.913 7.116-5.164.501-10.423-.101-15.147-1.739-4.914-1.705-9.278-4.529-12.435-8.406-2.754-3.382-4.574-7.52-5.045-12.367-.509-5.248.526-9.333 1.464-13.032.985-3.887 1.799-7.099-1.695-10.242-2.808-2.527-7.162-4.841-12.615-6.743-5.547-1.935-12.143-3.402-19.363-4.209a5.183 5.183 0 01.227-10.359z"/><path fill="#A97867" d="M274.857 144.24a11.078 11.078 0 00-2.002-3.508 6.6 6.6 0 00-.524-.537l.01-.011-.01-.009c-1.946-1.8-5.261-3.279-8.697-3.887-2.971-.526-5.786-.38-7.265.885a2.76 2.76 0 00-.222.217l-.011-.011-.009.011c-.263.284-.456.66-.583 1.1-.172.593-.213 1.342-.139 2.195.107 1.222.364 2.398.751 3.499 1.006 2.859 2.868 5.404 5.248 7.163 2.22 1.642 4.9 2.559 7.72 2.314a11.304 11.304 0 002.772-.595c.756-.266 1.373-.62 1.862-1.038.893-.764 1.411-1.848 1.612-3.057.247-1.484.047-3.142-.513-4.731z"/><path fill-rule="nonzero" d="M280.709 134.011c1.699 1.987 3.03 4.341 3.905 6.829 1.115 3.171 1.494 6.607.959 9.831-.582 3.499-2.211 6.744-5.095 9.211-1.427 1.22-3.148 2.225-5.182 2.94a21.526 21.526 0 01-5.281 1.162c-5.466.476-10.584-1.245-14.764-4.337-4.02-2.973-7.16-7.258-8.851-12.062a24.562 24.562 0 01-1.318-6.01c-.177-2.029-.012-4.045.544-5.96a12.9 12.9 0 012.921-5.219l-.011-.01c.341-.37.714-.725 1.112-1.066 4.105-3.51 10.05-4.246 15.767-3.234 5.249.928 10.549 3.405 13.909 6.509l.01-.011c.486.449.946.926 1.375 1.427zm-5.852 10.229a11.078 11.078 0 00-2.002-3.508 6.6 6.6 0 00-.524-.537l.01-.011-.01-.009c-1.946-1.8-5.261-3.279-8.697-3.887-2.971-.526-5.786-.38-7.265.885a2.76 2.76 0 00-.222.217l-.011-.011-.009.011c-.263.284-.456.66-.583 1.1-.172.593-.213 1.342-.139 2.195.107 1.222.364 2.398.751 3.499 1.006 2.859 2.868 5.404 5.248 7.163 2.22 1.642 4.9 2.559 7.72 2.314a11.304 11.304 0 002.772-.595c.756-.266 1.373-.62 1.862-1.038.893-.764 1.411-1.848 1.612-3.057.247-1.484.047-3.142-.513-4.731z"/><path fill="#A97867" d="M459.238 158.948c2.34-7.061 4.347-14.208 5.74-21.512 1.738-9.123 2.527-18.53 1.812-28.383-7.127-2.985-13.683-4.165-19.095-3.486-2.797.351-5.249 1.21-7.257 2.585-1.95 1.335-3.542 3.207-4.684 5.622-1.936 4.096-2.628 9.759-1.711 17.063.762 6.071 6.291 10.646 12.151 15.494 3.358 2.778 6.809 5.634 9.994 9.202l3.05 3.415z"/><path fill-rule="nonzero" d="M459.238 158.948c2.34-7.061 4.347-14.208 5.74-21.512 1.738-9.123 2.527-18.53 1.812-28.383-7.127-2.985-13.683-4.165-19.095-3.486-2.797.351-5.249 1.21-7.257 2.585-1.95 1.335-3.542 3.207-4.684 5.622-1.936 4.096-2.628 9.759-1.711 17.063.762 6.071 6.291 10.646 12.151 15.494 3.358 2.778 6.809 5.634 9.994 9.202l3.05 3.415zm15.901-19.61c-2.06 10.807-5.337 21.16-9.053 31.348l-.006-.002a5.161 5.161 0 01-8.698 1.682l-8.885-9.951c-2.539-2.844-5.764-5.513-8.902-8.109-7.491-6.198-14.558-12.046-15.835-22.214-1.17-9.313-.119-16.889 2.642-22.73 1.955-4.135 4.744-7.382 8.206-9.753 3.407-2.331 7.402-3.768 11.832-4.325 7.978-1.002 17.471.899 27.439 5.611a5.168 5.168 0 012.935 4.149c1.234 12.027.407 23.37-1.675 34.294zM2.009 328.508v-10.363h508.213v10.363z"/><path fill="#6B9676" d="M51.346 317.791l47.887.329c.835-8.662 2.527-16.499 5.127-23.46a65.998 65.998 0 013.319-7.478c-4.16 2.675-8.049 6.282-11.752 10.53a5.163 5.163 0 01-9.048-3.502c.187-8.606 1.477-17.001 3.564-25.044.561-2.16 1.177-4.292 1.843-6.395-3.89 5.264-6.719 11.662-8.371 18.835l-.012-.003a5.158 5.158 0 01-9.845.692c-3.289-8.561-7.2-15.687-11.553-21.441a63.457 63.457 0 00-1.496-1.901 198.858 198.858 0 011.948 8.56c1.798 8.764 3.015 17.411 3.99 25.891l-.012.001a5.164 5.164 0 01-9.199 3.764c-5.352-6.845-10.83-12.177-16.405-15.891a45.392 45.392 0 00-2.447-1.523c2.237 3.74 4.262 7.642 6.007 11.736.07.133.136.271.195.412 3.308 7.872 5.56 16.437 6.26 25.888z"/><path fill-rule="nonzero" d="M103.705 328.475l-57.319-.394a5.163 5.163 0 01-5.141-5.101c-.141-9.966-2.283-18.908-5.713-27.069a5.109 5.109 0 01-.147-.395c-3.45-8.082-8.181-15.417-13.492-22.233a5.161 5.161 0 014.554-8.317c7.085.665 13.958 3.268 20.592 7.689 2.506 1.67 4.981 3.602 7.423 5.79a224.844 224.844 0 00-1.626-8.867c-1.689-8.237-3.91-16.46-6.969-24.544a5.169 5.169 0 017.428-6.294c6.275 3.623 12.181 8.89 17.469 15.88 2.636 3.485 5.127 7.419 7.441 11.811 1.673-3.608 3.667-6.973 5.966-10.047 4.808-6.427 10.914-11.547 18.182-14.936a5.18 5.18 0 016.786 7.078c-3.56 7.302-6.59 15.113-8.696 23.23a105.766 105.766 0 00-1.979 9.301 52.469 52.469 0 014.42-3.056c5.565-3.431 11.593-5.622 18.231-6.175a5.18 5.18 0 013.793 9.097c-4.692 4.63-8.294 10.435-10.873 17.34-2.705 7.243-4.299 15.716-4.855 25.335a5.17 5.17 0 01-5.445 4.879l-.03-.002zm-52.359-10.684l47.887.329c.835-8.662 2.527-16.499 5.127-23.46a65.998 65.998 0 013.319-7.478c-4.16 2.675-8.049 6.282-11.752 10.53a5.163 5.163 0 01-9.048-3.502c.187-8.606 1.477-17.001 3.564-25.044.561-2.16 1.177-4.292 1.843-6.395-3.89 5.264-6.719 11.662-8.371 18.835l-.012-.003a5.158 5.158 0 01-9.845.692c-3.289-8.561-7.2-15.687-11.553-21.441a63.457 63.457 0 00-1.496-1.901 198.858 198.858 0 011.948 8.56c1.798 8.764 3.015 17.411 3.99 25.891l-.012.001a5.164 5.164 0 01-9.199 3.764c-5.352-6.845-10.83-12.177-16.405-15.891a45.392 45.392 0 00-2.447-1.523c2.237 3.74 4.262 7.642 6.007 11.736.07.133.136.271.195.412 3.308 7.872 5.56 16.437 6.26 25.888z"/><path fill="#D6B8A4" d="M156.112 292.919l19.562.249c4.246-7.611 6.451-16 6.203-25.323-.255-9.643-3.113-20.357-9.009-32.319-5.602 1.279-11.246 1.675-16.725 1.021a41.961 41.961 0 01-4.579-.803c3.505 8.202 5.946 16.521 7.079 24.914 1.447 10.716.767 21.503-2.531 32.261z"/><path fill-rule="nonzero" d="M178.304 303.526l-29.573-.376a5.162 5.162 0 01-4.707-7.143l-.009-.003c4.704-11.31 5.908-22.686 4.385-33.97-1.55-11.48-5.915-22.938-12.297-34.195a5.166 5.166 0 011.943-7.043 5.17 5.17 0 015.719.41c4.162 2.861 8.775 4.484 13.593 5.058 5.412.646 11.083-.023 16.681-1.743a5.17 5.17 0 016.193 2.736c7.868 14.829 11.648 28.204 11.969 40.344.33 12.479-2.971 23.567-9.234 33.519a5.162 5.162 0 01-4.663 2.406zm-22.192-10.607l19.562.249c4.246-7.611 6.451-16 6.203-25.323-.255-9.643-3.113-20.357-9.009-32.319-5.602 1.279-11.246 1.675-16.725 1.021a41.961 41.961 0 01-4.579-.803c3.505 8.202 5.946 16.521 7.079 24.914 1.447 10.716.767 21.503-2.531 32.261z"/><path fill="#E7B0AB" d="M101.398 117.364H78.733c-4.074 0-7.781 1.671-10.472 4.361-2.691 2.691-4.361 6.399-4.361 10.472 0 4.074 1.67 7.782 4.361 10.472 2.691 2.691 6.398 4.362 10.472 4.362h22.665c4.074 0 7.781-1.671 10.472-4.362 2.691-2.69 4.361-6.398 4.361-10.472 0-4.073-1.67-7.781-4.361-10.471-2.691-2.691-6.398-4.362-10.472-4.362z"/><path fill-rule="nonzero" d="M78.733 106.907h22.665c6.961 0 13.285 2.844 17.866 7.425 4.581 4.581 7.425 10.905 7.425 17.865 0 6.961-2.844 13.285-7.425 17.866-4.581 4.581-10.905 7.425-17.866 7.425H78.733c-6.96 0-13.285-2.844-17.866-7.425-4.581-4.581-7.424-10.905-7.424-17.866 0-6.96 2.843-13.284 7.424-17.865 4.582-4.581 10.906-7.425 17.866-7.425zm22.665 10.457H78.733c-4.074 0-7.781 1.671-10.472 4.361-2.691 2.691-4.361 6.399-4.361 10.472 0 4.074 1.67 7.782 4.361 10.472 2.691 2.691 6.398 4.362 10.472 4.362h22.665c4.074 0 7.781-1.671 10.472-4.362 2.691-2.69 4.361-6.398 4.361-10.472 0-4.073-1.67-7.781-4.361-10.471-2.691-2.691-6.398-4.362-10.472-4.362z"/><path d="M73.372 126.387c2.064-1.835 5.545-.604 7.776 2.184 2.231 2.787 2.616 6.515.457 8.637-2.16 2.122-5.756.955-7.932-1.993-2.177-2.948-2.365-6.994-.301-8.828zm33.388 0c-2.064-1.835-5.546-.604-7.776 2.184-2.231 2.787-2.617 6.515-.457 8.637 2.16 2.122 5.755.955 7.931-1.993 2.177-2.948 2.366-6.994.302-8.828z"/><path fill="#875A4B" d="M134.006 52.687c1.345 4.464 1.999 8.568 2.838 13.934 2.224.165 4.812.099 7.57-.179 5.905-.596 12.359-2.179 17.557-4.594 4.37-2.03 7.635-4.466 8.254-7.037.075-.314.104-.649.083-1.005l-.024-.176c-.201-1.75-3.352-2.883-7.079-3.592-5.234-.995-11.263-.849-14.78-.494-.207.02.089-.006-.495.062-2.795.322-5.815.867-9.06 1.689a83.973 83.973 0 00-4.864 1.392z"/><path fill-rule="nonzero" d="M127.234 71.965l-.546-3.479c-1.061-6.783-1.773-11.329-4.057-17.075a5.16 5.16 0 012.895-6.7l.084-.032-.003-.008c3.8-1.44 7.385-2.563 10.754-3.416a79.443 79.443 0 0110.395-1.932c.216-.025.052-.002.657-.063 4.174-.421 11.365-.587 17.694.616 7.835 1.49 14.593 5.067 15.46 12.579l.034.422a13.588 13.588 0 01-.336 4.322c-1.458 6.064-6.912 10.767-13.962 14.042-6.222 2.89-13.893 4.779-20.877 5.484-5.344.54-10.411.382-14.285-.549a5.162 5.162 0 01-3.903-4.211h-.004zm6.772-19.278c1.345 4.464 1.999 8.568 2.838 13.934 2.224.165 4.812.099 7.57-.179 5.905-.596 12.359-2.179 17.557-4.594 4.37-2.03 7.635-4.466 8.254-7.037.075-.314.104-.649.083-1.005l-.024-.176c-.201-1.75-3.352-2.883-7.079-3.592-5.234-.995-11.263-.849-14.78-.494-.207.02.089-.006-.495.062-2.795.322-5.815.867-9.06 1.689a83.973 83.973 0 00-4.864 1.392z"/></svg>