<svg xmlns="http://www.w3.org/2000/svg" shape-rendering="geometricPrecision" text-rendering="geometricPrecision" image-rendering="optimizeQuality" fill-rule="evenodd" clip-rule="evenodd" viewBox="0 0 372 512.411"><path fill="#DFA382" d="M330.086 244.723c-7.159 8.228-11.82 18.698-13.066 28.914 3.912.16 7.469-.087 10.696-.677 10.042-1.834 17.107-7.029 21.861-13.521 4.876-6.66 7.402-14.721 8.249-22.022.322-2.776.402-5.41.278-7.79-11.183.952-20.848 6.857-28.018 15.096z"/><path fill-rule="nonzero" d="M306.8 277.743l.005-.176c.391-13.747 6.186-28.326 15.79-39.364 9.763-11.22 23.476-18.896 39.542-18.603l.464.01a4.953 4.953 0 014.773 4.057c.774 4.231.945 9.405.31 14.875-1.019 8.789-4.11 18.561-10.112 26.758-6.124 8.364-15.2 15.051-28.07 17.403-5.452.996-11.543 1.205-18.324.419a4.962 4.962 0 01-4.378-5.379zm23.286-33.02c-7.159 8.228-11.82 18.698-13.066 28.914 3.912.16 7.469-.087 10.696-.677 10.042-1.834 17.107-7.029 21.861-13.521 4.876-6.66 7.402-14.721 8.249-22.022.322-2.776.402-5.41.278-7.79-11.183.952-20.848 6.857-28.018 15.096z"/><path fill="#F2CBBB" d="M330.207 272.422c8.732-2.187 15.019-7.041 19.37-12.983 4.876-6.66 7.402-14.721 8.249-22.023.322-2.775.402-5.408.278-7.789a37.608 37.608 0 00-9.592 2.111c-5.991 13.999-12.953 24.598-20.775 32.19l2.47 8.494z"/><path fill="#F2D3C4" d="M64.066 114.39c-3.427-9.076-10.11-16.56-18.781-21.704-9.151-5.429-20.499-8.265-32.614-7.672.223 2.477.869 5.159 1.922 7.886 2.078 5.377 5.697 10.816 10.756 15.148 5.014 4.295 11.464 7.486 19.25 8.412 5.753.685 12.252.145 19.467-2.07z"/><path fill-rule="nonzero" d="M64.066 114.39c-3.427-9.076-10.11-16.56-18.781-21.704-9.151-5.429-20.499-8.265-32.614-7.672.223 2.477.869 5.159 1.922 7.886 2.078 5.377 5.697 10.816 10.756 15.148 5.014 4.295 11.464 7.486 19.25 8.412 5.753.685 12.252.145 19.467-2.07zM50.331 84.147c12.243 7.264 21.275 18.445 24.708 32.141l-.009.002a4.952 4.952 0 01-3.018 5.82c-10.641 4.111-20.202 5.205-28.578 4.208-9.9-1.177-18.12-5.252-24.528-10.74-6.365-5.45-10.925-12.312-13.55-19.108-2.243-5.807-3.106-11.637-2.514-16.611a4.965 4.965 0 014.366-4.347c15.933-1.84 31.09 1.497 43.123 8.635z"/><path fill="#F2D3C4" d="M148.368 92.686c-8.672 5.144-15.354 12.628-18.781 21.704 7.214 2.215 13.713 2.755 19.467 2.07 7.786-.926 14.235-4.117 19.25-8.412 5.058-4.332 8.677-9.771 10.755-15.148 1.053-2.727 1.699-5.409 1.923-7.886-12.115-.593-23.463 2.243-32.614 7.672z"/><path fill-rule="nonzero" d="M118.613 116.288c3.433-13.696 12.465-24.877 24.709-32.141 12.032-7.137 27.189-10.475 43.122-8.635a4.962 4.962 0 014.365 4.347c.594 4.974-.269 10.804-2.513 16.611-2.625 6.796-7.185 13.658-13.549 19.108-6.409 5.488-14.629 9.563-24.528 10.74-8.377.997-17.938-.097-28.578-4.208a4.952 4.952 0 01-3.019-5.82l-.009-.002zm29.755-23.602c-8.672 5.144-15.354 12.628-18.781 21.704 7.214 2.215 13.713 2.755 19.467 2.07 7.786-.926 14.235-4.117 19.25-8.412 5.058-4.332 8.677-9.771 10.755-15.148 1.053-2.727 1.699-5.409 1.923-7.886-12.115-.593-23.463 2.243-32.614 7.672z"/><path fill="#D89A7C" d="M131.005 364.228l23.226 111.828a4.964 4.964 0 01-2.802 5.792c-4.448 1.972-8.308 4.895-10.854 9.042-1.623 2.641-2.755 5.825-3.224 9.632l20.371.227c.309-4.52 1.429-8.952 3.491-13.036 2.134-4.226 5.258-8.044 9.513-11.163-.703-3.299-1.443-6.485-2.184-9.681-1.354-5.836-2.716-11.704-3.697-17.206-.646-3.627-1.332-7.609-2.062-11.993a920.826 920.826 0 01-1.929-12.031l.016-.002a4.958 4.958 0 01-.054-.735c.013-9.729.079-19.469.333-29.137.261-9.92.707-19.706 1.474-29.222l.011.001a4.954 4.954 0 014.743-4.562c15.278-.633 28.303-1.879 41.709-4.092 13.362-2.206 27.199-5.402 44.13-9.938l.002.005a4.955 4.955 0 015.509 2.207c2.883 4.735 5.882 8.825 9.233 12.663 3.396 3.888 7.187 7.567 11.603 11.424 3.623 3.164 7.734 6.099 12.14 8.858 4.483 2.808 9.324 5.467 14.297 8.014 9.459 4.847 14.114 9.215 16.114 15.134 1.93 5.713.998 11.818-.581 20.788l-9.218 52.352-.017-.003a4.938 4.938 0 01-2.622 3.554c-4.811 2.46-8.425 5.377-10.562 8.99-1.501 2.539-2.312 5.537-2.339 9.1h19.121c.286-4.656 1.512-8.858 3.754-12.723 2.675-4.612 6.735-8.585 12.309-12.129l11.674-66.214.006.001c.224-1.331.469-2.598.722-3.906 1.098-5.679 2.362-12.217.622-16.341-1.118-2.651-4.752-5.765-8.511-8.988-3.304-2.831-6.692-5.735-9.339-9.12-16.957-21.689-12.514-35.173-7.337-50.884 2.096-6.358 4.328-13.132 4.912-20.932 1.125-15.031-2.761-29.361-11.165-40.351-7.791-10.188-19.532-17.558-34.831-19.992-20.064-3.192-41.329.788-61.117 4.492-20.466 3.831-39.43 7.381-55.318 2.925-16.451-4.614-26.187-15.912-31.773-29.724-4.689-11.594-6.351-24.929-6.63-37.374H70.737a68.807 68.807 0 00-.296 1.745c-.307 1.957-.569 4.126-.806 6.444l-.365 3.584c-1.565 15.299-3.199 31.274-4.074 46.421-1.329 23.044-.186 46.353 8.646 67.547 8.757 21.013 25.21 40.178 54.581 55.313a4.948 4.948 0 012.582 3.396z"/><path fill-rule="nonzero" d="M143.805 474.595l-22.028-106.057c-30.418-16.184-47.707-36.688-57.095-59.216-9.528-22.863-10.786-47.581-9.383-71.893.886-15.351 2.535-31.46 4.112-46.887l.369-3.583c.245-2.389.529-4.707.88-6.95.37-2.358.797-4.527 1.31-6.46a4.958 4.958 0 014.793-3.697v-.01h62.018a4.968 4.968 0 014.947 5.427c-.037 12.616 1.261 26.542 5.974 38.196 4.505 11.136 12.259 20.219 25.253 23.863 13.67 3.834 31.535.49 50.816-3.119 20.589-3.854 42.716-7.996 64.494-4.53 17.997 2.863 31.879 11.623 41.157 23.756 9.899 12.945 14.488 29.672 13.183 47.104-.676 9.033-3.101 16.394-5.377 23.3-4.29 13.018-7.972 24.191 5.707 41.686 2.001 2.56 5.028 5.154 7.979 7.683 4.655 3.99 9.152 7.844 11.19 12.675 2.922 6.927 1.358 15.018-.001 22.047-.257 1.33-.507 2.62-.69 3.71l-.006.038.006.001-12.063 68.425a4.958 4.958 0 01-2.636 3.569c-4.974 2.924-8.428 6.062-10.486 9.61-2.007 3.459-2.755 7.507-2.369 12.336a4.962 4.962 0 01-4.948 5.352v.004h-28.738a4.968 4.968 0 01-4.953-4.577c-1.06-7.743.177-14.13 3.355-19.505 2.779-4.698 6.979-8.458 12.373-11.55l8.804-50.006c1.319-7.494 2.121-12.529.97-15.935-1.081-3.199-4.325-5.933-11.225-9.469-5.159-2.643-10.233-5.434-15.034-8.44-4.877-3.054-9.423-6.299-13.42-9.79-4.737-4.138-8.828-8.112-12.535-12.356a99.015 99.015 0 01-8.252-10.873c-15.578 4.105-28.705 7.072-41.578 9.196-12.474 2.06-24.634 3.305-38.487 4.006-.582 8.212-.934 16.309-1.145 24.322-.25 9.517-.318 18.991-.332 28.423.645 4.219 1.261 8.08 1.85 11.62.596 3.584 1.288 7.573 2.062 11.914.979 5.492 2.284 11.113 3.58 16.702 1.067 4.6 2.131 9.181 2.934 13.199a4.97 4.97 0 01-2.709 5.443c-3.895 2.36-6.627 5.43-8.368 8.878-2.025 4.008-2.753 8.6-2.444 13.247a4.96 4.96 0 01-5.334 5.274l-30.157-.336a4.95 4.95 0 01-4.909-4.871c-.152-8.052 1.698-14.559 4.895-19.764 2.968-4.831 7.03-8.468 11.691-11.132zm-12.8-110.367l23.226 111.828a4.964 4.964 0 01-2.802 5.792c-4.448 1.972-8.308 4.895-10.854 9.042-1.623 2.641-2.755 5.825-3.224 9.632l20.371.227c.309-4.52 1.429-8.952 3.491-13.036 2.134-4.226 5.258-8.044 9.513-11.163-.703-3.299-1.443-6.485-2.184-9.681-1.354-5.836-2.716-11.704-3.697-17.206-.646-3.627-1.332-7.609-2.062-11.993a920.826 920.826 0 01-1.929-12.031l.016-.002a4.958 4.958 0 01-.054-.735c.013-9.729.079-19.469.333-29.137.261-9.92.707-19.706 1.474-29.222l.011.001a4.954 4.954 0 014.743-4.562c15.278-.633 28.303-1.879 41.709-4.092 13.362-2.206 27.199-5.402 44.13-9.938l.002.005a4.955 4.955 0 015.509 2.207c2.883 4.735 5.882 8.825 9.233 12.663 3.396 3.888 7.187 7.567 11.603 11.424 3.623 3.164 7.734 6.099 12.14 8.858 4.483 2.808 9.324 5.467 14.297 8.014 9.459 4.847 14.114 9.215 16.114 15.134 1.93 5.713.998 11.818-.581 20.788l-9.218 52.352-.017-.003a4.938 4.938 0 01-2.622 3.554c-4.811 2.46-8.425 5.377-10.562 8.99-1.501 2.539-2.312 5.537-2.339 9.1h19.121c.286-4.656 1.512-8.858 3.754-12.723 2.675-4.612 6.735-8.585 12.309-12.129l11.674-66.214.006.001c.224-1.331.469-2.598.722-3.906 1.098-5.679 2.362-12.217.622-16.341-1.118-2.651-4.752-5.765-8.511-8.988-3.304-2.831-6.692-5.735-9.339-9.12-16.957-21.689-12.514-35.173-7.337-50.884 2.096-6.358 4.328-13.132 4.912-20.932 1.125-15.031-2.761-29.361-11.165-40.351-7.791-10.188-19.532-17.558-34.831-19.992-20.064-3.192-41.329.788-61.117 4.492-20.466 3.831-39.43 7.381-55.318 2.925-16.451-4.614-26.187-15.912-31.773-29.724-4.689-11.594-6.351-24.929-6.63-37.374H70.737a68.807 68.807 0 00-.296 1.745c-.307 1.957-.569 4.126-.806 6.444l-.365 3.584c-1.565 15.299-3.199 31.274-4.074 46.421-1.329 23.044-.186 46.353 8.646 67.547 8.757 21.013 25.21 40.178 54.581 55.313a4.948 4.948 0 012.582 3.396z"/><path fill="#F2CBBB" d="M165.172 362.598a4.927 4.927 0 012.205-.616c15.277-.633 28.302-1.879 41.709-4.092 13.312-2.198 27.093-5.377 43.93-9.885l-6.445-14.362c-28.027 8.197-55.099 10.503-81.099 12.824l-.3 16.131zM69.36 190.668l-.09.883c-1.565 15.297-3.199 31.27-4.074 46.422-1.329 23.043-.186 46.352 8.646 67.545 8.727 20.941 25.098 40.046 54.279 55.156l-10.112-32.643c-32.813-32.565-30.816-80.773-25.522-123.528-8.952-1.216-16.73-6.475-23.127-13.835z"/><path fill="#D89A7C" d="M135.467 136.936l-.008-.292c-.348-11.581-4.216-22.294-11.047-29.987-6.663-7.505-16.257-12.145-28.25-11.847l-.236.007c-11.097.334-19.9 4.835-26.069 11.816-6.856 7.759-10.572 18.613-10.69 30.32-.116 11.498 4.732 28.527 13.266 41.384 6.232 9.391 14.346 16.349 23.633 16.532l.025.001c.294.005.596.004.901-.004 10.573-.267 19.926-8.836 26.771-19.89 7.195-11.617 11.499-25.755 11.709-36.353l.001-.026c.009-.558.008-1.112-.006-1.661z"/><path fill-rule="nonzero" d="M135.467 136.936l-.008-.292c-.348-11.581-4.216-22.294-11.047-29.987-6.663-7.505-16.257-12.145-28.25-11.847l-.236.007c-11.097.334-19.9 4.835-26.069 11.816-6.856 7.759-10.572 18.613-10.69 30.32-.116 11.498 4.732 28.527 13.266 41.384 6.232 9.391 14.346 16.349 23.633 16.532l.025.001c.294.005.596.004.901-.004 10.573-.267 19.926-8.836 26.771-19.89 7.195-11.617 11.499-25.755 11.709-36.353l.001-.026c.009-.558.008-1.112-.006-1.661zm9.889-.563l.008.311c.017.68.019 1.382.005 2.103v.031c-.241 12.193-5.088 28.287-13.183 41.36-8.445 13.636-20.524 24.22-34.961 24.585a30.57 30.57 0 01-1.322.004l-.031-.001c-13.056-.257-23.819-9.072-31.706-20.956-9.585-14.442-15.029-33.774-14.896-46.935.142-14.065 4.72-27.235 13.174-36.802 7.915-8.957 19.136-14.73 33.211-15.153l.255-.007c15.167-.383 27.375 5.565 35.915 15.184 8.376 9.434 13.114 22.39 13.531 36.276z"/><path fill-rule="nonzero" d="M78.941 91.537a4.953 4.953 0 01-8.655 4.813L58.428 75.115c-1.774-.801-3.711-1.654-5.658-2.512C27.741 61.581 1.335 49.951 3.541 4.721A4.953 4.953 0 018.723.006a4.952 4.952 0 014.715 5.181c-1.38 28.298 10.841 41.298 26.165 50.055a47.09 47.09 0 01-3.664-9.549c-2.937-11.116-1.646-22.674 2.792-30.837a4.95 4.95 0 018.694 4.736c-3.298 6.065-4.194 14.891-1.899 23.578 1.845 6.984 5.776 13.796 12.213 18.904.221-3.794.734-7.451 1.563-10.851 1.424-5.84 3.794-10.969 7.224-14.835a4.95 4.95 0 017.414 6.56c-2.308 2.6-3.958 6.28-5.012 10.604-1.223 5.013-1.621 10.818-1.299 16.83.015.287.005.571-.028.847l11.34 20.308zm56.579-29.463c6.437-5.108 10.368-11.92 12.213-18.904 2.295-8.687 1.399-17.513-1.899-23.578a4.951 4.951 0 018.694-4.736c4.438 8.163 5.729 19.721 2.792 30.837a47.09 47.09 0 01-3.664 9.549c15.324-8.757 27.545-21.757 26.165-50.055a4.952 4.952 0 014.715-5.181 4.953 4.953 0 015.182 4.715c2.206 45.23-24.2 56.86-49.229 67.882-1.947.858-3.884 1.711-5.658 2.512L122.973 96.35a4.953 4.953 0 01-8.655-4.813l11.34-20.308a4.961 4.961 0 01-.028-.847c.322-6.012-.076-11.817-1.299-16.83-1.054-4.324-2.704-8.004-5.012-10.604a4.95 4.95 0 017.414-6.56c3.43 3.866 5.8 8.995 7.224 14.835.829 3.4 1.343 7.057 1.563 10.851z"/><path fill="#A87365" d="M120.423 367.993c-7.075-3.936-13.962-8.589-20.649-13.998a4.987 4.987 0 01-.267-.232 166.614 166.614 0 01-11.007-9.804l18.035 133.35a4.955 4.955 0 01-2.663 5.076l.005.009c-5.972 3.042-10.301 6.618-12.667 10.495-1.389 2.277-2.082 4.702-1.998 7.218h18.059c1.059-5.464 3.045-9.844 5.775-13.526 2.751-3.709 6.174-6.601 10.115-9.12-1.102-8.76-2.29-17.526-3.643-26.303-1.527-9.907-3.231-19.644-5.205-29.118a4.94 4.94 0 01.017-2.105c1.796-8.622 3.14-17.552 4.14-26.713.904-8.282 1.529-16.706 1.953-25.229z"/><path fill-rule="nonzero" d="M120.423 367.993c-7.075-3.936-13.962-8.589-20.649-13.998a4.987 4.987 0 01-.267-.232 166.614 166.614 0 01-11.007-9.804l18.035 133.35a4.955 4.955 0 01-2.663 5.076l.005.009c-5.972 3.042-10.301 6.618-12.667 10.495-1.389 2.277-2.082 4.702-1.998 7.218h18.059c1.059-5.464 3.045-9.844 5.775-13.526 2.751-3.709 6.174-6.601 10.115-9.12-1.102-8.76-2.29-17.526-3.643-26.303-1.527-9.907-3.231-19.644-5.205-29.118a4.94 4.94 0 01.017-2.105c1.796-8.622 3.14-17.552 4.14-26.713.904-8.282 1.529-16.706 1.953-25.229zm-14.401-21.722c7.108 5.75 14.38 10.551 21.804 14.458a4.96 4.96 0 012.639 4.599c-.435 9.861-1.11 19.538-2.136 28.942-.998 9.14-2.332 18.081-4.104 26.758 1.988 9.641 3.656 19.167 5.113 28.616 1.518 9.846 2.843 19.797 4.078 29.793l-.011.001a4.956 4.956 0 01-2.473 4.909c-4.068 2.306-7.485 4.836-9.929 8.133-2.345 3.162-3.914 7.192-4.474 12.652a4.969 4.969 0 01-4.968 4.912H85.082v-.008a4.961 4.961 0 01-4.735-3.486c-2.078-6.647-1.134-13.028 2.402-18.823 2.87-4.703 7.461-8.928 13.509-12.479L76.621 330.057a4.956 4.956 0 011.65-4.386 4.95 4.95 0 016.986.466c6.627 7.591 13.464 14.217 20.495 19.931.092.064.182.132.27.203z"/><path fill="#A87365" d="M252.126 358.426l-20.44 5.344c2.463 4.544 5.157 8.865 8.114 12.932 4.07 5.599 8.609 10.677 13.694 15.145l.152.139.003-.003c4.225 4.027 6.924 8.271 8.156 12.931 1.24 4.694.937 9.626-.848 14.995l-.106.288.009.003-24.759 61.248a4.95 4.95 0 01-3.687 3.027c-4.03.755-8.004 2.823-10.578 6.661-1.645 2.452-2.768 5.683-3.063 9.833l20.936-.165c.472-5.11 2.153-9.27 4.763-12.827 2.97-4.047 7.028-7.111 11.797-9.829l35.245-84.003c-8.661-5.319-16.249-10.958-22.794-16.906-6.545-5.947-12.066-12.222-16.594-18.813z"/><path fill-rule="nonzero" d="M252.126 358.426l-20.44 5.344c2.463 4.544 5.157 8.865 8.114 12.932 4.07 5.599 8.609 10.677 13.694 15.145l.152.139.003-.003c4.225 4.027 6.924 8.271 8.156 12.931 1.24 4.694.937 9.626-.848 14.995l-.106.288.009.003-24.759 61.248a4.95 4.95 0 01-3.687 3.027c-4.03.755-8.004 2.823-10.578 6.661-1.645 2.452-2.768 5.683-3.063 9.833l20.936-.165c.472-5.11 2.153-9.27 4.763-12.827 2.97-4.047 7.028-7.111 11.797-9.829l35.245-84.003c-8.661-5.319-16.249-10.958-22.794-16.906-6.545-5.947-12.066-12.222-16.594-18.813zm-28.908-2.678l29.678-7.76a4.955 4.955 0 015.603 2.11c4.375 6.926 9.992 13.532 16.896 19.806 6.913 6.281 15.095 12.206 24.588 17.762a4.967 4.967 0 012.353 6.361l-37.568 89.539-.008-.003a4.941 4.941 0 01-2.224 2.449c-4.272 2.303-7.808 4.746-10.069 7.826-2.11 2.876-3.222 6.555-2.934 11.605l-.007.001.007.232a4.949 4.949 0 01-4.909 4.988l-30.483.241a4.959 4.959 0 01-5.259-4.639c-.589-8.855 1.363-15.627 4.726-20.641 3.636-5.422 8.828-8.673 14.257-10.244l23.785-58.84c1.086-3.384 1.286-6.383.567-9.104-.746-2.825-2.534-5.543-5.399-8.274-5.644-4.982-10.631-10.557-15.052-16.638-4.429-6.091-8.322-12.733-11.769-19.83a5.174 5.174 0 01-.33-.912 4.951 4.951 0 013.551-6.035z"/><path fill-rule="nonzero" d="M0 512.411v-9.937h372v9.937z"/><path fill="#7EAEA6" d="M270.309 167.388l-.562 39.866c16.481-2.713 32.031-11.148 43.169-24.855 10.209-12.562 16.75-29.603 16.989-50.805-12.181.336-22.979 3.333-32.399 8.663-10.78 6.1-19.847 15.309-27.197 27.131z"/><path fill-rule="nonzero" d="M270.309 167.388l-.562 39.866c16.481-2.713 32.031-11.148 43.169-24.855 10.209-12.562 16.75-29.603 16.989-50.805-12.181.336-22.979 3.333-32.399 8.663-10.78 6.1-19.847 15.309-27.197 27.131zm-10.539 45.444l.656-46.602a4.93 4.93 0 01.704-2.859c8.337-13.792 18.831-24.57 31.486-31.731 12.173-6.888 26.257-10.381 42.249-9.943a4.952 4.952 0 014.886 4.795c.85 26.026-6.764 46.915-19.15 62.156-14.133 17.391-34.423 27.356-55.456 29.191l-.001-.018a4.949 4.949 0 01-5.374-4.989z"/><path fill="#7EAEA6" d="M258.608 207.254l-.561-39.866c-7.329-11.775-16.479-20.959-27.338-27.062-9.56-5.373-20.497-8.394-32.737-8.732.252 21.139 6.864 38.149 17.141 50.709 11.262 13.764 26.961 22.232 43.495 24.951z"/><path fill-rule="nonzero" d="M267.929 166.23l.657 46.602a4.95 4.95 0 01-5.375 4.989l-.001.018c-21.065-1.838-41.524-11.823-55.782-29.248-12.46-15.229-20.153-36.096-19.304-62.099a4.95 4.95 0 014.887-4.795c16.032-.439 30.257 3.066 42.55 9.974 12.74 7.159 23.338 17.925 31.665 31.7.539.894.762 1.89.703 2.859zm-9.321 41.024l-.561-39.866c-7.329-11.775-16.479-20.959-27.338-27.062-9.56-5.373-20.497-8.394-32.737-8.732.252 21.139 6.864 38.149 17.141 50.709 11.262 13.764 26.961 22.232 43.495 24.951z"/><path fill="#7EAEA6" d="M264.19 158.674c2.912-4.255 5.948-8.202 9.335-11.898 4.508-4.917 9.559-9.29 15.646-13.203-.351-15.44-2.787-29.241-7.4-41.016-4.107-10.484-9.955-19.344-17.609-26.299-8.204 7.406-14.095 16.86-17.957 27.408-4.621 12.62-6.353 26.801-5.686 40.969 6.241 3.982 11.041 8.211 15.24 12.944 3.052 3.441 5.746 7.097 8.431 11.095z"/><path fill-rule="nonzero" d="M264.19 158.674c2.912-4.255 5.948-8.202 9.335-11.898 4.508-4.917 9.559-9.29 15.646-13.203-.351-15.44-2.787-29.241-7.4-41.016-4.107-10.484-9.955-19.344-17.609-26.299-8.204 7.406-14.095 16.86-17.957 27.408-4.621 12.62-6.353 26.801-5.686 40.969 6.241 3.982 11.041 8.211 15.24 12.944 3.052 3.441 5.746 7.097 8.431 11.095zm16.632-5.222c-4.494 4.903-8.435 10.531-12.425 16.944l-.005-.002a4.954 4.954 0 01-8.398.021c-3.958-6.267-7.513-11.614-11.648-16.276-3.988-4.496-8.605-8.466-14.812-12.205a4.96 4.96 0 01-2.769-4.126c-1.094-16.313.736-32.839 6.125-47.557 4.936-13.478 12.847-25.445 24.217-34.39a4.966 4.966 0 016.152.019c10.592 8.417 18.47 19.592 23.749 33.067 5.297 13.52 7.957 29.382 8.099 47.105a4.95 4.95 0 01-2.404 4.506c-6.356 3.788-11.437 8.048-15.881 12.894z"/><path fill-rule="nonzero" d="M269.358 166.921a4.968 4.968 0 11-9.936 0v-55.224a4.968 4.968 0 119.936 0v55.224zM268.834 211.112a4.956 4.956 0 01-8.888 4.386c-5.538-11.156-11.48-20.329-17.79-28.226-6.306-7.894-12.983-14.516-19.996-20.572a4.953 4.953 0 016.482-7.491c7.46 6.443 14.565 13.489 21.277 21.891 6.709 8.397 13.026 18.15 18.915 30.012z"/><path fill-rule="nonzero" d="M268.873 215.42a4.958 4.958 0 01-8.966-4.23c5.72-12.107 11.962-22.007 18.693-30.438 6.743-8.448 13.972-15.412 21.655-21.64a4.953 4.953 0 016.249 7.685c-7.147 5.793-13.871 12.271-20.141 20.126-6.284 7.871-12.123 17.138-17.49 28.497z"/><path fill-rule="nonzero" d="M269.358 230.937a4.968 4.968 0 11-9.936 0v-18.713a4.968 4.968 0 019.936 0v18.713zM258.747 350.422a4.949 4.949 0 11-8.733 4.657c-4.017-7.523-7.212-15.342-9.241-23.491-2.05-8.236-2.917-16.794-2.254-25.707a4.961 4.961 0 019.898.699c-.585 7.855.177 15.392 1.982 22.64 1.826 7.335 4.712 14.393 8.348 21.202zM172.18 367.5a4.949 4.949 0 11-9.897-.078l.242-25.774a4.949 4.949 0 119.898.078l-.243 25.774zM130.374 363.945a4.965 4.965 0 01-9.781 1.708l-5.566-31.341a4.965 4.965 0 019.781-1.708l5.566 31.341z"/><path fill="#000101" d="M74.712 130.129c4.977 0 7.182 4.266 7.334 9.672.151 5.406-2.362 9.177-5.579 8.707-3.217-.47-5.844-3.838-6.737-8.707-.892-4.869.004-9.672 4.982-9.672zM118.675 130.129c-4.977 0-7.182 4.266-7.334 9.672-.151 5.406 2.362 9.177 5.579 8.707 3.217-.47 5.844-3.838 6.737-8.707.892-4.869-.004-9.672-4.982-9.672z"/><path fill="#EFCEBE" d="M69.827 174.088a71.185 71.185 0 002.606 4.249c6.233 9.391 14.345 16.349 23.633 16.532.301.006.61.005.926-.003 10.574-.267 19.926-8.836 26.772-19.89.278-.45.552-.905.823-1.362-18.167-2.468-36.549-2.017-54.76.474z"/><path fill="#000101" d="M90.494 170.518h12.507c2.159 0 4.42.528 5.335 2.113 2.692 4.662-.817 11.566-6.497 13.571-1.984.7-6.292.806-8.382.281-6.307-1.584-10.872-9.419-8.555-13.883.876-1.687 3.386-2.082 5.592-2.082z"/></svg>