<svg xmlns="http://www.w3.org/2000/svg" shape-rendering="geometricPrecision" text-rendering="geometricPrecision" image-rendering="optimizeQuality" fill-rule="evenodd" clip-rule="evenodd" viewBox="0 0 512 326.45"><path fill="#CBC9E4" d="M283.21 241.43c15.35 4.61 30.07 6.63 45.05 6.59 15.09-.04 30.58-2.19 47.36-5.88 2.11-.47 4.19.68 4.98 2.61 3.24 6.13 9.74 13.09 15.99 19.8 8.87 9.5 17.3 18.53 17.52 26.58.1 3.23-.9 6.06-2.44 8.64-1.37 2.29-3.1 4.28-4.84 6.17-2.24 2.43-4.11 5.07-4.93 7.34-.31.86-.45 1.57-.33 2.01.02.11.19.24.54.41.95.46 2.5.72 4.78.72h33.97c19.11-8.32 12.18-27.13 6.17-43.41-1.38-3.76-2.73-7.4-3.74-10.77-6.51-21.5.15-33.84 8.3-48.94 2.39-4.43 4.92-9.13 7.24-14.4 7.88-17.9 9.56-38.07 6.06-57.4-3.61-19.99-12.74-39.07-26.24-53.83-14.95-16.35-34.82-28.4-56.65-36.55-24.76-9.26-52.01-13.51-77.53-13.39-1.19.01-2.26-.46-3.05-1.23-15.99-15.49-31.85-24.11-47.58-25.78-15.57-1.66-31.27 3.52-47.09 15.6a4.374 4.374 0 01-4.55.46c-9.86-4.8-19.06-7.89-27.64-9.38-8.49-1.48-16.38-1.41-23.71.06-26.15 5.26-45.52 27.83-59.09 56.23-19.25 40.28-26.73 91.97-25.52 123.73.44 11.53 1.38 22.58 3.13 33.17 1.75 10.51 4.3 20.54 7.97 30.09 3.05 7.93 7.7 15.6 14.02 20.76 5.01 4.08 11.12 6.58 18.39 6.31 6.24-.24 12.02-3.05 16.56-7.3 4.88-4.57 8.32-10.77 9.39-17.23.26-1.54.4-3.1.4-4.65v-.36c-1.94.27-3.8.36-5.58.29a26.29 26.29 0 01-4.43-.57c-1.49 5.04-3.93 8.62-6.77 10.7-2.19 1.61-4.63 2.37-7.12 2.29h-.08c-2.43-.1-4.8-.98-6.91-2.65-3.89-3.06-7.07-8.97-8.06-17.57-1.39-12.06 1.46-28.06 4.34-44.29l.72-4.02a4.34 4.34 0 012.3-3.13c4.25-2.63 8.37-5.63 12.3-8.92 4.12-3.44 7.95-7.13 11.44-10.98a4.336 4.336 0 016.13-.31c.22.2.42.42.59.65 2.91 3.96 5.26 6.32 7.16 7.49l.26.18c.85.48 1.39.6 1.7.47.7-.29 1.71-1.61 2.86-3.13 1.14-1.5 2.38-3.13 4.06-4.74v-.01c5.78-5.53 13.38-6.3 21.29-7.1.92-.1 1.82-.19 3.51-.38a4.359 4.359 0 014.65 3.02c3.14 7.8 7.15 14.38 12.13 20.07 5.05 5.74 11.15 10.61 18.41 14.92 1.17.69 1.9 1.84 2.09 3.08 1.44 8.49 3.39 16.84 5.92 24.99 2.51 8.11 5.62 16.08 9.4 23.84l12.86 22.56c.97 1.72 1.63 3.38 2 4.98.39 1.73.46 3.4.24 5v.01c-.64 4.64-3.15 7.21-5.73 9.83-1.71 1.75-3.48 3.55-3.67 6.04-.06.78.04 1.57.32 2.34.32.9.88 1.84 1.68 2.82 1.4 1.71 3.65 1.63 7.42 1.49 1.54-.05 3.25-.12 4.56-.12h15.61l3.21.05c6.85.09 12.22.17 17.27-5.35v-.01c.84-.92 1.52-1.89 2.04-2.92.52-1.04.91-2.2 1.16-3.49.48-2.45.43-4.53.04-6.4-.41-1.99-1.2-3.89-2.15-5.81-3.76-7.68-5.7-12.99-6.76-18.61-1.04-5.53-1.19-11.15-1.39-19.62-.04-1.8-.05-3.42 0-5.02v-.04c.05-1.77.14-3.37.28-4.97.2-2.39 2.32-4.17 4.71-3.97.39.04.75.12 1.1.24z"/><path fill-rule="nonzero" d="M283.21 241.43c15.35 4.61 30.07 6.63 45.05 6.59 15.09-.04 30.58-2.19 47.36-5.88 2.11-.47 4.19.68 4.98 2.61 3.24 6.13 9.74 13.09 15.99 19.8 8.87 9.5 17.3 18.53 17.52 26.58.1 3.23-.9 6.06-2.44 8.64-1.37 2.29-3.1 4.28-4.84 6.17-2.24 2.43-4.11 5.07-4.93 7.34-.31.86-.45 1.57-.33 2.01.02.11.19.24.54.41.95.46 2.5.72 4.78.72h33.97c19.11-8.32 12.18-27.13 6.17-43.41-1.38-3.76-2.73-7.4-3.74-10.77-6.51-21.5.15-33.84 8.3-48.94 2.39-4.43 4.92-9.13 7.24-14.4 7.88-17.9 9.56-38.07 6.06-57.4-3.61-19.99-12.74-39.07-26.24-53.83-14.95-16.35-34.82-28.4-56.65-36.55-24.76-9.26-52.01-13.51-77.53-13.39-1.19.01-2.26-.46-3.05-1.23-15.99-15.49-31.85-24.11-47.58-25.78-15.57-1.66-31.27 3.52-47.09 15.6a4.374 4.374 0 01-4.55.46c-9.86-4.8-19.06-7.89-27.64-9.38-8.49-1.48-16.38-1.41-23.71.06-26.15 5.26-45.52 27.83-59.09 56.23-19.25 40.28-26.73 91.97-25.52 123.73.44 11.53 1.38 22.58 3.13 33.17 1.75 10.51 4.3 20.54 7.97 30.09 3.05 7.93 7.7 15.6 14.02 20.76 5.01 4.08 11.12 6.58 18.39 6.31 6.24-.24 12.02-3.05 16.56-7.3 4.88-4.57 8.32-10.77 9.39-17.23.26-1.54.4-3.1.4-4.65v-.36c-1.94.27-3.8.36-5.58.29a26.29 26.29 0 01-4.43-.57c-1.49 5.04-3.93 8.62-6.77 10.7-2.19 1.61-4.63 2.37-7.12 2.29h-.08c-2.43-.1-4.8-.98-6.91-2.65-3.89-3.06-7.07-8.97-8.06-17.57-1.39-12.06 1.46-28.06 4.34-44.29l.72-4.02a4.34 4.34 0 012.3-3.13c4.25-2.63 8.37-5.63 12.3-8.92 4.12-3.44 7.95-7.13 11.44-10.98a4.336 4.336 0 016.13-.31c.22.2.42.42.59.65 2.91 3.96 5.26 6.32 7.16 7.49l.26.18c.85.48 1.39.6 1.7.47.7-.29 1.71-1.61 2.86-3.13 1.14-1.5 2.38-3.13 4.06-4.74v-.01c5.78-5.53 13.38-6.3 21.29-7.1.92-.1 1.82-.19 3.51-.38a4.359 4.359 0 014.65 3.02c3.14 7.8 7.15 14.38 12.13 20.07 5.05 5.74 11.15 10.61 18.41 14.92 1.17.69 1.9 1.84 2.09 3.08 1.44 8.49 3.39 16.84 5.92 24.99 2.51 8.11 5.62 16.08 9.4 23.84l12.86 22.56c.97 1.72 1.63 3.38 2 4.98.39 1.73.46 3.4.24 5v.01c-.64 4.64-3.15 7.21-5.73 9.83-1.71 1.75-3.48 3.55-3.67 6.04-.06.78.04 1.57.32 2.34.32.9.88 1.84 1.68 2.82 1.4 1.71 3.65 1.63 7.42 1.49 1.54-.05 3.25-.12 4.56-.12h15.61l3.21.05c6.85.09 12.22.17 17.27-5.35v-.01c.84-.92 1.52-1.89 2.04-2.92.52-1.04.91-2.2 1.16-3.49.48-2.45.43-4.53.04-6.4-.41-1.99-1.2-3.89-2.15-5.81-3.76-7.68-5.7-12.99-6.76-18.61-1.04-5.53-1.19-11.15-1.39-19.62-.04-1.8-.05-3.42 0-5.02v-.04c.05-1.77.14-3.37.28-4.97.2-2.39 2.32-4.17 4.71-3.97.39.04.75.12 1.1.24zM449.93 87.54c24.37 26.42 45.36 59.06 44.16 95.5-.22 6.88-1.1 15.28-2.69 22.28-2.28 9.98-7.65 18.95-8.34 28.74-.47 6.75.31 11.12 2.09 15.43 1.19 2.88 4.76 7.55 6.24 11.35 3.91 10.03-9.9 6.74-14.84 2.31-2.84-2.54-4.97-5.94-5.89-9.43-5.6-21.12 7.88-35.13 11.37-53.01 1.61-8.23 2.13-17.14 1.72-26.81-2.21-13.81-6.07-27.21-11.51-39.74.45 1.93.85 3.86 1.2 5.8 3.8 20.99 1.96 42.92-6.64 62.45-2.42 5.51-5.06 10.4-7.55 15.01-7.19 13.34-13.08 24.24-7.62 42.3.99 3.27 2.27 6.73 3.58 10.29 7.41 20.09 15.97 43.32-11.56 54.69-.58.28-1.23.44-1.91.44h-34.85c-3.63 0-6.44-.58-8.56-1.6-2.87-1.38-4.51-3.49-5.18-6.07-.58-2.24-.31-4.67.57-7.12 1.25-3.45 3.78-7.12 6.71-10.31 1.43-1.56 2.84-3.16 3.78-4.73.76-1.28 1.26-2.59 1.22-3.94-.14-4.74-7.48-12.61-15.21-20.89-5.84-6.27-11.89-12.75-15.85-19.16-16.09 3.39-31.19 5.34-46.11 5.39-14.19.04-28.13-1.66-42.47-5.49-.02 1.19-.01 2.42.02 3.77.19 8 .32 13.3 1.25 18.22.91 4.82 2.63 9.5 6.01 16.4 1.23 2.5 2.28 5.02 2.86 7.88.61 2.96.72 6.16 0 9.8-.39 2-1.04 3.91-1.94 5.71-.91 1.8-2.04 3.45-3.4 4.93l-.01-.01c-7.69 8.39-14.76 8.29-23.78 8.16l-18.71-.01c-1.94 0-3.15.05-4.26.09-6.47.24-10.33.38-14.47-4.7-1.41-1.73-2.44-3.53-3.1-5.37-.72-1.98-1-3.98-.84-5.96.45-5.61 3.34-8.56 6.17-11.45 1.54-1.58 3.06-3.12 3.3-4.92.08-.57.05-1.2-.11-1.87-.18-.81-.54-1.68-1.08-2.64l-12.84-22.53c-.11-.16-.2-.33-.29-.51-3.94-8.09-7.21-16.48-9.88-25.1-2.45-7.92-4.38-16-5.85-24.18-7.27-4.5-13.5-9.62-18.79-15.64-5.02-5.73-9.17-12.26-12.5-19.82l-.39.04c-6.38.65-12.51 1.27-16.15 4.75-1.17 1.1-2.2 2.45-3.15 3.7-1.91 2.52-3.6 4.73-6.46 5.92-2.77 1.15-5.92 1.01-9.47-1.06l-.36-.2c-1.94-1.19-4.06-3.05-6.39-5.72-2.81 2.86-5.74 5.58-8.78 8.12-3.77 3.15-7.77 6.09-11.94 8.76l-.38 2.13c-2.78 15.62-5.52 31.03-4.28 41.8.7 6.09 2.58 9.97 4.79 11.71.66.52 1.29.79 1.85.82h.03c.54.01 1.12-.2 1.71-.62h.02c1.92-1.41 3.56-4.62 4.32-9.76.05-.52.18-1.04.43-1.54a4.358 4.358 0 015.82-2.01c1.84.89 3.88 1.4 6.12 1.5 2.31.1 4.84-.21 7.61-.95.23-.08.47-.14.72-.18a4.354 4.354 0 015.03 3.56c.36 2.11.54 4.23.53 6.33 0 2.09-.17 4.11-.49 6.05-1.39 8.34-5.79 16.31-12.05 22.16-6 5.62-13.73 9.33-22.18 9.65-9.59.36-17.63-2.91-24.18-8.25-7.6-6.19-13.11-15.19-16.65-24.4-3.91-10.19-6.61-20.77-8.44-31.79-1.82-10.93-2.78-22.35-3.23-34.27-1.25-32.78 6.48-86.16 26.37-127.78 14.65-30.66 35.94-55.11 65.22-60.99 8.42-1.7 17.36-1.79 26.88-.14 8.7 1.52 17.89 4.48 27.59 8.99 16.95-12.33 34-17.56 51.14-15.73 17.28 1.83 34.43 10.85 51.44 26.98 25.99.07 53.64 4.51 78.83 13.93 23.04 8.61 44.08 21.39 60.02 38.83 1.69 1.85 3.32 3.76 4.88 5.73z"/><path fill="#AAA9CA" d="M286.35 242.28c15.36 4.61 26.93 5.78 41.91 5.74 14.28-.04 27.82-1.67 43.58-5.01l1.1-25.24c-26.46 8.59-62.8 4.81-89.5-1.96 1.94 10.07 3.17 17.21 2.91 26.47zm-85.42-48.34c-7.72-8.66-5.15-5.77-13.95-17.02l-6.53-1.43c3.14 7.8 7.15 14.39 12.14 20.08 3.48 3.95 5.25 5.84 9.75 9.06l-1.41-10.69z"/><path fill="#AFADCB" d="M309.29 37.64c5.7 10.54 4.39 17.44 5.66 29.22 3.99 36.88-10.87 55.47-45.05 69.27-2.15 28.62-31.73 45-59.55 21.07 19.88 33.4 62.75 32.44 74.99-9.72 42.93-27.67 51.57-64.43 36.76-109.08l-12.81-.76z"/><path fill="#A9A7C8" d="M374.38 251.33c-4.5.93-9.09 1.82-13.82 2.59-4.01.65-8.07 1.21-12.18 1.63l3.01 8.84c1.23 3.64 2.36 6.97 3.23 10.31.9 3.46 1.46 6.73 1.46 9.92 0 10.26-4.09 13.91-8.35 17.71-3.02 2.7-6.19 5.53-6.39 13.97l33.21.08c6.01.01 10.39-.82 12.8-3.21 2.35-2.32 3.23-6.62 2.46-13.69-.66-4.29-.4-8.89.51-13.69.72-3.8 1.84-7.69 3.24-11.64-3.03-3.13-6.69-7.02-10.16-11.04-3.43-3.96-6.68-8.08-9.02-11.78z"/><path fill-rule="nonzero" d="M374.38 251.33c-4.5.93-9.09 1.82-13.82 2.59-4.01.65-8.07 1.21-12.18 1.63l3.01 8.84c1.23 3.64 2.36 6.97 3.23 10.31.9 3.46 1.46 6.73 1.46 9.92 0 10.26-4.09 13.91-8.35 17.71-3.02 2.7-6.19 5.53-6.39 13.97l33.21.08c6.01.01 10.39-.82 12.8-3.21 2.35-2.32 3.23-6.62 2.46-13.69-.66-4.29-.4-8.89.51-13.69.72-3.8 1.84-7.69 3.24-11.64-3.03-3.13-6.69-7.02-10.16-11.04-3.43-3.96-6.68-8.08-9.02-11.78zm-15.22-6c5.54-.9 11.06-2 16.48-3.16 1.86-.38 3.83.48 4.75 2.25 1.92 3.66 5.59 8.39 9.58 13 4.01 4.64 8.32 9.15 11.54 12.42a4.357 4.357 0 011.16 4.79c-1.7 4.44-3.04 8.74-3.8 12.76-.73 3.86-.95 7.5-.45 10.8l.02.17c1.14 10.07-.63 16.69-4.96 20.98-4.29 4.25-10.67 5.74-18.93 5.73l-37.15-.1a4.35 4.35 0 01-4.64-4.03c-1.12-15.88 4.16-20.6 9.18-25.08 2.77-2.47 5.42-4.84 5.42-11.24 0-2.45-.45-5-1.16-7.74-.74-2.87-1.84-6.13-3.05-9.69l-4.76-13.99c-.14-.38-.23-.8-.26-1.23a4.353 4.353 0 014.05-4.63c5.79-.39 11.45-1.11 16.98-2.01z"/><path fill="#A9A7C8" d="M204.77 216.78c-3.89-2.45-7.53-4.98-10.96-7.85-2.1-1.75-4.12-3.64-6.06-5.7-3 8.89-5.62 17.86-7.85 26.93a333.563 333.563 0 00-6.69 34.93 396.473 396.473 0 00-1.18 9.73c-.36 3.44.01 6.24.34 8.64.97 7.18 1.6 11.85-8.93 19.3-.8.57-1.64 1.22-2.44 2.03-.73.72-1.43 1.6-2.05 2.71-1.18 2.1-1.7 4.23-1.46 5.94l.01.11c.08.52.24.99.48 1.36.22.35.52.64.89.85.94.53 2.41.73 4.48.44.2-.03.39-.04.58-.04l31.46-.01c3.44-.18 6.41-.91 8.58-2.42 1.95-1.36 3.34-3.52 3.92-6.71.03-1.04.01-2.07-.09-3.08a26.1 26.1 0 00-.55-3.38c-.34-1.49-.7-2.96-1.01-4.21-.94-3.8-1.43-5.8-1.09-8.44.35-2.78 1.52-5.14 3.97-10.1l1.48-2.98c1.35-2.73 2.75-5.35 4.21-7.85 1.13-1.94 2.32-3.87 3.58-5.8-2.82-6.97-5.57-14.01-7.94-21.31-2.43-7.45-4.43-15.1-5.68-23.09z"/><path fill-rule="nonzero" d="M204.77 216.78c-3.89-2.45-7.53-4.98-10.96-7.85-2.1-1.75-4.12-3.64-6.06-5.7-3 8.89-5.62 17.86-7.85 26.93a333.563 333.563 0 00-6.69 34.93 396.473 396.473 0 00-1.18 9.73c-.36 3.44.01 6.24.34 8.64.97 7.18 1.6 11.85-8.93 19.3-.8.57-1.64 1.22-2.44 2.03-.73.72-1.43 1.6-2.05 2.71-1.18 2.1-1.7 4.23-1.46 5.94l.01.11c.08.52.24.99.48 1.36.22.35.52.64.89.85.94.53 2.41.73 4.48.44.2-.03.39-.04.58-.04l31.46-.01c3.44-.18 6.41-.91 8.58-2.42 1.95-1.36 3.34-3.52 3.92-6.71.03-1.04.01-2.07-.09-3.08a26.1 26.1 0 00-.55-3.38c-.34-1.49-.7-2.96-1.01-4.21-.94-3.8-1.43-5.8-1.09-8.44.35-2.78 1.52-5.14 3.97-10.1l1.48-2.98c1.35-2.73 2.75-5.35 4.21-7.85 1.13-1.94 2.32-3.87 3.58-5.8-2.82-6.97-5.57-14.01-7.94-21.31-2.43-7.45-4.43-15.1-5.68-23.09zm8.54-2.43c.1.45.13.9.1 1.33 1.17 7.39 3.05 14.52 5.32 21.5 2.5 7.7 5.51 15.29 8.59 22.84.51 1.29.4 2.81-.43 4.05-1.58 2.35-3.1 4.78-4.55 7.28-1.43 2.45-2.75 4.89-3.94 7.31l-1.47 3c-2.03 4.1-3 6.06-3.16 7.34-.13 1.01.23 2.48.92 5.28.28 1.14.62 2.49 1.04 4.37.34 1.48.58 2.98.72 4.51.14 1.49.18 2.97.12 4.43-.01.2-.02.4-.06.59-.97 5.89-3.67 9.99-7.57 12.71-3.6 2.5-8.1 3.69-13.13 3.95l-.55.03h-31.15c-3.88.47-7.04-.16-9.5-1.55-1.7-.95-3.02-2.25-3.99-3.78-.89-1.42-1.47-3.03-1.73-4.75l-.02-.16c-.49-3.58.38-7.66 2.48-11.38a20.93 20.93 0 013.48-4.59c1.17-1.18 2.41-2.14 3.61-2.99 6.21-4.4 5.86-7.02 5.31-11.05-.39-2.89-.85-6.25-.37-10.72l.56-4.98c.16-1.3.38-2.96.65-4.98 1.65-12.11 3.94-24.06 6.86-35.86 2.91-11.8 6.46-23.47 10.63-35 .29-.77.79-1.48 1.5-2.01a4.353 4.353 0 016.08.9c2.98 4.02 6.22 7.34 9.74 10.29 1 .83 2.02 1.64 3.07 2.43-.11-.65-.21-1.3-.31-1.95-.59-3.85-1.03-7.75-1.16-11.44a4.338 4.338 0 014.19-4.49c2.4-.09 4.41 1.79 4.49 4.19.12 3.13.53 6.72 1.1 10.41v.02c.68 4.47 1.6 8.95 2.53 12.92zM72.17 116.84a4.35 4.35 0 01-3.62-4.97 4.352 4.352 0 014.98-3.61l19.21 3.08c2.37.38 3.99 2.61 3.61 4.98-.37 2.37-2.6 3.98-4.97 3.61l-19.21-3.09zm69.19-20.82c6.98 0 12.64 5.44 12.64 12.14 0 6.71-5.66 12.15-12.64 12.15s-12.64-5.44-12.64-12.15c0-6.7 5.66-12.14 12.64-12.14zm-77.81 68.57c-2.39-.12-4.24-2.17-4.12-4.57.12-2.39 2.17-4.24 4.57-4.12l17.5.9c2.39.12 4.24 2.16 4.12 4.56-.13 2.4-2.17 4.25-4.57 4.12l-17.5-.89zm3.6-25.16a4.352 4.352 0 01-3.83-4.82 4.345 4.345 0 014.82-3.83L87.37 133a4.352 4.352 0 11-.99 8.65l-19.23-2.22zM194.18 41.52a4.356 4.356 0 01-5.93 1.64 4.344 4.344 0 01-1.63-5.93c1.96-3.48 4.2-6.75 6.7-9.75 2.41-2.88 5.11-5.55 8.1-7.94C230.72-3.88 258.5-4.1 279.84 7.62c13.05 7.16 23.61 18.84 30.54 32.41 6.91 13.52 10.23 28.96 8.85 43.69-2.22 23.49-16.17 45.12-46.25 54.55-3.04 16.09-11.16 26.39-21.08 30.95-5.37 2.47-11.25 3.23-17.13 2.3h-.02c-5.75-.91-11.5-3.45-16.75-7.6-13.14-10.39-23.28-31.09-22.33-61.66.08-2.4 2.08-4.28 4.48-4.21 2.4.08 4.29 2.09 4.21 4.48-.86 27.47 7.79 45.7 19.02 54.57 4.04 3.2 8.41 5.15 12.73 5.83 4.2.67 8.38.13 12.18-1.62 7.93-3.64 14.41-12.61 16.54-27.07a4.385 4.385 0 013.13-3.56c27.84-7.81 40.66-26.96 42.61-47.75 1.23-13.09-1.74-26.86-7.92-38.95-6.16-12.06-15.5-22.42-27-28.73-18.47-10.14-42.78-9.74-68.81 11.07-2.45 1.96-4.74 4.23-6.84 6.75a56.284 56.284 0 00-5.82 8.45zM286.08 246.17a4.35 4.35 0 01-4.6 4.08 4.35 4.35 0 01-4.09-4.59c.53-8.45-.14-17.1-1.71-25.53-1.71-9.16-4.48-18.09-7.94-26.24-.94-2.21.09-4.76 2.3-5.7 2.21-.94 4.76.09 5.7 2.3 3.69 8.69 6.66 18.24 8.49 28.08 1.69 9.1 2.41 18.45 1.85 27.6zM366.27 192.7c.54-2.35 2.89-3.8 5.23-3.26 2.34.55 3.8 2.89 3.25 5.23-5.4 22.9-.2 35.41 5.32 48.69l.63 1.53c.92 2.22-.13 4.77-2.35 5.69-2.22.92-4.77-.13-5.69-2.35l-.63-1.53c-6.08-14.62-11.8-28.39-5.76-54zM67.84 243.51c-2.31.65-4.72-.7-5.37-3.01a4.36 4.36 0 013.02-5.37l16.75-4.69c2.31-.65 4.72.7 5.36 3.01.65 2.32-.7 4.72-3.01 5.37l-16.75 4.69zM176.83 181.13c-2.36.45-4.64-1.1-5.09-3.46a4.353 4.353 0 013.46-5.09c3-.58 5.74-1.86 8.2-3.55 3.09-2.12 5.75-4.87 7.91-7.68 1.47-1.9 4.2-2.25 6.1-.78 1.9 1.46 2.25 4.2.78 6.09-2.66 3.46-5.97 6.87-9.88 9.56-3.38 2.31-7.21 4.09-11.48 4.91z"/><path fill="#F4D6C7" d="M128.76 178.66l-13.34-7.63c-10.82 12.85-24.03 21.77-38.95 27.86-12.31 5.02-25.77 8.09-40.02 9.85 12.21 6.51 25.2 8.16 38.92 4.74 16.6-4.14 34.43-15.63 53.39-34.82z"/><path fill-rule="nonzero" d="M128.76 178.66l-13.34-7.63c-10.82 12.85-24.03 21.77-38.95 27.86-12.31 5.02-25.77 8.09-40.02 9.85 12.21 6.51 25.2 8.16 38.92 4.74 16.6-4.14 34.43-15.63 53.39-34.82zm17.89-29.12a4.348 4.348 0 014.56-4.12c2.4.13 4.25 2.17 4.13 4.57-.44 8.43-2.65 14.52-6.43 20.06-13.71 20.11-51.09 46.8-71.46 51.88-20.19 5.03-38.93.62-56.12-12.73a4.327 4.327 0 01-1.92-3.31 4.361 4.361 0 014.04-4.65c17.99-1.28 34.84-4.35 49.75-10.43 14.6-5.95 27.37-14.83 37.56-27.82a4.365 4.365 0 015.78-1.35l18.92 10.81c2.49-2.5 4.6-4.86 6.26-7.3 2.89-4.24 4.59-8.97 4.93-15.61z"/><path fill="#E0BDA9" d="M128.76 178.66l-6.32-3.62c-11.7 22.61-44.52 30.51-80.26 36.37 10.52 4.23 21.59 4.96 33.19 2.07 16.61-4.14 34.43-15.63 53.39-34.82z"/><path fill="#F4D6C7" d="M57.46 195.99c-.13-2.94-.19-5.88-.14-8.82-5.54.82-11.06 1.28-17.23 1.26-5.61-.01-11.71-.42-18.8-1.31 3.3 3.45 7.35 6.06 11.99 7.73 6.86 2.47 15.07 2.95 24.18 1.14z"/><path fill-rule="nonzero" d="M66.23 182.26c-.37 5.59-.24 11.23.12 16.87a4.34 4.34 0 01-3.57 4.55c-12.12 3.06-23.18 2.68-32.43-.65-9.79-3.53-17.5-10.28-22.28-19.68a4.365 4.365 0 011.91-5.86c.93-.47 1.96-.58 2.91-.37 11.1 1.8 19.69 2.61 27.2 2.63 7.5.02 14.03-.73 21-2.04a4.343 4.343 0 015.07 3.47c.07.36.09.72.07 1.08zm-8.77 13.73c-.13-2.94-.19-5.88-.14-8.82-5.54.82-11.06 1.28-17.23 1.26-5.61-.01-11.71-.42-18.8-1.31 3.3 3.45 7.35 6.06 11.99 7.73 6.86 2.47 15.07 2.95 24.18 1.14zM205.83 78.45a4.356 4.356 0 01-5.33 3.08 4.356 4.356 0 01-3.08-5.33c3-11.15 8.46-20.04 16.07-26.57 7.67-6.59 17.46-10.7 29.08-12.27a4.35 4.35 0 011.16 8.62c-9.93 1.34-18.21 4.78-24.59 10.26-6.26 5.37-10.77 12.8-13.31 22.21z"/><path fill="#718769" d="M25.7 316.39l30.22-.12c.79-4.52 1.96-8.91 3.51-13.18.66-1.82 1.39-3.62 2.2-5.39-2.18 1.49-4.3 3.37-6.39 5.56-.58.61-1.33 1.05-2.21 1.25-2.34.51-4.66-.96-5.18-3.31-2.35-10.53-6.45-20.07-12.41-26.91-2.29-2.63-4.87-4.86-7.74-6.57a76.6 76.6 0 015.44 11.25c3.02 7.83 4.71 16.14 5.03 24.9.03 1.02-.29 2.06-.99 2.91a4.336 4.336 0 01-6.11.6c-4.83-3.96-9.7-6.95-14.36-8.39-.68-.21-1.35-.39-2.01-.53 2.26 2.29 4.27 4.58 5.94 6.89 2.61 3.63 4.4 7.3 5.06 11.04z"/><path fill-rule="nonzero" d="M59.68 324.94l-38.07.15c-2.4.01-4.36-1.92-4.36-4.32l.01-.38h-.01c.26-3.12-1.15-6.47-3.67-9.97-2.88-3.99-7.13-8.08-12.03-12.22a4.332 4.332 0 01-.53-6.11c.5-.59 1.12-1.02 1.79-1.27 5.31-2.02 10.86-1.88 16.46-.15 3.09.96 6.2 2.42 9.28 4.27-.75-4.43-1.92-8.71-3.51-12.84-2.69-6.96-6.59-13.52-11.69-19.67a4.359 4.359 0 01.58-6.13 4.395 4.395 0 013.52-.94c10.07 1.07 18.22 5.93 24.57 13.21 5.51 6.34 9.64 14.54 12.43 23.63 1.45-1.15 2.94-2.17 4.47-3.07 3.67-2.15 7.56-3.51 11.69-3.9 2.39-.21 4.51 1.55 4.72 3.94.09 1-.16 1.95-.67 2.74-2.94 4.57-5.28 9.28-7.05 14.14a69.264 69.264 0 00-3.64 15.08 4.344 4.344 0 01-4.29 3.81zm-33.98-8.55l30.22-.12c.79-4.52 1.96-8.91 3.51-13.18.66-1.82 1.39-3.62 2.2-5.39-2.18 1.49-4.3 3.37-6.39 5.56-.58.61-1.33 1.05-2.21 1.25-2.34.51-4.66-.96-5.18-3.31-2.35-10.53-6.45-20.07-12.41-26.91-2.29-2.63-4.87-4.86-7.74-6.57a76.6 76.6 0 015.44 11.25c3.02 7.83 4.71 16.14 5.03 24.9.03 1.02-.29 2.06-.99 2.91a4.336 4.336 0 01-6.11.6c-4.83-3.96-9.7-6.95-14.36-8.39-.68-.21-1.35-.39-2.01-.53 2.26 2.29 4.27 4.58 5.94 6.89 2.61 3.63 4.4 7.3 5.06 11.04z"/><path fill="#AAA9CA" d="M379.72 243.39c.37.38.67.84.88 1.35 3.24 6.14 9.74 13.1 15.99 19.81 8.87 9.5 17.3 18.53 17.52 26.58.1 3.23-.9 6.06-2.44 8.64-1.37 2.29-3.1 4.28-4.84 6.17-2.24 2.44-4.11 5.07-4.93 7.34-.31.87-.45 1.57-.33 2.01.03.11.19.25.54.41.95.46 2.5.72 4.78.72h33.98c19.1-8.32 12.17-27.13 6.16-43.41-1.38-3.76-2.73-7.41-3.74-10.77-6.51-21.51.15-33.84 8.3-48.94 2.39-4.43 4.92-9.13 7.24-14.4 7.89-17.9 9.56-38.07 6.06-57.4-3.49-19.31-12.13-37.77-24.88-52.31l.17.43c29.83 74.09-2.99 125.05-60.46 153.77z"/><path fill-rule="nonzero" d="M507.9 317.65a4.1 4.1 0 110 8.2h-22.32c-2.27 0-4.11-1.83-4.11-4.1 0-2.27 1.84-4.1 4.11-4.1h22.32zm-503.52 8.8a4.1 4.1 0 01-4.1-4.1c0-2.27 1.84-4.11 4.1-4.11h469.83a4.11 4.11 0 014.11 4.11c0 2.27-1.84 4.1-4.11 4.1H4.38z"/></svg>