<svg xmlns="http://www.w3.org/2000/svg" shape-rendering="geometricPrecision" text-rendering="geometricPrecision" image-rendering="optimizeQuality" fill-rule="evenodd" clip-rule="evenodd" viewBox="0 0 438 511.75"><path fill="#E38A49" d="M70.855 122.993c-5.706 8.08-10.577 16.266-15.381 24.34-9.271 15.581-18.31 30.77-31.347 42.945 75.348-3.664 96.868 24.597 114.656 47.972l.694.911c5.893 7.738 10.673 13.418 14.824 16.926 3.247 2.743 5.867 3.974 8.198 3.661 2.246-.302 4.791-1.924 7.874-4.888 3.648-3.508 7.815-8.758 12.811-15.736a5.57 5.57 0 01.226-.294l.417-.583c16.836-23.534 37.193-51.979 113.553-48.2-13.18-11.85-21.957-27.33-31.004-43.289-4.556-8.037-9.184-16.201-14.349-23.82-7.628-11.255-16.841-20.49-27.083-27.723-18.551-13.103-40.457-19.604-62.435-19.633-22.029-.029-44.13 6.422-63.015 19.222-10.782 7.309-20.533 16.712-28.639 28.189z"/><path fill="#18252E" fill-rule="nonzero" d="M70.855 122.993c-5.706 8.08-10.577 16.266-15.381 24.34-9.271 15.581-18.31 30.77-31.347 42.945 75.348-3.664 96.868 24.597 114.656 47.972l.694.911c5.893 7.738 10.673 13.418 14.824 16.926 3.247 2.743 5.867 3.974 8.198 3.661 2.246-.302 4.791-1.924 7.874-4.888 3.648-3.508 7.815-8.758 12.811-15.736a5.57 5.57 0 01.226-.294l.417-.583c16.836-23.534 37.193-51.979 113.553-48.2-13.18-11.85-21.957-27.33-31.004-43.289-4.556-8.037-9.184-16.201-14.349-23.82-7.628-11.255-16.841-20.49-27.083-27.723-18.551-13.103-40.457-19.604-62.435-19.633-22.029-.029-44.13 6.422-63.015 19.222-10.782 7.309-20.533 16.712-28.639 28.189zm-24.908 18.684c5.035-8.462 10.14-17.042 15.816-25.079 8.88-12.573 19.61-22.908 31.511-30.973 20.764-14.075 45.046-21.168 69.235-21.136 24.238.031 48.387 7.196 68.83 21.634 11.278 7.964 21.436 18.154 29.868 30.594 5.525 8.152 10.213 16.421 14.827 24.56 11.761 20.746 23.029 40.622 44.229 50.955a5.56 5.56 0 01-2.869 10.604c-87.577-9.788-107.93 18.662-124.518 41.85l-.435.608a5.453 5.453 0 01-.208.312c-5.326 7.438-9.901 13.163-14.16 17.258-4.825 4.64-9.354 7.253-14.095 7.89-5.75.773-11.095-1.316-16.855-6.184-4.856-4.103-10.125-10.325-16.477-18.665l-.694-.912c-17.514-23.014-38.986-51.229-123.816-42.157l-.001-.007a5.55 5.55 0 01-3.393-10.303c19.915-11.71 31.358-30.94 43.205-50.849z"/><path fill="#F1B285" d="M70.855 122.993c-5.238 7.417-9.773 14.924-14.198 22.352 23.375-32.374 49.112-58.396 95.525-60.998 42.736-1.783 77.4 15.599 107.524 50.81-2.458-4.157-4.996-8.262-7.679-12.219-7.628-11.255-16.841-20.49-27.083-27.723-18.551-13.103-40.457-19.604-62.435-19.633-22.029-.029-44.13 6.422-63.015 19.222-10.782 7.309-20.533 16.712-28.639 28.189z"/><path fill="#18252E" d="M117.367 152.983c8.356 0 15.131 6.775 15.131 15.131 0 8.357-6.775 15.131-15.131 15.131-8.357 0-15.131-6.774-15.131-15.131 0-8.356 6.774-15.131 15.131-15.131zm88.818 0c8.356 0 15.131 6.775 15.131 15.131 0 8.357-6.775 15.131-15.131 15.131-8.357 0-15.131-6.774-15.131-15.131 0-8.356 6.774-15.131 15.131-15.131z"/><path fill="#FEFDFD" d="M48.827 136.537c9.654-16.3 19.309-29.514 30.815-40.205 12.44-11.559 26.906-20.053 45.653-26.136-10.755-14.75-22.423-26.44-34.746-35.708C77.982 25.037 64.67 18.072 50.905 12.92c-9.877 20.843-13.881 42.115-13.413 63.712.425 19.655 4.554 39.656 11.335 59.905z"/><path fill="#18252E" fill-rule="nonzero" d="M48.827 136.537c9.654-16.3 19.309-29.514 30.815-40.205 12.44-11.559 26.906-20.053 45.653-26.136-10.755-14.75-22.423-26.44-34.746-35.708C77.982 25.037 64.67 18.072 50.905 12.92c-9.877 20.843-13.881 42.115-13.413 63.712.425 19.655 4.554 39.656 11.335 59.905zm38.385-32.07c-12.89 11.977-23.46 27.702-34.675 47.985l-.003-.001a5.555 5.555 0 01-10.068-.717c-9.569-25.179-15.533-50.173-16.068-74.885-.536-24.792 4.396-49.192 16.626-73.065A5.565 5.565 0 0149.93.747c16.371 5.62 32.261 13.574 47.275 24.866 14.969 11.258 28.993 25.797 41.656 44.603l-.003.001a5.545 5.545 0 01-3.151 8.438c-20.586 5.661-35.759 13.978-48.495 25.812z"/><path fill="#C0CACF" d="M59.433 119.975c6.304-9.001 12.881-16.834 20.209-23.643A112.738 112.738 0 0192.377 86.09c-2.814-10.9-8.169-23.72-16.516-37.203-6.729-10.87-15.4-22.144-26.248-33.162a151.07 151.07 0 00-1.148 2.634c-4.168 41.95.791 74.683 10.968 101.616z"/><path fill="#E48A49" d="M102.078 79.568a123.54 123.54 0 0110.363-4.975 145.444 145.444 0 0112.168-4.516c-10.73-14.756-22.253-26.426-34.426-35.667a149.155 149.155 0 00-20.564-13.107c6.044 7.291 11.252 14.599 15.683 21.755 8.033 12.976 13.512 25.483 16.776 36.51z"/><path fill="#18252E" fill-rule="nonzero" d="M102.078 79.568a123.54 123.54 0 0110.363-4.975 145.444 145.444 0 0112.168-4.516c-10.73-14.756-22.253-26.426-34.426-35.667a149.155 149.155 0 00-20.564-13.107c6.044 7.291 11.252 14.599 15.683 21.755 8.033 12.976 13.512 25.483 16.776 36.51zm14.714 5.249c-5.539 2.353-10.6 4.987-15.283 7.93l-.003-.003a5.546 5.546 0 01-8.372-3.499c-2.548-11.542-8.106-25.551-17.273-40.358-7.813-12.619-18.242-25.785-31.658-38.461a5.556 5.556 0 01-1.201-6.594l.009-.018A5.566 5.566 0 0149.93.747C66.304 6.368 82.026 14.3 96.883 25.579c14.795 11.232 28.638 25.737 41.29 44.525l-.002.002a5.546 5.546 0 01-3.152 8.438c-6.572 1.807-12.615 3.888-18.227 6.273z"/><path fill="#FDFDFD" d="M132.258 249.576c-11.815-18.904-25.466-31.199-41.564-38.572-15.604-7.147-33.702-9.798-54.787-9.442-3.246 4.214-6.972 8.235-10.908 12.048-.826.8-1.661 1.59-2.502 2.37 44.861 2.258 71.956 24.844 94.879 43.959 15.208 12.682 28.436 23.709 43.195 24.902 14.759-1.193 27.987-12.22 43.196-24.902 22.923-19.115 50.017-41.701 94.879-43.959a155.18 155.18 0 01-2.503-2.37c-3.961-3.838-7.709-7.886-10.971-12.129-20.464-.974-39.211 2.131-55.454 10.142-15.734 7.759-29.238 20.193-39.816 38.065-5.098 8.614-10.491 14.64-16.091 18.14-3.942 2.464-8.016 3.703-12.194 3.734-4.138.032-8.208-1.14-12.186-3.494-5.919-3.504-11.675-9.695-17.173-18.492z"/><path fill="#18252E" fill-rule="nonzero" d="M132.258 249.576c-11.815-18.904-25.466-31.199-41.564-38.572-15.604-7.147-33.702-9.798-54.787-9.442-3.246 4.214-6.972 8.235-10.908 12.048-.826.8-1.661 1.59-2.502 2.37 44.861 2.258 71.956 24.844 94.879 43.959 15.208 12.682 28.436 23.709 43.195 24.902 14.759-1.193 27.987-12.22 43.196-24.902 22.923-19.115 50.017-41.701 94.879-43.959a155.18 155.18 0 01-2.503-2.37c-3.961-3.838-7.709-7.886-10.971-12.129-20.464-.974-39.211 2.131-55.454 10.142-15.734 7.759-29.238 20.193-39.816 38.065-5.098 8.614-10.491 14.64-16.091 18.14-3.942 2.464-8.016 3.703-12.194 3.734-4.138.032-8.208-1.14-12.186-3.494-5.919-3.504-11.675-9.695-17.173-18.492zm6.711-10.085a41.249 41.249 0 018.41-4.207 41.948 41.948 0 0114.397-2.542c4.934 0 9.68.856 14.083 2.422a41.276 41.276 0 017.711 3.678c11.222-17.074 25.165-29.258 41.232-37.182 18.678-9.211 40.094-12.588 63.328-11.149a5.56 5.56 0 014.485 2.324c3.242 4.523 7.129 8.8 11.272 12.814 4.22 4.088 8.717 7.926 13.091 11.488a5.553 5.553 0 01-3.651 9.945c-49.874-2.471-78.579 21.463-102.469 41.384-16.775 13.987-31.351 26.14-49.754 27.486a5.656 5.656 0 01-.903.013c-18.479-1.286-33.092-13.471-49.916-27.499-23.891-19.921-52.595-43.855-102.47-41.384a5.552 5.552 0 01-3.763-9.854c4.409-3.587 8.947-7.456 13.204-11.579 4.143-4.014 8.029-8.291 11.272-12.814l.014.01a5.537 5.537 0 014.358-2.315c23.888-.682 44.454 2.159 62.405 10.381 16.869 7.726 31.246 20.089 43.664 38.58z"/><path fill="#C3CBCF" d="M199.274 263.674c1.48-1.224 2.976-2.471 4.493-3.735 22.923-19.115 50.017-41.701 94.878-43.959-.841-.78-1.676-1.57-2.502-2.37-3.474-3.366-6.784-6.893-9.745-10.571-31.349 8.842-68.939 31.619-87.124 60.635zM34.71 203.081c-2.953 3.663-6.25 7.176-9.711 10.529-.826.8-1.661 1.59-2.502 2.37 44.861 2.258 71.956 24.844 94.879 43.959 1.387 1.157 2.758 2.3 4.116 3.423-18.23-28.822-55.575-51.441-86.782-60.281z"/><path fill="#FCFCFC" d="M207.024 271.59c-8.308 6.993-15.517 12.524-22.178 16.524-8.524 5.12-16.196 7.762-24.024 7.749-9.568-.016-19.058-3.367-29.289-9.738-7.44-4.632-15.356-10.935-24.085-18.775-1.658 18.701-.113 37.512 5.092 54.917 5.356 17.914 14.596 34.349 28.214 47.627a180.953 180.953 0 0132.675-4.642c10.848-.546 21.882-.134 33.107 1.271 8.527-17.706 12.566-34.679 12.313-50.95-.237-15.168-4.233-29.822-11.825-43.983z"/><path fill="#18252E" fill-rule="nonzero" d="M207.024 271.59c-8.308 6.993-15.517 12.524-22.178 16.524-8.524 5.12-16.196 7.762-24.024 7.749-9.568-.016-19.058-3.367-29.289-9.738-7.44-4.632-15.356-10.935-24.085-18.775-1.658 18.701-.113 37.512 5.092 54.917 5.356 17.914 14.596 34.349 28.214 47.627a180.953 180.953 0 0132.675-4.642c10.848-.546 21.882-.134 33.107 1.271 8.527-17.706 12.566-34.679 12.313-50.95-.237-15.168-4.233-29.822-11.825-43.983zm-27.876 6.997c7.292-4.38 15.566-10.989 25.574-19.628a5.555 5.555 0 018.534 1.167c10.737 17.606 16.386 36.031 16.686 55.316.297 19.029-4.65 38.777-15.091 59.275a5.561 5.561 0 01-5.909 3.349c-11.936-1.736-23.597-2.294-34.991-1.72a169.697 169.697 0 00-33.438 5.07l-.002-.008a5.553 5.553 0 01-5.132-1.297c-16.364-15.054-27.314-33.987-33.498-54.668-6.676-22.329-7.788-46.687-4.156-70.355l.025.004a5.54 5.54 0 019.285-3.202c11.4 10.783 21.3 19.147 30.371 24.794 8.496 5.291 16.104 8.074 23.416 8.085 5.653.01 11.526-2.098 18.326-6.182z"/><path fill="#E28947" d="M235.875 249.089c-6.49 4.409-12.945 9.511-19.44 14.959 8.119 14.307 13.764 31.732 13.93 51.62.15 18.014-4.186 37.993-15.247 59.413a5.557 5.557 0 01-5.481 2.98l-11.93-1.174v-.004c-36.246-3.356-69.651 5.026-97.368 21.005-27.024 15.578-48.646 38.372-62.228 64.534 35.347-2.918 61.57 6.067 90.938 16.131 44.666 15.308 96.87 33.2 201.533 13.033 18.149-3.497 34.998-10.55 49.506-21.077 13.864-10.059 25.611-23.319 34.329-39.709 8.79-16.525 12.728-34.25 12.477-51.778-.266-18.541-5.206-36.901-14.04-53.429-11.519-21.552-26.377-36.012-43.981-46.571-17.866-10.715-38.733-17.536-61.864-23.661-8.071-2.137-16.425-4.364-25.175-7.32-8.075-2.728-16.373-6.049-24.88-10.438-7.238 2.872-14.219 6.826-21.079 11.486z"/><path fill="#18252E" fill-rule="nonzero" d="M205.655 258.623c7.896-6.746 15.797-13.141 23.999-18.714 8.307-5.643 16.82-10.358 25.77-13.604a5.542 5.542 0 014.736.452c8.583 4.582 16.999 7.986 25.198 10.756 8.308 2.807 16.529 4.998 24.478 7.103 23.999 6.354 45.747 13.489 64.736 24.879 19.252 11.548 35.493 27.346 48.07 50.877 9.654 18.063 15.054 38.17 15.346 58.52.278 19.371-4.059 38.93-13.739 57.128-9.534 17.925-22.414 32.45-37.636 43.494-15.84 11.493-34.198 19.187-53.942 22.991-107.553 20.724-161.248 2.321-207.189-13.424-30.782-10.549-57.959-19.863-95.931-14.527a5.554 5.554 0 01-5.759-7.93c14.015-31.888 38.973-59.876 71.021-78.351 29.613-17.07 65.275-26.026 103.938-22.436l.043.004.001-.004 8.127.8c8.936-18.42 12.478-35.497 12.349-50.882-.163-19.577-6.255-36.496-14.704-49.976a5.541 5.541 0 011.096-7.146l-.008-.01zm30.22-9.534c-6.49 4.409-12.945 9.511-19.44 14.959 8.119 14.307 13.764 31.732 13.93 51.62.15 18.014-4.186 37.993-15.247 59.413a5.557 5.557 0 01-5.481 2.98l-11.93-1.174v-.004c-36.246-3.356-69.651 5.026-97.368 21.005-27.024 15.578-48.646 38.372-62.228 64.534 35.347-2.918 61.57 6.067 90.938 16.131 44.666 15.308 96.87 33.2 201.533 13.033 18.149-3.497 34.998-10.55 49.506-21.077 13.864-10.059 25.611-23.319 34.329-39.709 8.79-16.525 12.728-34.25 12.477-51.778-.266-18.541-5.206-36.901-14.04-53.429-11.519-21.552-26.377-36.012-43.981-46.571-17.866-10.715-38.733-17.536-61.864-23.661-8.071-2.137-16.425-4.364-25.175-7.32-8.075-2.728-16.373-6.049-24.88-10.438-7.238 2.872-14.219 6.826-21.079 11.486z"/><path fill="#FCFDFD" d="M129.063 478.555c6.265 2.147 12.673 4.343 18.62 6.26 6.792-1.792 13.591-3.816 20.117-6.125 4.715-1.668 9.243-3.474 13.459-5.434-1.911-2.538-4.025-5.033-6.299-7.493-3.748-4.055-7.973-8.022-12.467-11.939a5.564 5.564 0 012.479-9.636c5.676-1.228 11.452-2.779 17.063-4.758a104.368 104.368 0 009.104-3.68 114.529 114.529 0 00-8.114-6.211c-4.856-3.373-9.917-6.262-15.126-8.424l.003-.008a5.55 5.55 0 01-1.526-9.302c4.829-4.218 10.897-7.318 17.705-9.535 4.405-1.434 9.133-2.506 14.036-3.279-2.791-2.923-5.957-5.769-9.353-8.533-5.956-4.847-12.616-9.447-19.231-13.782-4.933.45-9.382.929-13.545 1.582-4.771.749-9.611 1.777-15.067 3.331l-.002-.007a5.53 5.53 0 01-1.769.207c-23.645 6.377-44.885 17.864-62.575 32.795-16.045 13.544-29.151 29.903-38.465 47.838 35.351-2.918 61.58 6.067 90.953 16.133z"/><path fill="#18252E" fill-rule="nonzero" d="M145.622 495.799c-7.532-2.4-13.905-4.584-20.127-6.716-30.786-10.55-57.969-19.865-95.944-14.529a5.554 5.554 0 01-5.764-7.92c10.058-22.889 25.735-43.757 45.61-60.533 19.19-16.198 42.319-28.606 68.106-35.36a5.53 5.53 0 011.527-.177c5.295-1.459 10.242-2.481 15.261-3.269 5.469-.858 10.594-1.39 16.162-1.881a5.547 5.547 0 013.865 1.127c7.305 4.757 14.747 9.848 21.45 15.303 7.031 5.723 13.249 11.841 17.682 18.392a5.563 5.563 0 01-4.264 8.663c-7.728.601-15.175 1.829-21.668 3.943a52.087 52.087 0 00-6.246 2.463 102.14 102.14 0 018.105 5.098c5.359 3.722 10.477 7.984 15.299 12.516a5.556 5.556 0 01-1.115 8.907c-5.665 3.271-11.694 5.925-17.828 8.089a140.07 140.07 0 01-8.192 2.601 145.615 145.615 0 015.598 5.72c4.122 4.46 7.848 9.16 11.007 14.202a5.54 5.54 0 01-2.074 7.816l.008.015c-6.232 3.354-13.222 6.301-20.582 8.905-7.207 2.55-14.868 4.795-22.57 6.788a5.53 5.53 0 01-3.306-.163zm-16.559-17.244c6.265 2.147 12.673 4.343 18.62 6.26 6.792-1.792 13.591-3.816 20.117-6.125 4.715-1.668 9.243-3.474 13.459-5.434-1.911-2.538-4.025-5.033-6.299-7.493-3.748-4.055-7.973-8.022-12.467-11.939a5.564 5.564 0 012.479-9.636c5.676-1.228 11.452-2.779 17.063-4.758a104.368 104.368 0 009.104-3.68 114.529 114.529 0 00-8.114-6.211c-4.856-3.373-9.917-6.262-15.126-8.424l.003-.008a5.55 5.55 0 01-1.526-9.302c4.829-4.218 10.897-7.318 17.705-9.535 4.405-1.434 9.133-2.506 14.036-3.279-2.791-2.923-5.957-5.769-9.353-8.533-5.956-4.847-12.616-9.447-19.231-13.782-4.933.45-9.382.929-13.545 1.582-4.771.749-9.611 1.777-15.067 3.331l-.002-.007a5.53 5.53 0 01-1.769.207c-23.645 6.377-44.885 17.864-62.575 32.795-16.045 13.544-29.151 29.903-38.465 47.838 35.351-2.918 61.58 6.067 90.953 16.133z"/><path fill="#C2CBD0" d="M129.063 478.555c6.265 2.147 12.673 4.343 18.62 6.26 6.792-1.792 13.591-3.816 20.117-6.125 4.715-1.668 9.243-3.474 13.459-5.434a77.914 77.914 0 00-1.148-1.488c-44.94-6.211-78.088-30.19-138.521-15.671a152.181 152.181 0 00-3.48 6.325c35.351-2.918 61.58 6.067 90.953 16.133z"/><path fill="#18252E" fill-rule="nonzero" d="M7.424 510.897V499.76h427.705v11.137zM379.12 396.061a5.565 5.565 0 015.133 9.876c-36.027 18.75-73.957 4.85-113.639-9.691-20.309-7.442-41.099-15.06-61.92-18.219a5.566 5.566 0 01-4.677-6.33 5.566 5.566 0 016.33-4.677c21.902 3.323 43.245 11.145 64.096 18.785 37.318 13.676 72.99 26.747 104.677 10.256z"/><path fill="#18252E" fill-rule="nonzero" d="M290.191 394.778a5.562 5.562 0 11-11.093.827c-1.386-18.537.759-34.615 6.545-48.419 5.859-13.975 15.387-25.512 28.697-34.798a5.545 5.545 0 116.352 9.092c-11.526 8.041-19.755 17.978-24.782 29.97-5.099 12.165-6.973 26.553-5.719 43.328zM361.579 125.73a7.636 7.636 0 015.483-2.312c2.081 0 3.969.831 5.349 2.18l29.572 26.287a7.648 7.648 0 01-10.169 11.425l-17.096-15.197v12.845l27.853 24.697a7.628 7.628 0 01-10.109 11.425l-17.744-15.733v13.055l27.853 24.697a7.628 7.628 0 01-10.109 11.425l-17.744-15.733v54.723a7.656 7.656 0 01-15.313 0v-53.637l-15.691 15.757a7.636 7.636 0 01-10.826-10.768l26.517-26.629v-11.803l-15.691 15.756a7.635 7.635 0 11-10.826-10.767l26.517-26.629v-12.376l-15.342 14.011a7.643 7.643 0 01-10.289-11.306l27.805-25.393zM93.463 91.326a5.553 5.553 0 01-7.831 7.874L71.621 85.332a5.553 5.553 0 017.83-7.874l14.012 13.868z"/><path fill="#C2CBD1" d="M207.024 271.59c-8.308 6.993-15.518 12.524-22.178 16.524-8.524 5.12-16.196 7.762-24.024 7.749-9.568-.016-19.058-3.367-29.289-9.738-7.44-4.632-15.356-10.935-24.085-18.775a159.822 159.822 0 00-.57 18.765c4.021 9.274 9.815 17.608 16.798 24.044 22.833 21.045 51.552 15.349 72.801-4.882 6.56-6.246 12.074-13.773 15.923-22.065a106.718 106.718 0 00-5.376-11.622z"/><path fill="#F2B184" d="M403.77 310.95c-9.9-13.776-21.617-23.962-34.897-31.928-17.866-10.716-38.733-17.536-61.864-23.661-8.071-2.137-16.425-4.364-25.175-7.32-7.731-2.611-15.666-5.767-23.792-9.882l-2.944.207a89.35 89.35 0 00-3.221 1.443c24.113 36.055 91.124 13.719 150.947 70.658l.946.483z"/><path fill="#B76E41" d="M235.875 249.089c-6.491 4.409-12.945 9.511-19.44 14.959 2.1 3.7 4.033 7.609 5.75 11.715 13.755-14.258 30.188-33.633 38-36.538a168.195 168.195 0 01-3.231-1.622c-7.238 2.872-14.219 6.826-21.079 11.486z"/><path fill="#B77045" d="M191.729 468.798a84.055 84.055 0 012.417 3.64 5.54 5.54 0 01-2.074 7.816l.008.015c-6.232 3.354-13.222 6.301-20.582 8.905-1.376.487-2.768.963-4.174 1.427 38.034 10.104 86.56 15.763 163.258.985 18.149-3.497 34.998-10.55 49.506-21.077 13.864-10.059 25.611-23.319 34.329-39.709 8.79-16.525 12.728-34.25 12.477-51.778-.178-12.366-2.435-24.65-6.539-36.365 13.253 106.601-96.412 166.436-226.787 125.089l-1.839 1.052z"/><path fill="#FEFDFD" d="M242.466 95.963c11.273 10.872 20.683 24.24 30.243 40.556 6.854-20.295 11.215-40.41 11.868-60.174.717-21.687-3.031-43.042-12.863-63.871-13.77 5.136-27.099 12.013-39.686 21.379-12.333 9.177-24.006 20.769-34.754 35.484 18.733 6.138 32.98 14.848 45.192 26.626z"/><path fill="#18252E" fill-rule="nonzero" d="M268.976 152.452c-11.239-20.327-21.575-36.298-34.21-48.485-12.466-12.023-27.359-20.532-47.9-26.18a5.547 5.547 0 01-3.152-8.439l-.002-.001c12.675-18.824 26.719-33.263 41.703-44.412C240.431 13.761 256.326 5.921 272.694.303a5.567 5.567 0 016.907 3.038c12.241 23.902 16.893 48.435 16.07 73.352-.82 24.803-7.063 49.885-16.624 75.041a5.555 5.555 0 01-10.068.717l-.003.001zm-26.51-56.489c11.273 10.872 20.683 24.24 30.243 40.556 6.854-20.295 11.215-40.41 11.868-60.174.717-21.687-3.031-43.042-12.863-63.871-13.77 5.136-27.099 12.013-39.686 21.379-12.333 9.177-24.006 20.769-34.754 35.484 18.733 6.138 32.98 14.848 45.192 26.626z"/><path fill="#C0CACF" d="M242.466 95.963c6.721 6.482 12.78 13.852 18.603 22.205 11.395-27.433 15.723-60.635 10.775-101.408-10.273 10.616-18.526 21.328-25.011 31.668-8.394 13.384-13.81 26.103-16.807 37.147a111.016 111.016 0 0112.44 10.388z"/><path fill="#E48A49" d="M210.461 73.575a116.812 116.812 0 0110.088 4.861c3.423-10.98 8.916-23.216 16.887-35.925 4.393-7.003 9.543-14.16 15.519-21.338a145.565 145.565 0 00-20.276 12.833c-11.995 9.064-23.327 20.537-33.993 35.213 4.19 1.349 8.089 2.79 11.775 4.356z"/><path fill="#18252E" fill-rule="nonzero" d="M221.005 91.562a104.488 104.488 0 00-14.895-7.764c-5.415-2.3-11.266-4.299-17.838-6.105a5.548 5.548 0 01-3.151-8.439l-.003-.002c12.676-18.823 26.301-33.118 40.862-44.121C240.594 14.089 256.102 6.377 272.504.747a5.566 5.566 0 016.919 3.067l.009.018a5.556 5.556 0 01-1.212 6.604c-13.296 12.662-23.612 25.594-31.387 37.992-9.059 14.445-14.65 28.116-17.475 39.741a5.55 5.55 0 01-8.353 3.393zm-10.544-17.987a116.812 116.812 0 0110.088 4.861c3.423-10.98 8.916-23.216 16.887-35.925 4.393-7.003 9.543-14.16 15.519-21.338a145.565 145.565 0 00-20.276 12.833c-11.995 9.064-23.327 20.537-33.993 35.213 4.19 1.349 8.089 2.79 11.775 4.356zM237.938 97.082a5.553 5.553 0 01-7.831-7.874l11.872-11.75a5.553 5.553 0 017.831 7.874l-11.872 11.75z"/></svg>