<svg xmlns="http://www.w3.org/2000/svg" shape-rendering="geometricPrecision" text-rendering="geometricPrecision" image-rendering="optimizeQuality" fill-rule="evenodd" clip-rule="evenodd" viewBox="0 0 512 455.98"><path fill="#EFD3C0" d="M391.16 78.31c-5.59 3.01-10.35 6.45-14.19 10.35-3.65 3.71-6.46 7.86-8.35 12.51-3.86 17.85-10.34 32.07-19.21 43.01-9.1 11.24-20.6 18.92-34.24 23.43l-1.16.39c-3.42 1.19-3.86 1.34-8.21.34-.68-.16-1.34-.27-1.96-.34-1.89-.19-2.97.1-4.77.6v.02l-1.22.32c-13.74 3.68-27.32 6.25-40.72 7.77a254.79 254.79 0 01-39.9 1.38c-16.12-.71-30.99-3.35-45.37-5.9-35.57-6.31-68.05-12.07-103.43 15.87-1.27 1-2.81 1.42-4.3 1.29-11.86-1.06-22.7-5.03-32.26-11.93-6.38-4.61-12.17-10.51-17.27-17.71-3.52 11.27-2.94 21.19.7 30.01 4.91 11.85 15.37 22.14 28.95 31.26a6.097 6.097 0 012.39 6.97l.02.01c-1.77 5.34-2.9 10.48-3.46 15.44-.57 5-.59 9.83-.13 14.5.92 9.51 5.09 19.19 9.12 28.56 6.39 14.86 12.48 29.03 7.45 44-1.69 5.03-4.6 9.16-8.55 12.7-3.63 3.27-8.17 6.02-13.48 8.56-4.96 2.37-4.88 2.82-3.92 7.89l.46 2.38c1.58 8.34 3.13 16.51 3.4 24.78.18 5.44.06 10.69-.37 15.73-.31 3.61-.79 7.21-1.46 10.79 1.74 1.19 3.3 2.52 4.76 3.97 2.36 2.37 4.34 4.92 6.42 7.62.58.75.96 1.61 1.14 2.48l3.41 16.37h25.93l-11.07-19.86c-.46-.82-.71-1.71-.76-2.6l-2.92-48.72a6.107 6.107 0 014.53-6.26c9.86-2.94 18.86-7.18 26.93-12.85 8.1-5.69 15.28-12.83 21.46-21.53a6.093 6.093 0 017.16-2.15c24.02 8.74 47.23 13.12 69.66 13.42 22.44.3 44.17-3.47 65.24-11.03 3.16-1.13 6.65.52 7.78 3.68.09.25.16.49.22.74.78 3.52 1.68 7.12 2.74 10.84 1.01 3.55 2.11 6.92 3.3 10.08 1.41 3.74 2.93 6.89 4.34 9.84 4.68 9.77 8.46 17.65 5.39 32.35-.22 1.09-.47 2.25-.59 2.92-.14.81-.31 1.87-.5 3.41-.14 1.18-.36 2.67-.53 3.91-.05.36-.13.58-.22.72.82.5 1.84 1.13 3.11 2.01 1.63 1.13 2.82 2.34 4.03 3.56.82.83 1.65 1.67 2.47 2.24 6.42 4.53 4.55 10.61 2.82 16.23-.26.82-.5 1.62-.65 2.23l2.89 6.82h27.61c-8.26-15.92-13.78-31.66-16.07-47.48-2.75-19.04-.79-38.1 6.72-57.57a6.082 6.082 0 014.23-3.72c48.86-12.2 57.02-51.1 64.84-88.4 4.33-20.63 8.56-40.8 19.09-56.99 1.94-2.98 4.02-5.78 6.26-8.4a67.93 67.93 0 017.37-7.42 6.11 6.11 0 015.25-1.36l17.64 3.76c3.06.65 5.09 3.48 4.81 6.52-.14 2.24-.21 4.39-.2 6.4.03 9.24 1.46 18.09 4.81 24.61 1.58 3.06 3.63 5.57 6.22 7.29-.94-4.51-1.42-9.11-1.35-13.51.13-7.72 1.97-14.94 6.01-20.37a6.099 6.099 0 017.36-1.94c3.14 1.27 5.48 1.4 7.37.65 1.27-.51 2.54-1.44 3.86-2.73a6.113 6.113 0 011.61-6.94 6.101 6.101 0 014.21-1.5c2.97.1 5.41-.65 7.29-2.17 2.09-1.7 3.72-4.49 4.86-8.28 1.19-3.93 1.09-7.48.18-11.22-1.05-4.29-3.15-9.05-5.68-14.75-2.06-4.64-4.55-9.98-7.29-15.72-2.78-5.85-5.24-10.88-7.59-15.64-.3-.61-.49-1.25-.57-1.89-1.81-10.96-5.22-19.63-9.8-26.16l-.21-.33c-4.53-6.33-10.22-10.62-16.64-13.02-6.64-2.49-14.17-3-22.11-1.7-10.39 1.69-21.44 6.48-32.17 14-.31.22-.64.41-.97.56zM279.12 410.99c-.03.05-.02.14.05.32.27.69.1.19-.05-.32z"/><path fill-rule="nonzero" d="M391.16 78.31c-5.59 3.01-10.35 6.45-14.19 10.35-3.65 3.71-6.46 7.86-8.35 12.51-3.86 17.85-10.34 32.07-19.21 43.01-9.1 11.24-20.6 18.92-34.24 23.43l-1.16.39c-3.42 1.19-3.86 1.34-8.21.34-.68-.16-1.34-.27-1.96-.34-2.31-.23-3.92.39-5.99.94-13.74 3.68-27.32 6.25-40.72 7.77a254.79 254.79 0 01-39.9 1.38c-16.12-.71-30.99-3.35-45.37-5.9-35.57-6.31-68.05-12.07-103.43 15.87-1.27 1-2.81 1.42-4.3 1.29-11.86-1.06-22.7-5.03-32.26-11.93-6.38-4.61-12.17-10.51-17.27-17.71-3.52 11.27-2.94 21.19.7 30.01 4.91 11.85 15.37 22.14 28.95 31.26a6.097 6.097 0 012.39 6.97l.02.01c-1.77 5.34-2.9 10.48-3.46 15.44-.57 5-.59 9.83-.13 14.5.92 9.51 5.09 19.19 9.12 28.56 6.39 14.86 12.48 29.03 7.45 44-1.69 5.03-4.6 9.16-8.55 12.7-3.63 3.27-8.17 6.02-13.48 8.56-4.96 2.37-4.88 2.82-3.92 7.89l.46 2.38c1.58 8.34 3.13 16.51 3.4 24.78.18 5.44.06 10.69-.37 15.73-.31 3.61-.79 7.21-1.46 10.79 1.74 1.19 3.3 2.52 4.76 3.97 2.36 2.37 4.34 4.92 6.42 7.62.58.75.96 1.61 1.14 2.48l3.41 16.37h25.93l-11.07-19.86c-.46-.82-.71-1.71-.76-2.6l-2.92-48.72a6.107 6.107 0 014.53-6.26c9.86-2.94 18.86-7.18 26.93-12.85 8.1-5.69 15.28-12.83 21.46-21.53a6.093 6.093 0 017.16-2.15c24.02 8.74 47.23 13.12 69.66 13.42 22.44.3 44.17-3.47 65.24-11.03 3.16-1.13 6.65.52 7.78 3.68.09.25.16.49.22.74.78 3.52 1.68 7.12 2.74 10.84 1.01 3.55 2.11 6.92 3.3 10.08 1.41 3.74 2.93 6.89 4.34 9.84 4.68 9.77 8.46 17.65 5.39 32.35-.22 1.09-.47 2.25-.59 2.92-.14.81-.31 1.87-.5 3.41-.14 1.18-.36 2.67-.53 3.91-.05.36-.13.58-.22.72.82.5 1.84 1.13 3.11 2.01 1.63 1.13 2.82 2.34 4.03 3.56.82.83 1.65 1.67 2.47 2.24 6.42 4.53 4.55 10.61 2.82 16.23-.26.82-.5 1.62-.65 2.23l2.89 6.82h27.61c-8.26-15.92-13.78-31.66-16.07-47.48-2.75-19.04-.79-38.1 6.72-57.57a6.082 6.082 0 014.23-3.72c48.86-12.2 57.02-51.1 64.84-88.4 4.33-20.63 8.56-40.8 19.09-56.99 1.94-2.98 4.02-5.78 6.26-8.4a67.93 67.93 0 017.37-7.42 6.11 6.11 0 015.25-1.36l17.64 3.76c3.06.65 5.09 3.48 4.81 6.52-.14 2.24-.21 4.39-.2 6.4.03 9.24 1.46 18.09 4.81 24.61 1.58 3.06 3.63 5.57 6.22 7.29-.94-4.51-1.42-9.11-1.35-13.51.13-7.72 1.97-14.94 6.01-20.37a6.099 6.099 0 017.36-1.94c3.14 1.27 5.48 1.4 7.37.65 1.27-.51 2.54-1.44 3.86-2.73a6.113 6.113 0 011.61-6.94 6.101 6.101 0 014.21-1.5c2.97.1 5.41-.65 7.29-2.17 2.09-1.7 3.72-4.49 4.86-8.28 1.19-3.93 1.09-7.48.18-11.22-1.05-4.29-3.15-9.05-5.68-14.75-2.06-4.64-4.55-9.98-7.29-15.72-2.78-5.85-5.24-10.88-7.59-15.64-.3-.61-.49-1.25-.57-1.89-1.81-10.96-5.22-19.63-9.8-26.16l-.21-.33c-4.53-6.33-10.22-10.62-16.64-13.02-6.64-2.49-14.17-3-22.11-1.7-10.39 1.69-21.44 6.48-32.17 14-.31.22-.64.41-.97.56zm-22.88 1.8c4.68-4.77 10.41-8.91 17.06-12.5 12.16-8.49 24.87-13.92 37-15.9 10-1.63 19.63-.93 28.32 2.32 8.68 3.24 16.31 8.98 22.33 17.41l.25.34c5.5 7.83 9.57 17.94 11.73 30.47 2.65 5.39 5.17 10.54 7.29 14.99 2.27 4.77 4.7 10.01 7.38 16.05 2.79 6.29 5.11 11.54 6.39 16.8 1.42 5.81 1.56 11.36-.32 17.58-1.85 6.17-4.83 10.96-8.87 14.25a21.389 21.389 0 01-7.32 3.9c-.2.45-.47.89-.79 1.3-3.74 4.71-7.48 8.17-12.07 10-3.5 1.4-7.22 1.76-11.39.89-1.07 2.77-1.59 6.09-1.65 9.64-.11 6.4 1.3 13.43 3.76 19.69.26.69.41 1.44.41 2.22 0 3.36-2.73 6.09-6.09 6.09-.86 0-1.59-.02-2.18-.06-11.34-.72-19-7.03-23.79-16.32-4.29-8.34-6.11-19.15-6.15-30.2l.01-2.05-9.56-2.04a58.4 58.4 0 00-3.88 4.12 68.008 68.008 0 00-5.3 7.11c-9.28 14.26-13.28 33.33-17.37 52.83-8.43 40.19-17.22 82.07-70.71 96.92-5.82 16.4-7.25 32.49-4.93 48.57 2.47 17.1 9.19 34.29 19.37 51.89.66.98 1.04 2.15 1.04 3.42 0 3.38-2.73 6.11-6.11 6.11h-41.96v-.02a6.08 6.08 0 01-5.61-3.73l-4.9-11.57c-.46-.86-.72-1.84-.72-2.88 0-2.23.67-4.4 1.36-6.65.48-1.56 2.63-2.09 1.82-2.67-1.66-1.16-2.91-2.43-4.14-3.67-.81-.81-1.6-1.62-2.27-2.08-1.23-.85-2.22-1.45-2.99-1.91-2.51-1.49-3.82-2.27-4.88-4.92-.93-2.33-.69-4.05-.18-7.65.12-.8.26-1.8.49-3.67.15-1.24.38-2.64.64-4.08.29-1.57.47-2.43.64-3.25 2.23-10.7-.75-16.91-4.44-24.62-1.57-3.27-3.25-6.78-4.77-10.79a148.1 148.1 0 01-3.63-11.03c-.45-1.59-.89-3.24-1.32-4.95-20.42 6.58-41.42 9.84-63.05 9.55-22.53-.3-45.68-4.44-69.5-12.66-6.36 8.21-13.59 15.09-21.62 20.73-7.92 5.55-16.61 9.9-26.02 13.12l2.55 42.62 15.21 27.27c.65.97 1.03 2.14 1.03 3.4 0 3.38-2.73 6.11-6.11 6.11H46.49v-.01c-2.83 0-5.37-1.98-5.97-4.86l-4.13-19.87c-1.52-1.95-2.98-3.78-4.51-5.3-1.6-1.6-3.37-2.95-5.53-3.93a6.114 6.114 0 01-3.44-6.9c.99-4.36 1.68-8.91 2.09-13.63.41-4.78.53-9.54.37-14.29-.23-7.25-1.71-15-3.21-22.92l-.45-2.39c-2.56-13.5-2.79-14.7 10.64-21.12 4.26-2.03 7.83-4.18 10.58-6.64 2.43-2.18 4.18-4.63 5.15-7.5 3.54-10.53-1.66-22.62-7.11-35.3-4.38-10.19-8.91-20.71-10.04-32.25a80.45 80.45 0 01.14-16.98c.5-4.44 1.37-8.96 2.65-13.55-13.65-9.78-24.25-21-29.69-34.16-6.08-14.71-5.69-31.44 4.03-50.74a6.114 6.114 0 012.58-2.63 6.09 6.09 0 018.24 2.51c5.59 10.44 12.36 18.45 20.11 24.04 7.13 5.15 15.15 8.29 23.89 9.43 38.9-29.61 73.38-23.5 111.08-16.81 14.11 2.51 28.7 5.1 43.8 5.76 12.46.55 25.13.12 38.03-1.33 12.76-1.45 25.73-3.91 38.91-7.44 3.67-1.01 6.32-1.69 10.38-1.27 1.17.12 2.32.32 3.44.58.95.22 1.01.2 1.47.03l1.36-.47c11.43-3.79 21.05-10.19 28.61-19.52 7.71-9.52 13.39-22.2 16.82-38.37.07-.32.17-.64.29-.95 2.51-6.39 6.28-12.06 11.21-17.06zm-89.16 330.88c-.03.05-.02.14.05.32.27.69.1.19-.05-.32z"/><path fill="#F4EDE7" d="M343.29 150.86c-7.96 7.68-17.38 13.2-28.12 16.75-1.24.41-1.13.37-1.16.39-3.42 1.19-3.86 1.34-8.21.34-.33-.08-.67-.14-.99-.2-.37-.06-.7-.11-.97-.14-1.89-.19-2.97.1-4.77.6-1.65.45 1.22-.31-.95.27-13.83 3.72-27.5 6.31-40.99 7.84a254.79 254.79 0 01-39.9 1.38c-16.12-.71-30.99-3.35-45.37-5.9-30.21-5.36-58.18-10.32-87.6 5.42-16.54 10.51-27.15 24.17-33.47 38.19-4.26 10.78-7.08 22.56-7.78 32.59-.18 3.97-.07 7.76.27 11.3.18 1.31.42 2.63.71 3.95 3.35-36.9 19.15-58.17 38.61-71.06 45.24-29.95 137.74 15.59 208.9-12.68 21.36-8.49 40.58-14.36 52.93-28.3l-1.14-.74z"/><path fill="#C9AB9C" d="M128.31 331.72c21.98 7.59 43.38 11.18 64.06 11.46 22.44.3 40.42-2.46 61.48-10.02-.49-.84-1.75-13.35-1.75-18.68-44.26 13.26-83.29 13.45-119.06 2.35l-4.73 14.89zM322.28 333.38c43.91-13.69 51.75-50.99 59.26-86.82 4.33-20.63 8.56-40.8 19.09-56.99 1.93-2.97 4.01-5.78 6.26-8.4l.68-.8c-4.26-2.11-8.02-4.53-11.34-7.22-.32-.26-.63-.53-.95-.79l-1.87-.59c-8.89 62.65-33.63 105.08-58.49 123.36l-12.64 38.25z"/><path fill="#545157" d="M57.45 428.93c-2.9.7-5.73 1.66-8.47 2.93l2.47 11.87h25.94l-9.03-16.19c-3.74.1-7.39.55-10.91 1.39z"/><path fill-rule="nonzero" d="M39.31 423.17c4.87-2.81 10-4.81 15.32-6.08 5.67-1.36 11.52-1.89 17.48-1.73a6.08 6.08 0 015.16 3.13l15.83 28.39c1.63 2.94.57 6.65-2.37 8.29-.94.52-1.95.76-2.96.76v.02H46.49c-3.1 0-5.66-2.3-6.06-5.3l-4.32-20.8a6.09 6.09 0 013.2-6.68zm18.14 5.76c-2.9.7-5.73 1.66-8.47 2.93l2.47 11.87h25.94l-9.03-16.19c-3.74.1-7.39.55-10.91 1.39z"/><path fill="#545157" d="M303.61 428.48c-3.66.66-7.23 1.65-10.72 2.95-.27 1.11-.6 2.19-.92 3.25-.26.82-.5 1.62-.65 2.23l2.89 6.82h27.61a193 193 0 01-2.68-5.4c-1.7-3.58-3.28-7.18-4.71-10.8-3.71 0-7.32.32-10.82.95z"/><path fill-rule="nonzero" d="M285.18 421.41c5.26-2.25 10.68-3.91 16.28-4.92a73.422 73.422 0 0117.59-1.01c2.5.14 4.56 1.78 5.37 3.99 1.65 4.49 3.57 9.03 5.76 13.61 2.21 4.64 4.63 9.21 7.24 13.7 1.69 2.92.69 6.65-2.22 8.34-.96.56-2.02.82-3.06.82v.01h-41.96c-2.72 0-5.03-1.78-5.82-4.24l-4.91-11.6c-.33-.77-.48-1.57-.48-2.36h-.02c0-2.22.67-4.4 1.36-6.65.48-1.54.97-3.15.96-3.98 0-2.6 1.62-4.83 3.91-5.71zm18.43 7.07c-3.66.66-7.23 1.65-10.72 2.95-.27 1.11-.6 2.19-.92 3.25-.26.82-.5 1.62-.65 2.23l2.89 6.82h27.61a193 193 0 01-2.68-5.4c-1.7-3.58-3.28-7.18-4.71-10.8-3.71 0-7.32.32-10.82.95z"/><path fill="#B49D95" d="M474.73 74.43c2.32 3.75 4.32 7.82 5.97 12.07 5.98-3.7 10.6-7.73 13.79-12.08 2.36-3.2 3.94-6.6 4.73-10.2-8.93 1.76-18.07 3.27-26.93 4.73l-1.22.2c1.3 1.67 2.52 3.44 3.66 5.28z"/><path fill-rule="nonzero" d="M471.32 96.67c-1.69-5.68-4.01-11.09-6.95-15.84-2.7-4.36-5.9-8.12-9.56-10.94a6.081 6.081 0 01-1.12-8.52 5.991 5.991 0 013.8-2.29v-.03c3.13-.54 7.96-1.34 12.84-2.14 11.47-1.89 23.4-3.85 34.18-6.23 3.28-.73 6.53 1.35 7.26 4.63.06.3.11.61.13.91h.01c.62 9.3-1.97 17.79-7.58 25.41-5.39 7.34-13.54 13.76-24.26 19.22a6.113 6.113 0 01-8.75-4.18zm3.41-22.24c2.32 3.75 4.32 7.82 5.97 12.07 5.98-3.7 10.6-7.73 13.79-12.08 2.36-3.2 3.94-6.6 4.73-10.2-8.93 1.76-18.07 3.27-26.93 4.73l-1.22.2c1.3 1.67 2.52 3.44 3.66 5.28z"/><path fill="#EFD3BF" d="M375.42 94.31l9.22-11.89c-5.16-3.74-11.87-7.04-19.16-9.78-9.22-3.48-19.25-6.01-28.27-7.44.03.58.07 1.15.12 1.71.73 7.31 4.12 13.45 9.21 18.04 5.27 4.75 12.38 7.87 20.27 8.97 2.79.39 5.68.52 8.61.39z"/><path fill-rule="nonzero" d="M375.42 94.31l9.22-11.89c-5.16-3.74-11.87-7.04-19.16-9.78-9.22-3.48-19.25-6.01-28.27-7.44.03.58.07 1.15.12 1.71.73 7.31 4.12 13.45 9.21 18.04 5.27 4.75 12.38 7.87 20.27 8.97 2.79.39 5.68.52 8.61.39zm22.47-9.08l-14.48 18.66c-.99 1.3-2.5 2.19-4.24 2.36-4.8.48-9.51.38-14.03-.25-10.31-1.43-19.69-5.6-26.77-11.98-7.27-6.55-12.12-15.37-13.17-25.91-.34-3.4-.27-6.96.24-10.65a6.088 6.088 0 016.66-5.23c11.42 1.18 25.24 4.31 37.67 8.99 10.89 4.1 20.86 9.47 27.52 15.89a6.097 6.097 0 01.6 8.12z"/><path fill="#A67B5F" d="M408.66 55.32c3.65-1.29 7.38-2.33 11.18-3.12l-1.66-2.61c-13.01-20.07-27.7-31.48-43.09-35.59-11.35-3.03-23.24-2.12-35.25 2.18 11.02 1.77 21.41 5.28 30.49 11.13 11.31 7.29 20.46 18.07 26.14 33.4 3.98-2.13 8.04-3.92 12.19-5.39zm2-34.13c9.08 8.53 16.48 18.79 22.06 29.39 4.13.02 8.26.49 12.38 1.55 2.97.76 5.93 1.81 8.89 3.21-8.01-17.86-17.96-29.19-29.36-35.63-7.44-4.2-15.63-6.38-24.4-6.99 3.69 2.56 7.17 5.41 10.43 8.47z"/><path fill-rule="nonzero" d="M430.18 62.92c-5.98.61-11.8 1.91-17.46 3.91-5.68 2.01-11.15 4.71-16.43 8.13a6.092 6.092 0 01-8.43-1.8c-.36-.54-.61-1.12-.77-1.72l-.02.01c-4.4-16.22-12.73-27.03-23.33-33.87-12.91-8.33-29.42-11.06-46.52-10.6a6.092 6.092 0 01-3.47-11.2c2.6-1.68 5.23-3.25 7.88-4.7C340.15.99 358.99-2.56 377.04 1.89 396.53-1.3 414.68.11 430.6 9.11c16.06 9.07 29.47 25.66 39.16 52.75a6.116 6.116 0 01-3.71 7.81c-.5.18-1 .29-1.51.33l-5.56.79c-1.62.23-3.18-.2-4.42-1.08-4.16-2.84-8.32-4.68-12.47-5.74-3.73-.95-7.48-1.28-11.24-1.15-.22.05-.44.08-.67.1zm-6.15-26.41c2.52-1.62 5.12-3.13 7.8-4.51a86.49 86.49 0 015.34-2.53c-3.18-3.26-6.51-5.98-9.99-8.22-.07.1-.15.21-.23.31l-7.12 9.17-.13.15c1.5 1.84 2.95 3.72 4.33 5.63zm21.18 2.88a70.98 70.98 0 00-7.79 3.45 82.809 82.809 0 00-6.66 3.86c.77 1.27 1.54 2.56 2.3 3.89 4.01.04 8.03.51 12.04 1.54 2.97.76 5.93 1.81 8.89 3.21-2.71-6.05-5.65-11.34-8.78-15.95zm-71.95-10.07c2.15-2.23 4.32-4.4 6.53-6.5 1.75-1.67 3.55-3.31 5.39-4.92-1.42-.72-2.88-1.4-4.36-2.02-1.9-.74-3.81-1.37-5.73-1.88-.63-.17-1.26-.32-1.89-.47-.74 1.92-1.51 3.81-2.31 5.67-.95 2.23-1.95 4.44-2.99 6.62.82.48 1.63.98 2.43 1.49 1 .64 1.97 1.31 2.93 2.01zm22.72-4.61c-2.61 2.16-5.2 4.49-7.79 6.95-1.94 1.85-3.86 3.76-5.78 5.74 1.47 1.58 2.87 3.25 4.21 5.02 3.13-2.14 6.36-4.28 9.81-6.39 2.46-1.5 4.97-2.95 7.55-4.33-.55-.55-1.11-1.09-1.68-1.63a82.814 82.814 0 00-6.32-5.36zm-39.11-4.11c.98-2.04 1.91-4.1 2.8-6.18.31-.73.62-1.46.92-2.19-6.82.1-13.76 1.45-20.75 3.95 5.89.94 11.61 2.39 17.03 4.42zm55.38 20.58c-3.33 1.66-6.46 3.43-9.47 5.27-3.24 1.98-6.49 4.14-9.73 6.37 1.25 2.49 2.39 5.12 3.42 7.89 3.98-2.13 8.04-3.92 12.19-5.39 3.6-1.28 7.28-2.31 11.03-3.1-1.17-2.01-2.41-4-3.73-5.95a117.45 117.45 0 00-3.71-5.09zm-.94-19.41l4.63-5.96c-4.91-1.69-10.08-2.68-15.47-3.07 3.7 2.59 7.31 5.6 10.84 9.03zM419.29 116.11a6.1 6.1 0 01-7.76 3.79c-3.19-1.09-4.89-4.57-3.8-7.76 1.9-5.51 5.02-9.73 8.69-12.41 2.97-2.17 6.31-3.33 9.71-3.39 3.48-.05 6.92 1.05 10.01 3.39 3.41 2.58 6.34 6.7 8.26 12.48 1.05 3.2-.68 6.64-3.87 7.69-3.19 1.06-6.64-.67-7.69-3.86-1.09-3.29-2.52-5.45-4.06-6.62-.82-.62-1.66-.91-2.46-.9-.87.02-1.81.38-2.74 1.05-1.69 1.24-3.22 3.44-4.29 6.54zM501.38 155.54c3.36.23 5.91 3.14 5.69 6.5-.23 3.36-3.14 5.91-6.5 5.68-4.56-.31-8.88-1.83-12.98-4.08-3.79-2.08-7.37-4.77-10.8-7.65-2.59-2.16-2.93-6.01-.77-8.6a6.104 6.104 0 018.6-.76c2.9 2.44 5.87 4.68 8.84 6.31 2.65 1.45 5.31 2.43 7.92 2.6zm-81.53 17.61c2.98 1.04 4.56 4.3 3.52 7.27a5.72 5.72 0 01-7.28 3.52c-7.95-2.78-14.48-6.43-19.86-10.79-5.44-4.42-9.66-9.53-12.93-15.18a5.718 5.718 0 012.08-7.81 5.732 5.732 0 017.82 2.08c2.6 4.49 5.95 8.55 10.24 12.04 4.37 3.55 9.77 6.55 16.41 8.87zm63.06 1.55a6.11 6.11 0 015.13 6.95 6.096 6.096 0 01-6.95 5.13c-6.74-1.01-12.84-3.51-18.18-7.35-5.3-3.81-9.79-8.92-13.36-15.2-1.66-2.92-.63-6.65 2.29-8.31a6.097 6.097 0 018.31 2.3c2.71 4.74 6.02 8.55 9.88 11.32 3.72 2.68 8.04 4.43 12.88 5.16z"/><path fill="#C7A99B" d="M108.53 357.7a91.164 91.164 0 01-17.27 11.86c2.02 5.42 3.63 10.78 4.83 16.14 1.61 7.16 2.5 14.32 2.7 21.54.2 7.34 1.46 8 2.64 8.62 2.98 1.57 5.84 3.07 7.36 9.09.27 1.1.45 2.2.53 3.29.05.67.07 1.33.05 2 .78 2.7 1.62 5.3 2.5 7.77.57 1.59 1.2 3.21 1.88 4.86h25.31c-11.27-20.3-22.21-41.32-19.09-70.49a6.118 6.118 0 013.75-4.99c5.43-2.25 10.52-5.03 14.89-8.93 2.84-2.54 5.4-5.57 7.58-9.29l-23.44-6.67c-4.24 5.49-8.91 10.6-14.19 15.2l-.01-.01-.02.01z"/><path fill-rule="nonzero" d="M81 361c7.51-3.39 13.94-7.63 19.54-12.51l-.01-.01c5.71-4.97 10.59-10.56 14.92-16.56a6.094 6.094 0 016.61-2.3v-.01l34.46 9.8a6.11 6.11 0 014.21 7.55c-.1.34-.22.66-.37.96-3.43 8.43-8.12 14.74-13.63 19.66-4.52 4.03-9.57 7.08-14.92 9.57-1.57 24.83 8.97 43.76 19.3 62.32 1.16 2.08 2.32 4.17 3.65 6.6a6.1 6.1 0 01-2.43 8.27c-.93.5-1.93.74-2.92.74v.02h-39.67c-2.61 0-4.85-1.64-5.72-3.95-1.28-2.87-2.48-5.89-3.61-9.03-1.17-3.26-2.18-6.43-3.05-9.51-.2-.69-.26-1.38-.22-2.06.04-.46.04-.93 0-1.4-.03-.41-.1-.83-.2-1.24-.18-.72-.68-.98-1.2-1.25-4.22-2.22-8.73-4.59-9.13-19.09-.18-6.41-.98-12.79-2.41-19.2-1.45-6.44-3.55-12.91-6.3-19.44-1.29-3.06.1-6.57 3.11-7.92L81 361zm27.53-3.3a91.164 91.164 0 01-17.27 11.86c2.02 5.42 3.63 10.78 4.83 16.14 1.61 7.16 2.5 14.32 2.7 21.54.2 7.34 1.46 8 2.64 8.62 2.98 1.57 5.84 3.07 7.36 9.09.27 1.1.45 2.2.53 3.29.05.67.07 1.33.05 2 .78 2.7 1.62 5.3 2.5 7.77.57 1.59 1.2 3.21 1.88 4.86h25.31c-11.27-20.3-22.21-41.32-19.09-70.49a6.118 6.118 0 013.75-4.99c5.43-2.25 10.52-5.03 14.89-8.93 2.84-2.54 5.4-5.57 7.58-9.29l-23.44-6.67c-4.24 5.49-8.91 10.6-14.19 15.2l-.01-.01-.02.01z"/><path fill="#545157" d="M139.06 442.87c-2.39-4.31-4.78-8.67-7.04-13.19l-21.9 3.06c.56 1.81 1.14 3.57 1.75 5.27.57 1.59 1.2 3.21 1.88 4.86h25.31z"/><path fill-rule="nonzero" d="M141.23 420.76c2.98 6.31 6.44 12.53 9.88 18.71 1.17 2.09 2.33 4.18 3.65 6.6a6.1 6.1 0 01-2.43 8.27c-.93.5-1.93.74-2.92.74v.02h-39.67c-2.61 0-4.85-1.64-5.72-3.95-1.28-2.87-2.48-5.89-3.61-9.03-1.17-3.26-2.18-6.43-3.05-9.51-.2-.7-.26-1.4-.22-2.08a8.169 8.169 0 00-.06-2.02c-.53-3.32 1.74-6.44 5.06-6.97l32.59-4.56a6.105 6.105 0 016.5 3.78zm-2.17 22.11c-2.39-4.31-4.78-8.67-7.04-13.19l-21.9 3.06c.56 1.81 1.14 3.57 1.75 5.27.57 1.59 1.2 3.21 1.88 4.86h25.31z"/><path fill="#C7A99B" d="M339.51 339.77a83.15 83.15 0 01-16.84 5.93c-4.3 12.08-6.03 23.96-5.75 35.67.3 12.71 2.96 25.31 7.25 37.81l.01.04c1.95 4.84 4.05 9.52 6.26 14.04 1.71 3.49 3.53 6.99 5.46 10.49h17.32c-10.03-16.05-14.85-33.34-15.79-51.88-.86-17.11 1.6-35.19 6.32-54.29-1.4.78-2.81 1.51-4.24 2.19z"/><path fill-rule="nonzero" d="M316.95 334.45c6.03-1.19 11.82-3.03 17.31-5.67 5.52-2.64 10.82-6.1 15.86-10.52 2.54-2.21 6.39-1.96 8.6.58a6.095 6.095 0 011.26 5.75h.01c-7.24 24.06-11.41 46.32-10.38 66.71 1.01 19.92 7.03 38.19 20.14 54.79a6.098 6.098 0 01-1 8.55 6.093 6.093 0 01-3.78 1.31v.03h-32.63c-2.45 0-4.56-1.44-5.54-3.52-2.52-4.46-4.97-9.07-7.3-13.85-2.41-4.93-4.63-9.88-6.64-14.86-.08-.2-.15-.41-.21-.63-4.67-13.63-7.57-27.43-7.91-41.47-.34-14.28 1.96-28.74 7.7-43.43a6.095 6.095 0 014.51-3.77zm22.56 5.32a83.15 83.15 0 01-16.84 5.93c-4.3 12.08-6.03 23.96-5.75 35.67.3 12.71 2.96 25.31 7.25 37.81l.01.04c1.95 4.84 4.05 9.52 6.26 14.04 1.71 3.49 3.53 6.99 5.46 10.49h17.32c-10.03-16.05-14.85-33.34-15.79-51.88-.86-17.11 1.6-35.19 6.32-54.29-1.4.78-2.81 1.51-4.24 2.19z"/><path fill="#545157" d="M350.47 439.09c-2.07-3.76-3.88-7.56-5.43-11.4-3.11.02-6.12.33-9.05.97-2.31.49-4.56 1.19-6.74 2.1a238.714 238.714 0 006.65 12.99h17.32c-.96-1.55-1.88-3.1-2.75-4.66z"/><path fill-rule="nonzero" d="M355.09 419.79c1.64 4.59 3.64 9.05 6.04 13.37 2.45 4.43 5.32 8.74 8.62 12.93a6.098 6.098 0 01-1 8.55 6.093 6.093 0 01-3.78 1.31v.03h-32.63c-2.45 0-4.56-1.44-5.54-3.52-1.99-3.52-3.91-7.07-5.72-10.66-1.94-3.81-3.75-7.61-5.42-11.39a6.112 6.112 0 012.9-7.94c4.76-2.75 9.72-4.64 14.85-5.76 5.24-1.13 10.68-1.47 16.3-1.08 2.54.17 4.62 1.88 5.38 4.16zm-4.62 19.3c-2.07-3.76-3.88-7.56-5.43-11.4-3.11.02-6.12.33-9.05.97-2.31.49-4.56 1.19-6.74 2.1a238.714 238.714 0 006.65 12.99h17.32c-.96-1.55-1.88-3.1-2.75-4.66zM46.17 228.59a5.71 5.71 0 01-6.96 4.1 5.71 5.71 0 01-4.1-6.96c1.08-4.12 2.24-8.32 3.65-12.55 1.43-4.31 3.08-8.53 5.05-12.51a5.718 5.718 0 017.66-2.59c2.83 1.39 3.99 4.82 2.6 7.65-1.78 3.57-3.22 7.28-4.47 11.03-1.27 3.82-2.38 7.84-3.43 11.83zm277.3 114.45a5.738 5.738 0 01-7.39 3.31c-2.96-1.12-4.44-4.43-3.32-7.39 3.13-8.15 5.53-17.01 7.17-26.02 1.69-9.31 2.6-18.82 2.66-27.9.01-3.15 2.58-5.7 5.73-5.69a5.7 5.7 0 015.68 5.73c-.06 9.75-1.02 19.94-2.83 29.88-1.79 9.82-4.37 19.39-7.7 28.08zm-58.16-6.03c.6 3.1-1.44 6.1-4.54 6.69-3.1.59-6.1-1.44-6.69-4.54-1.53-7.9-2.25-16.08-2.25-24.47.01-8.61.78-17.37 2.25-26.2.5-3.12 3.44-5.23 6.56-4.73 3.11.51 5.23 3.45 4.72 6.56-1.38 8.31-2.11 16.46-2.11 24.37 0 7.59.66 15.05 2.06 22.32zm-139.53.8a5.727 5.727 0 01-7.54 2.94 5.733 5.733 0 01-2.94-7.55c4.72-10.66 7.96-21.38 9.53-32.06 1.53-10.3 1.52-20.57-.17-30.71a5.719 5.719 0 0111.28-1.88c1.9 11.36 1.91 22.81.22 34.25-1.73 11.72-5.25 23.43-10.38 35.01z"/></svg>