<svg xmlns="http://www.w3.org/2000/svg" shape-rendering="geometricPrecision" text-rendering="geometricPrecision" image-rendering="optimizeQuality" fill-rule="evenodd" clip-rule="evenodd" viewBox="0 0 512 398.58"><path fill-rule="nonzero" d="M5.34 398.58c-2.95 0-5.34-2.39-5.34-5.33 0-2.95 2.39-5.34 5.34-5.34H501.4a5.335 5.335 0 010 10.67H5.34z"/><path fill="#E8C4B3" d="M72.71 65.23L43.58 98.86l-1.15 1.13c-4.26 4.18-6.57 9.32-6.99 14.29-.39 4.75.95 9.32 3.97 12.64-.03.02.32.35.36.4 1.3 1.32 2.88 2.44 4.73 3.29 1.82.83 3.94 1.41 6.36 1.67 6.94.76 11.31-3.01 16.51-7.5l15.75-13.52a5.333 5.333 0 016.37-.81c2.55 1.46 5.12 2.45 7.8 2.86 2.66.4 5.51.23 8.67-.61a5.33 5.33 0 016.67 4.58c1.09 10.06 2.62 18.82 4.74 26.38 2.04 7.29 4.62 13.44 7.88 18.54.83 1.22 1.16 2.76.77 4.3-4.25 16.97-1.76 39 6.68 57.32 7.19 15.6 18.67 28.34 33.88 32.48 1.77.48 3.25 1.87 3.76 3.77 1.76 6.55 4.24 14.65 6.93 23.49 6.37 20.88 13.96 45.74 15.33 58.89.81 7.77-1.5 16.24-3.57 23.8-.27 1-.52 1.93-1.16 4.43-.62 2.43-2.9 4.17-5.5 4-5.25-.34-8.33 1.1-9.97 3.71-1.44 2.29-2.17 5.55-2.44 9.4h28.92l1.07-11.37c1.09-11.59 5.45-14.66 9.5-17.52 1.24-.87 2.42-1.71 2.94-2.97 1.75-4.26.72-7.01-.55-10.41-.69-1.87-1.44-3.88-2.02-6.18-3.15-12.52-3.28-24.67-3.41-37.13l-.07-5.9-.41-24.55c-.03-.31-.02-.63.01-.95a5.331 5.331 0 015.86-4.74c21.14 2.27 42.25 1.73 63.3-2.57 21.03-4.3 42.07-12.37 63.12-25.2a5.329 5.329 0 016.63.88l46.39 48.58c11.59 7.86 19.32 18.81 22.58 32.36 3.12 12.95 2.09 28.19-3.63 45.29-.11.33-.24.65-.42.97-.35.62-.72 1.21-1.12 1.77l-.24.36c-.47.63-1.02 1.26-1.62 1.88-2.46 2.52-4.71 3.42-7.08 4.36-1.01.4-2.06.82-3.05 1.48-1.97 1.31-3.46 3.12-4.41 5.55-.67 1.69-1.11 3.69-1.29 6.01h28.91c.84-3.02.49-5.89.17-8.56-.6-5.06-1.15-9.66 2.57-14.95 3.05-4.33 5.99-6.58 8.61-8.58 1.26-.97 2.42-1.85 3.29-2.86h.02c1.1-1.29-.29-8.69-1.55-15.4-.85-4.55-1.66-8.84-1.64-12.2.03-4.18.15-8.48.26-12.64.22-7.93.43-15.37-.06-18.94-.28-2.07-.7-3.88-1.27-5.44-.47-1.31-1.02-2.41-1.65-3.33-20.32-21.68-14.41-40.99-7.89-62.3 3.89-12.7 8.02-26.21 5.74-41.05-.99-6.48-2.92-12.39-5.53-17.71-2.85-5.81-6.55-10.99-10.77-15.49-25.9-27.6-64.57-20.88-99.8-14.77-8.89 1.55-17.58 3.06-25.91 4.01-8.95 1.02-17.84 1.39-26.7.46-9-.94-17.9-3.21-26.68-7.46-19.96-9.65-35.55-25.6-51.8-42.24-7.25-7.42-14.64-14.98-22.65-22.18-7.3-6.55-16.18-14.05-25.68-19.32-9.02-5.02-18.66-8.09-28.05-6.39-11.12 2.01-18.75 11.15-26.2 20.08-1.2 1.42-2.39 2.85-3.99 4.7z"/><path fill-rule="nonzero" d="M35.7 91.71l28.97-33.45c1.02-1.18 2.44-2.87 3.85-4.57 8.66-10.37 17.54-21 32.5-23.71 12.2-2.2 24.16 1.47 35.1 7.56 10.47 5.82 19.92 13.77 27.64 20.7 8.13 7.3 15.71 15.06 23.15 22.68 15.58 15.94 30.52 31.23 48.8 40.07 7.6 3.68 15.32 5.65 23.14 6.47 7.96.83 16.11.48 24.4-.47 8.03-.92 16.58-2.4 25.33-3.92 35.02-6.08 73.2-12.71 102.34 11.38a53.43 53.43 0 0112.7-7.83c5.59-2.45 11.41-3.88 17.32-4.59 5.21-.63 10.01-.64 14.42-.11 14.97 1.82 25.38 9.68 32.51 20.9 6.76 10.66 10.41 24.31 12.12 38.5 2.38 19.72 1.03 40.57-.78 55.57l-.04.23c-1.16 12.05-1.06 23.32.77 33.53 1.81 10.02 5.32 19.04 11.01 26.75a5.317 5.317 0 01-1.1 7.44c-.87.65-1.87.99-2.88 1.04-14.26.82-24.35-5.39-31.5-16.56-.88-1.38-1.71-2.84-2.5-4.37l-.38.14c-1.19.41-2.42.37-3.52-.03-6.59-2.08-11.95-6.14-16.12-12.11-3.96-5.68-6.78-13.07-8.48-22.09-2.49-13.21-.79-25.29.88-37.23 1.79-12.68 3.55-25.21-.4-37.88-1.66-5.33-4.28-9.13-7.76-11.49-1.61-1.09-3.43-1.9-5.47-2.45 2.48 5.6 4.31 11.66 5.3 18.14 2.63 17.14-1.88 31.87-6.12 45.73-5.59 18.27-10.65 34.82 5.65 52.11.26.27.49.57.68.88 1.22 1.75 2.25 3.71 3.05 5.92.82 2.27 1.43 4.81 1.81 7.65.59 4.38.37 12.25.14 20.65-.11 4.19-.23 8.53-.26 12.39-.01 2.28.71 6.13 1.48 10.2 1.71 9.1 3.59 19.12-.86 24.31l.01.01c-1.52 1.76-3.15 3.01-4.91 4.36-2 1.53-4.25 3.25-6.36 6.25-1.37 1.94-1.05 4.62-.7 7.57.61 5.07 1.28 10.65-2.52 17.67a5.325 5.325 0 01-4.69 2.81l-37.82.01c-2.95 0-5.34-2.39-5.34-5.34v-.14c-.27-6.01.45-10.99 2.06-15.09 1.81-4.57 4.66-8.02 8.46-10.55 1.82-1.21 3.44-1.86 5.01-2.48 1.27-.5 2.47-.98 3.37-1.91.22-.22.45-.5.7-.83l.17-.22.22-.33c4.93-14.96 5.87-28.08 3.23-39-2.65-11.01-9.02-19.9-18.63-26.28a5.24 5.24 0 01-1.03-.89l-43.75-45.82c-20.9 12.22-41.86 20.04-62.85 24.33-20.21 4.13-40.4 4.98-60.57 3.31l.32 18.91.07 5.98c.12 11.76.24 23.21 3.12 34.64.48 1.93 1.09 3.54 1.65 5.05 2.07 5.57 3.75 10.06.42 18.16-1.7 4.16-4.12 5.86-6.65 7.65-2.13 1.49-4.41 3.1-5.04 9.8l-1.53 16.21a5.32 5.32 0 01-5.3 4.82v.02h-39.18c-2.95 0-5.34-2.39-5.34-5.34l.02-.41c-.09-7.84.92-14.81 4.19-20 3.15-5.01 7.98-8.17 15.22-8.67l.16-.6c1.81-6.63 3.84-14.07 3.23-19.91-1.27-12.19-8.69-36.48-14.91-56.89-2.42-7.94-4.67-15.31-6.27-20.96-17.09-5.77-29.85-20.13-37.8-37.41-9.06-19.66-11.93-43.29-7.86-62.15-3.32-5.61-5.96-12.11-8.06-19.59-1.86-6.67-3.3-14.14-4.4-22.48-2.41.21-4.74.13-7-.21-2.82-.42-5.51-1.24-8.11-2.41-4.42 3.8-8.85 7.58-13.26 11.39-7.12 6.14-13.1 11.3-24.61 10.04-3.57-.39-6.79-1.29-9.65-2.59-3.09-1.41-5.73-3.28-7.89-5.5l-.66-.7-.01.01c-5.07-5.59-7.34-13.06-6.71-20.68.62-7.39 3.97-14.95 10.16-21.01l.73-.69zm382.98 50.16c2.38 2.61 4.62 5.42 6.66 8.44 6.9.12 12.87 1.8 17.81 5.15 5.52 3.74 9.57 9.41 11.97 17.12 4.66 14.94 2.73 28.64.78 42.51-1.56 11.09-3.14 22.31-.97 33.81 1.43 7.55 3.66 13.56 6.73 17.96l.76 1.03c-.22-1.52-.4-3.03-.52-4.53-.49-5.95-.14-11.74 1.02-17.36.41-2.2 2.2-3.98 4.54-4.29a5.323 5.323 0 015.96 4.59c2.04 15.51 5.4 28.53 11.02 37.31 3.13 4.89 7.04 8.43 11.94 10.26-3.28-6.58-5.53-13.73-6.9-21.35-2.03-11.23-2.15-23.47-.9-36.42l.04-.46c1.74-14.39 3.04-34.35.78-53.06-1.54-12.76-4.72-24.88-10.54-34.05-5.47-8.61-13.41-14.64-24.75-16.02-3.6-.43-7.57-.42-11.92.1-4.95.6-9.77 1.78-14.32 3.77a42.16 42.16 0 00-9.19 5.49zm-1.61 15.2l-6.43-8.21-.47-.52c-25.9-27.6-64.57-20.88-99.8-14.77-8.89 1.55-17.58 3.06-25.91 4.01-8.95 1.02-17.84 1.39-26.7.46-9-.94-17.9-3.21-26.68-7.46-19.96-9.65-35.55-25.6-51.8-42.24-7.25-7.42-14.64-14.98-22.65-22.18-7.3-6.55-16.18-14.05-25.68-19.32-9.02-5.02-18.66-8.09-28.05-6.39-11.12 2.01-18.75 11.15-26.2 20.08-1.2 1.42-2.39 2.85-3.99 4.7L43.58 98.86l-1.15 1.13c-4.26 4.18-6.57 9.32-6.99 14.29-.39 4.75.95 9.32 3.97 12.64-.03.02.32.35.36.4 1.3 1.32 2.88 2.44 4.73 3.29 1.82.83 3.94 1.41 6.36 1.67 6.94.76 11.31-3.01 16.51-7.5l15.75-13.52a5.333 5.333 0 016.37-.81c2.55 1.46 5.12 2.45 7.8 2.86 2.66.4 5.51.23 8.67-.61a5.33 5.33 0 016.67 4.58c1.09 10.06 2.62 18.82 4.74 26.38 2.04 7.29 4.62 13.44 7.88 18.54.83 1.22 1.16 2.76.77 4.3-4.25 16.97-1.76 39 6.68 57.32 7.19 15.6 18.67 28.34 33.88 32.48 1.77.48 3.25 1.87 3.76 3.77 1.76 6.55 4.24 14.65 6.93 23.49 6.37 20.88 13.96 45.74 15.33 58.89.81 7.77-1.5 16.24-3.57 23.8-.27 1-.52 1.93-1.16 4.43-.62 2.43-2.9 4.17-5.5 4-5.25-.34-8.33 1.1-9.97 3.71-1.44 2.29-2.17 5.55-2.44 9.4h28.92l1.07-11.37c1.09-11.59 5.45-14.66 9.5-17.52 1.24-.87 2.42-1.71 2.94-2.97 1.75-4.26.72-7.01-.55-10.41-.69-1.87-1.44-3.88-2.02-6.18-3.15-12.52-3.28-24.67-3.41-37.13l-.07-5.9-.41-24.55c-.03-.31-.02-.63.01-.95a5.331 5.331 0 015.86-4.74c21.14 2.27 42.25 1.73 63.3-2.57 21.03-4.3 42.07-12.37 63.12-25.2a5.329 5.329 0 016.63.88l46.39 48.58c11.59 7.86 19.32 18.81 22.58 32.36 3.12 12.95 2.09 28.19-3.63 45.29-.11.33-.24.65-.42.97-.35.62-.72 1.21-1.12 1.77l-.24.36c-.47.63-1.02 1.26-1.62 1.88-2.46 2.52-4.71 3.42-7.08 4.36-1.01.4-2.06.82-3.05 1.48-1.97 1.31-3.46 3.12-4.41 5.55-.67 1.69-1.11 3.69-1.29 6.01h28.91c.84-3.02.49-5.89.17-8.56-.6-5.06-1.15-9.66 2.57-14.95 3.05-4.33 5.99-6.58 8.61-8.58 1.26-.97 2.42-1.85 3.29-2.86h.02c1.1-1.29-.29-8.69-1.55-15.4-.85-4.55-1.66-8.84-1.64-12.2.03-4.18.15-8.48.26-12.64.22-7.93.43-15.37-.06-18.94-.28-2.07-.7-3.88-1.27-5.44-.47-1.31-1.02-2.41-1.65-3.33-20.32-21.68-14.41-40.99-7.89-62.3 3.89-12.7 8.02-26.21 5.74-41.05-.99-6.48-2.92-12.39-5.53-17.71a62.048 62.048 0 00-3.87-6.76z"/><path fill="#C09D95" d="M124.51 174.91c-1.8 15.45 1.09 33.49 8.19 48.91 7.01 15.21 18.1 27.7 32.76 32.15v-25.19c-14.81-7.11-29.24-21.78-40.95-55.87zm85.15 91.37c.67-.21 1.39-.29 2.14-.21 21.15 2.27 42.25 1.73 63.3-2.57 21.02-4.3 42.06-12.37 63.1-25.18a5.3 5.3 0 012.25-.77l-7.54-22.38c-41.01 24.9-80.08 40.12-122.52 26.54-.25-.07-.49-.15-.73-.22v24.79z"/><path fill="#7F6163" d="M198.88 387.79l.67-7.16-26.02-3.66c-1.11 1.11-1.92 2.65-2.49 4.51-.57 1.84-.91 3.97-1.07 6.31h28.91z"/><path fill-rule="nonzero" d="M210.63 376.63c-.6 5.66-1.09 11.34-1.62 17a5.32 5.32 0 01-5.3 4.82v.02h-39.18c-2.95 0-5.34-2.39-5.34-5.34l.02-.4c-.06-5.3.37-10.19 1.66-14.38 1.52-4.96 4.19-8.95 8.5-11.52 1.08-.65 2.3-.87 3.46-.71l33.24 4.68c2.85.39 4.86 2.98 4.56 5.83zm-11.75 11.16l.67-7.16-26.02-3.66c-1.11 1.11-1.92 2.65-2.49 4.51-.57 1.84-.91 3.97-1.07 6.31h28.91z"/><path fill="#C1A198" d="M339.72 249.75l-18.85 9.69c5.41 10.43 13.55 18.27 20.8 25.23 7.39 7.12 13.95 13.43 16.91 21.37 2.34 6.24 2.12 13.93.84 21.45-1.2 7.09-3.31 14.04-5.03 19.31-1.32 4.07-2.85 8.08-4.59 12.01-1.72 3.88-3.71 7.8-5.98 11.77a5.325 5.325 0 01-4.86 2.66c-4.05-.19-6.95.95-8.96 3.55-1.85 2.39-3.23 5.97-4.29 10.77l27.32-.04v-.02c1.06 0 1.71-.24 2.06-.67.76-.92 1.29-2.62 1.73-4.89.31-1.59.54-3.12.68-4.49.14-1.29.2-2.45.17-3.34-.02-.56-.11-1.61-.2-2.56-.17-2.1-.32-3.79.25-5.55l.01-.02c.6-1.86 1.6-3.46 2.94-4.75 1.36-1.31 3.01-2.25 4.9-2.75 4.24-1.14 4.46-2.32 4.92-4.91.29-1.57.62-3.39 1.13-5.3l.86-3.22c4.56-16.95 9.11-33.89 10.21-51.19l-42.97-44.11z"/><path fill-rule="nonzero" d="M339.72 249.75l-18.85 9.69c5.41 10.43 13.55 18.27 20.8 25.23 7.39 7.12 13.95 13.43 16.91 21.37 2.34 6.24 2.12 13.93.84 21.45-1.2 7.09-3.31 14.04-5.03 19.31-1.32 4.07-2.85 8.08-4.59 12.01-1.72 3.88-3.71 7.8-5.98 11.77a5.325 5.325 0 01-4.86 2.66c-4.05-.19-6.95.95-8.96 3.55-1.85 2.39-3.23 5.97-4.29 10.77l27.32-.04v-.02c1.06 0 1.71-.24 2.06-.67.76-.92 1.29-2.62 1.73-4.89.31-1.59.54-3.12.68-4.49.14-1.29.2-2.45.17-3.34-.02-.56-.11-1.61-.2-2.56-.17-2.1-.32-3.79.25-5.55l.01-.02c.6-1.86 1.6-3.46 2.94-4.75 1.36-1.31 3.01-2.25 4.9-2.75 4.24-1.14 4.46-2.32 4.92-4.91.29-1.57.62-3.39 1.13-5.3l.86-3.22c4.56-16.95 9.11-33.89 10.21-51.19l-42.97-44.11zm-28.26 2.55l26.89-13.82c2.03-1.05 4.58-.7 6.25 1.02l47.34 48.6a5.288 5.288 0 011.5 3.94c-.87 19.37-5.77 37.56-10.66 55.77l-.86 3.21c-.49 1.83-.74 3.22-.96 4.43-1.3 7.18-1.89 10.45-12.64 13.33-.13.03-.22.07-.27.12-.07.07-.14.19-.2.38-.09.3.18.45.26 1.39.06.78.14 1.64.19 3.11.04 1.41-.03 3.04-.21 4.76-.18 1.75-.46 3.59-.81 5.4-.75 3.91-1.92 7.16-3.97 9.64-2.45 2.98-5.72 4.6-10.28 4.6v-.03l-33.3.05a5.317 5.317 0 01-5.64-6.06c1.39-9.79 3.72-16.98 7.49-21.85 3.67-4.74 8.38-7.23 14.49-7.65 1.42-2.64 2.74-5.34 3.97-8.12 1.62-3.66 3.03-7.33 4.22-11.02 1.61-4.93 3.58-11.39 4.66-17.77 1.01-5.94 1.27-11.79-.3-15.98-2.11-5.64-7.85-11.17-14.33-17.4-8.93-8.6-19.12-18.4-25.21-33.06a5.327 5.327 0 012.38-6.99z"/><path fill="#7F6163" d="M325.03 388.23l28-.04v-.02c1.28 0 2.09-.33 2.58-.92.83-1.01 1.41-2.82 1.86-5.19.31-1.6.55-3.15.69-4.54.14-1.32.2-2.5.17-3.43 0-.08-.07-.25-.12-.38l-.28-.73c-2.37-.69-4.68-1.19-6.91-1.51-6.24-.89-11.61-.23-15.84 2.1-4.15 2.27-7.35 6.25-9.36 12.06-.29.82-.55 1.69-.79 2.6z"/><path fill-rule="nonzero" d="M325.03 388.23l28-.04v-.02c1.28 0 2.09-.33 2.58-.92.83-1.01 1.41-2.82 1.86-5.19.31-1.6.55-3.15.69-4.54.14-1.32.2-2.5.17-3.43 0-.08-.07-.25-.12-.38l-.28-.73c-2.37-.69-4.68-1.19-6.91-1.51-6.24-.89-11.61-.23-15.84 2.1-4.15 2.27-7.35 6.25-9.36 12.06-.29.82-.55 1.69-.79 2.6zm28 9.26l-33.34.05c-.32.02-.65.01-.99-.04a4.653 4.653 0 01-3.95-5.27c.49-3.49 1.26-6.69 2.28-9.63 2.82-8.14 7.5-13.82 13.66-17.2 6.06-3.34 13.4-4.33 21.65-3.16 3.68.53 7.61 1.51 11.72 2.93.22.07.43.15.63.25a4.661 4.661 0 012.42 5.5c.25.7.48 1.57.52 2.88.05 1.38-.03 2.98-.2 4.67-.18 1.73-.45 3.56-.8 5.34-.74 3.81-1.87 6.96-3.84 9.35-2.32 2.81-5.42 4.35-9.76 4.35v-.02z"/><path fill="#C1A198" d="M160.6 265.71c-5.85-2.04-11.38-5.16-16.57-9.39l-1.46-1.22 14.03 58.97c.73 3.06 1.14 4.67 1.57 6.34 1.85 7.15 3.85 14.92 4.33 21.73.58 8.11-1.39 16.02-3.3 23.66l-.06.22c-.42 1.7-.84 3.38-1.23 5.07a5.309 5.309 0 01-5.6 4.12c-3.06-.06-5.36.91-6.83 3-1.43 2.02-2.36 5.05-2.77 9.15l16.64.12c.06-.87.15-1.74.29-2.62.67-4.5 2.34-9.17 5.06-12.94 2.99-4.14 7.18-7.21 12.66-8 .44-.06.89-.11 1.34-.14l.33-2.04c1.24-8.21 2.19-21.4 1.82-23.87-.84-5.61-2.32-10.91-3.81-16.23-.83-2.96-1.66-5.93-2.46-9.3-2-8.32-4.33-16.61-6.86-24.85-2.18-7.11-4.61-14.42-7.12-21.78z"/><path fill-rule="nonzero" d="M160.6 265.71c-5.85-2.04-11.38-5.16-16.57-9.39l-1.46-1.22 14.03 58.97c.73 3.06 1.14 4.67 1.57 6.34 1.85 7.15 3.85 14.92 4.33 21.73.58 8.11-1.39 16.02-3.3 23.66l-.06.22c-.42 1.7-.84 3.38-1.23 5.07a5.309 5.309 0 01-5.6 4.12c-3.06-.06-5.36.91-6.83 3-1.43 2.02-2.36 5.05-2.77 9.15l16.64.12c.06-.87.15-1.74.29-2.62.67-4.5 2.34-9.17 5.06-12.94 2.99-4.14 7.18-7.21 12.66-8 .44-.06.89-.11 1.34-.14l.33-2.04c1.24-8.21 2.19-21.4 1.82-23.87-.84-5.61-2.32-10.91-3.81-16.23-.83-2.96-1.66-5.93-2.46-9.3-2-8.32-4.33-16.61-6.86-24.85-2.18-7.11-4.61-14.42-7.12-21.78zm-9.86-17.64c4.8 3.9 9.93 6.64 15.39 8.22 1.67.44 3.09 1.68 3.69 3.43 2.72 7.92 5.44 16.05 8.07 24.65 2.55 8.29 4.93 16.77 7.03 25.51.67 2.81 1.52 5.87 2.38 8.92 1.59 5.7 3.17 11.38 4.1 17.53.47 3.13-.48 18.07-1.82 27-.31 2.06-.66 3.9-1.04 5.32-.88 3.33-2.58 5.45-5.3 5.86-.54.08-1.09.08-1.65 0-1.01-.15-1.92-.16-2.73-.04-2.3.33-4.14 1.74-5.53 3.66-1.65 2.3-2.69 5.31-3.15 8.32-.3 2.01-.33 3.96-.08 5.64h-.02c.04.25.06.51.06.77-.01 2.93-2.4 5.3-5.34 5.29l-27.23-.2-.44.02c-2.95 0-5.34-2.39-5.34-5.34 0-9.11 1.7-15.9 4.98-20.55 2.91-4.13 6.83-6.51 11.7-7.25l.39-1.61c1.71-6.84 3.47-13.91 3.01-20.33-.43-6-2.29-13.21-3.99-19.85-.72-2.77-1.42-5.49-1.66-6.51l-19.1-80.27.02-.01c-.5-2.11.33-4.4 2.25-5.66a5.318 5.318 0 017.36 1.52c4.33 6.58 8.99 11.9 13.99 15.96z"/><path fill="#7F6163" d="M142.27 387.35l17.09.13c.19-2.7.73-5.51 1.62-8.17.34-1.02.73-2.02 1.18-2.99l-4.47-.5c-2.15-.24-4.06-.28-5.73-.13-2.96.28-5.21 1.18-6.71 2.69-1.53 1.54-2.49 3.91-2.84 7.11-.07.6-.11 1.22-.14 1.86z"/><path fill-rule="nonzero" d="M142.27 387.35l17.09.13c.19-2.7.73-5.51 1.62-8.17.34-1.02.73-2.02 1.18-2.99l-4.47-.5c-2.15-.24-4.06-.28-5.73-.13-2.96.28-5.21 1.18-6.71 2.69-1.53 1.54-2.49 3.91-2.84 7.11-.07.6-.11 1.22-.14 1.86zm22.53 10.8l-27.61-.2c-2.75.03-5.11-2.06-5.36-4.84-.3-3.23-.3-6.16-.01-8.78.63-5.68 2.61-10.17 5.88-13.46 3.31-3.32 7.75-5.24 13.3-5.76 2.44-.23 5.06-.19 7.86.12l13.34 1.49c1.39.11 2.74.76 3.7 1.91a5.35 5.35 0 01-.71 7.51c-1.87 1.54-3.24 3.92-4.12 6.54-1.07 3.19-1.38 6.62-.97 9.41h-.02c.04.25.06.51.06.77-.01 2.93-2.4 5.3-5.34 5.29z"/><path fill="#89696A" d="M128.67 33.7c18.43 7.34 37.11 25.89 57.64 46.27 8.94 8.88 18.25 18.11 28.09 26.95 1.52 1.36 3.22 2.27 5.01 2.8 3.22.96 6.8.74 10.15-.32 3.11-.99 5.96-2.68 8.11-4.83-10.17-2.45-17.27-6.83-20.99-13.49-4.08-7.29-3.8-16.75 1.26-28.77-2.75-1-5.74-1.45-8.92-1.38-5.24.11-11.01 1.64-16.99 4.49-2.66 1.25-5.84.11-7.09-2.55-.83-1.75-.61-3.74.4-5.24 2.98-4.49 5.3-8.91 6.76-13.23.46-1.36.83-2.71 1.11-4.05-7.99 2.99-14.95 3.16-20.97.73-7.34-2.96-12.81-9.57-16.61-19.42-5.53-.66-10.93-.26-16.2.93-4.74 1.07-9.4 2.77-13.97 4.9l3.21 6.21z"/><path fill-rule="nonzero" d="M128.67 33.7c18.43 7.34 37.11 25.89 57.64 46.27 8.94 8.88 18.25 18.11 28.09 26.95 1.52 1.36 3.22 2.27 5.01 2.8 3.22.96 6.8.74 10.15-.32 3.11-.99 5.96-2.68 8.11-4.83-10.17-2.45-17.27-6.83-20.99-13.49-4.08-7.29-3.8-16.75 1.26-28.77-2.75-1-5.74-1.45-8.92-1.38-5.24.11-11.01 1.64-16.99 4.49-2.66 1.25-5.84.11-7.09-2.55-.83-1.75-.61-3.74.4-5.24 2.98-4.49 5.3-8.91 6.76-13.23.46-1.36.83-2.71 1.11-4.05-7.99 2.99-14.95 3.16-20.97.73-7.34-2.96-12.81-9.57-16.61-19.42-5.53-.66-10.93-.26-16.2.93-4.74 1.07-9.4 2.77-13.97 4.9l3.21 6.21zm50.14 53.82c-20.38-20.23-38.86-38.58-55.71-44.54a5.367 5.367 0 01-2.96-2.58l-6.61-12.81c-1.32-2.59-.34-5.77 2.23-7.13 6.85-3.66 13.96-6.59 21.34-8.25 7.45-1.68 15.16-2.07 23.12-.63 1.99.24 3.76 1.6 4.43 3.63 2.81 8.53 6.61 14 11.55 15.99 4.91 1.98 11.5.77 19.98-3.99a5.22 5.22 0 012.5-.85c2.93-.23 5.5 1.96 5.73 4.9.45 5.5-.37 11.01-2.22 16.51a57.11 57.11 0 01-1.29 3.43c2.69-.55 5.33-.85 7.91-.9 6.81-.15 13.15 1.44 18.68 4.89a5.32 5.32 0 012.2 7.02c-5.43 10.94-6.52 18.68-3.71 23.7 2.79 5 9.83 8.04 20.65 9.52a5.32 5.32 0 014.62 6.8c-.96 3.26-2.73 6.24-5.04 8.82-3.47 3.87-8.25 6.88-13.44 8.52-5.25 1.66-11 1.96-16.36.37-3.29-.98-6.4-2.64-9.13-5.09-9.85-8.84-19.35-18.27-28.47-27.33z"/><path fill="#87686A" d="M418.68 141.87l6.6 8.44c6.92.11 12.91 1.79 17.87 5.15 5.52 3.74 9.57 9.41 11.97 17.12 4.66 14.94 2.73 28.64.78 42.51-1.56 11.09-3.14 22.31-.97 33.81 1.43 7.55 3.66 13.56 6.73 17.96l.76 1.03c-.22-1.52-.4-3.03-.52-4.53-.49-5.95-.14-11.74 1.02-17.36.41-2.2 2.2-3.98 4.54-4.29a5.323 5.323 0 015.96 4.59c2.04 15.51 5.4 28.53 11.02 37.31 3.13 4.89 7.04 8.43 11.94 10.26-3.28-6.58-5.53-13.73-6.9-21.35-2.03-11.23-2.15-23.47-.9-36.42l.04-.46c1.74-14.39 3.04-34.35.78-53.06-1.54-12.76-4.72-24.88-10.54-34.05-5.47-8.61-13.41-14.64-24.75-16.02-3.6-.43-7.57-.42-11.92.1-4.95.6-9.77 1.78-14.32 3.77a42.56 42.56 0 00-9.19 5.49z"/><path fill-rule="nonzero" d="M109.55 122.69a5.31 5.31 0 01-6.98-2.78 5.314 5.314 0 012.77-6.98c7.52-3.26 13.52-7.38 16.98-12.39 2.82-4.09 3.93-8.94 2.71-14.63a5.326 5.326 0 1110.42-2.21c1.89 8.79.1 16.4-4.38 22.88-4.66 6.75-12.24 12.07-21.52 16.11zm-8.93-57.66c2.45 1.3.06 8.07-1.27 9.84-2.81 3.73-8.07 5.22-12.43 3.53-2.5-.97-5.27-3.14-4.48-6.16.77-2.91 4.83-5.04 8.59-6.32 2.36-.8 7.27-2.12 9.59-.89zm-56.55 49.63c-.03-3.94 2.57-6.01 5.75-6.38 3.81-.44 5.91.85 5.52 4.99-.08.87-.31 1.8-.65 2.78-2.35 6.6-10.55 6.84-10.62-1.39zM104.97 29.39c3.09-.18 6.12-.11 9.07.25l.6.07c-2.26-3.93-4.52-7.19-6.84-9.89-1.75-2.05-3.54-3.79-5.39-5.26.07 1.51.2 3.04.39 4.58.41 3.37 1.12 6.78 2.17 10.25zm7.82 10.83c-3.49-.41-7.08-.35-10.75.11a5.307 5.307 0 01-5.75-3.41c-2.12-5.7-3.43-11.18-4.08-16.48-.64-5.19-.66-10.28-.19-15.28.03-.66.17-1.33.45-1.98A5.346 5.346 0 0199.5.45c6 2.64 11.35 6.55 16.39 12.45 4.83 5.64 9.33 13.07 13.83 22.95l-.02.01c.61 1.34.67 2.92.02 4.37a5.323 5.323 0 01-7.03 2.69c-3.16-1.42-6.47-2.29-9.9-2.7z"/><path fill="#B59895" d="M85.1 36.73c1.32-.93 2.66-1.75 4.06-2.5 1.28-.69 2.6-1.3 3.97-1.86a54.25 54.25 0 00-7.17-8.54c-1.7-1.63-3.48-3.12-5.33-4.47a53.1 53.1 0 001.16 7.61c.76 3.34 1.86 6.59 3.31 9.76z"/><path fill-rule="nonzero" d="M85.1 36.73c1.32-.93 2.66-1.75 4.06-2.5 1.28-.69 2.6-1.3 3.97-1.86a54.25 54.25 0 00-7.17-8.54c-1.7-1.63-3.48-3.12-5.33-4.47a53.1 53.1 0 001.16 7.61c.76 3.34 1.86 6.59 3.31 9.76zm9.06 6.88c-2.4 1.29-4.68 2.97-7.09 5.22-.27.23-.56.45-.88.65a5.316 5.316 0 01-7.29-1.8c-3.58-5.91-6.04-11.99-7.49-18.34-1.45-6.33-1.9-12.9-1.47-19.79.05-.69.23-1.38.56-2.04a5.323 5.323 0 017.13-2.38C83.34 8 88.6 11.61 93.34 16.16c4.73 4.56 8.93 10.05 12.5 16.66.19.37.34.76.45 1.18.74 2.85-.97 5.75-3.81 6.49-3.18.83-5.87 1.81-8.32 3.12z"/><path fill="#7F6163" d="M420.05 379.23c-.21-1.7-.4-3.34-.43-5H401.1c-4.26 2.17-7.03 4.01-8.48 6.31-1.08 1.72-1.63 4.01-1.77 7.25h29.02c.84-3.02.5-5.89.18-8.56z"/><path fill-rule="nonzero" d="M430.75 371.44c-.7 1.69-.42 4.02-.11 6.54.6 5.07 1.27 10.65-2.53 17.67a5.325 5.325 0 01-4.69 2.81l-37.82.01c-2.95 0-5.34-2.39-5.34-5.34V393c-.39-8.18.53-13.63 3.36-18.13 2.87-4.56 7.27-7.48 13.9-10.75.76-.37 1.56-.55 2.35-.55v-.01h26.19c2.94 0 5.33 2.39 5.33 5.34 0 .92-.23 1.79-.64 2.54zm-10.7 7.79c-.21-1.7-.4-3.34-.43-5H401.1c-4.26 2.17-7.03 4.01-8.48 6.31-1.08 1.72-1.63 4.01-1.77 7.25h29.02c.84-3.02.5-5.89.18-8.56z"/><path fill="#6FA69A" d="M29.91 388.84h72.05c-1.93-8.96-2.36-17.51-.77-26.23 1.39-7.67 4.33-15.37 9.15-23.49-2.04.96-4.03 2.22-5.97 3.72-5.34 4.14-10.3 10.07-14.98 16.61a4.658 4.658 0 01-6.49 1.09 4.637 4.637 0 01-1.81-2.61c-2.26-8.61-3.54-17.89-3.37-27.57.06-3.32.29-6.68.71-10.06-.97 1.45-1.89 2.97-2.76 4.55-3.98 7.24-6.92 15.79-8.86 25.17a4.653 4.653 0 01-8.59 1.4c-5-8.63-10.03-15.87-15.07-21.43a70.71 70.71 0 00-1.86-1.96c2.17 5.75 3.82 11.1 5.01 16.08 2.23 9.35 2.85 17.51 2.1 24.66a4.66 4.66 0 01-5.11 4.16 4.613 4.613 0 01-3.1-1.66c-5.22-5.4-10.56-9.54-16.05-12.39a44.48 44.48 0 00-5.24-2.31c2.66 3.85 4.94 7.69 6.73 11.72 2.8 6.29 4.36 12.92 4.28 20.55z"/><path fill-rule="nonzero" d="M29.91 388.84h72.05c-1.93-8.96-2.36-17.51-.77-26.23 1.39-7.67 4.33-15.37 9.15-23.49-2.04.96-4.03 2.22-5.97 3.72-5.34 4.14-10.3 10.07-14.98 16.61a4.658 4.658 0 01-6.49 1.09 4.637 4.637 0 01-1.81-2.61c-2.26-8.61-3.54-17.89-3.37-27.57.06-3.32.29-6.68.71-10.06-.97 1.45-1.89 2.97-2.76 4.55-3.98 7.24-6.92 15.79-8.86 25.17a4.653 4.653 0 01-8.59 1.4c-5-8.63-10.03-15.87-15.07-21.43a70.71 70.71 0 00-1.86-1.96c2.17 5.75 3.82 11.1 5.01 16.08 2.23 9.35 2.85 17.51 2.1 24.66a4.66 4.66 0 01-5.11 4.16 4.613 4.613 0 01-3.1-1.66c-5.22-5.4-10.56-9.54-16.05-12.39a44.48 44.48 0 00-5.24-2.31c2.66 3.85 4.94 7.69 6.73 11.72 2.8 6.29 4.36 12.92 4.28 20.55zm78.01 9.34H24.98v-.02l-.45-.02a4.657 4.657 0 01-4.18-5.09c.82-8.12-.46-14.79-3.22-21-2.84-6.4-7.32-12.52-12.72-19.27a4.66 4.66 0 013.65-7.77c7.01.3 13.81 2.17 20.38 5.59 3.62 1.88 7.19 4.24 10.7 7.09-.31-3.53-.95-7.33-1.93-11.43-2.03-8.52-5.52-18.2-10.67-29.19a4.678 4.678 0 01-.25-3.93 4.665 4.665 0 016.04-2.64c6.07 2.38 11.97 6.89 17.71 13.22 3.51 3.86 6.98 8.42 10.41 13.6 1.88-6.13 4.23-11.83 7.05-16.96 4.24-7.71 9.56-14.19 16.02-19.02a4.69 4.69 0 014.42-.88c2.46.78 3.82 3.4 3.04 5.86a85.238 85.238 0 00-3.95 24.19c-.1 5.26.29 10.41 1.06 15.39 3.33-3.96 6.85-7.53 10.59-10.43 6.59-5.1 13.85-8.14 22-7.72.88.05 1.77.35 2.53.91 2.07 1.54 2.5 4.45.97 6.52-7.83 10.54-12.17 19.93-13.83 29.07-1.64 8.98-.73 17.92 1.95 27.65.18.5.28 1.04.28 1.61 0 2.58-2.09 4.67-4.66 4.67zM346.84 241.41a4.654 4.654 0 11-8.14 4.52l-1.05-1.87c-4.77-8.54-9.9-17.71-11.14-28.57-.29-2.56 1.54-4.88 4.1-5.17a4.664 4.664 0 015.16 4.11c1.04 9.05 5.69 17.36 10.02 25.11l1.05 1.87zM173.27 268.41a4.65 4.65 0 01-3.35 5.66c-2.49.63-5.03-.87-5.66-3.36l-9.99-38.83c-.64-2.49.86-5.02 3.35-5.66 2.49-.63 5.02.87 5.66 3.36l9.99 38.83zM215.31 274.86a4.65 4.65 0 01-4.49 4.81c-2.57.1-4.72-1.91-4.81-4.48-.18-4.87-.18-10.33-.02-15.87.15-5.33.47-10.75.95-15.81a4.648 4.648 0 015.07-4.19c2.56.24 4.43 2.51 4.19 5.07-.46 4.86-.76 10.06-.91 15.18-.16 5.34-.15 10.59.02 15.29z"/><path fill="#E8C4B3" d="M104.97 29.39h.01c1.57 3.25 2.4 15.49-2.63 15.84l29.38 4.96c-6.02-3.97-13.31-5.79-13.75-13.03-.1-1.8-2.1-5.45-3.35-7.45h.01c-2.26-3.93-4.52-7.19-6.84-9.89-1.75-2.05-3.54-3.79-5.39-5.26.07 1.51.2 3.04.39 4.58.41 3.37 1.12 6.78 2.17 10.25z"/></svg>