<svg xmlns="http://www.w3.org/2000/svg" shape-rendering="geometricPrecision" text-rendering="geometricPrecision" image-rendering="optimizeQuality" fill-rule="evenodd" clip-rule="evenodd" viewBox="0 0 512 512.177"><path fill="#DDAB8F" d="M414.145 153.752c9.803 1.647 19.574 1.842 28.83.388 8.672-1.362 16.921-4.178 24.341-8.613a5.666 5.666 0 016.568.536l.003-.003c2.524 2.144 5.104 3.024 7.565 2.936 1.938-.068 3.928-.725 5.862-1.833 2.128-1.219 4.138-2.954 5.921-5.052 4.087-4.809 6.934-11.333 7.375-17.904l-4.196-3.045-34.208-20.109a5.627 5.627 0 01-1.554-1.341c-9.982-12.145-23.261-21.203-37.499-25.386-13.064-3.839-26.931-3.54-39.72 2.317a33.858 33.858 0 00-7.019 4.296 32.157 32.157 0 00-5.608 5.757c-7.314 9.649-8.065 20.796-8.857 32.553-1.032 15.335-2.127 31.583-15.726 48.676-20.182 25.368-43.918 30.68-68.967 36.287-13.004 2.91-26.386 5.905-39.471 12.02-9.667 4.519-18.637 9.783-26.839 15.863-8.145 6.036-15.533 12.889-22.097 20.627-7.473 8.809-13.883 18.795-19.134 30.064-5.295 11.364-9.391 23.961-12.187 37.89-2.581 12.854-3.328 26.538-4.072 40.193-1.537 28.186-3.069 56.264-20.299 80.249-11.17 15.549-27.151 25.922-48.747 31.223-18.168 4.459-40.336 5.293-67.01 2.569 4.529 5.372 9.89 9.838 15.864 13.442 10.238 6.174 22.281 9.845 35.054 11.24 24.006 2.623 46.437-1.705 65.82-11.826 19.764-10.321 36.441-26.695 48.468-47.897 3.776-6.657 7.023-13.904 9.639-21.852 2.632-7.998 4.601-16.608 5.8-25.922a5.662 5.662 0 019.718-3.192l.006-.005a68.797 68.797 0 0017.356 13.255c6.506 3.501 13.753 6.1 21.762 7.757a5.645 5.645 0 013.745 2.669c5.842 8.964 9.166 19.426 10.472 30.988 1.277 11.315.615 23.726-1.504 36.83a5.547 5.547 0 01-.124.584c-2.133 8.233-2.446 13.702-.202 16.451 2.306 2.826 8.032 3.85 18.054 3.266.201-.011.4-.012.596-.002l133.182-.706c-2.724-6.927-7.31-12.307-13.302-16.217-8.794-5.738-20.706-8.497-34.379-8.497h-64.589a5.684 5.684 0 01-5.423-7.387 905.417 905.417 0 018.127-32.843c2.769-10.339 5.658-20.302 8.405-28.786a5.663 5.663 0 014.309-3.83l-.002-.011c16.104-3.16 31.179-13.2 44.831-28.01 15.42-16.728 28.964-39.466 40.13-65.308 11.755-27.209 19.658-56.855 21.235-84.14 1.383-23.933-2.084-45.961-12.098-62.706a5.667 5.667 0 015.794-8.497l.001-.006z"/><path fill="#B4897B" d="M411.863 153.465c10.508 1.765 20.975 1.976 30.881.42 9.264-1.455 18.072-4.462 25.993-9.196a7 7 0 018.113.662l.003-.005c2.549 2.166 5.132 3.056 7.581 2.97 1.942-.069 3.957-.74 5.93-1.869 2.212-1.267 4.306-3.076 6.166-5.265a33.207 33.207 0 004.296-6.5l-1.822-.785c-5.802 5.836-18.003 10.587-32.769 8.506-23.565 10.336-53.843 8.937-78.718 1.418l16.276 15.504a6.982 6.982 0 013.326-4.955 6.972 6.972 0 014.743-.897l.001-.008z"/><path fill="#B48779" d="M345.096 291.757c-.945-.964-1.747-1.87-2.384-2.704l-12.676 16.555c3.219 6.802 5.581 14.356 6.887 22.641.984 6.249 1.312 12.581 1.091 18.9-.053 1.194-.103 2.379-.182 3.573l1.041-3.685c13.312-8.923 24.315-19.987 33.246-32.357-1.2-.789-2.376-1.555-3.511-2.295-3.931-2.56-7.416-4.83-9.881-6.716a69.224 69.224 0 01-13.631-13.912z"/><path fill="#E7D5CE" d="M394.949 158.993c19.109 49.265 8.077 144.781-56.952 188.57-.592 15.296-4.448 32.493-12.468 51.474 11.896-4.809 23.14-13.33 33.554-24.628 15.42-16.728 28.964-39.466 40.13-65.308 11.755-27.209 19.658-56.855 21.235-84.14 1.325-22.933-1.804-44.116-10.877-60.579-4.629-1.284-9.24-2.888-13.374-4.796-.42-.194-.836-.392-1.248-.593z"/><path fill="#B48779" d="M198.715 390.049c1.177-7.534 3.521-6.252 7.179-2.448a5.632 5.632 0 011.869 1.302l.006-.005a68.743 68.743 0 0016.53 12.803c6.16 3.119 12.955 5.465 20.401 7.005a6.575 6.575 0 012.92 1.405 5.65 5.65 0 013.012 2.468c5.842 8.964 9.166 19.426 10.472 30.988 1.277 11.315.615 23.726-1.504 36.83a5.547 5.547 0 01-.124.584c-2.133 8.233-2.446 13.702-.202 16.451 2.306 2.826 8.032 3.85 18.054 3.266.201-.011.4-.012.596-.002l132.853-.704c-2.777-6.014-7.046-10.762-12.469-14.301-8.846-5.772-20.864-8.546-34.682-8.546h-.305c-22.127 8.917-55.572 13.94-91.642 12.733.566-20.237 9.469-65.13-.245-89.009-7.084-17.418-23.55-16.67-39.555-19.921-9.107-1.851-14.302-4.458-24.937-9.753-8.327-4.146-16.243-9.366-23.611-16.01-5.883-2.724-9.9-.027-12.459 6.902 6.315 107.078-51.147 135.606-141.301 123.87a67.945 67.945 0 003.693 2.395c10.238 6.174 22.281 9.845 35.054 11.24 24.006 2.623 46.437-1.705 65.82-11.826 19.764-10.321 36.441-26.695 48.468-47.897 3.776-6.657 7.023-13.904 9.639-21.852 2.632-7.998 4.601-16.608 5.8-25.922a5.645 5.645 0 01.67-2.046z"/><path fill="#000203" d="M422.839 113.338c5.298 5.155 12.352 5.879 18.056-2.131 1.246-1.75 2.236-3.858 2.967-6.329 1.238-5.082-2.979-6.352-6.554-6.619l-14.375-.328c-2.229-.046-4.556-.304-5.619 2.268-1.64 3.966 2.817 10.503 5.525 13.139z"/><path fill-rule="nonzero" d="M246.244 273.603a5.662 5.662 0 01-1.732-11.19c17.084-2.693 34.832-.085 50.208 7.502 10.557 5.209 20.003 12.753 27.366 22.527 7.349 9.755 12.617 21.726 14.837 35.807 3.521 22.337-.708 49.957-16.689 82.346a5.67 5.67 0 01-10.168-5.017c14.858-30.113 18.849-55.415 15.668-75.597-1.906-12.091-6.418-22.354-12.705-30.701-6.274-8.327-14.325-14.756-23.326-19.196-13.297-6.561-28.658-8.814-43.459-6.481zM405.394 74.783a5.673 5.673 0 11-11.1 2.353c-4.119-19.346-12.001-34.043-23.1-44.647-9.665-9.233-21.87-15.473-36.24-19.073.129 15.462 3.458 28.643 9.886 39.615 7.316 12.487 18.746 22.286 34.136 29.495a5.662 5.662 0 11-4.796 10.256c-17.507-8.201-30.601-19.503-39.108-34.023-8.457-14.437-12.284-31.886-11.31-52.456a5.67 5.67 0 016.712-5.467c19.395 3.646 35.777 11.252 48.535 23.439 12.763 12.194 21.77 28.83 26.385 50.508z"/><path fill="#9F786F" d="M395.825 47.329a105.92 105.92 0 015.728 13.206c2.635-.292 5.249-.425 7.879-.343 2.212.068 4.406.289 6.595.693 1.303-9.184.893-17.671-1.07-25.525-2.031-8.127-5.743-15.644-10.955-22.616-3.664 2.09-6.861 4.894-9.47 8.153-3.144 3.925-5.416 8.485-6.614 13.237 2.845 4.19 5.515 8.555 7.907 13.195z"/><path fill-rule="nonzero" d="M392.195 68.418a93.232 93.232 0 00-6.449-15.894c-2.572-4.989-5.455-9.581-8.515-13.946a5.643 5.643 0 01-.931-4.24c1.328-7.408 4.6-14.558 9.396-20.546C390.32 8.018 396.385 3.29 403.521.409a5.671 5.671 0 016.457 1.623l.003-.003c7.748 9.222 13.187 19.372 15.988 30.578 2.793 11.175 2.938 23.311.106 36.528a5.675 5.675 0 01-7.72 4.066c-3.077-1.084-6.129-1.591-9.233-1.687-3.324-.102-6.819.266-10.523.909a5.678 5.678 0 01-6.404-4.005zm3.63-21.089a105.92 105.92 0 015.728 13.206c2.635-.292 5.249-.425 7.879-.343 2.212.068 4.406.289 6.595.693 1.303-9.184.893-17.671-1.07-25.525-2.031-8.127-5.743-15.644-10.955-22.616-3.664 2.09-6.861 4.894-9.47 8.153-3.144 3.925-5.416 8.485-6.614 13.237 2.845 4.19 5.515 8.555 7.907 13.195zM414.982 154.073a5.675 5.675 0 11-2.754 11.011c-5.503-1.383-11.105-3.224-16.031-5.498-4.52-2.086-8.521-4.571-11.475-7.454a5.668 5.668 0 017.904-8.125c1.967 1.919 4.89 3.693 8.322 5.278 4.228 1.952 9.144 3.559 14.034 4.788zM473.758 146.112a5.665 5.665 0 01-7.459 8.526 77.53 77.53 0 01-7.172-7.197 96.343 96.343 0 01-6.044-7.677 5.666 5.666 0 011.332-7.903 5.666 5.666 0 017.903 1.332c1.677 2.356 3.443 4.631 5.335 6.788a65.755 65.755 0 006.105 6.131z"/><path d="M499.533 135.888c-6.184-3.188-12.726-7.012-12.726-10.834 0-3.476 3.285-5.333 9.786-5.958l6.452 5.075-3.512 11.717z"/><path fill-rule="nonzero" d="M414.145 153.752c9.803 1.647 19.574 1.842 28.83.388 8.672-1.362 16.921-4.178 24.341-8.613a5.666 5.666 0 016.568.536l.003-.003c2.524 2.144 5.104 3.024 7.565 2.936 1.938-.068 3.928-.725 5.862-1.833 2.128-1.219 4.138-2.954 5.921-5.052 4.087-4.809 6.934-11.333 7.375-17.904l-4.196-3.045-34.208-20.109a5.627 5.627 0 01-1.554-1.341c-9.982-12.145-23.261-21.203-37.499-25.386-13.064-3.839-26.931-3.54-39.72 2.317a33.858 33.858 0 00-7.019 4.296 32.157 32.157 0 00-5.608 5.757c-7.314 9.649-8.065 20.796-8.857 32.553-1.032 15.335-2.127 31.583-15.726 48.676-20.182 25.368-43.918 30.68-68.967 36.287-13.004 2.91-26.386 5.905-39.471 12.02-9.667 4.519-18.637 9.783-26.839 15.863-8.145 6.036-15.533 12.889-22.097 20.627-7.473 8.809-13.883 18.795-19.134 30.064-5.295 11.364-9.391 23.961-12.187 37.89-2.581 12.854-3.328 26.538-4.072 40.193-1.537 28.186-3.069 56.264-20.299 80.249-11.17 15.549-27.151 25.922-48.747 31.223-18.168 4.459-40.336 5.293-67.01 2.569 4.529 5.372 9.89 9.838 15.864 13.442 10.238 6.174 22.281 9.845 35.054 11.24 24.006 2.623 46.437-1.705 65.82-11.826 19.764-10.321 36.441-26.695 48.468-47.897 3.776-6.657 7.023-13.904 9.639-21.852 2.338-7.107 4.153-14.695 5.37-22.833a115.22 115.22 0 01-14.501-14.715c-4.882-5.943-9.211-12.452-12.765-19.448a5.67 5.67 0 0110.123-5.106c3.181 6.26 7.042 12.07 11.389 17.361 6.855 8.345 23.809 23.788 33.264 28.877 6.506 3.501 13.753 6.1 21.762 7.757a5.645 5.645 0 013.745 2.669c5.842 8.964 9.166 19.426 10.472 30.988 1.277 11.315.615 23.726-1.504 36.83a5.547 5.547 0 01-.124.584c-2.133 8.233-2.446 13.702-.202 16.451 2.306 2.826 8.032 3.85 18.054 3.266.201-.011.4-.012.596-.002l133.182-.706c-2.724-6.927-7.31-12.307-13.302-16.217-8.794-5.738-20.706-8.497-34.379-8.497h-64.589a5.684 5.684 0 01-5.423-7.387 905.417 905.417 0 018.127-32.843c2.769-10.339 5.658-20.302 8.405-28.786a5.663 5.663 0 014.309-3.83l-.002-.011c16.104-3.16 31.179-13.2 44.831-28.01 15.42-16.728 28.964-39.466 40.13-65.308 11.755-27.209 19.658-56.855 21.235-84.14 1.383-23.933-2.084-45.961-12.098-62.706a5.667 5.667 0 015.794-8.497l.001-.006zm30.562 11.578c-7.052 1.108-14.317 1.38-21.636.885 7.423 17.138 9.956 37.622 8.699 59.367-1.657 28.695-9.891 59.69-22.123 88.004-11.643 26.949-25.883 50.785-42.216 68.504-14.343 15.56-30.34 26.454-47.686 30.738-2.326 7.412-4.801 16.05-7.238 25.149a907.562 907.562 0 00-6.537 25.932h57.455c15.794 0 29.826 3.365 40.551 10.362 10.37 6.767 17.557 16.778 20.223 30.252l-.015.004a5.662 5.662 0 01-5.535 6.746l-140.699.747c-13.934.812-22.64-1.523-27.468-7.439-4.847-5.939-5.038-14.492-2.029-26.225 1.925-12.012 2.527-23.322 1.373-33.545-1.029-9.11-3.457-17.317-7.604-24.327-8.202-1.898-15.686-4.69-22.469-8.341a80.12 80.12 0 01-12.181-8.056c-1.205 6.164-2.728 11.981-4.538 17.482a131.756 131.756 0 01-10.57 23.895c-13.109 23.107-31.374 40.999-53.086 52.336-21.367 11.158-45.997 15.939-72.259 13.07-14.395-1.572-28.035-5.749-39.716-12.794-10.953-6.607-20.18-15.717-26.708-27.541l.005-.004a5.668 5.668 0 015.723-8.344c30.898 4.191 55.749 3.937 75.279-.857 18.867-4.631 32.721-13.543 42.263-26.828 15.28-21.27 16.722-47.69 18.168-74.21.765-14.024 1.531-28.075 4.294-41.836 3.002-14.951 7.366-28.402 12.987-40.466 5.666-12.16 12.628-22.988 20.777-32.594 7.122-8.395 15.148-15.838 24.006-22.403 8.799-6.523 18.421-12.17 28.792-17.017 14.206-6.639 28.214-9.775 41.825-12.821 23.013-5.15 44.82-10.03 62.529-32.289 11.394-14.323 12.366-28.753 13.284-42.372.909-13.5 1.771-26.301 11.121-38.637a43.562 43.562 0 017.607-7.799c2.856-2.274 5.995-4.17 9.371-5.717 15.44-7.071 32.056-7.467 47.624-2.893 16.111 4.733 31.107 14.827 42.444 28.343l33.373 19.618c.276.138.545.299.803.486l6.676 4.846-.006.008a5.653 5.653 0 012.337 4.388c.367 10.324-3.769 20.87-10.084 28.3-2.643 3.11-5.676 5.714-8.94 7.583-3.458 1.98-7.211 3.162-11.101 3.299-4.054.144-8.125-.838-12.011-3.215-7.81 4.138-16.293 6.837-25.134 8.226z"/><path fill-rule="nonzero" d="M391.809 210.142a5.672 5.672 0 1111.189 1.865l-5.821 34.576c-1.174 6.933-1.195 12.401.045 17.122 1.2 4.568 3.67 8.678 7.509 13.002 5.157 4.932 9.749 9.954 13.703 15.076 4.059 5.259 7.445 10.636 10.078 16.143 4.395 9.195 6.811 19.394 6.082 29.262-.666 9.011-3.892 17.719-10.511 25.164-3.475 3.909-8.005 7.208-12.249 8.64-2.67.9-5.35 1.12-7.848.439-2.904-.791-5.283-2.627-6.828-5.762-1.375-2.792-1.992-6.687-1.494-11.909.151-1.584.371-3.293.593-5.028.47-3.652.955-7.431.75-10.539-.505-7.637-16.684-18.177-28.399-25.808-3.931-2.56-7.416-4.83-9.881-6.716-12.494-9.559-21.359-23.289-25.192-38.196-3.71-14.432-2.719-29.979 4.23-43.959a5.67 5.67 0 0110.169 5.018c-5.694 11.452-6.492 24.238-3.431 36.143 3.206 12.472 10.634 23.968 21.106 31.98 2.246 1.718 5.5 3.838 9.171 6.229 13.72 8.937 32.668 21.281 33.549 34.598.268 4.059-.294 8.438-.838 12.671a144.12 144.12 0 00-.549 4.672c-.27 2.832-.122 4.654.318 5.682.237-.032.571-.124.977-.26 2.347-.792 5.084-2.878 7.365-5.443 4.827-5.428 7.181-11.804 7.669-18.415.581-7.863-1.392-16.091-4.971-23.579-2.265-4.737-5.234-9.436-8.835-14.1-3.59-4.651-7.808-9.256-12.58-13.82a5.627 5.627 0 01-.546-.536c-5.071-5.684-8.38-11.279-10.084-17.763-1.672-6.367-1.711-13.343-.267-21.873l5.821-34.576z"/><path fill="#DDAB8F" d="M381.873 85.652l13.459-6.251a5.64 5.64 0 01-1.038-2.265c-4.119-19.346-12.001-34.043-23.1-44.647-9.665-9.233-21.87-15.473-36.24-19.073.129 15.462 3.458 28.643 9.886 39.615 7.316 12.487 18.746 22.286 34.136 29.495a5.638 5.638 0 012.897 3.126z"/><path fill="#B4897B" d="M376.69 81.421c-12.102-21.205-18.257-41.026-19.479-59.288-6.68-3.794-14.122-6.679-22.257-8.717.129 15.462 3.458 28.643 9.886 39.615 6.949 11.861 17.61 21.296 31.85 28.39z"/><path fill="#DDAB8F" d="M391.295 213.192l-42.881 11.75a5.646 5.646 0 01-.48 3.59c-5.694 11.452-6.492 24.238-3.431 36.143 3.206 12.472 10.634 23.968 21.106 31.98 2.246 1.718 5.5 3.838 9.171 6.229 13.72 8.937 32.668 21.281 33.549 34.598.268 4.059-.294 8.438-.838 12.671a144.12 144.12 0 00-.549 4.672c-.27 2.832-.122 4.654.318 5.682.237-.032.571-.124.977-.26 2.347-.792 5.084-2.878 7.365-5.443 4.827-5.428 7.181-11.804 7.669-18.415.581-7.863-1.392-16.091-4.971-23.579-2.265-4.737-5.234-9.436-8.835-14.1-3.59-4.651-7.808-9.256-12.58-13.82a5.627 5.627 0 01-.546-.536c-5.071-5.684-8.38-11.279-10.084-17.763-1.672-6.367-1.711-13.343-.267-21.873l5.307-31.526z"/></svg>