<svg xmlns="http://www.w3.org/2000/svg" shape-rendering="geometricPrecision" text-rendering="geometricPrecision" image-rendering="optimizeQuality" fill-rule="evenodd" clip-rule="evenodd" viewBox="0 0 512 412.85"><path fill="#D4867D" d="M326.51 294.4c-7.83 2.89-15.74 5.55-23.63 8.01 2.93 6.94 6.24 12.74 9.93 17.37 4.29 5.4 9.09 9.18 14.39 11.31a5.6 5.6 0 013.81 5.92l-3.87 34.15c-.33 2.87-2.8 5.06-5.73 4.97-9.04-.3-16.67 1.04-20.94 5.28-3.63 3.61-5.12 9.85-3.34 19.72h35.1c9.53 0 10-.89 14.56-9.43 1.05-1.96 2.21-4.12 2.92-5.42l18.86-34.17c1.98-4 2.89-7.99 2.84-11.95-.06-4.04-1.15-8.16-3.17-12.34l-18.14-42.99c-7.79 3.48-15.68 6.65-23.59 9.57z"/><path fill="#0E1117" fill-rule="nonzero" d="M293.88 293.48c9.58-2.88 19.24-6.05 28.78-9.57 9.6-3.54 19-7.39 27.98-11.58 2.79-1.3 6.1-.1 7.41 2.69l20.24 47.95c2.72 5.62 4.18 11.31 4.26 17.06.08 5.78-1.24 11.54-4.11 17.26l-.1.19.02.01-18.86 34.17c-1.49 2.7-2.24 4.09-2.87 5.29-7.44 13.93-8.21 15.37-24.4 15.37h-39.6a5.6 5.6 0 01-5.52-4.67c-4.01-16.53-1.35-27.35 5.5-34.15 5.77-5.74 14.23-8.17 23.99-8.52l2.85-25.19c-5.7-2.96-10.82-7.32-15.39-13.06-5.35-6.73-9.96-15.41-13.83-26-1.05-2.9.45-6.1 3.35-7.15l.3-.1zm32.63.92c-7.83 2.89-15.74 5.55-23.63 8.01 2.93 6.94 6.24 12.74 9.93 17.37 4.29 5.4 9.09 9.18 14.39 11.31a5.6 5.6 0 013.81 5.92l-3.87 34.15c-.33 2.87-2.8 5.06-5.73 4.97-9.04-.3-16.67 1.04-20.94 5.28-3.63 3.61-5.12 9.85-3.34 19.72h35.1c9.53 0 10-.89 14.56-9.43 1.05-1.96 2.21-4.12 2.92-5.42l18.86-34.17c1.98-4 2.89-7.99 2.84-11.95-.06-4.04-1.15-8.16-3.17-12.34l-18.14-42.99c-7.79 3.48-15.68 6.65-23.59 9.57z"/><path fill="#F1BF78" d="M253.31 229.56c-11.02 12.14-27.04 18.37-47.25 19.64-6.52 10.58-13.82 19.4-21.8 26.68a107.41 107.41 0 01-24.02 16.55l20.72 76.31c.65 3.02-1.27 6-4.29 6.65-8.26 1.8-14.22 4.9-17.4 9.65-2.65 3.97-3.55 9.43-2.45 16.62h39.5c6.82 0 11.82-.09 14.65-1.75 2.53-1.49 4.18-5.02 5.25-12.29l7.3-75.65a5.596 5.596 0 014.93-5.42c19-2.28 38.56-5.91 58.89-11.42 20.28-5.51 41.27-12.88 63.18-22.65.34-.18.71-.33 1.1-.44 2.97-.85 6.06.88 6.91 3.85 4.92 17.28 12.48 29.42 21.83 38.07 9.35 8.66 20.65 14 32.95 17.59 2.34.65 4.06 2.79 4.07 5.34l.21 32.62a5.584 5.584 0 01-5.05 5.76c-8.44.79-15.29 2.84-19.18 7.21-3.25 3.65-4.68 9.35-3.56 17.88h33.32c5.93 0 10.64-.38 14.15-2.16 3.27-1.65 5.97-4.82 8.34-10.52l14.94-44.4c1.5-5.53 2.26-10.46 1.71-14.62-.49-3.68-2.09-6.94-5.28-9.75-2.22-1.95-3.71-3.18-5.06-4.29-6.55-5.38-10.67-8.78-13.65-17.81-4.76-14.42-4.19-29.09-3.62-43.48.41-10.7.83-21.25-1.16-30.83-2.81-13.52-9.52-23.75-18.73-30.95-10.27-8.03-23.75-12.43-38.51-13.54H269.7c-.06 22.94-5.78 39.86-16.39 51.55z"/><path fill="#0E1117" fill-rule="nonzero" d="M202.63 238.2c18.58-.69 33-5.79 42.42-16.16 9.5-10.47 14.24-26.63 13.4-49.42-.1-3.08 2.3-5.67 5.38-5.77l.2-.01v-.02h112.32c.25 0 .49.02.73.05 16.86 1.26 32.43 6.43 44.54 15.89 11.24 8.79 19.41 21.19 22.79 37.47 2.27 10.9 1.83 22.12 1.38 33.52v.02c-.52 13.35-1.05 26.96 3.1 39.55 1.98 6.01 5.12 8.59 10.11 12.69 1.79 1.47 3.77 3.1 5.37 4.51 5.39 4.75 8.11 10.34 8.95 16.7.77 5.86-.13 12.17-1.98 18.99-.06.24-.15.48-.24.71l-14.97 44.48-.19.48c-3.52 8.48-7.95 13.41-13.64 16.29-5.51 2.79-11.69 3.38-19.18 3.38h-38.01c-2.85 0-5.2-2.13-5.55-4.88-3-14.75-.62-24.8 5.45-31.62 5.1-5.72 12.54-8.79 21.4-10.24l-.15-23.77c-12.31-4.02-23.69-9.86-33.46-18.9-9.66-8.94-17.61-20.88-23.13-37.11-20.63 8.91-40.37 15.72-59.4 20.89-19.28 5.23-37.9 8.81-56.04 11.18l-6.96 72.13h.01c-1.63 11.07-5.01 16.96-10.67 20.3-5.37 3.16-11.74 3.32-20.29 3.32h-44.09c-2.72 0-4.99-1.95-5.49-4.52-2.94-12.48-1.65-22.14 3.27-29.49 4.04-6.05 10.35-10.23 18.61-12.87l-20.39-75.11a5.58 5.58 0 013.37-6.67c9-4.1 17.42-9.54 25.14-16.57 7.84-7.16 14.98-15.96 21.28-26.66 1-1.71 2.77-2.69 4.61-2.76zm50.68-8.64c-11.02 12.14-27.04 18.37-47.25 19.64-6.52 10.58-13.82 19.4-21.8 26.68a107.41 107.41 0 01-24.02 16.55l20.72 76.31c.65 3.02-1.27 6-4.29 6.65-8.26 1.8-14.22 4.9-17.4 9.65-2.65 3.97-3.55 9.43-2.45 16.62h39.5c6.82 0 11.82-.09 14.65-1.75 2.53-1.49 4.18-5.02 5.25-12.29l7.3-75.65a5.596 5.596 0 014.93-5.42c19-2.28 38.56-5.91 58.89-11.42 20.28-5.51 41.27-12.88 63.18-22.65.34-.18.71-.33 1.1-.44 2.97-.85 6.06.88 6.91 3.85 4.92 17.28 12.48 29.42 21.83 38.07 9.35 8.66 20.65 14 32.95 17.59 2.34.65 4.06 2.79 4.07 5.34l.21 32.62a5.584 5.584 0 01-5.05 5.76c-8.44.79-15.29 2.84-19.18 7.21-3.25 3.65-4.68 9.35-3.56 17.88h33.32c5.93 0 10.64-.38 14.15-2.16 3.27-1.65 5.97-4.82 8.34-10.52l14.94-44.4c1.5-5.53 2.26-10.46 1.71-14.62-.49-3.68-2.09-6.94-5.28-9.75-2.22-1.95-3.71-3.18-5.06-4.29-6.55-5.38-10.67-8.78-13.65-17.81-4.76-14.42-4.19-29.09-3.62-43.48.41-10.7.83-21.25-1.16-30.83-2.81-13.52-9.52-23.75-18.73-30.95-10.27-8.03-23.75-12.43-38.51-13.54H269.7c-.06 22.94-5.78 39.86-16.39 51.55z"/><path fill="#D4867D" d="M150.55 299.43l-3.43 3.27a5.59 5.59 0 01-7.62.07l-30.3-24.24 25.25 90.76a5.58 5.58 0 01-5.71 7.05c-9.65-.23-16.77 1.6-20.66 6.03-3.41 3.89-4.7 10.17-3.51 19.29l40.95-.14c-1.09-9.27.51-16.74 4.5-22.7 4.02-6.01 10.3-10.18 18.51-12.82l-6.91-25.85-11.07-40.72z"/><path fill="#0E1117" fill-rule="nonzero" d="M150.55 299.43l-3.43 3.27a5.59 5.59 0 01-7.62.07l-30.3-24.24 25.25 90.76a5.58 5.58 0 01-5.71 7.05c-9.65-.23-16.77 1.6-20.66 6.03-3.41 3.89-4.7 10.17-3.51 19.29l40.95-.14c-1.09-9.27.51-16.74 4.5-22.7 4.02-6.01 10.3-10.18 18.51-12.82l-6.91-25.85-11.07-40.72zm-7.6-8.17l6.74-6.43a5.44 5.44 0 012.54-1.47c2.98-.78 6.04 1 6.82 3.98l.15.56c.11.44.17.89.18 1.33 7.17 26.42 14.65 53.02 21.46 79.54a5.587 5.587 0 01-4.29 6.64c-8.19 1.81-14.1 4.89-17.27 9.62-3.15 4.71-3.84 11.49-1.65 20.77l-.01.01c.09.4.14.83.14 1.26 0 3.08-2.5 5.58-5.57 5.58l-51.91.17c-2.8.23-5.38-1.68-5.93-4.5-3.03-15.27-.95-26.11 5.34-33.29 5.07-5.78 12.57-8.84 22.1-9.64l-27.96-100.5a5.6 5.6 0 011.03-4.97c1.91-2.4 5.42-2.79 7.82-.87l40.27 32.21zM433.37 213.25a5.599 5.599 0 01-3.65-7.02 5.599 5.599 0 017.02-3.65c13.81 4.37 27.1 1.78 37.93-4.94 5.56-3.45 10.51-8 14.57-13.27 4.03-5.24 7.18-11.21 9.18-17.52 3.96-12.54 3.28-26.34-4.15-38.32-4.27-6.89-11.56-13.19-18.73-19.39-2.48-2.14-4.95-4.27-7.04-6.18-5.38-4.92-11.11-10.82-14.55-17.64-2.84-5.65-4.1-11.75-2.47-18.2-5.22-9.43-7.52-18.23-7.47-26.17.05-7.11 1.97-13.48 5.38-18.99 3.37-5.44 8.14-9.98 13.95-13.48 9.17-5.52 21.01-8.52 33.98-8.48 2.42-.09 4.71 1.4 5.51 3.81 4.21 12.57 5.26 23.76 3.87 33.26-1.25 8.46-4.42 15.62-9.04 21.27-4.67 5.71-10.8 9.85-17.92 12.24-5.43 1.82-11.42 2.6-17.74 2.24-.01 2.59.72 5.09 1.92 7.47 2.64 5.26 7.5 10.2 12.1 14.41 2.38 2.17 4.6 4.08 6.82 6.01 7.8 6.74 15.72 13.58 20.92 21.96 9.3 15 10.21 32.11 5.32 47.55-2.37 7.51-6.15 14.66-11.01 20.97-4.85 6.29-10.8 11.75-17.55 15.93-13.45 8.35-29.97 11.56-47.15 6.13zm25.75-155.77c.93 0 1.87.23 2.74.73 1.39.79 2.31 2.08 2.67 3.52 4.19.05 8.12-.54 11.67-1.73 5.09-1.71 9.47-4.66 12.8-8.74 3.37-4.12 5.7-9.43 6.64-15.8 1.01-6.92.42-15.04-2.18-24.22-9.36.48-17.77 2.85-24.35 6.81-4.34 2.62-7.85 5.91-10.24 9.77-2.35 3.8-3.68 8.23-3.71 13.17-.04 4.95 1.2 10.47 3.96 16.49z"/><path fill="#E7957F" d="M461.17 61.56c5.46.49 10.55-.06 15.03-1.56 5.09-1.71 9.47-4.66 12.8-8.74 3.37-4.12 5.7-9.43 6.64-15.8 1.01-6.92.42-15.04-2.18-24.22-9.36.48-17.77 2.85-24.35 6.81-4.34 2.62-7.85 5.91-10.24 9.77-2.35 3.8-3.68 8.23-3.71 13.17-.04 6.05 1.81 12.95 6.01 20.57z"/><path fill="#D1A27F" d="M110.87 16.68c-8.67-.88-17.18 1.22-25.52 6.41l3.58 12.58c.26.8.34 1.66.21 2.54-.46 3.05-3.31 5.16-6.36 4.7-12.89-1.95-23.99-.07-32.88 4.28-6.66 3.27-12.12 7.97-16.16 13.49-4 5.48-6.6 11.79-7.59 18.35-1.15 7.62-.14 15.56 3.37 22.91a5.597 5.597 0 01-.34 6.19 95.749 95.749 0 00-4.73 6.92c-11.77 18.9-15.15 39.02-12.39 56.78 2.73 17.54 11.46 32.76 23.99 42.13 1.2.89 2.4 1.72 3.61 2.47.91.56 1.66 1.4 2.14 2.45 6.87 15.2 15.64 26.92 26.29 34.87 10.27 7.67 22.39 11.87 36.35 12.35 1.43.01 2.86.57 3.94 1.67 5.74 5.84 11.42 10.82 17.54 14.56 5.64 3.44 11.74 5.85 18.75 6.93a78.086 78.086 0 0019.98-8.35c6.28-3.71 11.82-8.12 16.78-12.87 1-.96 2.36-1.55 3.85-1.55 13.05-.08 25.83-4.56 36.81-12.82 10.75-8.08 19.78-19.79 25.68-34.56a5.588 5.588 0 012.21-2.64l.83-.54h.02c16.07-10.48 24.9-27.76 26.92-46.93 2.07-19.6-2.91-41.13-14.48-59.56.03-.01-.66-1.05-.73-1.16a5.58 5.58 0 01-.95-4.58c2.7-11.44 2.55-21.2.39-29.35-2.31-8.72-6.92-15.65-12.75-20.82-5.89-5.21-13.06-8.68-20.38-10.41-7.15-1.68-14.38-1.71-20.67-.11-.84.27-1.75.35-2.68.19a5.597 5.597 0 01-4.55-6.47l2.43-13.71c-11.33-5.77-20.92-7.35-29.26-5.92-9.08 1.55-16.98 6.73-24.2 13.95a5.596 5.596 0 01-7.53.48c-10.95-8.83-21.47-13.84-31.52-14.85z"/><path fill="#0E1117" fill-rule="nonzero" d="M75.97 15.96C87.53 7.72 99.53 4.31 111.96 5.57c11.04 1.12 22.23 5.93 33.56 14.28 7.88-7.03 16.61-12.03 26.72-13.76 11.62-1.99 24.77.4 40.1 9.09a5.577 5.577 0 012.75 5.81h.01l-1.75 9.87c5.84-.5 11.99-.05 18.03 1.38 9.02 2.13 17.88 6.43 25.23 12.94 7.41 6.56 13.26 15.33 16.17 26.32 2.45 9.27 2.8 20.09.21 32.43 12.72 20.48 18.17 44.38 15.87 66.2-2.35 22.19-12.65 42.3-31.4 54.79-6.7 15.93-16.74 28.69-28.68 37.67-12.27 9.22-26.52 14.43-41.21 14.99-5.15 4.76-10.86 9.17-17.24 12.94-7.1 4.2-15.04 7.62-23.98 9.85-.81.2-1.63.21-2.41.07-8.98-1.25-16.72-4.25-23.84-8.59-6.43-3.92-12.3-8.91-18.12-14.7-15.47-.89-29-5.8-40.57-14.43-11.83-8.83-21.53-21.5-29.1-37.73-1.01-.67-2-1.36-2.95-2.07-14.83-11.09-25.13-28.93-28.31-49.38-3.16-20.24.64-43.07 13.91-64.39 1.06-1.7 2.17-3.38 3.33-5.04a50.342 50.342 0 01-3.2-26.74c1.25-8.31 4.56-16.32 9.65-23.29 5.05-6.91 11.9-12.79 20.27-16.9 8.79-4.31 19.22-6.65 30.98-6.15l-2.49-8.76c-.71-2.48.37-5.04 2.47-6.31zm34.9.72c-8.67-.88-17.18 1.22-25.52 6.41l3.58 12.58c.26.8.34 1.66.21 2.54-.46 3.05-3.31 5.16-6.36 4.7-12.89-1.95-23.99-.07-32.88 4.28-6.66 3.27-12.12 7.97-16.16 13.49-4 5.48-6.6 11.79-7.59 18.35-1.15 7.62-.14 15.56 3.37 22.91a5.597 5.597 0 01-.34 6.19 95.749 95.749 0 00-4.73 6.92c-11.77 18.9-15.15 39.02-12.39 56.78 2.73 17.54 11.46 32.76 23.99 42.13 1.2.89 2.4 1.72 3.61 2.47.91.56 1.66 1.4 2.14 2.45 6.87 15.2 15.64 26.92 26.29 34.87 10.27 7.67 22.39 11.87 36.35 12.35 1.43.01 2.86.57 3.94 1.67 5.74 5.84 11.42 10.82 17.54 14.56 5.64 3.44 11.74 5.85 18.75 6.93a78.086 78.086 0 0019.98-8.35c6.28-3.71 11.82-8.12 16.78-12.87 1-.96 2.36-1.55 3.85-1.55 13.05-.08 25.83-4.56 36.81-12.82 10.75-8.08 19.78-19.79 25.68-34.56a5.588 5.588 0 012.21-2.64l.83-.54h.02c16.07-10.48 24.9-27.76 26.92-46.93 2.07-19.6-2.91-41.13-14.48-59.56.03-.01-.66-1.05-.73-1.16a5.58 5.58 0 01-.95-4.58c2.7-11.44 2.55-21.2.39-29.35-2.31-8.72-6.92-15.65-12.75-20.82-5.89-5.21-13.06-8.68-20.38-10.41-7.15-1.68-14.38-1.71-20.67-.11-.84.27-1.75.35-2.68.19a5.597 5.597 0 01-4.55-6.47l2.43-13.71c-11.33-5.77-20.92-7.35-29.26-5.92-9.08 1.55-16.98 6.73-24.2 13.95a5.596 5.596 0 01-7.53.48c-10.95-8.83-21.47-13.84-31.52-14.85zM173.22 386.61a5.584 5.584 0 017.89.41 5.584 5.584 0 01-.41 7.89c-.84.76-1.44 1.57-1.82 2.44-.44.99-.68 2.21-.77 3.66a5.6 5.6 0 01-5.93 5.23 5.598 5.598 0 01-5.22-5.93c.18-2.72.7-5.16 1.69-7.42 1.04-2.38 2.53-4.44 4.57-6.28zM118.02 386.61a5.584 5.584 0 017.89.41 5.584 5.584 0 01-.41 7.89c-.85.76-1.44 1.57-1.82 2.44-.44.99-.68 2.21-.77 3.66a5.6 5.6 0 01-5.93 5.23 5.591 5.591 0 01-5.22-5.93c.17-2.72.7-5.16 1.69-7.42 1.04-2.38 2.53-4.44 4.57-6.28zM405 386.63a5.578 5.578 0 017.87.39c2.06 2.28 1.89 5.81-.39 7.87-.84.75-1.43 1.56-1.83 2.46-.43.99-.67 2.21-.77 3.66a5.584 5.584 0 01-5.92 5.23c-3.08-.2-5.42-2.85-5.22-5.93.17-2.72.7-5.16 1.69-7.42 1.03-2.35 2.52-4.41 4.57-6.26zM311.55 386.63c2.28-2.06 5.81-1.89 7.87.39 2.06 2.28 1.89 5.81-.39 7.87-.84.75-1.43 1.56-1.82 2.46-.44.99-.68 2.21-.77 3.66a5.6 5.6 0 01-5.93 5.23 5.591 5.591 0 01-5.22-5.93c.17-2.72.7-5.16 1.69-7.42 1.03-2.35 2.52-4.41 4.57-6.26z"/><path fill="#BF837B" d="M144.66 289.26h.01c7.42-1.95 14.03-4.84 19.98-8.35 6.28-3.71 11.82-8.12 16.78-12.87h.01a5.55 5.55 0 013.84-1.55c13.05-.08 25.83-4.56 36.81-12.82 10.75-8.08 19.78-19.79 25.68-34.56a5.588 5.588 0 012.21-2.64c.33-.21.62-.39.85-.54 16.07-10.48 24.9-27.76 26.92-46.94 2.07-19.6-2.9-41.12-14.48-59.55-.26-.42-.5-.8-.73-1.15a5.603 5.603 0 01-.95-4.59c2.7-11.44 2.55-21.2.39-29.36-2.31-8.71-6.92-15.64-12.75-20.81-4.98-4.4-10.86-7.56-16.98-9.47-30.5 80.23-59.14 144.12-87.59 206.33v38.87z"/><path fill="#EFBB82" d="M65.38 108.23c3.23-6.73 7.14-12.85 11.69-18.36l.2-.22a89.252 89.252 0 0115.02-14.29c-2.2-2.83-4.48-5.3-6.83-7.36l-.21-.18c-3-2.57-6.1-4.42-9.33-5.43-5.12-1.59-10.03-1.18-14.28.59-4.09 1.7-7.61 4.67-10.19 8.33-2.58 3.67-4.2 8.02-4.47 12.49-.28 4.76.97 9.68 4.22 14.07 1.81 2.45 4.21 4.69 7.16 6.65a40.75 40.75 0 007.02 3.71z"/><path fill="#0E1117" fill-rule="nonzero" d="M65.38 108.23c3.23-6.73 7.14-12.85 11.69-18.36l.2-.22a89.252 89.252 0 0115.02-14.29c-2.2-2.83-4.48-5.3-6.83-7.36l-.21-.18c-3-2.57-6.1-4.42-9.33-5.43-5.12-1.59-10.03-1.18-14.28.59-4.09 1.7-7.61 4.67-10.19 8.33-2.58 3.67-4.2 8.02-4.47 12.49-.28 4.76.97 9.68 4.22 14.07 1.81 2.45 4.21 4.69 7.16 6.65a40.75 40.75 0 007.02 3.71zm18.18-12.99c-4.86 5.89-8.91 12.53-12.09 19.95a4.212 4.212 0 01-5.19 2.34c-4.79-1.59-9-3.61-12.57-5.99-3.76-2.51-6.87-5.42-9.27-8.66-4.52-6.11-6.25-12.95-5.86-19.57.36-6.07 2.53-11.93 5.99-16.85 3.46-4.92 8.25-8.93 13.84-11.26 5.98-2.48 12.84-3.07 19.98-.85 4.39 1.37 8.5 3.79 12.35 7.09l.25.2c3.7 3.22 7.2 7.3 10.53 12.08l.14.2a4.21 4.21 0 01-1.1 5.85c-6.39 4.39-12.02 9.46-16.82 15.24l-.18.23z"/><path fill="#CB9695" d="M73.73 93.04c.89-1.27 1.82-2.49 2.77-3.66.91-1.12 1.83-2.2 2.76-3.23-.42-.4-.84-.82-1.27-1.26-1.77-1.85-4.23-4.25-6.65-5.38-1.59-.75-3.25-.84-4.64.69-.29.32-.56.67-.79 1.04-.78 1.27-.82 2.56-.42 3.74.52 1.53 1.69 3.02 3.06 4.26l.17.17c.67.59 1.41 1.13 2.16 1.59 1.03.64 1.95 1.34 2.85 2.04z"/><path fill="#0E1117" fill-rule="nonzero" d="M73.73 93.04c.89-1.27 1.82-2.49 2.77-3.66.91-1.12 1.83-2.2 2.76-3.23-.42-.4-.84-.82-1.27-1.26-1.77-1.85-4.23-4.25-6.65-5.38-1.59-.75-3.25-.84-4.64.69-.29.32-.56.67-.79 1.04-.78 1.27-.82 2.56-.42 3.74.52 1.53 1.69 3.02 3.06 4.26l.17.17c.67.59 1.41 1.13 2.16 1.59 1.03.64 1.95 1.34 2.85 2.04zm8.62 1.09c-1.53 1.89-3.02 3.94-4.38 6.19a3.762 3.762 0 01-5.12 1.31c-1.33-.77-2.41-1.61-3.51-2.46-.78-.61-1.57-1.22-2.45-1.76a24.23 24.23 0 01-3.18-2.39l-.24-.2c-2.21-2-4.16-4.55-5.13-7.42-1.08-3.21-.98-6.7 1.17-10.15.42-.68.96-1.38 1.61-2.1 4.23-4.67 8.99-4.54 13.41-2.46 3.58 1.67 6.72 4.69 8.92 7 .48.5 1.03 1.02 1.56 1.54.7.65 1.39 1.31 2.15 2.15 1.47 1.45 1.5 3.82.06 5.3-1.65 1.69-3.3 3.51-4.87 5.45z"/><path fill="#EFBB82" d="M212.21 89.87c4.55 5.51 8.46 11.63 11.68 18.37 2.6-1.08 4.94-2.33 7.03-3.72 2.95-1.96 5.34-4.2 7.16-6.65 3.25-4.39 4.5-9.31 4.21-14.07-.26-4.47-1.88-8.82-4.47-12.49-2.57-3.66-6.1-6.63-10.18-8.33-4.26-1.77-9.16-2.18-14.28-.59-3.23 1.01-6.34 2.86-9.34 5.43l-.2.18c-2.36 2.06-4.63 4.53-6.83 7.36 5.58 4.21 10.6 8.97 15.02 14.29l.2.22z"/><path fill="#0E1117" fill-rule="nonzero" d="M217.81 115.19c-3.18-7.42-7.23-14.06-12.09-19.95l-.18-.23c-4.81-5.78-10.43-10.85-16.82-15.24a4.212 4.212 0 01-1.11-5.85l.15-.19c3.33-4.79 6.83-8.87 10.53-12.09l.24-.2c3.86-3.3 7.96-5.72 12.36-7.09 7.14-2.22 14-1.63 19.98.85 5.59 2.33 10.38 6.34 13.84 11.26 3.46 4.92 5.62 10.78 5.99 16.85.39 6.62-1.35 13.46-5.87 19.57-2.39 3.24-5.5 6.15-9.26 8.66-3.57 2.38-7.78 4.4-12.57 5.99-2.09.69-4.34-.35-5.19-2.34zm-5.6-25.32c4.55 5.51 8.46 11.63 11.68 18.37 2.6-1.08 4.94-2.33 7.03-3.72 2.95-1.96 5.34-4.2 7.16-6.65 3.25-4.39 4.5-9.31 4.21-14.07-.26-4.47-1.88-8.82-4.47-12.49-2.57-3.66-6.1-6.63-10.18-8.33-4.26-1.77-9.16-2.18-14.28-.59-3.23 1.01-6.34 2.86-9.34 5.43l-.2.18c-2.36 2.06-4.63 4.53-6.83 7.36 5.58 4.21 10.6 8.97 15.02 14.29l.2.22z"/><path fill="#CB9695" d="M212.78 89.38c.95 1.17 1.88 2.39 2.77 3.66.9-.7 1.82-1.4 2.85-2.04.78-.49 1.58-1.08 2.33-1.76 1.37-1.24 2.54-2.73 3.06-4.26.4-1.19.36-2.47-.43-3.74-.19-.31-.4-.6-.64-.87l-.14-.16c-1.4-1.53-3.06-1.44-4.64-.7-2.42 1.13-4.88 3.53-6.65 5.38-.43.44-.85.86-1.27 1.26.93 1.03 1.85 2.11 2.76 3.23z"/><path fill="#0E1117" fill-rule="nonzero" d="M211.3 100.32c-1.36-2.25-2.84-4.3-4.37-6.19a78.737 78.737 0 00-4.87-5.45 3.767 3.767 0 01.06-5.31c.76-.83 1.46-1.49 2.15-2.14.54-.52 1.08-1.04 1.56-1.54 2.2-2.31 5.34-5.32 8.92-7 4.42-2.08 9.18-2.22 13.41 2.45l.2.24c.56.64 1.03 1.26 1.41 1.87 2.15 3.45 2.25 6.94 1.16 10.15-.96 2.86-2.91 5.41-5.12 7.42-1.1 1-2.28 1.87-3.42 2.59-.88.54-1.67 1.15-2.45 1.76-1.1.85-2.19 1.69-3.51 2.46a3.774 3.774 0 01-5.13-1.31zm1.48-10.94c.95 1.17 1.88 2.39 2.77 3.66.9-.7 1.82-1.4 2.85-2.04.78-.49 1.58-1.08 2.33-1.76 1.37-1.24 2.54-2.73 3.06-4.26.4-1.19.36-2.47-.43-3.74-.19-.31-.4-.6-.64-.87l-.14-.16c-1.4-1.53-3.06-1.44-4.64-.7-2.42 1.13-4.88 3.53-6.65 5.38-.43.44-.85.86-1.27 1.26.93 1.03 1.85 2.11 2.76 3.23z"/><path fill="#F0C188" d="M172.98 227.36c.96-1.56 1.84-3.22 2.63-4.97.77-1.71 1.46-3.52 2.05-5.41a5.593 5.593 0 013.48-3.61c20.2-8.42 32.1-22.31 37.79-38.05 6.99-19.37 4.78-41.65-2.91-60.3-4.27-10.36-10.99-20.06-18.98-27.14-5.4-4.78-11.34-8.34-17.44-10.02-5.79-1.6-11.77-1.49-17.59.91-4.48 1.84-8.93 5.06-13.23 9.91-2.04 2.3-5.56 2.52-7.86.48-.19-.17-.36-.34-.52-.52-4.35-4.9-8.85-8.16-13.36-10.04-5.81-2.41-11.74-2.55-17.45-.98-6.02 1.64-11.88 5.15-17.22 9.88-7.99 7.08-14.72 16.83-19.05 27.24l-.11.27c-7.04 17.04-9.49 37.13-4.52 55.25 4.88 17.83 17.11 33.84 39.47 43.14l.2.09c1.6.66 2.72 1.97 3.19 3.49.56 1.78 1.16 3.48 1.83 5.05.67 1.57 1.4 3.03 2.19 4.3h.03c3.16 5.06 7.21 8.98 11.71 11.75h.02c5.45 3.35 11.57 5.04 17.62 5.06 6.06.02 12.09-1.61 17.36-4.91 4.14-2.59 7.81-6.21 10.67-10.87z"/><path fill="#0E1117" fill-rule="nonzero" d="M172.98 227.36c.96-1.56 1.84-3.22 2.63-4.97.77-1.71 1.46-3.52 2.05-5.41a5.593 5.593 0 013.48-3.61c20.2-8.42 32.1-22.31 37.79-38.05 6.99-19.37 4.78-41.65-2.91-60.3-4.27-10.36-10.99-20.06-18.98-27.14-5.4-4.78-11.34-8.34-17.44-10.02-5.79-1.6-11.77-1.49-17.59.91-4.48 1.84-8.93 5.06-13.23 9.91-2.04 2.3-5.56 2.52-7.86.48-.19-.17-.36-.34-.52-.52-4.35-4.9-8.85-8.16-13.36-10.04-5.81-2.41-11.74-2.55-17.45-.98-6.02 1.64-11.88 5.15-17.22 9.88-7.99 7.08-14.72 16.83-19.05 27.24l-.11.27c-7.04 17.04-9.49 37.13-4.52 55.25 4.88 17.83 17.11 33.84 39.47 43.14l.2.09c1.6.66 2.72 1.97 3.19 3.49.56 1.78 1.16 3.48 1.83 5.05.67 1.57 1.4 3.03 2.19 4.3h.03c3.16 5.06 7.21 8.98 11.71 11.75h.02c5.45 3.35 11.57 5.04 17.62 5.06 6.06.02 12.09-1.61 17.36-4.91 4.14-2.59 7.81-6.21 10.67-10.87zm12.81-.38c-.97 2.16-2.07 4.22-3.28 6.19-3.82 6.22-8.74 11.07-14.3 14.54-7.05 4.42-15.13 6.61-23.26 6.58a45.206 45.206 0 01-23.48-6.68l.01-.01c-5.94-3.66-11.25-8.78-15.37-15.37l.02-.01a41.3 41.3 0 01-3.02-5.82c-.51-1.19-.97-2.4-1.4-3.62-24.59-10.93-38.19-29.22-43.77-49.59-5.65-20.63-2.94-43.31 4.96-62.44l.11-.29c4.94-11.89 12.7-23.09 21.97-31.3 6.56-5.82 13.93-10.18 21.68-12.3 8.05-2.2 16.43-2 24.66 1.43 4.53 1.89 8.99 4.75 13.3 8.73 4.24-3.9 8.65-6.71 13.15-8.57 8.27-3.4 16.7-3.58 24.8-1.34 7.8 2.15 15.23 6.55 21.86 12.42 9.26 8.2 17 19.37 21.9 31.25 8.65 20.96 11.07 46.18 3.09 68.3-6.5 17.98-19.74 33.84-41.93 43.7a55.79 55.79 0 01-1.7 4.2z"/><path fill="#E6987C" d="M177.64 217.04l.02-.06a5.608 5.608 0 013.47-3.6c20.2-8.43 32.11-22.31 37.8-38.06 6.99-19.37 4.78-41.65-2.91-60.3-3.58-8.68-8.87-16.88-15.18-23.48 22.27 41.67 5.05 83.7-41.92 126.04l18.72-.54z"/><circle fill="#fff" cx="107.51" cy="131.15" r="4.95"/><circle fill="#fff" cx="182.67" cy="131.15" r="4.95"/><path fill="#0E1117" fill-rule="nonzero" d="M258.36 222.51c-.7 3.01-3.7 4.88-6.71 4.18-3-.7-4.87-3.71-4.17-6.71 1.61-6.93 2.22-13.85 1.81-20.74-.41-6.91-1.84-13.84-4.28-20.79-1.03-2.91.5-6.1 3.4-7.12 2.91-1.03 6.1.5 7.13 3.41 2.79 7.92 4.42 15.87 4.9 23.85.47 7.98-.22 15.96-2.08 23.92zM108.4 267.9a5.563 5.563 0 01-.17 7.87 5.563 5.563 0 01-7.87-.17c-4.96-5.19-9.17-10.97-12.43-17.31a70.467 70.467 0 01-6.72-19.9 5.565 5.565 0 014.5-6.47 5.578 5.578 0 016.47 4.5c1.07 6 3.01 11.6 5.67 16.76 2.8 5.43 6.37 10.35 10.55 14.72zm-66.29-47.92c.69 3-1.17 6.01-4.18 6.71-3 .7-6.01-1.17-6.71-4.18-1.85-7.96-2.54-15.94-2.07-23.92.47-7.98 2.1-15.93 4.89-23.85a5.588 5.588 0 017.13-3.41c2.91 1.02 4.43 4.21 3.41 7.12-2.45 6.95-3.88 13.88-4.29 20.79-.4 6.89.2 13.81 1.82 20.74zm147.25 55.95a5.572 5.572 0 01-7.87.17 5.572 5.572 0 01-.18-7.87c4.19-4.37 7.76-9.29 10.56-14.72 2.66-5.16 4.6-10.76 5.67-16.76.54-3.03 3.44-5.04 6.47-4.5s5.04 3.44 4.5 6.47a70.467 70.467 0 01-6.72 19.9c-3.26 6.34-7.47 12.12-12.43 17.31z"/><path fill="#AF7B72" d="M133.15 180.63c3.99 2.26 8.22 4.66 11.46 8.3 3.24-3.64 7.47-6.04 11.46-8.3l1.47-.84c2.76-1.58 5.06-3.46 6.12-5.15l.03-.04c-.83-.36-2.18-.65-4.16-.82-1.97-.17-4 .15-6.05.76-2.22.66-4.56 1.69-6.88 2.82-1.21.59-2.67.63-3.98 0-2.32-1.13-4.66-2.16-6.88-2.82-2.05-.61-4.08-.93-6.05-.76-1.98.17-3.33.46-4.16.82l.03.04c1.03 1.65 3.27 3.49 5.95 5.06l1.64.93z"/><path fill="#E6DBE0" d="M172.98 227.34c.98-1.6 1.86-3.25 2.63-4.95.78-1.72 1.46-3.52 2.05-5.41a5.608 5.608 0 013.47-3.6c9.08-3.79 16.49-8.68 22.41-14.35 1.49-39.04-115.21-40.06-118.46-.6 6.03 5.94 13.66 11.05 23.08 14.97l.2.09c1.6.66 2.72 1.97 3.19 3.49.56 1.78 1.16 3.47 1.83 5.05.64 1.51 1.37 2.95 2.21 4.3 3.17 5.07 7.21 8.98 11.72 11.75 5.45 3.35 11.57 5.04 17.64 5.06 6.06.02 12.09-1.61 17.36-4.91 4.14-2.59 7.81-6.21 10.67-10.87l.01-.01-.01-.01z"/><path fill="#0E1117" d="M170.81 134.47c1.45 5.19 6.21 8.99 11.86 8.99 6.79 0 12.3-5.51 12.3-12.31 0-1.2-.17-2.35-.49-3.45 1.18.51 2.36 1.11 3.54 1.81 2 1.18 4.58.51 5.76-1.49 1.18-2 .52-4.58-1.48-5.76-5.81-3.45-11.91-5.09-17.57-5.06-5.23.03-10.08 1.49-14.01 4.27-4.02 2.83-7.06 6.99-8.57 12.38-1.45 5.12-1.48 11.36.41 18.59l.66 2.51c.98 3.65 1.96 7.27 2.18 10.67-1.45-.42-3.14-.72-5.09-.89-3.17-.28-6.31.2-9.39 1.11-2.18.64-4.27 1.49-6.31 2.41-2.04-.92-4.14-1.77-6.32-2.41-3.07-.91-6.21-1.39-9.38-1.11-1.84.16-3.44.44-4.83.82.23-3.38 1.2-6.98 2.17-10.6l.66-2.51c1.89-7.23 1.86-13.47.42-18.59-1.52-5.39-4.56-9.55-8.57-12.38-3.94-2.78-8.79-4.24-14.02-4.27-5.66-.03-11.76 1.61-17.57 5.06-2 1.18-2.66 3.76-1.48 5.76a4.22 4.22 0 005.77 1.49c1.44-.86 2.89-1.57 4.34-2.14-.38 1.19-.59 2.46-.59 3.78 0 6.8 5.51 12.31 12.3 12.31 5.27 0 9.76-3.31 11.52-7.96.07.2.13.41.19.62 1.06 3.77 1.04 8.52-.45 14.21l-.66 2.45c-1.9 7.04-3.78 14.03-1.89 20.6l-.02.2c-.12 1.98.5 3.96 1.69 5.86 1.82 2.91 5.21 5.83 9.07 8.09l1.71.98c4.78 2.71 10 5.67 11.61 10.76.03.11.07.22.11.33.09.62.14 1.29.14 2v.02c-1.35 6.71-6.53 10.97-13.01 12.73-3.64.99-7.67 1.22-11.69.68-4.06-.55-8.1-1.86-11.72-3.96-8-4.62-13.96-13.14-13.47-25.61a4.202 4.202 0 10-8.4-.33c-.64 16.1 7.17 27.17 17.65 33.23 4.59 2.65 9.7 4.32 14.82 5.01 5.15.69 10.33.4 15.02-.88 6.11-1.67 11.44-4.95 15-9.85 3.55 4.9 8.88 8.18 14.99 9.85 4.7 1.28 9.88 1.57 15.03.88 5.12-.69 10.22-2.36 14.82-5.01 10.47-6.06 18.29-17.13 17.65-33.23a4.211 4.211 0 00-4.37-4.04 4.203 4.203 0 00-4.03 4.37c.49 12.46-5.47 20.99-13.47 25.61-3.62 2.1-7.66 3.41-11.72 3.96-4.02.54-8.05.31-11.7-.68-6.44-1.76-11.61-5.99-12.99-12.67v-.08c0-1.29.16-2.43.44-3.47 1.97-4.41 6.76-7.12 11.17-9.62l1.48-.85c3.96-2.28 7.44-5.26 9.3-8.22 1.08-1.73 1.7-3.54 1.7-5.34 2.25-6.77.3-14.02-1.67-21.32l-.66-2.45c-1.49-5.69-1.5-10.44-.45-14.21.17-.57.35-1.12.56-1.65zm-7.45 40c-.54.79-1.2 1.55-1.99 2.27-1.8 1.63-4.21 3.02-6.59 4.4-3.69 2.13-7.36 4.25-10.04 7.45-2.69-3.2-6.36-5.32-10.05-7.45-2.38-1.38-4.78-2.77-6.58-4.4-.82-.74-1.49-1.52-2.04-2.34.83-.27 2.02-.48 3.62-.62 1.97-.17 4 .15 6.05.76 2.22.66 4.56 1.69 6.88 2.82 1.31.63 2.77.59 3.98 0 2.32-1.13 4.66-2.16 6.88-2.82 2.05-.61 4.08-.93 6.05-.76 1.74.15 2.99.39 3.83.69zm-55.85-48.27c2.74 0 4.95 2.22 4.95 4.95 0 2.74-2.21 4.95-4.95 4.95-2.73 0-4.95-2.21-4.95-4.95 0-2.73 2.22-4.95 4.95-4.95zm75.16 0c-2.74 0-4.96 2.22-4.96 4.95a4.95 4.95 0 004.96 4.95c2.73 0 4.95-2.21 4.95-4.95 0-2.73-2.22-4.95-4.95-4.95z"/></svg>