<svg xmlns="http://www.w3.org/2000/svg" shape-rendering="geometricPrecision" text-rendering="geometricPrecision" image-rendering="optimizeQuality" fill-rule="evenodd" clip-rule="evenodd" viewBox="0 0 512 315.05"><path fill="#263B67" fill-rule="nonzero" d="M105.34 213.45c2.4-1.43 4.73-2.92 6.96-4.45-3.97.7-7.91 1.33-11.82 1.88l4.86 2.57zM88.58 221l.52-8.78c-4.79.46-9.51.77-14.15.91l-5.23 7.51c-.25.35-.57.68-.95.95a3.935 3.935 0 01-5.48-.92l-5.82-8.19-.63-.1-3.91 7.34a3.94 3.94 0 01-6.67.83l-10.74-13.46c-8.66-2.78-17.47-6.35-24-10.37l.01-.01C5.26 192.85.87 188.39.09 183.45c-1.46-9.13 16.43-24.54 25.55-32.4 1.39-1.2 2.59-2.23 3.23-2.8 19.27-17.28 40.25-32.6 63.4-45.6 22.88-12.84 47.94-23.46 75.63-31.53l66.08-63.61c3.86-3.86 7.62-6.1 11.03-7.02 2.31-.61 4.49-.64 6.48-.15 2.1.51 3.92 1.55 5.41 3.04 1.71 1.72 2.98 4.01 3.71 6.74l14.91 60.04c51.64 13.96 94.08 37.5 124.93 69.29l.22.22c30.25 31.26 49.26 70.42 54.77 116.21 8.38 2.41 16.52 6.24 24.48 11.08 8.7 5.3 17.15 11.77 25.45 18.92.15.13.29.28.43.44 5.06 5.97 7.22 11.51 5.75 16.52-1.45 4.94-6.26 8.71-15.1 11.07-.2.07-.4.11-.62.14-11.74 1.7-22.84 1.25-33.25-1.43-9.55-2.47-18.47-6.79-26.74-13.03-9.51 6.45-19.19 10.67-29.03 12.88-10.72 2.4-21.57 2.42-32.55.3l-.11-.03c-17.29-3.86-17.95-12.35-12.53-21.26 4.23-6.95 13.07-13.84 18.46-17.91 6.14-4.63 12.57-8.61 19.35-11.63 5.04-2.24 10.27-3.94 15.69-4.97l-9.56-17.03c-17.31-8.73-34.6-14.37-51.86-17.04-16.51-2.56-33.02-2.41-49.54.35-.22 11.87-2.37 23.31-6.67 33.53-4.42 10.53-11.12 19.76-20.32 26.84-1.05.8-2.49 1.06-3.82.55-11.24-4.35-20.86-10.24-28.73-17.81-7.21-6.93-12.93-15.24-17.06-25.01l-75.1 9.24c-21.86 4.1-41.59 6.22-57.96 5.24-16.65-1.01-29.98-5.24-38.8-13.84-.64-.4-1.15-.97-1.47-1.64-.15-.25-.28-.52-.37-.81-.37-1.13-.2-2.31.38-3.26l2.54-12.47a3.92 3.92 0 016.05-2.46l8.39 5.7.88-8.53c.04-.53.18-1.06.44-1.56a3.934 3.934 0 015.31-1.65L88.58 221z"/><path fill="#4478A9" d="M127.34 201.99c-6.24 5.89-13.61 11.17-21.9 15.96l-12.36-6.54-.78 13.4c-.87.41-1.74.81-2.63 1.22l-13.65-7.24-1.39 13.52c-.57.22-1.13.43-1.7.65l-12.3-8.37-2.78 13.66-.25.08.19.19-.03.12.11-.03c16.12 16.53 50.79 16.23 94.11 8.07l78.1-9.61c7.95 20.95 23.18 35.12 44.69 43.44 17.93-13.8 25.77-36.36 25.47-60.56 36.03-6.73 72.08-1.43 108.17 17.04l12.95 23.05c-14.21 1.36-27.05 7.72-38.91 16.67-10.34 7.79-33.78 26.32-7.45 32.2 20.92 4.03 41.29-.03 60.98-14.2 16.95 13.77 36.79 18.7 59.3 15.45 14.94-3.94 15.88-11.44 7.52-21.3-16.35-14.08-33.12-25.42-50.95-29.87-10.08-92.97-76.36-158.42-179.59-185.63l-15.45-62.23c-2.17-8.11-10.23-10.65-20.05-.83l-66.82 64.31c-55.47 16-100.37 42.41-138.46 76.56-6.23 5.59-28.8 23.62-27.52 31.67 1.31 8.14 17.99 15.89 33.89 20.86l11.49 14.4 5.38-10.09c1.81.35 3.48.63 4.98.82l6.79 9.56 6.37-9.13c17.03-.33 35.35-3.08 54.48-7.27z"/><path fill="#A6D1F7" d="M127.34 201.99c-6.24 5.89-13.61 11.17-21.9 15.96l-12.36-6.54-.78 13.4c-.87.41-1.74.81-2.63 1.22l-13.65-7.24-1.39 13.52c-.57.22-1.13.43-1.7.65l-12.3-8.37-2.78 13.66-.25.08.19.19-.03.12.11-.03c16.12 16.53 50.79 16.23 94.11 8.07l78.1-9.61c7.95 20.95 23.18 35.12 44.69 43.44 17.93-13.8 25.77-36.36 25.47-60.56 36.03-6.73 72.08-1.43 108.17 17.04-52.01-29.41-54.42-63.56-154.47-56.4-77.87 5.57-162.51 7.5-220.91 21.52 1.6.56 3.21 1.09 4.82 1.59l11.49 14.4 5.38-10.09c1.81.35 3.48.63 4.98.82l6.79 9.56 6.37-9.13c17.03-.33 35.35-3.08 54.48-7.27zM104.79 143.71c5.55.98 9.76 5.8 9.76 11.59 0 6.5-5.3 11.77-11.85 11.77-6.03 0-11-4.46-11.76-10.25l13.85-13.11z"/><path fill="#263B67" d="M100.92 152.02c2.25 0 4.08 1.82 4.08 4.05 0 2.24-1.83 4.05-4.08 4.05s-4.08-1.81-4.08-4.05c0-2.23 1.83-4.05 4.08-4.05z"/></svg>