<svg xmlns="http://www.w3.org/2000/svg" shape-rendering="geometricPrecision" text-rendering="geometricPrecision" image-rendering="optimizeQuality" fill-rule="evenodd" clip-rule="evenodd" viewBox="0 0 512 408.143"><path fill="#F5CBAA" d="M197.765 314.22a66.45 66.45 0 01-13.055.51c.779 2.871 1.5 5.72 2.147 8.559 1.214 5.334 2.146 10.577 2.662 15.782 1.635 16.468-1.482 25.798-4.988 36.294-1.737 5.201-3.579 10.715-4.88 17.623-.682 3.618-1.119 5.478-1.087 5.537.447.841.373-.999 2.334-.999h24.663c7.61-14.713 12.158-27.458 14.641-40.301 2.521-13.034 2.935-26.273 2.279-41.831l-7.629-5.953c-5.406 2.402-11.252 3.976-17.087 4.779z"/><path fill-rule="nonzero" d="M178.859 303.624c5.313 1.072 11.402 1.234 17.534.39 5.768-.794 11.548-2.494 16.715-5.182a5.162 5.162 0 015.873.78l11.704 9.133a5.132 5.132 0 011.972 3.813h.005c.837 17.383.483 32.032-2.334 46.603-2.828 14.626-8.115 29.064-17.133 45.95a5.141 5.141 0 01-4.538 2.723v.02h-27.759c-6.206 0-9.442-.709-11.451-4.488-1.594-2.997-1.038-6.345.079-12.274 1.422-7.557 3.389-13.443 5.243-18.994 3.135-9.386 5.922-17.728 4.504-32.018-.471-4.742-1.333-9.577-2.461-14.532-1.134-4.978-2.558-10.136-4.135-15.472a5.151 5.151 0 016.182-6.452zm18.906 10.596a66.45 66.45 0 01-13.055.51c.779 2.871 1.5 5.72 2.147 8.559 1.214 5.334 2.146 10.577 2.662 15.782 1.635 16.468-1.482 25.798-4.988 36.294-1.737 5.201-3.579 10.715-4.88 17.623-.682 3.618-1.119 5.478-1.087 5.537.447.841.373-.999 2.334-.999h24.663c7.61-14.713 12.158-27.458 14.641-40.301 2.521-13.034 2.935-26.273 2.279-41.831l-7.629-5.953c-5.406 2.402-11.252 3.976-17.087 4.779z"/><path fill="#E2A590" d="M197.765 314.22a66.53 66.53 0 01-13.055.51c.778 2.871 1.5 5.72 2.147 8.559 1.214 5.333 2.145 10.576 2.662 15.782.063.637.118 1.261.167 1.875 12.616-.267 24.11-3.112 32.997-7.663.154-5.676.064-11.593-.201-17.889l-7.629-5.953c-5.407 2.402-11.252 3.976-17.088 4.779z"/><path fill="#E8A692" d="M369.744 314.858l-33.602 10.757a51.126 51.126 0 012.261 3.951c1.766 3.437 3.019 6.916 3.73 10.438 2.954 14.624-4.243 26.091-10.698 36.375-3.887 6.194-7.45 11.87-7.296 16.418.042 1.262.381 2.559 1.07 3.894h27.337a1869.773 1869.773 0 019.469-21.377 1145.392 1145.392 0 0111.004-23.678c3.811-7.954 5.792-14.841 5.117-21.072-.576-5.324-3.187-10.442-8.392-15.706z"/><path fill-rule="nonzero" d="M369.744 314.858l-33.602 10.757a51.126 51.126 0 012.261 3.951c1.766 3.437 3.019 6.916 3.73 10.438 2.954 14.624-4.243 26.091-10.698 36.375-3.887 6.194-7.45 11.87-7.296 16.418.042 1.262.381 2.559 1.07 3.894h27.337a1869.773 1869.773 0 019.469-21.377 1145.392 1145.392 0 0111.004-23.678c3.811-7.954 5.792-14.841 5.117-21.072-.576-5.324-3.187-10.442-8.392-15.706zm-43.49 3.112l43.249-13.845.002.006a5.14 5.14 0 015.021 1.083c8.66 7.822 12.93 15.7 13.857 24.262.902 8.333-1.468 16.959-6.085 26.598-3.494 7.291-7.137 15.177-10.883 23.475a1898.552 1898.552 0 00-10.618 23.986 5.166 5.166 0 01-4.884 3.484h-33.492v-.013a5.142 5.142 0 01-4.095-2.025c-2.962-3.865-4.339-7.827-4.474-11.861-.26-7.682 4.106-14.637 8.87-22.227 5.421-8.639 11.467-18.271 9.326-28.872-.52-2.574-1.462-5.167-2.802-7.776-1.362-2.653-3.155-5.337-5.35-8.049a5.148 5.148 0 012.358-8.226z"/><path fill="#F5CBAA" d="M437.33 306.187l-37.526 11.457c22.125 26.766 11.346 42.832 1.118 58.064-4.08 6.077-8.054 11.995-8.719 18.028-.274 2.478-1.436 2.905-.982 2.954.776.086 1.83.066 3.065.043 1.222-.022 2.139-.047 2.326-.047h23.656c2.34-5.103 4.793-9.748 7.272-14.441 2.242-4.246 4.506-8.533 6.586-12.955 1.549-3.294 2.988-6.131 4.401-8.92 7.271-14.348 13.866-27.362 6.326-42.153a79.749 79.749 0 00-4.307-7.412 100.276 100.276 0 00-3.216-4.618z"/><path fill-rule="nonzero" d="M389.135 310.147l48.651-14.854a5.145 5.145 0 015.554 1.766l.013-.011a121.29 121.29 0 015.826 8.149c1.839 2.817 3.475 5.6 4.872 8.341 9.907 19.437 2.187 34.673-6.326 51.471-1.493 2.946-3.013 5.944-4.28 8.638-2.343 4.981-4.577 9.21-6.788 13.398-2.838 5.373-5.641 10.681-8.302 16.842a5.16 5.16 0 01-4.74 3.123l-27.003.004c-1.782 0-1.991.004-2.165.007-1.661.03-3.08.057-4.356-.084-6.729-.741-9.335-3.457-8.136-14.33.941-8.517 5.615-15.478 10.415-22.627 8.753-13.035 18.018-26.835-5.454-51.362a5.137 5.137 0 012.221-8.465l-.002-.006zm48.195-3.96l-37.526 11.457c22.125 26.766 11.346 42.832 1.118 58.064-4.08 6.077-8.054 11.995-8.719 18.028-.274 2.478-1.436 2.905-.982 2.954.776.086 1.83.066 3.065.043 1.222-.022 2.139-.047 2.326-.047h23.656c2.34-5.103 4.793-9.748 7.272-14.441 2.242-4.246 4.506-8.533 6.586-12.955 1.549-3.294 2.988-6.131 4.401-8.92 7.271-14.348 13.866-27.362 6.326-42.153a79.749 79.749 0 00-4.307-7.412 100.276 100.276 0 00-3.216-4.618z"/><path fill="#E5A694" d="M437.33 306.187l-37.526 11.457c6.684 8.086 10.361 15.195 11.962 21.6 14.815-2.489 27.335-8.059 35.317-15.42a31.426 31.426 0 00-2.23-5.607 79.88 79.88 0 00-4.307-7.412 99.735 99.735 0 00-3.216-4.618z"/><path fill="#B2CCCB" d="M225.7 70.76c-31.591-4.39-61.481-6.413-87.416-2.938-25.33 3.393-46.896 12.05-62.554 28.968-.144.156-.295.3-.452.434l.008.01a152.659 152.659 0 00-6.647 5.986c-13.836 13.247-21.918 26.397-24.259 38.728-2.242 11.81.878 23.046 9.35 33.009.078.092.152.186.222.281a59.972 59.972 0 001.96 2.137 5.152 5.152 0 011.102 5.403l.007.003c-6.271 16.416-6.224 28.964-1.883 38.88 4.366 9.974 13.214 17.67 24.429 24.16a5.156 5.156 0 012.491 5.359c-1.301 10.131.748 19.629 5.113 27.719 3.669 6.798 8.969 12.611 15.293 16.984 6.336 4.381 13.682 7.316 21.427 8.349 9.41 1.255 19.448-.294 29.025-5.462a5.154 5.154 0 016.15.96c9.009 8.639 18.931 14.33 29.957 16.453 11.139 2.144 23.576.684 37.536-5.006a5.16 5.16 0 015.584 1.133l.003-.003a80.887 80.887 0 001.568 1.544l.011.01.009-.01c10.488 9.722 22.677 13.578 34.562 12.663 12.019-.926 23.814-6.706 33.341-16.226l-.01-.01a69.262 69.262 0 001.717-1.767 5.151 5.151 0 017.281-.262l.171.166c7.389 7.129 16.853 10.381 26.688 9.905 10.186-.492 20.825-4.961 30.116-13.245a5.161 5.161 0 015.95-.648c10.375 5.092 20.935 6.768 30.822 5.745 9.399-.973 18.208-4.375 25.686-9.592 7.479-5.219 13.632-12.255 17.718-20.493 4.261-8.591 6.268-18.498 5.179-29.021a5.152 5.152 0 013.114-5.267c6.933-2.965 12.592-8.255 16.634-14.94 4.018-6.644 6.439-14.635 6.949-23.104.516-8.553-.91-17.577-4.593-26.196-4.788-11.204-13.42-21.744-26.601-29.716a5.158 5.158 0 01-2.075-6.457c4.269-11.523 4.094-23.254.568-33.422-2.133-6.148-5.507-11.738-9.876-16.369-4.322-4.584-9.622-8.206-15.651-10.471-9.074-3.408-19.863-3.751-31.562.308a5.145 5.145 0 01-5.778-1.763l-.01.008c-9.575-12.633-21.584-21.359-34.878-24.261-12.072-2.636-25.373-.476-39.065 7.925a5.153 5.153 0 01-6.108-.55c-12.247-10.41-25.961-15.005-38.827-14.574-13.375.447-25.89 6.345-34.877 16.789a5.15 5.15 0 01-4.619 1.754z"/><path fill-rule="nonzero" d="M225.7 70.76c-31.591-4.39-61.481-6.413-87.416-2.938-25.33 3.393-46.896 12.05-62.554 28.968-.144.156-.295.3-.452.434l.008.01a152.659 152.659 0 00-6.647 5.986c-13.836 13.247-21.918 26.397-24.259 38.728-2.242 11.81.878 23.046 9.35 33.009.078.092.152.186.222.281a59.972 59.972 0 001.96 2.137 5.152 5.152 0 011.102 5.403l.007.003c-6.271 16.416-6.224 28.964-1.883 38.88 4.366 9.974 13.214 17.67 24.429 24.16a5.156 5.156 0 012.491 5.359c-1.301 10.131.748 19.629 5.113 27.719 3.669 6.798 8.969 12.611 15.293 16.984 6.336 4.381 13.682 7.316 21.427 8.349 9.41 1.255 19.448-.294 29.025-5.462a5.154 5.154 0 016.15.96c9.009 8.639 18.931 14.33 29.957 16.453 11.139 2.144 23.576.684 37.536-5.006a5.16 5.16 0 015.584 1.133l.003-.003a80.887 80.887 0 001.568 1.544l.011.01.009-.01c10.488 9.722 22.677 13.578 34.562 12.663 12.019-.926 23.814-6.706 33.341-16.226l-.01-.01a69.262 69.262 0 001.717-1.767 5.151 5.151 0 017.281-.262l.171.166c7.389 7.129 16.853 10.381 26.688 9.905 10.186-.492 20.825-4.961 30.116-13.245a5.161 5.161 0 015.95-.648c10.375 5.092 20.935 6.768 30.822 5.745 9.399-.973 18.208-4.375 25.686-9.592 7.479-5.219 13.632-12.255 17.718-20.493 4.261-8.591 6.268-18.498 5.179-29.021a5.152 5.152 0 013.114-5.267c6.933-2.965 12.592-8.255 16.634-14.94 4.018-6.644 6.439-14.635 6.949-23.104.516-8.553-.91-17.577-4.593-26.196-4.788-11.204-13.42-21.744-26.601-29.716a5.158 5.158 0 01-2.075-6.457c4.269-11.523 4.094-23.254.568-33.422-2.133-6.148-5.507-11.738-9.876-16.369-4.322-4.584-9.622-8.206-15.651-10.471-9.074-3.408-19.863-3.751-31.562.308a5.145 5.145 0 01-5.778-1.763l-.01.008c-9.575-12.633-21.584-21.359-34.878-24.261-12.072-2.636-25.373-.476-39.065 7.925a5.153 5.153 0 01-6.108-.55c-12.247-10.41-25.961-15.005-38.827-14.574-13.375.447-25.89 6.345-34.877 16.789a5.15 5.15 0 01-4.619 1.754zm-88.747-13.145c26.257-3.518 56.065-1.672 87.458 2.569 10.738-11.35 25.131-17.741 40.462-18.254 14.332-.48 29.441 4.19 43.057 14.768 15.047-8.355 29.815-10.343 43.445-7.367 14.744 3.218 27.987 12.237 38.663 25.261 12.809-3.682 24.746-2.967 35.017.891 7.53 2.828 14.14 7.344 19.523 13.052 5.338 5.66 9.47 12.517 12.094 20.081 3.892 11.221 4.432 23.973.619 36.63 13.221 8.887 22.099 20.23 27.248 32.279 4.331 10.136 6.007 20.759 5.4 30.835-.612 10.16-3.538 19.784-8.401 27.825-4.474 7.396-10.587 13.481-18.061 17.474.531 11.192-1.87 21.726-6.463 30.986-4.858 9.795-12.174 18.161-21.066 24.366-8.895 6.206-19.365 10.253-30.527 11.408-10.822 1.12-22.282-.467-33.571-5.424-10.472 8.465-22.344 13.054-33.882 13.612-11.029.534-21.712-2.603-30.593-9.538-10.994 10.371-24.474 16.666-38.313 17.732-14.397 1.109-29.099-3.417-41.74-14.85-14.653 5.455-28.005 6.712-40.235 4.357-12.032-2.317-22.837-8.1-32.61-16.797-10.578 4.912-21.547 6.31-31.917 4.927-9.41-1.255-18.303-4.8-25.945-10.084-7.655-5.293-14.073-12.334-18.52-20.574-4.886-9.055-7.398-19.551-6.566-30.763-11.626-7.183-20.855-15.875-25.831-27.241-5.121-11.699-5.612-25.891.594-43.687l-.141-.164a5.027 5.027 0 01-.287-.312c-10.579-12.44-14.452-26.587-11.609-41.561 2.743-14.453 11.824-29.491 27.244-44.255a162.414 162.414 0 016.996-6.314c17.449-18.668 41.004-28.19 68.458-31.868z"/><path fill="#FDFCFD" d="M457.76 158.491a73.241 73.241 0 00-9.302-6.648 5.158 5.158 0 01-2.078-6.449c4.272-11.526 4.098-23.26.57-33.43-2.132-6.148-5.507-11.738-9.875-16.369-4.322-4.584-9.621-8.206-15.651-10.471-9.074-3.408-19.863-3.751-31.562.308a5.143 5.143 0 01-5.778-1.763l-.011.008c-9.575-12.633-21.583-21.359-34.877-24.261-12.072-2.636-25.372-.477-39.065 7.925a5.155 5.155 0 01-6.116-.556c-12.244-10.406-25.955-14.999-38.819-14.569-7.814.262-15.334 2.385-22.029 6.186l17.052 38.386c2.664 24.933-20.315 38.28-51.35 38.338 1.411 62.766-54.463 103.101-111.788 87.806 9.235 25.181 30.27 35.172 58.399 37.261 11.263 41.863 75.193 44.746 89.777-.507.777-2.41 1.343-5.366 4.258-6.125 3.122-.814 6.106 2.118 8.439 3.839a66.29 66.29 0 001.92 1.365c25.639 17.56 61.022 15.522 78.82-11.5 1.915-2.957 4.206-3.076 6.889-.229 38.735 38.081 87.307-3.352 76.31-42.139-.464-1.638-2.061-4.859-1.231-6.287.636-1.094 2.923-1.487 4.148-1.893 17.352-5.756 29.062-17.215 32.012-37.531l.938-.695z"/><path fill="#F5C9A6" d="M170.404 71.523c-10.416-12.541-24.744-20.298-40.511-20.298-15.768 0-30.095 7.757-40.512 20.298-10.631 12.799-17.208 30.559-17.208 50.243 0 19.745 6.618 37.735 17.311 50.733 10.412 12.658 24.699 20.546 40.409 20.546 15.709 0 29.997-7.888 40.408-20.546 10.693-12.998 17.311-30.988 17.311-50.733 0-19.684-6.576-37.444-17.208-50.243z"/><path fill-rule="nonzero" d="M129.893 40.898c18.96 0 36.076 9.191 48.418 24.05 12.127 14.599 19.628 34.692 19.628 56.818 0 22.167-7.528 42.483-19.691 57.269-12.334 14.992-29.42 24.337-48.355 24.337-18.936 0-36.022-9.344-48.356-24.337-12.163-14.786-19.69-35.102-19.69-57.269 0-22.126 7.501-42.219 19.628-56.818 12.342-14.859 29.457-24.05 48.418-24.05zm40.511 30.625c-10.416-12.541-24.744-20.298-40.511-20.298-15.768 0-30.095 7.757-40.512 20.298-10.631 12.799-17.208 30.559-17.208 50.243 0 19.745 6.618 37.735 17.311 50.733 10.412 12.658 24.699 20.546 40.409 20.546 15.709 0 29.997-7.888 40.408-20.546 10.693-12.998 17.311-30.988 17.311-50.733 0-19.684-6.576-37.444-17.208-50.243z"/><path fill="#B7CECD" d="M107.186 73.811c2.35 10.183 8.206 15.949 14.965 18.275 3.531 1.215 7.338 1.534 11.05 1.084 3.746-.454 7.36-1.68 10.473-3.547 5.67-3.402 9.671-8.966 9.557-15.813a5.143 5.143 0 015.062-5.224 5.147 5.147 0 014.955 3.492l.007-.003c.952 2.793 2.285 4.854 3.807 6.286 1.565 1.471 3.357 2.283 5.121 2.544 2.678.395 5.302.115 7.767-.694 2.742-.9 5.307-2.447 7.563-4.451 6.802-6.039 9.441-14.169 8.938-21.952-.293-4.522-1.637-8.92-3.837-12.723-2.159-3.734-5.125-6.875-8.701-8.959-5.31-3.095-12.121-3.891-19.826-.864a5.157 5.157 0 01-6.582-2.699c-3.484-7.159-8.813-12.223-14.87-15.172-4.174-2.031-8.666-3.069-13.112-3.102-4.465-.035-8.911.923-12.973 2.878-5.62 2.706-10.528 7.363-13.756 13.995a5.16 5.16 0 01-6.377 2.6 28.206 28.206 0 00-8.776-1.084 25.973 25.973 0 00-8.607 1.799c-6.818 2.697-11.299 7.807-13.567 13.785-1.276 3.365-1.876 7.001-1.822 10.647a30.582 30.582 0 002.143 10.75c2.611 6.602 7.607 12.241 14.822 14.978.326.123.588.218.789.285 3.321 1.11 6.615 1.242 9.358.158 2.608-1.03 4.842-3.28 6.251-6.993.117-.309.209-.563.275-.76a5.147 5.147 0 019.899.485l.004-.001z"/><path fill-rule="nonzero" d="M107.186 73.811c2.35 10.183 8.206 15.949 14.965 18.275 3.531 1.215 7.338 1.534 11.05 1.084 3.746-.454 7.36-1.68 10.473-3.547 5.67-3.402 9.671-8.966 9.557-15.813a5.143 5.143 0 015.062-5.224 5.147 5.147 0 014.955 3.492l.007-.003c.952 2.793 2.285 4.854 3.807 6.286 1.565 1.471 3.357 2.283 5.121 2.544 2.678.395 5.302.115 7.767-.694 2.742-.9 5.307-2.447 7.563-4.451 6.802-6.039 9.441-14.169 8.938-21.952-.293-4.522-1.637-8.92-3.837-12.723-2.159-3.734-5.125-6.875-8.701-8.959-5.31-3.095-12.121-3.891-19.826-.864a5.157 5.157 0 01-6.582-2.699c-3.484-7.159-8.813-12.223-14.87-15.172-4.174-2.031-8.666-3.069-13.112-3.102-4.465-.035-8.911.923-12.973 2.878-5.62 2.706-10.528 7.363-13.756 13.995a5.16 5.16 0 01-6.377 2.6 28.206 28.206 0 00-8.776-1.084 25.973 25.973 0 00-8.607 1.799c-6.818 2.697-11.299 7.807-13.567 13.785-1.276 3.365-1.876 7.001-1.822 10.647a30.582 30.582 0 002.143 10.75c2.611 6.602 7.607 12.241 14.822 14.978.326.123.588.218.789.285 3.321 1.11 6.615 1.242 9.358.158 2.608-1.03 4.842-3.28 6.251-6.993.117-.309.209-.563.275-.76a5.147 5.147 0 019.899.485l.004-.001zm11.617 28.037c-7.144-2.458-13.564-7.396-17.811-15.297a19.692 19.692 0 01-6.443 4.13c-5.071 2.004-10.832 1.871-16.417.004a31.09 31.09 0 01-1.152-.407c-10.181-3.862-17.182-11.696-20.794-20.827-1.801-4.553-2.753-9.477-2.828-14.421-.074-4.924.739-9.841 2.469-14.399 3.253-8.574 9.666-15.899 19.415-19.756 3.763-1.488 7.836-2.33 12.036-2.485a38.16 38.16 0 018.238.596c4.231-6.924 10.025-11.953 16.556-15.097 5.485-2.641 11.48-3.934 17.492-3.887a40.93 40.93 0 0117.589 4.111c6.882 3.35 13.038 8.729 17.528 16.112 9.228-2.47 17.571-.992 24.396 2.986 5.182 3.021 9.424 7.472 12.452 12.71 2.988 5.167 4.814 11.126 5.209 17.242.692 10.708-2.972 21.925-12.407 30.302-3.295 2.926-7.09 5.202-11.194 6.549-3.932 1.29-8.134 1.734-12.447 1.097-3.51-.518-7.034-2.035-10.115-4.728-2.58 5.009-6.682 9.115-11.616 12.075-4.367 2.62-9.388 4.334-14.548 4.959-5.193.629-10.566.167-15.608-1.569z"/><path fill="#fff" d="M191.646 39.531c-2.046-3.051-4.664-5.617-7.733-7.405-5.31-3.095-12.122-3.891-19.826-.865a5.155 5.155 0 01-6.579-2.692c-3.483-7.162-8.814-12.228-14.873-15.177-4.174-2.033-8.666-3.07-13.112-3.104-4.465-.034-8.911.923-12.973 2.879-5.62 2.706-10.528 7.362-13.756 13.995a5.162 5.162 0 01-6.377 2.6 28.206 28.206 0 00-8.776-1.084 25.968 25.968 0 00-8.607 1.799c-4.906 1.94-8.602 5.131-11.134 8.995l1.705 2.265c-3.219 18.249 18.066 29.062 28.127 20.056 5.474-4.9 8.227-4.3 12.853 1.022 11.918 13.715 33.061 11.403 40.57.311 4.547-6.717 7.312-6.157 13.214-1.393 9.492 7.661 29.622-1.357 26.91-20.19l.367-2.012z"/><path fill="#DF9D86" d="M70.446 87.208c-3.422-1.672-6.234-3.401-8.603-5.651-2.757-2.618-4.739-5.733-6.104-9.93-1.708-.407-3.732-.686-5.97-.833-7.244-.474-16.262.483-24.047 3.041-7.062 2.319-12.917 5.858-14.787 10.634a8.906 8.906 0 00-.6 2.687c-.132 2.014.262 3.798 1.068 5.361.942 1.828 2.477 3.46 4.428 4.89.399.292.772.551 1.119.775 6.672 4.324 17.044 6.782 27.062 6.485 9.545-.283 18.526-3.074 22.997-9.177.199-.271.364-.508.493-.707.913-1.409 1.672-3.038 2.259-4.9l.07-.203c.239-.787.445-1.61.615-2.472z"/><path fill-rule="nonzero" d="M70.446 87.208c-3.422-1.672-6.234-3.401-8.603-5.651-2.757-2.618-4.739-5.733-6.104-9.93-1.708-.407-3.732-.686-5.97-.833-7.244-.474-16.262.483-24.047 3.041-7.062 2.319-12.917 5.858-14.787 10.634a8.906 8.906 0 00-.6 2.687c-.132 2.014.262 3.798 1.068 5.361.942 1.828 2.477 3.46 4.428 4.89.399.292.772.551 1.119.775 6.672 4.324 17.044 6.782 27.062 6.485 9.545-.283 18.526-3.074 22.997-9.177.199-.271.364-.508.493-.707.913-1.409 1.672-3.038 2.259-4.9l.07-.203c.239-.787.445-1.61.615-2.472zm-1.504-13.114c2.021 1.918 4.962 3.451 8.882 5.183a5.162 5.162 0 013.384 5.255c-.239 2.956-.757 5.685-1.529 8.197l-.075.261a30.31 30.31 0 01-3.469 7.4c-.29.447-.562.844-.816 1.191-6.554 8.946-18.574 13.003-31.024 13.373-11.979.355-24.605-2.73-32.952-8.139a33.224 33.224 0 01-1.603-1.098c-3.195-2.341-5.782-5.159-7.494-8.481C.599 94.042-.211 90.469.048 86.511a19.2 19.2 0 011.285-5.794C4.48 72.68 12.784 67.235 22.534 64.032c9.027-2.965 19.481-4.074 27.88-3.525 4.328.283 8.212 1.012 11.226 2.159a5.153 5.153 0 013.334 3.704c.846 3.606 2.111 5.959 3.968 7.724z"/><path fill="#DF9D86" d="M199.14 81.557c-2.369 2.25-5.181 3.978-8.601 5.65.185.935.413 1.827.682 2.677.586 1.861 1.346 3.49 2.259 4.899.129.199.294.436.493.707 4.471 6.103 13.451 8.894 22.997 9.177 10.018.297 20.389-2.161 27.062-6.485.346-.223.72-.483 1.119-.775 1.951-1.43 3.485-3.062 4.428-4.89.806-1.563 1.2-3.347 1.068-5.361a8.935 8.935 0 00-.599-2.687c-1.87-4.776-7.726-8.315-14.787-10.634-7.787-2.558-16.803-3.515-24.048-3.041-2.238.147-4.261.426-5.97.833-1.365 4.197-3.347 7.312-6.103 9.93z"/><path fill-rule="nonzero" d="M183.158 79.277c3.92-1.732 6.861-3.265 8.882-5.183 1.857-1.765 3.122-4.118 3.968-7.724a5.153 5.153 0 013.334-3.704c3.014-1.147 6.899-1.876 11.226-2.159 8.399-.549 18.853.56 27.88 3.525 9.75 3.203 18.054 8.648 21.201 16.685a19.231 19.231 0 011.286 5.794c.258 3.958-.552 7.531-2.199 10.725-1.712 3.322-4.299 6.141-7.494 8.481a34.25 34.25 0 01-1.603 1.098c-8.347 5.409-20.974 8.494-32.952 8.139-12.451-.369-24.47-4.427-31.024-13.373a25.064 25.064 0 01-.816-1.191 30.347 30.347 0 01-3.469-7.4c-.812-2.573-1.356-5.388-1.605-8.458a5.164 5.164 0 013.385-5.255zm15.982 2.28c-2.369 2.25-5.181 3.978-8.601 5.65.185.935.413 1.827.682 2.677.586 1.861 1.346 3.49 2.259 4.899.129.199.294.436.493.707 4.471 6.103 13.451 8.894 22.997 9.177 10.018.297 20.389-2.161 27.062-6.485.346-.223.72-.483 1.119-.775 1.951-1.43 3.485-3.062 4.428-4.89.806-1.563 1.2-3.347 1.068-5.361a8.935 8.935 0 00-.599-2.687c-1.87-4.776-7.726-8.315-14.787-10.634-7.787-2.558-16.803-3.515-24.048-3.041-2.238.147-4.261.426-5.97.833-1.365 4.197-3.347 7.312-6.103 9.93z"/><path d="M95.658 103.912c7.159 0 12.962 5.804 12.962 12.962 0 7.159-5.803 12.962-12.962 12.962-7.158 0-12.961-5.803-12.961-12.962 0-7.158 5.803-12.962 12.961-12.962zm51.419 63.73a5.153 5.153 0 017.2-1.11 5.153 5.153 0 011.109 7.201c-2.685 3.666-6.876 6.361-11.189 7.539-2.82.771-5.751.92-8.44.309-2.073-.472-3.995-1.368-5.633-2.743-1.731 1.366-3.751 2.248-5.91 2.691-2.735.562-5.669.397-8.444-.391-4.348-1.235-8.472-4.025-10.97-7.963a5.16 5.16 0 018.714-5.527c1.1 1.734 2.999 2.987 5.039 3.566 1.267.36 2.523.452 3.604.23.808-.166 1.514-.525 1.999-1.099.606-.717.993-1.869 1.027-3.54l.001-.251h-.02v-2.822l-11.633-8.363a5.145 5.145 0 016.011-8.351l10.652 7.658 10.77-7.941a5.152 5.152 0 016.091 8.31l-11.563 8.525v2.984h-.02v.061l-.001.023-.001.184c0 1.753.336 2.958.891 3.71.385.523.97.848 1.656 1.004 1.026.233 2.239.151 3.478-.188 2.182-.596 4.275-1.922 5.582-3.706zm17.811-63.73c7.159 0 12.962 5.804 12.962 12.962 0 7.159-5.803 12.962-12.962 12.962s-12.962-5.803-12.962-12.962c0-7.158 5.803-12.962 12.962-12.962z"/><path fill="#E8A692" d="M138.486 314.365a53.392 53.392 0 01-11.127.487 115.104 115.104 0 012.879 23.059c.223 9.855-.831 19.338-2.825 28.581-.902 4.185-2.422 8.551-3.962 12.978-1.598 4.592-3.221 9.257-4.023 13.518-.682 3.618-1.119 5.478-1.088 5.537.447.841.373-.999 2.335-.999h24.663c7.61-14.713 12.158-27.458 14.641-40.301 2.52-13.034 2.935-26.273 2.279-41.831l-7.608-5.937c-5.391 2.485-10.78 4.105-16.164 4.908z"/><path fill-rule="nonzero" d="M121.68 303.745c5.06 1.023 10.164 1.181 15.313.414 5.225-.779 10.521-2.533 15.891-5.327a5.164 5.164 0 015.874.78l11.704 9.133a5.135 5.135 0 011.972 3.813h.005c.837 17.383.483 32.032-2.334 46.603-2.828 14.626-8.116 29.064-17.133 45.95a5.142 5.142 0 01-4.538 2.723v.02h-27.759c-6.207 0-9.442-.709-11.451-4.488-1.594-2.997-1.038-6.345.078-12.274.939-4.984 2.696-10.037 4.427-15.011 1.416-4.069 2.813-8.084 3.599-11.727 1.847-8.564 2.826-17.28 2.623-26.241-.203-8.943-1.585-18.211-4.454-27.916a5.152 5.152 0 016.183-6.452zm16.806 10.62a53.392 53.392 0 01-11.127.487 115.104 115.104 0 012.879 23.059c.223 9.855-.831 19.338-2.825 28.581-.902 4.185-2.422 8.551-3.962 12.978-1.598 4.592-3.221 9.257-4.023 13.518-.682 3.618-1.119 5.478-1.088 5.537.447.841.373-.999 2.335-.999h24.663c7.61-14.713 12.158-27.458 14.641-40.301 2.52-13.034 2.935-26.273 2.279-41.831l-7.608-5.937c-5.391 2.485-10.78 4.105-16.164 4.908zM.307 408.143v-10.327h19.664a5.164 5.164 0 110 10.327H.307zM35.582 408.143a5.163 5.163 0 110-10.327h19.663a5.164 5.164 0 110 10.327H35.582z"/><path fill-rule="nonzero" d="M71.457 408.143a5.163 5.163 0 110-10.327h404.231v10.327H71.457z"/><path fill="#B0C9C9" d="M491.048 130.704a36.14 36.14 0 00-25.653-10.616 36.53 36.53 0 00-5.256.37l-.688.106c.482 3.9.579 7.898.257 11.935a60.754 60.754 0 01-2.416 12.748c8.255 5.551 14.821 12.069 19.848 19.124 4.739 6.652 8.096 13.763 10.197 20.978a36.563 36.563 0 008.968-9.889c3.403-5.517 5.368-12.044 5.368-19.058a36.242 36.242 0 00-10.625-25.698z"/><path fill-rule="nonzero" d="M465.395 109.76c12.856 0 24.509 5.229 32.954 13.682 8.434 8.441 13.651 20.096 13.651 32.96 0 8.948-2.54 17.329-6.941 24.463a46.815 46.815 0 01-18.812 17.233 5.142 5.142 0 01-7.366-3.714l-.017.003c-1.452-8.243-4.738-16.498-10.115-24.045-4.921-6.908-11.617-13.252-20.291-18.499a5.157 5.157 0 01-2.069-6.47 51.052 51.052 0 003.032-13.681 48.749 48.749 0 00-.891-13.983 5.155 5.155 0 013.773-6.065 46.755 46.755 0 0113.092-1.884zm25.653 20.944a36.14 36.14 0 00-25.653-10.616 36.53 36.53 0 00-5.256.37l-.688.106c.482 3.9.579 7.898.257 11.935a60.754 60.754 0 01-2.416 12.748c8.255 5.551 14.821 12.069 19.848 19.124 4.739 6.652 8.096 13.763 10.197 20.978a36.563 36.563 0 008.968-9.889c3.403-5.517 5.368-12.044 5.368-19.058a36.242 36.242 0 00-10.625-25.698z"/><path fill="#fff" d="M491.009 130.666a36.134 36.134 0 00-25.614-10.578c-1.824 0-3.578.126-5.256.369l-.425.066c.183 2.279.245 4.583.18 6.905.004.706-.004 1.415-.025 2.124l.055 2.24c11.529 2.346 21.381 9.748 27.067 23.265 4.117-4.549 6.255-12.333 4.018-24.391z"/><path d="M65.686 99.445l6.162-11.694c-13.407-4.821-30.193-8.329-43.085-4.634-2.039.585-6.983 2.059-6.248 4.784.605 2.239 4.148 3.451 6.15 3.903 6.033 1.364 16.394 1.694 21.452 2.831 5.361 1.205 10.564 2.777 15.569 4.81zM195.073 99.445l-5.439-12.098c13.407-4.82 29.469-7.925 42.362-4.23 2.04.585 6.983 2.059 6.247 4.784-.604 2.239-4.147 3.451-6.149 3.903-6.033 1.364-16.394 1.694-21.452 2.831-5.361 1.205-10.565 2.777-15.569 4.81z"/></svg>