<svg xmlns="http://www.w3.org/2000/svg" shape-rendering="geometricPrecision" text-rendering="geometricPrecision" image-rendering="optimizeQuality" fill-rule="evenodd" clip-rule="evenodd" viewBox="0 0 512.01 255.21"><path fill="#92C8C2" d="M387.732 165.863a65.373 65.373 0 00-3.102-8.03 61.866 61.866 0 00-4.302-7.701 5.036 5.036 0 012.132-7.342c9.857-5.14 18.599-11.369 26.138-18.771 7.594-7.456 13.982-16.103 19.076-26.026a5.022 5.022 0 015.375-2.654v-.004c13.081 2.423 23.971 1.342 32.584-3.382 8.566-4.697 15.12-13.148 19.587-25.492a5.027 5.027 0 014.726-3.315v-.013h11.609c-2.171-21.566-10.974-36.293-22.941-44.635-7.507-5.233-16.288-7.999-25.462-8.396-9.325-.403-19.067 1.618-28.33 5.961-19.842 9.301-37.431 29.224-44.194 58.817a5.03 5.03 0 01-8.573 2.319c-37.2-36.888-79.612-58.894-123.364-63.653-42.135-4.582-85.65 6.829-127.087 36.351-13.292 9.47-25.354 20.486-36.296 32.91-10.972 12.459-20.785 26.297-29.55 41.378a5.025 5.025 0 01-3.926 2.491c-7.859 1.021-15.829.812-23.86-.166-5.206-.633-10.445-1.588-15.7-2.737 2.733 5.959 7.619 11.947 13.84 17.377 9.528 8.317 22.062 15.157 34.875 18.589a5.035 5.035 0 011.971 8.691c-3.723 3.462-7.94 6.861-12.251 10.336-11.303 9.11-23.303 18.782-26.668 30.289-1.994 6.822-1.976 12.608-.42 17.229 1.023 3.034 2.727 5.587 4.962 7.608 2.297 2.075 5.189 3.627 8.516 4.6 6.573 1.922 14.758 1.591 23.498-1.354 5.861-1.975 11.703-4.979 17.494-9.055 5.746-4.045 11.428-9.147 17.015-15.349l.12-.128 22.595-26.131a5.024 5.024 0 015.204-1.538c33.371 8.696 66.737 12.233 100.098 10.181 33.385-2.054 66.775-9.712 100.166-23.404a5.028 5.028 0 016.046 1.792l.032.048c3.311 4.801 5.739 9.855 7.306 15.153 1.566 5.298 2.264 10.832 2.117 16.595-.11 4.268-.898 8.388-1.686 12.51-.921 4.819-1.843 9.642-1.436 13.731.228 2.289.9 4.305 1.908 6.033 1.577 2.702 4.009 4.711 6.877 5.97 3.048 1.338 6.578 1.859 10.14 1.504a22.012 22.012 0 008.899-2.894c4.539-2.648 8.741-6.571 12.342-10.949 4.301-5.228 7.733-11.073 9.887-16.211 3.312-7.904 5.108-16.014 5.444-24.157.343-8.296-.822-16.683-3.431-24.976z"/><path fill-rule="nonzero" d="M387.732 165.863a65.373 65.373 0 00-3.102-8.03 61.866 61.866 0 00-4.302-7.701 5.036 5.036 0 012.132-7.342c9.857-5.14 18.599-11.369 26.138-18.771 7.594-7.456 13.982-16.103 19.076-26.026a5.022 5.022 0 015.375-2.654v-.004c13.081 2.423 23.971 1.342 32.584-3.382 8.566-4.697 15.12-13.148 19.587-25.492a5.027 5.027 0 014.726-3.315v-.013h11.609c-2.171-21.566-10.974-36.293-22.941-44.635-7.507-5.233-16.288-7.999-25.462-8.396-9.325-.403-19.067 1.618-28.33 5.961-19.842 9.301-37.431 29.224-44.194 58.817a5.03 5.03 0 01-8.573 2.319c-37.2-36.888-79.612-58.894-123.364-63.653-42.135-4.582-85.65 6.829-127.087 36.351-13.292 9.47-25.354 20.486-36.296 32.91-10.972 12.459-20.785 26.297-29.55 41.378a5.025 5.025 0 01-3.926 2.491c-7.859 1.021-15.829.812-23.86-.166-5.206-.633-10.445-1.588-15.7-2.737 2.733 5.959 7.619 11.947 13.84 17.377 9.528 8.317 22.062 15.157 34.875 18.589a5.035 5.035 0 011.971 8.691c-3.723 3.462-7.94 6.861-12.251 10.336-11.303 9.11-23.303 18.782-26.668 30.289-1.994 6.822-1.976 12.608-.42 17.229 1.023 3.034 2.727 5.587 4.962 7.608 2.297 2.075 5.189 3.627 8.516 4.6 6.573 1.922 14.758 1.591 23.498-1.354 5.861-1.975 11.703-4.979 17.494-9.055 5.746-4.045 11.428-9.147 17.015-15.349l.12-.128 22.595-26.131a5.024 5.024 0 015.204-1.538c33.371 8.696 66.737 12.233 100.098 10.181 33.385-2.054 66.775-9.712 100.166-23.404a5.028 5.028 0 016.046 1.792l.032.048c3.311 4.801 5.739 9.855 7.306 15.153 1.566 5.298 2.264 10.832 2.117 16.595-.11 4.268-.898 8.388-1.686 12.51-.921 4.819-1.843 9.642-1.436 13.731.228 2.289.9 4.305 1.908 6.033 1.577 2.702 4.009 4.711 6.877 5.97 3.048 1.338 6.578 1.859 10.14 1.504a22.012 22.012 0 008.899-2.894c4.539-2.648 8.741-6.571 12.342-10.949 4.301-5.228 7.733-11.073 9.887-16.211 3.312-7.904 5.108-16.014 5.444-24.157.343-8.296-.822-16.683-3.431-24.976zm5.995-12.284a75.522 75.522 0 013.614 9.291c2.945 9.359 4.256 18.882 3.865 28.363-.387 9.368-2.429 18.643-6.193 27.623-2.488 5.938-6.455 12.692-11.423 18.731-4.333 5.268-9.437 10.016-15.019 13.273a32.128 32.128 0 01-12.995 4.193c-5.265.524-10.535-.269-15.143-2.291-4.789-2.102-8.875-5.501-11.563-10.106-1.696-2.906-2.825-6.291-3.207-10.128-.556-5.573.5-11.092 1.554-16.606.722-3.774 1.443-7.547 1.528-10.856.12-4.7-.448-9.21-1.723-13.523a42.136 42.136 0 00-3.835-8.954c-33.151 13.138-66.309 20.531-99.475 22.572-33.441 2.057-66.883-1.331-100.325-9.758l-20.554 23.77c-.077.101-.16.2-.246.296-6.09 6.761-12.339 12.361-18.709 16.845-6.568 4.623-13.28 8.058-20.093 10.355-10.725 3.613-21.01 3.95-29.484 1.472-4.783-1.399-9.011-3.693-12.455-6.806-3.506-3.169-6.169-7.149-7.757-11.861-2.187-6.49-2.302-14.312.301-23.215 4.262-14.573 17.524-25.262 30.016-35.331a580.012 580.012 0 005.264-4.277c-11.142-4.209-21.71-10.55-30.174-17.939C9.008 139.558 1.637 128.654.104 117.917a5.035 5.035 0 016.152-5.904c7.716 1.934 15.384 3.579 22.898 4.494 6.548.797 12.968 1.045 19.182.451 8.792-14.844 18.563-28.488 29.41-40.807 11.41-12.955 24.047-24.484 38.029-34.446C159.327 10.676 205.21-1.302 249.754 3.543c43.685 4.752 85.947 25.684 123.325 60.685 8.758-28.301 27.041-47.677 47.489-57.263 10.744-5.036 22.098-7.378 33.017-6.906 11.071.48 21.684 3.828 30.779 10.169 15.26 10.637 26.166 29.566 27.603 57.29a5.041 5.041 0 01-4.998 5.697H493.39c-5.317 12.969-12.981 22.113-22.912 27.56-9.86 5.407-21.752 7.045-35.602 5.046-5.302 9.575-11.734 18.007-19.229 25.366-7.106 6.977-15.157 12.989-24.095 18.096a74.815 74.815 0 012.175 4.296z"/><path d="M451.759 27.13c6.455 0 11.687 5.232 11.687 11.687 0 6.455-5.232 11.688-11.687 11.688-6.455 0-11.687-5.233-11.687-11.688 0-6.455 5.232-11.687 11.687-11.687zm-17.847 68.484a5.031 5.031 0 11-3.229 9.531c-3.913-1.327-7.865-2.97-11.53-4.897-3.389-1.782-6.541-3.814-9.212-6.076a5.031 5.031 0 016.498-7.68c2.089 1.769 4.627 3.397 7.4 4.855 3.16 1.662 6.617 3.095 10.073 4.267zm73.048-32.709a5.041 5.041 0 010 10.082h-46.211a5.041 5.041 0 010-10.082h46.211z"/><path fill="#B5D5D3" d="M387.732 165.863a65.373 65.373 0 00-3.102-8.03 61.62 61.62 0 00-3.911-7.096 5.047 5.047 0 00-.818 6.488 62.144 62.144 0 014.311 7.719 65.221 65.221 0 013.109 8.048c2.344 7.448 3.525 14.971 3.497 22.437.167-1.528.282-3.058.345-4.59.343-8.296-.821-16.682-3.431-24.976zm112.711-102.73h1.112c-2.171-21.566-10.974-36.293-22.941-44.635-7.507-5.233-16.288-7.999-25.462-8.396-9.325-.403-19.067 1.618-28.33 5.961-19.842 9.301-37.431 29.224-44.194 58.817a5.03 5.03 0 01-5.542 3.867v6.971a5.044 5.044 0 005.116-3.913c6.777-29.66 24.406-49.627 44.293-58.95 9.283-4.352 19.048-6.378 28.394-5.974 9.194.398 17.994 3.17 25.519 8.415 10.671 7.439 18.832 19.944 22.035 37.837zm-445.716 62.31a5.044 5.044 0 01-2.895 1.233c-7.859 1.021-15.829.812-23.86-.166-5.206-.633-10.445-1.588-15.7-2.737 1.281 2.793 3.034 5.591 5.176 8.336a152.85 152.85 0 009.306 1.442c8.049.98 16.037 1.189 23.914.165a5.031 5.031 0 003.934-2.496l.125-.214v-5.563zm0 50.068c-1.323 1.081-2.667 2.164-4.02 3.255-11.303 9.11-23.303 18.782-26.668 30.289-.852 2.915-1.336 5.64-1.491 8.166.084-.311.172-.624.264-.94 3.373-11.534 15.4-21.227 26.728-30.357 1.753-1.414 3.491-2.815 5.187-4.212v-6.201z"/><path fill="#F0B873" d="M128.434 186.301c31.566 7.698 63.129 10.758 94.687 8.817 31.381-1.931 62.765-8.813 94.151-21.003-2.29-2.752-4.841-5.438-7.616-8.071-4.022-3.817-8.523-7.532-13.387-11.184-23.948 9.658-51.953 15.66-80.389 18.104-28.543 2.453-57.614 1.31-83.51-3.328a76.36 76.36 0 01-1.541 8.648 74.615 74.615 0 01-2.395 8.017z"/><path fill-rule="nonzero" d="M128.434 186.301c31.566 7.698 63.129 10.758 94.687 8.817 31.381-1.931 62.765-8.813 94.151-21.003-2.29-2.752-4.841-5.438-7.616-8.071-4.022-3.817-8.523-7.532-13.387-11.184-23.948 9.658-51.953 15.66-80.389 18.104-28.543 2.453-57.614 1.31-83.51-3.328a76.36 76.36 0 01-1.541 8.648 74.615 74.615 0 01-2.395 8.017zm95.278 18.86c-34.241 2.106-68.483-1.497-102.725-10.372a5.023 5.023 0 01-3.969-7.075c1.662-3.637 3.012-7.592 4.005-11.753a67.292 67.292 0 001.779-12.517h.005a5.019 5.019 0 016.001-4.706c26.257 5.307 56.479 6.741 86.245 4.183 28.474-2.447 56.434-8.562 79.97-18.446l.003.008a5.027 5.027 0 014.919.582c6.049 4.419 11.652 8.957 16.642 13.693 5.067 4.809 9.49 9.814 13.091 15.096a5.031 5.031 0 01-1.071 6.809l-.031.024a5.003 5.003 0 01-3.333 1.079c-33.835 13.654-67.679 21.312-101.531 23.395zM49.156 126.976c-6.99.663-14.063.401-21.184-.466-5.206-.633-10.445-1.588-15.7-2.737 2.733 5.959 7.619 11.947 13.84 17.377 8.689 7.585 19.878 13.941 31.499 17.604l9.828-14.892c-3.293-2.354-6.366-4.803-9.193-7.353-3.339-3.011-6.38-6.184-9.09-9.533zm-20.002-10.469c7.272.885 14.385 1.094 21.235.223a5.037 5.037 0 015.054 1.922c2.75 3.685 5.946 7.135 9.537 10.374 3.623 3.267 7.592 6.297 11.862 9.118a5.029 5.029 0 011.707 7.148l-14.646 22.191a5.027 5.027 0 01-6.405 1.74c-13.954-3.896-27.574-11.408-38.002-20.511C9.008 139.558 1.637 128.654.104 117.917a5.035 5.035 0 016.152-5.904c7.716 1.934 15.384 3.579 22.898 4.494z"/><path fill="#ED8479" d="M369.84 75.025a273.089 273.089 0 00-10.116-9.343 259.8 259.8 0 00-7.944-6.698c-3.733 7.393-8.23 14.28-13.387 20.657-24.678 30.516-64.458 49.409-107.654 56.441-42.958 6.994-89.438 2.277-127.803-14.398-11.987-5.21-23.19-11.587-33.259-19.138a272.36 272.36 0 00-5.722 8.38 288.096 288.096 0 00-6.451 10.296c12.318 14.646 30.578 25.193 52.045 32.184 26.048 8.482 56.706 11.703 87.275 10.644 37.272-1.292 79.862-8.802 114.49-27.268 25.836-13.777 47.23-33.698 58.526-61.757z"/><path fill-rule="nonzero" d="M369.84 75.025a273.089 273.089 0 00-10.116-9.343 259.8 259.8 0 00-7.944-6.698c-3.733 7.393-8.23 14.28-13.387 20.657-24.678 30.516-64.458 49.409-107.654 56.441-42.958 6.994-89.438 2.277-127.803-14.398-11.987-5.21-23.19-11.587-33.259-19.138a272.36 272.36 0 00-5.722 8.38 288.096 288.096 0 00-6.451 10.296c12.318 14.646 30.578 25.193 52.045 32.184 26.048 8.482 56.706 11.703 87.275 10.644 37.272-1.292 79.862-8.802 114.49-27.268 25.836-13.777 47.23-33.698 58.526-61.757zm-3.499-16.905a287.539 287.539 0 0112.718 11.865 5.035 5.035 0 011.392 5.506c-11.905 32.236-35.619 54.799-64.411 70.153-36.157 19.28-80.338 27.113-118.901 28.449-31.676 1.097-63.526-2.267-90.701-11.117-24.513-7.982-45.306-20.448-58.945-38.15a5.031 5.031 0 01-.439-5.682 296.874 296.874 0 018.473-13.731 272.633 272.633 0 019.008-12.89 5.027 5.027 0 017.283-1.054c10.407 8.415 22.283 15.412 35.135 20.999 36.593 15.905 81.029 20.388 122.171 13.69 40.903-6.659 78.409-24.35 101.431-52.818 5.944-7.351 10.924-15.42 14.744-24.199l.015-.035a5.026 5.026 0 017.68-1.969 267.955 267.955 0 0113.347 10.983z"/><path fill-rule="nonzero" d="M369.841 75.025a273.912 273.912 0 00-10.117-9.343c-2.62-2.3-5.268-4.533-7.945-6.699-6.002 11.888-13.99 22.469-23.521 31.737-10.482 10.191-22.804 18.78-36.379 25.758 2.023 3.594 4.211 7.225 6.6 10.791 2.692 4.018 5.62 7.928 8.823 11.569 14.55-7.283 27.815-16.4 38.838-27.686 9.933-10.17 18.067-22.13 23.701-36.127zm-3.5-16.905a287.539 287.539 0 0112.718 11.865 5.035 5.035 0 011.392 5.506c-6.164 16.691-15.512 30.802-27.104 42.671-12.748 13.053-28.181 23.361-45.052 31.384l-.006-.013a5.015 5.015 0 01-5.763-1.07c-4.683-4.893-8.773-10.192-12.397-15.601-3.507-5.236-6.61-10.616-9.406-15.846a5.039 5.039 0 012.068-7.28c14.529-6.927 27.608-15.674 38.457-26.224 10.148-9.867 18.377-21.33 24.052-34.373l.014-.033a5.026 5.026 0 017.68-1.969 267.955 267.955 0 0113.347 10.983z"/><path fill="#ED8479" d="M213.906 138.207c-26.609 2.415-53.961.474-79.418-5.883-23.971-5.985-46.299-15.895-64.81-29.779a273.652 273.652 0 00-5.723 8.381 288.096 288.096 0 00-6.451 10.296c12.318 14.646 30.578 25.193 52.045 32.184 26.048 8.482 56.706 11.703 87.275 10.644 4.092-.142 8.43-.376 13.012-.709a342.97 342.97 0 007.695-.646l-3.625-24.488z"/><path fill-rule="nonzero" d="M213.906 138.207c-26.609 2.415-53.961.474-79.418-5.883-23.971-5.985-46.299-15.895-64.81-29.779a273.652 273.652 0 00-5.723 8.381 288.096 288.096 0 00-6.451 10.296c12.318 14.646 30.578 25.193 52.045 32.184 26.048 8.482 56.706 11.703 87.275 10.644 4.092-.142 8.43-.376 13.012-.709a342.97 342.97 0 007.695-.646l-3.625-24.488zm-76.977-15.65c25.799 6.442 53.647 8.145 80.549 5.177a5.035 5.035 0 015.687 4.257l5.099 34.44h-.004l.023.177a5.032 5.032 0 01-4.45 5.553 347.6 347.6 0 01-13.288 1.223c-4.339.316-8.821.55-13.406.709-31.676 1.097-63.526-2.267-90.701-11.117-24.513-7.982-45.306-20.448-58.945-38.15a5.031 5.031 0 01-.439-5.682 296.874 296.874 0 018.473-13.731 272.633 272.633 0 019.008-12.89 5.027 5.027 0 017.283-1.054c18.103 14.639 40.667 24.985 65.111 31.088z"/><path fill-rule="nonzero" d="M125.494 129.868c-10.563-3.135-20.764-7.074-30.405-11.823-9.046-4.455-17.572-9.621-25.412-15.499a272.36 272.36 0 00-5.722 8.38 288.735 288.735 0 00-6.452 10.298c6.526 7.759 14.712 14.365 24.152 19.898 10.325 6.052 22.154 10.827 34.96 14.431a144.84 144.84 0 005.005-12.657 163.91 163.91 0 003.874-13.028zM99.54 109.027c10.397 5.121 21.586 9.267 33.276 12.444l-.005.018a5.02 5.02 0 013.589 5.929c-1.463 6.544-3.206 12.801-5.249 18.748a150.938 150.938 0 01-7.183 17.337 5.027 5.027 0 01-5.868 2.858c-15.204-3.931-29.291-9.403-41.526-16.575-11.552-6.771-21.45-15.052-29.09-24.972a5.031 5.031 0 01-.43-5.67 296.874 296.874 0 018.473-13.731 272.633 272.633 0 019.008-12.89 5.027 5.027 0 017.283-1.054c8.373 6.77 17.699 12.621 27.722 17.558z"/><path fill="#81B3CC" d="M343.674 52.689c-34.063-25.345-71.292-39.213-109.202-40.084-37.636-.865-76.065 11.071-112.868 37.292-9.32 6.64-18.027 14.028-26.157 22.115-7.013 6.977-13.597 14.473-19.777 22.457 9.452 7.092 19.99 13.09 31.283 17.999 36.594 15.905 81.029 20.388 122.171 13.69 40.903-6.659 78.409-24.349 101.431-52.818 5.135-6.35 9.549-13.235 13.119-20.651z"/><path fill-rule="nonzero" d="M343.674 52.689c-34.063-25.345-71.292-39.213-109.202-40.084-37.636-.865-76.065 11.071-112.868 37.292-9.32 6.64-18.027 14.028-26.157 22.115-7.013 6.977-13.597 14.473-19.777 22.457 9.452 7.092 19.99 13.09 31.283 17.999 36.594 15.905 81.029 20.388 122.171 13.69 40.903-6.659 78.409-24.349 101.431-52.818 5.135-6.35 9.549-13.235 13.119-20.651zM234.669 2.562c41.256.947 81.605 16.354 118.198 44.478a5.028 5.028 0 011.663 6.083c-4.192 9.645-9.642 18.485-16.137 26.518-24.678 30.516-64.458 49.409-107.654 56.441-42.958 6.994-89.438 2.277-127.803-14.398-13.665-5.939-26.311-13.395-37.419-22.378l.002-.002a5.026 5.026 0 01-.889-6.91c7.332-9.868 15.228-19.055 23.728-27.51 8.517-8.472 17.643-16.215 27.417-23.179 38.639-27.528 79.127-40.057 118.894-39.143z"/><path fill="#81B3CC" d="M284.198 21.285c-26.188-8.588-53.295-10.95-80.423-6.534-26.781 4.359-53.638 15.324-79.716 33.42 13.771 19.872 35.195 31.455 58.014 35.144a102.691 102.691 0 0034.725-.365c11.351-2.077 22.254-6.088 31.92-11.98 17.324-10.56 30.681-27.222 35.48-49.685z"/><path fill-rule="nonzero" d="M284.198 21.285c-26.188-8.588-53.295-10.95-80.423-6.534-26.781 4.359-53.638 15.324-79.716 33.42 13.771 19.872 35.195 31.455 58.014 35.144a102.691 102.691 0 0034.725-.365c11.351-2.077 22.254-6.088 31.92-11.98 17.324-10.56 30.681-27.222 35.48-49.685zM202.16 4.826c30.252-4.924 60.437-1.914 89.453 8.354l-.003.007a5.025 5.025 0 013.291 5.526c-4.491 27.786-20.201 48.198-40.945 60.843-10.725 6.538-22.797 10.983-35.346 13.279a112.7 112.7 0 01-38.112.404c-27.027-4.368-52.349-18.771-67.579-43.755l.005-.004a5.023 5.023 0 011.354-6.692l1.497-1.083c28.137-20.046 57.264-32.138 86.385-36.879z"/><path fill="#F0B873" d="M236.388 12.679a166.97 166.97 0 00-33.197 2.171c-11.135 1.85-22.289 4.846-33.398 9.025 2.139 7.917 6.15 14.79 11.397 19.852 5.8 5.595 13.127 8.944 21.063 8.944 9.274 0 17.717-4.568 23.87-11.954 5.999-7.199 9.842-17.051 10.265-28.038z"/><path fill-rule="nonzero" d="M236.388 12.679a166.97 166.97 0 00-33.197 2.171c-11.135 1.85-22.289 4.846-33.398 9.025 2.139 7.917 6.15 14.79 11.397 19.852 5.8 5.595 13.127 8.944 21.063 8.944 9.274 0 17.717-4.568 23.87-11.954 5.999-7.199 9.842-17.051 10.265-28.038zm-34.812-7.754a176.722 176.722 0 0140.139-2.06v.004a5.028 5.028 0 014.707 4.781c.017.372.035.86.051 1.494l.037 1.504c0 14.19-4.841 27.096-12.668 36.489-8.039 9.648-19.204 15.616-31.589 15.616-10.649 0-20.395-4.41-28.034-11.779-7.523-7.258-12.98-17.422-15.159-29.033a5.03 5.03 0 013.016-5.853c13.098-5.267 26.296-8.969 39.5-11.163z"/><path fill="#81B3CC" d="M157.603 126.642c20.35 3.021 41.445 3.295 61.951.847 20.165-2.407 39.712-7.435 57.367-15.059-3.005-15.514-10.278-29.091-20.289-38.938-10.462-10.293-23.938-16.494-38.618-16.494-16.544 0-31.564 7.883-42.475 20.627-10.759 12.568-17.537 29.841-17.936 49.017z"/><path fill-rule="nonzero" d="M157.603 126.642c20.35 3.021 41.445 3.295 61.951.847 20.165-2.407 39.712-7.435 57.367-15.059-3.005-15.514-10.278-29.091-20.289-38.938-10.462-10.293-23.938-16.494-38.618-16.494-16.544 0-31.564 7.883-42.475 20.627-10.759 12.568-17.537 29.841-17.936 49.017zm63.132 10.85c-22.827 2.725-46.385 2.207-68.98-1.588l.001-.008a5.024 5.024 0 01-4.195-4.817c-.01-.361-.02-.785-.028-1.311-.019-1.188-.031-.923-.031-1.335 0-22.347 7.795-42.625 20.397-57.346 12.786-14.934 30.501-24.172 50.115-24.172 17.426 0 33.357 7.298 45.668 19.409 12.334 12.133 21.012 29.114 23.838 48.376l-.012.002a5.024 5.024 0 01-2.883 5.295c-19.573 8.969-41.407 14.812-63.89 17.495z"/></svg>