<?xml version="1.0" encoding="iso-8859-1"?>
<!-- Uploaded to: SVG Repo, www.svgrepo.com, Generator: SVG Repo Mixer Tools -->
<svg version="1.1" id="Layer_1" xmlns="http://www.w3.org/2000/svg" xmlns:xlink="http://www.w3.org/1999/xlink" 
	 viewBox="0 0 512 512" xml:space="preserve">
<path style="fill:#303E48;" d="M124.757,406.739V130.351C124.757,58.048,183.534,0,255.837,0h0.244
	c72.303,0,131.161,58.048,131.161,130.351v276.388H124.757z"/>
<path style="fill:#232D33;" d="M156.838,406.162v-201.62c0-52.895,44.035-95.361,98.205-95.361h0.183
	c54.169,0,98.266,42.466,98.266,95.361v201.62H156.838z"/>
<rect x="224.323" y="276.582" style="fill:#E89680;" width="55.439" height="79.617"/>
<path style="fill:#FFC6AA;" d="M204.41,512c-80.64,0-112.46-105.541-44.595-149.096c27.724-17.794,60.743-28.102,96.185-28.102
	s68.461,10.308,96.185,28.102C420.05,406.459,388.229,512,307.59,512H204.41z"/>
<path style="fill:#FF705B;" d="M350.173,361.632c-13.685,38.649-50.596,66.225-93.983,66.225c-43.459,0-80.415-27.659-94.045-66.409
	c-47.053,29.181-79.402,79.687-83.432,138.161C78.251,506.315,83.598,512,90.319,512h331.363c6.719,0,12.068-5.684,11.606-12.388
	C429.267,441.266,397.057,390.844,350.173,361.632z"/>
<path style="fill:#42A555;" d="M300.42,369.726l-73.497,103.85c-10.739,15.174-10.071,38.409,8.518,38.409h143.361l43.681-62.227
	c-14.23-37.932-41.102-69.632-75.5-90.071C327.832,348.308,313.29,351.541,300.42,369.726z"/>
<path style="fill:#427451;" d="M310.555,343.281l-8.888,12.559c2.163,1.159,4.299,2.361,6.407,3.606
	c53.221,31.416,67.769,101.959,32.261,152.541l0,0h38.468l43.681-62.227C403.546,399.275,362.216,359.832,310.555,343.281z"/>
<path style="fill:#E6E6E6;" d="M310.555,343.281L191.158,511.986h52.598l106.405-150.349
	C337.882,353.988,324.605,347.782,310.555,343.281z"/>
<path style="fill:#EFBBAB;" d="M256.046,297.559c-0.024,0-0.046-0.001-0.07-0.001c-0.024,0-0.045,0.001-0.069,0.001H256.046z"/>
<path style="fill:#FFC6AA;" d="M355.162,198.297c-0.186-10.565-0.372-21.17-0.558-31.735c-0.118-8.418-1.652-20.395-9.287-30.826
	c-16.598-22.674-45.683-15.702-69.083-37.51c-7.649-7.129-16.839-19.254-21.364-40.854c0,0-5.374,35.592-35.409,50.682
	c-20.222,10.16-41.628,9.386-55.021,27.682c-7.636,10.432-7.327,22.407-7.443,30.826c-0.186,10.551-0.372,21.142-0.558,31.694v0.001
	c0,0.008,0,0.016,0,0.024c0,0.006,0,0.011,0,0.017c0,54.822,44.311,99.185,99.115,99.26v-0.005c0.141,0,0.283,0.005,0.425,0.006
	C310.813,297.52,355.162,253.142,355.162,198.297z"/>
<path style="fill:#FFA789;" d="M354.604,166.562c-0.118-8.418-1.652-20.395-9.287-30.826c-16.598-22.674-45.683-15.702-69.083-37.51
	c-7.649-7.129-16.839-19.254-21.364-40.854c0,0-2.834,18.707-15.835,34.748c1.938,2.366,3.875,4.385,5.72,6.106
	c23.401,21.809,52.486,14.836,69.083,37.51c7.636,10.432,9.17,22.407,9.287,30.826c0.186,10.565,0.372,21.17,0.558,31.735
	c0,49.547-36.197,90.549-83.622,98.035c5.047,0.797,10.22,1.217,15.491,1.225v-0.005c0.141,0,0.283,0.005,0.425,0.006
	c54.837-0.037,99.184-44.417,99.184-99.261C354.976,187.732,354.789,177.127,354.604,166.562z"/>
<path style="fill:#EFBBAB;" d="M255.691,297.559c-0.046,0-0.093-0.001-0.139-0.001v0.001H255.691z"/>
<circle style="fill:#F15A24;" cx="254.871" cy="145.351" r="8.357"/>
<path style="fill:#E6E6E6;" d="M259.043,255.697h-0.275c-16.999,0-31.054-13.78-31.054-30.78v-0.51c0-1.464,1.618-2.652,3.082-2.652
	h56.256c1.464,0,2.89,1.187,2.89,2.652v0.51C289.942,241.916,276.043,255.697,259.043,255.697z"/>
<circle style="fill:#303E48;" cx="210.271" cy="174.066" r="8.357"/>
<g>
	<circle style="fill:#ED589C;" cx="156.835" cy="276.582" r="8.357"/>
	<circle style="fill:#ED589C;" cx="353.495" cy="276.582" r="8.357"/>
</g>
<circle style="fill:#303E48;" cx="300.738" cy="174.066" r="8.357"/>
</svg>