<?xml version="1.0" encoding="iso-8859-1"?>
<!-- Uploaded to: SVG Repo, www.svgrepo.com, Generator: SVG Repo Mixer Tools -->
<svg height="800px" width="800px" version="1.1" id="Layer_1" xmlns="http://www.w3.org/2000/svg" xmlns:xlink="http://www.w3.org/1999/xlink" 
	 viewBox="0 0 393.309 393.309" xml:space="preserve">
<path style="fill:#56545F;" d="M299.475,102.982C299.475,46.158,253.317,0,196.493,0S93.511,46.093,93.511,102.982
	c0,19.394,5.495,37.754,14.933,53.204c-2.069,7.305-3.168,15.192-3.168,23.337c0,50.295,40.857,90.893,90.893,90.893
	c50.295,0,90.893-40.857,90.893-90.893c0-8.145-1.034-15.968-3.168-23.337C293.98,140.735,299.475,122.376,299.475,102.982z"/>
<path style="fill:#EEB490;" d="M377.309,328.339v64.453H16v-64.453c0-29.867,22.303-55.273,52.17-58.958l79.644-9.697v-36.719
	c12.412,12.477,29.543,20.17,48.485,20.17c19.2,0,36.59-7.952,49.002-20.687v37.495l79.644,9.697
	C354.747,273.325,377.051,298.473,377.309,328.339z"/>
<path style="fill:#1B9ED6;" d="M292.622,332.218v-66.78l-23.337-2.909v61.026c-4.461-0.776-8.921-1.293-13.64-1.293
	c-24.372,0-46.093,12.024-59.216,30.384c-13.382-18.36-34.844-30.384-59.216-30.384c-4.719,0-9.18,0.517-13.64,1.293v-60.768
	l-23.337,2.909v66.844c-20.945,12.283-35.362,34.844-36.137,60.768H328.76C328.048,367.063,313.632,344.566,292.622,332.218z"/>
<path style="fill:#FACCB4;" d="M239.741,79.386c-25.147,3.685-34.844,50.036-68.396,65.228c-14.933,6.788-30.384,3.685-43.507-1.81
	v31.935c0,37.754,30.642,68.396,68.396,68.396s68.396-30.642,68.396-68.396v-28.315C223.451,128.388,239.741,79.386,239.741,79.386z
	"/>
</svg>