<svg xmlns="http://www.w3.org/2000/svg" width="300" height="300"><defs><filter id="a" width="1.1" height="1.1" x="-.1" y="0" style="color-interpolation-filters:sRGB"><feGaussianBlur stdDeviation="1.6"/></filter><filter id="b" width="1.1" height="1.2" x="0" y="-.1" style="color-interpolation-filters:sRGB"><feGaussianBlur stdDeviation="1.6"/></filter><filter id="c" width="1.1" height="1.1" x="0" y="0" style="color-interpolation-filters:sRGB"><feGaussianBlur stdDeviation="4"/></filter></defs><path d="M502.3 944.5c28.8 1.7 57 4.8 53 83.9-11.3-29.3-30.6-57-53-84z" style="fill:#4a6561;fill-opacity:1;fill-rule:evenodd;stroke:#4a614a;stroke-width:1px;stroke-linecap:butt;stroke-linejoin:miter;stroke-opacity:1" transform="rotate(-23.6 -1281 1060)scale(.88556)"/><path d="M501.9 944.7c-11.5 26.5-18.9 52.2 53.6 84.2-12-31.6-32.7-58-53.6-84.2z" style="fill:#445946;fill-opacity:1;fill-rule:evenodd;stroke:#4a614a;stroke-width:1px;stroke-linecap:butt;stroke-linejoin:miter;stroke-opacity:1" transform="rotate(-23.6 -1281 1060)scale(.88556)"/><path d="M502.3 944.5c28.8 1.7 57 4.8 53 83.9-11.3-29.3-30.6-57-53-84z" style="fill:#4a6561;fill-opacity:1;fill-rule:evenodd;stroke:#4a614a;stroke-width:1px;stroke-linecap:butt;stroke-linejoin:miter;stroke-opacity:1" transform="rotate(34.6 1388.3 126.6)scale(.88556)"/><path d="M501.9 944.7c-11.5 26.5-18.9 52.2 53.6 84.2-12-31.6-32.7-58-53.6-84.2z" style="fill:#445946;fill-opacity:1;fill-rule:evenodd;stroke:#4a614a;stroke-width:1px;stroke-linecap:butt;stroke-linejoin:miter;stroke-opacity:1" transform="rotate(34.6 1388.3 126.6)scale(.88556)"/><path d="M502.3 944.5c28.8 1.7 57 4.8 53 83.9-11.3-29.3-30.6-57-53-84z" style="fill:#4a6561;fill-opacity:1;fill-rule:evenodd;stroke:#4a614a;stroke-width:1px;stroke-linecap:butt;stroke-linejoin:miter;stroke-opacity:1" transform="rotate(48.5 543 1125)scale(-.88556 .88556)"/><path d="M501.9 944.7c-11.5 26.5-18.9 52.2 53.6 84.2-12-31.6-32.7-58-53.6-84.2z" style="fill:#445946;fill-opacity:1;fill-rule:evenodd;stroke:#4a614a;stroke-width:1px;stroke-linecap:butt;stroke-linejoin:miter;stroke-opacity:1" transform="rotate(48.5 543 1125)scale(-.88556 .88556)"/><path d="M502.3 944.5c28.8 1.7 57 4.8 53 83.9-11.3-29.3-30.6-57-53-84z" style="fill:#4a6561;fill-opacity:1;fill-rule:evenodd;stroke:#4a614a;stroke-width:1px;stroke-linecap:butt;stroke-linejoin:miter;stroke-opacity:1" transform="matrix(-.87309 .1481 .1481 .87309 406 -696)"/><path d="M501.9 944.7c-11.5 26.5-18.9 52.2 53.6 84.2-12-31.6-32.7-58-53.6-84.2z" style="fill:#445946;fill-opacity:1;fill-rule:evenodd;stroke:#4a614a;stroke-width:1px;stroke-linecap:butt;stroke-linejoin:miter;stroke-opacity:1" transform="matrix(-.87309 .1481 .1481 .87309 406 -696)"/><path d="M172 768.6c-14 8.2-33.5 8.1-42.6 23.5-7.7 8.4-16.8 30.2-28 15a72 72 0 0 0-39.8 2.7c-7.9 6.8-26.7-4-28.6 11.4-5.7 10.6 2.6 22.7 1 34.3-1 12.8 20 21.5 17 30.8a47 47 0 0 0-27.5 15.4c-10 6.7-14.6 18.1-19.4 28.6-2 11.8 12.6 2.4 17.2 11 10.4 2.1 11.3 17.5 23.4 19 12.1 9.2 30-1.5 41 5.5-2.8 11.7 1 24.8 14.3 27.7 12.6.3 24.4.8 34.9 9.2 5.8 8.5 17.8 14.7 23.4 1.7 3.8-16.2 15-26.6 29.5-33.8 12-6.1 17.7-21.5 15.2-34.3-3-8.4 15.8-5.3 22.2-6.1 11.2 4 25.5 1.3 24.3-13.5-1.7-14-3-28-2.5-42.3-.7-13.5-11.4-25.4-22.5-32.2-11-5.7-24.2-5-33.6 3.6-9.2 6.6 9-5 10.6-9.1 7.5-9-4-16.6-2.2-26.1-8.7-11.2-11.8-24.8-18.6-36.5a20 20 0 0 0-8.8-5.5z" style="fill:#000;fill-opacity:1;fill-rule:evenodd;stroke:#000;stroke-width:.92128128px;stroke-linecap:butt;stroke-linejoin:miter;stroke-opacity:1" transform="translate(17.8 -752.8)"/><g style="stroke:#000;stroke-opacity:1;fill:#ff7f2a"><path d="M-189.3 939.2c-1.2-2.5 14.3-33.4 16.5-51.1 2.4-18 5.7-38.3-3.1-54.5-10.6-19.3-38.7-23.8-54.1-41-1.6-1.7-3.4-4.2-8.3-1.3-2.8 1.6-7.1-1.4-10.9-.1-3.2 1-6 3-12.2.7-4-1.4-10.6-2.3-12.5 1.4-4.8 9.3-8 1-11.7 1.6s-4.4-1.5-7.2-1-5.8 2.7-7.4 3-5.9-.2-5.9-.2-4.2 1.3-4.7 2.6c-.5 1.2 4.3 3.8 3.5 6s-6.6 3-6.1 6c.5 3.9 5 10 1.5 11.5-3.3 1.4.4 7.2 1.8 10.7 1.7 4-1 8-2.7 11.2-1.7 3.3 4.8 7.6 6.2 11s-.2 6.5 2.4 9.4l41.7 48.9c12.6 14.8 47.6 35.3 47.6 35.3 23.8 11 23-1 25.6-10.1z" style="fill:#ff7f2a;fill-opacity:1;fill-rule:evenodd;stroke:#000;stroke-width:1.09376633px;stroke-linecap:butt;stroke-linejoin:miter;stroke-opacity:1" transform="rotate(-4.5 -7601.7 -3536.8)scale(.81964)"/><path d="M-166 935.9c19.4-23.3 11.2-62.8 35.4-83.7 10.7-9.1 31.3-14 21.3-27.3-2.6-3.5-3.3-6.4-2-11.9 1.1-5.1-1.2-12.3-5.4-17.3-3.7-4.4-8.5-8-7.2-18.5.8-6.4-5-11.3-7.2-15.5-2.6-4.6-8.3-8.2-14.3-5.4-4.9 2.3-10.8 7.1-22.4 7.4-8.9.2-18 7.2-23 14.3-4.5 6.5-11.6 11.2-15.8 15.3-20.1 19.4-8 53.3-3 82 3.8 21.4 34.4 58.6 28.5 56.7s-48.8-42.5-78-49c-18.1-4-39-.3-57 6.4-4.6 1.7-9 4.7-9.4 8.6-.4 4.3-5 2.9-7.4 3.8-3.3 1.2-6.6 3.4-6.6 7 0 2.9-5 3.2-6.4 5.7-1.3 2.4 0 5.7-1.2 8.2-1.4 2.8-5.1 4-6.8 6.7-1.3 2.1-3.8 5-2.4 7 1 1.5 3.8-.5 5.5.1 1.3.5 1.6 3.8 3.1 2.6 2.4-2 5.2-4.8 5.4 1.6.1 2.8 4.5 4 7.3 4.3 6.5.7 5.8 1 7.2 2.9 1.6 2 2 4.6 2.9 6.9s0 6.7 2.5 7c4.7.6 7.4 1.6 7.4 4.5 0 2.2 4 1.7 5.9 2.9 2.3 1.4 3.8 5.1 6.5 5 4.7 0 7.4 1 9.4 2.5 2.7 1.7 6.3-2 9.5-1.7s7.8 6 9.8 3.5c1.6-2.1 4.4-2.9 9.8-.4 33.1-3 80-21.4 98.1-42.2z" style="fill:#ff7f2a;fill-opacity:1;fill-rule:evenodd;stroke:#000;stroke-width:.98179996px;stroke-linecap:butt;stroke-linejoin:miter;stroke-opacity:1" transform="rotate(-4.5 -7601.7 -3536.8)scale(.81964)"/><path d="M-179 934.5c-4.8.8 4.5-22.3 9-32.1 7-14.8 15.6-29 26.5-39.1 9.6-8.9 23.4-20.1 35.2-21 3.5-.3 8-.9 11.5-.2s6.3 2.1 9.4 4c3 1.8 2.9 5.6 9.4 6 3.8.2 7.7 4.6 8 8.6.5 7.1 3.7 9.6 6 13.1 2.6 4.3 8 11.7 2.4 15.4-4.5 3 3.3 11.8.3 16.5-4.7 7.6-2 11.7-.3 16 1 2.5 0 5.6 0 8.5q0 4.4-.3 8.6c-.2 2.8-3 5-3.8 7.4s.4 5-1.3 6.6q-3 2.8-6.5 3c-2.4.2-4.5-1.8-7-2.5-2.7-.7-5.7 0-8.3-.7q-4-1-7.7-1.4c-20-2.7-24 5-35.3.7-7.3-3-11.5-13.4-18.7-17-5-2.5-10.7-2.7-16.2-2.6-4.1 0-12.4 2.2-12.4 2.2z" style="fill:#ff7f2a;fill-opacity:1;fill-rule:evenodd;stroke:#000;stroke-width:1.16801178px;stroke-linecap:butt;stroke-linejoin:miter;stroke-opacity:1" transform="rotate(-4.5 -7601.7 -3536.8)scale(.81964)"/><path d="M-205.2 942.3c-20 8.2-44.3 14-55 38.4q-2.6 7.3-1.8 14.2c.6 4.5.6 11 4.7 12 6.4 1.6 8.2 5 9 7.8 1.3 3.7 7.6 2.2 11.7 1.4 7-2.5 8.5.5 12 2.4 3.9 2 7.6 4.5 12 6.1 5 2 11.1 3.8 10.7 8.8-.4 4.6 6.3 6.6 8.8 10.1q6.8-.2 10.8-4.8c2.6-2.8-1.2-3.8 7.3-11 3.6-3 4.4-8.4 6.9-12.1 2.4-3.7-2.7-8.6 9.5-8.1 3.1-2.2 7.1-4.1 10.8-6.8 3.6-2.6 4.2-7 12-7.8 4.8-.4 10.7-4.9 10.6-9.6 0-5 2.9-8.9 6.6-12.4 6.7-17.1-17-27.5-28.9-33-15.1-9-34.6-12.7-49.1 0a51 51 0 0 1-8.6 4.4z" style="fill:#ff7f2a;fill-opacity:1;fill-rule:evenodd;stroke:#000;stroke-width:1.05493891px;stroke-linecap:butt;stroke-linejoin:miter;stroke-opacity:1" transform="rotate(-4.5 -7601.7 -3536.8)scale(.81964)"/></g><path d="M167 930.5c4.8-5.3-.3-14 2.6-20.8 2.1-7.3 4.7-14 5.5-22a69 69 0 0 1 17-23.3c3.4-4.8 8.1-2.2 6.3-9.3-2.5-6.3-.9-12.1 3-18 2.4-4.9 2.5-11.5 4-16.7-3.6.9-10.4 9.8-12.8 1.8-1.5-6.1.3-12.3-.8-18.4-2.2-2-4 6.4-6.1 8.7-2 3-7 12-8.8 4.7-2.4-5.4-3.5-11.3-4.8-17-2.1 4.6-2.2 13.3-8.4 14-6.4.8-6.8-8.2-7.4-13.4-.2-3-1-8.7-1.4-2.5-1.4 5.8-2.4 16.5-9.6 15.1-6.7-2.7-9 5.9-11.9 10.7-3.9 7.5-.5 16.4 1.9 24 2.5 7.2 5.3 14.4 6.1 22.1a64 64 0 0 0 8.3 25.8c4.5 8.4 10.5 16.2 12.3 26-.3 3.8.7 11.1 4.3 6.9q.9.6.7 1.6" style="fill:#ffd42a;fill-opacity:1;fill-rule:evenodd;stroke:none;stroke-width:1px;stroke-linecap:butt;stroke-linejoin:miter;stroke-opacity:1;filter:url(#a)" transform="matrix(.87954 -.04146 .03922 .89942 -16.4 -657.7)"/><path d="M105 128.9c-1.5-.1-2.6.6-2.2 2.8.9 3.3 4 6.3 2.5 8.8 1.3 3.1 2.4 7 6.2 9 2.6 3 15.7 4.8 18.7 7.6 3 3 20 11.8 23.8 13.8a131 131 0 0 1-24.4-2.8c-3.1-1.4-6.1.2-5.6 2.9q-3.5-1.6-7.2-2.6c-3.2-.9-9.5-1.5-10 2.3-.5 3.3 3 5.6 7 6 3.3 1.3 4.8 4 7.5 5.5-.4 3.4-6.5 3.3-9.7 4.6l-13 .9c-1.8 0-5 1-5.3.4-4.1 0-10.3 3.6-6.1 6.2 3 1.5 7.3 1.2 8.3 4 3.2 1 6.8 2.8 10.8 1.3q6 .1 12.1-.4 6.4-.5 12.4-2.5c2.6-1.5 4.2.2 1.5 1.6-3.9 1.8-12.5 4.7-8 5 4.5.4 12.4-6 16.4-7.6 2.9-2.9 10.6-3.4 14-6 1.6-2 7.8-2.3 10.3-3.7.4.4-2.2 5.4-2.4 5.9q1.3 3 .8 5.8c.3 2.5-.5 4.7-.2 7.2.2 1.6 1.4 4.6 4.5 4.2 2.6-.3 3.4-2.2 2.7-4.1.1-1.7 1.8-2.8 2.2-4.3 2.7-.3 4.3 2.5 6.1 3.7l4 5.8c.6.8 2.2 2.1 1.8 2.4 1.1 1.8 5.4 4 6.3 1.8.4-1.7-1-3.5.9-4.4 0-1.7.4-3.6-1.8-5.1l-3.5-5.5q-2-2.8-5.1-5.2c-1.9-1-1-2 .9-1 2.3 1.5 5.9 1 5-1.2-1-2.1-4.3-2-6.5-3.6-2.3-.7-3.9-2-5.8-3.2 1.8-.2 1.7 0 3.2.7 2.5.2-6.3-5.4-3.8-5.2 1.5.2 17.4 6.4 17.7 3.3.3-2.6-1.5-3.8-3.4-3.6-1.7-.4-2.4-2.3-3.7-3 .2-2.7 3.2-3.7 4.9-5.2l6.5-2.7c.9-.4 2.5-1.6 2.7-1.2 2-.7 5.1-4.5 3-5.8-1.5-.7-3.6.2-4-1.8-1.7-.3-3.4-1.1-5.4.7q-3 .9-6.1 2.2-3.2 1.4-6.2 4c-1.3 1.5-2.1.4-.7-1.1 2-2 2-5.6-.2-5.1s-4.9 9.5-6.9 11.4c-1.5 2.7-1.9-1.9-3.6.7-.8 1.7-2.7 2.3-4 3.5l-.2-.1c-2-2.5-3.2-5.6-4.5-8.4l-.2-.5c-1.8-2.7-6.2-3.2-7-6.5q-3.8-5.2-5.6-10.8c-2.3-4.7-3.3-9.4-5.6-14-1.4-3-5.2-8.1-8.4-6-2.8 1.8-2.1 6 .2 9.3 1.2 3.3.2 6.2.9 9.2-2.8 2-6.8-2.6-10-4.2-3.2-3-6-6.1-9.2-9.2-1.2-1.3-4-3-3.9-3.7a11 11 0 0 0-6.3-3.2" style="fill:#d4aa00;fill-opacity:1;fill-rule:evenodd;stroke:none;stroke-width:1px;stroke-linecap:butt;stroke-linejoin:miter;stroke-opacity:1;filter:url(#b)" transform="translate(17.7 .6)scale(.88556)"/><g style="fill:#b90e61;fill-opacity:1;stroke:#b90e61;stroke-opacity:1"><path d="M190.6 906c.4 3.6-6.2 1-2.8 4.7 1.3 1 3 1.1 4.5 1.4 0-1.3-.8-8-1.7-6zm5.4 3.6c-3.8-2.6 0-8.2-3-11.3 3.2-1.4 2.6 2.5 2.2 4.3 2.1 3.2 4.4 6.1 4.7 10-.2 4-3.1 2-3.6-.7q-.4-1-.4-2.3zm8-4.6c2.7-.9-.7-8.3 2.3-6 .4 2.3 1.4 5.8-2.2 6zm-4.3-12c2.5 1.7-.3 8.2 1.3 8.9-2.6 2.1-5-8.4-1.3-8.8zm-8.3 6c-.6-1.4-4-6.7 0-5 2 1.3-.5 3.4 0 5zm-5.1-.7c0-2-6.7-4.1-3.1-1.4-.8 2 3.8 4.6 3 1.4zm-4-7.7c-2.7-.7-3.8-7.5 0-4.7.6 1.5 0 3.1 0 4.7zm5.6-2.1c-5.7-1.5 2.3-9 2.7-2.6 0 1.5-1.5 2.3-2.7 2.6zm-5.9-8c-.2-1.8-3.9-8.2.3-5.4-.5 1 2.1 6.7-.3 5.4zm-2.8-6.5c-3 .5-7.1-7.4-2.2-5 1.5 1.3.8 3.6 2.2 5zm8.7-9.6c1.2.3 2.2 2.6 2.1 3.7-2.1-.2-7-3.7-2.1-3.7zm-6.2.5c-1.1-.5-1.5.6-2.4 1.3 0 5.6 7.3 2.2 2.4-1.3zM176 860c0-2-2-2.7-3.2-.6 1.3 1.5 3.6 5 3.1.6zm18.7 14c0-2-6.2-4-3-.6 1.2 1.6 3.5 5.1 3 .6zm-5.7-14c0-2-2-2.7-3.3-.6 1.4 1.6 3.7 5.2 3.2.7zm2.6-13.4c.1-2-1.7-2.7-3-.6 1.2 1.6 3.6 5.1 3 .6zm7.1-3.7c.8-1.8-.8-3.6-2.7-1.9.6 2 1.5 6.2 2.7 1.9zm13.8-4.1c1.3-1.7-.3-4-2.4-2.2.6 1.2 1.5 6 2.4 2.2zm-15 33.5c-4-1.4 0-6.2-2.8-8.5-1-1.9.8-6.3 1.8-2.3 1 3.4 4.4 9.7 1.2 11.7l-.2-.4zm-.3 11.9c-.8 1.7 0 6.6 2 3.6.3-3 1.1-5.3.5-8.2-3.3-1.4-4.9 3.1-2.5 4.6zm6.4-11.4c-3.3-1.8 3.3-6.4 1.5-1.3q-.5 1-1.5 1.3zm.8 13.6c-.9-2 1-7.7 2.5-4q-.9 2.3-2.5 4zm2.7 6.9c-1.2-2 2-7.5 2.7-3 0 1.5-1.6 2.2-2.7 3zm5.6 7.2c-4.4-2.7 5.8-6.8 2.5-2q-1.6.5-2.5 2zm.5-9c-1.5-1.9 2.5-7.1 1.7-3zm5.8-7.7c4.7 3 4.7-5.7-.3-3.8-3-.7-8.5 2.9-3.4 4.7 1 .3 4.6 1.4 3.7-.9zm-8.4-5.8c3.4-.3 1.4-5.5 4.2-6.8-.9-4.7-7.3.2-6.5 3.7-.4 1.6 0 4.5 2.3 3zm-1.6-12c5.5 1.8 5.1-7 .6-7.3-4-.5-6.5 7.2-1.5 7l.5.2zm-6.8-9.2c-2.5-1.4-6.2-6.9-.8-6.3 4.2.4.2 5.5.9 6.3l.7.5m8.1-3.9c-5-1.8 1.1-11.5 2.6-5-.1 1.9-.9 4-2.6 5zm5.1 6.7c3.4-1 1.4-7.4 3.8-7.4.6 2.2.6 6.4 4 4.1 3.9-.8 2.1 2.4-.6 1.5-2.4.7-4.5 3.7-7.2 1.8zm3.8 10.1c.2-2.4 4-8 6-4.1a19 19 0 0 1-6 4.1zm7-18.7c1.4-2.5 5-8 8-5 1.2 4-5 5.6-8 5zm-6.3-5.1c-2.4-3.6 4-9 4.4-3.2-.4 1.8-2.3 3.9-4.4 3.2zm-44.1-12.3c-2-1.1-1-9-4-5.1-1.4 2.6.6 7.3 4 5.1zm4 28.9c-3.4-1.8 3.3-6.3 1.4-1.3q-.3 1-1.4 1.3zm-5-8.9c-3.3-1.8 3.3-6.4 1.5-1.3q-.5 1-1.5 1.3zm-1-9c-3.4-1.8 3.3-6.3 1.5-1.3-.3.6-.8 1.3-1.5 1.3zm14.1 27.4c.8-1.8-.7-3.5-2.7-1.8.7 2 1.5 6.2 2.7 1.8zm7.1 17.2c.9-1.8-.7-3.5-2.6-1.9.6 2.1 1.4 6.3 2.6 2zm-13.1-34.8c2 .7 3.5-1 1.7-2.8-2 .7-6 1.8-1.7 2.8zm10.7 1.3c-3.3-1.8 3.4-6.4 1.5-1.4q-.3 1.1-1.5 1.4zm-10.6-5.8c-3.3-1.8 3.3-6.4 1.5-1.4q-.4 1.1-1.5 1.4zm22.4-3.9c-3.4-1.8 3.3-6.4 1.5-1.3q-.4 1-1.5 1.3zm11.5 4.5c-3.3-1.9 3.4-6.5 1.5-1.4q-.4 1-1.5 1.3zm14.3-7.5c-3.4-1.8 3.2-6.4 1.4-1.3q-.5 1-1.5 1.3zm-15.3-5.6c-3.3-1.8 3.3-6.4 1.5-1.4q-.5 1.1-1.5 1.4zm.2 5.6c-3.4-1.8 3.3-6.4 1.5-1.3q-.5 1-1.5 1.3zm12.1-7c-3.4-1.8 3.3-6.4 1.4-1.4q-.3 1.1-1.4 1.4zm-39.1 2.6c-3.4-1.8 3.3-6.3 1.4-1.3q-.3 1-1.4 1.3zm16.7-5.7c-3.3-1.8 3.4-6.4 1.5-1.3q-.3 1-1.5 1.3zm-23 7.6c-2.4-1.3-6.1-6.8-.7-6.3 4.2.5.1 5.5.9 6.4l.6.4m46.3 20.5c3.3-1 1.3-7.4 3.7-7.3.6 2.1.6 6.3 4 4 3.9-.8 2.1 2.5-.6 1.5-2.4.7-4.4 3.8-7.1 1.9zm-24.5-23.2c.8-1.9-.8-3.6-2.7-1.9.7 2 1.5 6.2 2.7 1.9zM196 832c.9-2-.7-3.6-2.6-2 .6 2.1 1.4 6.3 2.6 2z" style="fill:#b90e61;fill-opacity:1;fill-rule:evenodd;stroke:#b90e61;stroke-width:.5;stroke-linecap:butt;stroke-linejoin:round;stroke-miterlimit:4;stroke-dasharray:none;stroke-opacity:1" transform="matrix(.82412 -.04933 .07567 .92159 -70.7 -682.2)"/></g><g style="stroke:#280b0b"><g style="stroke:#280b0b"><path d="M206.3 945.3C167 930.8 118.2 921.8 96 897.6c12.6 10.9 5.6 21.6 110.3 47.7" style="fill:#de3aba;fill-opacity:1;fill-rule:evenodd;stroke:#280b0b;stroke-width:.30000001;stroke-linecap:round;stroke-linejoin:round;stroke-miterlimit:4;stroke-dasharray:none;stroke-opacity:1" transform="rotate(-6.1 -6871.8 956.9)scale(1.04034 .96591)"/><path d="m102.9 904.2-8.2-8.2s4.7-2 6.4-.7c2.5 1.8 1.8 9 1.8 9z" style="fill:#5a0c52;fill-opacity:1;fill-rule:evenodd;stroke:#280b0b;stroke-width:.30000001;stroke-linecap:butt;stroke-linejoin:round;stroke-miterlimit:4;stroke-dasharray:none;stroke-opacity:1" transform="rotate(-6.1 -6871.8 956.9)scale(1.04034 .96591)"/></g><g style="stroke:#280b0b"><path d="M206.3 945.3C167 930.8 118.2 921.8 96 897.6c12.6 10.9 5.6 21.6 110.3 47.7" style="fill:#de3aba;fill-opacity:1;fill-rule:evenodd;stroke:#280b0b;stroke-width:.30000001;stroke-linecap:round;stroke-linejoin:round;stroke-miterlimit:4;stroke-dasharray:none;stroke-opacity:1" transform="matrix(.79776 .38362 -.3812 .80504 365.6 -679.3)"/><path d="m102.9 904.2-8.2-8.2s4.7-2 6.4-.7c2.5 1.8 1.8 9 1.8 9z" style="fill:#5a0c52;fill-opacity:1;fill-rule:evenodd;stroke:#280b0b;stroke-width:.30000001;stroke-linecap:butt;stroke-linejoin:round;stroke-miterlimit:4;stroke-dasharray:none;stroke-opacity:1" transform="matrix(.79776 .38362 -.3812 .80504 365.6 -679.3)"/></g><g style="stroke:#280b0b"><path d="M206.3 945.3C167 930.8 118.2 921.8 96 897.6c12.6 10.9 5.6 21.6 110.3 47.7" style="fill:#de3aba;fill-opacity:1;fill-rule:evenodd;stroke:#280b0b;stroke-width:.30000001;stroke-linecap:round;stroke-linejoin:round;stroke-miterlimit:4;stroke-dasharray:none;stroke-opacity:1" transform="matrix(.9801 .31848 -.34856 .91202 297 -767.3)"/><path d="m102.9 904.2-8.2-8.2s4.7-2 6.4-.7c2.5 1.8 1.8 9 1.8 9z" style="fill:#5a0c52;fill-opacity:1;fill-rule:evenodd;stroke:#280b0b;stroke-width:.30000001;stroke-linecap:butt;stroke-linejoin:round;stroke-miterlimit:4;stroke-dasharray:none;stroke-opacity:1" transform="matrix(.9801 .31848 -.34856 .91202 297 -767.3)"/></g><g style="stroke:#280b0b"><path d="M206.3 945.3C167 930.8 118.2 921.8 96 897.6c12.6 10.9 5.6 21.6 110.3 47.7" style="fill:#de3aba;fill-opacity:1;fill-rule:evenodd;stroke:#280b0b;stroke-width:.30000001;stroke-linecap:round;stroke-linejoin:round;stroke-miterlimit:4;stroke-dasharray:none;stroke-opacity:1" transform="matrix(.79749 .61602 -.66792 .74412 636.2 -670)"/><path d="m102.9 904.2-8.2-8.2s4.7-2 6.4-.7c2.5 1.8 1.8 9 1.8 9z" style="fill:#5a0c52;fill-opacity:1;fill-rule:evenodd;stroke:#280b0b;stroke-width:.30000001;stroke-linecap:butt;stroke-linejoin:round;stroke-miterlimit:4;stroke-dasharray:none;stroke-opacity:1" transform="matrix(.79749 .61602 -.66792 .74412 636.2 -670)"/></g><g style="stroke:#280b0b"><path d="M206.3 945.3C167 930.8 118.2 921.8 96 897.6c12.6 10.9 5.6 21.6 110.3 47.7" style="fill:#de3aba;fill-opacity:1;fill-rule:evenodd;stroke:#280b0b;stroke-width:.30000001;stroke-linecap:round;stroke-linejoin:round;stroke-miterlimit:4;stroke-dasharray:none;stroke-opacity:1" transform="matrix(.72503 .63752 -.92996 .41031 898.6 -359)"/><path d="m102.9 904.2-8.2-8.2s4.7-2 6.4-.7c2.5 1.8 1.8 9 1.8 9z" style="fill:#5a0c52;fill-opacity:1;fill-rule:evenodd;stroke:#280b0b;stroke-width:.30000001;stroke-linecap:butt;stroke-linejoin:round;stroke-miterlimit:4;stroke-dasharray:none;stroke-opacity:1" transform="matrix(.72503 .63752 -.92996 .41031 898.6 -359)"/></g><g style="stroke:#280b0b"><path d="M206.3 945.3C167 930.8 118.2 921.8 96 897.6c12.6 10.9 5.6 21.6 110.3 47.7" style="fill:#de3aba;fill-opacity:1;fill-rule:evenodd;stroke:#280b0b;stroke-width:.30000001;stroke-linecap:round;stroke-linejoin:round;stroke-miterlimit:4;stroke-dasharray:none;stroke-opacity:1" transform="matrix(.67677 -.28014 .2833 .85349 -238 -588.5)"/><path d="m102.9 904.2-8.2-8.2s4.7-2 6.4-.7c2.5 1.8 1.8 9 1.8 9z" style="fill:#5a0c52;fill-opacity:1;fill-rule:evenodd;stroke:#280b0b;stroke-width:.30000001;stroke-linecap:butt;stroke-linejoin:round;stroke-miterlimit:4;stroke-dasharray:none;stroke-opacity:1" transform="matrix(.67677 -.28014 .2833 .85349 -238 -588.5)"/></g><g style="stroke:#280b0b"><path d="M206.3 945.3C167 930.8 118.2 921.8 96 897.6c12.6 10.9 5.6 21.6 110.3 47.7" style="fill:#de3aba;fill-opacity:1;fill-rule:evenodd;stroke:#280b0b;stroke-width:.30000001;stroke-linecap:round;stroke-linejoin:round;stroke-miterlimit:4;stroke-dasharray:none;stroke-opacity:1" transform="matrix(.53363 .37785 -.85783 .47895 869 -370.4)"/><path d="m102.9 904.2-8.2-8.2s4.7-2 6.4-.7c2.5 1.8 1.8 9 1.8 9z" style="fill:#5a0c52;fill-opacity:1;fill-rule:evenodd;stroke:#280b0b;stroke-width:.30000001;stroke-linecap:butt;stroke-linejoin:round;stroke-miterlimit:4;stroke-dasharray:none;stroke-opacity:1" transform="matrix(.53363 .37785 -.85783 .47895 869 -370.4)"/></g><g style="stroke:#280b0b" transform="rotate(-2.2 -19341.6 1699)scale(1.04034 .96591)"><ellipse cx="275.5" cy="901.5" rx="4.3" ry="2.1" style="opacity:1;fill:#ccc;fill-opacity:1;stroke:#280b0b;stroke-width:.29858747;stroke-linecap:round;stroke-linejoin:round;stroke-miterlimit:4;stroke-dasharray:none;stroke-opacity:1" transform="rotate(-2.6)scale(1 .97513)skewX(-12.5)"/><path d="M203.2 942.2s-32.9-9.8-47.6-18.5a93 93 0 0 1-25.9-21.6 52 52 0 0 1-8.9-17.8c-1-3.4-1-10.7-1-10.7-1.5 2-3.4 4.3-8.6 1.8 0 0 4.8 8.7 7.5 12.8 6 9.3 11.2 19.4 19.2 27a83 83 0 0 0 20.2 13.2c5.3 2.7 11.2 4.2 16.7 6.3l28 10.7z" style="fill:maroon;fill-opacity:1;fill-rule:evenodd;stroke:#280b0b;stroke-width:.30000001;stroke-linecap:round;stroke-linejoin:round;stroke-miterlimit:4;stroke-dasharray:none;stroke-opacity:1"/></g><g style="stroke:#280b0b"><path d="M206.3 945.3C167 930.8 118.2 921.8 96 897.6c12.6 10.9 5.6 21.6 110.3 47.7" style="fill:#de3aba;fill-opacity:1;fill-rule:evenodd;stroke:#280b0b;stroke-width:.30000001;stroke-linecap:round;stroke-linejoin:round;stroke-miterlimit:4;stroke-dasharray:none;stroke-opacity:1" transform="matrix(.3644 .51862 -.87277 .14913 918 -87.6)"/><path d="m102.9 904.2-8.2-8.2s4.7-2 6.4-.7c2.5 1.8 1.8 9 1.8 9z" style="fill:#5a0c52;fill-opacity:1;fill-rule:evenodd;stroke:#280b0b;stroke-width:.30000001;stroke-linecap:butt;stroke-linejoin:round;stroke-miterlimit:4;stroke-dasharray:none;stroke-opacity:1" transform="matrix(.3644 .51862 -.87277 .14913 918 -87.6)"/></g><g style="stroke:#280b0b"><path d="M206.3 945.3C167 930.8 118.2 921.8 96 897.6c12.6 10.9 5.6 21.6 110.3 47.7" style="fill:#de3aba;fill-opacity:1;fill-rule:evenodd;stroke:#280b0b;stroke-width:.30000001;stroke-linecap:round;stroke-linejoin:round;stroke-miterlimit:4;stroke-dasharray:none;stroke-opacity:1" transform="matrix(.71076 .13258 -.74101 .7544 722.2 -580)"/><path d="m102.9 904.2-8.2-8.2s4.7-2 6.4-.7c2.5 1.8 1.8 9 1.8 9z" style="fill:#5a0c52;fill-opacity:1;fill-rule:evenodd;stroke:#280b0b;stroke-width:.30000001;stroke-linecap:butt;stroke-linejoin:round;stroke-miterlimit:4;stroke-dasharray:none;stroke-opacity:1" transform="matrix(.71076 .13258 -.74101 .7544 722.2 -580)"/></g><g style="stroke:#280b0b"><path d="M206.3 945.3C167 930.8 118.2 921.8 96 897.6c12.6 10.9 5.6 21.6 110.3 47.7" style="fill:#de3aba;fill-opacity:1;fill-rule:evenodd;stroke:#280b0b;stroke-width:.30000001;stroke-linecap:round;stroke-linejoin:round;stroke-miterlimit:4;stroke-dasharray:none;stroke-opacity:1" transform="matrix(.68603 -.28575 -.20795 1.25345 223.7 -965.5)"/><path d="m102.9 904.2-8.2-8.2s4.7-2 6.4-.7c2.5 1.8 1.8 9 1.8 9z" style="fill:#5a0c52;fill-opacity:1;fill-rule:evenodd;stroke:#280b0b;stroke-width:.30000001;stroke-linecap:butt;stroke-linejoin:round;stroke-miterlimit:4;stroke-dasharray:none;stroke-opacity:1" transform="matrix(.68603 -.28575 -.20795 1.25345 223.7 -965.5)"/></g><path stroke="none" d="M216.8 992.9c-2.5 1.2-8.2-1.4-8 1.5.4 4.4 11-4.2 12.2 0 .4 1.6-4.5 1.4-3.8 2.8 1.1 2.5 5-4 7.3-2.7 1.8 1 2.5 6.6 1.9 6.3s-1.4-5.5.4-6.8c1.4-1 3.7 3.4 4.8 2 .8-1.1-2.2-2.2-2-3.5.5-2.7 7-2.2 6.2-4.7-.8-2.3-5 2.2-6.9.9-1.8-1.3 0-6.6-2.2-6.6-1.4 0 0 4-1.4 4.1-1.9.4-1.8-5.8-3.5-4.8-1.8 1 3.3 4.9 1.7 6.3-1.8 1.6-4.8-5.5-6.4-3.5-1 1.4 3.7 2.8 3 4.5-.6 1.4-3.9-1.1-4.2.4-.3 1.2 3 .7 3 2 .1 1-1.3 1.4-2 1.8" style="fill:#782121;fill-rule:evenodd;stroke:none;stroke-width:.88340753px;stroke-linecap:butt;stroke-linejoin:miter;stroke-opacity:1" transform="rotate(-2.2 -20509 2313.5)scale(1.04034 .96591)"/></g><g style="opacity:.5;fill:#ffd42a;fill-opacity:1;stroke:none;stroke-opacity:1;filter:url(#c)" transform="rotate(-4.5 -7601.7 -3536.8)scale(.81964)"><path d="M-121.8 857.9c12.8-5 34-10.8 42.7 1.8 7.3 5.5 14.8 21-1.8 14.2 2.6 4.6 15 20.8 1 19-11-5.7-9 3.5-4.1 8.4 4.8 10.5-17.9 5.7-14.2 17.4-6 12.5-16.6-1-10.7-9-6-6.1 9.6-7.3 8.2-15.5 2.7-6.8 8.4-14-4.5-16-7.7-.9-10.7-5.9-1.3-7.6 11.2-8.2-11.4-8-15.3-12.7M-241 973c-4.3 1-9.8 3.8-9.6 9 1.2 5.8.2 11.9.1 17.8 1.8 5.6 8.5 1.9 10.6-1.6 3.5-3.5 1.6 5 4.6 6.2 3 3.8 7.9 6.2 12.8 5.9 3.5 1.1 8.9-.5 6-5 1.2-4.5 6.5.4 7.4 3 3.7 4.4 5.9 10.7 11.8 12.8 2.7.6 5 3.5 6.8 4.5q.1-5.7 4.6-9.3c3.7-2.8 8.5-4 11.9-7.3 4.8-1.7 6.8-5.8 9.1-9.8 4-2.8 9.4-2.2 11.4-7.6 2.6-5.4 8.6-2.3 12.6-4.6.7-3-3.7-5.6-2.7-9.3-.4-5.4-5-1.8-6.2 1.1-2.7 4.7-9.3 5.1-11.4 10-.2 5-5.2 5.6-8 9a40 40 0 0 1-14.3 8c-4.7-1.3-3.7-11.3-7.1-10.5-2.5 5.5-9.9 4.6-15 4.8-6 .5-7-5.5-10.1-8.8-5-1.6-10.3 3.4-15.4.6-5.1-2.1-6.4-8-9.2-12.2-1.4-2.2-1.3-4.4 1.2-4.9q-.6-1-1.9-1.7m-75-76c-11.1 4.6-27.6 19-27.6 26.5 8.3-6.4 8.5-1.4.8 7.3 3.5 10 20.3 7.6 21.9 27 6.2 6.3 24.6 14.7 28.8 12.3-15.5-9.4-19.3-22.6 7-15.6-5.8-11.6-59.5-21.7-11.2-30.2-4.2-3.2-46.4-9.6-8-24.1.3-5.6-25.6-5.3-11.8-3.2m68.5-99.3c-12.4-2.6-23.7 5.4-35 3.3-12-4.8-23.2 3.6-16 15.5-.7 10.9-8.6 30 1.1 36.2 1.5-12.5 12.6-17.6 12-30.1 3.9-9.1 18.3 1.2 19.4-11.9 7.2-4.3 19.3 1.7 18.5-13m44.7-1.6c9.8-13.2 22.6-23.5 39.2-25.4 6.6-2.6 27.4-8 25.8.8-7.6 6.2-1.4 10.8 5 11.6 2.3 8.6-17.8 1.7-22.5-1.5-12.3.5-28.6 2.3-36 13-2.6 7.2-7.5 11.7-11.5 1.5" style="fill:#ffd42a;fill-opacity:1;fill-rule:evenodd;stroke:none;stroke-width:1px;stroke-linecap:butt;stroke-linejoin:miter;stroke-opacity:1"/></g></svg>