<svg xmlns="http://www.w3.org/2000/svg" xml:space="preserve" width="800" height="800" viewBox="0 0 512 512"><path d="M258.4 17.9a30 30 0 0 0-24.2-5A31 31 0 0 0 214 28.3c-77.5 140.7 37.8 255 39 256.2a9 9 0 0 0 12.8-.5l55.7-63.4 1-1.4c29-49.8 41.4-125.1-64.1-201.2" style="fill:#f8ebc8"/><path d="M258.9 197.9a81 81 0 0 0-51.5 18.4c19 41.8 45 67.6 45.6 68.1a9 9 0 0 0 12.8-.5l52.7-60a81 81 0 0 0-59.6-26" style="fill:#ffeb6e"/><path d="M259 221a58 58 0 0 0-40.6 16.6c16.7 29 34.1 46.4 34.6 46.8a9 9 0 0 0 12.8-.5l37.3-42.5a58 58 0 0 0-44.1-20.3" style="fill:#ffc32d"/><path d="M267.7 278.5c-1.2-1.1-116.5-115.5-39-256.1a31 31 0 0 1 8.4-9.7q-1.5 0-2.9.3A31 31 0 0 0 214 28.2c-77.5 140.7 37.8 255 39 256.2a9 9 0 0 0 12.8-.5l3.7-4.2q-1-.5-1.8-1.2" style="fill:#f5e1b9"/><path d="M508.5 185.3a31 31 0 0 0-20-15.6c-156-38.1-236.3 103-237.1 104.4a9 9 0 0 0 4 12.3l84 39.4q.9.4 2 .6l1.4.3q14.1 3.1 29.9 3.2c47.1 0 101.5-25 137.4-120 3-8 2.4-17-1.6-24.6" style="fill:#fff5dc"/><path d="M251.4 274.1a9 9 0 0 0 4 12.3l73.3 34.4a81 81 0 0 0-23.5-108.4 250 250 0 0 0-53.8 61.7" style="fill:#fff073"/><path d="M251.4 274.1a9 9 0 0 0 4 12.3l52.4 24.6a58 58 0 0 0-20.3-82.4 239 239 0 0 0-36.1 45.5" style="fill:#ffcd32"/><path d="M262.4 289.6c.8-1.4 81.2-142.6 237.1-104.5q6.1 1.6 11 5.3a30 30 0 0 0-22-20.7c-156-38.1-236.3 103-237.1 104.4a9 9 0 0 0 4 12.3l7 3.3z" style="fill:#f8ebc8"/><path d="M261.3 269.4a9 9 0 0 0-10.6 7.4l-13 93.5v2c5 53 36.8 117.8 160.4 126h2a30 30 0 0 0 21.1-8.7 31 31 0 0 0 9.1-23.7c-9-160.3-167.4-196.1-169-196.5" style="fill:#f8ebc8"/><path d="M336.6 303.3a250 250 0 0 0-75.3-33.9 9 9 0 0 0-10.6 7.4l-11.3 81.3a81.3 81.3 0 0 0 97.2-54.8" style="fill:#ffeb6e"/><path d="M316 291c-29.9-16-54-21.4-54.7-21.6a9 9 0 0 0-10.6 7.4l-8 58.4A58 58 0 0 0 316 291" style="fill:#ffc32d"/><path d="M261.3 269.4a9 9 0 0 0-10.6 7.4l-1.4 10.3h1.7c1.6.3 160 36.1 169 196.4q.3 3.8-.6 7.5l1.8-1.4a31 31 0 0 0 9.1-23.7c-9-160.3-167.4-196.1-169-196.5" style="fill:#f5e1b9"/><path d="M268 277.3a9 9 0 0 0-10.5-7.8l-105.8 22q-1.2.2-2.4.8c-41.6 22.5-85.5 72.8-58 184.5a30 30 0 0 0 29.6 23 31 31 0 0 0 11-2c150-57 136.3-219 136.2-220.5" style="fill:#f8ebc8"/><path d="M257.5 269.5 177.9 286a81.3 81.3 0 0 0 80.3 74.5c13-45 10-82.5 9.9-83.2a9 9 0 0 0-10.6-7.8" style="fill:#ffeb6e"/><path d="M264.5 271q-3.2-2.2-7-1.5l-56.7 11.7a58 58 0 0 0 63 56c6.4-34 4.3-59.3 4.3-60a9 9 0 0 0-3.6-6.2" style="fill:#ffc32d"/><path d="M268 277.3a9 9 0 0 0-10.5-7.8l-10.2 2q.7 1.4.9 2.8c.2 1.6 14 163.5-136.2 220.5a31 31 0 0 1-5.3 1.5 31 31 0 0 0 25.2 1.4c150-57 136.3-218.8 136.2-220.4" style="fill:#f5e1b9"/><path d="M259.5 286.9h-.4q-3.6 0-6.1-2.5c-.7-.7-45.8-45.4-60.9-113-38.3-25.4-96-36.2-179 20a30 30 0 0 0-12.8 21 31 31 0 0 0 7.3 24.3 200 200 0 0 0 155.7 71.6 252 252 0 0 0 98.3-20.2q2.6-1.4 3.8-3.9a9 9 0 0 1-6 2.7" style="fill:#fff5dc"/><path d="M259.1 287q-3.6-.1-6.1-2.6a250 250 0 0 1-45.6-68 81 81 0 0 0-24.7 91c45.4-3.6 78.2-19 78.9-19.3q2.6-1.4 3.8-3.9a9 9 0 0 1-6.3 2.7" style="fill:#fff073"/><path d="M265.4 284.2a9 9 0 0 1-6 2.7h-.3q-3.6 0-6.1-2.5c-.5-.4-17.8-17.7-34.6-46.7a58 58 0 0 0-12 66.7c28.5-5 48.8-13.5 54-15.7l.1-.1 1.1-.5a9 9 0 0 0 3.8-3.9" style="fill:#ffcd32"/><path d="m262.4 268.7-.8.6c-.8.4-43 20.2-98.3 20.2A200 200 0 0 1 7.6 218q-4.2-4.9-6-10.8a30 30 0 0 0 6 29.6 200 200 0 0 0 155.7 71.6 252 252 0 0 0 98.3-20.2 9 9 0 0 0 3.8-12.5z" style="fill:#f8ebc8"/><circle cx="258.9" cy="279.2" r="19.9" style="fill:#ffaa28"/></svg>