<?xml version="1.0" standalone="no"?>
<!DOCTYPE svg PUBLIC "-//W3C//DTD SVG 20010904//EN"
 "http://www.w3.org/TR/2001/REC-SVG-20010904/DTD/svg10.dtd">
<svg version="1.0" xmlns="http://www.w3.org/2000/svg"
 width="1280.000000pt" height="1006.000000pt" viewBox="0 0 1280.000000 1006.000000"
 preserveAspectRatio="xMidYMid meet">
<metadata>
Created by potrace 1.15, written by Peter Selinger 2001-2017
</metadata>
<g transform="translate(0.000000,1006.000000) scale(0.100000,-0.100000)"
fill="#ff5722" stroke="none">
<path d="M7642 10043 c-17 -8 -70 -60 -117 -114 -105 -121 -204 -219 -271
-270 -46 -35 -53 -38 -80 -27 -59 22 -96 4 -179 -84 -124 -131 -339 -429 -405
-559 -13 -24 -36 -63 -53 -86 -30 -43 -31 -73 -2 -73 9 0 24 19 36 48 80 193
368 592 485 672 68 47 102 39 176 -41 140 -150 248 -371 358 -734 37 -120 89
-237 104 -232 7 2 11 31 10 73 -2 189 -206 655 -399 910 -21 29 152 241 308
375 80 70 109 74 178 31 85 -54 184 -185 291 -382 77 -141 138 -180 138 -87 0
51 -29 102 -153 276 -97 135 -205 253 -266 293 -52 32 -108 37 -159 11z"/>
<path d="M5872 9919 c-51 -15 -119 -90 -156 -172 -18 -40 -73 -182 -121 -317
-49 -135 -90 -247 -92 -250 -2 -2 -45 37 -94 88 -70 70 -120 109 -213 166
-200 122 -243 137 -270 94 -18 -29 4 -49 110 -103 157 -79 219 -129 361 -292
l63 -71 -51 -124 c-28 -67 -80 -187 -116 -266 -48 -105 -64 -151 -60 -170 5
-25 0 -30 -46 -55 -67 -35 -151 -108 -184 -160 -51 -80 -109 -293 -120 -439
-3 -43 -9 -78 -12 -78 -3 0 -17 16 -30 36 -39 57 -154 157 -217 189 -45 23
-71 30 -109 28 -45 -1 -54 -5 -87 -43 -50 -56 -54 -102 -34 -348 17 -208 23
-754 8 -736 -32 36 -260 579 -249 591 3 2 17 -27 33 -64 32 -79 40 -91 53 -77
6 5 -16 68 -60 169 -69 159 -69 161 -114 415 -70 395 -81 503 -66 694 12 159
25 240 44 264 46 58 349 -115 550 -315 76 -76 129 -139 259 -313 58 -78 78
-95 85 -73 6 16 -222 309 -307 394 -47 47 -147 133 -222 191 -115 88 -135 107
-124 119 8 8 23 46 34 84 13 41 49 116 88 180 37 61 74 122 83 137 18 30 8 49
-14 27 -8 -8 -52 -73 -97 -146 -46 -72 -107 -157 -136 -187 -52 -54 -54 -56
-80 -42 -57 29 -103 36 -137 21 -41 -20 -61 -57 -76 -135 -22 -123 24 -602 90
-940 11 -52 18 -96 16 -98 -1 -1 -19 24 -40 55 -156 236 -446 564 -665 752
-74 64 -146 124 -158 133 -22 15 -23 18 -9 40 8 12 20 70 27 128 25 226 57
316 121 346 101 45 231 -25 420 -226 62 -66 118 -120 126 -120 44 0 -32 105
-163 221 -168 149 -280 209 -396 209 -58 0 -63 -2 -98 -39 -46 -48 -61 -103
-88 -324 -11 -87 -23 -161 -25 -164 -3 -2 -24 8 -48 24 -34 23 -53 28 -104 28
-52 0 -68 -5 -103 -28 -45 -31 -55 -52 -97 -195 -26 -92 -27 -94 -15 -220 17
-180 76 -556 105 -670 13 -53 53 -178 88 -277 35 -99 88 -252 116 -340 62
-190 119 -321 217 -505 67 -124 286 -570 281 -570 -2 0 -61 20 -132 44 -121
41 -290 108 -429 171 -67 30 -113 28 -147 -6 -30 -30 -23 -74 25 -173 24 -50
72 -158 106 -241 93 -223 137 -305 279 -517 161 -242 250 -359 405 -540 216
-251 412 -427 621 -559 212 -133 383 -211 799 -365 189 -70 201 -63 -159 -93
-901 -75 -1462 -65 -2120 40 -319 51 -637 130 -955 236 -480 162 -944 421
-1424 796 -110 87 -151 132 -166 186 -19 67 -28 61 135 88 242 39 784 8 1190
-68 176 -33 295 -63 643 -163 180 -52 410 -115 513 -140 102 -24 212 -54 244
-65 33 -12 63 -21 67 -21 13 0 9 27 -4 33 -7 3 -99 41 -203 85 -232 97 -883
299 -1150 357 -106 23 -627 91 -885 115 -190 18 -636 28 -690 16 -91 -22 -129
-128 -96 -270 34 -143 92 -224 234 -325 118 -83 211 -135 497 -279 348 -174
581 -273 919 -388 931 -317 1541 -407 2846 -421 464 -4 588 -3 755 11 110 9
214 19 230 22 17 3 -16 -13 -73 -35 -321 -125 -754 -375 -854 -493 -202 -237
-289 -499 -424 -1278 -85 -489 -110 -612 -180 -862 -45 -163 -84 -269 -133
-366 -16 -32 -46 -102 -66 -157 -20 -55 -52 -125 -70 -155 -39 -66 -47 -91
-47 -141 1 -48 17 -72 65 -100 71 -39 103 -32 272 61 108 59 243 167 375 300
79 78 256 232 325 282 28 20 119 79 204 133 85 53 182 117 215 143 84 65 306
282 440 432 281 314 420 521 619 920 121 241 160 366 173 543 6 81 5 84 -46
217 -53 139 -64 160 -85 160 -14 0 -35 -42 -35 -70 0 -44 -23 -122 -47 -157
-14 -20 -41 -82 -60 -137 -66 -193 -205 -532 -272 -666 -91 -180 -136 -252
-246 -391 -194 -243 -330 -373 -547 -524 -505 -351 -625 -444 -820 -633 l-127
-124 20 64 c106 344 105 338 230 1143 149 965 274 1206 747 1444 73 37 121 53
317 106 259 71 356 87 458 80 103 -8 128 2 158 68 44 97 9 237 -69 273 -32 16
-42 27 -54 65 l-14 46 36 -15 c19 -8 52 -23 72 -33 45 -23 48 -23 48 -5 0 8
-15 25 -32 37 -39 27 -161 135 -271 239 -264 249 -490 667 -616 1140 -74 275
-87 636 -31 855 25 99 110 276 146 304 27 21 74 29 74 12 0 -6 28 -23 63 -40
148 -71 338 -207 594 -423 267 -227 375 -362 513 -641 109 -222 169 -393 177
-510 5 -69 1 -100 -22 -191 -35 -142 -80 -239 -161 -347 -74 -100 -91 -154
-59 -189 24 -27 84 -26 118 1 37 28 176 210 226 296 53 89 85 182 101 294 23
154 -8 284 -132 554 -171 374 -346 600 -753 971 l-204 187 26 49 c35 64 125
162 177 193 99 58 259 68 394 24 65 -22 152 -80 214 -145 l37 -39 -76 -110
c-42 -61 -103 -146 -136 -190 -68 -90 -90 -135 -85 -173 4 -33 45 -50 85 -36
24 8 30 19 45 79 24 92 78 200 183 365 111 173 150 224 260 338 98 103 145
135 235 163 73 23 129 15 221 -31 104 -53 268 -202 325 -296 8 -13 15 -16 23
-9 7 8 -9 43 -55 120 -78 130 -99 156 -173 214 -146 114 -255 133 -395 68 -97
-45 -185 -131 -312 -304 -48 -65 -91 -122 -95 -127 -5 -5 -27 8 -53 32 -77 71
-176 130 -256 151 -81 23 -257 29 -304 11 -14 -5 -27 -6 -30 -2 -3 5 0 98 5
208 7 136 7 208 0 226 -23 60 -111 40 -111 -25 0 -50 37 -276 54 -332 23 -74
21 -91 -14 -105 -58 -24 -180 -165 -218 -253 l-12 -27 -97 74 c-113 85 -200
126 -271 126 -46 0 -54 -4 -113 -57 -83 -74 -93 -87 -139 -185 -98 -210 -134
-399 -127 -668 3 -156 8 -197 46 -380 52 -256 123 -471 228 -696 145 -308 244
-442 471 -634 l101 -85 -37 -8 c-47 -10 -302 16 -477 48 -365 67 -623 165
-930 350 -270 162 -450 324 -716 641 -363 434 -537 765 -608 1159 -6 33 -14
70 -17 81 -6 21 -3 21 128 -12 498 -127 591 -164 898 -352 160 -99 352 -239
524 -384 55 -45 142 -118 195 -161 53 -43 131 -113 173 -155 53 -51 81 -73 88
-66 16 16 -211 286 -311 370 -185 154 -252 204 -459 336 -224 143 -319 198
-455 265 -71 34 -124 63 -117 63 23 0 52 40 52 71 0 17 -27 98 -60 180 -92
228 -125 360 -185 734 -26 162 -51 432 -42 442 10 10 104 -65 172 -139 125
-135 318 -402 450 -623 128 -214 197 -367 265 -590 70 -233 131 -397 148 -403
17 -5 15 27 -8 149 -37 201 -164 541 -271 726 -65 114 -313 490 -388 588 -88
116 -279 341 -335 393 -49 46 -61 53 -84 47 -36 -9 -69 -40 -75 -72 -6 -32 55
-398 126 -758 74 -369 94 -484 86 -479 -18 11 -178 290 -258 452 -127 253
-251 641 -331 1033 -40 193 -49 304 -49 574 -1 208 1 224 24 289 13 38 28 73
33 78 25 25 197 -48 326 -140 104 -73 532 -499 613 -609 33 -46 95 -140 136
-210 60 -102 80 -146 97 -215 12 -48 55 -185 96 -304 41 -119 84 -254 95 -299
32 -128 70 -173 111 -132 7 8 27 16 44 20 l31 6 -15 -72 c-20 -95 -19 -339 2
-481 17 -115 85 -440 135 -646 17 -68 31 -140 31 -158 0 -46 15 -69 49 -77 38
-8 89 17 97 49 4 17 -13 60 -59 152 -90 180 -133 302 -177 499 -81 361 -75
647 19 904 49 135 89 162 176 122 82 -38 276 -234 395 -400 71 -98 100 -128
100 -101 0 15 -89 146 -150 219 -27 33 -108 123 -180 200 -174 186 -226 211
-312 150 -40 -29 -63 -83 -83 -194 -19 -103 -25 -128 -31 -122 -3 2 -12 40
-20 83 -13 62 -17 173 -21 517 l-5 437 36 36 c33 33 40 36 77 30 50 -8 120
-43 176 -88 42 -33 143 -152 143 -168 0 -4 15 -30 33 -58 67 -99 271 -529 337
-709 22 -61 32 -73 45 -54 14 24 -181 468 -303 689 l-49 90 24 18 c24 19 25
20 13 83 -22 124 19 354 85 467 36 62 101 115 197 162 65 32 98 42 135 42 119
-1 258 -115 348 -286 39 -74 63 -96 57 -52 -6 48 -92 209 -138 258 -64 69
-157 137 -205 152 -39 11 -40 13 -35 47 3 20 8 61 12 91 16 142 51 247 195
587 119 280 220 480 265 524 l32 31 33 -17 c48 -25 150 -109 250 -206 110
-107 184 -220 270 -413 37 -83 73 -152 80 -155 59 -19 -199 487 -352 691 -63
85 -167 192 -204 210 -43 22 -85 28 -123 17z m-222 -6258 c-8 -5 -26 -12 -40
-15 -24 -7 -24 -6 -6 8 11 9 29 16 40 16 17 -1 18 -2 6 -9z"/>
<path d="M8434 9698 c-59 -40 -114 -117 -304 -433 -76 -126 -168 -272 -204
-323 -65 -94 -72 -122 -32 -122 17 0 30 16 60 78 58 117 331 567 395 650 67
87 133 127 181 110 63 -21 173 -178 210 -296 55 -178 89 -429 90 -677 l2 -190
-36 -32 c-41 -38 -45 -57 -16 -73 27 -14 37 -7 62 47 25 53 195 227 255 260
l40 23 -4 -23 c-3 -13 8 -83 23 -157 25 -122 27 -155 27 -340 0 -234 -22 -465
-58 -615 -29 -121 -108 -363 -163 -500 -56 -142 -82 -230 -82 -284 0 -26 -7
-73 -15 -104 -18 -68 -18 -77 -5 -77 5 0 21 24 36 53 14 28 43 75 64 103 47
63 52 74 155 359 156 435 204 655 221 1030 7 145 -8 389 -27 460 -25 92 -59
151 -100 175 -77 43 -119 15 -265 -175 l-69 -90 -7 180 c-4 99 -14 234 -23
300 -22 164 -90 435 -129 520 -54 115 -140 195 -209 195 -14 0 -47 -15 -73
-32z"/>
<path d="M10690 8701 c-93 -30 -130 -66 -260 -251 -41 -58 -101 -141 -133
-184 -134 -177 -169 -236 -138 -236 4 0 34 39 66 86 119 176 261 300 408 358
97 38 117 29 143 -70 41 -152 -19 -537 -161 -1039 -149 -526 -239 -718 -568
-1200 -156 -228 -285 -402 -467 -630 -75 -93 -192 -248 -261 -343 -68 -96
-164 -219 -214 -273 -127 -140 -164 -189 -176 -230 -15 -49 1 -79 41 -79 47 0
104 60 215 230 56 85 148 214 205 285 335 425 652 875 782 1110 379 686 468
888 588 1345 28 107 69 256 90 330 96 338 126 525 101 615 -15 54 -78 136
-121 157 -43 21 -107 30 -140 19z"/>
<path d="M7759 8557 c-178 -124 -587 -577 -833 -923 l-49 -69 -22 80 c-34 123
-74 223 -178 435 -137 282 -240 413 -363 460 -83 32 -159 31 -215 -2 -97 -57
-172 -163 -228 -323 -41 -120 -103 -404 -126 -575 -23 -184 -22 -204 19 -198
20 3 21 10 23 123 2 199 33 371 103 570 88 248 220 386 340 352 82 -22 197
-133 278 -269 92 -155 121 -213 226 -456 77 -180 105 -254 104 -284 0 -32 5
-45 31 -69 l32 -29 35 27 c27 20 52 61 104 169 130 270 381 569 650 775 164
126 166 127 183 92 36 -70 57 -198 68 -408 11 -225 15 -255 28 -255 17 0 18
28 5 247 -17 309 -49 499 -90 544 -26 28 -72 23 -125 -14z"/>
<path d="M8307 8030 c-51 -44 -94 -135 -127 -266 -47 -183 -41 -349 11 -332 7
2 25 67 40 144 15 76 35 164 44 194 19 62 73 157 93 165 26 10 88 -53 127
-126 21 -40 54 -120 74 -178 35 -99 61 -139 61 -92 0 21 -139 401 -165 452
-39 75 -100 90 -158 39z"/>
<path d="M7852 7663 c-5 -10 -12 -31 -16 -46 -7 -28 -46 -431 -46 -475 l0 -24
-32 28 c-18 15 -47 33 -65 41 -42 17 -186 18 -181 1 3 -7 18 -15 34 -19 63
-12 127 -53 166 -106 21 -29 45 -53 53 -53 11 0 15 -22 17 -107 2 -66 7 -108
14 -110 8 -3 13 56 17 189 9 310 43 504 102 590 14 20 25 45 25 56 0 43 -70
70 -88 35z"/>
<path d="M7988 7618 c-16 -12 -16 -16 5 -60 12 -27 27 -46 32 -45 6 2 10 28
10 58 0 58 -14 72 -47 47z"/>
<path d="M9600 7605 c-25 -17 -57 -63 -105 -151 -99 -178 -271 -446 -534 -833
-126 -185 -243 -358 -261 -386 -32 -50 -32 -50 -26 -15 82 440 12 1064 -137
1218 -18 19 -51 45 -75 59 -50 29 -103 27 -159 -8 -44 -27 -179 -181 -240
-272 -46 -70 -324 -621 -425 -842 -156 -343 -312 -791 -452 -1300 -75 -272
-116 -541 -116 -755 0 -151 7 -213 24 -207 7 2 11 47 12 128 2 185 51 525 115
804 121 527 309 1042 579 1590 142 288 231 427 355 552 88 89 179 148 194 126
3 -5 21 -30 39 -56 84 -120 152 -436 152 -707 0 -162 -11 -276 -46 -480 -35
-206 -43 -239 -73 -293 -21 -38 -23 -49 -12 -56 16 -10 13 -23 -41 -216 -91
-326 -184 -578 -295 -798 -94 -185 -171 -297 -282 -408 -106 -105 -161 -138
-276 -165 -106 -24 -122 -32 -141 -71 -13 -29 -14 -43 -6 -69 10 -33 9 -34
-26 -44 -21 -5 -71 -16 -112 -25 -110 -23 -220 -60 -323 -110 -96 -47 -195
-69 -422 -96 -114 -13 -145 -23 -145 -43 0 -35 24 -38 182 -16 84 11 187 27
228 35 41 8 129 17 195 19 115 5 228 23 289 46 16 6 128 33 250 61 121 28 343
82 492 120 149 37 297 71 328 75 54 7 56 6 56 -18 0 -13 -23 -61 -51 -106 -97
-159 -329 -323 -614 -435 -301 -118 -702 -109 -1244 29 -164 42 -232 44 -266
9 -38 -37 -28 -81 26 -124 43 -33 94 -48 329 -95 206 -41 340 -58 655 -82 l89
-7 89 -78 c49 -42 135 -133 191 -202 150 -184 419 -509 509 -615 114 -134 306
-291 433 -355 243 -123 504 -148 984 -96 446 48 981 183 1588 401 331 118 580
201 812 269 113 34 225 72 250 85 87 48 99 63 121 154 11 46 16 87 12 91 -19
18 -141 61 -171 60 l-34 0 18 27 c13 19 18 45 17 92 -1 160 -88 248 -410 412
-207 106 -292 144 -738 335 -275 117 -691 270 -890 325 -60 17 -177 41 -260
53 l-150 21 45 16 c25 9 119 43 210 77 91 33 300 108 464 166 332 118 571 213
841 333 99 44 241 105 315 137 474 200 872 439 1091 655 72 71 94 101 133 179
35 70 46 104 46 140 0 108 -65 161 -209 168 -129 7 -1170 -125 -1753 -222
-147 -25 -269 -45 -272 -45 -3 0 -6 -9 -6 -20 0 -13 7 -20 19 -20 10 0 169 25
352 55 549 89 845 125 1179 141 234 11 489 -24 498 -69 11 -55 -234 -304 -458
-467 -358 -258 -672 -459 -855 -546 -457 -217 -1234 -498 -1575 -569 -157 -33
-350 -57 -485 -61 -301 -9 -401 -18 -424 -38 -31 -28 -29 -105 2 -134 21 -20
30 -21 119 -15 95 6 97 5 129 -22 29 -24 38 -26 74 -19 77 16 432 10 530 -9
199 -39 544 -144 726 -221 388 -164 586 -257 773 -363 110 -62 340 -238 455
-348 53 -51 91 -81 88 -70 -17 59 -17 82 -3 94 23 20 34 6 57 -72 32 -113 29
-109 104 -132 l68 -20 -204 -107 c-707 -371 -1218 -555 -1759 -632 -285 -41
-708 -60 -903 -41 -350 36 -626 171 -892 439 -66 67 -188 191 -270 276 -98
102 -187 183 -255 233 -100 73 -200 163 -200 179 0 5 20 8 44 8 68 0 200 52
426 166 520 263 703 450 688 706 -8 127 -68 193 -168 186 -42 -3 -47 -1 -37
12 7 8 84 96 172 195 188 212 251 291 413 521 184 262 320 500 372 649 39 110
110 338 110 352 0 7 -6 13 -13 13 -7 0 -23 -34 -37 -77 -34 -109 -123 -280
-284 -548 -220 -365 -328 -514 -529 -733 -179 -196 -297 -297 -489 -417 -17
-11 -36 -33 -41 -50 -6 -16 -15 -33 -21 -38 -9 -6 -164 -58 -246 -82 -20 -6
-14 4 32 52 167 176 361 563 532 1061 61 179 198 632 245 810 34 131 34 131
221 407 286 424 498 743 581 875 88 141 195 268 212 251 5 -5 11 -66 14 -135
5 -99 2 -144 -13 -216 -16 -82 -17 -94 -3 -118 19 -34 46 -34 71 -2 20 28 34
140 45 363 6 135 -8 195 -53 216 -37 16 -55 14 -94 -14z"/>
<path d="M6193 7445 c-55 -23 -67 -62 -54 -171 6 -51 11 -119 11 -152 0 -56
33 -241 51 -290 5 -13 13 -21 18 -18 12 8 66 172 85 256 8 36 20 115 26 175
15 134 4 176 -54 200 -42 18 -43 18 -83 0z"/>
<path d="M6713 7286 l-28 -24 5 -119 c3 -65 5 -200 4 -300 0 -142 2 -183 12
-183 7 0 16 17 20 38 4 20 22 80 41 132 97 269 126 384 108 427 -23 55 -113
71 -162 29z"/>
<path d="M7321 7132 c-90 -92 -128 -149 -114 -170 5 -9 22 -18 36 -20 22 -3
27 2 33 25 12 51 46 107 95 160 27 28 49 57 49 62 0 27 -38 5 -99 -57z"/>
<path d="M6481 7096 c-18 -21 -28 -380 -12 -390 7 -5 14 -6 17 -3 8 8 41 155
60 269 15 88 16 109 5 122 -17 20 -55 21 -70 2z"/>
<path d="M5606 7007 c-14 -14 -28 -40 -31 -59 -11 -56 22 -215 60 -293 18 -38
35 -78 37 -88 5 -28 23 -21 26 10 1 15 10 57 18 93 28 113 -11 321 -65 350
-18 9 -25 7 -45 -13z"/>
</g>
</svg>
