<svg xmlns="http://www.w3.org/2000/svg" width="611pt" height="763pt" viewBox="0 0 611 763"><defs><filter id="a" color-interpolation-filters="sRGB"><feColorMatrix in="SourceGraphic" result="colormatrix" values="1 0 0 0 0 0 1 0 0 0 0 0 1 0 0 -0.2125 -0.7154 -0.0721 1 0"/><feComposite in="SourceGraphic" in2="colormatrix" k2="1" operator="arithmetic" result="composite"/><feGaussianBlur result="blur1" stdDeviation="0.1 0.01"/><feGaussianBlur in="composite" result="blur2" stdDeviation="0.01 0.1"/><feBlend in="blur2" in2="blur1" mode="darken" result="blend"/></filter></defs><g filter="url(#a)"><path fill="#f51402" d="M306.3 0h3.5q7.6 3.7 15 7.6c5.2-8.1 17-8.4 22.2-.4 7.2-1.2 13.5 2 19 6-1.2 4.7 11 4.5 5 1.8-5.4-1.6 6.3-3.7 3.7 1.7-3.6 1.2-11.8 7.2-7 0-8-.7 2.6 10-3.3 5.8-5.8-5-2.3 6-4.5 6.5 11.5-3.6-4.3 5.8-2-2-5.8 0-1 6.7-3.3 10.3 1.8 4 15.8-4.3 11.9 2.8 4 2.8-5.3 5-2.1 1.1 2.5-4.8-4.6 1.5-7.2-.7-12.7-2.5 9.2 4.3.2 3.9-6.4.2 11.5 3.6-.6 3-7 2 13 6-.2 4-4.7.4 3.2 2.8 5.3 2.8-5.7 3.4-1.6 4.4-6.7 9.7 14.3 2.8-2.9-.8 2.3 6-5.7 3.7 4.1 10.6-.7 14.7 2 5.5-.5 11 .6 15.5 2 3.4-5.1 10.1 1.7 9.3-5.5 3.6.8 11-3.5 14.8 1.4-.9 2 9.7-1 7.2 4.6 4.5-9.2 6-1 7-3.8 6.7.5 5.3 5.1 9 6-4.7-9.5-6.2 1-8.4 1.5-6 4.4-8.8-.3-15 7.8 1 .1-9.4 5.3-10.4 6.4 1-3.3-1.5 1.9-4.1 6-3.5-4.2-14.4 2.4-9.6 4.8-4.7-8.1-10 1.2-8.4-9-3.8 4.8-1.2-.5-6.4-6-1 2.8-1.8 1.5-2.4-11.9-2.2 7.4-1.4-1-5 2.4-1.5 2.5-2.7 0-4.6 7.9 2.3-4.6-10.6 3.7-6.1-6.5-2.8 4.9-12.3-3.6-13.2 3.6-.8 1.4-2.1-.8-3.3 9.5 2.4 3.2-11 6-11.6 1-8 1.5 3.3 5 2.9-7 1.1 5.3 5.5-1.6 6 2.3 1.3-1.5 9.9 4.8 9.8-3.9 1.2-4.2 4.9.2 2.3-2.5 2.5-4 5.2.7 3-7.3 16.4.4 35.1-3.4 52 4.5-5.2 6.3 1.8.1 1.4-.9 6.7 1.6 12.7-3.5 18.6 5.7-.1-1.6 5.8 3 6-8 .5-2.4 5.9 2.6 5.9.3-5 5.2-5.7-.7-9.1 3-1.5 9.7-8.8 4.8-12.9 5.8-3.5-5.4-1.7 2.7-5.4-11.7 2.2 6.4-9-2.6-11.8-.4-1.8 3.6-.9 5-.7 2-2.7-3.5-6.3 1.3-6.9-8-1.2 3.9-2.5-2.5-4.4-4.8-1.5 8-.4 2.2-2.1-6.7-1.6 6-2.6.7-4.8-4.4-1 3.8-4.5 1.6-7.3-2.5-3.6 5.4-8.6-1.4-10.6 6.6-2-8.5-5.6 1-6.8-4.2-8.6 1.5-.4 3-6.5-3.9-3-6.6-9.8.4-10.4 2.2-6.3-.1-3.1-7-2.3-1.3-6 5.2-4 9-4.7-5-2-2.5-6-.3-9-7 3-2.5-1-8.2-2-.7-5.2 6.7 3.4 3.4-2-2.5-2.6 1.6-6.3.6-1.6.7.6 11.8-7.6 2.5-7.3-6.4 0-2.4-12-10.8-8.2-4.6-1.4-14 9.4-9.6.6 15.6-12.1 24.5 13.7 39.1 6 13.4-3 10.5 21.2 24 19 26.9-5 54 10.1 63.4 36.3.9 8.5 14.3 1.4 14.3 10.7-1.7 6-5.8 11.8-10.6 14.8 2.3 6-5.7 5.2-6.6 4.5 9.2 8.6-8-2.8 1.4 6-6.1 3-12.3 9.6-18.4 15 7.5-.6 11.1-12.6 13-2.8-6.3 1.8-16.1 9.3-14.8 14.6a92 92 0 0 1 23.5-16.8c-4.7-8.2 10.2-2.6 13-5-1.9-6.8 9-7.6 7-13.5 3 3.3 5.4-.8 7.4-2.9 13.5 6.4 11.5 26.2 21.1 36.3 9.8 3.3 21.9 1.8 30 9.4a51 51 0 0 0 6 24.7c-2.4 4.5-5.9-5-6-7.9-5.4-1.7-11.2 2.1-16.5-.5 5.6 8.8-10.7-2.5-9.4 7-.9 5.4-.5-3.7-4 0-4 5.3-12.7 2-14.1 6.4-3.1 10.6-15.4-4.5-17.2 8.8-3.6-2.6-6-4-3 1.4-4.8-10.2-9 7.3-15.1 0-5.8 6.2-17.1 3-8.6 11.5-14-4.6-6.7 11-.5 13.8 7.7-5.8 14.4-7.8 23.3-11.8-1-4.3 4.5 2.7 7.9-2.4 13.6-5.1 21-9 32.6-12.2 2.5-5 4.2 5.8 4.9.4-3.3-13 3.3 6.2 1.7-1.7.4.8 10.7-5.1 4.8 2.4 2.2 5.7 9.7-1.7 11.7 4 .2 3-3.5 4.7-5.9 3-11.6-2.4-21 3.1-31.8 6.3 3.9 4.1-2.3.5-5 1.8-2.7 4.6-10.8 4.7-15 9.1 3-4.4-.2-3.7-2 0-7.8 2-14.8 8.3-19.7 15 11.8-7.6 21.3-8.6 34.5-14.2-2 3.5.8 11.3-4.5 4.7-3.4 8.7-19.6 7.6-25.6 18.4-.7-5.7-5.1-.2-8.4-.7 3.1 5.5-7-.8-3.1 5.4-11.6 5-21.7 14.7-31.1 23.5-7.1-7 1-15.4-2.2-24 2.3-3 3.6 2.3 3.5 4.2 3.1-1 6.2-6.1.7-3.8.7-3.1 4.4-4.3 6.5-1.7-1-3 2-7 3.5-2.3-.7-2.7-1.9-6 2.1-4.2-3.2-8.3-10.9 3.6-15 1.5-2-8.5 10.2-1.9 9.6-9.6 5.1 1.7 5-12.2 2.1-3.8-1.8-2.9-9.4-4.4-5.3.5-4-4.6-8 .5-10-4.4-2.6 9.7-10.5-8.2-9.7.3-7.6-2.2-10-12.2-17.4-9.1 1.6-7.5-7.1-10.7-5.8-18.1.7-4.4-3.5-.6-6-1.9.4-11-17.7-.7-13.1-14.6-9.3 3.6-11.5-9.6-20.4-5.7-5 1.6-5.2-5.1-7.9-7.5 7.7 3.2 3-8.3-2.5-4.3-4.2 2.3-7 17-10 6.4-6-2.1-9.4 6-11.3-3.6 2 5.1-4 3-4.8-.4-2.6 2-8.9 9.2-8.2 1.6-7.9 8.1-8.3-8.5-7-14.1-2.1 2.7-.8 10.9-6.7 8.4 3 .6 5.9 7.7 2.2 7.1-5.8-7.5-4.7 4.6-8.8 6 0-2.6.6-5.1.3-7.7-5-.5-.3 8-7 7.4-1.3-11.6-.4-25-2.4-35.8-4.4 9-4 20.3-8.5 27.5 4-40.8-11.6-80-16.1-120-3.3-5.8-2.4-14.6-7.6-18.9 8.5 44.7 13.3 89 19.1 133.8-11.9-2.9-2.7 7.9-14.6 5.9 5 1.2-3 7.5-5.5 14 .6-16 5.1-31.7 3.2-47.8C288.3 85 269.6 51.8 266 19.2c-11.3 16.2 6 37 7.2 55.6 7.3 32 5.4 65 3.8 97.5-2.5-1.8-4.5-4.6-8-4.5 9-2 4.6-2.5-.1-6.2 4.9-44-2.7-89-20.7-129.8-1.4-4.8-4-1.9-2.2 1.3 15.6 39.2 14.8 82 20 123.3-1 4 .4 8.1-.9 12l-1.3 1-.8-5a243 243 0 0 0-26.3-115.1c-1.8.3 0 3.3.2 4.7 13.8 34.3 19.4 71.2 24.2 107.6l-.9 2c-6.6.5-13 4.8-9.2 12.6-6.7-4.9-6 .3-8 7 .4-7.7-9-17.2-8-5.3-3.2-10.1-15.6-2.7-7 3.6-5.1-4.4-13.5 4.2-5.7 6.5-2.6 3.6-3.4 8.3 2.7 7.5-5 .8-1.5 8.2-6 2.4 1.6 3.2-.7 4.7-3.4 5.7-2.7 4.6 8.9 6.8.4 7-3.2 6.9-8-1-6.3-5.8-2-28.8 11-55.4 19.7-82.2.9-1.3-.2-4.2-2-3.3-12.8 25.6-23.6 53.8-22.3 82.6-3.1 2.5-4.1-1.2-6.5-.4 2.2-19-1-43.9 12.9-58.1 5.4-16.9 18.8-31.4 18.3-49.9-3.8-6.5-1 9.2-6 7 .1-4.1 1.5-11-4.7-10.4-11.1 34.4-26.7 68.6-26 105.5-3.4 2.9-8.6.8-8-4-5.2-41 21.7-73.6 32-110.5 3.7-5 .9-14-5-14.8a424 424 0 0 1-21.1 73.1c-1 .4-2.9-.7-3.2.7a173 173 0 0 0-9.1 60c-.3 2.2-.8 4.2-2.8 1.7-4-35.5 9.4-69.4 16.3-103.7-8.2 8.4-7.2 26.8-17 33.6 2.8-12.1 5.7-24.3 7-36.8 2-15.5 15-27 16-42.9 3-.7 4.9 2.5 7.7 2.5 8.3-22.2 35.3-28 48.2-46.6 17.4-1 34.1.2 52.2-7.9M348 14.8c-3.5 12.3-6.2 25-9.8 37.2 6.8 31.2 3.5 64 6.6 95.1 7.3-42.7 12.5-89.5 3.2-132.3M435.2 37c-3 14-1.8 26.3-14.7 40.5-3.6 12.2-10.9 19.9-16.6 35-5.8-1.6-4.6 4.4-1 6.5-3.4-2.8-8.4 1.4-4.4 3.7 12.9 2.1-5.3-2.8 2.3-2.4 3.4-1.8 8.4 4.8 9.5-1.3-3 3.4-4.2 0-4-3.1 7-2 7.1 1.7 11.6 5.7.5-5.4 11.9-1.7 7.6-8.2 1.6 1 14.5-19.3.7-17 6-1.6 10.3-1.8 4-5.3 4.9 0 5.5-2 2-4.4 4.9 1-2.5-6.4 5.4-3.6 2.7-6-6.9-6.6 4.3-5-6-2.8 6.2-6.1-.1-7-6.2 0 6.2-3-1.6-5.5 2.7 4.8-4.3 3.7-6.2 1.4 10.2-2.7 13-7.2 15.6-16.7-5.5-3.5 5.8-3.2.7-5.7 4.8-1.5-2.6-4.6 3.6-6.8-4.1-.1-13.5 4-18.7-.8m34.3 5.6c-1.8 2.1 5.5 5.3.3 6.2 11.5 6.4-10-2.3-3 5.2-1.8 1.2-10.4 12.2-7.8 18a72 72 0 0 0-18.3 30.1c12.8-.5 4.7-8.1 15.1-15.2-3.8-2.7 9.3-5.7 2.7-8.2 1.2-4.4 8.2-3.4 5.7-9-8-3.8 9-1.2 6.6-10.9 9.8.3 7.3-17.6-1.3-16.2m10.8 1.6c-7.1.7 2.2 4.7 0 0M469.8 49c1.6-5.6-5.8.5 0 0m-251.6-1.6c.4 9.3 21.7 32.7 12.5 43 12.7 14.8 9.5 38.6 13.2 57.8 2.2 3.2-2.1 12 4 11.7.3-38.3-5.3-82.3-29.7-112.5m215.2 64.5c5.2 3.8-8.6 4.2-2 8.7 1.3-4.3 17.5-11.2 9.3-18.3-6 2-3.6 8-7.3 9.6M313.1 121c-.4 6.7 6.7-.4 0 0m215.3 12.5c-12.5 7.3-24.2 16.8-37.3 23.4-10.3-8.2-18.3 9.4-26 11.4-1.6 6-10.5 1-10.8 7.6 10-1.8 16 14.2 23.5 11-3.4 10.2 13.6 3.9 8.8-4 5-7.2 15.6-11.4 21-15.4 5.7-7.6-6.3 3.4-7.4-3.2 4.2-3.9 10.6-5.3 13.7-10.3-7.4 4.2-17.7 7.7-23.4 11.4-2.3-.2-1-3.3.7-3.6 13.2-8.6 27-17.6 39.7-26.8.3-1.3-1.4-2.3-2.5-1.5"/><path fill="#ff732f" d="M378.5 10.6c-4.4 8.8 5-2 9.6-.6 8.4-3.7 4.4 8.1 10.8 8.2 9.3-.3-1.8 8-2.5 7.3 1-4.6-3.1-1-.6 1.7 3.3 5.3-4.1-3.3-3.4 2 5.7.8 1.2 5 8.2 2-2.3 3-4.6 7 .3 9-3.8.6-10.3-1.5-9 4.6 6.9-.8 9.2-4 7 2.3-7 .6-4.3 7.4-.4 10.4-1.5 6.1-7.2-2-3 6.5-9.5 1.2 5.6 4.8-1 6.8 6.8 2-1.1 7 1.4 10.6 2.2 2.8-6 6.3-1.7 7.3 5.4 2.2-7.3 3.2-.6 4.8 5.9 1.7-7 .6-2.2 2.1 6.4 1.9-5.6 3.2 2.5 4.4-4.8.6.7 4.2-1.4 7-1.3-.3-5.3-1.2-4.9.6 9 2.8-9.1 14 2.6 11.8-8 3.7 3 1.9-2.7 5.4 5 4-1.9 11.4-4.9 12.9 6 3.4 1.1 4.2.8 9-5 .1-10.6-5.3-2.6-5.8-4.7-.2 2.7-6.1-3-6 5-6 2.6-12 3.5-18.6 6.2.4 4.4-6.5-.1-1.4 3.8-16.8-4-35.6 3.4-52-4.6 2.2-3.2-.5-.7-3-4.4 2.6-4-1-.2-2.3-6.3.1-2.5-8.5-4.8-9.8 6.9-.5-5.4-4.9 1.5-6-3.4.4-3.8-10.9-5-2.9-2.7.5 3.6 14-5.9 11.6 2.2 1.2 4.4 2.5.8 3.3 8.5 1-2.9 10.4 3.6 13.2-8.3-4.5 4.1 8.4-3.7 6.1 2.5 1.9 2.4 3.1 0 4.7 8.4 3.5-10.9 2.7 1 5 1.3.5-7.4 1.3-1.5 2.3 5.3 5.2-8.5 2.6.5 6.4-9.4-1.6 3.6 3.8-1.2 8.4-6.6-4.8 3.6 6-2.4 9.6-5.2 2.6 4.5 5-2 4-5.1 1 2.6 11.6-5.2 10.5 4.7 6.2 1.8 9 .2 15-10.4 2.2 5 3.7-.9 8.3-4.6-3.6-8.9-2.2-5.2-9-8-1 5.6-2.4 1-6.9 3 2.5 2.5-8 1-7.2 4.4-3.8-2-11.2 3.6-14.8-6.8.8.3-5.9-1.8-9.3-1-4.6 1.4-10-.6-15.5 4.9-4.1-4.9-11 .8-14.7-5.2-6.8 12-3.2-2.4-6 5.2-5.3 1.1-6.3 6.8-9.7-2 0-10-2.4-5.3-2.8 13.1 2-6.9-2 .2-4 12.1.6-5.8-2.8.6-3 9 .4-13-6.4-.2-3.9 2.6 2.2 9.6-4.1 7.2.7-3.3 3.8 6 1.7 2-1.1 4-7-10 1.2-11.8-2.8 2.3-3.6-2.6-10.3 3.3-10.2-2.4 7.7 13.5-1.7 2 2 2.2-.6-1.3-11.5 4.5-6.6 5.9 4.2-4.7-6.5 3.3-5.7-4.8 7 3.4 1.1 7-.1 2.6-5.4-9-3.3-3.7-1.7 6 2.7-6.3 2.9-5-1.7q6.2-1.7 12.5-2.7"/><path fill="#800300" d="M283 13.8c5.2 4.3 4.3 13.1 7.6 18.9 4.5 40 20 79.2 16.1 120-1.5 4.4-.7 9.1-2.7 13.4-1-6.1-.8-12.4-1.9-18.5-5.8-44.8-10.6-89.1-19.1-133.8"/><path fill="#f00e00" d="M149 18.8c6.6-9.2 18-.4 23 6.3 15 4 7 30.1 25.4 26.9-6.1 5-4.9 14.6-10.6 19.9-3.8-2.3 6.4-18-.7-17.8-3 18.6-4.1 38-12.9 55-1 2-6.3 3.8-1.7-2.4 1.3-13.3 6.9-26.5 2.5-39.8-6.5 24.2-16 52.9-20.9 76.9-3.6-38.8 24.3-74.9 12.6-114.3-6 3-5-6.4-8.8-6 6.1 59.5-20.4 120 2.5 178.3 0 3-4 .8-5.7.5-2.5-3.9-5.9-30.7-9.9-17.3-3.6-2.1 1.4-14.2-5.4-13.4-2.4 12.5 1.7 25.5 5.6 37.5a9 9 0 0 0-1.1 7.8c-8.1-2.7-9-14.3-13.8-21q-.8-4-1.8-7.9c5.4-1.2 2.8 7 6.9 7.8-2.7-6.4-1-13.8-4.2-20-6.6-47.6 25.9-93.5 10.8-141-4 6 .7 17.5-.7 25.5-3.3-1-2-5.5-4-7.7-8.3 10 .1-15-7.8-16.1-2.8 2.3-5.8-.5-6-3.6 11 5.4 15.7-6.6 25.1-9.5 2.6-2 8-4.7 1.6-4.6"/><path fill="#7d0000" d="M348 14.8c9.3 42.8 4.1 89.6-3.2 132.3-3-31 .2-63.9-6.6-95.1 3.6-12.3 6.3-25 9.8-37.2"/><path fill="#c01002" d="M141.3 24.5c3.7.4 5.6-3.4 7.7-5.7 6.4 0 1 2.6-1.6 4.6-9.4 3-14.2 14.9-25 9.5 0 3.1 3 6 6 3.6 7.8 1-.6 26 7.6 16 2 2.3.8 6.8 4 7.8.3 11.2-3 22-3.5 33.1-.7 2.9-4.2 3.4-6.7 3.2a217 217 0 0 0-1.8-31.4c-3.8-3 2.8-9.1-3.7-6.3-3.8-4.7 2.3-19-3.1-22.7-6.6 33 8.5 65.5 3.4 98.5a140 140 0 0 0 4.6 50c4.1 4.8.3-6.3.8-8.8 3.3 6.1 1.5 13.5 4.2 19.9-4.1-.9-1.4-9-6.9-7.8l1.8 7.8c-14-25.3-5.2-54.5-15-82 4 7.2 4.1 16.5 7 23.3 5.4-29.8-10.8-58-6-87.8 1.3-6.6.1-23.5 11.8-18.2 7.1 4.3 7.9-8 14.4-6.6"/><path fill="#960100" d="M273.2 74.8c-1.2-18.5-18.5-39.4-7.2-55.6 3.6 32.6 22.3 65.8 19.2 100.5 2 16-2.6 31.8-3.2 47.8l.1 1.3c-3.7 2.6-3.4 7.7-4.9 11.6l-.3-2.7.1-5.4c1.6-32.5 3.5-65.5-3.8-97.5"/><path fill="#5b0100" d="M157 23.4c3.7-.3 2.6 9.2 8.7 6.1 11.7 39.4-16.2 75.6-12.5 114.3 4.8-24 14.3-52.7 20.8-76.9 4.4 13.3-1.2 26.6-2.5 39.8-4.7 6.3.8 4.5 1.7 2.4 8.8-17 9.8-36.4 13-55 7-.1-3.2 15.5.5 17.8 5.8-5.3 4.6-14.9 10.7-20l.8.1c-1 15.8-14 27.4-16 42.9-1.3 12.5-4.3 24.7-7 36.8 9.8-6.8 8.8-25.2 17-33.5-6.9 34.2-20.3 68-16.3 103.6 1.5 18.4 6 37.1 15.3 53.2q4 2 .9 5.2a152 152 0 0 1-32.7-58.4C136.4 143.5 163 83 157 23.4m18.4 109.7c-2.1 2.4-2 6.1-3.3 9 3.3 0 6.7-8.9 3.3-9"/><path fill="#b51103" d="M34 34c6.3 5.6 8-13.6 10-3.2.4 4 11 10 2.5 10.5-2-1.4-2.4-7.7-5.3-5-6 6.4-13.1-6-19.7-1-2.6 3-5.5 5.6-10 4.2-19 26.7 1.6 59.5 18.3 81.8 5.2 3.6.3-4.9 4.1-4 2.9 16.2 2.7 34.6 14 47.6 8.4-1.2 7.6 17.9 13.1 23 3.6-1.6 2.6-7.8 6-10.5 8.1-12.7 11.3-31.5 2-44.5-1.9-3.5-8.6 1.1-9-4.1a98 98 0 0 0 2-33.9c10.5 8.8-8.1 32.2 10 32.8 7.4 18.1 18.8 36 26.7 54.7-5.4.7-13-24.2-19.1-17.3-2.2-3.3 7-12.9-.8-10.6-8.2 10 .6 21.6 3.8 31.8-3.8 6.7-8-18.4-12.4-7.2 17 22.8 30.4 48.9 48 71.5C97.8 236.3 92 206 73.1 190.1c2.9 10.9 12.5 18.7 14.8 29.7-9.3-3.6-2.2 10.3 1.4 14 5.5-1-5.2-14.7 1.5-10.7 19 32.5 46.7 62 81.8 77 3.6 1.5 1.8-1.6.6-3.4 3.8-.2 7.3 2.2 9.7 5-3-2.3-8.2-1.3-3.2 1.8-6.2 3-12.2-3.6-18.4-4.4 4.4 5.5-4.8 7-5.9 1.7-8.6-4-15.5-12.8-23.5-18.7-2.8-3-7.5-13.3-11.1-6-2.8-1.2-10.8-8.5-4-7.3-2.1-4.5-5-9.7-9.8-11.8.9 3.9 7 7.4 5 11a280 280 0 0 1-42.5-65c3.3-6.6 3.1-16.8-3.5-21-5.2 8.7 1 19.4-3.6 27 2.2 9.6 7 18.4 11.8 26.9-4.2-2-9.2-4-7.2-9.2-10.3-19.2-3.4-46.2-22.3-60.4C37 154.5 37.2 139.7 32 127 16.6 110 8 88.6.1 67.3V55.7C5 48.5 4.1 33 16.4 36.5c4-6 12-6.6 17.7-2.5"/><path fill="#840100" d="M246 33c-1.7-3 .8-6 2.2-1.2 18 40.8 25.6 85.9 20.7 129.9q-3.2-1.2-3-5.3c-5.1-41.4-4.3-84-20-123.3"/><path fill="#730301" d="M44 30.8c31.6 19.1 59 47.2 70.1 83 9.8 27.6 1 56.7 15 82 4.8 6.8 5.7 18.4 13.8 21-1.2 3-1.1 6.8 2.3 8.2 7.5 22.2 23.6 40.7 41.1 55.6 2.4 5.7 10.2-3.6 6.5 2.4l-1.1 2.2c-28.7-8.6-42.8-37.1-55.8-61.2-21.8-46-29.2-98.4-62.2-138.7C63 72.8 51.1 61 40 49c-3-1.3-4.2-7.5-.1-8 5.4 3.5 9 9.5 15 12.2-2.2-4.4-5.5-8-8.3-11.9 8.5-.5-2-6.5-2.5-10.5"/><path fill="#f60c00" d="M21.5 35.3c6.6-5 13.7 7.4 19.7 1 2.9-2.8 3.2 3.5 5.3 5 2.8 4 6.1 7.5 8.4 11.9-6-2.7-9.7-8.8-15.1-12.2-4 .5-2.9 6.7 0 8 11.3 12.1 23 23.8 34 36.2 32.8 40.5 40.2 92.8 62 138.8l-4.9 4c-14.6-35.3-29.2-70.9-47.4-104.6-9.2-17-18-35-33.2-47.6 0 1.3 1 3.6-1.2 3.1C41.7 66.1 37.2 50 25 41c1.4 5.2 4.9 9.6 5.9 15-4.9.4-9.1-13.7-10.7-4.3 8.6 12.1 19.8 24 22.9 39 4.3-1.9 12.7-11.4 16.2-2-2.8-4.8-12.7-1.2-5.6 2.3.3 7.6 1.2 16.4-.5 24.5-5.4.3-.7 3.9 1 6-1.7 3.8 1 16 9 16.5.8 7 6.5 9.3 7.7 14.9a49 49 0 0 0-4 24.5c-3.4 2.7-2.4 9-6 10.6-5.5-5.2-4.7-24.3-13-23.1-11.4-13-11.2-31.4-14-47.5-3.9-1 1 7.5-4.2 4C13 99-7.5 66.1 11.6 39.3c4.4 1.5 7.3-1 9.9-4.1"/><path fill="#680000" d="M140 60.3c1.5-8-3.3-19.4.9-25.4 15 47.4-17.5 93.3-11 141-.4 2.5 3.4 13.6-.7 8.8a140 140 0 0 1-4.6-50c5.1-33-10-65.6-3.4-98.5 5.4 3.7-.7 18 3.1 22.7 6.5-2.8 0 3.4 3.7 6.3q2 15.6 1.8 31.4c2.5.2 6-.3 6.6-3.2.7-11 4-22 3.7-33.1"/><path fill="#ff7732" d="M435.2 37.1c5.2 4.8 14.6.7 18.7.8-6.2 2.2 1.2 5.3-3.6 6.9 5 2.4-6.3 2-.7 5.6-2.7 9.5-5.4 14-15.6 16.7 1.9 2.3 9 3.4 6.2-1.4 7.8 2.6-4.6 5.5 1.6 5.5 6.3.9-5.9 4.2 0 7-11-1.6-1.5-1-4.2 5-7.9-2.7-.5 4.6-5.5 3.6 3.6 2.4 3 4.4-1.8 4.4 6.2 3.6 2 3.7-4.1 5.3 13.8-2.3 1 18-.7 17 4.3 6.5-7.1 2.8-7.6 8.2-4.5-4-4.6-7.7-11.6-5.7-.2 3 1 6.5 4 3.1-1.1 6.1-6-.5-9.5 1.3-7.6-.3 10.6 4.5-2.3 2.4-4-2.3 1-6.5 4.3-3.7-3.5-2-4.7-8.1 1-6.4 5.8-15.2 13.1-23 16.7-35.1C433.4 63.5 432.1 51 435.2 37"/><path fill="#620300" d="M25 41c12.2 9 16.8 25.1 24.3 38 2.2.5 1.1-1.8 1.2-3 15.2 12.4 24 30.6 33.2 47.5 18.2 33.8 32.8 69.4 47.4 104.7 15.8 26 34.1 53.5 63.6 65.2-4.8 3.7-16.7-2.3-22.4-5.3l-4.1-2.2c-20.2-8-34.3-27.4-49.3-40.3-13.5-26.5-25.4-54-39.2-80.4 6-6.9 13.7 18 19 17.3-7.8-18.7-19.2-36.6-26.5-54.7-18.2-.6.4-24-10.1-32.8a6 6 0 0 0-1-3l-1.6-3.3c-3.5-9.3-11.9.2-16.2 2-3.3-14.8-14.4-26.8-23-38.9C22 42.3 26.1 56.4 31 56c-1-5.3-4.5-9.7-6-14.9"/><path fill="#ff6a26" d="M469.5 42.7c8.6-1.4 11 16.5 1.3 16.2 2.4 9.7-14.6 7-6.6 10.9 2.5 5.6-4.5 4.6-5.7 9 6.6 2.5-6.5 5.5-2.7 8.2-10.5 7-2.3 14.7-15.2 15.2 4-10.1 8.7-21.6 18.4-30-2.6-6 6-17 7.8-18.1-7-7.5 14.5 1.2 3-5.2 5.2-.9-2.1-4-.3-6.2"/><path fill="#ff5a13" d="M480.3 44.3c2.2 4.8-7.1.7 0 0"/><path fill="#ff6d2c" d="M469.8 48.9c-5.8.5 1.6-5.6 0 0"/><path fill="#9f0000" d="M218.2 47.3c24.4 30.2 30 74.2 29.7 112.5-6.1.4-1.8-8.5-4-11.7-3.7-19.1-.5-43-13.2-57.9 9.2-10.1-12.1-33.6-12.5-43"/><path fill="#7e0000" d="M236.9 54c-.2-1.4-2-4.4-.2-4.7a243 243 0 0 1 26.3 115l-1.9-2.7C256.3 125.2 250.7 88.3 237 54"/><path fill="#6a0400" d="M212.2 66.3c5.8.8 8.6 9.7 4.8 14.8-10.2 37-37.1 69.6-31.9 110.6 1.5 16.6 2.3 33.1 6.7 49.4-1.2 6.4 2.4 3 4.4 2 2.5-.8 5.4-1.6 5.7 1.9-4 1.4-8 1.7-10.8 4.8-8.3-15.2-11-32.6-12.4-49.7a173 173 0 0 1 9-60c.4-1.4 2.3-.3 3.3-.7a431 431 0 0 0 21.2-73.1"/><path fill="#fc5716" d="M519.3 82.6c0 8.6 7 14 14.9 14-2 2-4.5 6.1-7.4 2.8 2 6-8.9 6.7-7 13.5-2.8 2.4-17.7-3.2-13 5a92 92 0 0 0-23.5 16.8c-1.4-5.3 8.5-12.8 14.9-14.6-2-9.8-5.6 2.2-13 2.8 6-5.4 12.2-12 18.3-15-9.4-8.8 7.8 2.6-1.4-6 .9.7 8.9 1.5 6.6-4.4a27 27 0 0 0 10.6-14.9"/><path fill="#fd5512" d="M53.8 91c-7-3.5 2.8-7.1 5.6-2.3L61 92c-2 .7-1 3.2.9 3 1.7 11.3.3 22.6-2 33.8.4 5.2 7.1.6 9 4.1 9.3 13 6.1 31.8-2 44.5a49 49 0 0 1 4-24.5c-1.2-5.6-7-7.9-7.8-14.8-8-.6-10.6-12.8-9-16.6-1.6-2.1-6.3-5.7-.9-6 1.7-8.1.8-17 .5-24.5"/><path fill="#720200" d="M219.1 90.1c6.2-.7 4.8 6.3 4.8 10.4 4.8 2.2 2-13.5 6-7 .4 18.5-13 33-18.4 49.9-13.9 14.2-10.7 39-12.9 58.1-2.5 10.5 6.3 24.5.3 32.2-3.3-12.4-7.7-25-5.9-38-.6-37 15-71.2 26.1-105.6"/><path fill="#cc0100" d="M62 95c-2 .2-3-2.3-1-3q1 1.4 1 3"/><path fill="#ff762e" d="M433.4 111.8c3.7-1.5 1.4-7.6 7.3-9.6 8.2 7.1-8 14-9.3 18.3-6.6-4.5 7.2-5 2-8.7"/><path fill="#700600" d="M227.4 119.3c1.8-1 2.9 2 2 3.4-8.6 26.7-21.7 53.3-19.7 82-3 3.5-2 10.3 2.3 12.3-2.8.4-12 5.9-5 4.2 3.4-2 21.4-4.6 13.3-10.6 7.7 2.6 11.6 4 1.6 8.1-6.1 2.6-13 7.3-19.7 4-1.5-4 3.5-4 5.6-6-1-4.9-3.1-9.6-2.7-14.8-1.3-28.8 9.5-57 22.3-82.6"/><path fill="#ff5f17" d="M313.1 121c6.7-.5-.5 6.6 0 0"/><path fill="#f35c17" d="M315.2 125.2c2 10.8 1.1 24.2 2.4 35.8 6.7.7 2-7.9 7-7.4.2 2.6-.2 5.1-.3 7.7 4.1-1.4 3-13.5 8.8-6-.3 5.8-2.5 9.3-1 14.7-7 .9-11.5 6-17.1 9 .4-4.6 2-9 1.6-13.7-7.1-.7-9.5 15.5-12.5 1.5v-.7c1.9-4.3 1-9 2.6-13.4 4.4-7.2 4.1-18.6 8.5-27.5"/><path fill="#b00000" d="M175.3 133.1c3.4.1 0 9-3.3 9 1.3-2.9 1.2-6.7 3.3-9"/><path fill="#ff4c10" d="M528.4 133.4c1-.8 2.8.2 2.5 1.5a984 984 0 0 1-39.7 26.8c-1.6.3-3 3.4-.7 3.6 5.7-3.7 16-7.2 23.4-11.4-3.1 5-9.5 6.4-13.7 10.3 1 6.6 13-4.3 7.4 3.2-5.4 4-16 8.2-21 15.3 4.7 8-12.2 14.4-8.8 4-7.5 3.3-13.5-12.7-23.5-10.9.3-6.6 9.2-1.7 10.8-7.5 7.7-2.1 15.7-19.7 26-11.5 13-6.6 24.8-16 37.3-23.4"/><path fill="#bc3e05" d="M330.9 148.2c6 2.5 4.6-5.7 6.8-8.4-1.4 5.6-1 22.2 7 14.1-.8 7.6 5.5.3 8.1-1.6.9 3.3 6.7 5.5 4.8.4 2 9.6 5.4 1.5 11.2 3.6 3 10.6 6-4 10-6.4 5.7-4 10.3 7.5 2.6 4.3 2.7 2.4 2.9 9.1 8 7.5 8.8-4 11 9.3 20.3 5.7-4.6 13.9 13.5 3.6 13.2 14.6-3.3 3.4 3.2 3.4 0 0 2.4 1.3 6.6-2.5 6 1.9-1.4 7.4 7.3 10.6 5.7 18.1 7.5-3 9.8 6.9 17.4 9-4.4 2 5 9 8 12.8-10.2 1.1 6.2.8 2.9 6.3-4.2.7-1.3 3.4 1.1 4.4 3.3 8.5-4.9 17 2.1 23.9-2.2 16.7-5.2 33.5-16.1 47.3 9.1-1.4-3.5 2.7-2.8 7 5.7-1.5-1.5 2.1.3 5.4-5 13.5-16.7 19.5-27.2 27.3-1.4-5 .7-4.2-.2-8.3-3.3 1-5.2 12-6.2 3-3.2-.3-5 .6-7.5 3.6 1-5-.7-3.3-2.3 0 0-8.5-8.4-4.4-12.2-8 3.7-1.8 7.7 1.4 11-1.5-5.6-4.2 2.3-1-1.5-6.4 8.7 1.8 4-4.6 3.2-10.4 5.4 2.4 13.3-.4 15.2-6.1 2.4 6.9 2.3 0 1-3.6 10.7-1.8-7.8-10.3-12-10.6 1.8-3 4.2-3.5 4.1.6 1.4-2.4 5-4.1 3.2 0 6-1.4 13.3-2.9 9-9.9-4.9-9-7.6 2.3-12.8-4.3 5.8-2.4 14-3.5 19.4-7.7-.1-6.7-13.5 2.7-9.5-5 15.4-.2 5.4-19.7 19-19.4-2.9-4.9-16.3 4-14.8 8.1-13.5-2.6 2.5-7.3 6.6-12.5-7.4-3-14.3-.4-19 5 .3-5 11.5-9.3 5.3-12.9 10.1 2.4 8.2-21.1 3.6-8.6-6.3-8-10 5.4-17.9 3.3 2-4.3 6.3-7 8.5-11.1-4.8-.4-5.7 4-7.6 6-1.6-7 13.4-15.1 1.2-19.7 2.5 5.4-4.4 1.4 0 7.1-3.5-4.2-5.8-4-2.5 1.2-7.3.6-3.1-11.3-9.5-6.4-8.8 4 2-5.7-4-3.3.3-5.9-7.3-2.5-10.2-.5-10.9.8 10.8-5.4 6.4-12.2-3.5-2.1-15.7 8.9-12.7-.2a2.7 2.7 0 0 0-4.8-.7c-6-1-.4-14.2-7.7-14-5 6.5-11.7 8.3-8.7-3.6-14.8-3.8-2.1 14.7-8.3 18 .5-5.9-5.5-21.3-14-13.3 3.2-4.7 9.8-8.6 1-11.2-1.5-5.3.7-8.8 1-14.6 3.7.5.9-6.5-2.3-7"/><path fill="#fc9756" d="M287.5 153.5c11.9 2 2.7-8.8 14.6-5.9 1.1 6.1 1 12.4 2 18.5v.7c-4.4-1.9-5 6.5-7.2-.8-6.1 3.7-5 12.7-4 18.9-8-1.1-4.8-12-10.8-16l-.2-1.4c2.6-6.5 10.6-12.8 5.6-14"/><path fill="#eb0200" d="M78.8 154.5c7.7-2.3-1.4 7.3.8 10.6 13.9 26.4 25.7 54 39.2 80.4l.2 5.2h-.8c-17.6-22.7-31-48.8-48-71.6 4.3-11.2 8.6 13.9 12.4 7.2-3.2-10.2-12-21.8-3.8-31.8"/><path fill="#935c18" d="M266 156.4q-.3 4 2.9 5.3c4.7 3.6 9.1 4.1.2 6.1a31 31 0 0 1-1.3 13.8c6.5-.8 5.7-3.7 9.2-6.6l-.1 2.7c-5.3 3.4 4 8.6 6.1 12.4l-1 1.9c-2.2-1.5-12.7-13.6-10.1-5.4-4.7 3 16 19.3 4.1 15.7-4-1.7-14.6-20.6-14.1-14.4l-3 1.3c-1.2-5.1-3-10.4-8-13 6.4 0 9 8.5 15.8 7.5-.2-6 .7-9.9-1.6-15.2 1.3-4-.1-8.1.8-12.1"/><path fill="#fc6423" d="M568.8 158.5c5.3 2.6 11.1-1.2 16.6.5 0 2.9 3.5 12.4 5.8 8 14.3 17.3 3.4 42.6 19.8 59.1v2.6q-.8 2.7-2.8 4.6c-2-3-7.1 6.8-4.9 0 8.3-8.3-10.4 1.2-8.3-9.2-3.2 7.3-11.7-.4-16.5 5.5 5-7 7.4-24.3-1.6-21.7 1.9-2.7 2.7-8.3 7-7.7-.3 3-3.3 6.6 1 8.2 5.5 1.4-2.2-7.9 2.9-8.4-6.9-5.7-14.6 5-14.9 8.5 5-1.1 3.7 3.1.8 5 5-1.3 4.9 8 .2 3.8 4-5.2-9.6 3.7-3.7-2 9.1-3-8.2-11.2.1-11-1.2-3-1.2-6.2-1.4-9.3l2.1-1c2.8-2.8 5.4 1 7-5 2.3 1.8 6 0 5.8-2.9-2-5.7-9.5 1.7-11.7-4 5.9-7.5-4.4-1.6-4.8-2.4 1.6 8-5-11.3-1.7 1.7-.7 5.4-2.4-5.5-4.9-.4-11.6 3.2-19 7-32.6 12.2-3.4 5-9-2-8 2.4-8.8 4-15.5 6-23.2 11.8-6.2-2.8-13.5-18.4.5-13.8-8.6-8.4 2.8-5.3 8.6-11.5 6 7.3 10.3-10.2 15 0-2.8-5.4-.5-4 3-1.4 1.9-13.3 14.2 1.8 17.3-8.8 1.4-4.4 10.1-1.1 14-6.4 3.6-3.7 3.2 5.4 4 0-1.2-9.5 15.1 1.8 9.5-7"/><path fill="#bb4603" d="m261.1 161.6 1.9 2.7.8 5c-1.6 6-3.2-3-3.6-5.8z"/><path fill="#fb8d49" d="M251 176.2c-3.8-7.8 2.6-12.1 9.2-12.7.4 2.8 2 11.8 3.6 5.9l1.3-1c2.3 5.4 1.3 9.4 1.6 15.3-6.8 1-9.4-7.5-15.7-7.5"/><path fill="#8c581b" d="M304 166.8c3.1 14 5.4-2.2 12.6-1.5.3 4.6-1.2 9.1-1.6 13.7 5.6-3 10.1-8.1 17-9 9 2.5 2.3 6.4-.9 11.1 8.5-8 14.5 7.4 14 13.3 6.2-3.3-6.5-21.8 8.3-18-3 12 3.6 10 8.7 3.6 7.3-.2 1.8 13 7.7 14a2.7 2.7 0 0 1 4.8.7c-3 9 9.2-1.9 12.7.2 4.4 6.8-17.3 13-6.4 12.2-3.6 3.9-8.9 5.8-12 10.2l-5.8 1.6c-3.3-6.4-7.5 17-16 14-.7-1.1-1-3.6-2.5-1.9l-1-2.1c-2.2-10.3-31-13.5-16.6-25.8 2-4.2-10.8-19.9-12.5-14.3 0 3.1 1.2 7.7-3.4 7.8-6.7-4.4-3.8 16.6-3 3.5 4.3.1-1.8 7.9 3 9.4-2.3 3.4-6.3-6-6.6.3-1.9-4.4-.6-15.9-2.3-21.2-5.7 3.2-.8 7.5-8.4 2.6-4-1.9-6.5-6-10.8-7.2 2.3 5.7 8.1 8.7 12.3 12.9-4.5 3.5.2 10.5-3.3 14-1.8-7.5-1.2-16.8-9-20.8 1.3-3.6-4.9-6-5.8-9.7 1.4-3.9 1.2-9 5-11.6 6 4 2.6 15 10.7 16-1-6.1-2.2-15.1 4-18.8 2.2 7.3 2.8-1.1 7.2.8m-3 2c3.1 7.6 1.4 19.3 7.7 24.2.6-7.4-.6-19.8-7.7-24.2m29.3 3.5c-5.4 2.3-13.6 5.6-14 12.1 5-1 15.6-10.2 14-12m22.8 17c-7 3.8-6.7 13-3.3 18.6 1.6-5.6 4.6-14.5 3.3-18.6m9.6 19c-2.7 1.3-8 2-7.9 5.5 3.8 2.2 24-8.5 7.9-5.5"/><path fill="#c11805" d="M20.4 171.5c-1.9-5 4.2-6.8 6.9-2.8C48.4 180 36 212 57 222.3c-3.9 1.8-6.4-3.2-10.1-3.1-3.3 2.4 7.3 11.5 2.9 11.9-13.4-17.7-2.7-51.6-27.9-61 9.5 20 1.3 45.9 18.8 62.1q22.5 18.2 43.3 38.6c-4.3 2 4.5 5.1 6 7.8-2.3 7 9.8 9.7 11.6 16.6-11.3-7.1-22.7-15.6-35.5-20.2 10.4 11.4 29.2 17.5 35.6 33.2a33 33 0 0 1-9.9-7c-7.8-14.7-28.6-24.7-45.3-31.8-4 .4-5.9-7.7.8-4 10.2 4.6 21.2 2 31.5 5.7-3-3.9-6.5-7-9-11-12.2-13.3-29.1-21.7-39.1-37-8-16.3-3.3-35.1-10.5-51.6"/><path fill="#eea64f" d="M269 167.8c3.4-.1 5.5 2.7 8 4.5v2.7c-3.5 3-2.7 5.8-9.2 6.6a31 31 0 0 0 1.3-13.8"/><path fill="#fbcb4b" d="M301.2 168.8c7 4.4 8.2 16.8 7.6 24.2-6.3-5-4.6-16.6-7.7-24.2"/><path fill="#f90c01" d="M22 170.1c25.2 9.4 14.5 43.2 27.9 61 4.4-.4-6.2-9.5-3-12 3.8 0 6.3 5 10.2 3.1 3.7.8 6.3 3.6 9.9 4.5-2 5.1 3 7.3 7.2 9.2a99 99 0 0 1-11.8-27c4.7-7.5-1.6-18.2 3.6-27 6.6 4.3 6.8 14.5 3.5 21.2A285 285 0 0 0 112 268c2-3.6-4.1-7.1-5-11 4.9 2 7.6 7.3 9.8 11.8-6.8-1.3 1.2 6 4 7.4q.8 1.5 2 2.9c-1.4 2.7 2.4 6.9.4 8.6C109 277 97.8 261.4 82 252.2c-.9-5.4-7 .5-3.7 1.5 9.8 4.7 15.7 14.2 23.2 21.7 1.3 2.9-3.5.2-5.1.6-.7 2.9 5.3 2.7 2.8 6a84 84 0 0 0-15.1-11.2 620 620 0 0 0-43.3-38.6C23.3 216 31.4 190 22 170.2"/><path fill="#550400" d="M138.4 171.6c6.8-.8 1.8 11.3 5.4 13.4 4-13.4 7.4 13.5 9.9 17.3 6.2 20.7 16.5 40 29.9 56.9 1.8 3.8 5.8.9 8.8 3.1-7.3-.4-2.8 4.6-.2 6.8-1.6.7-4 1-4.1 3.3l-.2.8c-3.5-1 1.2-6.6-3.5-7.6-19.1-14.1-31.1-35.1-40.4-56.5-3.9-12-8-25-5.6-37.5"/><path fill="#fd9652" d="M228 181.5c-8.6-6.3 3.8-13.7 7-3.7-1-11.8 8.4-2.3 8 5.4 2-6.7 1.3-11.9 8-7 4.9 2.6 6.7 7.9 8 13l.9 3.7c-8.2 1-8.7-21.8-8.2-8.6 2 6.6-8-3.8-8.3 1.8 2.7 6.8-12.8-4-8.1 4.6 3.8 5.6-1.8 1.3-5.2 1.5 0 4.7 2.8 8.8 4.7 13-6.4-.8-12.8-1.7-19.2-1.6 2.7-1 5-2.5 3.5-5.7 4.4 5.8 1-1.6 5.9-2.5-6.1.8-5.3-3.8-2.7-7.4-7.8-2.3.6-10.9 5.7-6.5"/><path fill="#fcd16b" d="M330.4 172.3c1.7 2-9 11.1-14 12.1.4-6.5 8.6-9.8 14-12"/><path fill="#edd09b" d="M283 190.1c-2-3.8-11.4-9-6.1-12.4l.3 2.7c1 3.7 7 6 5.8 9.7"/><path fill="#8e651e" d="M251.7 184.3c-.5-13.2 0 9.7 8.2 8.6 1.3 2.4-2.7 1.1-3.2 3.4a30 30 0 0 0-12-9.8c1.1 5.7 5 11 10.3 13.6 3.7 1.4 20.7 12.2 9.3 9.8 4 5-1.4 5.5-5 3.4 2.1 3.2-1 14.1-3.6 7.1-4.4-16.5-.6 8.9-4.2 11.5 0-2.2.1-14-1.9-15 .7 10.4-4.4-2.4-5.4 3.2-5.7-.3-10.9-4.5-17-4.3 2.3 2.6 7 2.6 10 4.7 3.9 4.7.2 13.5-9.7 15.4 1.4-5.6-7.6 5.7-5-.3.6-5.6 15-9.3 8.8-13-2.7-2.7-6.3-.9-9.2.4l-.7.3c.6-1.5 2-3.2.5-4.6 10-4.1 6.1-5.5-1.6-8 8 5.9-10 8.5-13.2 10.5-7.2 1.7 2-3.8 5-4.2-4.4-2-5.4-8.9-2.4-12.2-1.7 4.8 3 12.7 6.3 5.9 8.5-.3-3.1-2.5-.4-7 6.4-.2 12.8.7 19.2 1.5-2-4.2-4.7-8.3-4.7-13 3.4-.2 9 4.1 5.2-1.5-4.7-8.5 10.8 2.2 8-4.6.5-5.6 10.3 4.8 8.4-1.8m-14.5 5.7c1.7 8.4 9.1 21 16.5 20.2.5-.2-1.6-10.6-4.8-6.7 0-6.1-5.5-13-11.7-13.5m-5.1 4.2c.5 5.6 4.1 12.4 10.5 12-1.7-5-4.7-11.6-10.5-12M221 205.1c5.5 5.1 18 4.5 26 6.9-4-8-18.3-4.4-26-7"/><path fill="#df2d01" d="M422.9 182c-3.3 3.4 3.2 3.4 0 0"/><path fill="#f4ca48" d="M271.9 186.7c-2.6-8.3 8 3.8 10 5.3 1.7 2 6.9 4 4 7-6-2-9.6-8-14-12.3"/><path fill="#fbce4b" d="M283 184c4.3 1.3 6.9 5.3 10.8 7.2 1.7 1.4 6.4 6.2 1.5 5.7-4.2-4.2-10-7.3-12.3-12.9"/><path fill="#f1c84f" d="M261.9 188c-.5-6.3 10.1 12.6 14.1 14.3-4.9 7.1-10.9-9.9-14.1-14.4"/><path fill="#fbdb6f" d="M244.7 186.6a30 30 0 0 1 12 9.7l.4 1.5-2.1 2.3a20 20 0 0 1-10.3-13.5"/><path fill="#f3c241" d="M314.5 188.8c1.7-5.6 14.4 10.1 12.5 14.3-6-2.8-9.6-8.6-12.5-14.3"/><path fill="#583709" d="M276 202.3c12 3.6-8.8-12.6-4.1-15.7 4.4 4.4 8 10.3 14 12.3 2.9-3-2.3-4.9-4-7l1.1-1.8c7.8 4 7.2 13.3 9 20.7 3.5-3.4-1.2-10.5 3.3-14 4.9.6.2-4.2-1.5-5.6 7.6 4.8 2.7.6 8.4-2.6 1.7 5.3.4 16.8 2.3 21.2.3-6.4 4.3 3.1 6.6-.3.5-3.8 4.4-10 0-13 4.7 0 3.5-4.6 3.4-7.7 3 5.7 6.5 11.4 12.5 14.3-14.4 12.3 14.4 15.5 16.7 25.8-9.6-.3-17.7 5-26.5 7.9.8-7.6 8.2-12.4 12.8-18-11.3-7.4-13.4 9.3-18 15-3-8.5-9.8-27-22.8-19.7 5.4 6.3 19 13 16.7 22.8-8-2.6-14.7-8-22.7-10.5-10.7-3-19.7 6.4-23.3 15.5a28 28 0 0 1 36.5-6.2c3.3 1.5 10.4 1.7 8.3 7.1A33 33 0 0 0 281 247c5.5-12.7-10.8-4.2-17 1.6-10.5 3-17.4 26.6-2 24.9 4-9.3 9.6-20.8 19-26.5-4.1 9.6-13.2 16.3-16.8 26.2-.7 3.9-4.8 2-7.5 2.3 1 4 7 6.3-.5 4.8 2.8 3.2-3.1 13.5 4 9 8.5.2 6.2-9.4 12.5-11.4 2.2 4.2 8 9.3 5.6 14 4.2 6.1 2.6-9.1 8-7-6.2 7-5.7 18.3-1.3 26.3-6.6-10-12.3 4.1-13.4 13.8-6.9 10-.8-7.4-8.6-1.3-.5-1.6-1.3-3-3.2-2-2-1.1-4.4-1.5-6.7-2-7.3-12.3-16.8-3.7-24.2 2.2-5.6 3-8.3-6-13.8-4.8-6.6 2.8-11.7-.6-17.8-.6l-.4-1.5c3-3.8 22.2-10.9 6.7-7.8-1.4-1-2.7-2-2.9-3.9 8.2 2.3 20.3-1.7 23.3-10.1-5.9 3-13.5 8.7-18.5 1.1 4.4 1.5 9.5 2.4 13.4-.7-7-5.3-19.9 5.1-14.8-3.3 6 .4 2.1-5.2 3.8-9.1-5.5 1.1-10.5 6.4-16.3 4l1-2.2c4.8.7 14.7-10.5 16.7-15.7-7.4 1.2-12.4 12.8-21.5 5.9l.2-.8c6 1.6 12.7.9 16-5.2-4.2-1-8.1.4-12 1.9-2.5-2.2-7-7.2.3-6.8l-.3-2q3.1-3.3-1-5.4a44 44 0 0 0 19.8-14c-3.2.8-6.1 2.5-9 4-.3-3.4-3.2-2.6-5.6-1.8 5.5-9.3 17.4-12.1 25-19.8l.8-.3c-4.5 4.3-9.4 8.6-11.2 14.9 7-4.7 13.1-10.8 20.4-15.3 6.3 3.7-8.2 7.4-8.8 13-2.6 6 6.4-5.3 5 .3 10-1.9 13.6-10.7 9.7-15.4 6.6 5.2 18.4 6.5 7-.4 1-5.6 6.1 7.2 5.4-3.2 2 1 2 12.8 1.9 15 3.6-2.6-.2-28 4.2-11.5 2.6 7 5.7-4 3.5-7 3.7 2 9.1 1.4 5-3.5 11.5 2.4-5.5-8.4-9.2-9.8a43 43 0 0 1 7 2c3.2 1.5 5.9 5.7 9.8 4-4-4-6.4-9.2-9.4-14-3.6 2.8 4 9.2-.4 10-.6-2.4-2.7-3.7-5-4.3l-.3-1.5c.5-2.3 4.5-1 3.2-3.4l-1-3.7 3-1.3c3.2 4.5 9.2 21.5 14.1 14.4m-42.6 36c-6.7 4-11 11.3-19.2 13 6.4 3 22.3-8.2 19.2-13m4.9-.1c-1.2 5.3 7.1 3.7 9.8 2q-4.5-2.9-9.8-2m-26.1 5c-5.3 3-10 8-12.2 13.7 5.3-.8 12.4-11 12.2-13.6m31 2a45 45 0 0 0 7 18.5c-2.2-6-3.1-15.7-7-18.5m-4.7 8a41 41 0 0 0-14 11.2c2.1 0 22.5-11.3 14-11.2m-31.7 4c-29 8.3 33.5.4 0 0m12.4 2c-3.7 11.1 8.9 4.5 0 0M212 267c.7 9.3 9.5.5 0 0m31.6.4q-8.7 1.9-17 5.3c-.5 5.2 30.4-4 17-5.3m-25 6c-5.4 2.5-9.4 8.6-8 14.6 1.2-3.4 11.3-13.2 8-14.6m30 25.5c6.9-5.8 5.5-18.7 4.2-26-5.2 5.6-4.4 18.3-4.1 26m-2.4-24.9c-3.4 6.4-4.9 16-1.3 22-.2-5.9 7.9-19.2 1.3-22m-17 2c-3.9 3.5-4.8 9.6-5.2 14.7 5.6.4 8.1-12.8 5.3-14.7m4.5 3c.7 6.5 2.6 14.6 7 19.1-2.3-6-1.6-15.7-7-19m-16 7c-15 8.6 15.5 4.6 0 0m45.6 3.2a38 38 0 0 0-13 12c3.2 1.6 17.6-12.3 13-12m-36 3.3c-4.3 5.7-2.6 14.3-1.8 20.5.8-6.8 3.6-13.9 1.7-20.5m2.8.4q-.8 9.5-2.3 18.8c5.1-2.8 5.2-16.2 2.3-18.8m2.7 17.7c5.8-2.8 11-8 15.8-11.8-6.6 1-12.9 6-15.8 11.8m27.4-9.5c-5.3 2.5-5.2 10-8.6 14.5 7.3.2 9.5-11.5 8.6-14.5m3.8 0c.4 5.7-2 12.4.3 17.7 4-2.4-.2-14.5-.3-17.7"/><path fill="#fa0800" d="M546 195.4c10.9-3.2 20.3-8.7 32-6.4-1.6 6-4.2 2.2-7 5 .2-3.2-3.7-1.3-2 1 .1 3.1.1 6.3 1.4 9.2-8.4 0 9 8-.2 11.1-5.9 5.7 7.6-3.2 3.7 2 4.7 4.2 4.8-5.1-.2-3.7 3-2 4.2-6.2-.8-5 .3-3.7 8-14.3 14.9-8.6-5.1.5 2.6 9.8-3 8.4-4.2-1.6-1.2-5.2-1-8.2-4.2-.6-5 5-6.9 7.7 9-2.6 6.6 14.6 1.6 21.7 4.8-6 13.4 1.8 16.5-5.4-2 10.3 16.6.8 8.3 9.1-2.2 6.8 3-3 4.9 0-1.4 12.3-10.9 21.3-13.8 33-8.7 21.4-2.3 44.8-6.4 66.5-17.5 14.2-1 42.7-19.7 55.5-12.8 9.7-22.5 24.6-36.4 33.6-4.7-6 4.5-18.3-2.6-23 1.5-9.9 9.9-25.4 5.2-37.1C556 342 548.8 310.4 563 287c12.8-8.8 5.4-25.3-2-34.9-5.7 2-12.9 1.5-17.8 3.8l.9 3.1c-7.3-.9-13.4 7-21.2 3.8 5.1 6.4-9.9 3.5-12 11.1-.5 3.9-9.6 9.8-2.2 10.9 3.6-7 10.8-10.4 16.2-14 1 6.7 8.6-.3 12 8 7.6-.9 7 4.7 12.5 10.9-11.1.3-19.2-11.3-30.5-6.3a48 48 0 0 0-14.6 30.5c5-1 6-7.3 9-10 3.6.5 4.4-3 2.3-5.3 12.8 2.7 21.4-13.1 29.4-1.3-17.4 12.1-18.5 39.2-42.1 43.4 2.6-14.7 14-25.3 21.1-37.7-16.9 5.9-21.8 25.5-27.3 40.6a72 72 0 0 1-36.4 50.4c-3.7-5.2 6.5-5.5 8-8.7-2.8-3.2 9.9-6 3-7-7.6 5-15 10.2-24.3 8 5.2-9.9 17.5-4.7 19.2-15.6-3.3-7.4 7-7.7 4.8-15.7a196 196 0 0 0-26.3 23.7c-12.4 1.3-10.5 10.9-22.6 14.5 6.2-9-11-3-12.7-7 23.8-7.1 39.8-27.6 61.3-38.6 3-.2 3-4.9-.3-3.4-24.3 8.4-38 37.7-66.1 37.4-8.1-1.5-8.2-4.4-11.2-10.6.4-6.4.8-11.4-2.6-15.9 8-1.9-4-4.7 3.2-6.3 5.2 2.2 11-1.9 15.9-1.8 5 6.5 7.6-7.2 10.8-1.6 10.5-7.8 22.2-13.7 27.2-27.3-1.8-3.3 5.4-6.9-.2-5.4-.8-4.3 11.8-8.4 2.7-7 10.9-13.8 13.9-30.6 16.2-47.3 9.4-8.8 19.5-18.5 31.1-23.5-3.8-6.2 6.2 0 3.1-5.4 3.3.5 7.7-5 8.4.7 6-10.8 22.2-9.7 25.6-18.4 5.3 6.6 2.4-1.2 4.5-4.7-13.2 5.6-22.7 6.6-34.5 14.2 4.9-6.7 12-13 19.7-15 1.8-3.7 5-4.4 2 0 4.2-4.4 12.3-4.5 15-9.1 2.7-1.3 8.9 2.3 5-1.8"/><path fill="#f9c334" d="M353.2 189.4c1.3 4-1.7 13-3.3 18.6-3.4-5.6-3.8-14.8 3.3-18.6"/><path fill="#5c0200" d="M73 190c19 16 24.8 46.3 45.2 60.6l.8.1c9.5 18 27 30.7 44 41.4a2.4 2.4 0 0 0 3.1 1.6l7 3c1.3 1.8 3.1 5-.5 3.3-35-14.9-62.7-44.4-81.8-76.9-6.7-4 4 9.6-1.5 10.7-3.6-3.7-10.7-17.6-1.4-14-2.3-11-12-18.8-14.8-29.7"/><path fill="#f4c53b" d="M237.2 190c6.2.5 11.7 7.4 11.7 13.5 3.2-3.9 5.3 6.5 4.8 6.7-7.4.7-14.8-11.8-16.5-20.1"/><path fill="#c74109" d="M185.1 191.7c-.6 4.7 4.6 6.8 8 4-2 13 2.5 25.6 5.8 38 6-7.7-2.8-21.7-.3-32.2 2.3-.8 3.4 2.9 6.5.4-.4 5.2 1.8 10 2.7 14.8-2.1 2-7 2-5.6 6 6.7 3.3 13.6-1.4 19.7-4 1.4 1.4.1 3.2-.5 4.6-7.7 7.7-19.6 10.5-25.2 19.8-2 1-5.6 4.4-4.4-2-4.4-16.3-5.2-32.8-6.7-49.4"/><path fill="#857c32" d="M262 202c4.4-.6-3.2-7 .4-9.8 3 4.7 5.4 10 9.4 14-4 1.6-6.6-2.6-9.8-4.1"/><path fill="#ff400e" d="M569 195c-1.7-2.3 2.2-4.2 2-1z"/><path fill="#f9cc47" d="M232 194.2c6 .4 9 7 10.6 12-6.4.4-10-6.4-10.5-12"/><path fill="#eac37f" d="M308 200.2c-.7 13-3.6-8 3.1-3.6 4.4 2.8.4 9.1 0 13-4.8-1.6 1.3-9.4-3-9.4"/><path fill="#ab8e27" d="M257 197.8c2.3.6 4.4 1.9 5 4.3a43 43 0 0 0-7-2z"/><path fill="#bd4a14" d="M176 201.8c1.9 2.5 2.4.5 2.7-1.7 1.4 17 4 34.5 12.4 49.7 2.9-3.1 6.9-3.4 10.8-4.9 2.9-1.5 5.8-3.2 9-4-5 6.5-12 11.3-19.7 14-9.3-16-13.7-34.7-15.3-53"/><path fill="#b93605" d="M153.7 202.3c1.8.3 5.7 2.5 5.7-.5a152 152 0 0 0 32.7 58.4l.3 2.1c-3-2.2-7 .7-8.8-3.1a172 172 0 0 1-30-56.9"/><path fill="#552c06" d="M380.9 207c2.9-1.9 10.5-5.3 10.3.6-2 2.5-5 4.5-6 7.7 3.9-.3 13.5-5.4 12.8 1.4-.5 3.8-6.7 3.3-8 6.5 3.2 1.8 9 .2 11 4-6.6-.6-14.2-5.6-20.2-1.3 7.2 2.5 15.4 4.9 22.6 1.3-2.8 3.4-5.8 7-6.2 11.7 3.8 1.9 9 1.6 12 5.1-5.3-.6-12-5.8-16.3-.7 5.9-.2 14.6 8.6 18.3 1.4 2.5 5.7-6.6 4-10.2 3.5.6 3.1 4.8 4 6 7-5.3-2.4-11-8-17-5.3 5 6.1 14.6 6.9 21.6 10.5 1.1 3.9-3.3 1.5-5.4 1.7 1.7 3.8 7 5.5 7.8 9.8-3 2.4-6.8-.4-10-.8.4 4.9 8.8 11.2 4.2 14.8-1.6-7.9-8.4-17-16.8-17.9a54 54 0 0 0 16.8 17.9c5.3 6.4-2.2 8.1-7.9 7 1.8 3.2 4.7 8.5-1.3 9-8.3 1.2 5.5 11.1-3 11.7-9.7-1.7-2.6 9.2 0 12.2-4 3.7-13-6.6-12.7.8 1 7-11 2.4-9.7 9.5.9 6.5-7.7 4.1-11.4 2.8 1.2 2.8 2.7 6.1.6 9-7.1.4-10-10.7-16.8-9.2 0 7-6 2-8-1.8l1-2c10.3 14-.2-10.5-6.2-14.4 2-2.2 4.5-4 6-6.5 2.5 4-5.3-36.5-5.5-13.9-.3 4.3-7.4-3.6-10.3-1-6.2 7.6-9.4-10.9-16.8-10.8-.3 5.6-5.9 8.5-11.6 7 5.6-15.6 12.1-31.8 17.5-47.2 9.4 11.7 11 31.3 6.3 46.5-2.3 4.7 8 5.9 6.4.8 5.4-16.7-.2-33.2-6.5-48.5 14 3.3 18.4 22 19.4 34.4-.4 2.9.1 14.8 5.3 9 0-16.8-3-39-21.9-44.7 13.2-7.2 24.8 8.2 32.3 18.2 0-15-18-24.8-32.4-22.6 4.4-8.8 26-.7 23.6-10.2 1.6-1.7 1.8.8 2.4 1.9 2.2 4.2 4.9 8.2 7 12.5.2 13.6 14.2-5.8 13.6-8.9-2.7 1.7-3.2 6-6.5 6.4.3-4.4 4.4-7.4 5-11.8-4.7 4.2-6.3 11.4-12.2 14.3 2.5-7.8 10-12.6 11.7-20.8-4.4 6-9.4 15.8-15.5 10.5 6.3-3.8 7.5-11.7 13-16.2l5.9-1.6c7.4.3 16-6 19.9-12.2-7.6 2.2-12.5 9.4-20 12.2 3.1-4.4 8.4-6.3 12-10.2m11.6 8.2c-8.6 4.3-18.7 3.4-27.5 5.9 3.3 5.1 15-1.4 21.1-1 2.7.4 12.6-5.7 6.4-4.9m-20.3 13c-2.9 3.7 6.8 4.3 9.6 5.9-1.5-3.4-6.4-5.2-9.6-6m25.2 2.2c-2.4 1.4-7.7 3.6-5.8 7 3.6 2.3 6.7-6.3 5.8-7m-18.9 10.9c-5.2 2.9-7.5 9.3-12 13.2 1.7-.2 19.9-14.2 12-13.2m-12 3.1c-3.9 2.2-6 9.3-11.3 7.9 0 10.2 12.1-5.8 11.3-7.9m9 6.5c4.2 3.5 14.3 6.2 21.2 8.2-3.3-7-14-9.3-21.3-8.2m-3 8.3c-1.4 5 11 11.3 14.7 15.7-2.8-6.3-6.4-16.3-14.6-15.7m-3 10.2c-6 5.2-12 11-16.3 17.7 5.5-4 17.5-11 16.2-17.7m6.6 13.8c9.3-1.9 15.7 5.5 21.7 11.1-2.1-6-7.7-9-11.8-13.3 3.5.6 10.5 3.1 12-.9-6.3-2.7-19.2-2.6-22 3.1a29 29 0 0 0-2.9-8.3c-7.7 3.6 4 22 3 8.3m-19.4 5.3c4 9.3-5.3-2.3-4.7 5.1 3.4 1.4 16.2 16.2 11.1 6.4-7.6-7.4 14.5-7.3 7-15-4.8 2.6-10.5 9.4-13.4 3.5m26.6-3.2c-3 7.7 10.2 12.6 16.8 14.6a41 41 0 0 0-16.8-14.6m-46 6.4c1 8.7 2 19 6 26-2.2-8.3-2-18.6-6-26m37.1.4c-2.5 7.4.6 20.8 6.9 25.8 2.3-6.4 3.8-26.3-6.9-25.8m-9.8 14.4c-4.4-4-9-8-12.6-12.9-7.2 2.9 9.7 13.6 12.6 12.9m-18.1-1.6c-5.8 7 10.5 16.6 20.4 18.3-3.6-2.8-8.6-7-.8-3.2-2.9-8-11.6-13.2-19.6-15.1m18.9 6c.7 4 6.4 5.1 7.7 9.2-9.3-6.2 1.6 11 5.5 6.4-2.7-3.9.2-2 2.7-.7-3.8-6-8.4-13.5-16-14.8m18.8 1.4c-2 7 4.3 11 10 12.7-3.3-4-5.7-11.1-10-12.7m-47.6 7.4c5.3 5.3 11.1 12.3 16.6 16.9-2.3-7.5-8.8-15.1-16.6-17m8.7 1.2c2.8 9 12 9.5 19.7 11.2-3.3-7.2-12.6-9.5-19.7-11.2m8 10.1c1.4 7.4 12 6 17.8 8-2.8-5.7-11.8-6.6-17.7-8"/><path fill="#f6c43a" d="M221 205c7.7 2.6 22-1 26 7-8-2.4-20.5-1.8-26-7"/><path fill="#eeb93c" d="M369 217.3c7.4-2.8 12.3-10 19.9-12.3-3.9 6.3-12.5 12.6-20 12.3"/><path fill="#e8681d" d="M391.2 207.6c6-2.4-5 7.4 3.9 3.3 6.4-4.9 2.2 7 9.5 6.4-3.3-5.2-1-5.4 2.5-1.2-4.4-5.7 2.5-1.7 0-7.1 12.2 4.6-2.8 12.7-1.2 19.7 1.9-2 2.8-6.4 7.6-6-2.2 4.1-6.4 6.8-8.5 11 8 2.2 11.6-11.2 18-3.2 4.5-12.5 6.4 11-3.7 8.6 6.2 3.6-5 8-5.2 13a16 16 0 0 1 18.9-5c-4.1 5-20.1 9.8-6.6 12.4-1.5-4 11.9-13 14.8-8-13.6-.4-3.6 19-19 19.3-4 7.7 9.4-1.7 9.5 5-5.4 4.2-13.5 5.3-19.4 7.7 5.2 6.6 8-4.7 12.8 4.3 4.3 7-3 8.5-9 10 1.8-4.2-1.8-2.5-3.2-.1 0-4.1-2.3-3.6-4-.6 4.1.2 22.6 8.8 11.8 10.6 1.4 3.6 1.5 10.5-.9 3.6-1.9 5.7-9.8 8.5-15.2 6.1.8 5.8 5.5 12.2-3.2 10.4 3.8 5.4-4.1 2.2 1.5 6.4-3.3 3-7.3-.3-11 1.5 3.8 3.6 12.2-.5 12.2 8 1.6-3.3 3.3-5 2.2 0 2.5-3 4.4-4 7.6-3.7 1 9.2 3-2 6.2-2.9 1 4.1-1.2 3.3.2 8.3-3.2-5.6-5.9 8-10.8 1.6-5 0-10.7 4-15.9 1.8-7.2 1.6 4.9 4.4-3.2 6.3 3.4 4.5 3 9.5 2.6 16-9-4.5-18.1-20-31.1-16.7 2.1-5.8-13.6-5.3-13.4-8-4.2-1.8-19.7 1.7-10.4-9.5 1.8 3.7 7.8 8.7 7.9 1.8 6.8-1.5 9.7 9.6 16.8 9.1 2.1-2.8.6-6-.6-8.9 3.7 1.3 12.3 3.7 11.4-2.8-1.2-7.1 10.7-2.5 9.7-9.5-.4-7.4 8.6 3 12.7-.8-2.5-3-9.7-14 0-12.3 8.6-.5-5.2-10.4 3-11.5 6-.6 3.1-5.9 1.3-9.2 5.7 1.2 13.2-.5 7.9-6.9 4.6-3.6-3.8-10-4.2-14.8 3.2.4 7 3.2 10 .8-.8-4.3-6-6-7.8-9.8 2-.2 6.5 2.1 5.4-1.7-7-3.6-16.6-4.4-21.7-10.5 6-2.7 11.8 2.9 17.1 5.2-1.2-3-5.4-3.8-6-7 3.6.6 12.7 2.3 10.2-3.4-3.7 7.2-12.4-1.6-18.3-1.4 4.3-5.1 11 0 16.3.7-3-3.5-8.2-3.3-12-5.1.4-4.6 3.4-8.3 6.2-11.7-7.2 3.6-15.4 1.2-22.6-1.3 6-4.3 13.6.7 20.3 1.2-2-3.7-7.9-2.1-11.2-4 1.4-3.2 7.6-2.6 8-6.4.8-6.8-8.8-1.7-12.7-1.4 1-3.2 4-5.2 6-7.7"/><path fill="#fbd662" d="M362.8 208.4c16.2-3-4 7.7-7.9 5.6 0-3.5 5.3-4.3 7.9-5.6"/><path fill="#fe7531" d="M452 211c-.8-8.4 7.1 9.5 9.7-.2 2 5 6-.2 10 4.4-4.1-4.9 3.5-3.4 5.3-.5 2.8-8.4 3 5.5-2.2 3.8.7 7.7-11.5 1.1-9.6 9.6 4.2 2.1 12-9.8 15.1-1.5-4-1.8-2.8 1.5-2.1 4.2-1.5-4.6-4.5-.8-3.5 2.3-2-2.6-5.8-1.4-6.5 1.7 5.5-2.3 2.4 2.7-.7 3.8 0-1.9-1.2-7.2-3.5-4.1-2.4-1-5.3-3.7-1.1-4.4 3.3-5.5-13.1-5.2-3-6.3-3-3.9-12.3-10.7-7.9-12.7"/><path fill="#c84c0d" d="M144 209c9.3 21.5 21.3 42.5 40.4 56.6 4.7 1 0 6.6 3.5 7.6 9.1 7 14.1-4.7 21.5-5.9-2 5.2-11.9 16.4-16.6 15.7 3.7-6-4.1 3.3-6.5-2.4-17.5-15-33.6-33.4-41.2-55.6q-.3-4.3-2.2-8.1a9 9 0 0 1 1.1-7.8"/><path fill="#dea006" d="M289.2 214c13-7.2 19.8 11.3 22.8 19.7 4.6-5.6 6.7-22.3 18-14.8-4.6 5.5-12 10.3-12.8 17.9 8.8-2.9 17-8.2 26.5-8l.9 2.2c2.3 9.5-19.2 1.4-23.6 10.2 14.4-2.2 32.5 7.7 32.4 22.6-7.5-10-19-25.4-32.3-18.2 19 5.7 22 27.9 21.9 44.7-5.2 5.8-5.7-6.1-5.3-9-1-12.5-5.5-31-19.4-34.4 6.3 15.3 11.9 31.8 6.5 48.5 1.6 5.1-8.7 3.9-6.4-.8 4.7-15.2 3.1-34.8-6.3-46.5-5.4 15.4-12 31.6-17.5 47.1-3.7.6-5-2.4-4.1-5.6 3.7-14.7 11.8-28 16.3-42.2-16-9.2-30.1 8.1-33.8 22.6 6.8-1.2 8.4-12.8 16.4-9-.1 7.8-1.4 19-3 23.9-5.4-2.1-3.8 13.1-8 7 2.4-4.7-3.4-9.8-5.6-14-6.3 2-4 11.6-12.5 11.5-7.1 4.4-1.2-5.9-4-9.1 7.5 1.5 1.6-.9.5-4.8 2.7-.4 6.8 1.6 7.5-2.3 3.6-9.9 12.7-16.5 16.8-26.1a33 33 0 0 1 23.5-4.3c2.2-5.4-5-5.6-8.2-7.1a28 28 0 0 0-36.5 6.2c3.6-9 12.6-18.5 23.3-15.4 8 2.4 14.8 7.8 22.7 10.4 2.2-9.8-11.3-16.5-16.7-22.8"/><path fill="#e6af32" d="M392.5 215.3c6.2-.8-3.7 5.3-6.4 4.9-6-.4-17.8 6.1-21.2 1 8.9-2.5 19-1.6 27.6-5.9"/><path fill="#f7cf55" d="M227.3 215.8c6-.2 11.2 4 17 4.3 11.3 6.9-.5 5.6-7 .4-3-2-7.8-2.1-10-4.7"/><path fill="#bd0400" d="M142.9 216.9q1.8 3.8 2.3 8c-3.4-1.3-3.5-5.1-2.3-8"/><path fill="#dbaf6c" d="M347 232.9c8.6 3 12.8-20.4 16.1-14-5.5 4.5-6.7 12.3-13 16.2 6.1 5.3 11.1-4.6 15.5-10.5-1.6 8.2-9.2 13-11.7 20.8-2-4.3-4.7-8.3-6.9-12.5"/><path fill="#f5bb31" d="M222 223c3-1.3 6.6-3 9.3-.4-7.3 4.5-13.3 10.6-20.4 15.3 1.8-6.2 6.7-10.6 11.2-15"/><path fill="#d15416" d="m131 228 4.9-4c13 24 27 52.6 55.8 61.2 5.8 2.4 10.8-2.9 16.3-4-1.7 3.9 2.2 9.5-3.8 9-5 8.6 7.8-1.9 14.8 3.5-4 3-9 2-13.4.6 5 7.6 12.6 2 18.5-1.1-3 8.4-15.1 12.5-23.3 10.1.2 1.8 1.5 3 3 4-6.7 3-13.8-5.2-21-5.6-2.4-2.8-5.8-5.2-9.6-5l-7-3c-.4-1.3-1.9-2.3-3.2-1.6a17 17 0 0 1 5-6.3q.8 3.8 4.2 2.2c5.7 3 17.6 9 22.4 5.3-29.5-11.7-47.8-39.3-63.6-65.3m5.3 1.3c-2 5 4.2-.7 0 0"/><path fill="#eeca4f" d="M372.2 228.2c3.2.8 8.1 2.6 9.6 6-2.8-1.6-12.5-2.2-9.6-6"/><path fill="#bb1800" d="M136.3 229.3c4.2-.7-2 5 0 0"/><path fill="#f2ce5f" d="M397.4 230.4c1 .6-2.1 9.3-5.8 7-2-3.4 3.4-5.6 5.8-7"/><path fill="#ddb06b" d="M354 245.4c5.8-2.9 7.4-10.1 12-14.4-.5 4.5-4.6 7.5-5 12 3.4-.4 4-4.8 6.5-6.5.7 3.1-13.3 22.5-13.6 8.9"/><path fill="#eaba33" d="M233.4 238.4c3.1 4.7-12.8 16-19.2 12.9 8.2-1.7 12.5-9 19.2-13"/><path fill="#f2ce61" d="M238.3 238.2c3.4-.4 7 0 9.8 2-2.7 1.7-11 3.3-9.8-2"/><path fill="#d39d07" d="M264.2 248.6c6-5.8 22.4-14.3 16.9-1.5-9.5 5.6-15 17-19 26.4-15.5 1.7-8.5-21.9 2-24.9"/><path fill="#e9cf91" d="M378.5 241.3c7.9-1-10.3 13-12 13.2 4.5-3.9 6.8-10.3 12-13.2"/><path fill="#edb735" d="M212.2 243.3c.2 2.6-7 12.8-12.2 13.6a27 27 0 0 1 12.2-13.6"/><path fill="#e2b26e" d="M366.5 244.4c.8 2.1-11.2 18-11.3 7.9 5.3 1.4 7.4-5.7 11.3-7.9"/><path fill="#f35816" d="M0 246.7c5-.5 10-1.4 15-1.7 11.6 8.6 14.8 17.9 23.8 27.1-6.7 2.1 8 10.2 8.4 15.4-1.5 9.9 1.8 11.3 6.3 19.3.4 3.4-2.2 4.4-3.7 6.2-18-7.2-20.4-28.4-34.4-39.5C17 261.3 1 259.1 0 247.7z"/><path fill="#f50c01" d="M15 245c19.7-2.3 38 6 55 15 2.4 4.1 6 7.2 8.9 11-10.3-3.6-21.3-1-31.5-5.6-6.7-3.7-4.7 4.4-.8 4 16.7 7 37.5 17.1 45.3 31.7a316 316 0 0 0-31.3-13.7c-2-1.2-3.4 1.4-1.6 2.7 11.2 10.2 30 12 33.2 23.5 8.4-2.6 7.6 9.7 12.7 13.4-7.5-1.4-19.8-6.2-24.2 2.9 1.4 3.6-.9 12.3-2.7 5 3.4-10.3-8.3-6.8-13.6-10-5-3.7-9.3-8.5-14.6-12 1.5-1.7 4.1-2.7 3.7-6-4.5-8.1-7.8-9.5-6.3-19.4-.5-5.2-15.1-13.3-8.4-15.4-9-9.2-12.2-18.5-23.8-27.2"/><path fill="#bd2c02" d="M118.8 245.5c15 13 29 32.3 49.3 40.3a17 17 0 0 0-5.1 6.3c-17-10.7-34.5-23.5-44-41.4z"/><path fill="#e6d39a" d="M243.1 245.3c4 2.8 4.9 12.6 7 18.5-3-4.9-6.3-12.2-7-18.5"/><path fill="#815c0b" d="M273 270c3.7-14.5 17.8-31.8 33.8-22.6-4.4 14.2-12.6 27.5-16.3 42.1-1 3.3.4 6.3 4.1 5.7 5.7 1.6 11.3-1.3 11.6-6.9 7.4 0 10.6 18.4 16.8 10.7 1.7 4 6.5 3.5 10 4.4a29 29 0 0 0-11.8 15.7c10.4-1.1 14-27 17.6-5.1-1.5 2.5-4 4.3-6 6.5-3.2 2 1 5.4 1.2 8.2l-2.1 6.4c-2-5.4-8-20.7-5.9-8-2.6 1.7-4.8-1-7-2 .7 5.8 4.8 12.6 1.2 18-7.5 2.2-5-26.1-10.5-13.7 1-5-6.8-9.7-6.8-2.6-.6 3 .8 19.1-3.4 9.7-1.6-11.1-1.4 4-6.4 1.3-3-8.5.3-17 2.9-25 8 18.4 6.7-5.4.1-10.5-4.4-1.2-3 2.7-2.2 5.4-2 1.4-4.6 2.8-3.1 5.6 0 8.6-4.6 6.2-1.7-1.5-5.5 5.7-6.7 22-.8 19.4-4.4 6-5.8-5-5-8.3.2-3.2 4.4-14.5-1.1-8.5-7.9-4.9-6.2 5-10.5 10.6 1-9.7 6.8-23.8 13.4-13.8-4.4-8-5-19.2 1.3-26.3 1.6-4.8 2.9-16.1 3-24-8-3.7-9.6 7.9-16.4 9m36 35.5c.4 6 1.5 13.6 6 17.7-2-5.5 0-16-6-17.7"/><path fill="#ab0100" d="M78.3 253.7c-3.3-1 2.9-7 3.7-1.5 15.8 9.2 27 24.8 41.2 35.5 2-1.7-1.8-5.8-.4-8.6 11 10.4 19.2 25.4 32 32.7-8.2 2.4-10.7 12.1-14.5 18a227 227 0 0 0-41-47.8c2.4-3.3-3.6-3.1-3-6 1.7-.3 6.6 2.3 5.2-.6-7.5-7.4-13.4-17-23.2-21.7"/><path fill="#f4dc7d" d="M375.4 251c7.2-1.2 18 1.2 21.3 8-6.9-1.9-17-4.6-21.3-8"/><path fill="#ae0201" d="M543.1 255.9c5-2.3 12-1.7 17.7-3.8 7.5 9.6 14.9 26.1 2 34.9-14 23.4-6.8 55.1-28.3 74.8 4.7 11.7-3.7 27.2-5.2 37.2 7.1 4.6-2.2 16.9 2.6 23 13.9-9 23.6-24 36.4-33.7-10 14.1-23.8 25-36.1 36.9-3.8 8.2-2 21.2-13.3 23.7-7 6-22.5 2-25.7 10.8-1.9 2.4-3.6-3.2-5.2-4.5 5.8-6.1 6.9-17.4 14.4-15.6 9.7 2 10.6-11 18-15.4 7.8-26.7-40.8-16.7-32-41 2.7-1.8 10.7 4.6 9.2-3.4-2.8-8.4 8.2-4 4.8 2.3 5.8-2.5 3.6-17 1.4-20.8 6.6 2.9 2.4-9.8 9.7-8.2.8-9.5 9.4-1.4 13.1-7-7-4 1.7-6.4-.1-12.3 5.3-18.1 18.7-30.3 29.9-45.3-1.7-5.7 5.4-5.6 7.5-9.4-5.4-2.8-2-18.4-9.2-8.4-5-2.1-3.5-13.6-11.6-14.8"/><path fill="#f2db85" d="M238.5 253.3c8.5-.2-11.9 11.2-14 11.2a41 41 0 0 1 14-11.2"/><path fill="#6d0500" d="M543.1 255.9c8 1.2 6.7 12.6 11.6 14.8 7.1-10 3.8 5.6 9.2 8.4-2.1 3.8-9.2 3.7-7.5 9.4-11.2 15-24.6 27.2-30 45.2 2 6-6.7 8.4.2 12.4-3.7 5.6-12.3-2.5-13 7-7.4-1.6-3.2 11-9.8 8.2 2.2 3.7 4.4 18.3-1.4 20.8 3.4-6.3-7.6-10.7-4.8-2.3 1.5 8-6.5 1.6-9.2 3.4-8.8 24.3 39.8 14.3 32 41-7.4 4.4-8.3 17.5-18 15.4-7.5-1.8-8.6 9.4-14.4 15.6-6.4-9.4-19.3-12.5-26-20 19 3.3 45.2-2.7 55-20-19.4-11.7-42.2-21.4-65.6-15.9-1.1 5.1 8 3.2 9.8 7.8-20.3 17.8-51.3 22.6-63.9 49-16.5 1.6-33 1-48.7 7.8-24.1 2.6-48.6-20-71.9-4.2q-2 1-3.6 2.5c-7 5-12 11.2-13.8 19.9 2 12.4 14 17.2 23.5 23.1 7.8 16.1 29.1 9.2 37.6-3 14.2 2.4 22-7.7 32-15 6.2 3.6 14.4-1.7 19 1.8-5.6 5.1-13.4 1.3-19.8 1.8-8.5 8-16.4 17.6-29.8 14.7a47 47 0 0 1-28.5 24c-9.4-3.5-13.5-13.4-21.2-18.7-15.9 4.2-13.4-20.5-28.2-21 9.4-6.7 14-17.7 23.2-24.7-13-4-22.8 10.3-36 7.8-13.6 1.2-25-6.6-36.1-12.8-5-8.2 9.4 4.3 13-.1 4.7-3.6 9.1 3.8 13.2 1.2.6-9.4 11.5 2.6 14.7-1.1-.3-4.3-7.8-5-5.6-10.6 3.7-4.6 14 9.3 13.3-.3-3.8-7.3 2.3-4.9 5.2-2.4-3.5-21 18.6 15.2 18-4 1.6-10.3 9 8.4 15.3 4.4 6.5.1 13.2-9.8 18.6-5.8-3.6 10.6 8.2 7.5 14.4 3.8 5.7-4.6 10.7-10.2 18.3-11.8.4 6.4-7.1 10.7-7 16a81 81 0 0 0 31.7-7.5c1.8-1 6.5-1.5 5.7 1.7A65 65 0 0 1 339 458c-3.8.3-1.7 7.4 2.9 3.1 27.7.6 47.2-22 69.7-34.4 10.3-7.3 27-1.7 33.4-15-6.4-11-23.3-14.5-33.4-5.6-5.8-6.4-16.6-8.8-18.7-18-.7-3.2-4.2-3.5-6.8-4.3l-6-6.1c-4.4-6.9-7.3-17-17.1-17-12 1.8-21-5.4-29-13-5-2-10 2.6-14.8 3.7-5 .2-9.8-.2-14.7-.4-5.1-6-12.7-7.8-20.3-7.8-3.3-4.1-4.7-10.8-10.3-12.3a22 22 0 0 0-5-.8h-1.6c-4.3-.7-5.7-5.1-7.5-8.4 2-1 2.7.4 3.2 2 7.8-6 1.7 11.3 8.6 1.3 4.3-5.6 2.6-15.5 10.5-10.6-1.4 5-3.9 9.6-5 14.7 3.6.3 4.7-3.5 6-6.2-.7 3.2.7 14.3 5 8.3 1.3-5.3 7.5-14 2.6-17.9-1.5-2.8 1.1-4.2 3.1-5.6l.2.8c-1.4 1.5-.6 4 1.7 3.6l.2.7c-2.6 8-5.9 16.5-2.9 25 5 2.6 4.8-12.4 6.4-1.3 4.2 9.4 2.8-6.7 3.4-9.7 2.2 5.5 1.5 14 6.3 17.3q.7-6.5 1-13c3.5.2 1.7-4.8-.5-1.7 5.6-12.4 3 15.9 10.5 13.8 3.6-5.5-.5-12.3-1.2-18.2 2.2 1 4.4 3.8 7 2 .6 5.5 11.1 20.7 5.9 8l2-6.2q3 2.8 5.1 6.1l-1 2c-9.2 11.2 6.3 7.7 10.5 9.4-.2 2.8 15.5 2.3 13.4 8.1 13-3.3 22.2 12.2 31.1 16.6 3 6.2 3 9.2 11.2 10.6 28 .3 41.8-29 66-37.4 3.4-1.5 3.4 3.2.4 3.4-21.5 11-37.5 31.5-61.3 38.6 1.8 4 19-2 12.7 7-2.4 2.4 2.5 6.6 3.1 2.4 10.2 6.9 24.6 4.1 35-1.6 18.9-10.2 33-29 36.5-50.4 5.5-15 10.4-34.7 27.3-40.6-7 12.4-18.5 23-21.1 37.7 23.6-4.2 24.7-31.3 42.1-43.4 4.6-3.6 8.7-10.2 3.2-15.2-6.5-6.4-1.4-15.5-4.1-23z"/><path fill="#efc144" d="M206.8 257.4c33.5.3-29 8.2 0 0"/><path fill="#fd601d" d="M522.8 262.8c7.8 3.3 14-4.7 21.2-3.8 2.7 7.6-2.4 16.7 4 23.1 5.6 5 1.5 11.6-3.1 15.2-8-11.8-16.6 4-29.4 1.2 2.1 2.4 1.3 5.9-2.3 5.3-3 2.8-4 9.1-9 10 1.2-12.4 6-21.7 14.6-30.4 11.2-5 19.4 6.6 30.5 6.3-5.5-6.2-4.9-11.8-12.5-10.8-3.5-8.4-11-1.4-12-8.2-5.5 3.7-12.6 7-16.2 14-7.4-1 1.7-7 2.3-10.8 2-7.6 17-4.7 12-11.1"/><path fill="#e4d193" d="M219.2 259.3c8.9 4.5-3.7 11.1 0 0"/><path fill="#f3bb33" d="M372.5 259.2c8.2-.6 11.8 9.4 14.6 15.7-3.8-4.4-16.1-10.8-14.6-15.7"/><path fill="#e8bb4b" d="M192.2 269.1c3.8-1.5 7.7-2.9 12-1.9-3.4 6-10 6.8-16.1 5.2 0-2.2 2.5-2.6 4-3.3"/><path fill="#f9ecaf" d="M212 267.1c9.5.5.7 9.3 0 0"/><path fill="#f4d052" d="M243.6 267.5c13.4 1.2-17.5 10.5-17 5.3q8.3-3.5 17-5.3"/><path fill="#f0ba31" d="M391.4 268c8.4.9 15.2 10 16.8 17.9a54 54 0 0 1-16.8-17.9"/><path fill="#f4c85d" d="M369.4 269.4c1.3 6.7-10.7 13.8-16.2 17.7a86 86 0 0 1 16.2-17.7"/><path fill="#780300" d="M90 278.6c-1.4-2.7-10.2-5.8-6-7.8q8.3 4.7 15.2 11.2c15.8 14 29.8 30 41.1 47.9 3.8-6 6.3-15.7 14.5-18.1-12.9-7.3-21-22.3-32-32.7q-1.2-1.5-2-3c3.6-7.3 8.3 3 11 6 8 6 15 14.7 23.6 18.7 1 5.4 10.3 3.8 6-1.7 6 .8 12.1 7.4 18.3 4.3-5-3 .2-4 3.2-1.7 7.1.3 14.2 8.5 20.8 5.5 15.5-3.1-3.7 4-6.8 7.8-7.3-4.6-14.8-9.2-23.5-6.5-10.4-6.6-12.2 10.8-22 8.7-6 4.2-6.7 13.2-9.3 19.7-7 5.6-12.5-3.8-17.6-7.6-6.6-.2-13.7 1.7-19.6-2.3-5-3.7-4.3-16-12.7-13.4-3.1-11.6-22-13.3-33.3-23.5-1.7-1.4-.2-3.9 1.7-2.7q16.1 6 31.3 13.7c3 2.8 6 5.6 9.9 7-6.4-15.6-25.2-21.7-35.6-33 12.8 4.5 24.2 13 35.5 20.1-1.8-6.9-14-9.6-11.6-16.6"/><path fill="#f0c762" d="M218.5 273.5c3.4 1.4-6.7 11.1-8 14.6-1.3-6 2.7-12.1 8-14.7"/><path fill="#edbd44" d="M248.7 299c-.3-7.7-1.1-20.4 4.1-26 1.3 7.3 2.7 20.1-4.1 26"/><path fill="#f6cb47" d="M246.3 274.1c6.6 2.8-1.5 16.1-1.3 22-3.6-6-2.1-15.6 1.3-22"/><path fill="#edc658" d="M376 283.2c1 13.7-10.7-4.7-3-8.3a29 29 0 0 1 3 8.3"/><path fill="#f4ca4f" d="M229.4 276c2.8 2 .3 15.2-5.3 14.8.4-5.1 1.3-11.2 5.3-14.7"/><path fill="#e9c561" d="M376 283.2c2.7-5.7 15.6-5.8 22-3-1.6 4-8.6 1.4-12.1.8 4 4.3 9.7 7.3 11.8 13.3-6-5.6-12.4-13-21.7-11"/><path fill="#f0c84d" d="M233.9 279.2c5.4 3.3 4.7 13 7 19-4.5-4.5-6.3-12.6-7-19"/><path fill="#cfa74a" d="M356.6 288.5c3 5.9 8.6-.9 13.4-3.4 7.5 7.6-14.6 7.5-7 15 5 9.7-7.7-5.1-11.1-6.5-.6-7.4 8.7 4.2 4.7-5.1"/><path fill="#f6cb4f" d="M383.2 285.3c5.7 3 13.6 8.5 16.8 14.6-6.6-2-19.7-6.9-16.8-14.6"/><path fill="#b52801" d="m168 285.8 4.2 2.2q-3.5 1.5-4.1-2.2"/><path fill="#f0c14b" d="M218 286.3c15.4 4.5-15.1 8.5 0 0"/><path fill="#eec95d" d="M263.5 289.4c4.6-.3-9.8 13.6-13 12 2.9-5 8.1-9 13-12"/><path fill="#ab3300" d="M163 292c1.3-.6 2.8.4 3.1 1.7-1.4.5-2.8-.3-3.1-1.6"/><path fill="#f4d158" d="M333.3 300.1c.2-22.6 8 18 5.5 13.9-3.6-22-7.3 4-17.6 5.1a29 29 0 0 1 11.8-15.7c-3.5-.9-8.3-.5-10-4.4 3-2.5 10 5.4 10.3 1.1"/><path fill="#e5be39" d="M337.1 291.7c4.1 7.4 3.9 17.7 6 26-4-7-5-17.3-6-26"/><path fill="#d8ab3a" d="M374.3 292c10.7-.4 9.2 19.5 6.9 25.9-6.3-5-9.4-18.4-6.9-25.8"/><path fill="#f5c345" d="M227.4 292.7c2 6.6-1 13.8-1.7 20.5-.8-6.1-2.5-14.8 1.7-20.5"/><path fill="#eeb13b" d="M230.2 293.1c2.9 2.6 2.8 16-2.3 18.8q1.7-9.3 2.3-18.8"/><path fill="#f3c74b" d="M364.5 306.5c-3 .7-19.8-10-12.6-12.9 3.6 4.9 8.2 8.9 12.6 12.9"/><path fill="#ebbd41" d="M233 310.8c2.8-5.8 9-10.7 15.7-11.8-4.8 3.7-10 9-15.8 11.8"/><path fill="#efc253" d="M260.3 301.3c.8 3-1.3 14.7-8.6 14.5 3.4-4.5 3.3-12 8.6-14.5"/><path fill="#eac05b" d="M264 301.3c.2 3.2 4.5 15.3.4 17.7-2.2-5.3 0-12-.3-17.7"/><path fill="#fac944" d="M294 307.7c-.9-2.7-2.3-6.6 2.1-5.4 6.6 5.1 7.8 29-.1 10.5l-.2-.7a8 8 0 0 0-1.7-3.6z"/><path fill="#f8cb46" d="M309 305.4c6 1.7 4 12.2 6 17.7-4.5-4.1-5.6-11.7-6-17.7"/><path fill="#deb74b" d="M346.4 304.9c8 2 16.7 7 19.6 15-7.8-3.6-2.8.5.8 3.3-10-1.7-26.2-11.4-20.4-18.3"/><path fill="#f10400" d="M151.5 317.2c9.7 2 11.5-15.3 21.9-8.7 8.7-2.7 16.2 2 23.5 6.5l.5 1.5.5 1.5 1.3 4.7c-2-1.7-3.7-3.9-6.3-4.6 1.5 28.8 11.3 56 22.8 82.1 8.5 11 13.7 24.1 23 34.7 4.2 1.3.3 8-2.2 4.6-11.2-6.3-12.5-21.7-22.4-28.5a90 90 0 0 0 20.2 33.3c-6.1 1-7 3.7-7.5 8.6-15.6-15.8-23.6-39.2-35-58.8-12.4-24.6-22.5-50.5-37.2-73.9-7.6.3-7.5 12.6-9.4 18.8l-3.1-2c2.6-6.6 3.2-15.6 9.4-19.8m15-6.8c-4.2 2.7-11.2 8.2-6 13 9.7 14.2 14.6 32.6 24.5 45.6-3-14-5.3-28.2-8.7-42 2.5-6.8-1.7-17.5-9.8-16.6"/><path fill="#704500" d="M294.1 308.5q1.2 1.6 1.7 3.6c-2.3.4-3.1-2.1-1.7-3.6"/><path fill="#900000" d="M166.5 310.4c8.1-1 12.3 9.8 9.8 16.6 3.4 13.8 5.7 28 8.7 42-9.9-13-14.8-31.4-24.5-45.5-5.2-5 1.8-10.4 6-13.1"/><path fill="#e2b644" d="M365.3 311c7.5 1.3 12.1 8.8 16 14.8-2.6-1.2-5.5-3.2-2.8.7-4 4.5-14.8-12.6-5.5-6.4-1.3-4-7-5.1-7.7-9.1"/><path fill="#f3c953" d="M282.2 314.4c5.5-6 1.3 5.3 1 8.5-1.3 2.7-2.4 6.5-6 6.2 1.1-5 3.6-9.7 5-14.7"/><path fill="#eab73f" d="M288.3 331.2c-5.9 2.6-4.7-13.6.8-19.4-2.9 7.7 1.7 10.1 1.6 1.5 5 4-1.2 12.6-2.4 17.9"/><path fill="#e5982a" d="M384 312.4c4.3 1.6 6.7 8.7 10 12.7-5.7-1.7-12-5.8-10-12.7"/><path fill="#fb1202" d="M229 321.9c7.4-5.9 16.9-14.5 24.2-2.2-9.2-2.5-.3 12.2-1.6 16.4-3.9.8 1.4 2.8-1.3 5.8 8.2 5.3 8-10.6 17-11.8h1.7c5.5.2.7 4.8-2.3 5.1-6.9 1.5-3.3 13.2-9.8 14 1.5 11.3-4 25.2-1.4 37.5-.3 4.8 4 12.3-.5 15.4-3.1-6.4-2.4-14.2-6.2-20.2-3.7 6.6.1 16.2.9 23.7-4.5 8.2 2.7 17 2.9 25-2.6 7.6-9.4-9.3-8.9-1.4 4.2 4.5 3.2 11-1.7 4-15.6-22-20.1-49-28.2-74.1 4.3 10.2 8.7.1 2.3-2 2-3.1-1.7-9-4.9-15-1.4-7.3 9.5 3.8 5.6-2.8.3-6.7 7.5 4 2.5 5.8 6.2-3 17.6-.5 10.5-9.4 2.8-2.7 3.4-10.9-.8-13.8m-14.6 20.3c.2 4.5 4.6-1 0 0"/><path fill="#731400" d="M197.4 316.5c6 0 11.2 3.4 17.8.6-5.4 2-12 4.7-17.3 1z"/><path fill="#fe611d" d="M215.2 317c5.5-1 8.2 7.9 13.8 4.9 4.2 3 3.6 11 .8 13.8 7.1 8.9-4.3 6.4-10.5 9.4 5-1.9-2.2-12.6-2.5-5.8 4 6.6-7-4.5-5.6 2.9 3.2 6 6.8 11.8 4.9 14.8 6.4 2.2 2 12.3-2.3 2a132 132 0 0 0-14.6-36.3L198 318c5.2 3.8 11.9 1.2 17.3-1"/><path fill="#730000" d="M192.9 318.1c2.6.7 4.3 3 6.3 4.6a132 132 0 0 1 14.6 36.4c8 25 12.6 52.2 28.2 74l-.8 1.7c-9.5-10.2-14-23.6-21.3-35.2-1.4-.6-2.7 1.3-4.2.6-11.5-26.2-21.2-53.3-22.8-82.1"/><path fill="#fd6720" d="M251.6 336.1c1.3-4.2-7.6-19 1.6-16.4 2.3.5 4.6.9 6.7 2 1.8 3.3 3.2 7.7 7.5 8.4-9.1 1.2-8.9 17.2-17.1 11.8 2.7-3-2.6-5 1.3-5.8"/><path fill="#7c0000" d="M145.2 339c2-6.2 1.8-18.5 9.4-18.8 14.7 23.4 24.8 49.3 37.2 74 2.2 8.6 7.4 16.1 9.4 24.8q-2.3-1.4-4.3-3.3a218 218 0 0 0-34-57.4c-3.1 6.1-5.7-5.6-8.9-7.2-2.8-4.2-6.3-7.8-8.8-12.1"/><path fill="#eeb928" d="M336.4 319.8c7.8 1.8 14.3 9.4 16.6 16.8-5.5-4.5-11.3-11.5-16.6-16.8"/><path fill="#fbd04e" d="M326 327c-2.1-12.6 4 2.7 5.8 8 5.3 12.7-5.2-2.5-5.8-8"/><path fill="#f3c747" d="M334 328.8c-.2-2.9-4.5-6.3-1.2-8.3 6 3.9 16.5 28.4 6.2 14.4a36 36 0 0 0-5-6.2"/><path fill="#f8db6f" d="M345.1 321c7.1 1.6 16.4 3.9 19.7 11.1-7.6-1.7-17-2.2-19.7-11.2"/><path fill="#f7ca52" d="M302.9 326.8c0-7.1 7.7-2.4 6.8 2.6l.4 1.7q-.1 6.5-.9 13c-4.9-3.3-4.1-11.8-6.4-17.3"/><path fill="#fe5b17" d="M80.7 329.9c4.4-9 16.7-4.3 24.2-2.9 5.9 4 13 2.1 19.6 2.3 5.1 3.8 10.5 13.2 17.6 7.6l3 2.1c2.6 4.3 6.2 8 9 12.1 3 8.3 7.5 16 10 24.7-6.9-1.4-6.2-6.2-8.7-7-6.5-1-1.5-11.4-11.4-10.7 8.6-3.4-8.7-3.2.6-4.2.8-4.5-11.8-1-6.8-6-5.3-4.2-12.3-8.5-15.5-14.3-12.4 5.2 4.8 9.6 1.8 17.4 5.5-6.1 6.2 10.6 13.8 12.9-7 3.3-15-10-19.6-12-.3-9-21.6-6-16.2-16.8-6.7.6-4.4 1-5.9-4.4-8-2.7-2.9 6.4-2.7 10.4-17.7 1.7 13 .3 3.6 7.8 6.7 2.8 11.5 10.1 15.5 8.8-4.1 6 5.4 5 .8 9.7 2.4-.6 4.8-6.7 6.5-4.5-3.1 6 3.4 2.5 2 8.8 4.3-2.7 4-1 1.4 2.4q7.6 7 15.7 12.1c2.8 10.1-9-7.4-8.4.3-1.8-2.5-7-.6-6.4-3.9-7-5.4-22.2 1.5-23.5-9.7-2.8 3.1-12.6-3.9-16.3-11.1 1.5 4.6-2 4.2-5.4 3.1 9-4.8-3.3-20.8-1-30 1.8 7.3 4.1-1.4 2.7-5"/><path fill="#704500" d="M309.7 329.4c2.2-3.1 4 1.9.4 1.7z"/><path fill="#cb0100" d="M269 330.1q2.5.1 5 .8-.8 3.8-2.8 7.2c-17.8 28.7-16.4 67.2-1.7 96.4 4.2-2.3-4.6-15.2-.7-19.3 8.6 2.6-1.4-15.9 7-13.6-.7 5.5-1.6 12.5 4.3 15.4 6.3 6-4.3 31.4 8.2 26.3 15.8-20.4 26.7-41.8 28.2-67.8-.4-3 2.6-4.5 3.9-1.4-3.5 16 .6 32.3-10.6 45.8-3.5 8.5 8-6.6 5.6.4-4.5 8.6-3.5 16.5-9.3 23.6 9.3-3.2 14-13.4 22-19-1.2 8.5-16.3 13.7-13 20.3-6.2 3.7-18 6.8-14.4-3.8-5.4-4-12.1 6-18.5 5.8-6.4 4-13.8-14.7-15.4-4.4.6 19.2-21.5-17-18 4-2.9-2.5-9-5-5.2 2.4.7 9.6-9.6-4.3-13.3.3-2.2 5.5 5.3 6.3 5.6 10.6-3.2 3.7-14.1-8.3-14.7 1-4 2.7-8.5-4.7-13.2-1.1-3.6 4.4-18-8.1-13 0-7.1-2.6-14.3-5.2-20.3-9.9 7.2.2-1.5-4.8-3-7.8 9 4.3 16 5.5 26.1 9.7.1-5-8.2-4.5-8.4-9.2 4.6-.2 7.3 4.2 11.5 5.3a502 502 0 0 0-72.4-59.3c28.3 9.9 47.8 34.5 71.4 51.8 5.4-3.5 8.3 5 13.1 6.4-7-10-18.1-17-24-28 3.4 1.7 6.1 4.6 9.1 7-1.3-3.5-6.8-8-1.2-10.3q2 1.8 4.3 3.3c-2-8.7-7.2-16.2-9.4-24.9 11.4 19.6 19.4 43 35 58.8.5-4.9 1.4-7.6 7.5-8.6A90 90 0 0 1 214 411c10 6.7 11.2 22.2 22.3 28.5 2.5 3.5 6.5-3.3 2.4-4.6-9.4-10.6-14.6-23.8-23.1-34.7 1.5.7 2.8-1.2 4.2-.6 7.2 11.6 11.8 25 21.3 35.1l.8-1.6c4.9 7.2 6 .6 1.7-4-.5-7.8 6.3 9.1 8.9 1.5-.3-8-7.4-16.8-3-25-.7-7.5-4.5-17.1-.8-23.7 3.8 6 3 13.8 6.2 20.2 4.5-3 .2-10.6.5-15.4-2.7-12.3 2.9-26.2 1.4-37.5 6.5-.8 3-12.5 9.8-14 3-.3 7.8-5 2.3-5"/><path fill="#fa0d01" d="M93.5 341.1c-.2-4-5.3-13.1 2.7-10.4 1.5 5.4-.8 5 6 4.4-5.5 10.7 15.8 7.9 16.1 16.9 4.6 2 12.7 15.2 19.6 11.9-7.6-2.3-8.3-19-13.8-12.9 3-7.8-14.2-12.2-1.8-17.4 3.2 5.8 10.2 10.1 15.5 14.3-5 5 7.6 1.5 6.8 6-9.3 1 8 .8-.6 4.2 9.9-.7 5 9.8 11.4 10.7 2.5.8 1.8 5.6 8.7 7-2.5-8.7-7-16.4-10-24.7 3 1.6 5.7 13.3 8.8 7.2a218 218 0 0 1 34 57.4c-5.6 2.2 0 6.8 1.3 10.3-3-2.4-5.8-5.2-9.2-7 5.9 11 17 18 24 28-4.8-1.4-7.7-10-13-6.4-23.7-17.3-43.2-41.9-71.5-51.8a502 502 0 0 1 72.4 59.4c-4.2-1.2-6.9-5.6-11.5-5.4.2 4.7 8.5 4.2 8.4 9.2-10.1-4.2-17-5.4-26-9.7 1.4 3 10.2 8 2.9 7.9-6.8-5.3-15-8.6-23.6-9.1-24.8-6.4-38-30-56.9-45.3-7.2-12.3-21-19.1-27.9-31.2-.1-7.7 8.8 0 12.7.3 3.4 1 7 1.5 5.4-3.1 3.7 7.2 13.5 14.2 16.4 11.1 1.2 11.2 16.5 4.3 23.4 9.7-.6 3.3 4.6 1.4 6.4 4-.6-7.8 11.2 9.7 8.4-.4q-8.2-5.2-15.7-12c2.6-3.5 2.9-5.2-1.4-2.5 1.5-6.3-5.1-2.8-2-8.9-1.7-2-4 4-6.5 4.6 4.6-4.8-5-3.6-.7-9.7-4.1 1.3-9-6-15.6-8.8 9.4-7.5-21.3-6.1-3.6-7.8"/><path fill="#fe6b26" d="M274 330.9c5.6 1.5 7 8.2 10.3 12.3-2 2.4-1.8 9.2-6 5.7 3.8 4.5-.5 3.6-4.3 4.1 7.2 1.2 4.8 4 .4 1.7 3.2 4.7-4.7 13.5-9.3 8.2-1.5-7.5 6.3-16.3 6.1-24.8q2-3.4 2.7-7.2"/><path fill="#f1ca50" d="M353.2 331c6 1.4 15 2.3 17.7 8-5.8-2-16.4-.6-17.7-8"/><path fill="#fb0901" d="M269.5 434.5c-14.7-29.2-16-67.7 1.7-96.4.2 8.5-7.6 17.3-6 24.8 4.5 5.3 12.4-3.5 9.2-8.2 4.4 2.3 6.8-.5-.3-1.7 3.7-.5 8 .4 4.2-4 4.2 3.4 4-3.4 6-5.8 7.6 0 15.2 1.7 20.3 7.8-7.6 3.2-9.6 14.9-9.2 18.7 2 2.4-7 9.4-.4 13.3 5.2-6.1 3.1-17 9-22.7 4.1 4.3.1 12.5.9 18 7 1.3 3.5-11.5 7.8-13.4 2 2.2-1 6.2 1.8 7.6-.2-8.2.9-15 4.8-21.1 4.8-1.1 9.7-5.7 14.8-3.8-4.8 4.4 3 6.2 4.8 9.6 4.2 8.4 3.2 18.1.2 26.6 5 8 5.6-18.7 10-5.2 3-5.9 7.6-18 18-14.8 1.4 11 2.9 11.5-.7 22.8 2.3 3.2 8.7-.6 4.7-4 3.8.7 6.4-2.7 9-4.9l6.1 6.1c-4 8.9-6.5 20.6-10 30.8 8.5-1.8 9.1-17.1 18-21.3 4.5 10.2-5.2 11.1-7.8 18.7 8.3 2 20-3.8 26.3 2.5 5.7-4.1-1.2 3 4.4 2 4.4-.6 8.4 3.3 12.7 1.4-3.2-7-13.2-5.7-18.1-11.8 10-8.9 27-5.4 33.4 5.7-6.4 13.2-23.1 7.6-33.4 15-22.5 12.4-42 34.9-69.7 34.3-4.6 4.3-6.7-2.8-3-3.1a65 65 0 0 0 24.8-14.4c.8-3.2-4-2.8-5.7-1.7-9.8 4.8-21 7.1-31.6 7.6-.2-5.4 7.3-9.7 6.9-16.1-7.6 1.6-12.6 7.2-18.3 11.8-3.3-6.6 11.8-11.8 13-20.2-8 5.5-12.7 15.7-22 19 5.8-7.2 4.8-15.1 9.3-23.7 2.4-7-9 8-5.6-.4 11.2-13.5 7.1-29.9 10.6-45.7-1.3-3.2-4.3-1.7-4 1.3-1.4 26-12.3 47.4-28.1 67.8-12.4 5-1.9-20.3-8.2-26.3-6-2.9-5-10-4.2-15.4-8.5-2.3 1.5 16.2-7.1 13.6-3.9 4.1 4.9 17 .7 19.3"/><path fill="#ff5b19" d="M214.4 342.2c4.6-1 .2 4.4 0 0"/><path fill="#fd6b22" d="M334.2 347.6c7.9 7.7 17 15 28.9 13 9.8 0 12.7 10.2 17 17.1-2.6 2.2-5.2 5.6-9 4.9 4 3.4-2.4 7.2-4.7 4 3.6-11.3 2.1-11.9.6-22.8-10.3-3.2-15 9-18 14.8-4.3-13.5-5 13.1-10 5.2a34 34 0 0 0 0-26.6c-2-3.4-9.7-5.2-4.9-9.6"/><path fill="#fe6018" d="M304.6 351c4.8.2 9.7.6 14.7.4-3.9 6.2-5 12.9-4.8 21-2.9-1.3.1-5.3-1.8-7.5-4.3 1.9-.8 14.7-7.8 13.4-.8-5.5 3.2-13.7-1-18-5.8 5.7-3.7 16.5-8.9 22.7-6.5-3.9 2.4-10.9.4-13.3-.4-3.8 1.6-15.5 9.2-18.7"/><path fill="#fa5c19" d="M444.6 378.7c7.7-7.9 16.5-16.9 26.3-23.7 2.2 8-8.1 8.3-4.8 15.8-1.7 10.8-14 5.6-19.2 15.5 9.3 2.2 16.7-3 24.3-8 6.9 1-5.8 3.9-3 7-1.5 3.2-11.7 3.5-8 8.7-10.5 5.7-24.9 8.5-35 1.6-.7 4.2-5.6 0-3.2-2.4 12.1-3.6 10.1-13.2 22.6-14.5"/><path fill="#fe641d" d="M376.2 414.6c3.5-10.2 6-22 10-30.8 2.6.9 6.1 1.1 6.8 4.3 2 9.2 12.9 11.6 18.7 18 4.9 6 14.9 4.8 18.1 11.8-4.3 1.9-8.3-2-12.7-1.4-5.6 1 1.3-6.1-4.4-2-6.4-6.3-18-.4-26.3-2.5 2.6-7.6 12.3-8.5 7.8-18.7-8.9 4.2-9.5 19.5-18 21.3"/><path fill="#f60601" d="M451.4 399.3c23.4-5.5 46.2 4.2 65.7 15.8-10 17.4-36 23.4-55.1 20 6.7 7.6 19.7 10.7 26 20.1 1.6 1.3 3.3 6.9 5.2 4.5 3.5 5.4 8.7 13.5 2.9 19.3-7 9.9-21.3 1-29.5 8.9-10.7 11.3-27.3-2-39 7.4-22 5.7-36.7-15.7-48.8-30-8.4-7.6-4.2 9.6-4.1 13.7 7.5 16-10.3 28.9-18 40.8a364 364 0 0 1-61.4 21.8c-17.6-10.2-39.8 5.6-56.2-8.8-1.1-4.5-6.5-4.8-10.2-6q-5.2-1-10.3-1c-15.2 2.8-37.1 9.4-47.2-6.4 9-15.7 31.3-22.7 49.4-26.7 7.7-.7 15.3-4.6 23.1-2.9 14.8.5 12.3 25.2 28.2 21 7.7 5.3 11.8 15.2 21.2 18.8a47 47 0 0 0 28.5-24.1c13.4 3 21.3-6.7 29.8-14.7 6.5-.5 14.2 3.4 19.9-1.8-.1-9.8-20.5-3.8-26.7-.3-4 9.6-15.3 8.2-23.6 10.3-5.5 2.6-12.4 11.4-18 5.2-2 4.6-5.9 4.4-6-1-8.1 5.6-6.4-10.8-16.6-3.8-6.3-5.2-17.1-9.7-16-19.3 2-6.3 7.8-11.1 8.5-17.8q1.6-1.6 3.6-2.6c9 4.5-7.4 3.5-1 8.5 6.1 3.4-2.3 12 7.2 9.8-4.3-5 5.3-5.2 2.8.7 4-3.3 11 1.5 9.6 6.3 3.5-1.6 10.1-7 11 .2-1.3 6.2 6.5 3 5.9-1.6 12.5 7.5 21.1-8.4 28.3-6.2.7-6.9 16.1-8.3 8-13.5 15.7-6.7 32.3-6.2 48.8-7.8 12.6-26.4 43.6-31.2 63.9-49-1.9-4.6-10.9-2.7-9.8-7.8"/><path fill="#fd4f15" d="M276.7 459.7c23.3-15.7 47.8 6.9 71.9 4.2 8 5.2-7.4 6.6-8.1 13.5-7.2-2.2-15.8 13.7-28.3 6.2.6 4.6-7.2 7.8-6 1.6-.8-7.1-7.4-1.8-11-.2 1.6-4.8-5.6-9.6-9.5-6.3 2.5-6-7.1-5.6-2.8-.7-9.5 2.3-1-6.4-7.1-9.8-6.5-5 10-4 1-8.5"/><path fill="#b80000" d="M259.3 482a31 31 0 0 1 13.8-19.7c-.7 6.7-6.5 11.5-8.6 17.8-1 9.6 9.8 14.1 16 19.3 10.3-7 8.6 9.4 16.6 3.7.2 5.4 4.1 5.7 6 1 5.7 6.3 12.6-2.5 18-5.2 8.4-2 19.6-.6 23.7-10.2 6.2-3.5 26.6-9.5 26.7.3-4.7-3.5-12.8 1.8-19.1-1.8-10 7.3-17.8 17.4-32 15-8.5 12.2-29.8 19.1-37.6 3-9.4-6-21.4-10.7-23.5-23.1"/><path fill="#8d6d09" d="M231 473c13.3 2.4 23.2-11.8 36.1-8-9.1 7.1-13.8 18.1-23.2 24.8-7.8-1.7-15.4 2.2-23.1 3 8.5-2.3 4.8-13.1 10.3-19.9"/><path fill="#a99330" d="M218.6 525.8q5.1 0 10.3 1c6.3 4.9-4 17.4-2.5 23.5-12.6 64.4-22.7 127-20.3 191.7-2.1 5.7 2.9 23 8.4 13.5 4.7 7.8-1 4.4-2.7 7.5h-2.7c.5-4.6-6.2-10.4-9.5-5.5-5.3 4.3-4.4-6-6.3-9 7.8.2-1.6-13 3-17-3-68.4 4.6-138.7 21.7-205.1z"/><path fill="#5d4110" d="M211 547c2.2-6.8 2-15 7-20.6a702 702 0 0 0-21.6 205c-4.7 4.1 4.8 17.3-3 17.2A864 864 0 0 1 211 547"/><path fill="#4a3d05" d="M229 526.8c3.6 1.2 9 1.5 10 6-17.5 72.8-29.9 147.7-24.5 222.7-5.5 9.4-10.5-7.8-8.5-13.5-2.4-64.8 7.8-127.3 20.4-191.7-1.5-6 8.7-18.7 2.5-23.5"/></g></svg>