<svg xmlns="http://www.w3.org/2000/svg" xml:space="preserve" width="718" height="766" baseProfile="full" data-square-offset-x="129.4" data-square-offset-y="106.1" viewBox="0 0 461.6 492.6"><path d="m291.8 504.1-9-20.8a855 855 0 0 1-20-47c-.2 0 .2 2 .9 4.6 2 8 1.6 7.2-2.5-4.4-3.2-9.2-4.4-13.2-6.6-22a97 97 0 0 1-4-30.4c.3-7.5 1.1-12.4 3-16.2 1.5-3.3 1.5-3.3.4-2a32 32 0 0 0-4.4 9.2 95 95 0 0 0 .3 37.4 247 247 0 0 0 13.5 46.7 804 804 0 0 1 10.6 31.7 639 639 0 0 1-16.3-41.8 845 845 0 0 1-9-24.9l.3 1.4 3.1 10.8c1.5 5.4 4.5 14.9 6.7 21a493 493 0 0 1 10.5 32.3c0-.3-1.5-4.3-3.3-8.9a909 909 0 0 1-22.9-63.7c0 .7 3 13.7 5.4 23q3.6 14 1.3 7.4c-3.5-10.2-6.8-20-7.6-22.9-2-7.6-4.9-22.7-6-31.8q-.5-3.7-.4-.7c0 2.5.6 10.7 1 13.5q1 5.2-1-1.6a202 202 0 0 1-5.4-32l-.6.5c-.5.6 0 12 1 18.3 1.3 9 3.6 20.4 5.2 25.2 2 6.4 6.1 17.6 8.4 23 4.9 11.4 9.4 23.6 11 29.6a87 87 0 0 1 3 25.7l-.3 3-.3-5.3a108 108 0 0 0-2.9-18.3c-1.9-7.4-5.2-16.4-14-37l-3.2-7.9-.7 2a29 29 0 0 1-2.5 5.7c-.1-.1.2-1.6.6-3.3.6-2.6.7-4 .5-8.1a37 37 0 0 0-1.6-10.7 191 191 0 0 1-6.5-42l-3.4.5c-1.8.3-6.8.6-11 .7l-7.6.5 1 3.5a113 113 0 0 1 4.6 20.2l-2.5-3.1-1.8-1.8-.9 3.6a152 152 0 0 1-6.7 24.3q-.3.1-1-1.8l-.6-2.1-1 1.6-4.7 9c-4.4 8.6-5.4 11.6-5.2 16.6v3.1c-.5 0-2.1-1.5-3-2.8l-1.2-1.7-3.1 4.8A45 45 0 0 1 168 461c-1.8 1.2-2 1.2-1.6 0 .3-1 .5-3.5.1-3.5l-4.5 3.9c-4.6 4-6 5.8-7.3 8.8l-.8 1.8-1.3-1.8c-2.3-3-1.8-3.1-8 .3a287 287 0 0 1-19.2 9.4l1-2.4c1.1-2.9 1-3.1-.2-2.8-2 .5-8.5 3.5-13.3 6.2l-5.1 2.7.4-1.4.6-1.6q0-.9-6.2 1.8L96 485c-1.9.5-9.3 1.2-9.3.9 0-.1 1.2-.7 2.7-1.3a10 10 0 0 0 3-1.3c.9-1.4-16.1 1.6-27.7 4.8l-5.3 1.4 2-1.6 3-2.1c-2.5.7-5.7 1-13.6.8-4.8 0-8.8-.2-8.8-.3a19 19 0 0 1 3.3-2.6q.5-.2.3-.6c-.4-.4-7.8-.2-10.8.2l-2.2.3 2.4-2.1c2.7-2.4 2.8-2.5 8.4-3.8 6.8-1.6 10-3.2 14.8-7.2a44 44 0 0 0 12.8-24c.6-3.6 2.4-17.3 2.4-18.4l-1.1 5c-1.3 7-2 9.3-3.8 14A62 62 0 0 1 56.1 468a22 22 0 0 1-7.8 5.3q-.9.3.5-.6c2.3-1.2 5.8-4 7.4-6 4.5-5.4 6.4-9.5 9.2-20a226 226 0 0 1 5-16 44 44 0 0 0-4.6 7.2 249 249 0 0 0-9.3 20.7l1-4.3a85 85 0 0 0 2.4-14.3l-1.4 2.6c-6.9 14.5-9.3 18.5-13.3 22.3l-2.6 2.3a44 44 0 0 0 6-12.4c1.3-3.3 2.4-7.5 2.2-7.7-.1-.1-1 1.6-2 3.7a37 37 0 0 1-5 8.6l.7-1.6c1-2.5 2.6-9.4 2-9a84 84 0 0 0-5.7 10c-1.4 2.5-4 5.8-4.5 5.4l.7-2.2c1-2 1.3-4 .7-4-.8 0-4 4.3-9.2 12l-5 7.2c-1.4 1.9-1 1.8 3.7-1.6l3.6-2.5-.8 2q-.8 1.7-.8 2c.3.3 5.5-.9 8.4-1.9l2.6-.8-2.1 2.2c-4 4-7.5 5.8-15.5 7.6A31 31 0 0 0 7 491.5l.7-4.2A84 84 0 0 0 8.9 465a468 468 0 0 1-.9-40 84 84 0 0 1 6.6-28.1h-1.3q-1.2.3-1.3 0l3.5-4.3c1.9-2.3 5.4-6.7 7.7-9.9l4.3-5.7-.8-.7-2-1.5-1-.8 2.2-.6c2.1-.7 2.4-.9 9.4-8.1l7.3-7.5-2.5-.7-3.3-1.3c-1-.5-.9-.5.7-1 2.6-.8 10.4-4.7 11.6-5.8l1.1-1-1.2.2q-1 0-1-.2l5.5-3.3c3-1.6 5.4-3 5.4-3.1l-1.9-.8q-1.6-.6-1.6-.8l3.9-1.7c3-1.2 19.5-9 19.8-9.3s-5.3-4.7-9.3-7.1a22 22 0 0 0-12.4-3.7c-4.4-.3-5.2-.5-7.3-1.5-6.5-3.3-13-13.3-16-25.1a63 63 0 0 1-2.2-17.9 52 52 0 0 1 5-26.7c-4.1-2.7-13.4-9.5-17-12.4C7.5 224.5.6 214 0 204.2A14 14 0 0 1 3 194c4.9-7 5.8-9.2 6-13.8.4-5.4-1.1-9.7-5-13.8-2.8-3.1-3.3-3.9-3.3-5.5 0-2 .6-3 4.8-8 7-8 12.8-16 18.3-24.6 1.8-2.9 5.4-6.5 7.4-7.6l4.2-2a50 50 0 0 0 23.4-17A61 61 0 0 1 87.1 81l3.7-1.4 1.6-6.3a112 112 0 0 1 12.8-31.7q4.8-7.5 17.4-17.7c5.7-4.6 8-6.8 10-9.9 3-4.6 4.7-4.7 13.1-.6 5.5 2.6 5.5 2.6 8 2.5a95 95 0 0 0 20.7-7.7A76 76 0 0 1 210.5 0c15.3 0 26 3.5 38.9 12.8 5.6 4 12 10.3 18.1 17.9 2.9 3.5 3 3.6 5 4q2.1.5 7.1.2a356 356 0 0 1 37.5 0 88 88 0 0 0 29.8-1.7c6.1-1.2 9-1.4 10.7-.6 1.5.6 3.6 2.9 7.7 8l8.3 10a100 100 0 0 1 19 30.6c.8 2 3.2 7 5.3 11.2 2.1 4.3 4.1 8.8 4.4 10a404 404 0 0 1 4.8 27.7q.1.6 2.9-.8c4-1.9 8.3-2.9 11.7-2.7 3.9.3 5.7 1.2 8.2 4.3a27 27 0 0 0 6.2 5.3c10.3 7 13.5 13.2 17.1 33.5 1.8 9.7 2 10.8 3.2 22.8a206 206 0 0 0 1.7 13.1c1 4.2.9 9.5-.2 12.8a30 30 0 0 1-5.3 9.9c-3.5 4.3-7.5 7.1-19 13.4l-2.3 1.3v3.3c0 3.6.7 7.6 1.7 9.4 1.1 2.3 3.4 3.8 8.4 5.7 6 2.2 9.6 5.1 13.1 10.4 3 4.3 3 3.5-.7 20.8a71 71 0 0 0-1.5 16c-.4 13.2-.7 15.4-3 20.6a32 32 0 0 1-15.1 16.2c-1 .4-4 1.2-6.5 1.8a33 33 0 0 0-10.6 4c-.6.8-.6.8.5 2.3a50 50 0 0 0 12 10.2l-1.7.3-1.4.2 2.1 3.4c2.5 4 5.4 7 7.3 7.7l1.3.7c0 .5-2.2 1.5-3.4 1.5q-1.2 0-1.5.2-.1.3.7 2 2.3 4.5 3.5 12a60 60 0 0 0 4.7 17h-1.6c-1.6-.3-1.7-.2-1.5.4 0 .4.8 2.8 1.5 5.5 1 4 2 6.5 3.8 10.8q.3.6-.8.3-1.1-.4-1 .6a48 48 0 0 0 3.3 11 32 32 0 0 1 1.7 5.4l-2-.6a235 235 0 0 0-16.4-5.3c-3.5-1-9-1.1-10.7-.3l-1.2.5 1.5.6 1.5.7-2.6.8q-4.8 1.5-11 0c-3.8-1-6.7-1.1-7.3-.5-.3.4 0 .6 2 1.1l2.3.7-3.8.2c-2.1.1-4 .4-4.2.7q-.5.4 1 .4c2.8 0 .7.8-2.6 1-3.6.2-7.3-.4-12.2-2q-4.6-1.3-.3 1.2 1.6.9 1.5 1c-.3.4-8-.7-11.4-1.6-2.2-.5-4-.8-3.9-.6q.3.5 2.1 1.8l2 1.4h-1.6a23 23 0 0 1-11.7-4.4l-2.4-1.5c-.4 0-1 2.2-1 3.4s0 1-2.6-1.3a24 24 0 0 0-12.5-6.5q0 .2 1.4 1.5c2 1.7 1.5 1.8-2.5.5-3-1-8.1-3.6-13.3-6.6-1.6-1-3.1-1.7-3.3-1.6q0 .4 1.6 2.1l1.8 2-3.7-2a42 42 0 0 1-15.7-12c-1.2-1.8-1.2-1.8-1.4-.9-.2.5-.3 2-.4 3.1 0 2.5 0 2.6-2.4-1.4q-2.1-3.7-2-1.7 0 .6-.3.7a93 93 0 0 1-12.2-16q-1.2-1.9-1.5-1.9-.3.3-.8 2t-.7 1.6c-.4-.3-3-6.8-5.2-13-1-2.7-2.4-5.8-3.2-6.9a99 99 0 0 0-11.6-11.6l-1.9-1.4-1 1.4c-2.5 3.4-3.9 10.6-3.5 18.5.8 19.2 7.2 42.3 21.5 77.3a414 414 0 0 1 13.7 38q-.2 0-.7-1.2M28.5 468.8c1.1-1.4 2.7-3.8 3.6-5.4a68 68 0 0 1 10.7-13.5c7.2-7 26-22.6 36.8-30.5a392 392 0 0 1 66.4-40.7c4.9-2.3 8.9-4.3 8.8-4.4-.4-.4-36 16.9-42.7 20.7a443 443 0 0 0-46 31.3 433 433 0 0 0-31 27.7 122 122 0 0 0-15.8 16.5 33 33 0 0 0-4.6 8A80 80 0 0 0 25 467.2l3.1-4q.3 0-.4 1a256 256 0 0 0-8 14 66 66 0 0 0 8.7-9.3m49.9 4.9c2.3-1.7 9.2-7.9 11.7-10.4l1.5-1.5-.7 1.3a45 45 0 0 1-6.6 9l-2.3 2.2 3.5-2.4c4.2-2.8 9.3-7.7 11.5-11 2-3 4-7.3 5.5-11.7.6-1.8 1.1-3 1.1-2.5 0 1-1.6 7-2.5 9.2a63 63 0 0 1-9.6 15.5l-1.3 1.5 1.4-1.3a92 92 0 0 0 10.8-13.6c2.3-3.7 4-8.5 4.6-13 .5-3.3.7-33.2.3-32.4l-2.9 14.5-1 5.2-.2-4.3v-10.3A240 240 0 0 1 100 433a526 526 0 0 0-4.7 20.7 255 255 0 0 0 2.8-19.7 335 335 0 0 1 2.9-21.3c-.4-.4-4.5 15.9-5.5 21.4-1.7 9.9-1.7 10-1.8 4 0-3-.2-4.9-.4-4.5-.2.3-1.2 4.2-2.4 8.8-1.9 7.9-5 18.2-5.2 18a286 286 0 0 0 4-20.7c.3-2.8 1-19.8.8-20-.1-.3-2.6 10.4-3.5 15a191 191 0 0 1-8.7 30.3c-.9 2.2-1.4 3.9-1.2 3.8s1.3-1.6 2.4-3.3q3-4.4.7.5c-2 4.1-6.2 9.2-9.6 11.8q-.8.6 2.2-.8c1.8-1 4.3-2.4 5.6-3.3m-24.2 2.6c1.6-.8 3.7-2.3 4.7-3.2 3.5-3.3 2.6-3.3-1.9 0-2.5 2-5 3.7-5.4 4-1.6 1.2-.4.8 2.6-.8M20 467q7.1-7.6 10.9-10.2l.9-.6-1.1.2c-2 .4-7 2.9-9.3 4.7a33 33 0 0 0-7.3 8.4c-.8 1.4-2 5.5-2 6.8q0 .2 1.2-1.6zm47.3 5.2c2.2-2 6-6.8 7.1-9.1 1.3-2.5 1.2-1.3-.2 2-.8 1.8-2 4.3-2.8 5.6q-1.9 2.7-.5 1.3c1.4-1.3 4.8-6.4 6-9.3 2-4.5 4-12.9 6.5-27.6a150 150 0 0 1 2.8-13.2l-3.4 8c-1.8 4.6-3.7 9-4.2 9.9-.8 1.4-2 2.7-2 2.2 0-1 1.4-5.3 3-9 1-2.2 1.7-4.1 1.6-4.1l-2.1 3a51 51 0 0 0-6.4 16 65 65 0 0 1-7.2 18.4l-3.3 6.7 2-1.6q5-5 1.9-.6L63 475l-1.3 1.6 1.8-1.2zm28.9.4c3-2 6.4-5.1 9.2-8.6q2.2-2.6 2-2a38 38 0 0 1-4.6 9c-2.2 2.6-1.2 2.1 1.5-.7a48 48 0 0 0 12.1-27.6c.6-4.1.7-4.5.7-2.6.1 4.8-.9 15-1.6 17.5q-.3.6.5-.3c.4-.5 1-1.8 1.3-2.8l.8-2c.3 0-.3 3.4-1.3 7l-1 4a144 144 0 0 0 8.8-14l-1.1 3.5a77 77 0 0 1-6 13l-1.5 2 3.1-3.2a31 31 0 0 0 9.6-19.3 28 28 0 0 1-7.1 21.2q-1.6 2.1-.9 1.4l3.8-3.3q7-6 11.7-16c6-12.6 6.4-21.8 1.7-41.2l-2-8c-.3-1.4 0 9 .5 13.4.2 2 .3 5.7.3 8.3v4.6l-.5-3-2.4-10.3-2.8-10.3c1.2 12.7 1.7 27.9 1 33-.2 2.5-.8 1.7-.8-1.5 0-1.3-.2-4-.5-6l-.6-5.2v-1.5l-.4 1.5-.9 5a48 48 0 0 1-2.2 8c.7-4.4 1-9 .5-12.9q-1-11.8-1.1-.1c-.3 7.7-.8 11-2.8 18.2q-1.7 5.9-.7.7c1-4.2 1.4-12 1-18.6q-.7-10.2-2.2-18.6l-.7-3.9v12.8c0 7-.1 13.4-.3 14.4l-.4 1.6-.3-3.1-1.3-12.1c-.1-1.2-.6 1.6-.7 3.6 0 1.1-.2 2.4-.4 3q-.3 1.2-.4-.8c0-1.5-.6-4.2-.7-3.7l-4.2 32c-.3.3-.8-18.4-.8-29.7a74 74 0 0 0-.3-11 287 287 0 0 0-1.7 22.6c-.7 15.4-1.6 20.5-5 27.9a51 51 0 0 1-13.8 18zm35-34q0-.6.3-.2v.7q-.3.1-.3-.5M14.6 466a59 59 0 0 1 7.7-6.3c.6-.5 2-1.7 3.3-2.5q2-1.3 1.9-1.5l-2.8 1a32 32 0 0 0-10.1 6.8c-1.6 1.8-3.9 5.5-3.4 5.5zm121.9-3.6a38 38 0 0 0 12-18.9c1.3-5 2.9-15 2.2-14.3l-1 4.1a66 66 0 0 1-19.5 35c.7-.5 3.5-3.2 6.3-6M13.2 462a59 59 0 0 1 9.3-6.9c2.5-1.4 9-3.6 12.1-4l2.4-.4-2.4.1c-2.8.2-8.2 1.6-12 3.2a24 24 0 0 0-9.5 6.5q-4.7 6 0 1.5m8-9.1c2.5-1.3 6.5-2.8 9.1-3.6a36 36 0 0 0 14.3-7.4l-2.3.6a74 74 0 0 1-9.3 2.5 176 176 0 0 1 15.1-7.3l-8.8 1.5-8.5 1.3a99 99 0 0 1 20-6.5 84 84 0 0 0-21.5 2.1c-.3-.3 9.8-3.4 15.6-4.9 6.8-1.7 6.7-1.6 2-2.5q-3-.7 4.6-1c3.7-.3 11.5-1.3 14.5-2 2.5-.6-.2-.7-9.8-.5-7.7.2-11.2.4-12.8.8a67 67 0 0 0-12.7 4.7Q26 433 27 432a69 69 0 0 1 14.6-7.8c-.3-.3-5.5.9-8.4 1.9-1.4.5-2.6.8-2.6.7a37 37 0 0 1 7.4-3.4l9-3a155 155 0 0 0 24.4-10.2c-.9.3-3.3.5-9.8 1a128 128 0 0 0-23.9 3.5 69 69 0 0 1 10.9-3.4c2.2-.4 6.8-1.3 10.4-1.8 10.2-1.5 12.6-2 10.9-2l-7.4-.4a68 68 0 0 0-23.4 2 46 46 0 0 1 8.2-2.8 126 126 0 0 1 18.5-2.3 73 73 0 0 0 22.6-4.4H79c-5.9.1-9.5 0-9.7-.2-.5-.4 2.8-1 12.4-2 3.8-.3 7.2-.7 7.5-.8l-10.3-.3c-19.9-.4-31.2.8-36.4 3.8q-1.1.6-1.2.4c0-.6 4-2.9 7-4a59 59 0 0 1 7.7-1.8l5-.8h-4.8a24 24 0 0 1-4.5-.3 55 55 0 0 1 11.7-1.9l4.2-.2-1.4-.6c-1.2-.4-3.1-.6-8.8-.6-7.7 0-7.8-.1-.6-1.3 3.3-.6 5.6-.8 8-.6 3.3.1 3.9.3 6.9 1.7 3.5 1.8 5.1 2 11.4 1.3q5-.5-.3-1l-7.6-1.7a34 34 0 0 0-12.5-1.3 43 43 0 0 0-13 1.2 82 82 0 0 0-12.1 3.5 50 50 0 0 1 28.6-6.5c7 0 10.2.1 15.3.8 19.2 2.4 25 3 31.7 3.2q12.7.4 1.5-1.1c-6.5-.9-13.8-2.1-23.6-4-12.6-2.6-15-3-23.8-3.2-7.7-.2-8-.3-4.8-.6a127 127 0 0 1 32.4 2.6c7.8 1.3 10.4 1.5 5.2.4s-10.3-2.5-13.3-3.4l-11.4-3.4c.7 0 7.1 1.1 12.6 2.3 3 .7 7 1.5 8.8 1.7 7 .8 9 1.2 11.2 2q5 1.8-.2-.5L105 381l5.6.2 7.7.4c4 .3-4.7-1.1-9.8-1.6-4.5-.4-11-1.5-11-1.8h1.9c1 .2 6.2.3 11.3.4 9.4.2 9.4.2 6-.4-2.2-.3-6.8-1.6-12.2-3.4-9-3-15.1-4.6-23-6.1l-4.5-1 3.3.2c4.4.2 13 1.7 20.5 3.6 10.8 2.7 16.2 3.6 30.8 5.3a242 242 0 0 1-24-6.6 130 130 0 0 0-23.5-6.1q-7.4-1-4.9-1.1a167 167 0 0 1 26.9 4.2 111 111 0 0 0 18.3 3.3q2.9.3-4-1.2c-6-1.3-15.9-4.3-13-4 11.4 1.6 25.2 3.3 25.4 3l-2.6-.5a161 161 0 0 1-32.4-9.5c.6-.1 7.9 1.2 14.6 2.7a162 162 0 0 0 18.6 2.7c2 0 1.9 0-1.6-.7A63 63 0 0 1 94 344.4a99 99 0 0 1-6.5-7c-3-3.7-6-6.8-6.8-6.8-.6 0-8.3 3.8-9 4.4q-.2.4 1.5-.1c1.7-.5 7.4-1.4 8.7-1.3l-2.2.7c-2.7.7-11.4 4.6-11 5l2.4-.6c5.5-1.7 12.7-2.3 15-1.3 1 .5 1 .5-1.2.6-3 0-7.6 1-11 2a72 72 0 0 0-11.5 5.6q.3.1 1.5-.2c.7-.3 3.5-.5 7.4-.6h6.3l-5.1.2c-3.8.2-6 .5-7.8 1.1a71 71 0 0 0-12.4 6.1c-2.5 1.7-1 1.3 2.5-.6a43 43 0 0 1 6.1-2.6 19 19 0 0 1 8.4-1.2c4.3 0 5.6.1 9 1a71 71 0 0 1 16.7 6.8l-3.8-1.4C77.7 349 66 348.4 57 352.5a42 42 0 0 0-10.4 8A307 307 0 0 1 34.1 371q-2.6 2.1 3-1.2a32 32 0 0 1 15.7-5.7q1.6 0-1.7 1a47 47 0 0 0-19.3 12.2c.1 0 1-.3 1.8-.8q1.5-.9 2.7-1.3 1.4-.6.4.1a93 93 0 0 0-7.8 7c-.4.8-.2.7 3-.4 2-.6 3.4-1 3.3-.8s-1.7 1.3-3.4 2.5c-6.7 4.6-10.5 8-13.2 12q-2.2 3.1.2.8c1.9-1.7 4.9-3.7 6.2-4q1.1-.5-3 3.7c-4 4-5 5.4-6.6 8l-.8 1.5 1.6-1.5c1-.8 2.3-2 3.1-2.4 1.7-1 1.8-1.2-1.7 3.4a31 31 0 0 0-4.7 7.9q.3 0 1.1-1.1c1-1.3 3.1-3.2 3.7-3.2.2 0-.7 1.6-2 3.5-2.1 3-3.5 6-3.1 6.3 0 .1 1-1 2-2.4q4.4-5.7 1 .4c-1.7 3.3-3 6.9-2.6 7.3 0 0 1.3-1.4 2.6-3.3s2.6-3.3 2.7-3.2c.3.4-2.3 5.6-4.6 9.2-1.3 2-2.7 4.7-3.2 6.1l-1 2.5 1-1.1 2.9-3.3q1.6-1.9 2-1.9c0 .1-.7 1.6-1.7 3.3-2.5 4-3.3 5.8-3.7 7.6-.5 1.9-.2 1.7 2-1.2q3.4-4.6-1 3.6c-.8 1.6-1.5 8-.9 8 .2 0 1-1.1 1.8-2.4q1.3-2.3 1.7-2.6c.5-.3-.4 2.9-1.8 6.3q-2.3 5.5-1.7 7.7c.2.9.3.9 3.4-1.7q3.1-2.7 7.6-4.7m36.7-71.5h.7q.2.2-.5.2t-.2-.2m88.4 73.5c2.2-3 4.5-7.8 5.4-11.5.6-2.3.8-4.3 1-9.2 0-3.4 0-5.3-.1-4.2a57 57 0 0 1-8.3 27.5zm9-8.9 1.6-8.1c.4-2.7.5-2.8.7-1.7l.6 4.1.3 2.8.6-2.8a66 66 0 0 0 1.3-15.2q-.6-9.4-4.8-24.8-4.8-17.3-2.2-5.5a85 85 0 0 1 1.5 12.7l-.8-2.8q-.3-1.7-.8 2c-.4 3-.2 8.6.4 11.8l.6 5.3a186 186 0 0 1-1.3 28.7l-.2 1.3.6-1.3c.3-.7 1.1-3.6 1.8-6.5m13.5-8.6c1.8-5.6 2.3-10 2-17.6a82 82 0 0 0-4.3-24.7c-1.5-4.5-5.5-14.6-5.7-14.4s2.6 10.8 4.8 18.6a74 74 0 0 1 3 14.7 155 155 0 0 0-4.4-13.6l-4.4-13c-2.8-8.5-2.8-8.5-2.6-6.5a93 93 0 0 0 2.7 15.6c1 4 1.8 7.4 1.7 7.5l-1.2-2.9c-3-7.9-5.2-13.7-5.3-13.5l1.3 6.5 7.1 33.5c.3 1.4.3 1.4.5-1l1.3-14.9a123 123 0 0 1 1.5 15.9 55 55 0 0 1-2.3 19.2c-.5 2 3.4-6.7 4.3-9.4m0-22q0-.7.2-.3v.7q-.2.3-.2-.4m224.5 19.2a27 27 0 0 1-4.6-10c-1.4-4.4-5.1-14.4-5.2-13.8l.8 4.7a35 35 0 0 0 6.2 16.5c1.7 2.2 3.6 4.2 4 4.2zm13.8 0-1.3-1a54 54 0 0 1-10.3-8.7 81 81 0 0 1-5.2-7.8c-3.4-6-11-20.7-10.7-21a218 218 0 0 1 38.8 23.4l16.1 11q2.4 1.3-.9-1.2l-4.7-3.9-5.3-4.4a269 269 0 0 0-50.7-30c-.9-.3-.8-.4 1.4-1.7a75 75 0 0 0 12.5-10c5-4.8 5.6-5.3 9.6-7.2 5.6-2.8 7.4-3.2 15.4-3.2q7 0 9 .5l1.8.6c-.1.1-1.7 0-3.5-.4-11-1.8-22.7 1.1-25.9 6.4-.7 1.2-1 2.7-.7 2.7l3-1.1a52 52 0 0 1 33.7-1.9 30 30 0 0 0-3.3-3.8c-2.8-2.8-3.8-3.6-5.7-4.3a39 39 0 0 0-13.5-2.1c-2.2 0-3.7 0-3.5-.2a32 32 0 0 1 18.2.7c.1-.1-6.1-3.1-11-5.3l-2.4-1.1-3.7 2.6c-3.7 2.6-4.8 3.6-12.8 10.6a153 153 0 0 1-17.7 14 45 45 0 0 1-12 6.6 88 88 0 0 1-27.2 4c-10.3.4-19.8 0-24.3-.8a67 67 0 0 1-22.6-9.7 195 195 0 0 1-25.6-21l-7.3-6.7 1.7-1a54 54 0 0 0 9.1-7.1 33 33 0 0 0 10-18.4c.8-4.6.7-6.2-.2-3a48 48 0 0 1-12.6 21.1 89 89 0 0 1-9.6 8.7l-.8.6 2.4 2.2 7 6.6c12 11.8 23.9 21.2 31.7 25.1a56 56 0 0 0 23.4 6l1 4c1 4.7 2.6 9.3 4.4 12.4 1.2 2.2 6.8 9.5 7.2 9.5.2 0 .1-.1-1.8-3.1a61 61 0 0 1-4.5-12 46 46 0 0 0-3.9-10.1c-.7-.5-.6-.5 1.2-.8l4.8-.2h2.8l-.6 2.7a35 35 0 0 0 .7 13.7q.6 2.3 1 2.3l-.3-1.2c-.2-.6-.3-4-.3-8.2 0-9.8 0-9.3 1-9.3.8 0 .8.1.8 3.7q0 10.2 4.6 18.2c2.2 3.8 3.1 4.8 1.8 2q-1-2.2-1.1-4.9c-.2-2.8-.3-2.8 1.8.4l2.6 3.2c1.8 1.8 7.3 6 7.5 5.7q.1-.2-.8-1.4c-2.1-2.6-4.8-9-5.9-14.3a18 18 0 0 0-3-7.2l-1.4-2.2-.4 2-.3 2.2-1.6-3.4c-1.6-3.3-2.5-4.3-1.4-1.6 1 2.3.4 2.3-.8-.1l-1.1-2.3 1.5-.1 5.7-.4c5.7-.3 11.4-.9 15-1.5s3.5-.7 3.3 0a58 58 0 0 0 3.6 19.4c1.2 3 5.8 11.5 6 11.3l-.6-2c-.4-1-1.5-5.2-2.5-9.2s-2.7-10.2-3.8-13.8l-2-6.5 3-.8 6.5-2.4 3.6-1.7 4 1.8 4.5 1.9q.3 0 .6 1c.3 1.2 4.3 10.8 7.3 17.4 3.9 8.7 6.5 12.8 10 15.4 2.9 2.2 3.6 2.7 7.1 4 3.7 1.4 3.4 1.3 3.4 1.1m-23-1c-6-4.2-10-12.9-11.5-23.9-.4-2.8-1-1.6-1.2 2.5l-.2 3.2-1-3a23 23 0 0 1-1.3-5.5c-.2-2.3-.3-2.5-.6-1.5-.2.6-.4 3.2-.4 5.8 0 4.3 0 4.7 1 6.7a35 35 0 0 0 16 16.5q.1-.1-.8-.8m3.7-1.1c-.3-.5-.7-2.1-1-3.6a27 27 0 0 0-2.5-8.4c-.3-.6-1.5-3-2.5-5.5-1-2.4-2-4-2-3.7 0 1.2 2 8 2.9 10.2q1.6 3.6-2-2.1c-1.8-3-3.4-7-3.4-8.8q0-1-.4-1.7c-.5-.7-.5.4 0 8.4.2 5.5.4 6.3 1.3 8q1 2 2.8 3.7a38 38 0 0 0 7.3 4.5zm-210.1-6.2c.5-4.1.8-8.6.8-12.3V408l.7 2.1c.9 3 1.3 6 1.6 11.7l.3 4.8.6-2.4a61 61 0 0 0 2.2-16.1v-5.4l.8 1.4c.5.8 1.4 3 2.2 5 1.5 3.8 1.6 3.7.6-2.4-.5-3.5-1.2-5.3-4.7-12.7a149 149 0 0 1-5.9-13.6c0 1.7 1.3 9 3 16.3a61 61 0 0 1 2 18.4l-1.1-6c-1-5.3-1.8-8.7-5.2-19.7a87 87 0 0 1-2.9-13 119 119 0 0 0 2.2 23.7c-.2.2-2.7-7.7-3.2-9.7l-.4-3.5q0-2.1-.7 2c-.6 2.8-.7 4.5-.6 10 .1 6.1.3 7 1.3 10.8 1.6 5.7 2.3 9.9 2.3 15.6 0 4.2.1 4.8.4 3.4.2-1 .4-3.5.4-5.6 0-2.2.1-4 .2-3.9a74 74 0 0 1 2.1 13.4zm229.8 5.2-2-1.5a50 50 0 0 1-8.9-16.6 36 36 0 0 0 1.7 10.7l.7 1.6-.9-1a32 32 0 0 1-3.9-7.4c-.7-2.1-.8-1.4-.1 1 .8 3.3 2 5.3 4.7 8.3 3 3.2 4 4 7.2 5.3s3.4 1.3 1.5-.4m-262-10.6c-.3-8.5-.7-10.8-3.8-23.4-1-3.6-2-8-2.4-9.8l-.7-3.3v3.6c-.1 6.4.8 12.7 3.4 24.8a289 289 0 0 1 3 15.7q.7 4.5.4-7.6M372 428c-.6-1-1.9-4.4-2.9-7.5s-2.4-7-3.1-8.6l-2.5-7.7-1.3-4.4c-.3.3 2.4 13.9 3.3 17a35 35 0 0 0 7.4 13.2l-1-2m45.2 1.5-1.6-2.1c-.8-1-2.2-3-3.3-4.8l-2-3.1 2 1.8c3 2.9 2.2 1.6-1.3-2.1a36 36 0 0 1-4.4-5.4 35 35 0 0 0 1.4 6.6c-.2 0-2.2-2-4.4-4.4l-4.2-4.3.8 2.6 1.6 5.9a31 31 0 0 0 1.6 4.8c.7 1.5 3.7 4.7 4 4.4a29 29 0 0 0-.8-5.5q-.1-.5.7 1c.8 1.5 4.2 4.9 4.6 4.5l-1-2-1.6-4.3-.6-2.2 1.1 1.5c1.8 2.2 7 7.6 7.4 7.6q.3 0 0-.5m-65.3-4c-.7-2-1.2-3.8-1.1-3.9l1 1c.8 1.5 2.5 3.2 2.8 2.9l-.2-1.2q-.3-1-.4-2.4v-1.3l.8 1.4q1.1 2.9.3-1.5a114 114 0 0 0-3.2-11.6v5.9l-.7-1.5-2-4.8c-1-2.8-2.7-6.7-2-4.5.3.8 1 10.2.7 10.4l-.8-2a24 24 0 0 1-.6-6.5c0-2.3-.2-4.2-.3-4.1-.4.2-.7 2.6-.7 5.2v2.5l-1-2.4-1-4q-.3-1.4-.6-1.5c-.5 0-.8 3.3-.5 7.2.4 7.5 2.7 12.6 7.7 17.5l3 3zm85.8 1.4a25 25 0 0 0-12.8-10c-1.7-.6-7.5-1.7-7.7-1.5a90 90 0 0 1 21.8 13.8q.1-.2-1.3-2.3m-.2-4.7c-3-6.4-6.9-9.1-16.1-11.2l-5-1.2-1-.2.9.7a20 20 0 0 0 4.4 2.3c4.3 1.9 8.7 4.1 8.4 4.3 0 .1-1.3-.3-2.8-1l-2.8-1q.2.3 3.1 1.6a35 35 0 0 1 9.7 6.4q1.8 1.7 2.1 1.7c.1 0-.3-1.1-1-2.4m0-5.5c-.5-1.3-1.1-2.8-1.5-3.4q-1-1.3 0-.8t.7-1.4c0-3.3-.3-3.7-2.9-5a39 39 0 0 0-18-3.6l3.3 1c3.3.7 8.6 2.5 8.3 2.7a40 40 0 0 0-9.1-1.2l-4.6-.1 2.2 1.1c1.6.9 3 1.3 5.7 1.6l3.5.5h-3.6q-3.7 0-3.3.5l3.9 1.3c7 1.8 10.6 3.7 14 7.4 1 1 2 2 2 1.8zm-11.7-8.4h1.1q.3.2-.7.2t-.4-.2m-99.2 6.5c-.3-1-.7-4.2-.8-7l-.3-5-.8 1.6a11 11 0 0 0-.2 8.2c.8 2.1 2.2 4.6 2.5 4.4zm-83.3 1q-.2-.3-.2.3t.2.5zm72-11a16 16 0 0 0-2.4-4.2c-.3.8 4.1 9.3 4.6 8.8zm120.2-.4c-.5-1.8-.7-2-2.9-3.3q-10.2-6-26.5-4.2c-6.6.7-13.1 1-16.5.5q-4.5-.5.8 1.3c3.8 1.4 7.3 1.8 16.6 1.8 11.7 0 17.5 1 25.3 4.5l3.7 1.5zm-1.5-5.7a16 16 0 0 0-3.4-6.8c-3.6-4-12.5-6.1-20.2-4.7q-6.7 1.2-1 1.2a57 57 0 0 1 15.8 3l-2.7-.5c-2.6-.5-11-.7-13.2-.2q-1.4.3 2.7.7a66 66 0 0 1 15.8 4.4l-2.9-.6a89 89 0 0 0-20.3-2q-1.2.5 1.5.7a68 68 0 0 1 28.4 7.2zm-298-1q-.3-.4-.3.2t.2.5zm181.7-3.3c-5.7-1.5-9-3.5-12.8-7.5a41 41 0 0 1-9.6-17.7c-.1-.4.9 1 2.2 3.3 6 9.9 9.6 14.1 14.2 17.2 5.7 3.7 9.6 4.4 20.2 3.5 11.9-1 23-2.7 28.8-4.4a23 23 0 0 0 10-5.6c3.8-3.3 8.2-6.8 14.3-11.7 4-3.1 11.6-9.7 13.7-11.8q1-1 0-.5c-1 .3-2.7-1-3.4-2.6l-.5-1.4 1.8.8c1.8.8 2 .9 3.6.4 1.5-.4 12.7-7.5 16.8-10.7l1.2-1h-1.1c-1.6 0-4.5-1.2-6.9-2.8q-4.6-3.2-.8-1.4a22 22 0 0 0 9.3 2.3c2 0 3.7-.5 9.3-2.3 9.2-3 10.9-3.8 13.5-6.7a25 25 0 0 0 7-17.4c.3-5.2-.1-7.7-1.7-10.8-2-3.8-4.3-5.6-11.2-8.3-2-.7-3.1-1.3-2.4-1.2a60 60 0 0 1 12 2.8c.4 0-2-1.9-3.7-2.9a39 39 0 0 0-15.4-4c-3-.2-3.3-.3-2.2-.6.8-.2 3.7-.3 6.7-.2 5.9.2 9.5 1 13.3 2.8q2 1 2.2.8l-2.7-4.4-2.6-4.4 1.7.8q3 1.8 6.1 6.5l1.4 2 .4-2.2a85 85 0 0 0 2.5-16 16 16 0 0 0-6.9-9.6c-.8-.4-3.4-1.5-5.8-2.3-2.4-1-5-2.1-5.8-2.6a10 10 0 0 1-3.8-5.3 35 35 0 0 1-.5-10.4c.2-1.6.2-3 .1-3-.4 0-6.8 3.8-8.6 5.2a29 29 0 0 0-7.5 8.8 57 57 0 0 1-26 22.7h1.3c1.2 0 6.7 1.6 6.5 1.8q-.3.1-2-.1a34 34 0 0 0-9.6 0c.2.1 2.4.8 5 1.4 2.5.7 4.8 1.4 5.1 1.6q.7.4-.1.1a56 56 0 0 0-18.5-.6c.2.2 2 .5 4 .8a68 68 0 0 1 17.8 5c-3.3-1-9.5-2.4-12.5-2.8a125 125 0 0 0-17-.1c14 1.2 28 5 32.4 8.8 1 .8.9.8-1.6-.4a60 60 0 0 0-21.6-4.6c-5.9-.4-14.1-.5-13.7-.1.1.1 3 .4 6.3.5a76 76 0 0 1 21.4 3.5c5 1.6 9 3.7 4.6 2.4-4-1.2-25.9-3.3-25-2.5a135 135 0 0 1 17.4 4.2 89 89 0 0 1 13.9 6.1l-4.5-1.3A160 160 0 0 0 372 298q-2.3-.3-2 .1l.6.4c.7 0 8.7 4 9.6 4.8q1.4 1-1-.1l-5.4-2c-5.7-1.8-15-3.6-14.5-2.8.1.2 2.2 1 4.6 2 8.4 3 12.9 4.9 16.7 6.8 5.3 2.7 6.6 3.8 2.4 2q-5.7-2.3-14.4-4.6L362 303a199 199 0 0 0 14.6 9.3q0 .2-.7 0a354 354 0 0 0-26.2-9.9c0 .3 10.5 5.4 15.9 7.7 3.1 1.3 6.8 3.3 10 5.3 8 5.2 20 12.2 25.9 15.2 7.7 4 11.2 5 18.5 5.7s7.7 1 3 1.7a31 31 0 0 1-10.9-.5c-5.8-1.6-11.8-4.6-27.6-14.2a211 211 0 0 0-23.8-12.8 116 116 0 0 0-12.9-4.4q-.1.3.4.5a54 54 0 0 1 12.7 11c1.2 1.7 3.1 5.2 3.6 6.5a31 31 0 0 1-5.1-4.6 57 57 0 0 0-12.3-10 27 27 0 0 0-6.9-2.4l1.8 1.5c1 .7 3 2.3 4.3 3.5l2.4 2.2-4.5-2.2c-5.1-2.5-8.2-3.7-8.2-3.3l7 6.4 2 1.8-2.6-1.4-10.8-6c-1.7-1-1.1-.6 4.3 3.6a96 96 0 0 1 11.4 10l-3.2-2.1a130 130 0 0 0-17.3-10.3l-2.4-1.3 1.8 1.7c1 1 4.4 3.8 7.4 6.2 6.3 5.2 13.5 12.2 15.3 14.9l1.2 1.8-1.4-1.6a78 78 0 0 0-22.2-16.6c-3.6-1.8-12-5.3-12.2-5l2.6 2.3c1.5 1.2 3.1 2.6 3.6 3.2.8.9.5.8-2.6-.9a31 31 0 0 0-7.6-3.2l3.7 2.6c4.8 3.2 11.3 8.2 14.2 10.7q4.2 3.8-.3.3a126 126 0 0 0-15.1-9.3c-5.7-3-13-6-8.4-3.3l7.3 4.7a119 119 0 0 1 21.2 17.8c2.7 3 2.6 2.8-1.5-1.1a72 72 0 0 0-15-11.5c-4.4-2.7-13.4-7.7-13.9-7.7l1.1 1.4c.7.8 2 2.6 2.7 4 1.4 2.4 2.2 3.1 8 7.2 1.3 1-3.3-1.3-7.1-3.5a50 50 0 0 0-9.9-4.9c-.2.3 0 .3 5.9 4.4a85 85 0 0 1 16.7 14q1 1.4-2-1.4c-4.4-4.3-14.8-10.9-15.7-10-.8.8 2 4 7.3 8.6a100 100 0 0 1 19.2 20c-6.4-7.9-8-9.2-24.5-19.6-10.6-6.8-11.2-6.7-3.7.1l9 8.4 3.4 3.3-6.9-4.5c-8.3-5.4-13.5-8.7-13.5-8.5l5.2 5.3 5.3 5.2-2.4-1.4-6.8-4.3a28 28 0 0 0-4.7-2.7c-.4.1 3.4 4.9 8.1 10.2 6.2 7.1 11.3 14.9 18 27.5q.9 1.6-4-5.3c-10.8-15.7-17.8-23.3-26.5-28.6q-.4-.2.6 1.1c1.4 1.8 3.1 4.7 4.2 7l.7 1.7-3.5-3.3c-2-1.9-3.7-3.3-3.8-3.2-.1.2 3.9 6 7.6 11l2.8 3.8-3-2.8-6.4-6.3c-2-1.9-3.7-3.4-3.8-3.3s4.6 8.8 7 12.5c.3.7-1.4-.8-4-3.4a20 20 0 0 0-5-4.1c0 .2.8 2.2 1.8 4.3 2.5 5 5.3 11 4.9 10.4l-5-6.7-5-6.2 3.6 7.8a63 63 0 0 1 3.3 7.2L278 363q-4.9-6.6-5-5.7c0 .2 1 2.8 2.3 5.8l2.2 5.4-3-3.8c-3-3.7-4-5-4.3-4.6-.2.1 1.6 5 2.4 6.5q1.4 2.5-3-2c-1.6-1.8-3-3-3-3a44 44 0 0 0 4.3 7.8 52 52 0 0 0 16.9 13.7l3.3 1.8-.3-1.7c-.1-.9-.6-2.4-1-3.3l-.5-1.8 2.7 3.4c2.6 3.4 5.8 6.9 6.1 6.5.3-.2-1.6-5.9-2.8-8.6-1.3-3-.5-2 3.5 4.4 3.9 6 6 8.3 9 9.4q3.7 1.4 8.5 1.4c2 0 2 0 .9-.3m-.7-5c-3.4-1.5-7.6-5-10-8.5-1-1.5-.9-1.4 1.5 1 3 3.3 5.1 5 8.2 6.8q3.4 2 .3.7m117.4 1.7c-3-6-9-9-19.2-9.5-7.3-.3-22.2 1.2-27.4 2.7-3 1-7 2.8-7 3.3 0 1.2 10.9 1.1 17.4 0 1.7-.3 4.5-1 6.3-1.5 6.5-1.8 11.6-2 18-.5q5.9 1.5 10.2 5.4l2.4 2q.2-.2-.7-2m-28.6-10.6a66 66 0 0 1 10.8-.6q4 .1 3.1-.1a150 150 0 0 0-14.2-1.9c-3.7 0 4.6-1.1 9.4-1.1q8 0-.6-1.3a26 26 0 0 0-19.1 3.4c-4 2.4-4 2.3.2 2.4 2.1 0 6.7-.4 10.4-.8m16.4-.2h-1q-.3.1.5.2.8 0 .5-.2m-265-6.6q.8-.5.5-.5l-1.3.5q-.8.5-.5.5zm46.2-6.7a37 37 0 0 0 18.8-10.8l4.5-4.3-3 3.3c-3.1 3.5-7.3 7.6-10 10a109 109 0 0 0 16.2-11.3l1.6-1.6-2 2.2a59 59 0 0 1-12.4 10.7c-5.5 3.3 4.6-.4 11.1-4l7.6-4.6 2.4-1.6-2.4 2.3a84 84 0 0 1-9.5 7.6c.2.2 8.2-1.8 11.1-2.8a38 38 0 0 0 20.2-14c2.4-3.3 3.6-5.3 1.9-3.5a91 91 0 0 1-14 11.2l-2.5 1.5 1.8-1.6q8.7-7.3 13-14.8l1-1.9-2.4 2.4a54 54 0 0 1-8.8 6.8c-.3.2.6-.9 2-2.4a60 60 0 0 0 6.5-7.5l-2.3 1.6c-2.3 2-5.8 4.4-7.3 5.2-.5.2 1-1.6 3.5-4l4.2-4.5q-.4 0-1.7 1.2c-1.4 1-4.7 3-6.7 3.7-.8.2-.5-.1 1.2-2q2.9-2.8.8-1.3a29 29 0 0 1-8 3.2q-1.7.1.9-1.6c2.2-1.6 5.7-4.4 5.6-4.6l-3.1 1.2a39 39 0 0 1-8.6 2.8q-.6 0 3.4-3c5.1-3.6 5-3.6 2.6-2.4l-4.5 1.7c-1.3.4-5 2-8.1 3.5l-5 2.3a72 72 0 0 0 12.7-10.5q-1.4-.4-10.2 2.9l-6 2.2 3.2-1.8c8.5-4.6 11.2-6 11.1-6.2q-.2-.1-1 .2l-16 4.8c-.4 0 6-3.8 8.4-5q3-1.7 0-.7a207 207 0 0 1-15 4.3c-2 .6-.5-.3 6.3-3.8l6.6-3.5-4 1.1a45 45 0 0 1-13.6 3q.1-.4 2.4-1.4c2.8-1.2 9.8-5.3 9.8-5.8 0-.8-7-1-12.8-.3-2 .2-3.6.3-3.7.2a29 29 0 0 1 7.6-2.8l3.5-1-1.6-.2a34 34 0 0 1-20.3-13.3q-.5-.7-3.9-1.2c-5.4-1-11.5-2.4-17-4-7.1-2.1-9.3-2-20.5.2a205 205 0 0 1-21.6 3.5c-.2-.2 9.3-3 14.6-4.3 6.7-1.7 15.7-4.1 16-4.4.2-.2-6.5.3-10.6 1-2 .2-7.8 1.3-12.7 2.3a95 95 0 0 1-16.7 2.5c-.2-.1 2-.8 5-1.6 7.7-2 17-5.3 17.7-6.4.2-.3-2.4 0-13 1.5-3 .4-5.7.6-5.8.5q-.2-.3 10.6-3.2c2.9-.8 4.6-1.4 3.8-1.3l-21 2.3a63 63 0 0 1 11.5-3.6l3.6-1a97 97 0 0 0-15.7-2.1c-25.8-3-38-5.7-49.9-10.8l-4.7-2-3.4.2q-13 .9-20.8 7.4l-1.7 1.4.3 2c.8 6.4 3 14.5 5.4 19 2.6 5.2 8.4 12.1 10.7 12.7.9.2 1.5 0 10.2-3.8l3.4-1.4c0 .2-8.7 5.3-10.2 6l-1.4.6 2.2.4q2.1.3 8-.2c3.1-.2 6.2-.3 6.8-.2q1.1.3 8.8 8c8.9 8.7 20.8 19.9 25.1 23.4 10.5 8.8 17.9 12.3 25 12 2.7-.2 3.5-.4 5.9-1.5 4.4-2.3 8.5-5.6 18-14.9a85 85 0 0 1 15-13q0 .3-1.3 2.3c-.8 1.2-2.3 4.5-3.4 7.2a43 43 0 0 1-5.4 11 29 29 0 0 1-9.9 8.1l-3.5 2.1h7c6.7 0 7.3-.1 9.5-1 1.2-.5 2.7-1.3 3.3-1.8 1.9-1.5 4.1-4.8 5.1-7.6.6-1.5 1-2.7 1.2-2.7v1.8c-.7 4-1.9 8.2-3.4 11.4l-1.7 3.5 1.8.7a45 45 0 0 0 24.2 1.8 44 44 0 0 0 25-13l2-2-1.9 2.4a38 38 0 0 1-20.3 13.7c-.2.5 3.9.1 7.7-.6m-69-14.7c2.9-1.7 6.8-4.7 10-7.6 4.2-3.7 4.3-3.8 4.3-3.4a28 28 0 0 1-15.3 12.1q-1.4.4 1-1.1M80 318.5l.7-2.4c.9-3.6 3.7-8.1 9.7-15.7q.7-.9-3.2 1.5c-6.7 4-14.4 8-21 10.6q-3.6 1.4.5-.9a261 261 0 0 1 13.6-7.6q9.6-5.2 5.9-3.6c-.7.3-5.1 1.3-9.8 2.2a55 55 0 0 0-20.1 6.7c0-.2 4-3 6-4.1 4.3-2.5 9.7-4 26.2-7.5l10.8-2.2q.2.1-1.3 1.1a80 80 0 0 0-14.9 18c-2.8 4.4-3.4 5-3 4m60.3 39.6 3.5-1.5c6.3-2.4 12.8-9.5 17.2-18.8 1-2.2 1-2.3.3-1.7a95 95 0 0 0-8.1 8.5c-6.4 7-11.4 11.9-13.4 13.3q-2.6 1.7.5.2m123.4-37a37 37 0 0 0 17-9.1q7-6.4 10-18.6c.6-2.2 1.1-3.9 1.2-3.8l-.2 3.8c-.6 5.5-.9 9.5-.7 9.3a82 82 0 0 0 3.2-13.8c1.8-10.5 1.8-10.4 1.7 2.1 0 9.4 0 11.3.4 10.7q.8-1 5.2-15.6l1-3.5-.1 6.1c-.2 7 .4 10.1.8 4.5.4-5.4 1.3-13.4 1.9-15.4.4-1.7.4-1.5.7 4.3 0 3.3.4 7.3.7 8.7.7 3.4 1.8 6.8 2.1 6.7l3.2-3.8c3.2-4 4-4.8 8.1-7.2l3-1.9c0-.1-.8-1.7-2-3.4a51 51 0 0 1-5.7-11.8q-1.5-5 .5-2.2c2.4 3.7 7.6 7.8 11.7 9.2q5.2 1.7 11.8-.5a54 54 0 0 0 15.7-8.6 53 53 0 0 0 12.6-15c.3-1.5-1.1-6.5-2.8-10-.8-1.7-1.3-3-1.1-3 .7 0 4.2 4.7 5.5 7.4l1.3 2.9 4-5 9.3-11.3a51 51 0 0 0 9.4-12.6c0-2-3-3-6.7-2-4.7 1-16.8 7-30.6 14.9a265 265 0 0 1-31.4 15.6c-15 5.9-19.8 8.4-24.1 12.2a500 500 0 0 1-20.1 16.5 166 166 0 0 1-54.5 26.2c-3.9 1-4.3 1-12.3 1a92 92 0 0 1-22.2-2.2c-2-.6 1.3 3.2 4.6 5.3 2.5 1.5 3.8 2.1 5.8 2.5l7 2 5.7 1.6 9.3.2 9.2.2 6.2 3.1c8.2 4 10 4.6 16.3 4.3 3.5 0 5.7-.4 8.4-1m51-18.7a80 80 0 0 0 30.5-16.9c9.3-8 17.3-17 28-31.7a639 639 0 0 0 17.3-25.1 304 304 0 0 0-15.7 20.5 176 176 0 0 1-19 23.1 125 125 0 0 1-24.6 20.3 82 82 0 0 1-14 6.7q-9.9 4-9.7 4.4c0 .3 2.8-.2 7.2-1.3m-91.3-2.6a113 113 0 0 0 19.4-4.3l-4.7.8c-3.9.8-6 1-13.3 1.2-9.6.2-15.2-.3-22-2a85 85 0 0 1-31.3-15.8c-5-3.9-16-14.8-25.2-24.7-3.8-4.2-2-1.8 3.3 4.3 8.5 9.8 21.4 22.2 29 27.8a69 69 0 0 0 44.8 12.7m14.7-7c3.8-.8 11.2-3 11-3.2-.1-.1-1.7.2-3.4.8-12.2 3.5-24 2.3-44.4-4.4-4.6-1.6-8.4-2.7-8.5-2.7-.2.2 3.9 2.7 6 3.6l6.1 2.2c3.7 1.2 4 1.4 2.4 1.2l-1.8-.1 2.7 1c2.6.8 8.6 2.1 11.5 2.5a118 118 0 0 0 18.4-1m-43.7-1.8-.6-.3c-.8 0-7.3-4.1-14.5-9.1-9-6.2-9.6-6.6-9.4-6.1a75 75 0 0 0 24.4 15.9q.3 0 0-.4m38-1.5c5-.3 13.3-1.7 15-2.5l1-.4-1 .2c-3.7.7-8 1-14.5.8-10.4-.3-16-1.3-27.9-5l-16.4-5.2c-3.6-1.5-1 .5 4.8 3.8a91 91 0 0 0 33.4 8.7zm-72.3-2.9a179 179 0 0 0-21-10.8q-20.8-9.9-24-10.9c-4.1-1.3-7.6-1.7-14.2-1.7s-6.8-.1-2.1-1.1c5.2-1 14.7-.5 18 1.1l1.2.6-1-.8c-2-1.8-7.8-4.1-13-5.2q-3.7-.7-1.8-.7a68 68 0 0 1 24.4 6.1 28 28 0 0 0-6-3.8c-1.2-.6-4.2-1.8-6.6-2.7l-4.2-1.7c.3-.2 7.8 1.4 10 2.1l5.2 2c1.5.8 3 1.3 3 1.2a40 40 0 0 0-25.5-9.2 30 30 0 0 0-11 1.7q-.8.2.1-.3c2-1.1 5.8-2 10-2.5a50 50 0 0 1 24 4l-2.6-1.9a32 32 0 0 0-16.2-5.5l-4-.5 2.3-.2c5-.6 5-.7 1.7-1.2-1.8-.3-4.8-.5-6.9-.4l-3.7.1 2.8-.7a41 41 0 0 1 14.8-.1 53 53 0 0 0-12.7-5c-1.8-.2-1.7-.2 1.6-.3s4.7.3 9.2 1.6c1.6.5-2.4-2.6-5-3.8-1.2-.6-4.4-2-7-3s-6-2.3-7.4-3l-2.5-1.2 4.7-.1 4.7-.3q-.1-.3-1.4-1.4l-5-4.5a50 50 0 0 0-10-7.5q-2.4-1.2-1.2-1a40 40 0 0 1 10 4.1c.3-.2-3.6-3.7-7.4-6.6a40 40 0 0 0-13.2-7q-2.4-.5-1.6-.6a54 54 0 0 1 12.7 3.1c.3-.3-3.7-3-6.5-4.6-1.6-.8-4.1-1.9-5.8-2.4-2.6-1-3.3-1-7-.9-3.4.2-4.7.4-8 1.6a51 51 0 0 0-9.5 4 48 48 0 0 1 8-5c5.3-2.7 9.5-3.5 15-2.9a35 35 0 0 1 6.8 1.4q-.1-.3-1.6-1.5a46 46 0 0 0-10.3-5.2l-2.6-1 3 .3c1.6.1 3.5.5 4.2.7l1.3.5-1.1-.9a36 36 0 0 0-12.1-5.1c-3.2-1-6-1.8-6.1-2h3.4c3.1.2 7.6 1 10.7 2q.7.1.4-.2c-.3-.5-4.6-2.7-6.6-3.3q-1.2-.5-1.2-.7c.4-.3 5.7 1.8 7.2 2.8q3.8 2.9-.3-1c-7-6.7-11.6-8.7-22.7-9.8h2.8q10.3.5 18.7 5c1.5.8 2.8 1.4 2.9 1.3.3-.3-11-10-17-14.5-7-5.3-12.7-8.3-18.7-9.8a57 57 0 0 0-24.1 1.6q-3.5 1.3-3.5 4c0 1.7.5 1.9 5 1a64 64 0 0 1 33 1.5l1.4.6-1.9-.2C34 163.7 25.1 163 22 163c-5.8 0-10.7 1.4-12.4 3.5-1 1.3-1 2 .4 6a17 17 0 0 1 1.2 8.2c0 4.2-.1 5.3-.8 7.2l-.9 2.5c0 .1 3.3.3 7.3.3s7.2 0 7 .2c0 0-2.5.6-5.4 1q-7.6 1.4-10.2 2.8c-1 .6.6.5 7.1-.2 6.2-.7 16.4-.8 18-.3 1 .4.8.4-2 .7-8.6.7-25.1 3.3-27 4.2-1.9 1.1-1.8 3.8.4 5.6 2.4 2 7.1 3.4 16.8 5.2 8.2 1.5 6.5 1.7-3.7.4a33 33 0 0 1-11.3-3l-2-.6c-.3.3 1 4 3 7.8 5.2 10.4 12 17.1 28.6 28.2a30 30 0 0 1 9.8 9.6c5.5 8.4 17.3 16 33.4 21.5 10.3 3.5 21 5.2 43 6.9 5.4.4 12.2 1 15.1 1.5 9.4 1.3 9.4 1.2-.2-3.6-5.8-3-10-4.7-13.8-6q-9.5-3.2-1-.8a448 448 0 0 1 37.9 14.8m-43.5-16.1q.5-.2.8 0 0 .2-.5.2-.7 0-.3-.2m-57.3-45.7c6-1.6 7.6-1.9 7.2-1.5a34 34 0 0 1-8 2.4q-9.3 1.8.8-1m7.3-21h1.3q.5.1-.6.2-1.1 0-.7-.2M3 161.5c.2-.7 6.3-2 10.8-2.5q4-.5 8.1 0l4 .3h-4.3c-4.4.1-10 .8-15.7 2q-3 .5-2.9.2m24.2-2h.7q.1.3-.5.2t-.2-.2m163.5 125.9a60 60 0 0 1-11-7.4 43 43 0 0 0 13.8 9q.1-.1-2.8-1.6m176-3c5.6-1 11-2.2 11.8-2.5 2-.7 1-.6-5.1.7l-8.3 1.5q-10 1.5-11 3.1-.2.3 1-.2c.8-.3 6-1.4 11.6-2.5M258.2 281a73 73 0 0 0 25.7-10.3c4.7-2.8 14.3-9.5 14.5-10q0-.4-4.6-.7c-9.9-.5-15.7-1-23.4-2.1a380 380 0 0 1-37-7.2 218 218 0 0 0-57-6.2 293 293 0 0 1-18.8-.5c-6.8-1.5-20-8-27.6-13.7a134 134 0 0 1-24.2-22.8l1.3 4.5c4.3 13.5 13.2 28.5 20 33.7 3.8 2.9 6 3.4 13.8 3.5h6.5l4.6 2a538 538 0 0 0 33.4 11.3q4.8 1.2 9.2-.4c5.3-1.9 5-1.9 8-.4 1.5.7 6.4 3.4 10.9 6 10.9 6.4 10.5 6.2 14.7 8.2a56 56 0 0 0 17.1 5.4c1.8.4 9.5.2 12.9-.3m110.3-2.8c6.6-1.4 15.4-3.6 15-3.9 0 0-1.4 0-3.2.4l-6.3.9a48 48 0 0 0-8.9 2.3c-5.2 1.7-8.1 3-4.8 2.1zm-332.3-1.8q5.8-4.4 16-6.1l3.8-.8c.4-.4-11 .2-13.4.8-3 .6-6.3 2-7.7 3.4-.8.8-1 1.3-1 2.6q0 1.4.2 1.5zm336.3-1.5c3.3-.4 8.5-1.4 11.7-2 5.5-1.4 7.6-2 4.6-1.6-.8.2-3.8.5-6.6.8-5.6.6-11 1.7-14.5 2.8-2.8.9-2.2.9 4.8 0m-334.7-4.5a43 43 0 0 1 10.5-3.3l4-.7c.1 0-1.3-1.6-3.2-3.5a38 38 0 0 1-5.5-6.8 46 46 0 0 0-5.4-8c-.5-.2-2.6 4.6-3.3 7.3a61 61 0 0 0-1 16.5l.2 1.1 1.1-.9c.6-.5 1.8-1.3 2.6-1.7m337.7 1.7a149 149 0 0 0 23.2-6l-9 1.3c-9 1.6-20.3 4.4-20.9 5.3-.2.3 1.5.2 6.7-.6m7.7-5.2 6.5-.9a228 228 0 0 0 15-5l-4 .8-4.8 1c-.5 0-4 .7-7.7 1.6l-10.3 2.4c-3.4.6-3.5.6-1.5.7 1.1 0 4.2-.2 6.8-.6m-1.4-2c7.5-1.4 11-2.3 15-3.7l10.5-3.9a213 213 0 0 0-29.6 8.1c-2 .5.6.2 4.1-.5m1.6-3.3c5.5-1 8-1.6 11.6-3a137 137 0 0 0 14.4-6.7l-10.3 3.5a358 358 0 0 0-20.4 7zm7.8-5.5a48 48 0 0 0 14-5.5c1-.6 3.8-2 6.5-3 5-2 9.8-4.5 12-6.3l1.2-1.1-1.1.5c-.7.3-5.5 2-10.7 3.5-16.7 5.2-23.1 7.7-26 10l-1 .7 2.7-.5 7-1.9c2.3-.7 4.4-1.2 4.5-1l-3.3 1.2a91 91 0 0 0-12.1 4.8zm-102.5.7c4.9-1 14.7-5.4 20.6-9.5 6.6-4.6 16-15.1 19.3-21.7l3-7.1c1.8-5 2.8-7 6.3-11.6 5.9-8 8.8-12.8 13-21.3q9.2-18 11.6-33a51 51 0 0 0-3.5-33.8q-4.3-8-13-13.9-9-6-17.4-5.6c-3.4.2-3.8.3-6.2 1.6l-3.6 2.2-1 .8 1.8 1.4a41 41 0 0 1 10.2 14.6l2.5 4.8a63 63 0 0 0-3.6-10q-.7-1.6-1.4-2.6c-1.2-1.7-.5-1.6.9.2 2.8 3.4 4.7 7.7 6.4 14.4l.9 3.4-.2-6.5c-.1-6.8 0-6.9 1.3-1 .9 4 1.6 13.4 1.3 17.8l-.2 3.3 1.3-4.6a57 57 0 0 0 1.5-28c.2-.3 1.7 5.3 2.2 8.5.6 4 .7 10.5.1 14a350 350 0 0 1-3.5 18l1.1-2.4q1.6-4.2 1.7-3.2a96 96 0 0 1-2.4 10c.5 0 4.3-8.5 5.1-11.4 1-3.6 1.7-8.4 1.8-13 0-2.9 0-3.2.4-2 .5 2 .8 14.6.3 18-1.7 12.2-12 39-22.2 58a142 142 0 0 1-39.6 48.1l-3.7 3 1.8.2 2.4.2c.4 0 1.6 0 2.7-.3m-144.7-5-.7-.6q-.9-.7-.1.2.8 1 .8.5m132-2.5 5.4-2.3c-8.7 2.9-11.4 3.8-11.6 4q-.5.6 6.2-1.7m116.8-1.5c1.7-.6 5.8-1.7 9.2-2.5a164 164 0 0 0 41.1-16.3 32 32 0 0 0 11.6-13.8c1-2.8.9-6.8-.2-9.4-1.2-3-2.2-3.4-7.7-3.6l-4.3-.2 2.5-1.6c1.4-1 3-2.3 3.5-3.2a27 27 0 0 0 2-11c0-3 0-3.3-1-4s-1.2-.8-5-.7c-3.5.2-7.3 1-10.3 2l-.8.2.8-.5a35 35 0 0 1 14.3-4.5c1.3 0 2.5-.2 2.7-.3.4-.4-.6-1.7-1.8-2.3-1-.5-2-.6-5.2-.5l-5 .5q-.8.1 1.3-.8c3.8-1.8 5.1-2.9 6.2-5a16 16 0 0 0 1.3-9.7q-1.7-12.7-9.1-16.3c-3.8-1.8-10.4-1.5-16.6.8l-2.3.7c0-.4 7.6-3.8 9.8-4.4 1.2-.3 3.5-.6 5-.6h2.7l-1-.8a23 23 0 0 0-9-3.4l-3.6-.8 3.2-.2a18 18 0 0 1 3.8 0q.8.2-.1-.4c-2.4-1.8-8-2.5-12-1.6l-3 .6c-1 0 1.7-2 4.4-3.4l3-1.6c0-.3-5.1.2-7.3.8-4.2 1-9.2 3.8-9.2 4.9l-.6 4.1-1.3 11.6a42 42 0 0 1-2.8 14.8q-1.8 4.5-1 3.3c.3-.4 6.6-4.8 7.9-5.5l-2 2a56 56 0 0 0-9.1 9.4q-1.4 2.2-.8 1.6l5.7-4.2q7.6-5.8 10.2-6.6a144 144 0 0 0-16.6 14.6l-1.4 2.2-.5.8 1-.7 3.6-2.8 5-3.4 2.1-1.3-2 1.7a57 57 0 0 0-13 14.4l-1.2 2.2 1.7-1.5 4.7-4.5a131 131 0 0 1 17.8-14l-3.4 2.7c-1.9 1.3-6.8 5.8-11 9.8A75 75 0 0 0 387 199l-1 1.6 2.2-2c2.4-2.2 5-4.1 4.4-3.3l-6.1 9.3-.8 1 .9-.5 6-2.4c2.9-1 6.4-2.5 7.8-3.2 5-2.6 9.4-6.4 12.1-10.5q2.5-3.6.2.9a38 38 0 0 1-16.4 13.5 70 70 0 0 0-7 4.2c-3 2.1-6.4 5-6.4 5.4a315 315 0 0 0 23.2-9.8l-4.5 2.5a132 132 0 0 0-23.3 14q-1.4 1.4 1 0a66 66 0 0 1 11.2-5.3c1.4-.6 4-1.2 5.8-1.5l3.6-.8q.4-.2-.8.8c-1 1-1.2 1.2-1 2.3.3 1 .4 1.1 1.3.9 4-1 12.2-4.6 15.2-6.7q1.8-1.3-.2.4c-1.4 1.3-9 5.4-13.7 7.3-2.2 1-2.3 1-2.7 2.8-.2 1-.7 2.2-1 2.7q-.8 1 0 .6l6.1-2.4a68 68 0 0 0 6.8-3q1.6-1.1-.3.6c-2 1.7-6.6 4.8-10.4 6.8-1.7.9-3 1.7-2.9 1.8a71 71 0 0 0 13.3-5.5c-.4.7-7 4.9-11.8 7.5l-5.7 3.4a25 25 0 0 0 5.5-1.8c7.6-3 9-3.3 6.3-1.6-6.8 4.1-8.2 5-7.4 4.9q6-1.6 8-1.8l1.4-.3-1.5 1-5.5 3.6 14.5-4.4c.2.2-8 5-13.7 8l-5 2.7 1.9-.6 6.5-2.2c5.8-1.9 14-5.1 17.8-7a48 48 0 0 0 14.3-10.7 42 42 0 0 1-23.2 16.5c-9.7 3.3-21 8.4-23.6 10.5l-1 .7 1.2-.5c.6-.3 2.4-1 4-1.4m24-40.2.9-.7-.5.7-.9.8zm-142.7 39c4-1.4 10.6-4.4 12.3-5.8q.6-.5-1.9.8a91 91 0 0 1-12.6 5.1q-3.5 1.2-2.1 1.2zm-8.4-.3a60 60 0 0 0 13.5-4.7 113 113 0 0 0 16.3-9.5 74 74 0 0 1-16.9 7.4 594 594 0 0 0-21 7.8c-1.2.4 5.2-.3 8.1-1m-4-2.7a63 63 0 0 0 19.5-6.1 73 73 0 0 0 17.6-12.6c-2.7 2-9.3 5.6-15.6 8.5a142 142 0 0 1-30.8 12q-.6.3.1.1zm-44-3.1c12.4-.7 21-2.1 29.6-4.9 6.9-2.2 24.9-8.9 28.1-10.4 3.5-1.6 9-4.8 12.1-7.1a69 69 0 0 0 9.7-9 112 112 0 0 1-19.5 9A455 455 0 0 1 223 232c-12.4 2-19.8 2.7-29.7 2.7-11.3 0-15.3-.5-30.6-4a117 117 0 0 0-11.4-1.8q-9.3-.9-5.2-1.5a40 40 0 0 1 14.5.3q.6.2-.7-.4l-4.1-1.4-2.7-.8c0-.2 1 0 5.4 1l3.7.7c.9 0-8-3-12.4-4.3a61 61 0 0 1-9.2-2.9c.2-.2 11.5 1.9 14.2 2.6l10.3 3-7.2-3.2-7.3-3.2a69 69 0 0 1 10.1 2.4 184 184 0 0 0-27.6-10.9 139 139 0 0 1 27 8.3c-.4-.4-9.8-6.3-11.2-7l-8.2-3.3c-7.5-2.8-13.8-5.4-13.3-5.4.8 0 8.7 2.7 14.5 5a126 126 0 0 1 18.4 8.7c5 3.1 4 2.2-1.3-1.5a180 180 0 0 0-30.4-16.1c-6-2.5.2-.8 7.5 2a130 130 0 0 1 20.7 10.7c.5.3-1.5-2.2-4.5-5.5a145 145 0 0 1-24.5-35.8 138 138 0 0 1-11.2-29.5 244 244 0 0 1-4.3-20l-3.8 1.7q-6.7 3.1-9.4 9c-3 6.3-2.7 12.7 1.3 25 8.7 27 20 48 34.9 64.5a53 53 0 0 0 31.3 18.1c7.8 1.3 37.7 2 51 1.3m56-3.7a61 61 0 0 0 18.6-10.6c6.6-4.9 11.3-8.8 6.7-5.5-1.7 1.3-15.6 9.2-15.6 9l5.2-4.7 5.2-4.7c0-.3-13.3 8.9-15.7 11-2.5 2-5 4-9.3 6.9-.8.6-1.3.7 5-1.4m80.5-6.6c7.7-5.9 17.7-17.3 25.2-28.8 4.9-7.5 12.8-22 15.7-28.9 5.4-12.7 6.3-19 5.4-38.6-.7-15.5-1.8-22.8-3.9-27.5-.9-2-3.5-5-5-5.6-2.3-1-6.7-.5-10.7 1l-1.4.7 1-1a20 20 0 0 1 8-3.5 7 7 0 0 1 4.3.1q1.6.6 1.9.5a41 41 0 0 0-6-6.9c-2.3-2-2.4-2.3-2.4-3.9 0-5.5-2.3-14.3-5.4-20.4a82 82 0 0 0-14.5-19.9c-2.8-3-6.2-7-7.5-8.7a24 24 0 0 0-3.2-3.5c-2.4-1.2-8.1.7-13.9 4.6a63 63 0 0 0-12.2 12.3 112 112 0 0 1 2.5-10.5c-.4.8-6.3 4.9-6.3 4.4l2.2-3.4c1.2-1.6 2.2-3 2.1-3.2l-21.9-1.4a1145 1145 0 0 1-36.7-2.7L275 41c2 2.9 4.4 7 5.6 9.1q2.1 4.1 2.9 4l4.6.8a44 44 0 0 1 24.4 10.7 43 43 0 0 1 7.5 33l-.2 1.5 1.6-.7c1.8-.8 2-1 3.9-6.1A114 114 0 0 1 340.9 65c1-1.1.8-.8-2.3 4.4-3 5-7.6 14.4-11 22.2a33 33 0 0 1-2.7 5.8q-.6.9 1.2 0a21 21 0 0 0 3.6-6.3c4.8-10.4 11.8-21 17.9-27.2 2.9-3 5.7-5 3.4-2.5a117 117 0 0 0-19.6 35 110 110 0 0 1 20-31.5c4.1-4.1 5.8-5.1 2.7-1.6a76 76 0 0 0-18 33.4c-.2 1.8-.2 2 .5 2.3l5 2a42 42 0 0 1 16.5 10.6 35 35 0 0 1 9.6 18.9c1.1 6.3.3 16.2-1.9 25-1 4.2-4.1 13-4.9 14.2-1.2 2 0 .7 2.7-2.6a133 133 0 0 1 13.6-13.6l1.5-1.2-1.9 2.2a152 152 0 0 0-9.1 12 147 147 0 0 0-14.1 24c-2 4.3-1.8 4 1.5-1.5 4.2-7 9.2-14.4 12.3-18a34 34 0 0 1 6.5-6.7c-.7 1.3-8 12.4-10.7 16.4a228 228 0 0 0-10.7 17.4c-1.3 2.3 3.6-3.3 6.2-7 4.1-5.9 7.8-10.6 10-13l2-2.2-2.3 3.3a167 167 0 0 0-12.3 20.5c-1 1.8 1.8-1.6 5.2-6.2l6.5-8.5a84 84 0 0 1 9.7-10.4c.2 0-1.2 2-3.1 4.4a97 97 0 0 0-9.5 13.7l-3 5.2-1.2 1.6 1.1-1 7.8-8.6c3.6-4 7.3-8 8-8.6l1.4-1.3-1.6 2.2q-3.4 4.8-8.8 11a225 225 0 0 0-8.7 11q-.6.9 2-2c4-4 7-6.7 7-6.3s-9 12.7-10.6 14.3l-1 1.1 1.3-1 8.5-8a33 33 0 0 1 6.4-5.5 322 322 0 0 1-13.2 17.3c.2 0 5.7-4.6 8.6-7.2 3.5-3.1 6.3-5.4 6.3-5.2 0 1-8.3 10.8-16 18.7-3.9 4-10.4 11-13.5 14.5-.9 1-.7 1 2.4-.7 1.8-1 4.6-2.7 6-3.8m-80.3 1.2a66 66 0 0 0 12.9-8.4 183 183 0 0 0 10.4-10.2l-11.3 8.8A237 237 0 0 1 269 234c.2 0 2.3-1 4.8-2.4m-72.2 0a107 107 0 0 0 20.4-5.3l4-1.4c-.2-.1-2.3.3-16.8 3.8a81 81 0 0 0-14.4 3.9c0 .3 0 .3 6.8-1m4.2-3.1 5.8-1.4c3.8-1.3 11.8-4.2 10.8-4-5.1 1-12 2.5-12.7 2.8q-2.4.8.3-.8c3.5-2.1 8.2-3.8 12.6-4.5 2.6-.5 1.1-.6-1.8-.2a65 65 0 0 0-14.8 4 30 30 0 0 1 12-5.3l2.8-.6-3 .3q-5.8.4-10.1 2.1c-1.2.5-2.2.8-2 .6.3-.6 4.3-2.7 6.7-3.5l2.5-.9H213q-3.7 0-9 2.4l-2.8 1.2 2.7-2c2.9-2 6.6-3.8 8-3.9.9 0-2.6-.6-12.9-2-13.1-1.7-16.6-2.7-22.8-6.3a70 70 0 0 1-14.8-12 27 27 0 0 0-5.2-4.6q.7 1.2 1.5 2c1.3 1.7 1.8 2.5.6 1.3l-1.4-1.2 1.7 2.8c1.1 1.6 4.5 5.3 8 8.9 6 6 6 6-.5.7a63 63 0 0 1-10.6-11.8 53 53 0 0 0-6.8-12.8l-4.4-6.2c-.2.3 2.5 7.8 3.8 10.3a127 127 0 0 0 8.6 14c2.4 3.1 6.6 8 11 12.5q3 3.1 1.4 2a256 256 0 0 1-14.7-15.3q-1.7-2.1.7 1.5a155 155 0 0 0 12.8 14.6q9.2 8.9 16.2 10.3c2.2.5 2.2.5.9.5-4 .1-8.3-1.8-15.5-6.6-6.1-4.2-6.3-4.3-6-3.7a66 66 0 0 0 16.4 10.6 41 41 0 0 1-9.4-3c-.2.2 3 2 6.7 3.6 5 2.2 8.8 3 14.5 3 5.8 0 4.8.5-2 .9l-4.7.3 4 .2c6 .3 12.9 0 16.8-.8m-18.5-4.3h1.5q.5.1-.9.2-1.2 0-.6-.2m-13.8-13.9-.7-.8.8.7q1.2 1 .8 1zm79.2 12.8a275 275 0 0 0 23.2-7.8 70 70 0 0 0 26.8-16.1 56 56 0 0 0 14-22.7l2.3-5.7a46 46 0 0 1 5-5.6c5-5.2 6.4-7 7.1-10 .7-2.8.7-3.3-.4-7.7-1-4.2-1.1-6.7-.3-9.2q2.6-9.1-4.2-20.8c-3-5.3-8.4-10.7-9.4-9.7-.6.6-.5 4 .2 7.6a58 58 0 0 1 1 16.1c-.6 7.1-2.3 15.9-4.7 24.3a103 103 0 0 1-46.6 59.8c-1.5.8-6.3 2.9-10.7 4.6l-8.3 3.5c-.6.6 1.4.4 5-.6m-.2-3.7a126 126 0 0 0 36.3-31.5c3.1-3.7 3.2-3.7 1.2-.4a134 134 0 0 1-10.2 14.8c.3 0 9.3-10.4 11.2-13 2-2.6 8.6-12.5 8.4-12.5l-2.5 2c-11.1 8.9-27.8 17.4-55.5 28.3-7 2.7-11.6 4.8-11.6 5.2q0 .3.3.3c.2 0 1.4.9 2.7 1.9 1.2 1 2.4 1.8 2.6 1.8l4-2.2c3.8-2.2 8.9-5 8.9-4.6 0 0-2.7 2-6 4.1l-6.2 4 .1.4q.3.3.7-.1l4.4-2A122 122 0 0 0 255 209a173 173 0 0 1-13.7 9.3 69 69 0 0 0 23.5-12.8 84 84 0 0 1-16.4 11.8l-3.9 2.1c.6 0 6-2.3 8.8-3.9a95 95 0 0 0 21.6-16.1c5.7-5.4 5.8-5.4 1.9-1.4a231 231 0 0 1-17 15.2c-2.3 1.9-6.9 5-10.5 7.3-2.6 1.6-.4.7 3.1-1.3m-17.3-.2c-1.4-1.4-5-4-7-5-.9-.4-3.9-1.5-6.7-2.3-7-2.1-13.8-5-24-10.4a88 88 0 0 1-31.3-24.3 85 85 0 0 1-12.7-23.3c-1.6-4-3.5-8.3-4-9.8a46 46 0 0 1-3.6-19.3l.4-1.6.8 4.2c.9 4.4 3.4 14.5 3.6 14.3l-.2-2.5c-.2-1.3-.4-4.8-.5-7.7l-.2-5.4.6 4 .6 4.1.3-5.9.3-8.8v-3l.8 5.2a69 69 0 0 0 2.5 13.5l-.4-8.2c-.4-7 0-18.9.7-19.6.4-.4 1.2 5.8 1.2 9.2 0 3.2.6 4 .9 1.4.3-2.8 2.8-13.5 4-17.2l1-2.7-.2 2.5-.5 8.5c-.5 7.7-1.8 24-2.1 26-.5 3.6.2 1 1.3-4.6 1.6-8.3 2.5-14.2 3.2-20.6.7-6.7 1.4-10 3.6-16.2q1.7-4.8 1.2-4.7a60 60 0 0 0-30.8 27.9 35 35 0 0 0-3.4 11.4c-.2 1.9-.6 4.6-1 6.1-.8 4.5.4 7.1 5.3 11.2 4 3.5 4.2 3.8 4.2 9.7 0 5.5.6 8.2 2.4 12 3.1 6.9 12.9 20.2 18.6 25.5 5 4.6 12.2 9.6 17.3 12 3.6 1.7 6.6 2.4 15.6 3.8 4.1.6 11 1.9 15.1 2.8 16 3.4 17.4 3.9 21.2 7.1 2.5 2 3.5 2.5 1.9.7m-6.7-11.4c6-2 14.7-6.4 18.8-9.4a81 81 0 0 0 20.3-23.4q.1-.3-1.5 1.3a207 207 0 0 1-10.2 9q-.5.5.4-.9c1.2-1.6 8-8.3 11.7-11.6 2.2-1.9 1.4-1.7-1.3.4l-7.7 5-8.1 4.8 6.5-5.5c6.8-5.4 13.8-11.3 13.8-11.6q-.2 0-1.4.9l-4.7 3c-1.9 1-4.4 2.8-5.8 3.7a211 211 0 0 1-22.6 13.9 52 52 0 0 1-43.7 1.3q-2.2-1-1.7-.6a52 52 0 0 0 27 6.3c6.3 0 7.7-.2 10.6-.9l3.4-.7a61 61 0 0 1-22.6 4.4c1.9.5 15.3.6 19 .2l2.8-.3-2.2.8a45 45 0 0 1-14.6 2.5l-6 .3 3.8.3c2.4.1 6.4 0 10.6-.2a54 54 0 0 1 7-.2c.4.4-3 1.6-6.2 2.2l-7.5 1-4.5.2 4.3.3c4 .3 13-.2 15.1-.7 2-.6.1.6-3.1 1.9-2.4 1-4.3 1.4-7.2 1.8-4 .4-4 .5-1 1.5 2.4.8 3.8.6 8.5-1m-77.7-8a124 124 0 0 0-9.5-11c0 .3 10.2 12.8 10.6 12.8zm105.7-4c3-2 8.8-6.5 12.8-10a67 67 0 0 0 18.1-24c4-10.2 5-22.8 2.7-32.3a56 56 0 0 0-19.3-26.3 38 38 0 0 0-18-5.8l-5.8-.8c.2.2 1.2.5 2.2.8 3.5.9 8 3.3 10.3 5.7 4 4 13 15.6 14.6 18.9 1.5 3 3.2 8.7 3.6 12.5.2 1.9.3 2 .5 1.1.1-.6.3-2.6.3-4.4q0-3.2.4-2.8c.8 1.5 2 8.3 2.1 13.3l.2 5.3.7-1.5a23 23 0 0 0-2.2-19.5c-2-3-2-3.1-1.7-3.1s3.6 4.6 4.3 6.2a27 27 0 0 1 1.2 21c-1.4 4.7-2.8 8-6.2 13.8-6.2 10.8-12 19.3-18.3 26.7-4.2 4.9-5.3 6.4-4.6 6.4zm-156.7-.1A124 124 0 0 0 86 162a118 118 0 0 0-13-19.8 174 174 0 0 1 21.3 30c3.8 6.5 8 13 8.4 13 .3 0-1.2-4.8-2.4-7.4l-4.8-8.9-5.2-9.4a62 62 0 0 0-10.7-16c.8 0 4.5 2.5 6 4 1 1 4 5.3 6.9 9.6 6.6 10 6.1 9.4 5.9 8-.4-1.7-4.9-12.8-7-17.3a60 60 0 0 0-8.6-13.1l-2.1-2.4 1.8 1.5q4 3.3 9.3 10.8l3.5 5c.3.3-.6-4.6-1.2-6.4-.7-2.3-2.8-6.2-5.3-9.8l-2.3-3.5 4.1 4.4c2.2 2.4 4 4.4 4.3 4.4.6 0 .4-3-.4-4.5a83 83 0 0 0-7.5-10.8q-2.3-2.5-.7-1.3a57 57 0 0 1 10.4 10.7q.3-.1 1.2-1.9c1-1.9 1-2 .2-2.7-.4-.4-2-2.7-3.5-5.1l-4.3-6.5c-2-2.8-6.5-7.1-8.2-8l-1.4-.8h1.1c2 0 5.8 1.3 8.1 3 1.2.8 4 3 6.3 5 4.8 4.3 8.7 7.5 9 7.3l-3.2-4.9a80 80 0 0 1-6.3-10l3.2 2.9 3.3 3-.5-1.2-1.2-3a21 21 0 0 0-3.7-7.3q-1.5-2-.3-.8c1.7 1.5 5.1 6.6 7.4 10.7 1.9 3.5 2 3.8 1.9 2.4A52 52 0 0 0 98 96.3l-1.7-2.4 2.4 2.4c4.1 4 6.8 8 9.9 15.3l1.8 3.8-1.1-4.7a33 33 0 0 0-5.3-12.2q-2.4-3.3-1-2a54 54 0 0 1 8.2 12.3l.1-4.8c.2-9.6 2.6-15.2 10-22.6l2.9-2.9-6.8.2a83 83 0 0 0-34.9 9 64 64 0 0 0-21.6 16.2 64 64 0 0 1-23.3 17c-9.6 4.6-10.3 5.2-16.3 13.8a325 325 0 0 1-16 21.7l3-.7c4.1-1 12.2-1.6 16.7-1.1a64 64 0 0 1 26.5 10.8c4.9 3.3 10.3 7.4 13.3 10.2q6.7 6.5 1.3.2a101 101 0 0 0-16.6-16 55 55 0 0 0-16.2-7.6c-3.9-1-2.8-1.2 1.2-.2 5.4 1.4 14 6 19.6 10.5a180 180 0 0 1 18 18.3c-.2-1.2-2.9-7-4.8-10.4q-2.7-5 1.8 0A115 115 0 0 1 80 185.9c.3-.4-7.6-17-10-21-2-3-.2-1 2.7 3.3a129 129 0 0 1 9.4 16c.3 0-1.6-7.8-2.5-10-1.9-5.1-7.2-14.9-9.7-18s-.8-1.8 2 1.5c3.4 4 6 8 9.9 15.4a412 412 0 0 0 10 17.6 107 107 0 0 0-8.8-21.8c-3-5.8-8.9-15-11.9-18.5q-4.1-5-.4-1.1c8.2 8.6 13 16 22.9 35.8 5.2 10.5 6.9 13.4 6.2 10.6M28.1 151h1.3q.4.2-.7.2t-.6-.2m191.4 40.1q12.2-1.3 22.4-7.2a138 138 0 0 0 17-12.2q-3.3 1.2 1.2-1.3a48 48 0 0 0 7.6-5.2c-.2.2-5.6 2.2-11.8 4.4l-13 4.4c.4-.3 3.5-1.7 7-3 21.2-8.3 22.1-8.8 25.8-13.5 1.4-1.9 4.3-6.9 4.3-7.5a51 51 0 0 1-22.9 12.8c-2.3.7-4.3.8-13 1l-10.4.3-3.3 1.3c-8.8 3.5-18.2 3.3-30.5-.7-11.6-3.7-18.6-8.4-22.6-15.2-2-3.3-2.8-3.4-5.3-1-4.6 4.7-4.3 13.9 1 24.7 2.3 4.7 3.4 6.3 1.5 2a43 43 0 0 1-4.6-18.2l-.2-3.7.5 2.5a50 50 0 0 0 8.6 20.1c2.8 3.9 4.8 6 2.5 2.7a36 36 0 0 1-5.8-17.8c-.4-5.6-.2-6.7.4-2q1.5 10 6.1 16.6a38 38 0 0 0 25 15.2c6.2 1 7.5 1 12.5.5m-15.2-2.4A31 31 0 0 1 183 174a34 34 0 0 1-3.1-8.9q-.6-2.2.4.4 3 7.8 9.2 13.9c6 5.8 12 8.2 21.4 8.7 9.8.4 19.1-1.8 28.9-7 2-1 3.3-1.7 3-1.4l-5.3 3a54 54 0 0 1-33.2 6m-.4-4.6a28 28 0 0 1-8.6-2.8 18 18 0 0 1-7.8-8q-2.3-4.7.1-1a28 28 0 0 0 11.5 9.3 48 48 0 0 0 30.7-.3c.2.3-7 2.5-10.2 3a51 51 0 0 1-15.7-.2m0-4.3h.7q.3.3-.5.2-.6 0-.2-.2m-3.5-.8a18 18 0 0 1-9.1-7.2q-1.4-1.9 1.8 1.3a22 22 0 0 0 7.8 5.5q4.1 2-.5.4m-54.8 10c-3-5-5-8-7.3-11.2a100 100 0 0 1-8.3-12.3c.4 1.8 4 9 6.2 12.1a96 96 0 0 0 9.4 11.4m183.3-6.7c.5-3.1.6-4.9.4-9.4l-.3-6.8q0-2.2-1 0c-.3 1-.3 2 0 4a101 101 0 0 1 0 16.8zm-43-11.8c4.3-5.7 5.9-10 6.6-17.4.4-4.4.3-7.4-.1-5.5l-.7 3.6a69 69 0 0 1-9.5 23.3l-1.6 2.4 1.6-1.8zm3.2.7q3-4.7 3.9-9.2.2-1.6-.5.7a71 71 0 0 1-6.7 13zm-152 1.4c-2-3.4-6.2-12.3-7.3-15.7a48 48 0 0 1-2.4-17.2q-.1-11.6-.9.7-.5 13 4 22.6a75 75 0 0 0 7.6 11.5zm71.6-7-1.5-1.1a46 46 0 0 1-9-9.4 131 131 0 0 1-12.4-23.3 29 29 0 0 1 0-12.7l.6-3.3v4.4c0 3.9.2 4.8 1 7.5 1.7 4.9 2 4.8 1.8-.5a36 36 0 0 1 17.3-32.5l2.6-1.1-2.4 1.5a32 32 0 0 0-14.8 26.4 32 32 0 0 1 7.9-18 61 61 0 0 1 11.7-9.1q5-3.4.8-2l-2.3.9q-.4 0 2-1.2l2.7-1.5-2.3-.2-6.8-.6c-5.4-.6-8.8 0-11.7 1.8-6.9 4.5-11.7 15.4-13.8 31.6-.9 6.7-1.6 19.6-1.3 22 .6 4 2.1 6 7.3 9.9 5 3.7 10 6.3 16.9 8.7 6.4 2.2 5.7 2 5.7 1.8m3-2.7c-1-1.4-2.3-6-2.3-7.4q.2 0 1.2 2.1c.7 1.3 2.2 3.4 3.5 4.8q2.8 2.9 1.6 1c-2-3.3-4.9-10.9-3.4-8.7 2 3.1 7.7 8 10 8.7.8.2.7 0-.6-1.5a24 24 0 0 1-4.4-8.3q-.3-1.6 1.1 1.4l2.2 3.8c1.2 1.6 4.8 4.3 6.5 4.8 1.3.4 1.6.3 2.8-.4l1.4-.9-2.6-1.1c-3.1-1.5-4.8-2.8-1.8-1.5 3.8 1.7 6.4 1.6 19.3-1.2 2.6-.5 3.6-1.2 1.9-1.2a141 141 0 0 1-16.4-2c-5.9-2-13.2-8.4-15.9-13.7-2-4-2.4-7-2.2-14 .2-6 .5-7.4 2.8-12l1-2.4a22 22 0 0 0-4.2 5.2 43 43 0 0 0-5.3 22q-.6 12.8.7 18.5c.5 2.2.8 2.9 2.1 4.2l1.8 1.6q.1-.2-.8-1.8m97-9.4c3.4-10 4.1-13 4.8-20 .4-4.7 0-15-1.3-26.8-.5-5-1-10.7-.9-12.6v-3.4l1 3c1.4 4.5 2 6 2.4 6 .6 0 2.6-3.3 3.4-5.4 1-2.7 1-4.9.4-8A34 34 0 0 0 306 65.4a69 69 0 0 0-15.6-7.5 54 54 0 0 0-20.5.1c-5.5 1-18.6 4-24.3 5.5l-2.9.8 3.6 3.5c2 2 4.2 4.3 5 5.3l1.3 1.6-.7-1.6-.8-1.7.7 1c.5.4 1.4 2 2.1 3.4l1.3 2.6-.2-2.1c-.3-2.2 0-6.2.5-6.2q.3.2.7 1.5c.5 1.3 2 3.7 2.6 3.7q.3-.2.1-2.3c0-1.3 0-2.8.3-3.3q.4-1.2.4 1.3c0 1.3.3 2.9.7 3.8q1.6 3.8 1.6-.7c0-1.5.1-3 .3-3.4q.4-1 .3 0 .1 3.5 7.3 8.3l3 2-1.9-2a24 24 0 0 1-4.2-7.6s1 1 2 2.4c2.3 3 6.8 7.3 8.9 8.5l1.4.8-1.3-1.4q-2.2-2.4-4.6-6.6l-1-1.9 1.7 1.9a132 132 0 0 1 13.4 18.5 68 68 0 0 0-5.7-12.4 91 91 0 0 1 8.2 10.7l-.4-1.3q-4-9.3 1-.4c1.2 2.3 2.1 3.7 2 3.3a59 59 0 0 1-1.2-7.3q-.5-2.2 2.8 4.3c1.2 2.5 2.2 4.1 2.2 3.7l-.5-4c-1-6.5-.7-6.1 2 2a121 121 0 0 1 5.4 24.3l1.5 9.6a203 203 0 0 0-1.6-23.9c.5.5 2.8 13.5 3.4 18.9a224 224 0 0 1-.3 39.8 58 58 0 0 0 2.8-7.5m-102.6-.2c-.8-6.2-.8-16.1 0-21.7a39 39 0 0 1 7.5-18.2c5.4-8.2 11.3-11.5 20.6-11.5q6.3 0 11.2 3.1a12 12 0 0 0 4 1.5c2.4.4 3.9 1 6.1 2.7 4.6 3.3 5.8 10.1 3.5 18.4-1.2 4.1-4 10-6 12.7a29 29 0 0 1-8 6.9c-3.7 2-9.8 1.5-15.1-1.3a32 32 0 0 1-13.7-17.3q-.5-2.3-.6-1 0 2.8 2.9 8.4 4.3 8.5 11.4 13.7c1.7 1.2 3 2.3 2.9 2.3-.2.2-6.3-2.5-7.8-3.4l-3.5-2.7-2-1.7 1.8 2a33 33 0 0 0 7.9 5.9c5.7 2.9 15.8 3 21.5.2a21 21 0 0 0 8.8-9.9c1-2.2 1-1.1-.2 2.3-1.1 3.6-3 6-7.1 8.6-3 2-2.8 2.5.1.6a25 25 0 0 0 9.9-12.3q1.5-4.7.6.4a33 33 0 0 1-2.6 8.3l-.8 1.3.9-1c2-2.3 4.5-9 5.1-14 .3-2.1.3-1.8.3 2.2 0 3.6 0 5-.6 6.6l-.5 2c.4 0 2-4.3 2.5-6.6a29 29 0 0 0 0-10.8c-.7-4.8-1.8-8-3.9-12-5-9.3-7.3-11.8-14.6-15.3a35 35 0 0 0-17.2-4.7 19 19 0 0 0-8 .6c-8.3 2.5-16.2 12.2-18.6 23l-2 8.8a61 61 0 0 0-2.3 15c0 5.5 1.2 9 4.6 12.6 1.3 1.5 1.5 1.5 1.6.8 0-.5-.2-3-.6-5.5m42-1.8q2.7-1.4 5.1-3.8c2.3-2.3 2.4-2.4 1.2-.7-1.9 2.8-5 5-8 5.6q-.7.2 1.7-1.1M122 148.5a66 66 0 0 1 1.5-22.4c.8-3 2.7-8 2.5-6.4l-.4 4.1c-.1 2.5-.1 2.7.2 1.5l1.8-6.8c1.7-6 2.1-8 3.9-17.4l1.8-8.7c.5-1.8.5-1.7.3 3s-1 11.9-1.3 13.3c-.3.9.4-.6 5.6-11.2 2.2-4.8 4.2-8.6 4.3-8.5.3.3-2.2 10.5-3 12.3-1 2.3-.6 2 1.6-1.9a77 77 0 0 1 6.6-10 266 266 0 0 1-5.1 14.1c1-1 6.6-11.2 9.5-17.4l3.4-7c.3.3-1.7 7.7-2.3 8.9q-1.6 3.2 2.4-2.4a162 162 0 0 0 11-18c2-3.7 3.3-7.2 5.2-13.4q.5-1.9.2.6a87 87 0 0 1-14.5 33c-5 7.3-6.5 10-6.1 10l2-1.7c1.1-1 3-2.3 4.4-3.1 2.5-1.5 8.9-4 11-4.3.9-.2 1.2-.5 2-2 1.4-3 4.8-8.6 6.7-11.2 8.8-11.9 20-17.3 37-17.8q14.6-.5 24.3 4.4l3 1.5 1.8-1c1-.6 3.3-1.7 5.4-2.6l3.7-1.6-2.9-3a38 38 0 0 0-10.4-8.1 41 41 0 0 0-15.8.1c-1.3.5.7-1 2.8-2 1.7-.8 2.6-1 5-1h3c-.5-.4-12.3-5-13-5l-2 2.4c-.8 1.3-2 3-2.8 3.6l-1.3 1.3 1-1.7c1-1.5 2.8-5.3 2.8-5.8s-6 .3-9.2 1l-3 .6A51 51 0 0 1 215 37l-3.1-.7a67 67 0 0 0-18 0A121 121 0 0 0 160 47.1c-6.7 3-9.8 4.8-12.6 7.6a30 30 0 0 0-6.4 9A61 61 0 0 1 128 80c-8.5 8.4-10.6 11.7-12.8 19.8a31 31 0 0 0-.7 9.8c0 5.8.2 7.4 1 11l4.1 20.3c.9 4.5 2.3 9.8 2.6 9.6 0 0 0-1-.3-2m95.2-101.8c3.5-1.7 8.5-3.5 9.4-3.5q.1.1-2.5 1l-6.4 2.6q-7 3-.5-.1m55.7 95a25 25 0 0 0 1-13.5c-.8-3.4-3-8-5.2-10.4-1.8-2-5.3-5-5.5-4.8q0 .3 1 2a56 56 0 0 1 7.3 25.3c0 2-.3 3.6-1.3 7.3-.6 2.3 1.5-2.3 2.7-5.8m-135 6a17 17 0 0 0-4-2.8q.2.4 1.7 1.6 2.3 1.8 2.3 1.2m105.1-3.2c1.4-.6 6.2-4.7 5.9-5l-4 1.7a57 57 0 0 1-9.5 3.8c0 .9 5.4.5 7.6-.5m-10.2-4.1-.9-.9-.8-.7.7.9q1 1.1 1 .7m3-1.4c0-.4-3.7-2.2-4.6-2.2q-1.9 0 1.9 1.5l2.5 1zm-39.2-10.5A82 82 0 0 1 211 102a47 47 0 0 1 40-14l1.9.5h-4.3c-2.3 0-5 .3-6 .4l-1.9.3h2.6a37 37 0 0 1 16.3 4.5c2.4 1.3 2.3 1.3-3.2-.4a59 59 0 0 0-17.2-2.7q6.8.8 11.6 2.7c2 .8 5.1 1.9 7 2.4a43 43 0 0 1 25.8 17.2c3.5 4.7 4.4 5.6 7 6.6 4.2 1.6 6.3 3.8 8.3 8.7q1 2.3.8 1.5l-.5-5c-1-11.7-3.7-17-12-24.7a61 61 0 0 0-29.4-14.4c-12.1-2.7-16.5-2.3-29.2 2.4a68 68 0 0 0-22.6 13c-4.2 4.2-7.4 11-9.2 19-.9 3.6-2.8 15.7-2.7 16.6l.8-2.7zm57.6 3.4c-.7-3-3.5-5.8-7.1-6.7-3.4-1-7.9-.6-10.6.7q-1.6.8-1.2.7c1.5-.5 7.3-.6 9.4-.1a13 13 0 0 1 7.4 4.7c1 1.2 2.1 2.3 2.2 2.3q.2-.1 0-1.6m-28.8-7.2c3-3 8.2-6.4 12.2-7.8a20 20 0 0 1 16.2.8c3.2 1.7 2.5.7-.9-1.3-5.7-3.5-14.9-3.1-22.1.8-2.6 1.3-6 4.6-7 6.7-.5.9-1 2.4-1.1 3.3l-.3 1.7 1-1.5zm-128.3-4.7a15 15 0 0 0-3.8-5.5c-3.4-3-9.1-6.2-6-3.3.8.8 2.4 2.5 3.4 3.8 4.8 5.8 8 9.3 8 9 .1-.2-.6-2-1.6-4m77-16a130 130 0 0 1 13.5-18.3l2.4-2.6-2.5 3.9-6.1 10 2.3-2.8a93 93 0 0 1 21-17.4c5.8-3.9 6-4 6-3.7s-9.3 7.6-12 9.6-8.4 7.7-11.6 11.7q-6.8 8.2.4.4c5.3-5.4 6.6-6.3 24.2-16.4 2.2-1.2 5-2.9 6.1-3.7 2-1.3 2.1-1.3 1.3-.5A96 96 0 0 1 206 84l-5 3.5A89 89 0 0 0 224.4 72a57 57 0 0 1-17 14c-3.3 1.8-2 1.7 2.6 0a77 77 0 0 0 15.5-9.3l4.1-3-2.5 2.6a58 58 0 0 1-10.9 8.7q-5.9 3.7-1.1 1.2c3.8-1.9 10-6.3 15.8-11.3l1.7-1.4-1.3 1.9c-2 2.8-6.9 7.5-10.5 10-4.8 3.3-5 3.5-2.6 2.5a95 95 0 0 0 20.3-12.3c.4.4-3.6 4.4-6.4 6.4q-4.3 3.1-3.2 2.7c2.7-1.4 11-6.2 12.8-7.5l2.3-1.7-2.2 2a54 54 0 0 1-8.1 6.3c-.5.4 4.4-2 9.1-4.6 2.2-1.2 4.3-2.2 4.6-2.2.4 0 1.6.6 2.7 1.3q3.7 2.5 1-2c-3-5.7-12-11.7-20.5-13.5-3.4-.7-16.9-1.4-20.7-1-14.6 1.2-25.3 8-34.7 22a43 43 0 0 0-8.3 26.6l-.4 6.5A164 164 0 0 1 174 104m53.6 3.3c5.1-1.6 11.7-.5 16.2 2.8l1.3 1-1-1.2a23 23 0 0 0-7.4-5c-2.3-.7-6-.7-8 0-2.1.8-5.1 3.1-6.9 5.2l-1.3 1.7 2.3-1.9a14 14 0 0 1 4.8-2.6M99.2 77.8c6-1 19-1.4 23-.7l2.9.4 2-1.5c4-3 7.7-8 12.5-16.3a30 30 0 0 1 8.2-10.6 92 92 0 0 1 20.6-10q.2-.4-.2-1-.9-.9.5 0c1 .6 1.1.6 7.3-1a226 226 0 0 1 21.5-4.2c11-1.5 21.2.7 37 8.3l5.2 2.4 2.3-1.2c1.3-.6 4-2 5.8-3.1a24 24 0 0 1 8-3.5c3.4-1 5.2-1 2.4 0a80 80 0 0 0-16.5 8.8q-.5.2 2.3 2.4c2.8 2.1 6 5.5 8.5 9.1l1.4 2 6.1-1.3a97 97 0 0 1 20.4-3.1 132 132 0 0 0-19.4-24 109 109 0 0 0-29-22.1 41 41 0 0 0-22-5.2 96 96 0 0 0-35 9 59 59 0 0 1-22.5 6.2l-1.1-.2.7 1.3q1.1 2.2.5 7.8l-.3 1.9-1.5-3.5c-1-2-2-4.1-2.6-4.8a19 19 0 0 0-9-5.9q-1.2-.3-1.4.4c-.4 1.1.9 3 5.2 7.5l6.1 6.6 1.7 2-3.4-2.4c-5-3.8-8-5.1-11.5-5.3-5-.3-9.4 1.3-15 5.6-5 3.8-9.2 8.8-14.8 17.6a90 90 0 0 0-13 32.5q0 .3.8.1zm5.2-20.4c1-1.2 6.3-5 8.6-6.2l4.1-1.6c2-.5 7.8-.6 10.5-.2 1.3.2.7.3-3.1.5-3.9.1-5.4.4-7.7 1.2q-5.5 1.9-10.4 5.2-2.3 1.5-2 1m132-16.5 2.7-2a38 38 0 0 0 7.8-7.4l1-1.3-1.1 2.3q-2.4 4.5-7.7 7.2a10 10 0 0 1-2.6 1.2m-78.3-2q-1.3-1.5-.4-.8c.8.5 2.3 2.3 1.9 2.2zm87.7-.4.8-.8q.2.1-.5.8-.5.7-.8.7zm-83.4-.3-1.7-1.4q-.9-1 .6 0c1.6 1 3 2 2.6 2zm32-8.2.7-4.6c.4-3 .3-5.5-.3-9.2q-.2-1.7.4.2c1.2 3 1 9.2-.3 13.2q-.7 2.2-.4.4m3.6-6.7q0-.8.1-.4v1q-.1.3-.2-.6m.5-3q0-1.7.1-1v2z" style="fill:#b50000;stroke-width:1px"/></svg>