<svg xmlns="http://www.w3.org/2000/svg" width="359" height="708" viewBox="0 0 359 708"><path fill="#a6ce79" d="M92.6 183a887 887 0 0 1 91.2 244.8c15.9 75.6 20.5 146.6 23.5 217l-11.1.5c-3-70-7.6-140.4-23.3-215.2a876 876 0 0 0-90.2-241.7z"/><path fill="#a6ce79" d="M250.8 120.8c-37 122.8-38 279-39 408.4-.3 42.3-.5 81.7-2 116l-11.2-.4c1.5-34.5 1.8-73.7 2-115.7 1-130.2 2-287.3 39.4-411.5z"/><path fill="#74ad4b" d="M161 644.5c31-136.5 22.5-276-27.6-418.8 71.7 90 98 233.7 88.7 419.7z"/><path fill="#5a9141" d="M161 644.5c31-136.5 22.5-276-27.6-418.8 75.6 148 70.4 284 58.2 419.2z"/><path fill="#5a9141" d="M246.4 644.3C227 476.3 247.6 304.7 310 129c-79.4 110.8-118 287.6-124.8 516.4z"/><path fill="#74ad4b" d="M246.4 644.3C227 476.3 247.6 304.7 310 129c-88.3 182-94.8 349.5-94.2 515.7zm-103.4.2c19.3-136.5-1.2-276-63.6-418.8 79.4 90 118.1 233.7 124.8 419.7z"/><path fill="#5a9141" d="M143 644.5c19.3-136.5-1.2-276-63.6-418.8 88.3 148 94.8 284 94.2 419.2z"/><path fill="#d3ad30" d="M267.5 8.3c0-.7 6.4-7 11.5.2 3.4 4.8 6 2 12 3 9 1.2 6.6 11.6 6.7 15 .2 5.9-3.6 20.7-8 24.7C286 55 271.5 64 267 56.7c-6-9.5-9-18.6-5.4-29.2 1.9-5.4 2.4-7 5.2-11.7.9-1.5 1-6.3.8-7.5"/><path fill="#bf9b34" d="M267.5 8.3c0-.7 6.4-7 11.5.2q.6.9 1.3 1.5c7.1 8.5 6.3 21.5 7 33.7L270 49l-9.8-16q.4-2.7 1.3-5.5c1.9-5.4 2.4-7 5.2-11.7.9-1.5 1-6.3.8-7.5"/><path fill="#977c33" d="m240.3 141-5.8-5.9c0-1.7.2-1.7.8-3.8l9.8-29 15 13-10.8 24z"/><path fill="#f8c823" d="M240.2 140.9c5.3-4.7 13.3-18.1 6.6-27.2s-2.5-31.3 7.5-44.6c14-18.5 28.1-30.9 39.5-48.4 4-6.2 12.6-4 14.4 2 8.8 28 13.4 59.7-.2 91.8-14.4 34-44 33.2-67.8 26.4"/><path fill="#e7bb2a" d="M240.2 140.9c5.3-4.7 13.3-18.1 6.6-27.2s-2.5-31.3 7.5-44.6c8-10.6 16.2-19.3 23.8-28 .8 11.3 1.8 22.6 1.8 34.2q-.1 8.3-2.5 16.3c-3.3 11.5-11.4 27.2-23.8 30.8-5.6 1.7-7 12.4-6 17l.7 3.5z"/><path fill="#d3ad30" d="M240.2 140.9c4-3.6 9.7-12.4 9-20.4v-.9a56 56 0 0 1 9-41.6 50 50 0 0 0-1.6 47.4A112 112 0 0 1 267.1 66a121 121 0 0 0-6 56.6 146 146 0 0 1 12.2-55.8c-5.7 21-6.8 41-5.3 60.2 14-17.9 17.5-37.8 16.8-59.3q4.2 23.4 2.4 47a189 189 0 0 0 10.1-56.8c3.2 18.9.5 37.4-2.6 55.8l1-.4c6-19.7 12-39.5 12-61.2 2.2 21.4-2 40.9-6.3 60.4 8-19.2 13.7-39.2 12.7-61.4l1.2 2.3a114 114 0 0 1-7.3 61.1c-14.4 34-44 33.2-67.8 26.4"/><path fill="#c6a233" d="M261.1 118.5q1.1-25.6 12.2-51.7-6.2 23.5-5.9 45.2-2.9 3.8-6.3 6.5m-4.8 3q2.1-1.1 4.2-2.5-3-22.7 6.6-53c-9 19.6-12 38-10.8 55.4m-16.1 19.4c4-3.6 9.7-12.4 9-20.4v-.9a56 56 0 0 1 9-41.6 49 49 0 0 0-3 43.9l-1.6.5c-5.6 1.7-7 12.4-6 17l.7 3.5z"/><path fill="#fdefac" d="M243.6 98.3c0-9.8 4.1-21.3 10.2-29.4 14-18.5 28.6-33 40.8-50 5.2-7.2 11.8-3.5 13.7 2.5 8.7 28 14.3 61.6.7 93.7a45 45 0 0 1-44.3 29.6c16.3-.6 32.3-8.4 41.8-29.9 10.5-24 13-56.1.9-90.9-1.6-4.4-8.8-7.4-11.9-3.1C283.1 38 268 52.5 255 70c-6.6 9-9.5 18.8-11.4 28.2"/><path fill="#e6847b" d="M243.6 98.3c0-9.8 4.1-21.3 10.2-29.4 8-10.7 16.3-20 24.2-29.2l.2 2.5c-7.8 9-15.8 18-23.2 28a69 69 0 0 0-11.4 28"/><path fill="#f8c823" d="M240.4 141c-1.4-7 .3-22.5 11-25.7 11-3.1 21-23.4 21-40 .1-23.2-3.6-41.7-2.1-62.5.5-7.3-7.6-10.8-12.7-7.2-23.9 17-46.8 39.5-55.3 73.3-9 35.8 15 53.1 38 62"/><path fill="#fce06f" d="M311.4 74.2c.8-17 1.4-33.9-6-50.8-2-4.6-6.6-2.4-8.7.5a242 242 0 0 1-27 32.1 78 78 0 0 0 17.2-16c-2 7.5-6.2 13.7-10.6 19.1A62 62 0 0 0 293 36.4c-3 8.4-4.8 16.6-3.3 24.5.7-10.3 3-20.2 11.3-29.2 3.6 9 4 18.3 2 27.6 2.3-7.3 4-14.7 2.2-22.4 6 12.2 5.6 24.8 6.2 37.3"/><path fill="#fad036" d="m279.1 55.4-2.8 3.7 3-2.4zm-.6-8.7.2 2.2q-4.6 4-9 7.1 4.3-4.3 8.8-9.3"/><path fill="#d3ad30" d="M240.4 141c-1.1-5.4-.3-15.8 5-21.8l.6-.6a56 56 0 0 0 18-38.7 50 50 0 0 1-27.4 38.8A113 113 0 0 0 264.2 65a121 121 0 0 1-29.4 48.8q16.3-22.2 24-52a173 173 0 0 1-32.3 51.2c-.3-22.7 9-40.7 22.6-57.3a186 186 0 0 0-30.4 36A189 189 0 0 1 245 40.3c-14 13.1-23 29.5-31.7 46l-.5-.9c7-19.4 14.4-38.6 27.4-56-14.6 15.7-23 33.8-31.5 51.9a141 141 0 0 1 27-56.5l-2.3 1c-14 14-25.6 31.2-31.1 53.1-9 35.8 15 53.1 38 62"/><path fill="#fdefac" d="M263.4 105a53 53 0 0 0 9.6-29.7c0-23.1-2.9-43.5-2.3-64.4.3-9-7.2-10-12.3-6.3-23.9 17-48.7 40.4-57.3 74.2-6 24 4 39.9 17.4 50.3-12.6-10.3-20.7-26.2-15.2-49 6.1-25.5 23.5-52.6 54.2-73 4-2.6 11.5-.6 11.4 4.7-.5 21.2 2.7 41.9 2.4 63.8a68 68 0 0 1-8 29.3"/><path fill="#fce06f" d="M224.5 45C234.2 31 244 17 260 8.1c4.4-2.5 6.8 2 6.7 5.6-.6 14.2.3 29.4 2 42a78 78 0 0 1-4-23.2c-3 7-3.3 14.6-3 21.6A62 62 0 0 1 262 26a47 47 0 0 1-12.2 21.5 45 45 0 0 0 8.7-30 46 46 0 0 0-18.3 20.8A43 43 0 0 1 252 19c-12.2 6-19.4 16.3-27.5 26"/><path fill="#a22629" d="M10.6 87.2c-.5-.4-.9-9.5 7.9-8.3 6 .8 5.7-3 10.3-6.9 7-5.8 13 3 15.7 5.3 4.4 3.8 12.7 16.6 12.8 22.5.1 5.4-2.9 22.2-11.4 20.6-11-2.1-19.7-6-25.2-15.8-2.7-5-3.5-6.4-5.1-11.7-.5-1.7-4-5-5-5.7"/><path fill="#8c2225" d="M10.6 87.2c-.5-.4-.9-9.5 7.9-8.3h2c11.1.5 20.2 10 29.6 17.7l-7.8 16.3-18.4-3.7q-1.7-2-3.2-4.6c-2.7-5-3.5-6.4-5.1-11.7-.5-1.7-4-5-5-5.7"/><path fill="#551619" d="m90 196.9-8 .3c-1.4-1.2-1.2-1.3-2.4-3.2l-14.8-26.8 19.8-2.2L95 189z"/><path fill="#d6232a" d="M90 197c0-7.2-4.4-22.1-15.6-23.3S49.6 154.4 46.6 138c-4.2-22.7-3.8-41.6-9-61.8-2-7.1 5.5-12 11.2-9.3 26.5 12.5 53 30.5 67.5 62.2 15.3 33.6-5.2 55-26.4 67.8"/><path fill="#c7242b" d="M90 197c0-7.2-4.4-22.1-15.6-23.3S49.6 154.4 46.6 138c-2.5-13.1-3.3-25-4.7-36.5 9 7.1 18 14 26.5 21.8q6 5.7 10.3 12.8c6.3 10.3 12.4 26.9 6.7 38.5C83 179.8 90 188 94 190.5l3 1.8z"/><path fill="#bb242a" d="M90 197c0-5.5-2.6-15.7-9-20.6l-.6-.5c-11.5-8.4-21.3-18.4-24.6-34.8a50 50 0 0 0 33.8 33.3 113 113 0 0 1-36.7-48 121 121 0 0 0 37.7 42.8 146 146 0 0 1-33-46.7 173 173 0 0 0 41 44.5c-3.8-22.4-16.2-38.4-32.5-52.4a186 186 0 0 1 36.3 30c-9.7-16.3-20-32.3-35-45.9 16 10.4 27.8 25 39.4 39.6l.3-1C96.7 119.7 86 102 70 87.3c17.2 12.8 28.8 29 40.3 45.4a141 141 0 0 0-36.7-50.8l2.5.6a114 114 0 0 1 40.1 46.7c15.3 33.6-5.2 55-26.4 67.8"/><path fill="#9c2528" d="M87.6 166.3q.3-4.4-.5-9a168 168 0 0 1-29.4-34.8 146 146 0 0 0 29.9 43.8m-1.1 5.6q.7-2.2 1-4.8-18.7-13-34.6-40.6c8.4 19.8 20 34.4 33.6 45.4m3.4 25c.2-5.4-2.5-15.6-8.8-20.5l-.7-.5c-11.5-8.4-21.3-18.4-24.6-34.8 5 16 15.7 26 30.3 32l-.7 1.5C83 179.8 90 188 94 190.5l3 1.8z"/><path fill="#eea49e" d="M60.9 165.6A53 53 0 0 1 46 138.2c-4.2-22.7-5-43.3-9.4-63.8-1.8-8.7 5.4-11 11-8.4 26.6 12.5 55.3 31 69.7 62.8a45 45 0 0 1-8 52.5c10.4-12.3 15.6-29.4 6.1-50.9-10.6-24-32.6-47.5-66.4-62-4.4-1.9-11.4 1.4-10.3 6.6 4.2 20.7 4.8 41.6 9 63.2a69 69 0 0 0 13 27.4"/><path fill="#e6847b" d="M60.9 165.6A53 53 0 0 1 46 138.2c-2.5-13-3.7-25.5-5.2-37.5l2 1.5c1.3 11.9 2.5 23.8 4.9 36a69 69 0 0 0 13 27.4"/><path fill="#d6232a" d="M90.1 196.8c-6-3.6-16.3-15.4-11.4-25.5s-3-31.2-15.3-42.5c-17-15.7-33.2-25.4-47.6-40.6-5-5.3-13-1.7-13.8 4.6-3.6 29-2.5 61.1 16.7 90.3C39 213.9 67.9 207.8 90 196.8"/><path fill="#db3d35" d="M88.9 99.3c-12-12-24-23.9-41.5-29.8-4.8-1.6-6.3 3.2-5.5 6.7 3 13.9 5 29 5.4 41.6.9-7 1.3-15.3-.1-23.4A51 51 0 0 1 54 115c1-9.5-2.1-18.6-5.4-27.7 4 7.9 9 14.7 15.8 19a45 45 0 0 1-14-28 46 46 0 0 1 21.8 17.2c-3.8-6.7-8.2-13-15-17 13 4 22 12.7 31.7 20.7"/><path fill="#cd272b" d="m53.2 110.5 1 .8-.2 3.8zm-6.8-5.4 1.7 1.3q-.1 6-.8 11.4z"/><path fill="#bb242a" d="M90.1 196.8c-4.6-2.8-11.8-10.4-12.6-18.4v-.9A56 56 0 0 0 61 138.2a50 50 0 0 1 10.2 46.3 113 113 0 0 0-21-56.6 121 121 0 0 1 16.1 54.7 146 146 0 0 0-22-52.7c9.4 19.7 14 39 16 58.3C43.1 173 36.2 154 33 132.8q.1 23.9 6 46.7c-8.5-16.9-16.6-34-20-54.1.2 19.2 6.2 36.9 12.5 54.5l-1-.3a204 204 0 0 1-22.8-58c1.6 21.4 9.3 39.8 17 58.3a141 141 0 0 1-23.5-58.1l-.8 2.4c.9 19.8 5.7 40 18.2 58.9C39 213.9 67.9 207.8 90 196.8"/><path fill="#eea49e" d="M79 155.5a53 53 0 0 0-15.2-27c-17-15.7-34-27.4-49-42-6.5-6.1-12.3-1.3-13 5-3.6 29-3.2 63.2 16 92.3 13.6 20.7 32 24 48.8 21.1-16 2.4-33.2-2.4-46.4-21.8C5.5 161.3-2.7 130 3 93.8c.8-4.7 7.3-8.9 11.1-5.2 15.3 14.7 32.8 26.2 48.7 41.3a68 68 0 0 1 16.3 25.6"/><path fill="#db3d35" d="M8.6 143.7c-3.8-16.6-7.4-33.1-3.1-51 1.1-5 6-3.6 8.6-1.2 10 10 21.9 19.7 32.4 26.8a78 78 0 0 1-19.9-12.6c3.3 7 8.6 12.3 14 16.8A62 62 0 0 1 20 103.2a47 47 0 0 1 7.7 23.5A45 45 0 0 0 11.3 100c-2 9.6-.7 18.7 3 27.5A43 43 0 0 1 8 105.8c-3.7 13.2-1 25.5.6 37.9"/><path fill="#a6ce79" d="M262.2 328.8c-19.5 35.6-32 82.2-40 136-8 54.2-11.4 115.6-12.4 180.3l-11.2-.1a1452 1452 0 0 1 12.5-181.8c8.2-55 21.1-102.9 41.3-139.7z"/><path fill="#d3ad30" d="M325.6 226.8c.2-.6 8.6-4.2 10.6 4.5 1.3 5.8 4.8 4.2 10 7.2 8 4.6 1.7 13.4.5 16.6-2 5.5-11 17.7-16.6 19.9-5 2-21.8 5-23.3-3.6-1.9-11-1.3-20.5 6-29 3.8-4.4 4.8-5.6 9.2-9a20 20 0 0 0 3.6-6.6"/><path fill="#bf9b34" d="M325.6 226.8c.2-.6 8.6-4.2 10.6 4.5q.2 1.1.6 1.9c3.4 10.6-2.2 22.3-6.2 33.8l-18-1.5-3-18.6q1.4-2.2 3.3-4.6c3.7-4.3 4.7-5.5 9.1-8.9a20 20 0 0 0 3.6-6.6"/><path fill="#977c33" d="m250.5 339.5-3.1-7.5c.6-1.7.8-1.6 2.1-3.3l20-23.3 9 17.9-19 18z"/><path fill="#f8c823" d="M250.4 339.4c6.7-2.4 19.2-11.8 16.4-22.7s9.4-30 23.7-38.5c19.9-11.9 37.7-18 54.8-30 6-4.2 13.2 1 12.6 7.3-2.4 29.2-10 60.4-34.7 85-26.2 26-53.3 14.2-72.8-1.1"/><path fill="#e7bb2a" d="M250.4 339.4c6.7-2.4 19.2-11.8 16.4-22.7s9.4-30 23.7-38.5c11.5-6.8 22.2-11.8 32.6-17-3.6 10.8-6.8 21.6-11.2 32.3q-3.1 7.7-8.4 14.2c-7.4 9.4-20.9 21-33.7 19.7-5.8-.6-11 8.8-12 13.5l-.6 3.4q-3.5-2.3-6.8-4.9"/><path fill="#d3ad30" d="M250.4 339.4c5.2-1.8 13.7-7.8 16.1-15.4l.3-.9a55 55 0 0 1 24-35.2 50 50 0 0 0-19.3 43.3c5.3-18 15.2-35.2 32-51.1a121 121 0 0 0-26.9 50.2 146 146 0 0 1 32.4-47.1 173 173 0 0 0-27.5 53.8c19.7-11.3 30.4-28.5 37.8-48.7a186 186 0 0 1-15.5 44.5 189 189 0 0 0 30.8-48.9c-4.2 18.8-13.6 34.9-23.4 50.9l1-.1c13-16 26-32 34.2-52.1-6 20.5-17.3 37-28.5 53.5a141 141 0 0 0 34.8-52l.2 2.5a113 113 0 0 1-29.7 53.9c-26.2 26-53.3 14.2-72.8-1.1"/><path fill="#c6a233" d="M278.3 326.5q4.3-1.2 8.2-3.6a168 168 0 0 1 22.5-39.7 146 146 0 0 0-30.7 43.3m-5.6 1q2.4-.2 4.8-.8 5.8-22 26-46.6a114 114 0 0 0-30.8 47.3m-22.3 11.9c5.2-1.8 13.7-7.8 16.1-15.4l.3-.9a55 55 0 0 1 24-35.2 49 49 0 0 0-19.3 39.5h-1.7c-5.8-.6-11 8.8-12 13.5l-.6 3.4q-3.5-2.3-6.8-4.9"/><path fill="#fdefac" d="M269.6 301.2c3.8-9 11.9-18.2 20.5-23.4 20-11.9 39-19.8 56.6-31 7.5-4.7 12.3 1.2 11.7 7.4-2.4 29.2-9.8 62.6-34.5 87.2a45 45 0 0 1-52.1 10.7c15.2 5.6 33 4.4 49.8-12 18.9-18.2 33.3-47 35-83.8.3-4.8-5.3-10.2-9.7-7.4-18 11.2-37.4 19-56 30.5a68 68 0 0 0-21.3 21.8"/><path fill="#e6847b" d="M269.6 301.2c3.8-9 11.9-18.2 20.5-23.4 11.5-6.8 22.6-12.4 33.4-18l-.7 2.4c-10.7 5.4-21.4 10.7-32 17.2a68 68 0 0 0-21.2 21.8"/><path fill="#f8c823" d="M250.6 339.5c1.3-7 8.7-20.7 20-19.5 11.2 1.1 28.1-13.9 34.4-29.3 8.8-21.4 12.2-40 21.5-58.7 3.2-6.6-3-12.8-9.1-11.4-28.5 6.8-58.2 19-78.8 47.2-21.8 29.7-6 54.8 12 71.7"/><path fill="#fce06f" d="M341.5 304.4c7.2-15.5 14-31 13.5-49.3-.1-5-5.2-4.8-8.2-2.9a230 230 0 0 1-37.1 19.6c6.9-1.6 14.9-4 22-8.3a51 51 0 0 1-17 13.7 62 62 0 0 0 24-14.8 47 47 0 0 0-12.3 21.4 45 45 0 0 1 21.4-22.7q-.2 14.7-8.6 26.3c5-6 9.3-12.2 10.6-20 1 13.7-4.1 25.2-8.3 37"/><path fill="#fad036" d="m318.6 274.9-.3 1.1q-1.8.8-3.7 1.2zm2.7-8.3-.6 2a99 99 0 0 1-11 3.2q5.6-2.3 11.6-5.2"/><path fill="#d3ad30" d="M250.6 339.5c1-5.3 5.6-14.7 12.8-18.2l.8-.4c13-5.9 24.6-13.7 31.2-29a50 50 0 0 1-39.9 25.6c17-8 32.5-20.3 45.7-39.4a121 121 0 0 1-45.6 34.2 146 146 0 0 0 41.7-39.1 172 172 0 0 1-49 35.3c8.2-21.2 23.6-34.4 42.4-44.7a186 186 0 0 0-41.6 22c12.8-14 26-27.6 43.6-37.8-17.8 7-32.3 18.7-46.7 30.7v-1a205 205 0 0 1 46.3-41.6c-19.4 9-34 22.6-48.6 36.3a141 141 0 0 1 46.2-42.3l-2.5.1a114 114 0 0 0-48.8 37.6c-21.8 29.7-6 54.8 12 71.7"/><path fill="#fdefac" d="M285.4 314.8c8.4-5 16.3-14.4 20-23.8 8.9-21.4 13.8-41.5 22.2-60.6 3.6-8.1-3-12-9-10.5-28.6 6.8-60.4 19.2-81 47.3a45 45 0 0 0-2.8 53.1c-7.8-14.2-9.4-32 4.3-51 15.3-21.4 41.6-40 77.7-47.3 4.6-1 10.8 3.7 8.7 8.6-8.4 19.4-13.1 39.8-21.7 60a68 68 0 0 1-18.4 24.2"/><path fill="#fce06f" d="M272 244.6c14.2-9.3 28.4-18.5 46.7-20.7 5-.6 5.5 4.4 4 7.7a239 239 0 0 0-13.7 39.6 78 78 0 0 1 4.8-23 51 51 0 0 0-10.9 19c1-9.6 5.9-17.8 11-26a47 47 0 0 1-19.3 15.3 45 45 0 0 0 19.3-24.6 46 46 0 0 0-24.8 12.4c5.1-5.7 10.7-11 18.1-13.4-13.6 1-24.2 7.8-35.2 13.7"/><path fill="#8c6035" d="M110 627.5c21-10.3 44.7 14.7 60.4-5.3s46.6 6.6 57.7-.1 39.8-10.8 43.2 1.6 43.2 1.8 34.6 41c-9.8 44.2-52.6 22.5-73.9 34.8-28.4 16.4-44-4.8-69.1 2.4-45.1 13-47.6-29.7-86.8-38-53.2-11.2 13-26 34-36.4"/><path fill="#764d27" d="M305.4 666.7c-10.6 41.5-52.5 20.7-73.4 32.8-28.4 16.4-44-4.8-69.1 2.4-28.2 8.1-39.7-5.5-54-18.8 35.3 12.2 42.2.2 58.3-3.5 31.5-7.2 33.7 12 69.5-4.3 17.7-8.1 48.9 16 68.7-8.6"/></svg>