<svg xmlns="http://www.w3.org/2000/svg" shape-rendering="geometricPrecision" text-rendering="geometricPrecision" image-rendering="optimizeQuality" fill-rule="evenodd" clip-rule="evenodd" viewBox="0 0 512 512"><path fill-rule="nonzero" d="M226.956 29.044C226.956 13.004 239.96 0 256 0s29.044 13.004 29.044 29.044v156.841L395.947 74.983c11.341-11.341 29.729-11.341 41.07 0 11.341 11.341 11.341 29.729 0 41.07L326.115 226.956h156.841C498.996 226.956 512 239.96 512 256s-13.004 29.044-29.044 29.044H326.115l110.902 110.903c11.341 11.341 11.341 29.729 0 41.07-11.341 11.341-29.729 11.341-41.07 0L285.044 326.115v156.841C285.044 498.996 272.04 512 256 512s-29.044-13.004-29.044-29.044V326.115L116.053 437.017c-11.341 11.341-29.729 11.341-41.07 0-11.341-11.341-11.341-29.729 0-41.07l110.902-110.903H29.044C13.004 285.044 0 272.04 0 256s13.004-29.044 29.044-29.044h156.841L74.983 116.053c-11.341-11.341-11.341-29.729 0-41.07 11.341-11.341 29.729-11.341 41.07 0l110.903 110.902V29.044z"/></svg>