<svg xmlns="http://www.w3.org/2000/svg" shape-rendering="geometricPrecision" text-rendering="geometricPrecision" image-rendering="optimizeQuality" fill-rule="evenodd" clip-rule="evenodd" viewBox="0 0 512 512"><path fill="#3CB53F" fill-rule="nonzero" d="M255.998 0c70.689 0 134.695 28.658 181.022 74.981C483.342 121.304 512 185.31 512 255.998c0 70.689-28.658 134.699-74.98 181.021C390.697 483.342 326.687 512 255.998 512c-70.688 0-134.694-28.658-181.017-74.981C28.658 390.693 0 326.687 0 255.998 0 185.31 28.658 121.304 74.981 74.981 121.304 28.658 185.31 0 255.998 0zm164.169 91.834c-42.013-42.009-100.06-67.998-164.169-67.998-64.108 0-122.155 25.989-164.164 67.998-42.009 42.009-67.998 100.056-67.998 164.164 0 64.108 25.989 122.156 67.998 164.168 42.009 42.009 100.056 67.998 164.164 67.998 64.113 0 122.159-25.989 164.169-67.998 42.009-42.009 67.998-100.056 67.998-164.168 0-64.108-25.989-122.155-67.998-164.164z"/></svg>