<svg xmlns="http://www.w3.org/2000/svg" shape-rendering="geometricPrecision" text-rendering="geometricPrecision" image-rendering="optimizeQuality" fill-rule="evenodd" clip-rule="evenodd" viewBox="0 0 512 446.649"><path fill="#3CB53F" fill-rule="nonzero" d="M378.053 446.634l-244.106.015c-4.717 0-8.793-2.743-10.728-6.721L1.603 229.284a11.88 11.88 0 01.074-12.044L123.658 5.96c2.201-3.803 6.19-5.927 10.289-5.931L378.053 0c4.717 0 8.793 2.742 10.727 6.72l121.617 210.645a11.879 11.879 0 01-.074 12.043L388.342 440.689c-2.201 3.803-6.19 5.927-10.289 5.945zM140.795 422.81h230.41l115.174-199.486L371.205 23.838h-230.41L25.621 223.324 140.795 422.81z"/></svg>