<svg xmlns="http://www.w3.org/2000/svg" shape-rendering="geometricPrecision" text-rendering="geometricPrecision" image-rendering="optimizeQuality" fill-rule="evenodd" clip-rule="evenodd" viewBox="0 0 512 512.004"><path fill="#1E88E5" fill-rule="nonzero" d="M122.572 0h266.856c33.722 0 64.372 13.79 86.577 35.995C498.211 58.201 512 88.851 512 122.572v266.86c0 33.721-13.789 64.371-35.995 86.577-22.205 22.205-52.855 35.995-86.577 35.995H122.572c-33.721 0-64.371-13.79-86.577-35.995C13.79 453.803 0 423.153 0 389.432v-266.86c0-33.721 13.79-64.371 35.995-86.577C58.201 13.79 88.851 0 122.572 0zm266.856 23.836H122.572c-27.14 0-51.825 11.114-69.724 29.012-17.898 17.899-29.012 42.583-29.012 69.724v266.86c0 27.141 11.114 51.825 29.012 69.723 17.899 17.899 42.584 29.013 69.724 29.013h266.856c27.141 0 51.825-11.114 69.724-29.013 17.899-17.898 29.013-42.582 29.013-69.723v-266.86c0-27.141-11.114-51.825-29.013-69.724-17.899-17.898-42.583-29.012-69.724-29.012z"/></svg>