<svg xmlns="http://www.w3.org/2000/svg" width="512" height="512"><path fill="#e56f6b" d="m279 4 2.4 1.1c4.3 2.1 7.3 4.6 10.6 8 5.4 4.8 9.7 5 16.7 4.7h3.4l7.4-.2 11.7-.2q16.6-.1 33.2-.5l28.1-.4c22.3-.7 22.3-.7 30.7 6.6q3.7 3.8 7 8 4.6 4.8 9.8 8.9l4.9 4.4 2.5 2.3L450 49l27.3 24.7c2.6 2.3 2.6 2.3 5.3 4.1 4.3 3.1 7 5.6 8.3 10.8q.6 6.8.3 13.7V138l-.2 30.8v35.8l-.4 94.4-.6 213H22l-.4-213-.2-67.4v-39.8l-.2-57.3v-35c-.2-12.8-.2-12.8 2.3-17Q25.9 80 29 78l3.7-3.2 2-1.8 8.3-7.5 11.9-10.6 8.1-7.4 12-10.8 9.2-8.2L87 26l1.8-2c4-4 7-6.5 12.7-7l6.3.1h3.5l7.4.1 11.8.1 29.2.3 36.3.4c13.7.6 13.7.6 25.4-5.4L225 8a34 34 0 0 1 6.7-3.4l3.1-1.4A58 58 0 0 1 279 4"/><path fill="#b62929" d="M48 200h145v312H48z"/><path fill="#e06d6a" d="M332.1 210.6h2.5c29.2.2 56 4.8 79.4 23.4l2.4 1.9a90 90 0 0 1 24.9 37c6.8 16.8 6.1 35.2 6 53v6.8l-.1 25-.2 56.3H225l-.2-58v-29l-.1-7.1c-.2-31.7 5.2-58.2 27.8-81.8 20.6-20.8 51.3-27.7 79.6-27.4"/><path fill="#4dcec6" d="m279 4 2.4 1A59 59 0 0 1 310 40a60 60 0 0 1-5.5 43 71 71 0 0 1-6.5 9h2l112.4.5h3.5c7.9 0 13.4 1.2 19.4 6.5l1.6 2 1.8 2.1c2.3 3.2 2.4 6 2.5 9.9v9.8l.2 25.1v3.3c0 7.6-1 13-6.2 18.9l-1.8 1.3-1.7 1.5c-3.4 2.2-6.4 2.2-10.4 2.2h-23.6l-12.5.1h-44.7l-60 .1h-3l-129.4.2H93.7c-7.8 0-11.6-.6-17.3-6a21 21 0 0 1-5.7-14.7v-6.3l-.1-3.5-.2-25v-3.2A26 26 0 0 1 76 99a25 25 0 0 1 17.3-6.2h10.4l10.1-.1h10.6L214 92l-1.3-1.6-1.6-2.2-1.6-2.2q-2.6-3.5-4.2-7.5l-1.2-2.6c-5-13.4-5.4-29.5.2-42.7a62 62 0 0 1 37-32.3A59 59 0 0 1 279 4"/><path fill="#2d4150" d="M73 227h95v172H73z"/><path fill="#2e4151" d="M333.8 214.9h3.8c30 0 57.8 7.1 80 28.2 12.2 12.6 23.5 31.7 23.6 49.6l-.2 3.3h-14l1-2c.4-3 .4-3 0-6-2.9-3-6-3.9-10-4.1h-9.5l-11.1.1h-10.6q-6.9.2-13.8-1c-10.5-.6-19.6-.7-28 6l-2-1.8c-6.4-5.6-11.9-9-20-11.2l-2-.6c-15.2-4.4-15.2-4.4-30.4-1.2-2.1 1.4-2.1 1.4-4.6 3.8l-2.1-2.4c-5.5-5-10.8-5-18-4.8-5.2.3-9.5 1.2-13.9 4.2l-3 .6c-3.8 1.8-4.7 3.5-6.3 7.3-1 3-1.2 5-.7 8.1l3 5h-15c0-19.7 11.5-40 24.7-54.1 21.7-20.6 50-27.1 79-27"/><path fill="#f8fcfc" d="m279 4 2.4 1A59 59 0 0 1 310 40a60 60 0 0 1-4 40.4 60 60 0 0 1-35.2 29.3 59 59 0 0 1-43-6 59 59 0 0 1-26.4-36.5q-4.5-23.9 8.8-44c15.5-21 44.3-31 68.8-19.2"/><path fill="#e46d69" d="M60 209h122v208H60zm13 18v172h95V227z"/><path fill="#d64d4d" d="M298 18a3595 3595 0 0 1 66.4-1.1l28-.5c22.3-.7 22.3-.7 30.8 6.7a108 108 0 0 1 7 8q4.6 4.8 9.8 8.9l7.4 6.7L450 49l5 4.5 10 9 2.5 2.2 5 4.6 2.6 2.3 2.4 2.2 9.9 8.7L489 84v1a5920 5920 0 0 1-76.1 1l-32.2.3c-27.6.6-27.6.6-38.1-8.8l-3.2-3a46 46 0 0 0-8.8-6.8l-2-1.5-11.7-8.3c-5.6-3.8-5.6-3.8-6.5-6.8l-.2-4.5A48 48 0 0 0 299.4 22c-1.4-2-1.4-2-1.4-4m-190.1-1h3.4l19.3.3 39.8.3q21.7 0 43.6.4-2.3 4.5-4.9 9a46 46 0 0 0-7.2 21.2c-1.3 5.6-4.6 7.4-9.2 10.6a372 372 0 0 0-14.6 10.5l-2.3 1.5a49 49 0 0 0-5.7 5.1c-10.6 10.2-21.2 10.6-35.3 10.5l-6.5-.2h-11.1l-21-.3-24-.3L23 85l2.9-3.4 1.6-1.9q2.4-2.7 5.1-5Q38 70.2 43 65.5l11.9-10.6 8.1-7.4 12-10.8 9.2-8.2L87 26l1.8-2c6.1-6.1 10.5-7.1 19-7"/><path fill="#b52929" d="m384 206 2.6.9c14.8 5 30 12 40.4 24.1l2.5 2.4 2.5 2.6 1.6 1.6c17.5 18.6 24.8 45.7 24.6 70.6v52.1L458 424H214l-.2-64.2-.2-20.2v-20.1c-.3-35 5.8-63.1 30.8-89.2a105 105 0 0 1 48.9-25.9c27.7-6.8 63.4-7.4 90.7 1.6m-95.2 10.8-2.3.7q-10.2 3.7-19.5 9.5l-2.6 1.5A83 83 0 0 0 236 260l-1.7 3.2a97 97 0 0 0-9.4 44.5v47.8l.1 58.5h222l.2-56.4v-28.3l.1-7c.2-28.9-3.2-54.4-22.3-77.3l-1.4-1.8c-15-18.8-39.4-28.1-62.6-31.2q-1 0-2-.3c-7.9-1-15.8-1-23.7-1h-7.2c-13.6-.1-26.4 1.6-39.3 6"/><path fill="#cd4444" d="M214 431h117v73H214zm127 0h117v72H341z"/><path fill="#2e4151" d="M229 365h213v45h-37c3-10 3-10 5-14v-3l-2-2 .2-2.8c.1-3.4.1-3.4-2.5-6-2.6-2.4-2.6-2.4-5.7-3.2l-1-2-3-1-1 3c-2 2.4-3 3-6 4l-1 3-2 1a23 23 0 0 0 2 17.9c1 2.1 1 2.1 1 5.1h-25l3-10 2-7-1-1-.2-3.2c-1-4.5-2.3-6-5.8-8.8l-3-1-1-2-3-1-1 3c-2 2.4-3 3-6 4l-1 3-2 1c-1.9 4.3-2.5 6.6-1 11l2.8 6.4a9 9 0 0 1 1.2 5.6h-27c1-7 1-7 2.6-10.4a17 17 0 0 0 .4-12.6c-2.4-3.9-4.6-6.5-9-8l-3-3v2l-2 .9c-2.2 1-2.2 1-3 3.1l-3 1-1 3-2 1a23 23 0 0 0 2 17.9c1 2.1 1 2.1 1 5.1h-25c3-9 3-9 4.2-11.9 1-2.2 1-2.2.8-5.1l-2.7.5A46 46 0 0 1 258 392l.6 1.7.8 2.2.7 2.3q1.7 5.8 2.9 11.8h-34z"/><path fill="#b52828" d="M66 431h109v66H66z"/><path fill="#2e4151" d="M229 307h213v47h-8v-4c.4-9.2.4-9.2-3.2-17.4a27 27 0 0 0-8.8-5.6l-1 1 4 2-1 3c-6.4 1.2-6.4 1.2-9.4 0l-1.6-1v-4h-2v-3l-18.3 8.2c-7.4 3-7.4 3-13.7 7.8-1.7 4.8-1.4 7.8-1 13h-26l10-7a32 32 0 0 0-2.5-7.3c-1.5-3.7-1.5-3.7-2-7.4-.2-3.2-.2-3.2-1.8-5.2a13 13 0 0 0-5.7-2.1v-2l-4-1v-2a22 22 0 0 0-15.3.3c-2.6 1.5-2.6 1.5-4.1 3.1-1.7 1.7-3.1 2.3-5.2 3.4-1.9.9-1.9.9-3.4 2.2-.8 3.5-.8 3.5-1 7-1.5 1.8-1.5 1.8-3 3l-1 3-3 2c.2 2 .2 2 1 4 2 1.6 2 1.6 4.6 2.8l2.5 1.2 1.9 1v1h-22l-.6-9.4c-.3-5.4-.3-5.4-1.4-10.6-4.7-4-10.2-6-16-8l-2-.8c-7-1.6-12.7 2.3-18.6 5.5q-7 3.7-14.4 6.8l-2.4 1-5.6 2.5-1 13h-7z"/><path fill="#e26f6b" d="M344.4 318.9c1.6 1.1 1.6 1.1 2.6 3.1l3 1v2l2.3.3c3 .8 3.8 1.4 5.7 3.7.7 2 .7 2 1 4.4q1 5 3 9.6l1 4c-3 2.5-5.5 4.3-9 6l24 1v-12l2.5.5q8.3 1.4 16.5-.5l2 6h2l.4-2.4c.6-2.6.6-2.6 1.6-3.6l4.7-.3h3l3-.2 8.7-.3c2.6-.1 2.6-.1 5.2-1l2.4-.2 3 3v22H230v-10h6v-14q14-7.2 28.3-13.5c3.6-1.3 3.6-1.3 6.7-3.5 9.8.5 18.6 3.5 26 10 1.3 4.2 1.1 8.5 1 12.8v7.2l20-1-8-5-1-4 2-.7c2.2-1 2.2-1 2.6-3.2l.4-2.1 2-3 .3-3c1-4 2.3-4.8 5.7-7l5-3 2-2q7.5-4 15.4-1.1"/><path fill="#b12829" d="M67 218h108v190H67zm6 9v172h95V227z"/><path fill="#596571" d="M229 365h213v45h-37c3-10 3-10 5-14v-3l-2-2 .2-2.8c.1-3.4.1-3.4-2.5-6-2.6-2.4-2.6-2.4-5.7-3.2l-1-2-3-1-1 3c-2 2.4-3 3-6 4l-1 3-2 1a23 23 0 0 0 2 17.9c1 2.1 1 2.1 1 5.1h-25l3-10 2-7-1-1-.2-3.2c-1-4.5-2.3-6-5.8-8.8l-3-1-1-2-3-1-1 3c-2 2.4-3 3-6 4l-1 3-2 1c-1.9 4.3-2.5 6.6-1 11l2.8 6.4a9 9 0 0 1 1.2 5.6h-27c1-7 1-7 2.6-10.3 1.8-4.9 1.2-8.7.4-13.7l3-1a193 193 0 0 0 39-18l-137-1z"/><path fill="#cf9750" d="m284 274 3 3 2.2-2.4c5-4 10.7-4.2 16.8-3.6 12.6 2 24.5 5 34.5 13.3l2.6 2 1.9 1.7 1.6-1 2-1.4 2.2-1.4c4.6-2.5 9.4-2.3 14.6-2.3h3.8c3.8.1 3.8.1 7 .6q6.5.8 13 .5l21.6-.3h2.5c5.3 0 9 .8 13.7 3.3 2 2 2 2 2.3 5-.3 3-.3 3-2.3 5-4.1 1.2-8.1 1.1-12.4 1l-64.4-.2c-3.4 0-3.4 0-6.2 2.2a56 56 0 0 1-20-2v-2l-1.7-.5c-28.6-7.8-28.6-7.8-32.3-11.5l-.7 3.3c-1.4 4-1.9 4.6-5.3 6.7-7.3 3-15.2 3.4-23 3.5h-2.8c-6.6.1-6.6.1-9.7-2.9-2.9-5-3.9-7.8-2.5-13.6l9-3-3-1c1-3 1-3 2.7-4.1A34 34 0 0 1 284 274"/><path fill="#e56e6a" d="M59 424h122v79H59zm7 7v66h109v-66z"/><path fill="#4dcdc5" d="M255 12c3.5.3 4.8.8 7.3 3.4C264 18 264 18 264 21l2.7-.2c3.8.2 5.3.8 8.3 3.2l2.9 5.2c1.2 2 2.4 3 4.2 4.4 3 2.5 4 3.6 4.9 7.4-.3 3.6-.9 6.6-2 10l4 2-1 5c-11.3 3-22.6 3.3-34.2 3.4h-2.3c-9.8 0-20.5.1-29.5-4.4.8-2.4.8-2.4 2-5l3-1-1-1.6c-1.3-3-1.4-5.1-1-8.4 1.8-2.4 1.8-2.4 4-4h3l-.3-2.2c.3-2.8.3-2.8 2.4-5.6 3.3-2.5 4.8-2.7 8.9-2.2l-.3-2.3.3-2.7c2.5-2 4.7-3 7.7-3.9 2.5-1 2.5-1 3.6-3.7z"/><path fill="#f9c796" d="M289 55c1.4 4.2-.3 7-1.9 11l-.9 2.4-6.8 17.5-.9 2.3c-1.9 4.8-3.3 7.8-8 10a59 59 0 0 1-14.4 1.1h-2.9c-11.7 0-11.7 0-16.2-3.3-2-2.9-3-6-4.1-9.2l-1-2.7-2-5.4-4.5-11.8-.8-2c-1.7-4.6-1.7-4.6-.6-7.9l2.3.6c9.2 2.5 18 2.9 27.4 2.8h2.3c16.2 0 16.2 0 32-3.4z"/><path fill="#b72b2b" d="M214 431h117v73H214zm5 5v62h107v-62z"/><path fill="#f5fdfd" d="M144.2 112.6h3.3c7.6 0 14.4.7 20.2 6 2.4 2.7 2.5 4.7 2.5 8.3v2.7c-.2 2.4-.2 2.4-2.2 5.4h-2l2.5 3a15 15 0 0 1 3 11c-.9 3.6-2.5 5-5.5 7a41 41 0 0 1-18.4 3.3H145c-6-.1-11.4-.8-17.1-2.3a35 35 0 0 1-2.3-13.4v-21.3c.3-3.1.5-4.8 2.3-7.3 4.7-3.3 10.7-2.4 16.2-2.4"/><path fill="#b62929" d="M341 431h117v72H341zm5 5v62h107v-62z"/><path fill="#f6fdfd" d="M321.3 118.7h3.4c7.3 0 12 .5 17.7 5.4 2.3 4.1 2.4 8.2 1.6 12.9l-3 4c.2 2.7 1.2 4.4 2.6 6.9a15 15 0 0 1 1.4 9.1c-2.5 2.5-3.4 2.3-6.9 2.4-3.3-.1-4.7-.2-7.5-2q-2.8-4.4-4.6-9.4l-.4 3.9c-.4 3.8-.4 3.8-2.6 6.1a32 32 0 0 1-14 1c-3.1-2.2-3.8-3.4-5-7q-.2-6.4-.2-12.9V129c.2-3 .8-5.2 2.2-7.9 4.7-3.2 9.7-2.3 15.3-2.3"/><path fill="#f3c362" d="M344.4 318.9c1.6 1.1 1.6 1.1 2.6 3.1l3 1v2l2.3.3c3 .8 3.8 1.4 5.7 3.7.7 2 .7 2 1 4.4q1 5 3 9.6l1 4c-8.6 8.3-19.2 8.6-30.5 8.5-8.3-.2-15.7-1.4-22.3-7-1.2-1.5-1.2-1.5-1-3.6l.8-1.9 3-1c.6-1.9.6-1.9 1-4l2-3 .3-3c1-4 2.3-4.8 5.7-7l5-3 2-2q7.5-4 15.4-1.1"/><path fill="#f6fdfd" d="m227.5 118.4 6.1.2c5.1.1 5.1.1 7.4 2.4.2 2.8.2 2.8.1 6.1v3.3l-.1 2.6c2.7-2.4 4.3-5 6.1-8.1 2.8-4.8 2.8-4.8 3.9-5.9 6.5-.2 6.5-.2 9 1a26 26 0 0 1-5 12.8c-1.3 2.9-1 4.2 0 7.2l3 4.8c3 4.8 3.6 7.7 3 13.2-3.7 1.8-8 1.5-12 1-3.7-2.5-5.2-6-7-10l-.7 3.9c-1 3.9-1 3.9-3.4 5.6-5.5 1-11 1.6-15.9-1.5-2.2-4.4-1.2-10.3-1.2-15.1l-.1-10.7v-3.8c.5-5.2 1.4-8.1 6.8-9"/><path fill="#e69288" d="m430 340 3 3v22h-62c3.6-3.6 6.9-6.1 11-9l-4-1v-13l6 1q6.6.5 13-1l2 6h2l.4-2.4c.6-2.6.6-2.6 1.6-3.6l4.8-.3h3l3.1-.2 6.1-.2 2.8-.1c2.7-.2 4.3-1.2 7.2-1.2"/><path fill="#f7fdfd" d="M275.2 118.6h9.1c6.3 0 11 .8 16.7 3.4v6c-1 1-1 1-3.7 1.1h-6.7l-2.6-.1 1 5 4 .4c3.9.5 3.9.5 5 1.6v5c-3.4 2-6 2.2-10 2l1 5h5.4l3.1-.1c2.5.1 2.5.1 3.5 1.1v7c-6.2 3.6-13.1 3.2-20 3.2h-2.7c-8.4 0-8.4 0-12.3-2.2-2.3-4.5-1.3-11-1.4-16l-.1-11.6v-2c0-2 0-2 .5-5.4 3.2-2.8 6-3.4 10.2-3.4"/><path fill="#f6fdfd" d="M197.9 117.4c4.4 1.3 7 5.2 9.2 9l2 3.8 1 2A61 61 0 0 1 218 157c-6 2.5-11.7 2.8-18 1.3-2.4-1.5-2.8-2.8-4-5.3q-4.5-.6-9 0l-1.5 2.5-1.5 2.5q-4.5.6-9 0c-.5-6.8 1-11.7 3.6-18l1.1-2.6A61 61 0 0 1 189 121l1.4-1.7c2.3-1.9 4.6-1.8 7.5-1.9"/><path fill="#f7fdfd" d="M354.7 118.4c6.5 0 6.5 0 9.7 2.3q3.3 3.8 5.6 8.3c3.7-1.2 3.9-2.2 5.7-5.6 2.7-4.2 2.7-4.2 5.5-5 2.2 0 2.2 0 5.8.6.8 2.3 1.1 3.6.4 5.9l-1 1.9-2.2 4.3-1.1 2.1a90 90 0 0 1-5.1 8.8l-.6 10.8c-.4 3.2-.4 3.2-1.6 5.1-2.5 1.5-4.3 1.5-7.2 1.5h-2.8c-3.4-.5-5.2-1.2-7.8-3.4-.4-2.6-.4-2.6-.2-5.7-.3-7-2.7-11.3-6.5-17-2.7-4-4.2-7.5-5.3-12.3 2.8-2.8 4.8-2.5 8.7-2.6"/><path fill="#4dcbc4" d="M106.4 303.7h32.7c2.5.4 3.4 1.3 4.9 3.3.4 2.6.4 2.6.4 5.4l.1 3c-.7 3.5-1.6 4.4-4.5 6.6q-4.4.7-8.8.5h-24c-5.8-.2-5.8-.2-8-1.8-2-2.7-1.6-5-1.5-8.3V309c.6-5.7 3.7-5.1 8.7-5.2"/><path fill="#4ecec6" d="M255 12c3.5.3 4.8.8 7.3 3.4C264 18 264 18 264 21l2.7-.2c3.9.2 5.3.7 8.3 3.2q2.3 3.9 4 8c-4.9 5.3-10 8.6-17.2 9.2a81 81 0 0 1-18.3-2.2l-5.3-1.1-2.3-.5c-1.9-.5-1.9-.5-3.9-.4-.3-2.2-.3-2.2 0-5 2.1-2.8 2.1-2.8 5-5 3.3-.3 3.3-.3 6 0l-.3-2.3.3-2.7c2.5-2 4.7-3 7.7-3.9 2.5-1 2.5-1 3.6-3.7z"/><path fill="#faf4e2" d="M271 324c7 .3 12.7 2 19 5l2.2 1c2 1.2 3.4 2.1 4.8 4q.8 4.4 0 9l-4-1v-2l-2.1 1a23 23 0 0 1-8.9 1.2h-6.8l-3.6-.1-8.6-.1-2 6h-2l-2-6-1.9 1q-9.8 3-19.1-1c2.7-3.3 6.2-4.7 10-6.3l2.1-1 17.1-7.5c3.1-1.3 3.1-1.3 5.8-3.2"/><path fill="#f6c59b" d="m312 376 3 1v2l1.9.3c2.1.7 2.1.7 3.2 2.7l.9 2 3 1 .4 3.3c.4 3.4.4 3.4 1.3 5.5.5 3.5-1.1 6.3-2.6 9.4l-.8 2c-2.1 4.6-2.1 4.6-3.3 5.8q-3.1.3-6.4.3l-3.5.1c-3.1-.4-3.1-.4-4.9-2.1-4.2-7.8-6-13.5-4.2-22.3l3-1c.7-2 .7-2 1-4h3l1-3c2-.7 2-.7 4-1z"/><path fill="#f5bd8e" d="m357.2 376.3 1.8.7v2l1.7.2c3.4 1.2 5 3 7.3 5.8.8 3.6.8 3.6 1 7l1 3-2.8 7.6-.8 2.1c-2.1 5.2-2.1 5.2-4.4 6.3q-6 .8-12 0c-2.5-2.4-2.5-2.4-4-6l-1.2-2.3c-2.3-4.7-3.3-7.7-1.6-12.8l1.8-3.9h2l1-4h3l1-3c2.3-3.1 2.3-3.1 5.2-2.7"/><path fill="#f295a5" d="m293 340 1 2 3 1c.2 6 .2 6 0 8-2 2-2 2-4.5 2.2h-25L257 353h-21v-11l2.4.5c6.1.9 12.5 1.1 18.6-.5l2 6h2l2-6h2.3l10-.4 3.6-.2h3.4l3.2-.2c2.9-.2 4.5-1.2 7.5-1.2"/><path fill="#dca56a" d="M351 284c19.6-.3 19.6-.3 29.3 1.6 4 .6 8 0 12-.4 3.1-.2 5.7.2 8.7.8h6v-2c6.6-.4 12.4 0 18 4 .8 2 .8 2 1 4-3.3 3.3-12.2 2.2-16.6 2.2h-13.1q-16 .2-32-1l-2.6-.3q-6.6-.6-12.7-2.9.6-3.1 2-6"/><path fill="#de607d" d="M411 325v3h2v4c5.6 1 5.6 1 11 0v-2l-5-3c3-1 3-1 4.9-.2 4 2.6 7.6 5 10.1 9.2.3 3.3.3 3.3 0 6h-4v-2l-2.2 1a24 24 0 0 1-8.1 1.4l-3 .1-3 .1-3.1.1-7.6.3-2 5h-2l-2-5-2 .5a30 30 0 0 1-17-1.5c2.6-3 5.7-4.6 9.3-6.4l1.9-.9 9.8-4.9c9.7-4.8 9.7-4.8 12-4.8"/><path fill="#face71" d="m323 326 .8 1.8c1.4 2.6 2.7 3.7 5.2 5.2 2.6.7 2.6.7 5 1l-1 3-10 2h7l2 4-3 3 1 2 3.1-.2 4.2-.3 2.2-.2q6.3-.4 12.7-.1c3.8 0 4.6 0 8-2.2l1.8-2 1 4c-8.6 8.3-19.2 8.6-30.5 8.5-8.3-.2-15.7-1.4-22.3-7-1.2-1.5-1.2-1.5-1-3.6l.8-1.9 3-1 1-4 2-2 .8-2.3a22 22 0 0 1 6.2-7.7"/><path fill="#f6e1a8" d="M430 340a9 9 0 0 1 3 3c.3 2.2.3 2.2.3 4.6l-.1 2.4c-.2 2-.2 2-1.2 3l-5 .1h-6.7L379 353c-1-3.7-1-7.1-1-11l2.5.5q8.3 1.4 16.5-.5l2 6h2l.4-2.4c.6-2.6.6-2.6 1.6-3.6l4.8-.3h3l3.1-.2 6.1-.2 2.8-.1c2.7-.2 4.3-1.2 7.2-1.2"/><path fill="#314252" d="M433 365h9v45h-37l1-5h27z"/><path fill="#ba8343" d="M247 275c1.8 0 1.8 0 4 .3l2.2.3 1.8.4 1 2-10 2c-.4 5 .6 7.7 3 12l2 4c19.8.6 19.8.6 37-7l1-7 1.7.9c8.5 4 17.3 6.7 26.2 9.5l8.1 2.6v1h-3.9l-29.6.6h-2.8q-7.5.1-14.8 2c-4 .9-8 .8-12 .8h-2.5c-7 0-12-1.7-17.5-6-1.5-4-1-7.5.1-11.4a26 26 0 0 1 5-7"/><path fill="#4fcec7" d="m302 124 2 1v2.4l.4 10.8.2 3.8v3.6l.2 3.4q.3 4 1.2 8c-7 4.4-13 4.5-21.2 4.4h-3.6c-9.4-.1-9.4-.1-13.2-2.4 2.8-1 4.4-1.1 7.4-1h2.5l5.3.1c6 .1 11-.6 16.8-2.1v-7h-5.4l-3.1.1c-2.5-.1-2.5-.1-3.5-1.1v-5l9-2v-5l-4-.4c-3.9-.5-3.9-.5-5-1.6v-5h2.6l3.3-.2 3.3-.2c3-.3 3-.3 4.2-2.6z"/><path fill="#c34d74" d="m398.2 376.3 1.8.7v2l1.7.2c3.4 1.2 5 3 7.3 5.8.2 3.2.2 3.2 0 6l2 2-1 3h-12.4q-6.8.3-13.6-1l1-8 3-1c.7-2 .7-2 1-4h3l1-3c2.3-3.1 2.3-3.1 5.2-2.7"/><path fill="#daa35a" d="M302.2 270.8q9.8 1 19.2 3.5l2.3.6c4.7 1.4 8.4 3 12.3 6.1l1 2a50 50 0 0 1-40-4c1-7.9 1-7.9 5.2-8.2"/><path fill="#64442e" d="M283 50c2.4.7 2.4.7 5 2 .8 2.6.8 2.6 1 5-9.2 5.3-22.5 4.3-32.9 4.3h-6.6c-9.2.1-19 0-27.5-4.3.7-2.4.7-2.4 2-5 4-1.4 6.5-.7 10.4.9 7.6 3.1 15 3.3 23 3.3h2.8A53 53 0 0 0 276 54l2.3-.6 1.7-.5 3-.9z"/><path fill="#d79f52" d="m299 272-2 7 9 3 2.5.9a36 36 0 0 0 22.6.3c6.2-1.4 6.2-1.4 9.1-.5 2.6 2 3.7 3.8 4.4 7-.6 2.3-.6 2.3-3.6 4.3-16.7-.4-39.1-5-52-16 .3-1.9.3-1.9 1-4 3.4-2.3 5-2.2 9-2"/><path fill="#586474" d="M433 307v27l-9-6h-3l4 2-1 3c-6.4 1.2-6.4 1.2-9.4 0l-1.6-1v-4h-2v-4l2.7-.5c5.1-2.3 6.8-6.5 9.5-11.3l1.2-2 1.1-1.9c1.5-1.3 1.5-1.3 7.5-1.3"/><path fill="#f8e9d2" d="M271 324a42 42 0 0 1 19 5l2 3q-6.3-2-12.4-4.6-1.4-.8-3.2-1.4l-2.4-1v2l2.6.3a23 23 0 0 1 9.4 4.7c-1.9 3.9-1.9 3.9-3 5l-5 .5-3.1.3-3.3.3-3.2.2q-9.8.9-19.4.7l-1-4 2-.9 15-6.8 2.9-1.3c2-.8 2-.8 3.1-2"/><path fill="#facd6f" d="M347 324c3.6.3 6.3.5 9.3 2.5 2.5 3.6 3 7.3 3.7 11.5l.9 3.3c.1 2.7.1 2.7-1.1 5-4.4 2.6-8.9 2.2-13.8 1.7l-3-1c-.7-3.7-1.2-6.4 0-10l-3-2v-2l2-.3 2-.7 1-3h2z"/><path fill="#cb985a" d="M365.4 281.9h3.8c3.8.1 3.8.1 7 .6q6.5.8 13 .5l21.6-.3h2.5c5.3 0 9 .8 13.7 3.3 2 2 2 2 2.1 5.1l-.1 2.9c-24 3.3-48.4 2.3-72.6.6l-2.9-.2a17 17 0 0 1-6.5-2.4v-5l4-2-2 5 6 1 3.5.5c12.4 1.6 24.8 1.7 37.3 1.6h15.7q6.8 0 13.5-1.1c-.2-2-.2-2-1-4a44 44 0 0 0-17-4v2c-4 .6-7.3 1.1-11.3.5-3.4-.5-5.7-.3-9 0a32 32 0 0 1-12.7-1c-6.9-1.2-14-1.2-21-1.5v-1c4.2-1 8-1.1 12.4-1.1"/><path fill="#f4c194" d="M384 395h26c-3.7 12.3-3.7 12.3-5 15-4.2 2.1-9.4 1.6-14 1-4.7-4.4-5-9.6-7-16"/><path fill="#4fcbc2" d="m271 376 3 1v2l1.9.3c2.8 1 2.8 2.1 4.1 4.7 2 1.3 2 1.3 4 2-.7 4.8-.7 4.8-3 7-3.4 1.2-6.8 1.2-10.4 1.3h-3.4a15 15 0 0 1-8.2-3.3l1-5h2l1-4h3l1-3c2-.7 2-.7 4-1z"/><path fill="#f1a7b3" d="m357.2 376.3 1.8.7v2l1.7.2c3.4 1.2 5 3 7.3 5.8.4 3.2.4 3.2 0 6-3.6 3.6-7.6 3.2-12.4 3.3h-3.4a15 15 0 0 1-8.2-3.3l1-5h2l1-4h3l1-3c2.3-3.1 2.3-3.1 5.2-2.7"/><path fill="#ede4be" d="M310 343h2l.8 1.9c1.2 2.4 1.2 2.4 4.2 4.1 3.4.4 6.9.6 10-1l9-.6 2.5-.1q7-.4 13.9-.1c3.7 0 4.5-.1 7.8-2.2l1.8-2 1 4c-8.6 8.3-19.2 8.6-30.5 8.5a34 34 0 0 1-22.3-7L309 347c.3-2.2.3-2.2 1-4"/><path fill="#d7537e" d="M419 326c5.7.7 9.4 3.4 13.4 7.4 2 3.1 2 5 1.6 8.6h-4v-2l-2.2 1a20 20 0 0 1-7.9 1.2h-5.8l-2.9-.1-7.2-.1v-1h5v-3h-4c-2.2-3-2.2-3-4-6 6-.9 10.2-1 16 1 3.8-.3 3.8-.3 7-1v-2l-5-3z"/><path fill="#556571" d="m299 395 4 9c1 3 1 3 1 6h-25l4-12c3-1 3-1 7-1.7l3.8-.7c3.2-.6 3.2-.6 5.2-.6"/><path fill="#5bd3cb" d="M114 307h17l1 5 1-5h2v13c-2.3 1.1-3.6 1.1-6.1 1.1h-7.5c-6.3 0-6.3 0-7.4-1.1z"/><path fill="#4cc9c1" d="M260 122h2c2.4 3.7 2.3 7.3 2.3 11.5v20.3c0 5 0 5-2.3 7.2-2.8.2-2.8.2-6.1.1h-3.3l-2.6-.1-1-2 12-1c-1-7.1-2.7-11.8-6.9-17.7-1.4-3-1.2-4.2-.1-7.3l3-5.8 1.7-3z"/><path fill="#f6c496" d="M284 395c-.5 6-3.2 10.8-6 16h-9a40 40 0 0 1-4-15l6.1-.5 3.5-.3q4.6-.2 9.4-.2"/><path fill="#c08545" d="M344 288h3v4a355 355 0 0 0 81 2l-1 2c-4.1 1.2-8.2 1.1-12.4 1l-64.4-.2c-3.4 0-3.4 0-6.2 2.2a56 56 0 0 1-20-2l1-2h20l1-5h-2z"/><path fill="#6de6da" d="M228 40c4.2.6 7.3 2 11 4a39 39 0 0 0 17.8 4.6h2l5.2.4-1 3c-9.1 3-23.3 2-32-2-2.5-2.6-3-3.6-3.2-7.2z"/><path fill="#415a66" d="m118 290 5 1 .3 2.4c.4 2.7.4 2.7 2.5 3.7l2.2.9 2.4 2c3 2.2 5 2.7 8.6 3v1h-33c5-5 5-5 7.7-7 2.5-2.2 3.3-3.8 4.3-7"/><path fill="#f3dc61" d="m312 376 3 1v2l1.9.3c2.1.7 2.1.7 3.2 2.7l.9 2 3 1v2c-6.4 3-11 4.9-18 3-3-2-3-2-5-4h2l1-4h3l1-3c2-.7 2-.7 4-1z"/><path fill="#f4c37c" d="m275 270 1 2-6 2v3l2.1.7c3.6 1.6 6 3.7 8.9 6.3l-1 2-1.9-1a37 37 0 0 0-17.1-5l-1.2 2.1-1.7 2.8-1.6 2.7C255 290 255 290 253 292c.4-6.3 2.7-10.6 6-16l-5-1 1-3c6.6-2.4 13-2.2 20-2"/><path fill="#f2b27d" d="M258 63h8l-4 33h-4z"/><path fill="#f2b17c" d="M247 63h7v33h-3q-2.2-8.6-3.1-17.6l-.3-2.2q-.7-6.5-.6-13.2"/><path fill="#fbcb9b" d="M248 62h11v35l8 1v1h-22v-1l9-1V63h-6z"/><path fill="#eed76e" d="M300 387c4 1 4 1 6.3 2.1 5.5 1.8 10.5.1 15.7-2.1h3v2.3c0 2.4.4 4.3 1 6.7h-13.1l-2.8.1h-2.6q-3.8-.2-7.5-1.1l-1 2z"/><path fill="#3b4552" d="m290 285 1.6.6c14 5.3 14 5.3 28.4 9.4v1h-35l4-5c.8-3.2.8-3.2 1-6"/><path fill="#dca56a" d="M267.4 282c4.4.7 7.1 2.2 10.6 5l-1 4c-5.7 2-11 2.5-17 2l-2-1c.7-6 2.8-10.5 9.4-10"/><path fill="#f4fcfc" d="M405 128.4c3 .6 3 .6 5.4 2.7 2 3.8 1.8 5.8.6 9.9-3.5 2.3-4.9 2.5-9 2-2.4-1.6-2.4-1.6-4-4-.6-3.7-.5-5.3 1.6-8.4 2.4-1.6 2.4-1.6 5.4-2.2"/><path fill="#f5fdfd" d="M111 129c1.9 1 1.9 1 3 3 .5 3.6.7 6.8-1.1 10-2.8 1.5-4.8 1.4-7.9 1-2.4-1-2.4-1-4-3-.6-4-.6-6 1.6-9.4 3-2 4.8-2.1 8.4-1.6"/><path fill="#d29a56" d="m349 285 2 1-2 4 6 1 3.5.5c14.6 1.8 29.2 1.6 44 1.6l22.5-.1-1 2c-15.2 2.8-32.1 1-47.5.6l-3.5-.2q-8.2-.2-16.6-.8l-2.9-.2a17 17 0 0 1-6.5-2.4v-5z"/><path fill="#f2b889" d="m258 392 2.6.5q11.7 1.7 23.4-.5l1 4-19 1 1 5.3.5 3c.5 2.8.5 2.8 1.5 5.7-2.2 0-2.2 0-5-1q-2.4-4.3-4-9l-1.1-2.1c-1.1-2.4-1-4.3-.9-6.9"/><path fill="#f2b27e" d="M236 63h6l2 11.4.5 3.3A275 275 0 0 1 247 96h-3l-2.3-8.6-5-18.4c-.7-3-.7-3-.7-6"/><path fill="#d49e7b" d="M297 339h1v15c-1 1-1 1-3.4 1.1h-37L236 355v-2h2.2l43.8-.7h7.5l3.1-.1c2.4 0 2.4 0 3.4-1.2l.6-6 .2-3.4z"/><path fill="#f5dc96" d="m378 342 2.5.5q8.3 1.4 16.5-.5l1 2h-5l1 4h-2v2h-3l-1 3h-9c-1-3.9-1-7-1-11"/><path fill="#c6bd98" d="M310 343h2l.8 1.8c1.4 2.6 2.7 3.7 5.2 5.2q5.5 1.3 11.1 1.1H340q9.1.1 18.1-1.1c-8.3 7.3-21 5.7-31.3 5.3a29 29 0 0 1-16.5-6.8L309 347c.3-2.2.3-2.2 1-4"/><path fill="#facfa7" d="m343 395 23 1c-1 6-1 6-3 8l1-7h-2l-1 8h-2c-.1-5.7-.1-5.7 1-8h-3v8h-2v-8h-2v8l-3-1-1 3v-3h-3z"/><path fill="#f2b27d" d="M271 63h5a132 132 0 0 1-4 20.5l-1 3.4-2 8.1-4 1c1.6-11.1 3.2-22.1 6-33"/><path fill="#364452" d="M322 405h25l1 5h-27z"/><path fill="#24968b" d="M171 142c3 3 3 3 3.5 6.3-.6 4.5-2 7-5.5 9.7a40 40 0 0 1-19.7 3.3h-3q-6.7 0-13.3-1.3v-1h2l9.4-.3h3.3A51 51 0 0 0 166 155l3-1z"/><path fill="#374453" d="M365 405h23l1 5h-25z"/><path fill="#374452" d="M281 405h22l1 5h-25z"/><path fill="#cc285d" d="m391 334 2 1-3 2 12 2c-2.3 3.5-3.8 3.8-7.8 4.7A29 29 0 0 1 378 342c2.4-2.7 4.9-4.2 8-5.7l2.7-1.4z"/><path fill="#6ee7db" d="M238 30q6.1.6 12 2.5a61 61 0 0 0 13 2.5v2c-9.5 3.2-19 .3-28-3z"/><path fill="#f3b37f" d="M285 61c1 2 1 2 0 5l-1.5 3.7-.8 2-4.3 10.6c-4.1 10.2-4.1 10.2-5.4 12.7h-2q3-11.4 6.4-22.6l1-3 .8-2.9.8-2.5c1-2 1-2 3.1-2.8zm-58 1 5 1 7 22.4 1.2 3.6c.8 3 .8 3 .8 6h-2l-9.4-23.1-.8-2A19 19 0 0 1 227 62"/><path fill="#209489" d="M301 150c1.6 1.2 1.6 1.2 3 3 0 2.5 0 2.5-1 5a16 16 0 0 1-11 3.4h-10.7c-9.5-.1-9.5-.1-13.3-2.4 2.8-1 4.4-1.1 7.4-1h2.5l5.3.1c6 .1 11-.6 16.8-2.1z"/><path fill="#d14e79" d="M419 326c5.7.7 9.4 3.4 13.4 7.4 2 3.1 2 5 1.6 8.6h-4v-2l-2.3 1c-2.7 1-2.7 1-5.7 0l2-1-2-2 7-2a28 28 0 0 0-10-9z"/><path fill="#b5486f" d="m396 376 4 1v2c1 0 1 0 1.9.2 2.1.8 2.1.8 3.4 3.4l.7 2.4c-1.8 2.3-2.7 3-5.6 3.4h-2.9l-3-.1c-2.5-.3-2.5-.3-5.5-2.3h10l-3-1v-2l-2-1h5v-2h-6z"/><path fill="#c79047" d="M247 275c1.8 0 1.8 0 4 .3l2.2.3 1.8.4 1 2-10 2c-.4 6.2 1.6 10 5 15a10 10 0 0 1-7.3-3.1c-2.2-3.7-2.3-5.7-1.7-9.9q2-3.9 5-7"/><path fill="#24968c" d="M388 122h2c-.5 5.5-2 9.2-5 13.8a39 39 0 0 0-6 18.2h-1c-1.3-12 1.6-18.3 8-28z"/><path fill="#facfa7" d="m410 395-3 1-.4 2.9c-.6 3.1-.6 3.1-2.6 5.1l1-7h-2l-1 8h-2l1-8h-3v8h-2v-8h-2v8l-2-1q-.7-4-1-8l6.7-.5 3.7-.3z"/><path fill="#eed751" d="m320 382 1 2 3 1v2c-6.4 3-11 4.9-18 3-3-2-3-2-5-4h2l1-3v2c4.7 1.2 9.2 1 14 1z"/><path fill="#e06495" d="M418 332.6c3 .6 6 0 9-.6l2 4a32 32 0 0 1-24-3c4.5-2.6 8.1-2 13-.4"/><path fill="#30b6aa" d="M275 35v3c-5.3 5.1-12.3 5.5-19.3 5.4A74 74 0 0 1 237 38c3.8-1.3 5.7-.5 9.6.4C256 40.5 264 41.2 273 37z"/><path fill="#f6efdf" d="m249 337 .4 3 .6 3 2 1c-5.7.2-10.6.3-16-2 3.2-4 8-6.7 13-5"/><path fill="#4cccc4" d="M152 140.9h5c2 .1 2 .1 3 1.1v5c-1 1-1 1-3 1.1h-5c-2-.1-2-.1-3-1.1v-5c1-1 1-1 3-1.1"/><path fill="#daa568" d="m253 273 6 3c-.3 2-.3 2-1 4l-3 1c-1.2 1.6-1.2 1.6-2.2 3.6L251 288h-2c-2-4.4-2-4.4-1.6-7.3l.6-1.7 7-2-3-1z"/><path fill="#f6f0da" d="m263 331-3 3h-2l1 5h-10l-1-4 8.2-4c2.9-1 4-1.1 6.8 0"/><path fill="#f3c27c" d="M353 285c6.4-.6 11.3 1 17 4 2.6 2.3 2.6 2.3 4 4-6.8-.4-13-1.7-19-5z"/><path fill="#f3bc8e" d="M309 397h2l1 13-6 1a16 16 0 0 1-4-8l2-1 2 2h2z"/><path fill="#bdece9" d="M108 307c3.7.7 3.7.7 5 2 .2 7.5.2 7.5-1 10h-5l-.1-8.5c.1-2.5.1-2.5 1.1-3.5"/><path fill="#329f95" d="M153.4 123.9c3.6.1 3.6.1 5.6 1.1v5c-1 1-1 1-3 1.1h-5.1l-1.9-.1v-6c1-1 1-1 4.4-1.1"/><path fill="#d1916e" d="m300 391 2 1c3.7 1.2 6.7 1.3 10.6 1.3h3.9c3.2-.3 4.9-.6 7.5-2.3l2 2-1 3h-12.5l-2.6.1h-2.5q-3.8-.2-7.4-1.1l-1 2v-5z"/><path fill="#d27f52" d="m258 392 2.6.5q11.7 1.7 23.4-.5l1 4h-13.1l-2.8.1h-2.6q-3.8-.2-7.5-1.1l-1 2z"/><path fill="#f4acb8" d="m360 380 4 1-1 5c-3.2 1.6-6.5 1.3-10 1-3-1-3-1-5-2l1-2q3.8-.5 7.8-.7l2.2-.3z"/><path fill="#7577a2" d="m415 325 1 2 3-1c3.2 2 3.2 2 6 4l-1 3c-6.4 1.2-6.4 1.2-9.4 0l-1.6-1v-5z"/><path fill="#d69574" d="m344 391 2.1 1c3.3 1.1 5.9 1.3 9.3 1.3h3.3a32 32 0 0 0 9.3-2.3l2 4a83 83 0 0 1-28 0z"/><path fill="#f4c37c" d="m334 279 3 4-15 3c2.7-6.7 4.7-9.3 12-7"/><path fill="#e5f6f5" d="M128 307h3l1 5 1-5h2v12h-3l-1-3-1 3h-2z"/><path fill="#d49473" d="m384 392 2.6.5q5.1.7 10.4.6h3.6q4.7-.1 9.4-1.1l1 4h-13.1q-7 .3-13.9-1z"/><path fill="#eebf79" d="M300 271c2.2 0 2.2 0 4.6.4l2.5.3 1.9.3c-4.2 5.7-4.2 5.7-8 7h-4c.8-5.7.8-5.7 3-8"/><path fill="#299b91" d="M189.2 151.6q3.4 0 6.8.4l1 3h-9l-1 2.4c-1 2.6-1 2.6-2 3.6h-7l-1-2 2.8-.1c3.5-.6 3.5-.6 5-4 2.2-2.9 2.2-2.9 4.4-3.3"/><path fill="#f1d490" d="m378 342 2.5.5q8.3 1.4 16.5-.5l1 2h-5l1 3h-16z"/><path fill="#3ba69c" d="m302 124 2 1c-.9 5.9-.9 5.9-2 7h-12v2h-2v-5h2.6l3.3-.2 3.3-.2c3-.3 3-.3 4.2-2.6z"/><path fill="#25968c" d="m241 148 2 1c.4 7.2.4 7.2-1 10.3-3 2.6-5.3 2-9.2 2l-3.8-.2-3-.1-1-2 15-2z"/><path fill="#d54a79" d="M397 337c2.8 0 2.8 0 6.1.4l3.3.3 2.6.3v3l-2.9.7c-3.3 1-3.3 1-4.5 4l-.6 2.3h-2l-2-6 4-2-6-1z"/><path fill="#27988e" d="m218 151 2 1v7c-2 2-2 2-5.7 2.2h-4.4l-2.3-.1-5.6-.1-1-2 17-2z"/><path fill="#f5c79f" d="M343 395h6c2.8 4 1.8 7.4 1 12l-1-3h-3z"/><path fill="#27988d" d="M260 122h2c-.3 6.8-3.3 11.4-7 17l-2-1a29 29 0 0 1 4-10.8l1.7-3z"/><path fill="#d5a062" d="M276 272.6c2.3 1.6 3.6 3 5 5.4l-1 3-5-4 1 1 4 5a55 55 0 0 1-10-6v-3c3.4-2.2 3.4-2.2 6-1.4"/><path fill="#c8527d" d="M392 380h7v2l-3 1v2l4 1-1 1q-2.8 0-5.6-.4l-3-.3-2.4-.3 1-4h3z"/><path fill="#dd6285" d="M411 325v3h2l1 5c-9.6-.6-9.6-.6-13-4l3.9-2 2.2-1.1c1.9-.9 1.9-.9 3.9-.9"/><path fill="#e6f7f6" d="M114 307h5c1 1 1 1 1 3.6v2.4l-4 2v4h-2z"/><path fill="#299a90" d="M344 148c3.1 3.4 3.7 6.4 4 11-2 2-2 2-4.8 2.2h-3.3l-3.3-.1-2.6-.1-1-2 2.2-.2 2.7-.2 2.8-.3c2.3 0 2.3 0 3.3-1.3z"/><path fill="#28988d" d="M344 127c2.9 2.4 3 2.8 3.4 6.9-.2 3.7-1 6.2-3.4 9.1-2.2.8-2.2.8-4 1 .6-3 1.3-4.4 3-7 .5-2.5.5-2.5.6-5.2l.3-2.7z"/><path fill="#f1c299" d="M362 395h7l-1.3 4.8-.8 2.7c-1 2.6-1.9 3.8-3.9 5.5-2.8-4.2-1.8-6.1-1-11h2v5l2-6z"/><path fill="#24978c" d="M326 153h1v6c-3.6 2.3-6.6 2.2-10.7 2.1h-3.6l-2.7-.1-1-2 3-.3 3.8-.4 3.8-.5c3.5-.5 3.5-.5 5.3-2.9z"/><path fill="#e3ce56" d="m312 376 3 1v2l3 1h-2l-1 3h-11l3-1 1-3c2-.7 2-.7 4-1z"/><path fill="#3ca59b" d="M170 121c2.8 3.3 3.5 5.6 3.4 10-.6 3-2.3 4.9-4.4 7l-3-1v-2l1.5-1.3c2.1-2.4 2-4.2 2.2-7.4l.2-3z"/><path fill="#eae2bf" d="M273 323.8q9 1 17 5.2l2 3q-6.3-2-12.4-4.6-1.4-.8-3.2-1.4l-2.4-1-1 4-5-2c2.4-3 2.4-3 5-3.2"/><path fill="#f3c27b" d="M322 275v2l-3.7 2-2.2 1.1c-2.1.9-2.1.9-6.1.9 2.4-7 5-7.3 12-6"/><path fill="#f4b687" d="M272 396h3v10l2-1 1 6h-5c-1-1-1-1-1.1-4.2V399z"/><path fill="#53cdc5" d="M330.6 129h3.4l1 4c-3.2 2.2-4.3 2.2-8 2l-1-5c1-1 1-1 4.6-1"/><path fill="#6ee6da" d="M246 22h15c-1 3-1 3-3 4q-3.3 0-6.6-.4l-3.6-.3-2.8-.3z"/><path fill="#ca9755" d="m275 270-4 2-1.9 1.1c-3 1.2-5.2.9-8.4.5l-3.2-.3-2.5-.3c4.8-4.8 13.7-3 20-3"/><path fill="#d2f1f0" d="M121 307h6v2h-3v3h2v2h-3v4l4 1h-6z"/><path fill="#f4c37c" d="M408 285a28 28 0 0 1 16 5v1c-5.6-.4-10.1-1-15-4z"/><path fill="#b38956" d="M365.4 281.9h3.8q5.5.2 10.8 1.1v1c-9 1.5-18 .6-27 0v-1c4.2-1 8-1.1 12.4-1.1"/><path fill="#319f95" d="M301 150c1.6 1.2 1.6 1.2 3 3 0 2.5 0 2.5-1 5-2.5 2-4 3.1-7.1 2.8-1.9-.8-1.9-.8-4.9-2.8l9-2z"/><path fill="#2c9b91" d="M298 138h2v6c-1.8 1.8-4.7 1.4-7.2 1.6l-1.8.4-1 2h-2v-5l2-.3 2.4-.5 2.5-.5 2.1-.7z"/><path fill="#21958a" d="m262 153 2 1v5c-2 2-2 2-4.8 2.2h-3.3l-3.3-.1-2.6-.1-1-2 2.1-.2 2.8-.2 2.7-.3c2.4-.2 2.4-.2 4.4-1.3.7-2 .7-2 1-4"/><path fill="#f8ccd5" d="m344 387 8.2 2.1q3.6 1.1 6.8 2.9a27 27 0 0 1-15-1z"/><path fill="#f4e286" d="M300 387a36 36 0 0 1 6.4 2 38 38 0 0 0 8.6 2l-1 2c-5.2.2-9.1-.4-14-2z"/><path fill="#209389" d="m378 155 1 4c-3.4 2.2-4.6 2.3-8.5 2.3h-3c-2.5-.3-2.5-.3-5.5-2.3l14-1v-2z"/><path fill="#d7ad56" d="m329 320 2 1-2.5 2.2c-2.7 2.5-2.7 2.5-2.8 5.6l.3 2.2c-2-1-2-1-3-4-2.6 2.6-5 5-7 8 .3-3.8.5-5.5 3.3-8.2q3.7-2.5 7.7-4.8z"/><path fill="#c4c1c4" d="m118 290 5 1 1 5h-7v-5z"/><path fill="#4c5b68" d="m260 401 2 4h-21v-1l3.6-.4 4.8-.5 2.4-.3c4.2-.4 4.2-.4 8.2-1.8"/><path fill="#f3c8a1" d="M321 395h4c-.5 4.2-1 7-4 10h-2c.5-3.5.9-6.7 2-10"/><path fill="#f4c37c" d="M393 285c5.6 1.2 9.4 2.5 14 6-3.3 1.1-3.9 1-7-.3l-2-.8c-2-.9-2-.9-5-2.9z"/><path fill="#de548a" d="M401 332c4.8.6 8.6 2 13 4-3.5 2.3-4.9 2.7-9 2-2.4-3-2.4-3-4-6"/><path fill="#f4c37c" d="M374 285c5.4.4 8.7 1.6 13 5l1 2c-5.6-.4-9.6-2.7-14-6z"/><path fill="#f5c191" d="m259 395 4 1 2 9c-4.7-2.4-4.7-2.4-6-6z"/><path fill="#67e0d5" d="m259 387 15 4v1c-10.6.2-10.6.2-15-1z"/><path fill="#e2c93d" d="m320 382 1 2 3 1v2c-3 1.5-5.6 1.2-9 1.2h-3.7c-3.3-.2-3.3-.2-6.3-2.2h13z"/><path fill="#efd9cc" d="M255 333c.6 1.9.6 1.9 1 4-2 2-2 2-4.6 2.1l-2.4-.1-1-4c2.6-1.5 3.9-2 7-2"/><path fill="#e29caa" d="m355 376 4 1v2l3 1h-2l-1 3h-6l4-2-5-1z"/><path fill="#f4a3ad" d="M263 342h11c-3.2 2.2-4.3 2.2-8 2l1 3h-6z"/><path fill="#f4b988" d="M268 397h3v13h-2z"/><path fill="#27988d" d="M152 140.9h5.1l1.9.1 1 2-3.4.3-3.6.7-2 3h-2v-5c1-1 1-1 3-1.1"/><path fill="#db6290" d="m386 387 4.8 1.4 2.6.7q3.4 1.1 6.6 2.9l-5.9.1-3.3.1c-2.8-.2-2.8-.2-4.8-2.2z"/><path fill="#e98a86" d="M432 296h1v10h-5a57 57 0 0 1 4-10"/><path fill="#23988d" d="m302 124 2 1-1 6c-3.8 1.4-7 .7-11 0v-1h8z"/><path fill="#4ccfc7" d="M152 127h7l-1 4h-7z"/><path fill="#fbf7e8" d="M274 325a72 72 0 0 1 16 6l-2 2-2.3-1-3-1.4-3-1.4c-2.7-1.3-2.7-1.3-5.7-2.2z"/><path fill="#d9f3f1" d="M133 307h2v12h-3z"/><path fill="#e5e0c2" d="M310 343h2l.8 1.8c1.2 2.2 2.4 3.6 4.2 5.2-2.8.2-4.5.4-6.9-1.2-1.1-1.8-1.1-1.8-.8-4z"/><path fill="#e68e95" d="m414 333 1 3c-6.5-.6-6.5-.6-9-2.6l-1-1.4c3.6-1.3 5.7-.8 9 1"/><path fill="#49afa7" d="M190 139a17 17 0 0 1 3 3v4h-5c.9-5.9.9-5.9 2-7"/><path fill="#399890" d="M115 134h1c.5 4 .3 5.6-2.1 9-2.9 2-2.9 2-6.2 1.8l-2.7-.8v-1l3.4-.9c3.6-.8 3.6-.8 5.6-3.1z"/><path fill="#d2326e" d="m399 330 2 1 1 5-9-2q2.9-2.3 6-4"/><path fill="#38a49a" d="M344 127c3 3 3 3 3.3 5l-.3 6-3-1z"/><path fill="#d55778" d="M432 336h2v6h-4v-2l-2-1 4-1z"/><path fill="#e38982" d="m401 330 4 2-3 1 1.5 1.4c1.5 1.6 1.5 1.6 1.5 3.6l-6-1 2-2-1-4z"/><path fill="#46bcb7" d="m271 376 3 1v2l3 1h-2v2l-8-2 4-2z"/><path fill="#37a399" d="M171 142c3 3 3 3 3.2 6.7l-.2 3.3-3-1z"/><path fill="#f8cbd4" d="m349 383 10 2-1 2-9-1z"/><path fill="#dcb1ad" d="m277 324-3 1c-.7 2-.7 2-1 4l-5-2c2.6-3.5 4.8-3.3 9-3"/><path fill="#229489" d="M288 143h8l-1 2-4 1-1 2h-2z"/><path fill="#2d9a8f" d="M171 131c.7 1.8.7 1.8 1 4-1.4 1.8-1.4 1.8-3 3l-3-1v-2z"/><path fill="#209389" d="M327 129h7v2l-2.4.4-2.6.6-1 2h-2z"/><path fill="#d75f8b" d="m390 383 7.8 1.5 2.2.5-1 2c-7.7-.7-7.7-.7-10-3z"/><path fill="#d29a56" d="m249 275 6 1 1 2-9 2z"/><path fill="#f0b587" d="m360 405 5 2-1 3-5 1z"/><path fill="#f1b587" d="m401 405 5 2-1 3-5 1z"/><path fill="#cca07f" d="M297 339h1v15h-3l1-3 .6-6.2.2-3.3z"/><path fill="#efbab5" d="m260 333 3 1-1 4-4-1v-3z"/><path fill="#ebb7b4" d="m266 327 3 2-2 4-3-1v-4z"/><path fill="#aae7e3" d="m115 307 5 1-2 5h-2z"/><path fill="#dca469" d="M273 275c2.9-.2 2.9-.2 6 0l2 3-1 3a78 78 0 0 1-7-6"/><path fill="#efc39c" d="M384 396h3c1.3 3 2 4.8 2 8h-2z"/><path fill="#cb8f72" d="m344 391 6 3v1h-8z"/><path fill="#efbab5" d="m281 331 5 1-2 4-3-1z"/><path fill="#b64f77" d="M419 326c4 .6 6.7 1.8 10 4-3 1-3 1-6.1-.3-2.9-1.7-2.9-1.7-3.9-3.7"/><path fill="#43aba2" d="M325 147c1.5 1 1.5 1 3 3 .2 3.7.2 3.7 0 7-1.5-1-1.5-1-3-3-.2-3.7-.2-3.7 0-7"/><path fill="#c3edea" d="M204 67h2l1 6h-4z"/><path fill="#f4c39a" d="m303 395 4 1v8c-2.7-2.7-3-5.4-4-9"/><path fill="#bb7e59" d="m285 393-1 3-7-2c3-1.9 4.6-2.2 8-1"/><path fill="#c27c55" d="m258 392 6 1v2h-5l-1 2z"/><path fill="#f6e7cb" d="m258 342 5 1-2 5h-2l-2-5z"/><path fill="#c32d60" d="M411 325v3l-10 2c6.7-5 6.7-5 10-5"/><path fill="#c0eae7" d="M205 33h4l-2 6-3-2z"/><path fill="#5fd8cf" d="m245 20 3 1-3 4h6v1h-7c-.6-1.9-.6-1.9-1-4z"/><path fill="#b7ebe8" d="m281 101-1 5-3 1v-2h-2v-2c3.8-2 3.8-2 6-2"/></svg>