<?xml version="1.0" encoding="iso-8859-1"?>
<!-- Uploaded to: SVG Repo, www.svgrepo.com, Generator: SVG Repo Mixer Tools -->
<svg version="1.1" id="Layer_1" xmlns="http://www.w3.org/2000/svg" xmlns:xlink="http://www.w3.org/1999/xlink" 
	 viewBox="0 0 512 512" xml:space="preserve">
<g>
	<path style="fill:#FF5959;" d="M410.021,135.155c-4.525,0-8.193-3.667-8.193-8.193V101.41c0-4.526,3.668-8.193,8.193-8.193
		s8.193,3.667,8.193,8.193v25.553C418.213,131.488,414.545,135.155,410.021,135.155z"/>
	<path style="fill:#FF5959;" d="M101.978,135.155c-4.525,0-8.193-3.667-8.193-8.193V101.41c0-4.526,3.668-8.193,8.193-8.193
		s8.193,3.667,8.193,8.193v25.553C110.171,131.488,106.503,135.155,101.978,135.155z"/>
</g>
<path style="fill:#A93439;" d="M284.599,29.556c0-6.008-4.916-10.923-10.923-10.923h-35.352c-6.008,0-10.923,4.916-10.923,10.923
	v8.632c0,6.008,4.916,10.923,10.923,10.923h35.352c6.008,0,10.923-4.916,10.923-10.923V29.556z"/>
<path style="fill:#FF5959;" d="M255.999,38.241c-67.993,0-125.959,42.915-148.303,103.133h296.604
	C381.958,81.157,323.994,38.241,255.999,38.241z"/>
<g style="opacity:0.2;">
	<path d="M256.844,100.324c-4.525,0-8.193-3.667-8.193-8.193V61.387c0-4.526,3.668-8.193,8.193-8.193s8.193,3.667,8.193,8.193
		v30.744C265.036,96.656,261.368,100.324,256.844,100.324z"/>
</g>
<g style="opacity:0.2;">
	<path d="M200.65,100.324c-4.525,0-8.193-3.667-8.193-8.193V74.886c0-4.526,3.668-8.193,8.193-8.193s8.193,3.667,8.193,8.193v17.245
		C208.843,96.656,205.175,100.324,200.65,100.324z"/>
</g>
<g style="opacity:0.2;">
	<path d="M313.038,100.324c-4.525,0-8.193-3.667-8.193-8.193V74.886c0-4.526,3.668-8.193,8.193-8.193s8.193,3.667,8.193,8.193
		v17.245C321.23,96.656,317.562,100.324,313.038,100.324z"/>
</g>
<path style="fill:#FF5959;" d="M455.549,202.508h-65.265v-60.896H121.716v60.896H56.451c-12.016,0-21.847,9.831-21.847,21.847
	v254.519h442.791V224.355C477.396,212.339,467.564,202.508,455.549,202.508z"/>
<rect x="419.123" y="373.179" style="opacity:0.2;enable-background:new    ;" width="47.331" height="22.778"/>
<rect x="59.38" y="428.267" style="opacity:0.2;enable-background:new    ;" width="47.331" height="22.777"/>
<rect x="49.753" y="333.232" style="opacity:0.2;enable-background:new    ;" width="47.331" height="22.777"/>
<rect x="128.558" y="279.707" style="opacity:0.2;enable-background:new    ;" width="47.331" height="22.777"/>
<rect x="95.864" y="213.063" style="opacity:0.2;enable-background:new    ;" width="47.331" height="22.778"/>
<rect x="331.025" y="185.285" style="opacity:0.2;enable-background:new    ;" width="47.331" height="22.778"/>
<rect x="289.374" y="265.124" style="opacity:0.2;enable-background:new    ;" width="47.331" height="22.777"/>
<rect x="340.736" y="321.839" style="opacity:0.2;enable-background:new    ;" width="47.331" height="22.777"/>
<rect x="453.729" y="245.637" style="opacity:0.2;enable-background:new    ;" width="23.665" height="22.778"/>
<rect x="340.736" y="428.267" style="opacity:0.2;enable-background:new    ;" width="47.331" height="22.777"/>
<rect x="121.72" y="141.613" style="opacity:0.2;enable-background:new    ;" width="268.565" height="34.682"/>
<rect x="147.598" y="333.232" style="fill:#D1D3D3;" width="216.798" height="145.643"/>
<g style="opacity:0.2;">
	<rect x="147.598" y="369.826" width="216.798" height="16.385"/>
</g>
<g style="opacity:0.2;">
	<rect x="147.598" y="420.074" width="216.798" height="16.385"/>
</g>
<path style="fill:#FFB819;" d="M313.527,250.932c0,31.774-25.758,57.532-57.531,57.532s-57.531-25.758-57.531-57.532v-50.978
	c0-6.008,4.916-10.923,10.923-10.923h93.214c6.008,0,10.923,4.916,10.923,10.923V250.932z"/>
<path style="fill:#F2D383;" d="M224.682,250.932c0,17.267,14.048,31.315,31.314,31.315s31.314-14.049,31.314-31.315v-30.223
	c0-4.206-3.441-7.646-7.646-7.646h-47.336c-4.206,0-7.646,3.441-7.646,7.646V250.932z"/>
<path style="fill:#A93439;" d="M432.02,148.323c0,6.008-4.916,10.923-10.923,10.923H90.903c-6.008,0-10.923-4.916-10.923-10.923
	V125.11c0-6.008,4.916-10.923,10.923-10.923h330.193c6.008,0,10.923,4.916,10.923,10.923v23.212H432.02z"/>
<path style="fill:#333E48;" d="M512,488.954c0,2.426-1.984,4.412-4.412,4.412H4.412c-2.427,0-4.412-1.986-4.412-4.412v-15.792
	c0-2.428,1.985-4.414,4.412-4.414h503.176c2.428,0,4.412,1.986,4.412,4.414V488.954z"/>
<rect x="125.194" y="468.749" style="fill:#A4A9AD;" width="261.596" height="24.618"/>
<g>
	<path style="fill:#00AD68;" d="M498.866,468.748c0-26.142-21.193-47.334-47.335-47.334s-47.335,21.192-47.335,47.334H498.866z"/>
	<path style="fill:#00AD68;" d="M101.251,468.748c0-23.125-18.747-41.872-41.873-41.872s-41.873,18.747-41.873,41.872H101.251z"/>
</g>
<path style="fill:#FFFFFF;" d="M438.575,284.427c0,6.008-4.916,10.923-10.923,10.923h-56.954c-6.008,0-10.923-4.916-10.923-10.923
	v-27.671c0-6.008,4.916-10.923,10.923-10.923h56.954c6.008,0,10.923,4.916,10.923,10.923V284.427z"/>
<path style="opacity:0.2;enable-background:new    ;" d="M427.651,245.832h-56.954c-6.008,0-10.923,4.916-10.923,10.923v14.747
	c0-6.008,4.916-10.923,10.923-10.923h56.954c6.008,0,10.923,4.916,10.923,10.923v-14.747
	C438.575,250.748,433.659,245.832,427.651,245.832z"/>
<path style="fill:#A93439;" d="M427.651,303.543h-56.954c-10.54,0-19.116-8.576-19.116-19.116v-27.671
	c0-10.54,8.576-19.116,19.116-19.116h56.954c10.54,0,19.116,8.576,19.116,19.116v27.671
	C446.767,294.967,438.191,303.543,427.651,303.543z M370.696,254.025c-1.48,0-2.731,1.251-2.731,2.731v27.671
	c0,1.48,1.251,2.731,2.731,2.731h56.954c1.48,0,2.731-1.251,2.731-2.731v-27.671c0-1.48-1.251-2.731-2.731-2.731L370.696,254.025
	L370.696,254.025z"/>
<path style="fill:#FFFFFF;" d="M73.418,284.427c0,6.008,4.916,10.923,10.923,10.923h56.954c6.008,0,10.923-4.916,10.923-10.923
	v-27.671c0-6.008-4.916-10.923-10.923-10.923H84.341c-6.008,0-10.923,4.916-10.923,10.923V284.427z"/>
<path style="opacity:0.2;enable-background:new    ;" d="M84.341,245.832h56.954c6.008,0,10.923,4.916,10.923,10.923v14.747
	c0-6.008-4.916-10.923-10.923-10.923H84.341c-6.008,0-10.923,4.916-10.923,10.923v-14.747
	C73.418,250.748,78.333,245.832,84.341,245.832z"/>
<path style="fill:#A93439;" d="M141.296,303.543H84.341c-10.54,0-19.116-8.576-19.116-19.116v-27.671
	c0-10.54,8.576-19.116,19.116-19.116h56.954c10.54,0,19.116,8.576,19.116,19.116v27.671
	C160.412,294.967,151.836,303.543,141.296,303.543z M84.341,254.025c-1.48,0-2.731,1.251-2.731,2.731v27.671
	c0,1.48,1.251,2.731,2.731,2.731h56.954c1.48,0,2.731-1.251,2.731-2.731v-27.671c0-1.48-1.251-2.731-2.731-2.731L84.341,254.025
	L84.341,254.025z"/>
</svg>